<?xml version="1.0" encoding="UTF-8"?>
<svg width="11px" height="7px" viewBox="0 0 11 7" version="1.1" xmlns="http://www.w3.org/2000/svg" xmlns:xlink="http://www.w3.org/1999/xlink">
    <title>72E4568A-7347-47DD-85FE-C9A62266A4E5</title>
    <g id="Final" stroke="none" stroke-width="1" fill="none" fill-rule="evenodd">
        <g id="Hamburger" transform="translate(-273.000000, -64.000000)" fill="#1B1DC7" fill-rule="nonzero">
            <g id="Group-9" transform="translate(14.000000, 56.000000)">
                <g id="Group-6" transform="translate(1.000000, 0.000000)">
                    <path d="M262.789142,14.2815393 L258.695893,10.1445121 C258.31037,9.7548661 258.31037,9.12748684 258.695893,8.73784085 L258.715068,8.71846069 C259.10351,8.3258647 259.736666,8.32249684 260.129262,8.71093838 C260.131782,8.71343246 260.13429,8.71593993 260.136784,8.71846069 L262.789142,11.3991864 C263.177584,11.7917824 263.81074,11.7951502 264.203336,11.4067087 C264.205856,11.4042146 264.208364,11.4017071 264.210858,11.3991864 L266.863216,8.71846069 C267.251658,8.3258647 267.884814,8.32249684 268.27741,8.71093838 C268.27993,8.71343246 268.282438,8.71593993 268.284932,8.71846069 L268.304107,8.73784085 C268.68963,9.12748684 268.68963,9.7548661 268.304107,10.1445121 L264.210858,14.2815393 C263.822416,14.6741353 263.18926,14.6775032 262.796664,14.2890616 C262.794144,14.2865675 262.791636,14.2840601 262.789142,14.2815393 Z" id="Arrow" transform="translate(263.500000, 11.500000) scale(1, -1) translate(-263.500000, -11.500000) "></path>
                </g>
            </g>
        </g>
    </g>
</svg>