<?xml version="1.0" encoding="UTF-8"?>
<svg width="16px" height="12px" viewBox="0 0 16 12" version="1.1" xmlns="http://www.w3.org/2000/svg" xmlns:xlink="http://www.w3.org/1999/xlink">
    <title>77C9DCD0-915C-47AE-97D1-A26CB61B97D0</title>
    <g id="Page-2" stroke="none" stroke-width="1" fill="none" fill-rule="evenodd">
        <g id="1_My-Account_Mobile-app" transform="translate(-16.000000, -305.000000)" fill="#052F5F" fill-rule="nonzero">
            <g id="Group-15" transform="translate(16.000000, 300.000000)">
                <g id="credit-cards" transform="translate(0.000000, 5.000000)">
                    <path d="M14.6677165,0.0267716535 L1.33228346,0.0267716535 C0.598425197,0.0267716535 0,0.62519685 0,1.35905512 L0,9.91338583 C0,10.6472441 0.598425197,11.2456693 1.33228346,11.2456693 L14.6645669,11.2456693 C15.3984252,11.2456693 15.9968628,10.6472441 15.9968628,9.91338583 L15.9968628,1.35905512 C16,0.62519685 15.4015748,0.0267716535 14.6677165,0.0267716535 Z M0.888188976,1.35905512 C0.888188976,1.11338583 1.08661417,0.91496063 1.33228346,0.91496063 L14.6645669,0.91496063 C14.9102362,0.91496063 15.1086614,1.11338583 15.1086614,1.35905512 L15.1086614,3.07559055 L0.888188976,3.07559055 L0.888188976,1.35905512 Z M15.111811,9.91338583 L15.111811,9.91338583 C15.111811,10.1590551 14.9133858,10.3574803 14.6677165,10.3574803 L1.33228346,10.3574803 C1.08661417,10.3574803 0.888188976,10.1590551 0.888188976,9.91338583 L0.888188976,3.96377953 L15.111811,3.96377953 L15.111811,9.91338583 Z" id="Shape"></path>
                    <path d="M12.5417323,5.66456693 C12.2015748,5.66456693 11.8771654,5.77480315 11.6094488,5.97007874 C11.3417323,5.77480315 11.0173228,5.66456693 10.6771654,5.66456693 C9.80787402,5.66456693 9.0992126,6.37322835 9.0992126,7.24251969 C9.0992126,8.11496063 9.80472441,8.82047244 10.6771654,8.82047244 C11.0173228,8.82047244 11.3417323,8.71023622 11.6094488,8.51496063 C11.8771654,8.71023622 12.2015748,8.82047244 12.5417323,8.82047244 C13.4110236,8.82047244 14.119685,8.11181102 14.119685,7.24251969 C14.119685,6.37322835 13.4110236,5.66456693 12.5417323,5.66456693 Z M12.5417323,7.93543307 C12.3149606,7.93543307 12.103937,7.82519685 11.9748031,7.63622047 C11.8929134,7.51653543 11.7543307,7.44409449 11.6094488,7.44409449 C11.4645669,7.44409449 11.3259843,7.51653543 11.2440945,7.63622047 C11.1149606,7.82204724 10.903937,7.93543307 10.6771654,7.93543307 C10.296063,7.93543307 9.98740157,7.62677165 9.98740157,7.24566929 C9.98740157,6.86456693 10.296063,6.55590551 10.6771654,6.55590551 C10.903937,6.55590551 11.1149606,6.66614173 11.2440945,6.85511811 C11.3259843,6.97480315 11.4645669,7.04724409 11.6094488,7.04724409 C11.7543307,7.04724409 11.8929134,6.97480315 11.9748031,6.85511811 C12.103937,6.66929134 12.3149606,6.55590551 12.5417323,6.55590551 C12.9228346,6.55590551 13.2314961,6.86456693 13.2314961,7.24566929 C13.2314961,7.62677165 12.9228346,7.93543307 12.5417323,7.93543307 Z" id="Shape"></path>
                    <path d="M5.49606299,5.66771654 L2.66141732,5.66771654 C2.41574803,5.66771654 2.21732283,5.86614173 2.21732283,6.11181102 C2.21732283,6.35748031 2.41574803,6.55590551 2.66141732,6.55590551 L5.49606299,6.55590551 C5.74173228,6.55590551 5.94015748,6.35748031 5.94015748,6.11181102 C5.94015748,5.86614173 5.74173228,5.66771654 5.49606299,5.66771654 Z" id="Path"></path>
                    <path d="M5.49606299,7.93228346 L2.66141732,7.93228346 C2.41574803,7.93228346 2.21732283,8.13070866 2.21732283,8.37637795 C2.21732283,8.62204724 2.41574803,8.82047244 2.66141732,8.82047244 L5.49606299,8.82047244 C5.74173228,8.82047244 5.94015748,8.62204724 5.94015748,8.37637795 C5.94015748,8.13070866 5.74173228,7.93228346 5.49606299,7.93228346 Z" id="Path"></path>
                </g>
            </g>
        </g>
    </g>
</svg>