<?xml version="1.0" encoding="UTF-8"?>
<svg width="16px" height="14px" viewBox="0 0 16 14" version="1.1" xmlns="http://www.w3.org/2000/svg" xmlns:xlink="http://www.w3.org/1999/xlink">
    <title>2D286083-25A5-48D1-B82E-32A16B149E5D</title>
    <g id="Page-1" stroke="none" stroke-width="1" fill="none" fill-rule="evenodd">
        <g id="bureau-side-bar-my-prof" transform="translate(-227.000000, -151.000000)" fill="#052F5F" fill-rule="nonzero">
            <g id="Group-6-Copy-7" transform="translate(207.000000, 125.000000)">
                <g id="Group-7" transform="translate(20.000000, 24.000000)">
                    <path d="M1.11702921,11.1124196 C1.26646248,12.4036167 1.79248256,13.6104135 2.62391779,14.6068426 C2.81942072,14.8411421 2.78348027,15.185906 2.54364254,15.3768944 C2.30380482,15.5678828 1.95089149,15.5327723 1.75538856,15.2984729 C0.789244718,14.1406029 0.177360279,12.7368159 0.00359756702,11.2353971 C-0.0311644627,10.9350314 0.189905507,10.6640074 0.497371165,10.6300481 C0.804836822,10.5960888 1.08226718,10.8120539 1.11702921,11.1124196 Z M15.2883221,11.5040826 L15.37841,11.5177825 C15.6793339,11.5881495 15.8648888,11.883507 15.7928585,12.177482 C15.5121282,13.323219 14.9701994,14.3868962 14.2125288,15.2957494 C14.0171328,15.530134 13.6642355,15.5653982 13.4243107,15.3745142 C13.1843858,15.1836302 13.1482881,14.838882 13.3436841,14.6044974 C13.9957457,13.822326 14.4617849,12.9076019 14.7031168,11.9226607 C14.760741,11.6874807 14.9657629,11.5244318 15.1995396,11.5046473 L15.2883221,11.5040826 Z M11.7282929,6.90806568 C11.9561504,7.13066152 11.9561504,7.49166986 11.7282929,7.71426571 L9.82598511,9.57264584 C9.98260151,9.85470449 10.0717383,10.1776299 10.0717383,10.5203763 C10.0717383,11.619993 9.155977,12.5144965 8.03048195,12.5144965 C6.90487289,12.5144965 5.98922556,11.619993 5.98922556,10.5203763 C5.98922556,9.42087089 6.90487289,8.52625612 8.03048195,8.52625612 C8.38144401,8.52625612 8.71188861,8.61333462 9.00061447,8.76633447 L10.9029223,6.90795433 C11.1308937,6.68535849 11.5003214,6.68535849 11.7282929,6.90806568 Z M8.03048195,9.66662828 C7.5485503,9.66662828 7.1564394,10.0496846 7.1564394,10.5204876 C7.1564394,10.9912906 7.5485503,11.374347 8.03048195,11.374347 C8.5124136,11.374347 8.9045245,10.9912906 8.9045245,10.5204876 C8.9045245,10.0496846 8.5124136,9.66662828 8.03048195,9.66662828 Z M10.7259772,2.9697842 C13.7146689,4.03088483 15.8086116,6.73660523 15.9990007,9.87397048 C16.0173122,10.1757201 15.7817581,10.434838 15.4728759,10.4527267 C15.1639937,10.4706153 14.8987508,10.2405006 14.8804393,9.93875099 C14.7166814,7.24023248 12.9144774,4.91148678 10.3432367,3.99859735 C10.0524224,3.89534707 9.90235016,3.58133851 10.008041,3.2972396 C10.1137319,3.0131407 10.4351629,2.86653392 10.7259772,2.9697842 Z M7.98282295,2.5 C8.29224747,2.5 8.54308559,2.74504583 8.54308559,3.04732519 C8.54308559,3.34960454 8.29224747,3.59465038 7.98282295,3.59465038 C4.68057911,3.59465038 1.85774662,5.87498845 1.21050714,8.99743697 C1.14909538,9.29370302 0.853463154,9.48523963 0.550194092,9.42524597 C0.246925029,9.36525231 0.0508609521,9.07644675 0.112272719,8.78018071 C0.86481907,5.14970494 4.14489112,2.5 7.98282295,2.5 Z" id="credit-score-hover"></path>
                </g>
            </g>
        </g>
    </g>
</svg>