<?xml version="1.0" encoding="UTF-8"?>
<svg width="120px" height="41px" viewBox="0 0 120 41" version="1.1" xmlns="http://www.w3.org/2000/svg" xmlns:xlink="http://www.w3.org/1999/xlink">
    <!-- Generator: sketchtool 59 (101010) - https://sketch.com -->
    <title>E7F4EA1F-CAA7-461D-8E58-797A0F191978</title>
    <desc>Created with sketchtool.</desc>
    <defs>
        <linearGradient x1="50%" y1="0%" x2="50%" y2="100%" id="linearGradient-1">
            <stop stop-color="#1E79AF" offset="0%"></stop>
            <stop stop-color="#63FFD3" offset="100%"></stop>
        </linearGradient>
        <linearGradient x1="84.7178118%" y1="28.8782655%" x2="5.24419544%" y2="77.6611704%" id="linearGradient-2">
            <stop stop-color="#DC4057" offset="0%"></stop>
            <stop stop-color="#9E36BB" offset="100%"></stop>
        </linearGradient>
        <linearGradient x1="50%" y1="0%" x2="50%" y2="97.8256537%" id="linearGradient-3">
            <stop stop-color="#FF9676" offset="0%"></stop>
            <stop stop-color="#FFD074" offset="100%"></stop>
        </linearGradient>
        <linearGradient x1="17.4435371%" y1="20.2975638%" x2="100%" y2="79.7024362%" id="linearGradient-4">
            <stop stop-color="#51C6AD" offset="0%"></stop>
            <stop stop-color="#D5FFA1" offset="100%"></stop>
        </linearGradient>
    </defs>
    <g id="My-Account_Iteration" stroke="none" stroke-width="1" fill="none" fill-rule="evenodd">
        <g id="Nav" transform="translate(-224.000000, -1201.000000)">
            <g id="Download-App" transform="translate(0.000000, 1164.000000)">
                <g id="google-play" transform="translate(224.000000, 37.000000)">
                    <rect id="bg" fill="#000000" x="0" y="0" width="120" height="40.7142857" rx="5.14285714"></rect>
                    <g transform="translate(8.967316, 15.875923)">
                        <path d="M0.750784268,0.73474668 C0.41271182,0.841383693 0.193928417,1.18650939 0.193928417,1.70866304 L0.196012069,18.1423197 C0.196012069,18.658695 0.408023604,18.9985677 0.73671962,19.1120336 L9.85529929,9.91603588 L0.750784268,0.73474668" id="left" fill="url(#linearGradient-1)"></path>
                        <path d="M0.73671962,19.1120336 C0.97321406,19.1929307 1.26961348,19.1551087 1.59257945,18.9765048 L12.72032,12.805216 L9.85529929,9.91603588 L0.73671962,19.1120336" id="bottom" fill="url(#linearGradient-2)"></path>
                        <path d="M12.7218828,12.805216 L16.5162121,10.7013676 C17.2856004,10.2732436 17.2856004,9.57668854 16.5162121,9.14961519 L12.7078181,7.03788715 L9.85529929,9.91445997 L12.7218828,12.805216" id="right" fill="url(#linearGradient-3)"></path>
                        <path d="M12.7072972,7.03788715 L1.59257945,0.875003244 C1.27742717,0.701127129 0.986757795,0.660678607 0.751305181,0.73474668 L9.85529929,9.91445997 L12.7072972,7.03788715" id="top" fill="url(#linearGradient-4)"></path>
                    </g>
                    <path d="M69.4668052,22.1678767 L68.3405916,22.8087494 L67.2487582,22.8087494 C67.6524657,23.143369 68.4947818,23.853582 68.4947818,25.2004652 C68.4947818,26.5132036 67.7608156,27.1320135 67.0205984,27.7177291 C66.7934804,27.9483382 66.5278148,28.1983836 66.5278148,28.5850085 C66.5278148,28.9774117 66.7934804,29.1901604 66.9846554,29.3488026 L67.6196482,29.8431151 C68.3916411,30.5002722 69.0953943,31.1027976 69.0953943,32.3267594 C69.0953943,33.994079 67.49515,35.6755818 64.4712509,35.6755818 C61.923987,35.6755818 60.692549,34.4521454 60.692549,33.1404576 C60.692549,32.5022114 61.0077012,31.5981607 62.0474433,30.9788255 C63.137193,30.3069598 64.6134601,30.2171326 65.4042058,30.164602 C65.1572931,29.8431151 64.8754792,29.5063943 64.8754792,28.9569247 C64.8754792,28.65645 64.9650763,28.4773208 65.0515478,28.266148 C64.8593309,28.2845337 64.6655514,28.3034447 64.4894828,28.3034447 C62.6251357,28.3034447 61.571329,26.9008791 61.571329,25.5188004 C61.571329,24.7035263 61.9401353,23.7989502 62.6975426,23.143369 C63.6997789,22.3112851 64.894753,22.1678767 65.8443772,22.1678767 L69.4668052,22.1678767 Z M65.7148571,30.6597353 L65.5985063,30.6594398 C65.439107,30.6594398 64.4894828,30.69411 63.7539539,30.9431048 C63.3648319,31.0865132 62.2401811,31.5104347 62.2401811,32.7695919 C62.2401811,34.0261226 63.454429,34.9322746 65.3328407,34.9322746 C67.0205984,34.9322746 67.9165685,34.1164752 67.9165685,33.0180614 C67.9165685,32.1140107 67.3367925,31.6370333 66.0032556,30.6783508 C65.8950359,30.6641676 65.8193408,30.6606217 65.7148571,30.6597353 Z M104.519032,22.1095678 L107.523657,29.3766438 L110.499111,22.1095678 L111.504994,22.1095678 L107.232988,32.2553179 C106.789691,33.3006758 106.092189,33.8033931 105.13423,33.8033931 C104.846686,33.8033931 104.467461,33.7519132 104.245553,33.6830982 L104.39818,32.855742 C104.588313,32.9413668 104.912842,32.9938974 105.118602,32.9938974 C105.662436,32.9938974 106.041139,32.7695919 106.381295,31.9774313 L107.029832,30.4955445 L103.527214,22.1095678 L104.519032,22.1095678 Z M88.6275431,21.9020721 C90.8325672,21.9020721 92.3176898,23.588828 92.3176898,26.2589558 C92.3176898,28.9112232 90.8325672,30.6331745 88.6275431,30.6331745 C87.4669492,30.6331745 86.4272071,30.0295985 85.7604387,29.0835234 L85.7604387,33.598524 L84.8712404,33.598524 L84.8712404,22.1095678 L85.7604387,22.1095678 L85.7604387,23.4181037 C86.3396938,22.5723619 87.3981887,21.9020721 88.6275431,21.9020721 Z M36.8930821,18.4119425 C37.7822803,18.4119425 38.6376193,18.5437942 39.4169049,18.7581188 C40.6519893,19.1079723 41.2296817,19.5392481 41.5906743,19.79192 L40.2217153,21.1030825 L39.6445438,21.2333582 L40.056065,20.5719986 C39.4986882,20.0230544 38.4740526,19.0097401 36.5294849,19.0097401 C33.9296088,19.0097401 31.9683719,21.0027491 31.9683719,23.9124162 C31.9683719,27.0374585 34.2077763,29.977068 37.7994705,29.977068 C38.8548399,29.977068 39.398152,29.7632687 39.8914565,29.5636526 L39.8914565,26.8845946 L37.4030558,27.0195981 L38.7220071,26.3051827 L42.214207,26.3051827 L41.7870584,26.7196487 C41.6719367,26.8184061 41.6563093,26.8520257 41.6240127,26.9844027 C41.6068226,27.1356906 41.5906743,27.6168705 41.5906743,27.7860188 L41.5906743,29.8121221 L39.2340645,30.3563385 C38.2792312,30.5081518 37.4218086,30.6415794 36.5138575,30.6415794 C31.9683719,30.6415794 30.2363366,27.2675423 30.2363366,24.6268317 C30.2363366,21.4019813 32.6903571,18.4119425 36.8930821,18.4119425 Z M99.3656408,21.898395 C100.33506,21.898395 101.119554,22.1337318 101.710791,22.6033549 C102.301506,23.0682503 102.597905,23.740116 102.597905,24.6184268 L102.597905,28.7210626 C102.597905,29.015759 102.61197,29.3004745 102.648434,29.5778358 C102.685939,29.8557224 102.745844,30.1330837 102.825544,30.4015148 L101.800908,30.4015148 C101.741524,30.1131221 101.696726,29.8588743 101.663908,29.6466508 C101.636821,29.4349527 101.621194,29.2185269 101.621194,28.9984239 C101.316459,29.4496613 100.884623,29.8252547 100.332976,30.1210017 C99.7808084,30.4188499 99.2562491,30.5648848 98.5368684,30.5648848 C97.6705904,30.5648848 96.9980919,30.3500349 96.5183311,29.9140313 C96.0401331,29.4785531 95.7994714,28.888635 95.7994714,28.1421759 C95.7994714,27.3967675 96.1479621,26.7916155 96.8428598,26.3288214 C97.5377576,25.8639261 98.4358114,25.6327917 99.5474394,25.6327917 L101.621194,25.6327917 L101.621194,24.5995158 C101.621194,24.0043447 101.420121,23.5362975 101.018497,23.1969501 C100.615311,22.8570775 100.049599,22.6853026 99.3161541,22.6853026 C98.6457392,22.6853026 98.1019062,22.8423689 97.6877805,23.1480967 C97.2773011,23.4601282 97.0704987,23.846753 97.0704987,24.312699 L96.160464,24.312699 L96.1417111,24.268048 C96.1088936,23.6397827 96.3938329,23.0887372 96.9996546,22.6128104 C97.6028717,22.137409 98.3930965,21.898395 99.3656408,21.898395 Z M77.4622968,21.9388435 C78.094685,21.9388435 78.7442633,22.0985364 79.272469,22.4352572 C80.150728,23.0209728 80.377846,23.7821404 80.503907,24.1897775 L76.3715052,25.8733816 L75.0181736,25.9794933 C75.4562613,28.2330538 76.9679504,29.543691 78.638518,29.543691 C79.4730204,29.543691 80.0923858,29.2689562 80.6607017,28.9858165 C80.6607017,28.9858165 80.7747816,28.9259317 80.6935192,29.0078794 L79.8527659,29.8079196 C79.6584654,29.9156072 79.4652067,30.0406299 79.272469,30.1294066 C78.6885256,30.3967871 78.094685,30.4640262 77.5670002,30.4640262 C77.0054562,30.4640262 76.1251134,30.4272548 75.2270597,29.7721988 C73.9794734,28.8860085 73.4340776,27.3626226 73.4340776,26.0351757 C73.4340776,23.2867774 75.6526455,21.9388435 77.4622968,21.9388435 Z M47.2602899,21.9388435 C49.8429758,21.9388435 51.4598894,23.97913 51.4598894,26.1213258 C51.4598894,28.2136175 49.8622496,30.4272548 46.9951452,30.4272548 C44.2004477,30.4272548 42.7080324,28.2330538 42.7080324,26.2463485 C42.7080324,23.9250235 44.5880069,21.9388435 47.2602899,21.9388435 Z M56.6138012,21.9388435 C59.19805,21.9388435 60.8165262,23.97913 60.8165262,26.1213258 C60.8165262,28.2136175 59.2168028,30.4272548 56.3502193,30.4272548 C53.5560427,30.4272548 52.0610228,28.2330538 52.0610228,26.2463485 C52.0610228,23.9250235 53.9404764,21.9388435 56.6138012,21.9388435 Z M94.420615,18.937248 L94.420615,30.4262042 L93.5319377,30.4262042 L93.5319377,18.937248 L94.420615,18.937248 Z M72.8350278,17.6843944 C72.2901529,18.0027295 72.1271072,18.1965673 72.0573049,18.816953 L72.0531376,28.8707746 C72.0531376,29.5594501 72.1750312,29.6666124 72.7527236,29.7207189 C73.0538112,29.7564397 73.353857,29.7721988 73.6507773,29.8079196 L73.0006781,30.1982216 L69.9028093,30.1982216 C70.3091213,29.6666124 70.3789236,29.6135566 70.3789236,29.2595007 L70.3789236,28.8639457 L70.3721518,18.3242165 L69.0042346,18.3242165 L70.3211023,17.6843944 L72.8350278,17.6843944 Z M46.8034493,22.4888383 C46.2215896,22.4888383 45.6438973,22.7173462 45.2219578,23.0903131 C44.5343529,23.7106989 44.4124593,24.4902522 44.4124593,25.255097 C44.4124593,27.0064655 45.27457,29.8951203 47.4014573,29.8951203 C48.0874995,29.8951203 48.7881273,29.5594501 49.1939184,28.9931708 C49.6158578,28.4258409 49.7210822,27.7177291 49.7210822,27.0274777 C49.7210822,25.4662698 48.981386,22.4888383 46.8034493,22.4888383 Z M56.1590443,22.4888383 C55.5792683,22.4888383 54.995325,22.7173462 54.5744274,23.0903131 C53.8878642,23.7106989 53.7654497,24.4902522 53.7654497,25.255097 C53.7654497,27.0064655 54.6239141,29.8951203 56.7544477,29.8951203 C57.4420527,29.8951203 58.1437223,29.5594501 58.5484716,28.9931708 C58.9735365,28.4258409 59.0766773,27.7177291 59.0766773,27.0274777 C59.0766773,25.4662698 58.3390646,22.4888383 56.1590443,22.4888383 Z M88.4775202,22.7115679 C87.3320328,22.7115679 86.236553,23.6192957 85.7604387,24.4109311 L85.7604387,28.0885948 C86.236553,28.8818061 87.3320328,29.8226282 88.4775202,29.8226282 C90.3220726,29.8226282 91.3623356,28.2745529 91.3623356,26.2589558 C91.3623356,24.2465105 90.3220726,22.7115679 88.4775202,22.7115679 Z M101.621194,26.3445806 L99.5375421,26.3445806 C98.7415872,26.3445806 98.0826324,26.5221338 97.5643241,26.8803922 C97.044974,27.2375999 96.781913,27.6699263 96.781913,28.1726437 C96.781913,28.6469945 96.9486051,29.0262651 97.2799057,29.3136072 C97.6122481,29.6041011 98.0664841,29.7480348 98.6457392,29.7480348 C99.4010629,29.7480348 99.9438541,29.5778358 100.498626,29.241115 C101.049752,28.9064954 101.424809,28.4699666 101.621194,27.9415092 L101.621194,26.3445806 Z M64.7353537,22.7541176 C64.2795549,22.7541176 63.7857295,22.9847267 63.5054784,23.3414091 C63.2080372,23.7106989 63.1189611,24.1897775 63.1189611,24.6504704 C63.1189611,25.8376608 63.8055242,27.8065057 65.3156506,27.8065057 C65.7563429,27.8065057 66.2303736,27.5906052 66.5085411,27.3100921 C66.9148531,26.9008791 66.9502752,26.3356504 66.9502752,26.0146887 C66.9502752,24.7397723 66.1965143,22.7541176 64.7353537,22.7541176 Z M76.9679504,22.5235085 C76.2657599,22.5235085 74.9473295,23.0750793 74.9473295,24.990343 C74.9473295,25.2892419 74.9827515,25.607577 75.0004626,25.9259121 L78.2004303,24.5254477 C78.5358982,24.4025262 78.710404,24.2964145 78.710404,24.0495209 C78.710404,23.3414091 77.9160119,22.5235085 76.9679504,22.5235085 Z" id="logotype" fill="#FFFFFF"></path>
                    <path d="M33.1443153,6.53258482 C34.248983,6.53258482 34.9709186,7.05970399 35.4215975,7.70519936 L34.6141974,8.17286501 C34.3084365,7.74766617 33.7728239,7.41695595 33.1443153,7.41695595 C32.0231917,7.41695595 31.1897808,8.26629197 31.1897808,9.4643866 C31.1897808,10.6449637 32.0231917,11.5118172 33.1443153,11.5118172 C33.7223946,11.5118172 34.2319962,11.2485231 34.486797,11.0022156 L34.486797,10.1268687 L32.7875942,10.1268687 L32.7875942,9.25152176 L35.4725577,9.25152176 L35.4725577,11.3674301 C34.9204892,11.9879762 34.1215826,12.4041509 33.1443153,12.4041509 C31.4955417,12.4041509 30.1700467,11.2405605 30.1700467,9.4643866 C30.1700467,7.68025012 31.4955417,6.53258482 33.1443153,6.53258482 Z M62.0811935,6.53258482 C63.7713722,6.53258482 64.978491,7.77314625 64.978491,9.4643866 C64.978491,11.1550961 63.7713722,12.3956575 62.0811935,12.3956575 C60.380929,12.3956575 59.1833652,11.1550961 59.1833652,9.4643866 C59.1833652,7.77314625 60.380929,6.53258482 62.0811935,6.53258482 Z M40.5850297,6.62601178 L40.5850297,7.50188955 L37.6956947,7.50188955 L37.6956947,8.96274751 L40.5255761,8.96274751 L40.5255761,9.83809445 L37.6956947,9.83809445 L37.6956947,11.4183903 L40.5850297,11.4183903 L40.5850297,12.2937372 L36.7019715,12.2937372 L36.7019715,6.62601178 L40.5850297,6.62601178 Z M46.0462603,6.62601178 L46.0462603,7.50188955 L44.3300707,7.50188955 L44.3300707,12.2937372 L43.3358167,12.2937372 L43.3358167,7.50188955 L41.6196271,7.50188955 L41.6196271,6.62601178 L46.0462603,6.62601178 Z M50.4951885,6.62601178 L50.4951885,12.2937372 L49.5014654,12.2937372 L49.5014654,6.62601178 L50.4951885,6.62601178 Z M55.9744675,6.62601178 L55.9744675,7.50188955 L54.2582779,7.50188955 L54.2582779,12.2937372 L53.2640239,12.2937372 L53.2640239,7.50188955 L51.5478343,7.50188955 L51.5478343,6.62601178 L55.9744675,6.62601178 Z M67.1591612,6.62601178 L70.0564587,10.5520675 L70.0564587,6.62601178 L71.0507127,6.62601178 L71.0507127,12.2937372 L70.0904322,12.2937372 L67.1331503,8.24081189 L67.1331503,12.2937372 L66.1394272,12.2937372 L66.1394272,6.62601178 L67.1591612,6.62601178 Z M62.0811935,7.41695595 C60.9335282,7.41695595 60.2030992,8.29177205 60.2030992,9.4643866 C60.2030992,10.6279769 60.9335282,11.5118172 62.0811935,11.5118172 C63.2193038,11.5118172 63.9587569,10.6279769 63.9587569,9.4643866 C63.9587569,8.29177205 63.2193038,7.41695595 62.0811935,7.41695595 Z" id="get-it-on" fill="#FFFFFF"></path>
                </g>
            </g>
        </g>
    </g>
</svg>