<?xml version="1.0" encoding="UTF-8"?>
<svg width="16px" height="16px" viewBox="0 0 16 16" version="1.1" xmlns="http://www.w3.org/2000/svg" xmlns:xlink="http://www.w3.org/1999/xlink">
    <title>investment-products</title>
    <g id="Rana---App" stroke="none" stroke-width="1" fill="none" fill-rule="evenodd">
        <g id="Hamburger---open" transform="translate(-16.000000, -1346.000000)" fill="#052F5F" fill-rule="nonzero">
            <g id="More-Investment-Products" transform="translate(16.000000, 1342.000000)">
                <g id="investment-products" transform="translate(0.000000, 4.000000)">
                    <path d="M8,0 C3.58878125,0 0,3.58878125 0,8 C0,12.4112187 3.58878125,16 8,16 C12.4112187,16 16,12.4112187 16,8 C16,3.58878125 12.4112187,0 8,0 Z M8,15.0625 C4.10571875,15.0625 0.9375,11.8942813 0.9375,8 C0.9375,4.10571875 4.10571875,0.9375 8,0.9375 C11.8942813,0.9375 15.0625,4.10571875 15.0625,8 C15.0625,11.8942813 11.8942813,15.0625 8,15.0625 Z" id="Shape"></path>
                    <path d="M10.859375,4.9375 C11.11825,4.9375 11.3281562,4.727625 11.3281562,4.46875 C11.3281562,4.209875 11.11825,4 10.859375,4 L5.140625,4 C4.88175,4 4.671875,4.209875 4.671875,4.46875 C4.671875,4.727625 4.88175,4.9375 5.140625,4.9375 L7.109375,4.9375 C7.72046875,4.9375 8.2415,5.3294375 8.435,5.87503125 L5.140625,5.87503125 C4.88175,5.87503125 4.671875,6.08490625 4.671875,6.34378125 C4.671875,6.60265625 4.88175,6.81253125 5.140625,6.81253125 L8.43496875,6.81253125 C8.24146875,7.35809375 7.7204375,7.75003125 7.10934375,7.75003125 L5.171875,7.75003125 C4.9891875,7.75003125 4.82315625,7.85615625 4.74646875,8.0219375 C4.66978125,8.18771875 4.69634375,8.38296875 4.81459375,8.52221875 L8.6895625,13.0847188 C8.78228125,13.1939063 8.91425,13.2500313 9.0470625,13.2500313 C9.1543125,13.2500313 9.262125,13.2134375 9.35028125,13.1385625 C9.54759375,12.9709688 9.57171875,12.6751563 9.404125,12.4778438 L6.185,8.6875 L7.109375,8.6875 C8.24121875,8.6875 9.1881875,7.881 9.40596875,6.8125 L10.8594062,6.8125 C11.1182812,6.8125 11.3281562,6.602625 11.3281562,6.34375 C11.3281562,6.084875 11.1182812,5.875 10.8594062,5.875 L9.40596875,5.875 C9.33540625,5.52878125 9.18825,5.21015625 8.98309375,4.93746875 L10.859375,4.93746875 L10.859375,4.9375 Z" id="Path"></path>
                </g>
            </g>
        </g>
    </g>
</svg>