<?xml version="1.0" encoding="UTF-8"?>
<svg width="121px" height="41px" viewBox="0 0 121 41" version="1.1" xmlns="http://www.w3.org/2000/svg" xmlns:xlink="http://www.w3.org/1999/xlink">
    <!-- Generator: sketchtool 59 (101010) - https://sketch.com -->
    <title>8BA630D0-293F-49CF-8888-6ED2F6A7194E</title>
    <desc>Created with sketchtool.</desc>
    <g id="My-Account_Iteration" stroke="none" stroke-width="1" fill="none" fill-rule="evenodd">
        <g id="Nav-ios" transform="translate(-224.000000, -1201.000000)">
            <g id="Download-App" transform="translate(0.000000, 1164.000000)">
                <g id="apple" transform="translate(224.000000, 37.000000)">
                    <rect id="bg" fill="#000000" x="0" y="0" width="120.842105" height="41" rx="5.17894737"></rect>
                    <path d="M46.8004743,29.9767832 L44.7434412,29.9767832 L43.6166472,26.4339947 L39.7000416,26.4339947 L38.6266888,29.9767832 L36.6240026,29.9767832 L40.5043769,17.9155326 L42.9010786,17.9155326 L46.8004743,29.9767832 L46.8004743,29.9767832 Z M53.1844327,21.1012326 C54.2097791,21.1012326 55.065744,21.5063558 55.7505159,22.3175084 C56.4370994,23.1295674 56.7794854,24.1972074 56.7794854,25.5213347 C56.7794854,27.0004421 56.3800351,28.1695895 55.5811345,29.0278705 C54.865566,29.7918947 53.9769929,30.1734537 52.916321,30.1734537 C51.7714113,30.1734537 50.9489604,29.7619863 50.4480624,28.9390516 L50.4118311,28.9390516 L50.4118311,33.5204779 L48.4807018,33.5204779 L48.4807018,24.1428284 C48.4807018,23.2129484 48.4562456,22.2585979 48.4091449,21.2797768 L50.107488,21.2797768 L50.2152762,22.6582832 L50.2515075,22.6582832 C50.8955192,21.6196453 51.872859,21.1012326 53.1844327,21.1012326 Z M63.1824652,21.1012326 C64.2069058,21.1012326 65.0628707,21.5063558 65.7494542,22.3175084 C66.4333203,23.1295674 66.7766121,24.1972074 66.7766121,25.5213347 C66.7766121,27.0004421 66.3771618,28.1695895 65.5773554,29.0278705 C64.8626927,29.7918947 63.9741196,30.1734537 62.9134477,30.1734537 C61.768538,30.1734537 60.9460871,29.7619863 60.4460949,28.9390516 L60.4098635,28.9390516 L60.4098635,33.5204779 L58.4787342,33.5204779 L58.4787342,24.1428284 C58.4787342,23.2129484 58.4542781,22.2585979 58.4071774,21.2797768 L60.1055205,21.2797768 L60.2133086,22.6582832 L60.24954,22.6582832 C60.8926459,21.6196453 61.8699857,21.1012326 63.1824652,21.1012326 Z M89.7563262,21.1021389 C91.0316686,21.1021389 92.0579207,21.5253884 92.8323652,22.3727937 C93.5732956,23.1948221 93.9428551,24.2561179 93.9428551,25.5566811 C93.9428551,26.8934968 93.5606147,27.9910453 92.7979454,28.8493263 C91.9981391,29.7329842 90.9365614,30.1734537 89.6132125,30.1734537 C88.33787,30.1734537 87.3224873,29.7502042 86.5652528,28.9037053 C85.8080182,28.0572063 85.4294009,26.98866 85.4294009,25.7007853 C85.4294009,24.3530937 85.8188876,23.2492011 86.6005783,22.39092 C87.3804574,21.5317326 88.4329773,21.1021389 89.7563262,21.1021389 Z M74.7538428,17.7388011 C75.8507459,17.7388011 76.7619636,17.9300337 77.4893073,18.3115926 L77.006525,19.8867695 C76.3271878,19.5169926 75.5590838,19.3321042 74.6994958,19.3321042 C74.0201585,19.3321042 73.4893697,19.4997726 73.1089409,19.8332968 C72.7873879,20.1314747 72.6261585,20.4949074 72.6261585,20.9254074 C72.6261585,21.4021295 72.8100325,21.7963768 73.1795919,22.1063368 C73.5011449,22.3927326 74.0853749,22.7026926 74.9331878,23.0371232 C75.9703093,23.4549347 76.7320728,23.9434389 77.2221014,24.5035421 C77.7103184,25.0618326 77.953974,25.7606021 77.953974,26.5944126 C77.953974,27.6203621 77.5980013,28.4550789 76.8833385,29.0994695 C76.0980247,29.8036768 75.0047446,30.1553274 73.5998752,30.1553274 C72.302794,30.1553274 71.2629552,29.9051842 70.4758298,29.4039916 L70.9232865,27.7934684 C71.7710994,28.3064432 72.7013385,28.5638368 73.7149097,28.5638368 C74.4422534,28.5638368 75.0083678,28.3988874 75.4150643,28.0708011 C75.8199493,27.7427147 76.0219389,27.3022453 76.0219389,26.7530179 C76.0219389,26.2636074 75.8552749,25.8512337 75.5210409,25.5168032 C75.1886186,25.1823726 74.6333736,24.8715063 73.8580234,24.5842042 C71.7475491,23.7966158 70.6932177,22.6428758 70.6932177,21.1257032 C70.6932177,20.1341937 71.0627771,19.3212284 71.8028018,18.68862 C72.5401092,18.0551053 73.5237895,17.7388011 74.7538428,17.7388011 Z M82.2102482,19.1127758 L82.2102482,21.2779642 L84.3388382,21.2779642 L84.3388382,22.7298821 L82.2102482,22.7298821 L82.2102482,26.9524074 C82.2102482,28.0263916 82.5852424,28.5629305 83.3370422,28.5629305 C83.6821455,28.5629305 83.968373,28.5330221 84.1948187,28.4732053 L84.2482599,29.9405305 C83.8678311,30.0828221 83.3669331,30.1544211 82.7464717,30.1544211 C81.9838025,30.1544211 81.3877973,29.9214979 80.9575504,29.4565579 C80.529115,28.9907116 80.3135387,28.2094674 80.3135387,27.1119189 L80.3135387,22.7280695 L79.0454425,22.7280695 L79.0454425,21.2779642 L80.3135387,21.2779642 L80.3135387,19.6855674 L82.2102482,19.1127758 Z M105.245215,21.0849189 C106.497913,21.0849189 107.446268,21.5498589 108.090279,22.4797389 C108.600235,23.2183863 108.856572,24.1319526 108.856572,25.2168126 C108.856572,25.5630253 108.833927,25.8548589 108.785921,26.09322 L102.992533,26.09322 C103.015177,26.9524074 103.295064,27.6094863 103.833099,28.0626442 C104.321316,28.4677674 104.952647,28.6707821 105.727997,28.6707821 C106.585774,28.6707821 107.36837,28.5339284 108.072164,28.2593147 L108.374695,29.6006621 C107.552244,29.9595632 106.581245,30.1381074 105.460791,30.1381074 C104.112986,30.1381074 103.055032,29.7411411 102.285116,28.9481147 C101.517012,28.1550884 101.132055,27.0901674 101.132055,25.7542579 C101.132055,24.4428189 101.489839,23.3507084 102.206313,22.4797389 C102.956301,21.5498589 103.969873,21.0849189 105.245215,21.0849189 Z M99.7371488,21.1012326 C99.915588,21.1012326 100.076817,21.1139211 100.219931,21.1365789 L100.219931,22.9791189 C100.028811,22.9437726 99.8250097,22.9256463 99.611245,22.9256463 C98.9319077,22.9256463 98.4065536,23.1821337 98.0369942,23.6960147 C97.7154412,24.1491726 97.5542118,24.7219642 97.5542118,25.4134832 L97.5542118,29.9767832 L95.6239883,29.9767832 L95.642104,24.0186632 C95.642104,23.0162779 95.6176478,22.1036179 95.5696413,21.2806832 L97.2516803,21.2806832 L97.3223314,22.9446789 L97.3757726,22.9446789 C97.5795737,22.3727937 97.9011267,21.9123853 98.3413372,21.5670789 C98.7715841,21.2562126 99.2362508,21.1012326 99.7371488,21.1012326 Z M89.6874867,22.5150853 C88.9112307,22.5150853 88.321566,22.8622042 87.916681,23.5555358 C87.5697661,24.13014 87.3985731,24.8289095 87.3985731,25.6554695 C87.3985731,26.4575589 87.5697661,27.1454526 87.916681,27.7182442 C88.3342469,28.4124821 88.9175712,28.7586947 89.6702768,28.7586947 C90.4075841,28.7586947 90.9863795,28.4052316 91.4039454,27.7001179 C91.7599181,27.1155442 91.9392632,26.4204 91.9392632,25.6192168 C91.9392632,24.8171274 91.7680702,24.1292337 91.4211553,23.5555358 C91.0162703,22.8612979 90.437475,22.5150853 89.6874867,22.5150853 Z M52.5585367,22.6392505 C52.0820949,22.6392505 51.6491306,22.7987621 51.2623613,23.1132537 C50.8746862,23.4304642 50.6210669,23.8446505 50.5024094,24.3576253 C50.4426277,24.5968926 50.4127368,24.7926568 50.4127368,24.9467305 L50.4127368,26.3968358 C50.4127368,27.0294442 50.6065744,27.5632642 50.9942495,27.9992021 C51.3819246,28.43514 51.88554,28.6526558 52.5050955,28.6526558 C53.2324392,28.6526558 53.7985536,28.3716979 54.2034386,27.8115947 C54.6092294,27.2505853 54.8121248,26.5110316 54.8121248,25.5920274 C54.8121248,24.7455284 54.6219103,24.0476653 54.2396699,23.4984379 C53.822104,22.9256463 53.2614243,22.6392505 52.5585367,22.6392505 Z M62.5556634,22.6392505 C62.0783158,22.6392505 61.6462573,22.7987621 61.2585822,23.1132537 C60.8709071,23.4304642 60.6181936,23.8446505 60.4995361,24.3576253 C60.4406602,24.5968926 60.4098635,24.7926568 60.4098635,24.9467305 L60.4098635,26.3968358 C60.4098635,27.0294442 60.6037011,27.5632642 60.9895647,27.9992021 C61.3772398,28.4342337 61.8808551,28.6526558 62.5022222,28.6526558 C63.229566,28.6526558 63.7956803,28.3716979 64.2005653,27.8115947 C64.6063561,27.2505853 64.8092515,26.5110316 64.8092515,25.5920274 C64.8092515,24.7455284 64.6181313,24.0476653 64.2358908,23.4984379 C63.8183249,22.9256463 63.2594568,22.6392505 62.5556634,22.6392505 Z M41.6501923,19.5260558 C41.9481949,20.7187674 42.1501845,21.4764474 42.2579727,21.7981895 L42.2579727,21.7981895 L43.2769786,24.9476368 L40.040616,24.9476368 L41.0415062,21.7981895 C41.3041832,20.7967105 41.4953034,20.0390305 41.613961,19.5260558 L41.613961,19.5260558 Z M105.101196,22.4244537 C104.469865,22.4244537 103.956286,22.6863789 103.564082,23.2120421 C103.242529,23.6298537 103.051409,24.1310463 102.992533,24.7147137 L107.015115,24.7147137 C107.027796,24.1428284 106.901892,23.64798 106.640121,23.2301684 C106.305887,22.6927232 105.792308,22.4244537 105.101196,22.4244537 Z" id="app-store" fill="#FFFFFF"></path>
                    <path d="M45.8892567,9.23937158 C46.5160585,9.23937158 47.0196738,9.44691789 47.4010084,9.86291684 C47.7633216,10.2671337 47.945384,10.7891716 47.945384,11.4272179 C47.945384,12.0842968 47.7578869,12.6226484 47.3828928,13.0449916 C46.989783,13.4791168 46.4689578,13.6957263 45.8186056,13.6957263 C45.1918038,13.6957263 44.6927173,13.48818 44.3204405,13.0712747 C43.9490695,12.6552758 43.763384,12.1305189 43.763384,11.4979105 C43.763384,10.8363 43.9545042,10.2934168 44.3385562,9.87198 C44.7226082,9.45054316 45.2389045,9.23937158 45.8892567,9.23937158 Z M66.1316946,9.23937158 C66.7594022,9.23937158 67.2621118,9.44691789 67.6443522,9.86291684 C68.0066654,10.2671337 68.1887277,10.7891716 68.1887277,11.4272179 C68.1887277,12.0842968 68.0012307,12.6226484 67.6262365,13.0449916 C67.2331267,13.4791168 66.7113957,13.6957263 66.0619493,13.6957263 C65.4342417,13.6957263 64.9351553,13.48818 64.5637843,13.0712747 C64.1924133,12.6552758 64.0067277,12.1305189 64.0067277,11.4979105 C64.0067277,10.8363 64.197848,10.2934168 64.5818999,9.87198 C64.9659519,9.45054316 65.4822482,9.23937158 66.1316946,9.23937158 Z M71.0455673,9.23937158 C72.1614919,9.23937158 72.7212658,9.82847684 72.7212658,11.0066874 L72.7212658,12.5800516 C72.7212658,13.0069263 72.7420988,13.3467947 72.782859,13.5987505 L71.9305172,13.5987505 L71.8598661,13.1066211 L71.8335984,13.1066211 C71.5419363,13.4990558 71.1261819,13.6957263 70.5863353,13.6957263 C70.1832619,13.6957263 69.85718,13.5661232 69.6117128,13.3087295 C69.3888902,13.0749 69.2774789,12.7839726 69.2774789,12.4386663 C69.2774789,11.9166284 69.4948668,11.5187558 69.93236,11.2432358 C70.3689474,10.9677158 70.9830682,10.8326747 71.7738168,10.8390189 L71.7738168,10.7592632 C71.7738168,10.1964411 71.4785315,9.91548316 70.8870552,9.91548316 C70.4658661,9.91548316 70.0944951,10.0215221 69.773848,10.2317874 L69.5809162,9.60824211 C69.9776491,9.36263053 70.4676777,9.23937158 71.0455673,9.23937158 Z M78.1432827,7.36601684 L78.1432827,12.4477295 C78.1432827,12.8637284 78.154152,13.2471 78.1767966,13.5987505 L77.3344185,13.5987505 L77.2900351,12.9126695 L77.2637674,12.9126695 C76.9947498,13.4347074 76.5364237,13.6957263 75.892412,13.6957263 C75.3779272,13.6957263 74.9494919,13.4936179 74.6098233,13.0894011 C74.2701546,12.6851842 74.1007732,12.1604274 74.1007732,11.5160368 C74.1007732,10.8245179 74.2846472,10.2644147 74.6542066,9.83663368 C75.0119909,9.43785474 75.4503899,9.23846526 75.9721209,9.23846526 C76.5454815,9.23846526 76.9467433,9.43151053 77.1750006,9.81850737 L77.1931163,9.81850737 L77.1931163,7.36601684 L78.1432827,7.36601684 Z M84.2401079,9.23937158 C84.8660039,9.23937158 85.370525,9.44691789 85.7509539,9.86291684 C86.1132671,10.2671337 86.2953294,10.7891716 86.2953294,11.4272179 C86.2953294,12.0842968 86.1078324,12.6226484 85.7328382,13.0449916 C85.3397284,13.4791168 84.819809,13.6957263 84.168551,13.6957263 C83.542655,13.6957263 83.0435686,13.48818 82.670386,13.0712747 C82.2990149,12.6552758 82.1133294,12.1305189 82.1133294,11.4979105 C82.1133294,10.8363 82.3044496,10.2934168 82.6885016,9.87198 C83.0725536,9.45054316 83.5888499,9.23937158 84.2401079,9.23937158 Z M96.7417245,8.26236316 L96.7417245,9.32547158 L97.7869981,9.32547158 L97.7869981,10.0378358 L96.7426303,10.0378358 L96.7426303,12.1132989 C96.7426303,12.6407747 96.9283158,12.9045126 97.2960637,12.9045126 C97.4663509,12.9045126 97.607653,12.8900116 97.7190643,12.8601032 L97.7435205,13.5806242 C97.5560234,13.6513168 97.3096504,13.6866632 97.0062131,13.6866632 C96.631219,13.6866632 96.3395569,13.5724674 96.1285094,13.3440758 C95.9165562,13.1156842 95.8114854,12.7314063 95.8114854,12.1921484 L95.8114854,10.0378358 L95.1874009,10.0378358 L95.1874009,9.32637789 L95.8114854,9.32637789 L95.8114854,8.54332105 L96.7417245,8.26236316 Z M106.220743,9.23121474 C106.834864,9.23121474 107.301342,9.45960632 107.616555,9.91638947 C107.87108,10.2789158 107.996984,10.7275421 107.996984,11.2604558 C107.996984,11.4308432 107.984303,11.5740411 107.961658,11.6909558 L105.114782,11.6909558 C105.127463,12.1132989 105.263331,12.4350411 105.526914,12.6579947 C105.767852,12.8573842 106.078535,12.9570789 106.458964,12.9570789 C106.880153,12.9570789 107.264205,12.8900116 107.610214,12.7549705 L107.758763,13.4147684 C107.353878,13.5905937 106.877436,13.6785063 106.325814,13.6785063 C105.664593,13.6785063 105.143767,13.4836484 104.766962,13.0939326 C104.388344,12.7042168 104.200847,12.1812726 104.200847,11.5251 C104.200847,10.8807095 104.375663,10.3441705 104.728013,9.91638947 C105.095761,9.45960632 105.593036,9.23121474 106.220743,9.23121474 Z M39.4056621,7.62884842 C40.4427836,7.62884842 41.2244743,7.85452105 41.75164,8.30586632 C42.3422105,8.81612211 42.6384016,9.54570632 42.6384016,10.4955253 C42.6384016,11.5622589 42.3186602,12.3652547 41.6800832,12.9045126 C41.0886069,13.40208 40.2480403,13.6513168 39.1592891,13.6513168 C38.6194425,13.6513168 38.1574932,13.6277526 37.7707238,13.5806242 L37.7707238,7.75210737 C38.275245,7.67053895 38.8187147,7.62884842 39.4056621,7.62884842 Z M58.4968499,9.23665263 C58.8953944,9.23665263 59.226911,9.36534947 59.4904938,9.62364947 C59.8183873,9.93995368 59.982334,10.4121442 59.982334,11.0393147 L59.982334,13.5987505 L59.0330734,13.5987505 L59.0330734,11.1516979 C59.0330734,10.3976432 58.746846,10.0206158 58.1725796,10.0206158 C57.8908811,10.0206158 57.6635296,10.1239358 57.4869019,10.3314821 C57.3120858,10.5390284 57.223319,10.7837337 57.223319,11.0637853 L57.223319,13.5978442 L56.2740585,13.5978442 L56.2740585,10.5471853 C56.2740585,10.1719705 56.2622833,9.76503474 56.2396387,9.32456526 L57.0738648,9.32456526 L57.1182482,9.99252 L57.1445159,9.99252 C57.2550214,9.78497368 57.4198739,9.61368 57.6363561,9.47682632 C57.8935984,9.31731474 58.1816374,9.23665263 58.4968499,9.23665263 Z M49.8502456,9.32637789 L50.3330279,11.3574316 C50.4498739,11.8377789 50.5458869,12.2954684 50.6228785,12.7286874 L50.6400884,12.7286874 C50.7107394,12.3715989 50.8275854,11.9166284 50.9924379,11.3664947 L51.5984068,9.32728421 L52.3719454,9.32728421 L52.9525523,11.3229916 C53.0929487,11.8096832 53.2070773,12.2782484 53.2949383,12.7295937 L53.321206,12.7295937 C53.3855166,12.2900305 53.4824353,11.8214653 53.6110565,11.3229916 L54.1291644,9.32728421 L55.0612151,9.32728421 L55.0612151,9.32637789 L53.7251852,13.5987505 L52.8556335,13.5987505 L52.3022001,11.7435221 C52.1618038,11.2803947 52.0476751,10.8199863 51.9589084,10.3632032 L51.9416985,10.3632032 C51.8592723,10.8326747 51.7451436,11.2921768 51.5984068,11.7435221 L51.0105536,13.5987505 L50.1310383,13.5987505 L48.8747173,9.32637789 L49.8502456,9.32637789 Z M62.6000468,7.36601684 L62.6000468,13.5987505 L61.651692,13.5987505 L61.651692,7.36601684 L62.6000468,7.36601684 Z M89.9148382,9.23665263 C90.3124769,9.23665263 90.6439935,9.36534947 90.9075763,9.62364947 C91.2363756,9.93995368 91.3994165,10.4121442 91.3994165,11.0393147 L91.3994165,13.5987505 L90.4510617,13.5987505 L90.4510617,11.1516979 C90.4510617,10.3976432 90.1648343,10.0206158 89.5896621,10.0206158 C89.3079636,10.0206158 89.0806121,10.1239358 88.9048902,10.3314821 C88.7291683,10.5390284 88.6413073,10.7837337 88.6413073,11.0637853 L88.6413073,13.5978442 L87.691141,13.5978442 L87.691141,10.5471853 C87.691141,10.1719705 87.6802716,9.76503474 87.657627,9.32456526 L88.4909474,9.32456526 L88.5353307,9.99252 L88.5615984,9.99252 C88.6730097,9.78497368 88.8378622,9.61368 89.0534386,9.47682632 C89.3115867,9.31731474 89.5987199,9.23665263 89.9148382,9.23665263 Z M100.053267,7.36601684 L100.053267,9.94086 L100.071383,9.94086 C100.370291,9.47229474 100.798726,9.23846526 101.353971,9.23846526 C101.747081,9.23846526 102.072257,9.36716211 102.330405,9.62546211 C102.651958,9.94720421 102.813188,10.4257389 102.813188,11.0583474 L102.813188,13.5987505 L101.863021,13.5987505 L101.863021,11.1698242 C101.863021,10.4039874 101.576794,10.0206158 101.003433,10.0206158 C100.563223,10.0206158 100.262503,10.2426632 100.09765,10.6867579 C100.069571,10.7801084 100.053267,10.8943042 100.053267,11.0284389 L100.053267,13.5978442 L99.1049123,13.5978442 L99.1049123,7.36601684 L100.053267,7.36601684 Z M84.2047823,9.93270316 C83.8243535,9.93270316 83.5345029,10.1030905 83.3343249,10.4438653 C83.1640377,10.7257295 83.0797999,11.0692232 83.0797999,11.4752526 C83.0797999,11.8695 83.1649435,12.2075558 83.3343249,12.48942 C83.5399376,12.8301947 83.826165,13.0005821 84.1957245,13.0005821 C84.5580377,13.0005821 84.8433593,12.8274758 85.0480663,12.4803568 C85.2228824,12.1930547 85.3116491,11.85228 85.3116491,11.4580326 C85.3116491,11.0637853 85.2265055,10.7257295 85.0571241,10.4438653 C84.8569461,10.1030905 84.5743418,9.93270316 84.2047823,9.93270316 Z M71.7973671,11.4716274 C70.750282,11.4535011 70.2267394,11.7408032 70.2267394,12.3326274 C70.2267394,12.5555811 70.2865211,12.7223432 70.4088018,12.83382 C70.5310825,12.9452968 70.6868772,13.0005821 70.8725627,13.0005821 C71.0808928,13.0005821 71.2756361,12.9344211 71.4531696,12.8030053 C71.6316088,12.6706832 71.7412086,12.5030147 71.7819688,12.2972811 C71.7919324,12.2510589 71.7973671,12.1948674 71.7973671,12.1305189 L71.7973671,11.4716274 Z M66.0981806,9.93270316 C65.7159402,9.93270316 65.4260897,10.1030905 65.2277232,10.4438653 C65.057436,10.7257295 64.9731982,11.0692232 64.9731982,11.4752526 C64.9731982,11.8695 65.0583418,12.2075558 65.2277232,12.48942 C65.4333359,12.8301947 65.7195634,13.0005821 66.0891228,13.0005821 C66.451436,13.0005821 66.7349461,12.8274758 66.939653,12.4803568 C67.1162807,12.1930547 67.2032359,11.85228 67.2032359,11.4580326 C67.2032359,11.0637853 67.1180923,10.7257295 66.9487109,10.4438653 C66.7503444,10.1030905 66.4659285,9.93270316 66.0981806,9.93270316 Z M45.8548369,9.93270316 C45.4735023,9.93270316 45.1836517,10.1030905 44.9843795,10.4438653 C44.8140923,10.7257295 44.7298545,11.0692232 44.7298545,11.4752526 C44.7298545,11.8695 44.8149981,12.2075558 44.9843795,12.48942 C45.1899922,12.8301947 45.4762196,13.0005821 45.8457791,13.0005821 C46.2080923,13.0005821 46.4925081,12.8274758 46.6972151,12.4803568 C46.872937,12.1930547 46.9607979,11.85228 46.9607979,11.4580326 C46.9607979,11.0637853 46.8756543,10.7257295 46.7062729,10.4438653 C46.5070006,10.1030905 46.2234906,9.93270316 45.8548369,9.93270316 Z M76.188603,9.97711263 C75.8344418,9.97711263 75.5572723,10.1175916 75.3534711,10.3994558 C75.1514815,10.68132 75.049128,11.0411274 75.049128,11.4806905 C75.049128,11.9030337 75.1460468,12.2456211 75.3407901,12.5093589 C75.5464029,12.7903168 75.8235724,12.9307958 76.1704873,12.9307958 C76.4820767,12.9307958 76.731167,12.8138811 76.9204756,12.5791453 C77.1034438,12.3625358 77.1931163,12.1015168 77.1931163,11.7969947 L77.1931163,11.0846305 C77.1931163,10.9613716 77.1840585,10.8616768 77.1668486,10.7855463 C77.1134074,10.5571547 76.998373,10.3650158 76.8235569,10.2100358 C76.6469292,10.0550558 76.4340702,9.97711263 76.188603,9.97711263 Z M39.4844652,8.37655895 C39.1855569,8.37655895 38.9310318,8.39649789 38.7199844,8.43818842 L38.7199844,12.8691663 C38.8368304,12.8872926 39.0505952,12.8954495 39.3612788,12.8954495 C40.0877167,12.8954495 40.6483964,12.6933411 41.0433177,12.2891242 C41.4382391,11.8849074 41.6375114,11.2958021 41.6375114,10.5218084 C41.6375114,9.83028947 41.4545432,9.30009474 41.0886069,8.93031789 C40.7226706,8.56144737 40.1882586,8.37655895 39.4844652,8.37655895 Z M106.151904,9.8892 C105.842126,9.8892 105.589413,10.0178968 105.396481,10.2761968 C105.238875,10.4819305 105.145579,10.7275421 105.114782,11.0148442 L107.091201,11.0148442 C107.098447,10.73298 107.035948,10.4900874 106.907327,10.28526 C106.742474,10.0215221 106.491572,9.8892 106.151904,9.8892 Z" id="download-on-the" fill="#FFFFFF"></path>
                    <path d="M23.2092108,12.9596376 L23.4923694,12.9778133 C24.2441944,12.9997377 26.3836526,13.2747065 27.7639777,15.2871858 C27.6525285,15.3538725 25.2152636,16.7862681 25.2417556,19.7305353 C25.2719017,23.2594538 28.3285315,24.4260158 28.3659858,24.438805 C28.3477154,24.5210216 27.8873025,26.122418 26.740838,27.7484793 C25.7834715,29.1799614 24.7804292,30.5794703 23.1872545,30.6050488 C21.6397557,30.640676 21.1190507,29.6942718 19.344086,29.6942718 C17.552678,29.6942718 16.9981728,30.5794703 15.5137067,30.640676 C13.996354,30.6964006 12.8371001,29.1123611 11.84502,27.6936682 C9.86177331,24.7969039 8.31792858,19.530475 10.3879595,15.9467455 C11.3910018,14.1891376 13.219864,13.0572893 15.1747917,13.0271432 C16.6939714,12.9960836 18.1035291,14.0530235 19.0371441,14.0530235 C19.9524887,14.0530235 21.6954803,12.7887151 23.4923694,12.9778133 Z M23.5115532,7.33684211 C23.6631972,8.71534016 23.1169136,10.0737408 22.3184993,11.0722156 C21.4853712,12.0551605 20.152549,12.8069855 18.8544405,12.7101526 C18.6845263,11.3837251 19.3422589,9.97325389 20.0785541,9.11272031 C20.9107686,8.13617 22.3559535,7.38799909 23.5115532,7.33684211 Z" fill="#FFFFFF"></path>
                </g>
            </g>
        </g>
    </g>
</svg>