<?xml version="1.0" encoding="UTF-8"?>
<svg width="14px" height="14px" viewBox="0 0 14 14" version="1.1" xmlns="http://www.w3.org/2000/svg" xmlns:xlink="http://www.w3.org/1999/xlink">
    <title>7541B428-EB9E-4238-911E-1C5B21B09D2F</title>
    <g id="Page-2" stroke="none" stroke-width="1" fill="none" fill-rule="evenodd">
        <g id="1_My-Account_Mobile-app" transform="translate(-17.000000, -702.000000)" fill="#052F5F" fill-rule="nonzero">
            <g id="Group-31" transform="translate(17.000000, 698.000000)">
                <g id="logout" transform="translate(0.000000, 4.023242)">
                    <path d="M6.97675781,12.7907227 L1.74417578,12.7907227 C1.42324219,12.7907227 1.16279297,12.5302461 1.16279297,12.2093398 L1.16279297,1.74420313 C1.16279297,1.42326953 1.42326953,1.16282031 1.74417578,1.16282031 L6.97675781,1.16282031 C7.29826562,1.16282031 7.55814062,0.902945313 7.55814062,0.5814375 C7.55814062,0.259929688 7.29826562,0 6.97675781,0 L1.74417578,0 C0.782550781,0 0,0.782578125 0,1.74420313 L0,12.2093125 C0,13.1709375 0.782550781,13.9534883 1.74417578,13.9534883 L6.97675781,13.9534883 C7.29826562,13.9534883 7.55814062,13.6936133 7.55814062,13.3721055 C7.55814062,13.0505977 7.29826562,12.7907227 6.97675781,12.7907227 Z" id="Path"></path>
                    <path d="M13.82675,6.56280078 L10.2918594,3.07442187 C10.0639492,2.84883594 9.69535547,2.85176172 9.46976953,3.08024609 C9.24418359,3.30873047 9.24650781,3.67675 9.47559375,3.90233594 L12.0017461,6.39534766 L5.23255469,6.39534766 C4.91104687,6.39534766 4.65117187,6.65522266 4.65117187,6.97673047 C4.65117187,7.29823828 4.91104687,7.55814062 5.23255469,7.55814062 L12.0017461,7.55814062 L9.47559375,10.0511523 C9.24653516,10.2767383 9.24478516,10.6447578 9.46976953,10.8732422 C9.58371094,10.9883594 9.73371875,11.0464922 9.88372656,11.0464922 C10.0314102,11.0464922 10.1790664,10.9906836 10.2918594,10.8790391 L13.82675,7.39066016 C13.9372187,7.28136719 14,7.13250781 14,6.97670312 C14,6.82095312 13.937793,6.67269531 13.82675,6.56280078 Z" id="Path"></path>
                </g>
            </g>
        </g>
    </g>
</svg>