<?xml version="1.0" encoding="UTF-8"?>
<svg width="16px" height="16px" viewBox="0 0 16 16" version="1.1" xmlns="http://www.w3.org/2000/svg" xmlns:xlink="http://www.w3.org/1999/xlink">
    <title>3E5ED00A-A253-4310-84A8-EEEA557BD8E4</title>
    <g id="Final" stroke="none" stroke-width="1" fill="none" fill-rule="evenodd">
        <g id="Hamburger" transform="translate(-16.000000, -337.000000)" fill="#052F5F" fill-rule="nonzero">
            <g id="Group-9" transform="translate(14.000000, 56.000000)">
                <g id="Group-6" transform="translate(2.000000, 280.000000)">
                    <g id="discount-(2)" transform="translate(0.000000, 1.000000)">
                        <path d="M6.70477973,0.393730994 C7.24746979,-0.131337232 8.09768421,-0.131306043 8.64040546,0.393730994 L8.64040546,0.393730994 L9.61509552,1.33663938 C9.72023392,1.43834698 9.86354776,1.48494347 10.0084834,1.46448343 L10.0084834,1.46448343 L11.3512671,1.27454191 C12.0987758,1.16877973 12.7867446,1.66855361 12.9172086,2.4122885 L12.9172086,2.4122885 L13.151501,3.74808577 C13.1767953,3.89214815 13.2654035,4.01415984 13.3946511,4.08271345 L13.3946511,4.08271345 L14.5926238,4.71834698 C15.2596335,5.07224951 15.5223704,5.88082651 15.190768,6.55922027 L15.190768,6.55922027 L14.5951813,7.77762183 C14.5309318,7.90905263 14.5309318,8.05982066 14.5951813,8.19128265 L14.5951813,8.19128265 L15.190768,9.40968421 C15.5223704,10.088078 15.2596335,10.8967173 14.5926238,11.2505887 L14.5926238,11.2505887 L13.3946511,11.8862222 C13.2654347,11.954807 13.1768265,12.0767875 13.1515322,12.2208811 L13.1515322,12.2208811 L12.9172086,13.556616 C12.7867446,14.3003509 12.0991189,14.8001559 11.3512671,14.6943626 L11.3512671,14.6943626 L10.0084834,14.5044211 C9.86361014,14.4840858 9.72026511,14.5305575 9.61509552,14.6322651 L9.61509552,14.6322651 L8.64037427,15.5751735 C8.36909162,15.8376608 8.02074074,15.9689357 7.672577,15.9689357 C7.32431969,15.9689357 6.97618713,15.8377232 6.70477973,15.5751735 L6.70477973,15.5751735 L5.73008967,14.6322651 C5.62492008,14.5305575 5.48151267,14.4838674 5.33670175,14.5044211 L5.33670175,14.5044211 L3.99391813,14.6943626 C3.92689279,14.7038441 3.86021053,14.70846 3.79449513,14.70846 C3.12726706,14.7085224 2.54671345,14.2336998 2.42794542,13.5566472 L2.42794542,13.5566472 L2.19365302,12.2208499 C2.16835867,12.0767875 2.07975049,11.9547758 1.95050292,11.8862222 L1.95050292,11.8862222 L0.752530214,11.2505887 C0.0855204678,10.8966862 -0.177216374,10.0881092 0.154385965,9.4097154 L0.154385965,9.4097154 L0.74997271,8.19134503 C0.814222222,8.05991423 0.814222222,7.9091462 0.74997271,7.77768421 L0.74997271,7.77768421 L0.154417154,6.55931384 C-0.177185185,5.88092008 0.0855516569,5.0722807 0.752561404,4.71840936 L0.752561404,4.71840936 L1.95053411,4.08277583 C2.07975049,4.01419103 2.16835867,3.89221053 2.19365302,3.74811696 L2.19365302,3.74811696 L2.42794542,2.41238207 C2.55840936,1.66864717 3.24612865,1.16881092 3.99388694,1.27463548 L3.99388694,1.27463548 L5.33667057,1.464577 C5.48157505,1.48497466 5.62488889,1.43847173 5.73005848,1.33673294 L5.73005848,1.33673294 Z M7.99996881,1.05575049 C7.81632749,0.878159844 7.52867057,0.878159844 7.34509162,1.05575049 L7.34509162,1.05575049 L6.37037037,1.99865887 C6.05957115,2.29929045 5.63568031,2.43705263 5.20761014,2.37645224 L5.20761014,2.37645224 L3.86482651,2.18651072 C3.61178947,2.15076803 3.37918129,2.31981287 3.33501754,2.57144639 L3.33501754,2.57144639 L3.10072515,3.90721248 C3.02602729,4.3331306 2.76407018,4.69361404 2.38212865,4.89631189 L2.38212865,4.89631189 L1.18415595,5.53194542 C0.958471735,5.65168031 0.869582846,5.92523977 0.981769981,6.15476023 L0.981769981,6.15476023 L1.57735673,7.37316179 C1.76723587,7.76165302 1.76723587,8.20722027 1.57735673,8.5957115 L1.57735673,8.5957115 L0.981769981,9.81411306 C0.869582846,10.0436335 0.958471735,10.317193 1.18415595,10.4369279 L1.18415595,10.4369279 L2.38212865,11.0725614 C2.76410136,11.2751969 3.02602729,11.6357115 3.10075634,12.0616296 L3.10075634,12.0616296 L3.33507992,13.3974269 C3.37924366,13.6490604 3.61207018,13.8181053 3.86488889,13.7823626 L3.86488889,13.7823626 L5.20767251,13.5924211 C5.27398051,13.5830331 5.34019493,13.5784172 5.40587914,13.5784172 C5.76436647,13.5784172 6.10775828,13.716117 6.37043275,13.9702144 L6.37043275,13.9702144 L7.34512281,14.9131228 C7.52876413,15.0907135 7.81642105,15.0907135 8,14.9131228 L8,14.9131228 L8.97472125,13.9702456 C9.28552047,13.669614 9.70925536,13.5317895 10.1374815,13.5924522 L10.1374815,13.5924522 L11.4802651,13.7823938 C11.7333021,13.8181053 11.9659415,13.6490916 12.0100741,13.3974581 L12.0100741,13.3974581 L12.2443665,12.061692 C12.3190643,11.6357739 12.5810214,11.2752904 12.962963,11.0725926 L12.962963,11.0725926 L14.1609357,10.4369591 C14.3866199,10.3172242 14.4755088,10.0436335 14.3632904,9.81405068 L14.3632904,9.81405068 L13.7677037,8.59568031 C13.5778246,8.20722027 13.5778246,7.76159064 13.7677037,7.3731306 L13.7677037,7.3731306 L14.3632904,6.15476023 C14.4754776,5.92523977 14.3865887,5.65168031 14.1609045,5.53194542 L14.1609045,5.53194542 L12.9629318,4.89631189 C12.5809591,4.69367641 12.3190331,4.33316179 12.2443041,3.90724366 L12.2443041,3.90724366 L12.0100117,2.57144639 C11.9658791,2.31981287 11.7330526,2.15073684 11.4802027,2.18651072 L11.4802027,2.18651072 L10.1374191,2.37645224 C9.70928655,2.43705263 9.28545809,2.29932164 8.97465887,1.99865887 L8.97465887,1.99865887 Z M9.5145731,8.75196881 C10.4456296,8.75196881 11.2031189,9.50945809 11.2031189,10.4405146 C11.2031189,11.3715712 10.4456296,12.1290604 9.5145731,12.1290604 C8.58351657,12.1290604 7.82602729,11.3715712 7.82602729,10.4405146 C7.82602729,9.50945809 8.58351657,8.75196881 9.5145731,8.75196881 Z M10.3861209,4.61960234 C10.5659571,4.43976608 10.857575,4.43976608 11.0373801,4.61960234 C11.2172476,4.79946979 11.2172476,5.09102534 11.0373489,5.27089279 L11.0373489,5.27089279 L4.95893957,11.3493021 C4.86905263,11.4392515 4.75115789,11.4841949 4.63332554,11.4841949 C4.51549318,11.4841949 4.39762963,11.4392203 4.3077115,11.3493021 C4.12787524,11.1694659 4.12787524,10.8778791 4.3077115,10.6980429 L4.3077115,10.6980429 Z M9.5145731,9.67301365 C9.09133723,9.67301365 8.74704094,10.0173099 8.74704094,10.4405146 C8.74704094,10.8637193 9.09136842,11.2080156 9.5145731,11.2080156 C9.93777778,11.2080156 10.2820741,10.8637193 10.2820741,10.4405146 C10.2820741,10.0173099 9.93777778,9.67301365 9.5145731,9.67301365 Z M5.83051852,3.83987524 C6.76157505,3.83987524 7.51906433,4.59736452 7.51906433,5.52842105 C7.51906433,6.45947758 6.76157505,7.21696686 5.83051852,7.21696686 C4.89946199,7.21696686 4.14197271,6.45947758 4.14197271,5.52842105 C4.14197271,4.59736452 4.89946199,3.83987524 5.83051852,3.83987524 Z M5.83051852,4.76088889 C5.40731384,4.76088889 5.06301754,5.10518519 5.06301754,5.52838986 C5.06301754,5.95162573 5.40731384,6.29592203 5.83051852,6.29592203 C6.2537232,6.29592203 6.59801949,5.95162573 6.59805068,5.52838986 C6.59805068,5.10518519 6.2537232,4.76088889 5.83051852,4.76088889 Z" id="Offer"></path>
                    </g>
                </g>
            </g>
        </g>
    </g>
</svg>