<?xml version="1.0" encoding="UTF-8"?>
<svg width="16px" height="16px" viewBox="0 0 16 16" version="1.1" xmlns="http://www.w3.org/2000/svg" xmlns:xlink="http://www.w3.org/1999/xlink">
    <title>vuesax/outline/element-3@1x</title>
    <g id="Page-1" stroke="none" stroke-width="1" fill="none" fill-rule="evenodd">
        <g id="My-Account-Transaction" transform="translate(-178.000000, -172.000000)">
            <g id="Group-29" transform="translate(178.000000, 168.000000)">
                <g id="element-3" transform="translate(0.000000, 4.000000)">
                    <path d="M10.4866664,7.5 C9.14666637,7.5 8.5,6.90666699 8.5,5.68000031 L8.5,2.65333335 C8.5,1.42666666 9.15333303,0.833333333 10.4866664,0.833333333 L13.1800003,0.833333333 C14.5200003,0.833333333 15.1666667,1.42666666 15.1666667,2.65333335 L15.1666667,5.67333349 C15.1666667,6.90666684 14.5133336,7.5 13.1800003,7.5 L10.4866664,7.5 Z M9.5,2.65333335 L9.5,5.67333349 C9.5,6.24666683 9.59333301,6.49333318 10.4866664,6.49333318 L13.1800003,6.49333318 C14.0733337,6.49333318 14.1666667,6.24000017 14.1666667,5.67333349 L14.1666667,2.65333335 C14.1666667,2.08 14.0733337,1.83333333 13.1800003,1.83333333 L10.4866664,1.83333333 C9.59333301,1.83333333 9.5,2.08666666 9.5,2.65333335 Z" id="Vector" fill="#052F5F"></path>
                    <path d="M10.4866664,15.1666667 C9.14666637,15.1666667 8.5,14.5133336 8.5,13.1800003 L8.5,10.4866664 C8.5,9.14666637 9.15333303,8.5 10.4866664,8.5 L13.1800003,8.5 C14.5200003,8.5 15.1666667,9.15333303 15.1666667,10.4866664 L15.1666667,13.1800003 C15.1666667,14.5133336 14.5133336,15.1666667 13.1800003,15.1666667 L10.4866664,15.1666667 Z M9.5,10.4866664 L9.5,13.1800003 C9.5,13.9666669 9.69999973,14.1666667 10.4866664,14.1666667 L13.1800003,14.1666667 C13.9666669,14.1666667 14.1666667,13.9666669 14.1666667,13.1800003 L14.1666667,10.4866664 C14.1666667,9.69999973 13.9666669,9.5 13.1800003,9.5 L10.4866664,9.5 C9.69999973,9.5 9.5,9.69999973 9.5,10.4866664 Z" id="Vector" fill="#052F5F"></path>
                    <path d="M2.82000001,7.5 C1.48000002,7.5 0.833333333,6.90666699 0.833333333,5.68000031 L0.833333333,2.65333335 C0.833333333,1.42666666 1.48666668,0.833333333 2.82000001,0.833333333 L5.51333364,0.833333333 C6.85333363,0.833333333 7.5,1.42666666 7.5,2.65333335 L7.5,5.67333349 C7.5,6.90666684 6.84666697,7.5 5.51333364,7.5 L2.82000001,7.5 Z M1.83333333,2.65333335 L1.83333333,5.67333349 C1.83333333,6.24666683 1.92666666,6.49333318 2.82000001,6.49333318 L5.51333364,6.49333318 C6.40666699,6.49333318 6.5,6.24000017 6.5,5.67333349 L6.5,2.65333335 C6.5,2.08 6.40666699,1.83333333 5.51333364,1.83333333 L2.82000001,1.83333333 C1.92666666,1.83333333 1.83333333,2.08666666 1.83333333,2.65333335 Z" id="Vector" fill="#052F5F"></path>
                    <path d="M2.82000001,15.1666667 C1.48000002,15.1666667 0.833333333,14.5133336 0.833333333,13.1800003 L0.833333333,10.4866664 C0.833333333,9.14666637 1.48666668,8.5 2.82000001,8.5 L5.51333364,8.5 C6.85333363,8.5 7.5,9.15333303 7.5,10.4866664 L7.5,13.1800003 C7.5,14.5133336 6.84666697,15.1666667 5.51333364,15.1666667 L2.82000001,15.1666667 Z M1.83333333,10.4866664 L1.83333333,13.1800003 C1.83333333,13.9666669 2.03333338,14.1666667 2.82000001,14.1666667 L5.51333364,14.1666667 C6.30000027,14.1666667 6.5,13.9666669 6.5,13.1800003 L6.5,10.4866664 C6.5,9.69999973 6.30000027,9.5 5.51333364,9.5 L2.82000001,9.5 C2.03333338,9.5 1.83333333,9.69999973 1.83333333,10.4866664 Z" id="Vector" fill="#052F5F"></path>
                    <path d="M16,0 L16,16 L0,16 L0,0 L16,0 Z" id="Vector" opacity="0"></path>
                </g>
            </g>
        </g>
    </g>
</svg>