<?xml version="1.0" encoding="UTF-8"?>
<svg width="16px" height="16px" viewBox="0 0 16 16" version="1.1" xmlns="http://www.w3.org/2000/svg" xmlns:xlink="http://www.w3.org/1999/xlink">
    <title>00F13A62-E146-49B4-A821-FE55FF8C4846</title>
    <g id="Page-2" stroke="none" stroke-width="1" fill="none" fill-rule="evenodd">
        <g id="1_My-Account_Mobile-app" transform="translate(-16.000000, -590.000000)" fill="#052F5F" fill-rule="nonzero">
            <g id="Group-26" transform="translate(16.000000, 586.000000)">
                <g id="customer-service" transform="translate(0.000000, 4.000000)">
                    <path d="M14.576416,6.12390137 L14.5758057,6.12390137 C14.3344727,2.70666503 11.4775391,0 8,0 C4.52246094,0 1.66552734,2.70666503 1.42419434,6.12390137 L1.423584,6.12390137 C0.638671875,6.12390137 0,6.76245119 0,7.54748534 L0,10.0162353 C0,10.8012695 0.638671875,11.4399414 1.423584,11.4399414 L4.21984863,11.4399414 L4.21984863,6.59265137 C4.21984863,4.50830078 5.91564941,2.8125 8,2.8125 C10.0843506,2.8125 11.7801514,4.50830078 11.7801514,6.59265137 L11.7801514,11.4398193 L12.7617188,11.4398193 L12.7617188,11.940918 C12.7617188,13.1447754 11.7822266,14.1242676 10.5783691,14.1242676 L10.1082764,14.1242676 C9.91479494,13.5782471 9.39343263,13.1860352 8.78186034,13.1860352 L7.21813966,13.1860352 C6.44226075,13.1860352 5.81115722,13.8171387 5.81115722,14.5930176 C5.81115722,15.3687744 6.44226075,16 7.21813966,16 L8.78186034,16 C9.39343263,16 9.91479494,15.6077881 10.1082764,15.0617676 L10.5783691,15.0617676 C12.2991943,15.0617676 13.6992188,13.6617432 13.6992188,11.940918 L13.6992188,11.4399414 L14.576416,11.4399414 C15.3613281,11.4399414 16,10.8012695 16,10.0162353 L16,7.54748534 C16,6.76245119 15.3613281,6.12390138 14.576416,6.12390137 Z M8.78186034,15.0625 L7.21813966,15.0625 C6.9592285,15.0625 6.74865722,14.8519287 6.74865722,14.5930176 C6.74865722,14.3341064 6.9592285,14.1235352 7.21813966,14.1235352 L8.78186034,14.1235352 C9.0407715,14.1235352 9.25134278,14.3341064 9.25134278,14.5930176 C9.25134278,14.8519287 9.0407715,15.0625 8.78186034,15.0625 Z M3.28234863,10.5023193 L1.423584,10.5023193 C1.15551756,10.5023193 0.9375,10.2843018 0.9375,10.0162353 L0.9375,7.54748534 C0.9375,7.27941894 1.15563966,7.06140138 1.423584,7.06140138 L3.28234863,7.06140138 L3.28234863,10.5023193 Z M8,1.875 C5.55688475,1.875 3.54174806,3.74182128 3.30566406,6.12390137 L2.36450194,6.12390137 C2.60351562,3.22412109 5.03967284,0.9375 8,0.9375 C10.9603272,0.9375 13.3964844,3.22412109 13.6354981,6.12390137 L12.6943359,6.12390137 C12.4582519,3.74182128 10.4431152,1.875 8,1.875 Z M15.0625,10.0162353 C15.0625,10.2843017 14.8443603,10.5024414 14.576416,10.5024414 L12.7176514,10.5024414 L12.7176514,7.06140137 L14.576416,7.06140137 C14.8444824,7.06140137 15.0625,7.27941894 15.0625,7.54748534 L15.0625,10.0162353 Z" id="Shape"></path>
                </g>
            </g>
        </g>
    </g>
</svg>