<?xml version="1.0" encoding="UTF-8"?>
<svg width="14px" height="10px" viewBox="0 0 14 10" version="1.1" xmlns="http://www.w3.org/2000/svg" xmlns:xlink="http://www.w3.org/1999/xlink">
    <title>96F18456-4085-4384-A741-E3C309A4FFDB@2x</title>
    <g id="Final---Revamp-Bureaus---Mobile-&amp;-Desktop--Copy-3" stroke="none" stroke-width="1" fill="none" fill-rule="evenodd">
        <g id="Desktop----Dashboard" transform="translate(-1236.000000, -2351.000000)" fill="#1B1DC7" fill-rule="nonzero">
            <g id="Group-30" transform="translate(442.000000, 1902.000000)">
                <g id="Group-31" transform="translate(585.000000, 72.000000)">
                    <g id="Button" transform="translate(24.000000, 360.000000)">
                        <path d="M198.278741,21.1815647 C198.22964,21.1738215 198.179949,21.1702496 198.130231,21.1708754 L187.664466,21.1708754 L187.849064,21.0874461 C188.029503,21.00446 188.193655,20.8915176 188.334169,20.7537288 L190.708182,18.4469087 C191.020845,18.1568875 191.07338,17.6903353 190.832678,17.3414704 C190.552535,16.9697147 190.015297,16.8889968 189.632686,17.161211 C189.601776,17.1832155 189.572396,17.2072014 189.544787,17.2330123 L185.251816,21.4044774 C184.916321,21.7301124 184.916026,22.2583502 185.251146,22.5843502 C185.25136,22.5845588 185.251602,22.5847934 185.251816,22.585002 L189.544787,26.7564671 C189.880551,27.0818153 190.424175,27.0810853 190.759027,26.7548246 C190.785375,26.729144 190.809979,26.7018209 190.832678,26.6730378 C191.07338,26.324173 191.020845,25.8576207 190.708182,25.5675996 L188.338462,23.2566079 C188.212491,23.1340711 188.067656,23.0313227 187.909165,22.9520909 L187.651587,22.8394614 L198.082982,22.8394614 C198.521589,22.8552869 198.9064,22.5575746 198.988798,22.1386553 C199.064704,21.6838352 198.746809,21.2553475 198.278741,21.1815647 Z" id="Path" transform="translate(192.000000, 22.000000) scale(-1, 1) translate(-192.000000, -22.000000) "></path>
                    </g>
                </g>
            </g>
        </g>
    </g>
</svg>