<?xml version="1.0" encoding="UTF-8"?>
<svg width="159px" height="148px" viewBox="0 0 159 148" version="1.1" xmlns="http://www.w3.org/2000/svg" xmlns:xlink="http://www.w3.org/1999/xlink">
    <title>491D834F-7A63-407A-AB19-1B8D4BCFCB17@1x</title>
    <defs>
        <polygon id="path-1" points="0 0 158 0 158 146 0 146"></polygon>
    </defs>
    <g id="Page-1" stroke="none" stroke-width="1" fill="none" fill-rule="evenodd">
        <g id="Mobile-Download-invoice-customer-support-" transform="translate(-641.000000, -149.000000)">
            <g id="Group-5" transform="translate(605.000000, 149.000000)">
                <g id="Group-130" transform="translate(36.500000, 0.000000)">
                    <g id="Group-3">
                        <mask id="mask-2" fill="white">
                            <use xlink:href="#path-1"></use>
                        </mask>
                        <g id="Clip-2"></g>
                        <path d="M142.532117,83.9810393 C147.46996,78.7146888 152.105432,71.6123906 149.582503,64.9519863 C147.05314,58.2740678 138.756357,55.7153274 131.479446,54.4384833 C124.202873,53.1616392 115.948076,51.7500713 111.917688,45.790904 C107.849715,39.7764999 109.792617,31.3394264 105.795073,25.2812371 C101.550011,18.8478423 92.5093173,17.573019 84.609038,16.9303868 C72.561891,15.9502717 60.1568409,15.0041743 48.6142119,18.4601748 C37.0719216,21.9161752 26.4590957,30.8891123 25.1456557,42.4352727 C23.8105451,54.1720671 32.0524745,66.0738981 28.4277321,77.3553263 C24.665517,89.0645024 9.3525465,95.523158 7.82714113,107.689384 C7.02871586,114.058449 10.3636143,120.158065 13.5921915,125.77335 C17.7228063,132.957493 21.8537598,140.596329 25.9847133,147.780471 L128.550871,147.780471 C127.076594,145.781845 128.536311,142.905493 130.594338,141.459571 C132.652366,140.013648 135.22981,139.340703 137.207927,137.795085 C142.446111,133.702515 141.264049,125.665571 138.311095,119.832371 C135.357802,113.999507 131.014883,108.295978 131.372447,101.818461 C131.763533,94.7407499 137.594273,89.2473899 142.532117,83.9810393" id="Fill-1" fill="#E8ECFF" mask="url(#mask-2)"></path>
                    </g>
                    <path d="M16.6008672,88.7338748 C27.7112631,77.9507888 26.8639666,72.2126257 24.5832023,57.8461433 C23.4703607,50.8359551 14.6254288,57.7063302 11.4694874,68.33384 C8.15782307,79.4849635 10.6891723,94.4713525 16.6008672,88.7338748" id="Fill-4" fill="#E5E9FD"></path>
                    <path d="M83.3214631,147.457556 C84.10685,142.306428 85.182886,137.201336 86.5439746,132.172221 C87.9024514,127.15396 89.550085,122.215046 91.4626234,117.38205 C93.3792659,112.538201 95.5637982,107.801394 98.0035345,103.200448 C100.437674,98.6088593 103.125153,94.1542546 106.058134,89.8662016 C108.983281,85.5893768 112.146469,81.4772325 115.53352,77.5589619 C115.962964,77.0619265 116.396139,76.5690081 116.832673,76.0779611 C117.402778,75.4368304 116.378976,74.5879778 115.81111,75.2264886 C112.321082,79.1514961 109.05529,83.2759915 106.034629,87.5752727 C103.021802,91.8625771 100.248137,96.3209246 97.7285558,100.917005 C95.2134522,105.504477 92.9539257,110.23305 90.9626621,115.073156 C88.9579667,119.945076 87.2312348,124.930401 85.7802278,129.996194 C84.3392947,135.027555 83.1808024,140.140133 82.3193019,145.303612 C82.2114745,145.952228 82.1081243,146.601218 82.0088782,147.251331 C81.8801569,148.097564 83.1916224,148.307532 83.3214631,147.457556" id="Fill-8" fill="#DAD4F8"></path>
                    <path d="M89.8794579,119 C83.1389757,112.018405 76.3616666,99.2896623 70.6576036,91.721843 C64.3635558,83.3710307 58.571183,73.6680795 62.0426985,63.530751 C62.9483439,60.8862466 64.6239758,58.1697173 67.5671355,56.5250235 C71.7011626,54.2139131 77.3078969,54.7136327 80.9793308,56.7919614 C84.650389,58.8710326 86.7577996,62.2001454 88.4405714,65.5377972 C96.6578944,81.8384582 97.1738492,101.004153 89.8794579,119" id="Fill-12" fill="#DAD4F8"></path>
                    <path d="M52.9999418,15.9998835 C54.6567286,15.9998835 55.9997671,17.3432714 55.9997671,19.0000582 C55.9997671,19.552437 56.4476795,20 57.0000582,20 C57.5520876,20 58,19.552437 58,19.0000582 C58,16.2388633 55.7614861,14 52.9999418,14 C52.447563,14 52,14.4479124 52,15.0002912 C52,15.5523205 52.447563,15.9998835 52.9999418,15.9998835" id="Fill-19" fill="#FF5592"></path>
                    <path d="M53.0999616,12.1999231 C57.3526082,12.1999231 60.8000769,15.6473918 60.8000769,19.9000384 C60.8000769,20.5076692 61.2924077,21 61.9000384,21 C62.5076692,21 63,20.5076692 63,19.9000384 C63,14.4325146 58.5678697,10 53.0999616,10 C52.4923308,10 52,10.4927151 52,11.0999616 C52,11.7075923 52.4923308,12.1999231 53.0999616,12.1999231" id="Fill-21" fill="#FF5592"></path>
                    <path d="M62.7376879,24.6053142 C62.6202916,24.2626697 62.334505,24.0047691 61.9815824,23.92296 L55.6814371,22.4845134 C55.3340175,22.4056391 54.9704558,22.5083591 54.7154858,22.7574551 C54.5683735,22.8939259 54.5581014,22.9041979 53.8753685,24.2065405 C51.6107207,23.1628321 49.7962143,21.3410199 48.7620264,19.0720088 C50.0955748,18.3999266 50.105847,18.3999266 50.2423202,18.2421781 C50.4914205,17.9875793 50.5941422,17.6240239 50.5156334,17.2762434 L49.0767952,11.049945 C48.9949846,10.6970285 48.7370796,10.4116136 48.3944292,10.2938525 C48.1493645,10.2065405 47.8958618,10.1430743 47.6383237,10.105288 C47.3730815,10.043656 47.1023363,10.0084377 46.8301236,10 C44.1622929,10 42,12.1626225 42,14.8300404 C42.0113728,23.7556732 49.2444517,30.9882606 58.1698716,31 C60.8377023,31 63,28.8373775 63,26.1699596 C63.0003621,25.9025208 62.9794509,25.6358157 62.9368947,25.3720455 C62.8928711,25.1112101 62.826102,24.854777 62.7376879,24.6053142" id="Fill-23" fill="#1E4879"></path>
                    <path d="M115.057842,20 L101.941785,20 C99.2236168,20 97,17.7499811 97,15 C97,12.2500189 99.2236168,10 101.941785,10 L115.057842,10 C117.77601,10 120,12.2500189 120,15 C120,17.7499811 117.77601,20 115.057842,20" id="Fill-25" fill="#1E4879"></path>
                    <path d="M117,21.0001707 C117,21.5523305 116.552254,22 116,22 C115.447746,22 115,21.5523305 115,21.0001707 C115,20.4480109 115.447746,20 116,20 C116.552254,20 117,20.4480109 117,21.0001707" id="Fill-27" fill="#454975"></path>
                    <path d="M106,13.5001952 C106,14.3285621 105.328562,15 104.500195,15 C103.671828,15 103,14.3285621 103,13.5001952 C103,12.6718282 103.671828,12 104.500195,12 C105.328562,12 106,12.6718282 106,13.5001952" id="Fill-29" fill="#FFFFFF"></path>
                    <path d="M110,13.5001952 C110,14.3285621 109.328562,15 108.499805,15 C107.671438,15 107,14.3285621 107,13.5001952 C107,12.6718282 107.671438,12 108.499805,12 C109.328562,12 110,12.6718282 110,13.5001952" id="Fill-31" fill="#FFFFFF"></path>
                    <path d="M114,13.5001952 C114,14.3285621 113.328562,15 112.500195,15 C111.671828,15 111,14.3285621 111,13.5001952 C111,12.6718282 111.671828,12 112.500195,12 C113.328562,12 114,12.6718282 114,13.5001952" id="Fill-33" fill="#FFFFFF"></path>
                    <path d="M95.942158,31 L109.058215,31 C111.776383,31 114,28.7499811 114,26 C114,23.2500189 111.776383,21 109.058215,21 L95.942158,21 C93.2239898,21 91,23.2500189 91,26 C91,28.7499811 93.2239898,31 95.942158,31" id="Fill-35" fill="#FF5592"></path>
                    <path d="M95,31.9998293 C95,32.5519891 95.4477459,33 96,33 C96.5522541,33 97,32.5519891 97,31.9998293 C97,31.4476695 96.5522541,31 96,31 C95.4477459,31 95,31.4476695 95,31.9998293" id="Fill-37" fill="#EA5455"></path>
                    <path d="M101,26.4998048 C101,27.3281718 100.328562,28 99.5001952,28 C98.6718282,28 98,27.3281718 98,26.4998048 C98,25.6714379 98.6718282,25 99.5001952,25 C100.328562,25 101,25.6714379 101,26.4998048" id="Fill-39" fill="#FFFFFF"></path>
                    <path d="M104,26.4998048 C104,27.3281718 103.328172,28 102.499805,28 C101.671438,28 101,27.3281718 101,26.4998048 C101,25.6714379 101.671438,25 102.499805,25 C103.328172,25 104,25.6714379 104,26.4998048" id="Fill-41" fill="#FFFFFF"></path>
                    <path d="M108,26.4998048 C108,27.3281718 107.328562,28 106.500195,28 C105.671828,28 105,27.3281718 105,26.4998048 C105,25.6714379 105.671828,25 106.500195,25 C107.328562,25 108,25.6714379 108,26.4998048" id="Fill-43" fill="#FFFFFF"></path>
                    <path d="M76.5733702,60.1761997 C76.1091943,61.4485657 75.3302325,62.4691304 74.4148381,63.1294005 C73.2467765,63.9831771 71.8504379,64.2560294 70.586721,63.7366385 C68.3371068,62.8128271 67.3717887,59.714294 68.4281889,56.8230314 C69.4807782,53.9313641 72.1610318,52.3383764 74.410646,53.2625926 C74.4232222,53.2670457 74.4357984,53.2710939 74.4479935,53.2804049 C76.6728365,54.2264817 77.6213863,57.3023446 76.5733702,60.1761997" id="Fill-45" fill="#A6AFE2"></path>
                    <path d="M22.5223367,56.639325 C24.7728908,60.255408 31.3245928,70.7641693 35,76.4594233 C32.2133049,81.9584348 26.3784002,85 26.3784002,85 C26.3784002,85 23.361514,76.48861 21.7727591,71.8817141 C20.1843683,67.2748181 18.9532836,63.6879218 19.0013615,61.333013 C19.0079175,61.0069665 19.2606905,60.8982843 19.4326053,60.8610328 L19.1925802,60.4028778 C18.9004708,59.8444895 19.1095367,59.1417036 19.652598,58.8598212 C19.9971561,58.6804763 20.3883351,58.7273287 20.692464,58.9354763 L20.2470153,58.175853 C19.8791467,57.5479542 20.0266584,56.7280373 20.5872026,56.2860119 C21.210758,55.7940617 22.0950993,55.9526686 22.5223367,56.639325" id="Fill-47" fill="#FFD0B2"></path>
                    <path d="M25,70.9836131 C25.0730168,68.0075939 27.6635596,65.6554756 28.6555005,65 L29,65.5527578 C27.7315273,66.3908873 25.6963783,68.6107114 25.6377318,71 L25,70.9836131 Z" id="Fill-49" fill="#EBAA80"></path>
                    <polygon id="Fill-51" fill="#F18B8B" points="24.7253651 65 21 59.1467045 21.2746349 59 25 64.8529412"></polygon>
                    <polygon id="Fill-53" fill="#F18B8B" points="21.7355254 67 19 61.1306588 19.2644746 61 22 66.8697092"></polygon>
                    <path d="M85.4958929,65.3111296 L85.5101992,65.5457192 L85.647991,72.7375553 L86,91 L64,85.1214167 L74.5967897,78.1926053 L74.4902457,75.4426315 L74.1310836,65.8906819 C74.0030803,62.7886367 76.42046,60.1628795 79.5399754,60.0064864 C82.6696557,59.8590729 85.3106647,62.2423834 85.4958929,65.3111296" id="Fill-55" fill="#FFD0B2"></path>
                    <path d="M84.8547898,66.0943449 L84.8684481,66.3193592 L85,73.2176457 C83.9134392,73.8000991 82.7844656,74.3003702 81.6526164,74.7539876 C79.8306593,75.4839384 78.2124996,75.9949758 76.243535,76 C75.6120143,76 74.9520984,75.9924636 74.347535,75.8123086 L74.0046375,66.6502416 C73.8824309,63.6748127 76.1903392,61.1562312 79.1685868,61.0062217 C82.1565391,60.8648251 84.6779496,63.1508559 84.8547898,66.0943449" id="Fill-57" fill="#FEBC92"></path>
                    <path d="M91.0224395,62.149427 C89.4181462,65.9927632 88.2058405,67.4873532 86.8878427,67.0753054 C83.0877518,73.508971 77.8584083,75.9336014 73.1934972,74.682061 C69.4086111,73.6757697 69.602936,68.224567 70.6646771,63.2891573 C70.9164836,62.1497936 71.207971,61.0269265 71.505392,60.0004728 C71.997138,58.3277197 72.8104101,56.0310294 73.9474335,53.454997 C70.94986,44.2715351 79.9470306,42.2578528 85.8854375,48.9506979 C86.2017718,48.720479 86.5414696,48.5467151 86.8960014,48.4583667 C88.4635806,48.0195577 90.2254848,49.1739516 91.5445951,53.4494982 C94.2606941,56.3928544 92.6363749,58.3057243 91.0224395,62.149427" id="Fill-59" fill="#2E3048"></path>
                    <path d="M91,61.8780429 C89.3974191,65.8025444 88.1864074,67.3286978 86.8698165,66.9079481 C83.0737818,73.4774827 77.8500202,75.9533176 73.1900885,74.6753466 C69.4092424,73.647804 69.6033599,68.0814804 70.6639676,63.0418425 C70.9155054,61.8784172 71.2066816,60.7318369 71.5037852,59.683706 C71.9950062,57.975627 72.8074102,55.6304342 73.94322,53" id="Fill-59" fill="#FFD0B2"></path>
                    <path d="M88,53 C87.5106252,52.0482998 86.6026287,50.8693972 85,48.5185471 C85.3143348,48.2758887 85.6518855,48.0927357 86.0038079,48 C86.7769316,49.5212519 87.8787618,51.8933539 88,53" id="Fill-61" fill="#3B3E63"></path>
                    <path d="M85.4709358,64.1434766 C83.9695696,66.3566291 82.9943232,66.9263364 82.3255397,66.9969771 C81.6567561,67.0676177 79.7953338,65.8793274 78.9982284,65.6170024 C78.1905552,65.3458951 74.1646444,66.5311306 71.0101903,63.398886 L71,63.3897218 C71.2562664,62.2029589 71.5529164,61.0333788 71.8556051,59.9638412 C72.3560605,58.2218809 73.1837368,55.829263 74.3408983,53.1464456 C76,52.3068917 80.8929531,46.796976 87.3795353,57.6105529 C86.8904024,59.7122077 86.540914,61.3254874 86.1000905,62.4030437 C89.0801779,58.7587498 92.3089832,59.8141593 90.4543544,63.5806425 C88.600103,67.3570535 85.7290893,65.659005 85.4709358,64.1434766 Z" id="Fill-63" fill="#FFD0B2"></path>
                    <path d="M85,63 C85.1521425,62.6355214 85.3772129,62.2996669 85.6693433,62.0153354 C85.9505765,61.7206993 86.2967741,61.4733882 86.6886564,61.2898132 C87.0788621,61.1073831 87.5222968,60.9806743 87.99046,61.0024285 C88.2213981,61.0081533 88.4640717,61.0627297 88.6711197,61.1852403 C88.8764911,61.3046976 89.0269572,61.5226215 88.9959419,61.7237526 C88.8697851,61.5573519 88.7042306,61.4859828 88.535323,61.4669001 C88.3693493,61.4398028 88.1937358,61.4577405 88.0210561,61.4909443 C87.6748585,61.5615501 87.3353669,61.6909304 87.0042578,61.8466448 C86.6710531,62.0000693 86.3470691,62.1847893 86.0205704,62.3828672 C85.6890422,62.5767469 85.3734408,62.7992506 85,63" id="Fill-65" fill="#F18B8B"></path>
                    <path d="M85,62.3528709 C85.1409002,62.1961794 85.3516807,62.0895325 85.5730953,62.0405233 C85.7948896,61.9873724 86.0326349,61.9866821 86.2627845,62.0374171 C86.489516,62.0919485 86.7162475,62.207914 86.8556285,62.3935969 C87.0014659,62.5758285 87.0288104,62.8077595 86.9733618,63 C86.8427159,62.6055101 86.5555986,62.3915261 86.1849286,62.3117998 C86.0026319,62.2662419 85.8070427,62.2541622 85.6091748,62.2583038 C85.4113069,62.2676225 85.2092614,62.2879854 85,62.3528709" id="Fill-67" fill="#F18B8B"></path>
                    <path d="M60.0011501,148 C66.3011231,147.198346 69.0861024,147.198346 78.2223606,147.198346 C83.0842873,127.812043 83.840438,84.4583706 84,81.8625783 C80.1868309,83.671889 75.4804772,84.7251567 73.4895786,79 C63.9535733,92.2726052 59.9447283,111.749823 60.000575,147.198346" id="Fill-79" fill="#FFFFFF"></path>
                    <path d="M85.5745298,76 C80.0973366,79.0756078 76.6468629,88.4160649 75.7370173,102.68552 C74.8275573,116.954975 73.7006596,129.996213 74.0730794,134.252035 C74.4451137,138.507857 75.7485832,145.382128 83.5909893,145.994174 C91.4333955,146.605845 103,147 103,147 C103,147 93.778561,91.9330812 93.4655124,88.6365816 C93.1524639,85.3397071 92.0209398,80.1706907 85.5745298,76" id="Fill-81" fill="#7185F7"></path>
                    <path d="M149.370325,137.54499 C145.76946,135.281955 135.304986,128.694146 129.634614,125 C124.101183,127.719111 121,133.483309 121,133.483309 C121,133.483309 129.496903,136.547187 134.096363,138.161885 C138.695823,139.776222 142.276686,141.027722 144.636232,140.999533 C144.962814,140.995558 145.073982,140.745113 145.112834,140.575259 L145.569818,140.817392 C146.126431,141.111926 146.832294,140.910269 147.119255,140.373603 C147.301972,140.033172 147.258889,139.645037 147.053862,139.341468 L147.810117,139.789594 C148.4352,140.159659 149.258002,140.020523 149.706139,139.467955 C150.204283,138.853228 150.053878,137.974323 149.370325,137.54499" id="Fill-83" fill="#FFD0B2"></path>
                    <path d="M133.271071,128 L145.949356,131.254668 C146.682019,131.442923 147.132219,132.177081 146.96524,132.912371 C146.791067,133.681238 146.012589,134.153574 145.247363,133.954378 L137.67197,131.988071 C137.67197,131.988071 131.671708,130.961533 133.271071,128" id="Fill-85" fill="#FFD0B2"></path>
                    <path d="M136.605146,135.731945 C136.09941,135.892306 135.56582,135.99096 135.010743,136 L135,135.354623 C137.379468,135.315712 139.607335,133.276604 140.453279,132 L141,132.352953 C140.462829,133.164587 138.799987,135.034686 136.605146,135.731945" id="Fill-87" fill="#EBAA80"></path>
                    <polygon id="Fill-89" fill="#EBAA80" points="146.850454 140 141 136.269414 141.14919 136 147 139.730586"></polygon>
                    <polygon id="Fill-91" fill="#EBAA80" points="144.866264 141 139 138.258851 139.133736 138 145 140.741149"></polygon>
                    <path d="M86.0033026,77 C93.0183932,81.8456302 95.1921854,85.3302665 97.3033566,89.5622758 C99.4141459,93.7942852 107.344116,107.671356 109.702335,110.614278 C112.060935,113.556826 131,125.104597 131,125.104597 L120.884783,136 C120.884783,136 101.496297,127.66638 97.7711056,123.741368 C94.0459138,119.816355 85.8112391,105.217618 86.0033026,77" id="Fill-93" fill="#7185F7"></path>
                    <path d="M73.929492,78.0152746 L74,79.8293963 C69.817783,84.3799923 66.5770549,92.3950984 64.788716,102.680094 C62.756804,114.328665 61.9755604,126.714969 61.8956262,136.967517 C61.8484952,144.020363 55.2599575,143.931596 52,141.524081 C52.6930143,132.243117 55.4070062,109.836626 56.8797559,102.992642 C58.2914239,96.4362186 61.1494481,77.3849568 73.929492,78.0152746" id="Fill-95" fill="#7185F7"></path>
                    <path d="M74.9789062,76.7960641 L75,77.3166297 C68.5064503,79.8976738 65.0426316,92.3679625 65.0426316,92.3679625 C65.0426316,92.3679625 60.9981793,105.252525 57.2867864,108.230191 C50.08419,114.010122 44.7160113,112.477721 40.6600869,108.105871 C38.5181443,105.797129 25,83.9006958 25,83.9006958 L36.0572048,75 L48.5802414,92.0701208 C48.5802414,92.0701208 59.204839,84.3731861 63.2096943,81.3819995 C66.8233897,78.6710018 69.9019695,76.7506179 74.9789062,76.7960641" id="Fill-97" fill="#7185F7"></path>
                    <polygon id="Fill-99" fill="#BB4344" points="94.4625107 120 88 102.224671 88.5374893 102 95 119.775329"></polygon>
                    <polygon id="Fill-101" fill="#5758E1" points="56.6550931 104 56 103.808646 59.3449069 94 60 94.1913542"></polygon>
                    <path d="M23.5,63.2404803 L12,52 L12,61.6278926 C12,63.4903746 13.5445299,65 15.4497001,65 L31.5502999,65 C33.4554701,65 35,63.4903746 35,61.6278926 L35,52 L23.5,63.2404803 Z" id="Fill-103" fill="#153B68"></path>
                    <path d="M35,52.9155168 L35,51.3256702 C35,49.4890359 33.4554952,48 31.5499813,48 L15.4500187,48 C13.5448796,48 12,49.4890359 12,51.3256702 L12,52.9155168 L23.5001874,64 L35,52.9155168 Z" id="Fill-105" fill="#1E4879"></path>
                    <path d="M32.9998231,53 C30.7905958,53 29,51.2091295 29,49 C29,46.7908705 30.7905958,45 32.9998231,45 C35.2090503,45 37,46.7908705 37,49 C37,51.2091295 35.2090503,53 32.9998231,53 Z" id="Fill-107" fill="#FF5592"></path>
                    <polygon id="Fill-109" fill="#A6AFE2" points="15 60 22 60 22 58 15 58"></polygon>
                    <path d="M33,72.7380749 L29.7990613,60.0602171 C29.6138671,59.3277052 28.870401,58.8721047 28.1200188,59.0319049 C27.3354411,59.1988828 26.8478657,59.9714392 27.0430495,60.7368178 L28.9779826,68.3124035 C28.9779826,68.3124035 29.969655,74.3073654 33,72.7380749" id="Fill-111" fill="#FFD0B2"></path>
                    <path d="M90.5733702,64.1761997 C90.1091943,65.4485657 89.3302325,66.4691304 88.4148381,67.1294005 C87.2467765,67.9831771 85.8504379,68.2560294 84.586721,67.7366385 C82.3371068,66.8124223 81.3717887,63.714294 82.4281889,60.8230314 C83.4807782,57.9313641 86.1610318,56.3383764 88.410646,57.2625926 C88.4232222,57.2670457 88.4357984,57.2710939 88.4479935,57.2804049 C90.6728365,58.2264817 91.6213863,61.3023446 90.5733702,64.1761997" id="Fill-114" fill="#A6AFE2"></path>
                    <path d="M87.274182,57.1113553 C88.8620809,54.7560192 87.0615453,50.2023198 84.9972414,48.0690518 C84.9972414,48.0690518 84.2507209,47.210165 84,47 C84.4647681,47.0081834 84.6343838,47.0933653 85.1065571,47.4750101 C85.5783779,47.855911 91.8566262,51.8598336 89.4541489,58 C89.4541489,58 87.3993661,57.6443933 87.274182,57.1113553" id="Fill-115" fill="#A6AFE2"></path>
                    <path d="M89.626677,64.2339982 C89.2204993,65.3842539 88.5388677,66.3068739 87.7378505,66.9037773 C84.9863132,67.5841226 82.8253677,64.5564211 84.7108594,60.9878103 C85.5372209,59.4240042 86.6357016,58.4651527 87.7668632,58 C89.7137151,58.8552808 90.5437449,61.63595 89.626677,64.2339982" id="Fill-116" fill="#BBC3ED"></path>
                    <path d="M84.3507762,65 C82.4019338,66.7577067 78.5764715,66.9460827 75.5517056,66.9904479 C75.260082,66.9950253 75.020771,67.199246 75.0012513,67.461564 C74.9789989,67.764022 75.2565684,68.0157769 75.5919161,67.9992279 C80.1899663,67.7685994 83.0480344,67.5069856 85,65.6200564 L84.3507762,65 Z" id="Fill-117" fill="#A6AFE2"></path>
                    <path d="M77,67.9998351 C77,68.5523668 76.5524406,69 76,69 C75.4475594,69 75,68.5523668 75,67.9998351 C75,67.4476332 75.4475594,67 76,67 C76.5524406,67 77,67.4476332 77,67.9998351" id="Fill-118" fill="#EA5455"></path>
                    <path d="M44,29.0001788 C44,31.2092701 42.2092701,33 39.9998212,33 C37.7910875,33 36,31.2092701 36,29.0001788 C36,26.7907299 37.7910875,25 39.9998212,25 C42.2092701,25 44,26.7907299 44,29.0001788" id="Fill-119" fill="#DAD4F8"></path>
                    <path d="M85,17.0002179 C85,18.1044776 84.10438,19 83,19 C81.8951841,19 81,18.1044776 81,17.0002179 C81,15.8955224 81.8951841,15 83,15 C84.10438,15 85,15.8955224 85,17.0002179" id="Fill-120" fill="#DAD4F8"></path>
                    <path d="M67,39.9998474 C67,40.5524027 66.552166,41 66,41 C65.447834,41 65,40.5524027 65,39.9998474 C65,39.4475973 65.447834,39 66,39 C66.552166,39 67,39.4475973 67,39.9998474" id="Fill-121" fill="#DAD4F8"></path>
                    <path d="M102,78.5 C102,79.3284327 101.328526,80 100.500208,80 C99.6714741,80 99,79.3284327 99,78.5 C99,77.6715673 99.6714741,77 100.500208,77 C101.328526,77 102,77.6715673 102,78.5" id="Fill-122" fill="#DAD4F8"></path>
                    <path d="M109,104.744509 L109,131.255873 C109,133.875166 106.936395,136 104.383914,136 L58.6119997,136 C56.0636052,136 54,133.875166 54,131.255873 L54,104.744509 C54,102.125598 56.0636052,100 58.6119997,100 L104.383914,100 C106.936395,100 109,102.125598 109,104.744509" id="Fill-123" fill="#1E4879"></path>
                    <polygon id="Fill-124" fill="#1E4879" points="91 136 74.5837968 136 74 116 84.1095796 116"></polygon>
                    <path d="M85.2129847,128.753744 C85.2129847,130.809207 83.5508011,132.475319 81.5001844,132.475319 C79.4495678,132.475319 77.7873842,130.809207 77.7873842,128.753744 L77.7873842,127.200407 C77.7873842,125.144944 79.4495678,123.478462 81.5001844,123.478462 C83.5508011,123.478462 85.2129847,125.144944 85.2129847,127.200407 L85.2129847,128.753744 Z M98.7140763,142.442781 L90.1205946,142.442781 L86.5689959,115 L76.4310041,115 L72.8797743,142.442781 L64.2862925,142.442781 C63.5758252,142.442781 63,143.020336 63,143.732483 L63,145 L100,145 L100,143.732483 C100,143.020336 99.4241748,142.442781 98.7140763,142.442781 L98.7140763,142.442781 Z" id="Fill-125" fill="#A2BCDB"></path>
                    <path d="M80,128 C71.5507994,128 74.4975345,138.894339 74.4975345,145" id="Stroke-126" stroke="#F3EDFF" stroke-width="2.174"></path>
                    <path d="M123.997361,46 C122.008185,46 120.126817,46.2517386 118.454658,46.6992739 C117.5986,46.9284058 117,47.7104431 117,48.6101117 L117,61.718911 L117,63.4036822 C117,64.6616089 118.14028,65.5880989 119.350673,65.3260149 C120.788368,65.0145027 122.356112,64.8436117 123.997361,64.8436117 C126.587399,64.8436117 128.999138,65.2696898 131,66 L131,61.718911 L131,47.1571546 C128.999138,46.4264613 126.587399,46 123.997361,46" id="Fill-127" fill="#1E4879"></path>
                    <path d="M138.002639,46 C135.412601,46 133.000862,46.4264613 131,47.1571546 L131,61.718911 L131,66 C133.000862,65.2696898 135.412601,64.8436117 138.002639,64.8436117 C139.643888,64.8436117 141.211632,65.0145027 142.649327,65.3260149 C143.85972,65.5880989 145,64.6616089 145,63.4036822 L145,61.718911 L145,48.6101117 C145,47.7104431 144.4014,46.9284058 143.545342,46.6992739 C141.873183,46.2517386 139.991815,46 138.002639,46" id="Fill-128" fill="#153B68"></path>
                    <path d="M143.095053,148 L10.9049471,148 C10.4073199,148 10,147.549896 10,147 C10,146.450104 10.4073199,146 10.9049471,146 L143.095053,146 C143.59268,146 144,146.450104 144,147 C144,147.549896 143.59268,148 143.095053,148" id="Fill-129" fill="#454975"></path>
                </g>
            </g>
        </g>
    </g>
</svg>