<?xml version="1.0" encoding="UTF-8"?>
<svg width="120px" height="80px" viewBox="0 0 120 80" version="1.1" xmlns="http://www.w3.org/2000/svg" xmlns:xlink="http://www.w3.org/1999/xlink">
    <title>F897D2D7-75DF-41B4-8F24-2438E317CE6F</title>
    <g id="Credit-Plus---Advisory-Plans" stroke="none" stroke-width="1" fill="none" fill-rule="evenodd">
        <g id="Info-drawer-3" transform="translate(-224.000000, -404.000000)">
            <g id="Group-11" transform="translate(0.000000, 328.000000)">
                <g id="Group" transform="translate(224.000000, 76.000000)">
                    <path d="M105.709858,77.9123151 C105.709858,77.9123151 113.827336,71.6720928 117.405405,63.5745828 C121.044312,55.3393919 120.810811,39.7515965 109.459459,38.9182621 C85.5393193,37.1622177 105.452679,-1.10227531 67.6150521,9.28503466 C56.9750605,12.2057272 33.8340132,-2.87193325 20.2112514,22.6755119 C17.8948663,27.0195575 16.9102884,29.6225346 7.42026747,34.2172771 C-8.10810811,41.7355836 5.11268723,78.0510397 18.8248916,78.1910313 C32.537096,78.3303894 105.709858,77.9123151 105.709858,77.9123151 Z" id="Fill-3" fill="#F2E6FC"></path>
                    <g id="warning-(3)" transform="translate(84.324324, 11.351351)" fill="#CC15A7" fill-rule="nonzero">
                        <path d="M14.578112,18.7830934 C13.7629724,18.7830934 13.0796937,19.4663722 13.0796937,20.2815117 C13.0796937,21.0966513 13.7629724,21.7799301 14.578112,21.7799301 C15.3632832,21.7799301 16.0765303,21.0966513 16.0405683,20.3174738 C16.0765303,19.4603785 15.3992452,18.7830934 14.578112,18.7830934 Z" id="Path"></path>
                        <path d="M28.4474721,24.093488 C29.3884788,22.4692025 29.3944725,20.533246 28.4594595,18.9149542 L19.073367,2.6601121 C18.1443476,1.02383928 16.4661191,0.0528641989 14.5841057,0.0528641989 C12.7020922,0.0528641989 11.0238637,1.02983295 10.0948443,2.65411843 L0.696764526,18.9269416 C-0.238248515,20.5632144 -0.232254842,22.5111582 0.714745546,24.1354437 C1.64975859,25.7417482 3.32199345,26.7067296 5.19201953,26.7067296 L23.9402298,26.7067296 C25.8162495,26.7067296 27.5004717,25.7297608 28.4474721,24.093488 Z M26.4096232,22.918728 C25.8881736,23.817779 24.9651479,24.3512159 23.9342361,24.3512159 L5.18602586,24.3512159 C4.16710139,24.3512159 3.25006937,23.8297664 2.74060714,22.9486964 C2.22515123,22.055639 2.21915756,20.9887652 2.73461346,20.0897142 L12.1326933,3.82288473 C12.6421555,2.9298274 13.5531939,2.40238415 14.5841057,2.40238415 C15.6090238,2.40238415 16.5260558,2.93582108 17.0355181,3.82887841 L26.4276042,20.0957079 C26.9310728,20.9707842 26.9250791,22.0256707 26.4096232,22.918728 Z" id="Shape"></path>
                        <path d="M14.2065042,8.26419668 C13.4932571,8.46798158 13.0497253,9.1152983 13.0497253,9.9004695 C13.0856873,10.3739697 13.1156557,10.8534636 13.1516177,11.3269638 C13.2535102,13.1310594 13.3554026,14.8991931 13.4572951,16.7032888 C13.4932571,17.3146434 13.9667573,17.7581753 14.578112,17.7581753 C15.1894667,17.7581753 15.6689605,17.2846751 15.6989289,16.6673267 C15.6989289,16.295719 15.6989289,15.9540796 15.7348909,15.5764782 C15.8008214,14.4196992 15.8727454,13.2629203 15.9386758,12.1061413 C15.9746379,11.3569321 16.0405683,10.607723 16.0765303,9.85851379 C16.0765303,9.58879849 16.0405683,9.34905156 15.9386758,9.10930462 C15.6329985,8.43801321 14.9197514,8.09637383 14.2065042,8.26419668 Z" id="Path"></path>
                    </g>
                    <path d="M30.4114415,0.0950008719 C30.4114415,0.0950008719 23.2133418,-0.257068385 27.0318173,21.6809384 C27.0318173,21.6809384 29.600694,29.1277289 26.3578308,33.9274122 L74.0945707,33.9274122 L74.0945707,0.0950008719 L30.4114415,0.0950008719" id="Fill-5" fill="#C5AEF2"></path>
                    <path d="M35.3143131,57.1314874 C35.3143131,57.1314874 31.9793469,53.2408624 35.1086965,50.7691563 C35.1086965,50.7691563 37.3946129,49.3850769 39.2582109,49.4978303 C39.2582109,49.4978303 36.6173747,53.9262509 37.4718933,54.3671293 C38.3264119,54.8073742 40.0588866,49.2197475 40.0588866,49.2197475 C40.0588866,49.2197475 45.2601112,48.7155245 46.9336754,49.5200009 C46.9336754,49.5200009 42.4868849,53.1591478 43.4237514,53.3757863 C44.3599845,53.5924249 49.1634051,50.0204232 49.1634051,50.0204232 C49.1634051,50.0204232 54.0041991,50.8445363 53.7463866,53.7976613 C53.4879406,56.7507863 51.8200774,57.6629485 51.086547,57.5844012 C50.3536501,57.5058539 46.0645876,55.8690296 45.971471,56.4695363 C45.877721,57.0700431 48.4596467,59.0337255 50.2675014,59.1255752 C50.2675014,59.1255752 46.8544947,62.889511 44.5854913,61.8031512 C42.3171214,60.7167914 42.1239203,58.9950853 40.7094355,58.3489705 C39.2955842,57.7028556 38.0882362,57.7047559 38.6722734,58.3635397 C39.2563105,59.0223235 41.8154322,59.6621039 42.6237092,61.0924249 C43.4326197,62.5233793 44.1579153,63.487484 41.810998,63.1346546 C39.4640808,62.7818252 35.6492793,61.0639198 35.4817962,59.0977036 C35.3143131,57.1314874 35.3143131,57.1314874 35.3143131,57.1314874" id="Fill-6" fill="#599DAD"></path>
                    <g id="Group-34" transform="translate(29.791408, 48.806678) rotate(-66.000000) translate(-29.791408, -48.806678) translate(4.291408, 31.806678)">
                        <path d="M27.6474071,27.4883643 C27.6474071,27.4883643 24.8250887,29.5755687 24.6290372,33.3052985 L25.1412416,33.3509066 C25.1412416,33.3509066 26.0426985,29.4944876 27.6719848,27.9868863 C29.3012078,26.4786515 27.6474071,27.4883643 27.6474071,27.4883643" id="Fill-8" fill="#599DAD" transform="translate(26.509402, 30.254192) rotate(-1.000000) translate(-26.509402, -30.254192) "></path>
                        <path d="M25.0592536,18.7663165 C25.0592536,18.7663165 18.0662004,14.8503537 21.3297139,9.53574221 C21.3297139,9.53574221 23.940398,6.27203866 26.737632,5.43291281 C26.737632,5.43291281 25.2458034,13.3585885 26.737632,13.5448216 C28.2294605,13.7310547 27.7632443,4.59372362 27.7632443,4.59372362 C27.7632443,4.59372362 35.1296506,1.05054373 38.0200644,1.33027346 C38.0200644,1.33027346 33.4510188,9.06952599 34.942784,8.88265943 C36.4345492,8.69642633 41.5629276,0.864057239 41.5629276,0.864057239 C41.5629276,0.864057239 49.1155036,-0.53459141 50.3279191,3.94102092 C51.5397012,8.41644322 49.5817198,10.6544077 48.4630543,10.9343909 C47.3437553,11.2137405 40.1642789,11.120624 40.3511455,12.0530564 C40.5373786,12.9854888 45.3857739,14.477254 48.0899546,13.6379382 C48.0899546,13.6379382 45.1064242,21.0042811 41.1898279,20.6311814 C37.2738651,20.2580817 36.0614495,17.8338841 33.6372519,17.647651 C31.2130543,17.4607844 29.4416227,18.1138672 30.6537215,18.7663165 C31.866137,19.4193993 35.968333,18.9804213 37.9263144,20.6451172 C39.8849293,22.3091797 41.469811,23.3353621 37.8331979,24.080928 C34.1972181,24.8271273 27.6700011,24.3609111 26.364659,21.5636138 C25.0592536,18.7663165 25.0592536,18.7663165 25.0592536,18.7663165" id="Fill-12" fill="#CA7DE5" transform="translate(35.586072, 12.527689) rotate(-1.000000) translate(-35.586072, -12.527689) "></path>
                        <path d="M46.8775391,5.33966957 C46.8775391,5.33966957 27.2970914,11.6799567 25.0592536,18.7663165 C25.0592536,18.7663165 25.1524968,21.9367135 23.1945154,25.5726932 L23.1945154,26.9713419 C23.1945154,26.9713419 25.2458034,22.2160632 26.364659,21.5636138 C26.364659,21.5636138 21.9822899,15.4096865 46.8775391,5.33966957" id="Fill-13" fill="#8A41A3" transform="translate(35.036027, 16.155506) rotate(-1.000000) translate(-35.036027, -16.155506) "></path>
                        <path d="M21.7231946,22.3661512 C21.7231946,22.3661512 27.0282411,19.3952897 24.5525443,15.3634062 C24.5525443,15.3634062 22.5720122,12.8878995 20.4500316,12.2512863 C20.4500316,12.2512863 21.5817462,18.2639552 20.4500316,18.4052137 C19.3181904,18.5464721 19.6719066,11.6146731 19.6719066,11.6146731 C19.6719066,11.6146731 14.0838999,8.92696198 11.8911,9.13916637 C11.8911,9.13916637 15.3570629,15.0099434 14.2253484,14.868685 C13.0936338,14.7267931 9.20319887,8.78507009 9.20319887,8.78507009 C9.20319887,8.78507009 3.47374363,7.72404813 2.55417015,11.1193184 C1.63459667,14.5145887 3.12009076,16.2122238 3.96884498,16.4244282 C4.8175992,16.6366326 10.2642208,16.5663201 10.122709,17.2732458 C9.98132387,17.9808049 6.30309329,19.1121393 4.25180529,18.4761596 C4.25180529,18.4761596 6.51529768,24.0637863 9.48615917,23.780636 C12.4569573,23.4981191 13.3765308,21.6592255 15.2156778,21.5173336 C17.054698,21.3760752 18.3986803,21.8714299 17.4791068,22.3661512 C16.5595967,22.8615059 13.4472867,22.5283133 11.961856,23.7914045 C10.4764252,25.0538623 9.27389143,25.8323674 12.0325485,26.3980346 C14.7912056,26.9637018 19.7425992,26.610239 20.7328653,24.4881951 C21.7231946,22.3661512 21.7231946,22.3661512 21.7231946,22.3661512" id="Fill-9" fill="#C013FE" transform="translate(13.737425, 17.633321) rotate(69.000000) translate(-13.737425, -17.633321) "></path>
                        <path d="M1.46775275,13.8292727 C1.46775275,13.8292727 16.3219968,18.6396612 18.019632,24.0150835 C18.019632,24.0150835 17.9488761,26.4202778 19.4343068,29.1789349 L19.4343068,30.2399568 C19.4343068,30.2399568 17.8781835,26.6324822 17.0293026,26.1371274 C17.0293026,26.1371274 20.3538803,21.4686308 1.46775275,13.8292727" id="Fill-10" fill="#751597" transform="translate(10.451030, 22.034615) rotate(74.000000) translate(-10.451030, -22.034615) "></path>
                    </g>
                    <path d="M78.0656433,14.4471124 C78.0656433,14.4471124 74.8540724,15.8641309 73.8443595,19.4596335 L74.3340132,19.6168548 C74.3340132,19.6168548 76.05952,16.0523911 77.9801281,14.9387298 C79.9007362,13.8250684 78.0656433,14.4471124 78.0656433,14.4471124" id="Fill-21" fill="#599DAD"></path>
                    <path d="M63.9651366,10.1289747 C63.9651366,10.1289747 61.0835909,14.8022855 62.9706264,20.3303683 L63.7408967,20.0987171 C63.7408967,20.0987171 62.8040301,13.9758286 64.2907278,10.8381174 C65.7780589,7.70027959 63.9651366,10.1289747 63.9651366,10.1289747" id="Fill-24" fill="#6BB7BF"></path>
                    <polygon id="Fill-25" fill="#292949" points="33.4382996 78.0763776 83.2770031 78.0763776 83.2770031 13.0800727 33.4382996 13.0800727"></polygon>
                    <polygon id="Fill-26" fill="#FFFFFF" points="35.0677126 78.0763776 84.0681771 78.0763776 84.0681771 13.0800727 35.0677126 13.0800727"></polygon>
                    <path d="M84.0688105,13.0791858 C84.0681771,13.0798193 84.0681771,13.0798193 84.0681771,13.0798193 L35.0675225,13.0798193 C35.3385741,9.37441388 34.9302548,6.68366219 34.2758418,4.74880155 C33.0192117,1.02819344 30.85346,0.0947474935 30.85346,0.0947474935 L77.0660656,0.0947474935 C81.0099001,0.0947474935 84.0681771,2.47092993 84.9005251,5.62485729 C84.9315639,5.74356506 84.9607024,5.86163939 84.9860403,5.97971371 C85.7759474,9.58820189 84.1011163,13.0132441 84.0688105,13.0791858" id="Fill-28" fill="#F4EFFE"></path>
                    <path d="M84.0688105,13.0791858 C84.0681771,13.0798193 84.0681771,13.0798193 84.0681771,13.0798193 L35.0675225,13.0798193 C35.3385741,9.37441388 34.9302548,6.68366219 34.2758418,4.74880155 C39.2835487,5.66571455 51.6857869,7.61970526 64.961547,7.29056675 C73.5498072,7.07741219 80.336547,6.50287672 84.9860403,5.97971371 C85.7759474,9.58820189 84.1011163,13.0132441 84.0688105,13.0791858" id="Fill-29" fill="#E0D0FF"></path>
                    <path d="M71.1243426,28.0674037 L45.1384896,28.0674037 C44.8718089,28.0674037 44.6539034,27.8490549 44.6539034,27.5822475 L44.6539034,27.3334933 C44.6539034,27.0666858 44.8718089,26.8484637 45.1384896,26.8484637 L71.1243426,26.8484637 C71.3910234,26.8484637 71.6095622,27.0666858 71.6095622,27.3334933 L71.6095622,27.5822475 C71.6095622,27.8490549 71.3910234,28.0674037 71.1243426,28.0674037" id="Fill-30" fill="#CC15A7"></path>
                    <path d="M61.0671214,30.1181216 L45.0365048,30.1181216 C44.8262007,30.1181216 44.6539034,29.945761 44.6539034,29.7352036 L44.6539034,29.2820997 C44.6539034,29.0714156 44.8262007,28.8991816 45.0365048,28.8991816 L61.0671214,28.8991816 C61.2774254,28.8991816 61.4497227,29.0714156 61.4497227,29.2820997 L61.4497227,29.7352036 C61.4497227,29.945761 61.2774254,30.1181216 61.0671214,30.1181216" id="Fill-31" fill="#CC15A7"></path>
                    <path d="M42.1505251,29.9207399 L42.1505251,27.4309806 L41.8224001,27.4309806 C41.6228646,27.4309806 41.5234136,27.3481259 41.5234136,27.1820363 C41.5234136,27.0625684 41.6013274,26.9778767 41.7577886,26.9280879 C41.8369693,26.9016098 41.964292,26.8815929 42.1384896,26.8682906 C42.3126872,26.8550515 42.4526788,26.8484637 42.5590977,26.8484637 C42.6617159,26.8484637 42.7269609,26.8692407 42.7535656,26.9106681 C42.7795369,26.9521588 42.7934727,27.0575009 42.7934727,27.226821 L42.7934727,29.9207399 L43.1317328,29.9207399 C43.3509051,29.9207399 43.4604913,30.0153134 43.4604913,30.204587 C43.4604913,30.4037424 43.3509051,30.5033201 43.1317328,30.5033201 L41.7672903,30.5033201 C41.6710065,30.5033201 41.5905589,30.4776656 41.5259474,30.4261664 C41.4613359,30.3747306 41.4290301,30.3025178 41.4290301,30.2095279 C41.4290301,30.017087 41.5398832,29.9207399 41.7622227,29.9207399 L42.1505251,29.9207399" id="Fill-32" fill="#CC15A7"></path>
                    <path d="M71.1243426,40.9038691 L45.1384896,40.9038691 C44.8718089,40.9038691 44.6539034,40.6859637 44.6539034,40.4186495 L44.6539034,40.1703387 C44.6539034,39.903658 44.8718089,39.6851191 45.1384896,39.6851191 L71.1243426,39.6851191 C71.3910234,39.6851191 71.6095622,39.903658 71.6095622,40.1703387 L71.6095622,40.4186495 C71.6095622,40.6859637 71.3910234,40.9038691 71.1243426,40.9038691" id="Fill-33" fill="#DBBEF5"></path>
                    <path d="M61.0671214,42.9549671 L45.0365048,42.9549671 C44.8262007,42.9549671 44.6539034,42.7826698 44.6539034,42.5717323 L44.6539034,42.1188184 C44.6539034,41.9078809 44.8262007,41.7355836 45.0365048,41.7355836 L61.0671214,41.7355836 C61.2774254,41.7355836 61.4497227,41.9078809 61.4497227,42.1188184 L61.4497227,42.5717323 C61.4497227,42.7826698 61.2774254,42.9549671 61.0671214,42.9549671" id="Fill-34" fill="#DBBEF5"></path>
                    <path d="M43.5118004,42.7060228 C43.5118004,42.8719857 43.3958798,42.9549671 43.1640386,42.9549671 L41.7210487,42.9549671 C41.512645,42.9549671 41.4081264,42.8713522 41.4081264,42.7041225 C41.4081264,42.650913 41.435998,42.5894688 41.4917413,42.5191563 C41.5740893,42.4254063 41.694444,42.2841478 41.8528055,42.0966478 C42.0935149,41.7944941 42.2943173,41.5335144 42.455846,41.3130752 C42.5115893,41.2402289 42.59077,41.1287424 42.6933882,40.9786157 C42.77827,40.8291225 42.8207109,40.7030668 42.8207109,40.6004485 C42.8207109,40.4857948 42.783971,40.3914113 42.7111247,40.3166647 C42.637645,40.2419181 42.543895,40.2045448 42.4292413,40.2045448 C42.3177548,40.2045448 42.2208376,40.2393843 42.1384896,40.3096968 C42.0827464,40.3572053 42.0390386,40.4446208 42.0067328,40.5738438 C41.9655589,40.7410735 41.9395876,40.8379907 41.9275521,40.8645955 C41.8838443,40.9583455 41.8116315,41.0052205 41.7121805,41.0052205 C41.6241315,41.0052205 41.5550859,40.9729147 41.5050436,40.9083032 C41.4581686,40.85256 41.4347311,40.7790803 41.4347311,40.6884975 C41.4347311,40.5858793 41.4505673,40.4813607 41.482873,40.3762086 C41.553819,40.1500684 41.6779744,39.9771377 41.8572396,39.856783 C42.0270031,39.7421293 42.2341399,39.6851191 42.4773832,39.6851191 C42.7446974,39.6851191 42.9676703,39.7662002 43.1463021,39.9277289 C43.3312683,40.0981259 43.4237514,40.3153978 43.4237514,40.5795448 C43.4237514,40.7765465 43.357873,40.9792492 43.2254828,41.1882863 C43.1526366,41.3029401 43.001243,41.5056428 42.772569,41.7963945 C42.6553815,41.9465211 42.4704153,42.1637931 42.2183038,42.4488438 L43.1684727,42.4488438 C43.3971467,42.4488438 43.5118004,42.534359 43.5118004,42.7060228" id="Fill-35" fill="#DBBEF5"></path>
                    <path d="M71.1243426,51.6122728 L45.1384896,51.6122728 C44.8718089,51.6122728 44.6539034,51.393734 44.6539034,51.1270532 L44.6539034,50.878109 C44.6539034,50.6114282 44.8718089,50.3928894 45.1384896,50.3928894 L71.1243426,50.3928894 C71.3910234,50.3928894 71.6095622,50.6114282 71.6095622,50.878109 L71.6095622,51.1270532 C71.6095622,51.393734 71.3910234,51.6122728 71.1243426,51.6122728" id="Fill-36" fill="#DBBEF5"></path>
                    <path d="M61.0671214,53.6627374 L45.0365048,53.6627374 C44.8262007,53.6627374 44.6539034,53.4904401 44.6539034,53.280136 L44.6539034,52.8265887 C44.6539034,52.6162847 44.8262007,52.4439874 45.0365048,52.4439874 L61.0671214,52.4439874 C61.2774254,52.4439874 61.4497227,52.6162847 61.4497227,52.8265887 L61.4497227,53.280136 C61.4497227,53.4904401 61.2774254,53.6627374 61.0671214,53.6627374" id="Fill-37" fill="#DBBEF5"></path>
                    <path d="M43.5118004,52.6416225 C43.5118004,52.9532779 43.4022143,53.2041225 43.1836754,53.3928894 C42.9765386,53.572788 42.714292,53.6627374 42.3963021,53.6627374 C42.1505251,53.6627374 41.940221,53.6044603 41.7666568,53.4872728 C41.4904744,53.3016732 41.3523832,53.0780668 41.3523832,52.817087 C41.3523832,52.7423404 41.3764541,52.6777289 41.424596,52.623886 C41.4727379,52.5700431 41.5341822,52.5428049 41.6089288,52.5428049 C41.6868426,52.5428049 41.7603224,52.5953809 41.829368,52.6998995 C41.940221,52.8740972 42.0048325,52.9703809 42.0232024,52.9881174 C42.12202,53.0932695 42.2493426,53.145212 42.4051703,53.145212 C42.6154744,53.145212 42.7649676,53.0672982 42.854917,52.9114705 C42.8967244,52.8335566 42.9182616,52.734739 42.9182616,52.6143843 C42.9182616,52.3210988 42.7453308,52.1576698 42.4007362,52.1247306 C42.2056349,52.1063607 42.1080842,52.0240127 42.1080842,51.8770532 C42.1080842,51.7693674 42.1650943,51.6927205 42.2778477,51.6477458 C42.4894186,51.569832 42.5971045,51.5292914 42.5996382,51.5261242 C42.7130251,51.4513776 42.7694018,51.3208877 42.7694018,51.1346546 C42.7694018,51.0238015 42.7364626,50.936386 42.6712176,50.8717745 C42.6053393,50.807163 42.5172903,50.7748573 42.4064372,50.7748573 C42.2689795,50.7748573 42.1612936,50.8077965 42.0840132,50.8736749 C42.0181349,50.930685 41.9623916,51.0282357 41.9180504,51.1663269 C41.881944,51.2714789 41.8135318,51.3234215 41.711547,51.3234215 C41.6399676,51.3234215 41.5810572,51.2923826 41.5348156,51.229038 C41.4885741,51.1663269 41.4651366,51.0972813 41.4651366,51.0225347 C41.4651366,50.9294181 41.4904744,50.8363015 41.5417835,50.743185 C41.6253984,50.5873573 41.7546214,50.4663691 41.9281855,50.3789536 C42.0871805,50.2978725 42.2613781,50.2579654 42.450145,50.2579654 C42.7047903,50.2579654 42.9169947,50.3346124 43.0867582,50.4891732 C43.2558882,50.643734 43.34077,50.8470701 43.34077,51.0985482 C43.34077,51.4019688 43.2147143,51.6414113 42.9632362,51.8187762 C43.3287345,51.9657357 43.5118004,52.2400178 43.5118004,52.6416225" id="Fill-38" fill="#DBBEF5"></path>
                    <path d="M68.0977379,17.3970068 L51.9093933,17.3970068 C51.6325774,17.3970068 51.4058038,17.1702965 51.4058038,16.8931005 L51.4058038,16.4847813 C51.4058038,16.2077754 51.6325774,15.9809384 51.9093933,15.9809384 L68.0977379,15.9809384 C68.3745538,15.9809384 68.6013274,16.2077754 68.6013274,16.4847813 L68.6013274,16.8931005 C68.6013274,17.1702965 68.3745538,17.3970068 68.0977379,17.3970068" id="Fill-39" fill="#B980EC"></path>
                    <path d="M72.3190217,19.5802416 L47.688743,19.5802416 C47.3485825,19.5802416 47.0704997,19.3022222 47.0704997,18.9623784 L47.0704997,18.7822897 C47.0704997,18.4423826 47.3485825,18.1642365 47.688743,18.1642365 L72.3190217,18.1642365 C72.6585487,18.1642365 72.9366315,18.4423826 72.9366315,18.7822897 L72.9366315,18.9623784 C72.9366315,19.3022222 72.6585487,19.5802416 72.3190217,19.5802416" id="Fill-40" fill="#B980EC"></path>
                    <path d="M58.1051281,34.6399122 C52.7670791,34.6399122 47.7014119,33.9700431 43.9254406,33.0126529 C40.1101957,32.0453809 38.055297,30.4644265 38.055297,29.0621673 C38.055297,27.7912847 39.7294947,26.6223869 42.8979913,25.6819097 C39.8618849,26.5832399 38.2377295,27.9067619 38.2377295,29.0621673 C38.2377295,30.3443252 40.3426703,31.6134341 44.0128561,32.5439662 C47.7761585,33.4979992 52.7803815,34.0234426 58.1051281,34.0234426 C63.4292413,34.0234426 68.4340977,33.4979992 72.1967666,32.5439662 C75.8669524,31.6134341 77.9718933,30.3443252 77.9718933,29.0621673 C77.9718933,27.7043759 75.7554659,26.0168759 72.1872649,24.658261 C68.1306771,23.113413 63.1289879,22.5402711 58.1051281,22.5402711 C48.6724845,22.5402711 44.7900943,23.6413902 41.4207953,25.0211622 C44.8046636,23.6353725 48.6395453,22.0647433 58.1051281,22.0647433 C63.1492582,22.0647433 68.1718511,22.9195152 72.2480757,24.4715211 C75.8916568,25.8588945 78.1549592,27.6178472 78.1549592,29.0621673 C78.1549592,30.4644265 76.053819,31.7693252 72.2385741,32.7366605 C68.4626028,33.6940507 63.4431771,34.6399122 58.1051281,34.6399122" id="Fill-41" fill="#CC15A7"></path>
                    <path d="M90.5204575,47.1534468 C90.5204575,47.1534468 90.3443595,48.862484 90.151792,49.1855414 C89.9585909,49.5092323 89.137645,50.5417492 88.7879828,50.7444519 C88.4383207,50.9471546 89.0014541,49.38381 88.9305082,49.0791225 C88.8589288,48.7750684 88.6422903,49.6346546 88.4883629,49.6549249 C88.3338021,49.6751951 88.3737092,48.9011242 88.3680082,48.6198742 C88.3623072,48.3379907 89.1180082,47.6431005 89.3846889,47.0438607 C89.6507362,46.4446208 90.5204575,47.1534468 90.5204575,47.1534468" id="Fill-42" fill="#EFBBBB"></path>
                    <path d="M69.5255251,31.3925515 L69.1327886,30.6516098 C69.1327886,30.6516098 69.3278899,29.3310651 67.6733291,28.4958032 C67.6733291,28.4958032 67.0683882,28.2495828 66.7269609,28.7427838 C66.4127717,29.1970912 67.3262007,29.1149966 67.2774254,29.8921081 C67.2280166,30.6692196 67.5973156,31.1252374 68.1104068,31.3783624 L68.5348156,31.8699798 L69.5255251,31.3925515" id="Fill-43" fill="#EFBBBB"></path>
                    <path d="M85.1615048,29.6210566 C85.1615048,29.6210566 83.7406855,36.5945363 75.9220622,38.8736749 C73.4807616,39.5850347 67.9362092,31.5490127 67.9362092,31.5490127 C67.9362092,31.5490127 68.1306771,30.8081977 69.3519609,30.9784046 C69.3519609,30.9784046 74.7514541,34.55275 75.4311416,34.9411157 C76.0341822,35.2855836 80.0008207,30.5120617 81.8086754,29.7419814 C83.6171636,28.9720279 85.1615048,29.6210566 85.1615048,29.6210566" id="Fill-44" fill="#B980EC"></path>
                    <polyline id="Fill-45" fill="#292949" points="71.6165301 29.3648277 71.3948241 30.8083244 64.1336332 29.6930794 64.3553393 28.2495828 71.6165301 29.3648277"></polyline>
                    <polyline id="Fill-46" fill="#CC15A7" points="62.5563528 28.7120617 64.1336332 29.6930794 64.3553393 28.2495828 62.5563528 28.7120617"></polyline>
                    <path d="M72.3874339,29.9733159 L72.3171214,30.4297137 C72.274047,30.7103936 72.011167,30.9029612 71.7305504,30.8598869 L71.3948241,30.8083244 L71.6165301,29.3648277 L71.9820284,29.420951 C72.2461754,29.4616183 72.4279744,29.7089156 72.3874339,29.9733159" id="Fill-47" fill="#CC15A7"></path>
                    <path d="M94.4965977,73.4610904 C94.4965977,73.4610904 95.4664034,74.3460144 95.2776366,74.9750262 C95.0882362,75.604038 94.2128139,76.0233793 94.0943595,76.7917492 C93.9765386,77.5607526 93.5033545,77.9800938 93.0770453,77.9800938 C92.6513697,77.9800938 91.0468511,77.9800938 91.0468511,77.9800938 C91.0468511,77.9800938 90.7332953,77.4391309 91.4902632,77.2763353 C92.2478646,77.1129063 92.5329153,76.2096124 92.4860403,75.3709299 C92.4385318,74.5322475 92.5569862,73.4142154 92.5569862,73.4142154 L94.1653055,73.0417492 L94.4965977,73.4610904" id="Fill-48" fill="#292949"></path>
                    <path d="M82.5966822,75.750364 C82.5966822,75.750364 82.7702464,77.7647222 82.3445707,77.9743928 L76.8950352,77.9636242 C76.8950352,77.9636242 76.8950352,77.3346124 77.7698241,77.1946208 C78.6452464,77.0546293 80.1832531,76.5421715 80.4435994,75.4007019 C80.7039457,74.2592323 82.5966822,75.750364 82.5966822,75.750364" id="Fill-49" fill="#292949"></path>
                    <path d="M77.9953308,47.2921715 C77.9953308,47.2921715 78.2829153,50.8236326 78.620542,55.0683539 C79.0797903,60.8346124 79.6321551,67.9178049 79.6866315,69.2594434 C79.7810149,71.5898911 80.1598156,75.317087 80.1598156,75.317087 C80.1598156,75.317087 81.0586754,76.202011 82.8570284,75.8289113 C82.8570284,75.8289113 84.4596467,70.5085988 84.9176281,64.8791647 C84.924596,64.7873151 84.9315639,64.6941985 84.9385318,64.601082 C85.3648409,58.8702965 86.026792,46.8031512 86.026792,46.8031512 L77.9953308,47.2921715" id="Fill-50" fill="#530E8F"></path>
                    <path d="M79.3078308,47.7115127 C79.3078308,47.7115127 84.4894186,60.5007863 87.8960909,66.5109215 C91.3027632,72.5216901 92.3675859,74.1984215 92.3675859,74.1984215 C92.3675859,74.1984215 94.3192328,73.4300515 94.4965977,72.9055583 C94.4965977,72.9055583 93.1935994,61.3027289 90.9125605,58.4743928 C89.623498,56.8762086 88.1089288,52.0797559 88.0379828,50.4023911 C87.9670369,48.7250262 87.5768342,45.405136 87.5768342,45.405136 L79.3078308,47.7115127" id="Fill-52" fill="#670CB6"></path>
                    <path d="M86.1249761,28.0024755 C86.1249761,28.0024755 82.6194862,29.6940296 80.5981602,29.066348 C80.5981602,29.066348 81.0954153,28.4388564 81.9664034,27.9718801 C81.8960909,27.5662213 81.842248,27.2141521 81.8105757,26.9156723 C81.7250605,26.2267365 81.7250605,25.8364705 81.7250605,25.8364705 L83.0774676,24.772598 L84.3601957,23.7546504 C84.2594778,26.6171293 86.1249761,28.0024755 86.1249761,28.0024755" id="Fill-53" fill="#EFBBBB"></path>
                    <path d="M87.9721045,46.0607526 C87.9803393,46.2748573 87.5217244,46.5200009 87.3196551,46.6118505 C85.8190217,47.2700009 84.4197396,47.7292492 82.8342244,47.8819097 C80.9611247,48.0732103 78.7453308,47.6526022 77.9839288,47.6678049 C77.9060149,47.6678049 77.8363359,47.6373995 77.7742582,47.5835566 C77.7197818,47.5455499 77.6805082,45.2873151 77.7197818,42.4482103 C77.7197818,42.3329232 77.7197818,42.2182695 77.7273832,42.1036157 L77.7273832,42.0649755 C77.7432193,40.9551782 77.7818595,39.7921715 77.8363359,38.6285313 C77.9452886,36.0721968 78.1467244,33.6076487 78.4887852,32.2452965 C78.9011585,30.6379907 79.8335909,29.5741183 80.6811416,28.8010608 L81.3804659,28.1887086 C82.0804237,28.3265465 82.8183882,28.2882863 83.5569862,27.9286157 C84.3652632,27.5381597 85.2362514,27.1172348 85.376243,27.2242872 C86.4334643,27.9973446 87.1486247,29.7348235 87.5293257,31.9544814 C87.7465977,33.232712 87.8555504,34.6639831 87.8479491,36.1640465 C87.8479491,36.7148911 87.8321129,37.2818252 87.8010741,37.8405245 C87.6148409,40.8709299 87.8010741,43.5041647 87.9100268,45.0269688 C87.9410656,45.4710144 87.9645031,45.815609 87.9721045,46.0607526" id="Fill-54" fill="#B980EC"></path>
                    <path d="M84.3836332,24.8491183 C84.3836332,24.8491183 83.4974423,26.4640254 81.8105757,26.9156723 C81.7250605,26.2267365 81.7250605,25.8364705 81.7250605,25.8364705 L83.0774676,24.772598 L84.3836332,24.8491183" id="Fill-56" fill="#E5ABAB"></path>
                    <path d="M81.1087176,25.7897855 C81.1087176,25.7897855 84.4526788,26.3368294 84.766868,24.2809173 C85.0804237,22.2249418 85.7240048,20.9108581 83.6019609,20.4747939 C81.479917,20.0385397 80.9440217,20.7614282 80.6697396,21.4225558 C80.3954575,22.0837466 80.2465977,25.5945575 81.1087176,25.7897855" id="Fill-57" fill="#EFBBBB"></path>
                    <path d="M85.9824507,20.2285735 C86.0128561,20.1937973 86.0825352,20.1657357 86.2383629,20.1571841 C86.2383629,20.1571841 86.1142075,20.0792703 85.9476112,20.0751529 C85.914672,19.8585144 85.7993849,19.4748995 85.4262852,19.3817196 C85.4262852,19.3817196 85.6270876,19.488582 85.6530589,19.7189662 C85.2210487,19.2753007 84.2955842,18.95237 81.7326619,19.1547559 C78.3551281,19.42131 79.4680926,21.5839578 79.9051703,21.8418336 C80.3428815,22.0995828 81.4431771,21.3928472 82.258422,21.4574586 C83.0730335,21.5221335 83.2275943,22.6994561 83.5044102,22.8609848 C83.7805926,23.0225135 83.6716399,22.7368928 84.0460065,22.567826 C84.4197396,22.3988227 84.4552126,23.0185228 84.3475268,23.4213945 C84.2392075,23.8242661 84.7529322,24.3557906 84.7529322,24.3557906 C84.7529322,24.3557906 84.7529322,24.3557906 85.2723578,23.7965211 C85.7917835,23.2373151 86.2814372,20.8686706 86.0451619,20.3638142 C86.0242582,20.3190929 86.0033545,20.2739916 85.9824507,20.2285735" id="Fill-58" fill="#292949"></path>
                    <path d="M85.3743426,27.2073742 C85.3743426,27.2073742 87.4906855,28.209359 88.5048325,29.7497728 C90.0789457,32.1391309 91.90327,40.8474924 91.9368426,41.6538691 C91.9704153,42.4602458 90.6053393,48.1530245 90.6053393,48.1530245 C90.6053393,48.1530245 89.2206264,48.0618083 88.8633629,47.3631174 C88.8633629,47.3631174 89.1401788,41.5138776 88.9647143,41.1376107 C88.7898832,40.7613438 83.1927548,33.2912424 83.8224001,31.6971124 C84.4514119,30.1030456 85.3743426,27.2073742 85.3743426,27.2073742" id="Fill-59" fill="#B980EC"></path>
                    <path d="M69.1258207,30.6163902 C69.1258207,30.6163902 69.2404744,30.1618928 68.9250183,29.9576064 C68.6101957,29.7532568 68.3200774,29.1976613 68.1870538,29.2729147 C67.9115048,29.4288058 68.3378139,29.9136453 68.2599001,30.5183961 C68.2326619,30.7301571 68.7254828,31.2850558 69.1258207,30.6163902" id="Fill-60" fill="#EFBBBB"></path>
                    <path d="M72.9581686,63.9410313 L42.8270453,63.9410313 C42.6249761,63.9410313 42.4602801,63.7763353 42.4602801,63.5742661 C42.4602801,63.3728303 42.6249761,63.2081343 42.8270453,63.2081343 L72.9581686,63.2081343 C73.1596045,63.2081343 73.3249339,63.3728303 73.3249339,63.5742661 C73.3249339,63.7763353 73.1596045,63.9410313 72.9581686,63.9410313" id="Fill-65" fill="#DBBEF5"></path>
                    <path d="M72.9581686,65.4087255 L42.8270453,65.4087255 C42.6249761,65.4087255 42.4602801,65.2440296 42.4602801,65.0419603 C42.4602801,64.8405245 42.6249761,64.6758286 42.8270453,64.6758286 L72.9581686,64.6758286 C73.1596045,64.6758286 73.3249339,64.8405245 73.3249339,65.0419603 C73.3249339,65.2440296 73.1596045,65.4087255 72.9581686,65.4087255" id="Fill-66" fill="#DBBEF5"></path>
                    <path d="M72.9581686,67.0354147 L42.8270453,67.0354147 C42.6249761,67.0354147 42.4602801,66.8707188 42.4602801,66.6686495 C42.4602801,66.4672137 42.6249761,66.3018843 42.8270453,66.3018843 L72.9581686,66.3018843 C73.1596045,66.3018843 73.3249339,66.4672137 73.3249339,66.6686495 C73.3249339,66.8707188 73.1596045,67.0354147 72.9581686,67.0354147" id="Fill-67" fill="#DBBEF5"></path>
                    <path d="M69.0022987,68.6621039 L42.8023409,68.6621039 C42.6142075,68.6621039 42.4602801,68.5075431 42.4602801,68.3194097 L42.4602801,68.2706343 C42.4602801,68.0825009 42.6142075,67.9285735 42.8023409,67.9285735 L69.0022987,67.9285735 C69.1904322,67.9285735 69.344993,68.0825009 69.344993,68.2706343 L69.344993,68.3194097 C69.344993,68.5075431 69.1904322,68.6621039 69.0022987,68.6621039" id="Fill-68" fill="#DBBEF5"></path>
                </g>
            </g>
        </g>
    </g>
</svg>