<?xml version="1.0" encoding="UTF-8"?>
<svg width="16px" height="16px" viewBox="0 0 16 16" version="1.1" xmlns="http://www.w3.org/2000/svg" xmlns:xlink="http://www.w3.org/1999/xlink">
    <!-- Generator: sketchtool 63 (101010) - https://sketch.com -->
    <title>A3370BD2-34EB-4258-A0E5-0670E3132095</title>
    <desc>Created with sketchtool.</desc>
    <g id="Credit-Factors" stroke="none" stroke-width="1" fill="none" fill-rule="evenodd">
        <g id="Assets" transform="translate(-369.000000, -406.000000)" fill="#D72716">
            <g id="90+-days-late" transform="translate(369.000000, 406.000000)">
                <path d="M8,0 C12.416,0 16,3.584 16,8 C16,12.416 12.416,16 8,16 C3.584,16 0,12.416 0,8 C0,3.584 3.584,0 8,0 Z M8,1.33333333 C4.32,1.33333333 1.33333333,4.32 1.33333333,8 C1.33333333,11.68 4.32,14.6666667 8,14.6666667 C11.68,14.6666667 14.6666667,11.68 14.6666667,8 C14.6666667,4.32 11.68,1.33333333 8,1.33333333 Z" id="Combined-Shape"></path>
                <path d="M7.98454054,10.9556757 C8.43233899,10.9556757 8.79535135,11.318688 8.79535135,11.7664865 C8.79535135,12.2142849 8.43233899,12.5772973 7.98454054,12.5772973 C7.53674209,12.5772973 7.17372973,12.2142849 7.17372973,11.7664865 C7.17372973,11.318688 7.53674209,10.9556757 7.98454054,10.9556757 Z M7.98454054,3.33405405 C8.43232432,3.33405405 8.79535135,3.69708108 8.79535135,4.14486486 L8.79535135,4.14486486 L8.79535135,8.41513514 C8.79535135,8.86291892 8.43232432,9.22594595 7.98454054,9.22594595 C7.53675676,9.22594595 7.17372973,8.86291892 7.17372973,8.41513514 L7.17372973,8.41513514 L7.17372973,4.14486486 C7.17372973,3.69708108 7.53675676,3.33405405 7.98454054,3.33405405 Z" id="Combined-Shape" fill-rule="nonzero"></path>
            </g>
        </g>
    </g>
</svg>