<?xml version="1.0" encoding="UTF-8"?>
<svg width="126px" height="104px" viewBox="0 0 126 104" version="1.1" xmlns="http://www.w3.org/2000/svg" xmlns:xlink="http://www.w3.org/1999/xlink">
    <!-- Generator: sketchtool 59.1 (101010) - https://sketch.com -->
    <title>F27876A4-6072-4729-9C3A-D6D488DCF6C5</title>
    <desc>Created with sketchtool.</desc>
    <g id="Gmail-Activication---Desktop" stroke="none" stroke-width="1" fill="none" fill-rule="evenodd">
        <g id="Cibil---unable-to-build" transform="translate(-657.000000, -187.000000)" fill="#FFFFFF">
            <g id="Group-14-Copy" transform="translate(520.000000, 150.000000)">
                <g id="Group-15" transform="translate(137.000000, 37.000000)">
                    <g id="info" transform="translate(31.000000, 27.000000)" fill-rule="nonzero">
                        <path d="M54.627375,9.37275 C48.583375,3.3285 40.547625,0 32,0 C23.452375,0 15.416625,3.3285 9.37275,9.37275 C3.3285,15.416625 0,23.452375 0,32 C0,40.547625 3.3285,48.583375 9.37275,54.627375 C15.416625,60.6715 23.452375,64 32,64 C40.547625,64 48.583375,60.6715 54.627375,54.627375 C60.6715,48.583375 64,40.547625 64,32 C64,23.452375 60.6715,15.416625 54.627375,9.37275 Z M32,61 C16.009393,61 3,47.9907301 3,32 C3,16.0092699 16.009393,3 32,3 C47.990607,3 61,16.009393 61,32 C61,47.990607 47.990607,61 32,61 Z" id="Shape"></path>
                        <path d="M56.766375,36.266375 C56.083375,36.092375 55.389875,36.50475 55.216375,37.18725 C54.50525,39.97975 53.321625,42.609375 51.698625,45.00325 C51.3035,45.586125 51.45575,46.37875 52.0385,46.774 C52.257625,46.9225 52.5065,46.99375 52.752875,46.99375 C53.161375,46.99375 53.562875,46.79775 53.80925,46.434 C55.598375,43.79525 56.903125,40.89575 57.68725,37.8165 C57.861,37.134125 57.448875,36.44 56.766375,36.266375 Z" id="Shape"></path>
                        <path d="M57.263,29.725125 C56.559,29.725125 55.988125,30.296 55.988125,31 C55.988125,31.364375 55.98025,31.731875 55.964625,32.092375 C55.934125,32.795875 56.47975,33.39075 57.18325,33.421125 C57.202,33.422 57.220625,33.422375 57.23925,33.422375 C57.918,33.422375 58.482375,32.887125 58.512,32.2025 C58.52925,31.8055 58.537875,31.401 58.537875,31 C58.537875,30.296 57.967,29.725125 57.263,29.725125 Z" id="Shape"></path>
                        <path d="M32,9.609625 C29.539625,9.609625 27.537875,11.611375 27.537875,14.07175 L27.537875,36.255 C27.537875,38.715375 29.539625,40.717125 32,40.717125 C34.460375,40.717125 36.462125,38.715375 36.462125,36.255 L36.462125,14.07175 C36.462125,11.61125 34.460375,9.609625 32,9.609625 Z M33.912375,36.255 C33.912375,37.3095 33.0545,38.167375 32,38.167375 C30.9455,38.167375 30.087625,37.3095 30.087625,36.255 L30.087625,14.07175 C30.087625,13.01725 30.9455,12.159375 32,12.159375 C33.0545,12.159375 33.912375,13.01725 33.912375,14.07175 L33.912375,36.255 Z" id="Shape"></path>
                        <path d="M35.154375,45.588375 C34.322875,44.758625 33.173,44.282875 32,44.282875 C30.826875,44.282875 29.677,44.758625 28.84425,45.5895 C28.014,46.42 27.537875,47.57 27.537875,48.745 C27.537875,49.918 28.013625,51.067875 28.845375,51.901375 C29.676875,52.73125 30.82675,53.207125 32,53.207125 C33.173125,53.207125 34.323,52.73125 35.156375,51.8995 C35.98625,51.068 36.462125,49.918125 36.462125,48.745 C36.462125,47.57 35.986,46.419875 35.154375,45.588375 Z M33.353375,50.096625 C32.996125,50.452875 32.502875,50.657375 32,50.657375 C31.49675,50.657375 31.0035,50.452875 30.648375,50.098625 C30.292125,49.741375 30.087625,49.248 30.087625,48.745125 C30.087625,48.241125 30.29175,47.748125 30.64625,47.3935 C31.0035,47.03725 31.496875,46.83275 32,46.83275 C32.503,46.83275 32.996375,47.03725 33.352375,47.3925 C33.70825,47.748375 33.9122501,48.24125 33.9122501,48.745 C33.912375,49.248125 33.707875,49.741375 33.353375,50.096625 Z" id="Shape"></path>
                    </g>
                    <path d="M100.808967,5.61403509 C102.356725,5.61403509 103.615984,4.35477583 103.615984,2.80701754 C103.615984,1.25925926 102.356725,7.99360578e-14 100.808967,7.99360578e-14 C99.2612086,7.99360578e-14 98.0019493,1.25925926 98.0019493,2.80701754 C98.0019493,4.35477583 99.2612086,5.61403509 100.808967,5.61403509 Z M100.808967,1.87134503 C101.325049,1.87134503 101.744639,2.29093564 101.744639,2.80701754 C101.744639,3.32309945 101.325049,3.74269006 100.808967,3.74269006 C100.292885,3.74269006 99.8732943,3.32309945 99.8732943,2.80701754 C99.8732943,2.29093564 100.292885,1.87134503 100.808967,1.87134503 Z" id="Shape" fill-rule="nonzero"></path>
                    <polygon id="+" points="120 35 116 35 116 33 120 33 120 29 122 29 122 33 126 33 126 35 122 35 122 39 120 39"></polygon>
                    <path d="M14.8089669,103.791423 C16.3567251,103.791423 17.6159844,102.532164 17.6159844,100.984405 C17.6159844,99.4361599 16.3567251,98.1773879 14.8089669,98.1773879 C13.2612086,98.1773879 12.0019493,99.4361599 12.0019493,100.984405 C12.0019493,102.532164 13.2612086,103.791423 14.8089669,103.791423 Z M14.8089669,100.048733 C15.3250488,100.048733 15.7446394,100.468324 15.7446394,100.984405 C15.7446394,101.5 15.3250488,101.920078 14.8089669,101.920078 C14.292885,101.920078 13.8732943,101.5 13.8732943,100.984405 C13.8732943,100.468324 14.292885,100.048733 14.8089669,100.048733 Z" id="Shape" fill-rule="nonzero"></path>
                    <path d="M2.87280705,36.0380116 C4.42056533,36.0380116 5.67982459,34.7787524 5.67982459,33.2309941 C5.67982459,31.6832358 4.42056533,30.4239765 2.87280705,30.4239765 C1.32504876,30.4239765 0.0657895049,31.6832358 0.0657895049,33.2309941 C0.0657895049,34.7787524 1.32504876,36.0380116 2.87280705,36.0380116 Z M2.87280705,32.2953216 C3.38888883,32.2953216 3.80847956,32.7149123 3.80847956,33.2309941 C3.80847956,33.747076 3.38888883,34.1666666 2.87280705,34.1666666 C2.35672515,34.1666666 1.93713453,33.747076 1.93713453,33.2309941 C1.93713453,32.7149123 2.35672515,32.2953216 2.87280705,32.2953216 Z" id="Shape" fill-rule="nonzero"></path>
                    <path d="M111.872807,96.0380116 C113.420565,96.0380116 114.679825,94.7787524 114.679825,93.2309941 C114.679825,91.6832358 113.420565,90.4239765 111.872807,90.4239765 C110.325049,90.4239765 109.06579,91.6832358 109.06579,93.2309941 C109.06579,94.7787524 110.325049,96.0380116 111.872807,96.0380116 Z M111.872807,92.2953216 C112.388889,92.2953216 112.80848,92.7149123 112.80848,93.2309941 C112.80848,93.747076 112.388889,94.1666666 111.872807,94.1666666 C111.356725,94.1666666 110.937135,93.747076 110.937135,93.2309941 C110.937135,92.7149123 111.356725,92.2953216 111.872807,92.2953216 Z" id="Shape" fill-rule="nonzero"></path>
                </g>
            </g>
        </g>
    </g>
</svg>