<?xml version="1.0" encoding="UTF-8"?>
<svg width="146px" height="215px" viewBox="0 0 146 215" version="1.1" xmlns="http://www.w3.org/2000/svg" xmlns:xlink="http://www.w3.org/1999/xlink">
    <title>B7F73064-90A6-44DC-B5A6-BC7D9849E58C</title>
    <defs>
        <polygon id="path-1" points="0.473374017 0.00153181938 14.5952894 0.00153181938 14.5952894 9.55287832 0.473374017 9.55287832"></polygon>
        <polygon id="path-3" points="0.173276967 0.00786172335 16.3750717 0.00786172335 16.3750717 28.8967258 0.173276967 28.8967258"></polygon>
        <path d="M34.7819259,26.11208 L2.36842105,26.11208 C1.06037822,26.11208 1.45876296e-15,25.0517018 0,23.743659 L0,1.91264264 L0,1.91264264 C0,0.929084895 0.825046101,0.131938904 1.84377909,0.131938904 L35.3065679,0.131938904 C36.3245502,0.131938904 37.150347,0.929084895 37.150347,1.91264264 L37.150347,23.743659 C37.150347,25.0517018 36.0899688,26.11208 34.7819259,26.11208 Z" id="path-5"></path>
        <filter x="-37.7%" y="-38.5%" width="175.4%" height="207.8%" filterUnits="objectBoundingBox" id="filter-6">
            <feMorphology radius="3" operator="erode" in="SourceAlpha" result="shadowSpreadOuter1"></feMorphology>
            <feOffset dx="0" dy="4" in="shadowSpreadOuter1" result="shadowOffsetOuter1"></feOffset>
            <feGaussianBlur stdDeviation="7" in="shadowOffsetOuter1" result="shadowBlurOuter1"></feGaussianBlur>
            <feColorMatrix values="0 0 0 0 0   0 0 0 0 0   0 0 0 0 0  0 0 0 0.0405922203 0" type="matrix" in="shadowBlurOuter1"></feColorMatrix>
        </filter>
        <polygon id="path-7" points="0 0.148512868 37.150347 0.148512868 37.150347 5.91676897 0 5.91676897"></polygon>
    </defs>
    <g id="Final" stroke="none" stroke-width="1" fill="none" fill-rule="evenodd">
        <g id="notice-an-error-pop-up" transform="translate(-767.000000, -100.000000)">
            <g id="Group-14-Copy-2" transform="translate(660.000000, 100.000000)">
                <g id="Group-13" transform="translate(107.000000, 0.000000)">
                    <rect id="Rectangle" fill="#FFEECD" x="0" y="0" width="146" height="171"></rect>
                    <g id="Group-10" transform="translate(11.000000, 37.000000)">
                        <g id="Group-100" transform="translate(61.633434, 98.286344) scale(-1, 1) translate(-61.633434, -98.286344) translate(0.133434, 17.786344)">
                            <polygon id="Fill-1" fill="#76D3F0" points="68.0232174 131.633158 36.1527736 103.584003 36.6117017 103.062673 68.4821455 131.112319"></polygon>
                            <polygon id="Fill-2" fill="#76D3F0" points="30.3081228 125.157702 29.9509057 124.562177 60.0848914 106.498885 60.441617 107.094901"></polygon>
                            <polygon id="Fill-3" fill="#76D3F0" points="64.1652732 105.940997 58.6070348 105.940997 73.9403435 154.385428 79.4975992 154.385428"></polygon>
                            <polygon id="Fill-4" fill="#76D3F0" points="36.8764452 92.3235586 17.2339294 154.385477 22.7916765 154.385477 42.4341923 92.3235586"></polygon>
                            <polygon id="Fill-5" fill="#C6F1FE" points="20.4611669 96.0291327 0.159249034 160.174899 5.71650473 160.174899 26.0189139 96.0291327"></polygon>
                            <polygon id="Fill-6" fill="#C6F1FE" points="35.9769658 96.0291327 56.2783923 160.174899 61.8366307 160.174899 41.5342215 96.0291327"></polygon>
                            <polygon id="Fill-7" fill="#C6F1FE" points="48.2187009 129.97915 19.3008256 103.579483 19.7690895 103.066997 48.6869648 129.466172"></polygon>
                            <polygon id="Fill-8" fill="#C6F1FE" points="13.4630538 125.15672 13.1023973 124.562668 42.0202726 107.021198 42.3809291 107.615249"></polygon>
                            <g id="Group-99" transform="translate(0.000000, 0.483496)">
                                <path d="M76.1824578,98.2128738 C76.1824578,98.2128738 52.7894086,97.3131979 49.1902134,88.615675 C45.5910182,79.9181522 43.7916662,57.1245594 32.3951155,56.2248835 C20.9980735,55.3252075 13.5004462,54.7252597 13.5004462,62.5231066 C13.5004462,70.3204621 8.40211856,95.8135741 23.9973209,99.7124975 C38.6397807,103.373112 58.3048989,110.470283 73.0647932,102.885194 C74.8322068,101.977165 75.984932,100.189606 76.1824578,98.2128738" id="Fill-9" fill="#00A2DD"></path>
                                <path d="M73.4281522,142.195629 C73.0055845,145.337862 72.7245279,147.756816 72.5820342,149.049578 C72.5088219,149.730108 72.4724614,150.098135 72.4724614,150.098135 L76.7708587,151.795285 L77.2489497,150.623397 L79.518531,145.114785 C77.4921718,144.137475 75.4525459,143.18031 73.4281522,142.195629" id="Fill-11" fill="#FA9778"></path>
                                <path d="M77.2894376,150.614454 C77.2894376,150.614454 74.0165039,151.47433 72.6028678,149.022455 L71.780335,150.046936 C71.0614786,150.942189 70.5052617,151.956352 70.1357607,153.043726 L70.0237312,153.373919 L84.0431493,158.136649 C84.3866084,157.125435 84.0583814,156.007596 83.2230733,155.341806 L77.2894376,150.614454 Z" id="Fill-13" fill="#FCB13A"></path>
                                <path d="M56.013747,68.5836108 L92.3511237,77.4649014 C95.1096059,78.1390442 97.6685969,79.539905 99.5824352,81.6380025 C101.783718,84.0525343 103.559484,87.7097097 101.853982,92.6793016 C98.443468,102.618977 79.5635394,147.444558 79.5635394,147.444558 L72.3995439,144.628095 C72.3995439,144.628095 77.4733037,104.939168 84.003939,96.1738376 C84.003939,96.1738376 56.7861614,97.5348985 49.1666774,93.325437 C41.5471934,89.1169582 56.013747,68.5836108 56.013747,68.5836108" id="Fill-15" fill="#1F5B99"></path>
                                <polyline id="Stroke-17" stroke="#0B334C" stroke-width="0.592105263" stroke-linecap="round" stroke-linejoin="round" points="84.3570286 95.0756531 84.0037424 96.2318178 86.2708669 94.5651325"></polyline>
                                <line x1="73.2822681" y1="141.911526" x2="80.3897573" y2="144.467569" id="Stroke-19" stroke="#0B334C" stroke-width="0.592105263" stroke-linecap="round" stroke-linejoin="round"></line>
                                <path d="M107.682614,142.066992 C105.627265,143.404467 103.531133,144.656938 101.391762,145.826861 C104.332538,148.908165 106.637988,151.220986 107.736664,152.311309 C108.195592,152.769254 108.445693,153.012476 108.445693,153.012476 L112.426182,150.664277 L111.752039,149.441779 L107.682614,142.066992 Z" id="Fill-21" fill="#FA9778"></path>
                                <g id="Group-25" transform="translate(107.115981, 147.407313)">
                                    <mask id="mask-2" fill="white">
                                        <use xlink:href="#path-1"></use>
                                    </mask>
                                    <g id="Clip-24"></g>
                                    <path d="M4.53395413,2.06556954 C4.53395413,2.06556954 3.28639691,5.2112416 0.473374017,4.89677266 L0.810936764,6.16644098 C1.10624275,7.27592669 1.59317824,8.3249754 2.2501235,9.26690813 L2.44912337,9.55287832 L14.595486,1.08531091 C13.984237,0.209220113 12.889492,-0.18927099 11.8581321,0.0893288316 L4.53395413,2.06556954 Z" id="Fill-23" fill="#FCB13A" mask="url(#mask-2)"></path>
                                </g>
                                <path d="M30.3031109,63.32741 C30.3031109,63.32741 21.1453927,74.4491533 22.027297,79.960974 C22.9092014,85.4727948 26.4823134,89.5531364 38.2925873,94.7639849 C50.1023699,99.9743421 72.8546886,109.787247 72.8546886,109.787247 C72.8546886,109.787247 91.9596591,140.355101 104.638653,149.559705 L110.02246,145.565459 C110.02246,145.565459 88.1388615,103.88211 85.2732633,100.408702 C82.4076652,96.9348033 60.4370966,80.4350114 60.4370966,80.4350114 L56.2684177,63.5013506 L30.3031109,63.32741 Z" id="Fill-26" fill="#1F5B99"></path>
                                <path d="M55.0813958,77.5984033 C55.0813958,77.5984033 77.7762257,92.7666158 80.4388931,96.2400235" id="Stroke-28" stroke="#0B334C" stroke-width="0.592105263" stroke-linecap="round" stroke-linejoin="round"></path>
                                <polyline id="Stroke-30" stroke="#0B334C" stroke-width="0.592105263" stroke-linecap="round" stroke-linejoin="round" points="73.0284327 108.223796 72.9129636 109.787296 73.8971531 108.513697"></polyline>
                                <path d="M30.3609437,75.658867 C30.3609437,75.658867 29.4927147,81.477525 31.4900838,83.2139832 C33.4874528,84.9509327 75.2572804,103.968933 76.2124798,105.184552 C77.1681705,106.400171 104.609025,147.302261 104.609025,147.302261" id="Stroke-32" stroke="#0B334C" stroke-width="0.592105263" stroke-linecap="round" stroke-linejoin="round"></path>
                                <line x1="108.777605" y1="144.089076" x2="103.393799" y2="148.083814" id="Stroke-34" stroke="#0B334C" stroke-width="0.592105263" stroke-linecap="round" stroke-linejoin="round"></line>
                                <path d="M77.2548952,116.647387 C77.2548952,116.647387 83.8548119,127.502461 86.806889,130.19461" id="Stroke-36" stroke="#0B334C" stroke-width="0.592105263" stroke-linecap="round" stroke-linejoin="round"></path>
                                <line x1="86.7806997" y1="102.708993" x2="93.366367" y2="114.273097" id="Stroke-38" stroke="#0B334C" stroke-width="0.592105263" stroke-linecap="round" stroke-linejoin="round"></line>
                                <path d="M46.7158342,29.0254826 C46.7158342,29.0254826 53.6051607,33.9179313 54.5603601,35.5674192 C55.5155595,37.2178897 59.4813075,51.3439325 59.4813075,51.3439325 L70.2499031,31.109822 L75.8071588,33.1936701 C75.8071588,33.1936701 65.6468641,60.8094474 64.3442748,62.5463969 C63.0421769,64.2828551 56.1818405,66.2802242 51.8397124,61.6776765 C47.4975844,57.0751288 46.7158342,29.0254826 46.7158342,29.0254826" id="Fill-40" fill="#FCB13A"></path>
                                <polyline id="Stroke-42" stroke="#0B334C" stroke-width="0.592105263" stroke-linecap="round" stroke-linejoin="round" points="57.0209321 55.2517004 59.5391403 51.4309028 59.1917504 53.8621408"></polyline>
                                <path d="M71.1402433,29.4563542 L71.1058482,29.539885 C71.068505,29.6204677 71.0291964,29.7035071 70.9923446,29.7850725 C72.330803,30.4950844 73.6122639,31.4001653 74.7944706,32.0689031 C75.1212234,32.2536536 75.4499417,32.4300511 75.7811168,32.5980954 C75.8847933,32.2418611 75.9884698,31.8856267 76.0867413,31.5269356 C76.0882154,31.5205479 76.0901808,31.5136689 76.0916549,31.5077726 C77.2517505,30.2607068 79.7218057,27.5282665 79.4206034,27.1818594 C79.0289913,26.7317757 76.8006841,28.3144389 76.8006841,28.3144389 C76.8006841,28.3144389 80.0765659,25.037083 79.425517,24.5241055 C78.774468,24.0106367 76.2076153,26.8619855 76.2076153,26.8619855 C76.2076153,26.8619855 78.4147942,22.5763635 77.6502416,22.4908673 C76.885689,22.4058624 75.0715963,25.7072949 75.0715963,25.7072949 C75.0715963,25.7072949 76.4257782,21.3740112 75.7388601,21.3268409 C75.0524334,21.2796706 73.0270569,26.5091907 73.0270569,26.5091907 C73.0270569,26.5091907 71.7686898,24.3437772 71.0852112,24.6847795 C70.5555276,24.9496213 70.9658113,28.020607 71.1780778,29.3939518 C71.1613717,29.4136061 71.1530186,29.4376826 71.1402433,29.4563542" id="Fill-44" fill="#FA9778"></path>
                                <path d="M76.0806976,32.2370458 C76.236458,32.3068185 76.3268679,32.470932 76.3003345,32.6389764 C76.1986235,33.2875685 75.919041,34.8520515 75.5323424,35.3070487 C75.1028958,35.8126558 72.0913644,34.1336865 71.3341822,33.6993263 C71.2255921,33.6374152 71.155328,33.5263684 71.1445181,33.4020549 L71.0457552,32.2390112 C71.0457552,32.2390112 70.2929952,33.3386697 70.1190545,33.3386697 C70.0163608,33.3386697 69.6488252,33.1662032 69.3672773,33.0251835 C69.1751564,32.9293688 69.1024354,32.6935171 69.2046378,32.5053271 L70.5013308,30.1168372 C70.5961629,29.9419139 70.8089208,29.8701757 70.9907231,29.951741 L76.0806976,32.2370458 Z" id="Fill-46" fill="#FFFFFF"></path>
                                <path d="M42.1002656,30.6252451 C42.9512972,30.2714675 44.3005654,29.1329917 45.4680313,27.8928048 C45.1000044,27.4810471 44.870049,26.9435017 44.870049,26.3474848 L44.870049,15.6570151 L36.4673408,15.6570151 L36.4673408,26.3474848 C36.4673408,27.2265238 35.9740177,27.9832147 35.2551613,28.3797403 C36.9768788,30.0562528 39.7176721,31.6158222 42.1002656,30.6252451" id="Fill-48" fill="#FA9778"></path>
                                <path d="M44.8732428,22.3925958 L44.8732428,24.1639403 C44.4634505,24.1988267 44.0531668,24.1781897 43.6433745,24.0946589 C41.8302645,23.747269 39.245723,22.9139263 37.6409487,20.9332634 C37.2522848,20.4610686 36.8562504,19.7805382 36.4670951,18.9609535 L36.4670951,18.6897241 C36.6061494,18.9118178 36.7520826,19.1132744 36.8906455,19.287215 C38.4959111,21.2668953 41.0799613,22.1007293 42.8930713,22.4481192 C43.5598437,22.5802944 44.2339865,22.552287 44.8732428,22.3925958" id="Fill-50" fill="#0B334C"></path>
                                <polygon id="Fill-52" fill="#FFFFFF" points="29.8731729 63.0318584 27.5677226 66.7145844 47.1935322 66.7145844 48.9304817 63.8052554 50.2763105 66.9745126 58.135577 66.9745126 55.9642673 63.0667447"></polygon>
                                <path d="M45.4135889,27.7231882 C45.4135889,27.7231882 52.9682137,32.412313 56.1522608,35.4010198 C59.3363079,38.3897266 56.3551424,41.5308311 55.4869133,43.9625605 C54.6181929,46.3937984 50.8843656,53.2541347 52.9682137,57.4223222 C55.0525531,61.591001 56.2686634,63.5009084 56.2686634,63.5009084 L29.4346362,63.5009084 C29.4346362,63.5009084 33.5929965,57.5033962 32.2083505,52.2090169 C32.2083505,52.2090169 26.6560083,66.3669979 19.9691213,65.6722181 C13.2822342,64.9774383 3.9036896,34.062194 3.9036896,34.062194 L9.37446633,31.3705364 L19.7087017,50.7359265 C19.7087017,50.7359265 26.1346778,30.0674558 29.4346362,29.1122564 C32.7345946,28.1575484 35.687163,27.7231882 35.687163,27.7231882 C35.687163,27.7231882 41.2449101,32.1522865 45.4135889,27.7231882 Z" id="Fill-54" fill="#FCB13A"></path>
                                <path d="M35.687163,27.7231882 C35.687163,27.7231882 32.1700246,30.6757566 34.254364,32.9335453 C36.3387034,35.191334 40.8542807,30.1981569 40.8542807,30.1981569 C40.8542807,30.1981569 44.4146587,34.6272553 46.4989981,32.9767848 C48.5828461,31.3268056 45.4135889,27.7231882 45.4135889,27.7231882 C45.4135889,27.7231882 41.8527196,30.6757566 35.687163,27.7231882" id="Fill-56" fill="#FFFFFF"></path>
                                <path d="M34.0950658,51.0833164 C34.0950658,51.0833164 34.4424557,59.332721 31.6633365,62.7196497" id="Stroke-58" stroke="#0B334C" stroke-width="0.592105263" stroke-linecap="round" stroke-linejoin="round"></path>
                                <path d="M55.8918412,62.9805115 C55.8918412,62.9805115 51.2028146,56.3801034 52.5049125,52.3858565 C53.8079932,48.3911184 56.7119946,43.2527678 56.7119946,40.8210385" id="Stroke-60" stroke="#0B334C" stroke-width="0.592105263" stroke-linecap="round" stroke-linejoin="round"></path>
                                <path d="M32.0108738,52.1250439 C32.0108738,52.1250439 34.5290821,47.9573478 35.5717431,43.1808595 C35.5717431,43.1808595 36.5264511,50.3885857 32.445234,55.0781037 C32.445234,55.0781037 32.7056536,53.9489637 32.0108738,52.1250439" id="Fill-62" fill="#0B334C"></path>
                                <polyline id="Stroke-64" stroke="#0B334C" stroke-width="0.592105263" stroke-linecap="round" stroke-linejoin="round" points="22.6321326 55.7722939 19.8535048 50.909818 21.3295434 50.909818"></polyline>
                                <path d="M29.3189706,29.4889804 C29.3189706,29.4889804 33.487158,30.0103109 34.4713475,35.3356457" id="Stroke-66" stroke="#0B334C" stroke-width="0.592105263" stroke-linecap="round" stroke-linejoin="round"></path>
                                <path d="M0.0906063617,27.1819085 C-0.210595914,27.5283157 2.25945929,30.2607559 3.41906349,31.5078218 C3.42053756,31.5137181 3.42299435,31.5205971 3.42446842,31.5269847 C3.57433252,32.0763226 3.73402378,32.6202556 3.89027553,33.1666454 C5.70240276,32.8177814 7.5051942,32.2016189 9.28341775,31.4395231 C8.98860313,30.8041975 8.69084035,30.1669066 8.40536152,29.5399341 L8.37096648,29.4564033 C8.35819118,29.4377317 8.3498381,29.4136552 8.33313194,29.3940009 C8.54539847,28.0206561 8.95568216,24.9496704 8.42599855,24.6848286 C7.74251997,24.3438264 6.48415288,26.5092398 6.48415288,26.5092398 C6.48415288,26.5092398 4.4587764,21.2797197 3.77234968,21.32689 C3.0854316,21.3740604 4.44010481,25.707344 4.44010481,25.707344 C4.44010481,25.707344 2.62502943,22.4059116 1.86096819,22.4909164 C1.09641559,22.5764127 3.30359443,26.8620346 3.30359443,26.8620346 C3.30359443,26.8620346 0.736250392,24.0106858 0.0856927846,24.5241546 C-0.565356181,25.0371321 2.71052567,28.314488 2.71052567,28.314488 C2.71052567,28.314488 0.482218456,26.7318248 0.0906063617,27.1819085" id="Fill-68" fill="#FA9778"></path>
                                <path d="M3.61575398,32.5844357 C3.45999358,32.6542084 3.36958377,32.8183219 3.39611708,32.9863663 C3.49782813,33.6349584 3.77741066,35.19895 4.16410918,35.6544386 C4.59404718,36.1595543 7.60508722,34.4810764 8.36276081,34.0467162 C8.47085951,33.9848051 8.54112366,33.8737583 8.55193353,33.7494448 L8.65118779,32.5864011 C8.65118779,32.5864011 9.40345644,33.6860596 9.57739707,33.6860596 C9.68009083,33.6860596 10.047135,33.5135931 10.3296657,33.3725734 C10.5212952,33.2767587 10.5940162,33.040907 10.4918138,32.852717 L9.19512077,30.4642271 C9.10028873,30.2893038 8.88753084,30.2175656 8.70621985,30.2991309 L3.61575398,32.5844357 Z" id="Fill-70" fill="#FFFFFF"></path>
                                <path d="M49.3473005,6.92829111 C48.3395258,2.36357799 43.727151,-0.435686881 39.2042033,0.758803711 C35.0271714,1.8638672 32.4676891,5.97751395 33.1953898,10.1186767 C33.137901,10.136857 33.0794294,10.1466841 33.0224319,10.1702693 C31.8461216,10.6508171 31.2820429,11.9946805 31.7630821,13.1709908 C32.191546,14.2190568 33.7152463,15.4297622 34.8743591,15.3423005 C35.5298303,17.0286402 36.2182225,18.4619306 36.8908912,19.2869202 C38.4956654,21.2670918 41.080207,22.1009258 42.8933169,22.4483157 C44.2548692,22.7121748 45.6581868,22.3441479 46.7146058,21.4405411 C47.6865114,20.6140774 48.8608563,19.4122164 49.6249176,17.91161 C49.9723075,17.2443462 50.2366579,16.5151714 50.3683418,15.7299818 C50.4381146,15.3201894 50.4587516,14.8342367 50.4445022,14.2853901 C50.4101072,12.3194679 49.9305421,9.56786473 49.3473005,6.92829111" id="Fill-72" fill="#FA9778"></path>
                                <path d="M41.810168,15.9617552 C41.810168,17.0407767 40.9350599,17.9158848 39.8560384,17.9158848 C38.7770169,17.9158848 37.9024001,17.0407767 37.9024001,15.9617552 C37.9024001,14.8827337 38.7770169,14.0076256 39.8560384,14.0076256 C40.9350599,14.0076256 41.810168,14.8827337 41.810168,15.9617552" id="Fill-74" fill="#FA845F"></path>
                                <path d="M50.4446988,14.2851936 C50.4584568,14.8340401 50.4378198,15.3199929 50.3685383,15.7297852 C50.2363631,16.5149748 49.972504,17.2441497 49.6251141,17.9114135 C49.5695907,17.9187838 49.5071883,17.9187838 49.4516648,17.9187838 C48.3746087,17.9187838 47.4990093,17.0431844 47.4990093,15.9592493 C47.4990093,14.8826845 48.3746087,14.0075765 49.4516648,14.0075765 C49.8196918,14.0075765 50.1528323,14.1112529 50.4446988,14.2851936" id="Fill-76" fill="#FA845F"></path>
                                <path d="M44.3530916,11.532362 C44.5874692,12.2674331 44.8513283,12.8718031 45.0208467,13.6142446 C45.0793183,13.9753925 45.1869256,14.3714268 45.0237948,14.8416562 C44.8360962,15.3197472 44.4100891,15.4961446 44.0435362,15.5713224 C44.268578,15.2470263 44.4857581,14.9541771 44.48281,14.7016192 C44.4911631,14.4510268 44.3973138,14.1124813 44.3211533,13.7646001 C44.2538373,13.4172102 44.1757114,13.0545882 44.1614621,12.6718205 C44.1422991,12.2934751 44.1791509,11.888105 44.3530916,11.532362" id="Fill-78" fill="#0B334C"></path>
                                <path d="M42.2763682,8.3591739 C42.0803165,8.35082082 41.8562574,8.32969244 41.6533266,8.33018379 C41.4469564,8.32870972 41.2454997,8.33165787 41.0489566,8.36163069 C40.8504481,8.38963808 40.6720853,8.46776395 40.4922484,8.5566997 C40.3109374,8.64809223 40.1600905,8.79353411 39.9949944,8.94683772 L39.9792709,8.96157845 C39.9178512,9.01857595 39.8220364,9.01464508 39.7655303,8.95371673 C39.7242563,8.90851182 39.7149205,8.84561803 39.7365402,8.79304276 C39.8333377,8.55768241 39.9660043,8.31396899 40.1763054,8.1360975 C40.3743225,7.94741614 40.6254063,7.80590512 40.8873,7.72876196 C41.1482109,7.64523115 41.4214058,7.60887068 41.6857562,7.62901634 C41.9535462,7.65309287 42.199225,7.70370271 42.4537483,7.83391251 C42.5913285,7.9036853 42.6453778,8.07172964 42.575605,8.20881844 C42.5245038,8.30856406 42.4213187,8.36507019 42.3161682,8.36064797 L42.2763682,8.3591739 Z" id="Fill-80" fill="#0B334C"></path>
                                <path d="M46.3766009,7.8337651 C46.6316155,7.70355531 46.8772944,7.65343682 47.144593,7.62886894 C47.4094348,7.60872327 47.6821383,7.64508374 47.9430493,7.72861455 C48.2054343,7.80575771 48.4560267,7.94726873 48.6545352,8.13595009 C48.864345,8.31431294 48.9970115,8.55802636 49.093809,8.79289535 C49.1262386,8.87003851 49.0893868,8.9584829 49.0117523,8.99042115 C48.9557375,9.01351496 48.8933351,9.0002483 48.8515697,8.9619224 L48.8358462,8.94718167 C48.6702587,8.79338671 48.5194119,8.64794483 48.3381009,8.55704365 C48.1582639,8.46761655 47.9803924,8.38998203 47.7813926,8.36148328 C47.5848495,8.33200182 47.3838842,8.32905367 47.1775139,8.33052775 C46.9745832,8.33003639 46.7510155,8.35116477 46.553981,8.35902649 L46.5151638,8.36050057 C46.3613688,8.36688822 46.231159,8.24748829 46.2247713,8.09369333 C46.2203491,7.98166377 46.2832429,7.88191816 46.3766009,7.8337651" id="Fill-82" fill="#0B334C"></path>
                                <path d="M48.1203311,12.6038657 C48.1203311,13.2593369 47.7901387,13.7904946 47.3823118,13.7904946 C46.9744849,13.7904946 46.6442926,13.2593369 46.6442926,12.6038657 C46.6442926,11.9483946 46.9744849,11.4172369 47.3823118,11.4172369 C47.7901387,11.4172369 48.1203311,11.9483946 48.1203311,12.6038657" id="Fill-84" fill="#0B334C"></path>
                                <path d="M42.1864006,12.6038657 C42.1864006,13.2593369 41.8562082,13.7904946 41.4483813,13.7904946 C41.0405544,13.7904946 40.710362,13.2593369 40.710362,12.6038657 C40.710362,11.9483946 41.0405544,11.4172369 41.4483813,11.4172369 C41.8562082,11.4172369 42.1864006,11.9483946 42.1864006,12.6038657" id="Fill-86" fill="#0B334C"></path>
                                <path d="M43.0824897,17.4603471 C42.8726799,17.4873718 42.6751541,17.4318483 42.4835246,17.3635496 C42.3031963,17.2770707 42.10911,17.1660238 42.0177175,16.9704634 C42.2059075,17.0574338 42.3685469,17.136051 42.5508406,17.203367 C42.7242899,17.2864064 42.9065836,17.3478262 43.0824897,17.4603471" id="Fill-88" fill="#0B334C"></path>
                                <path d="M43.3871806,16.1877797 C43.3871806,16.6594831 43.1410104,17.0417594 42.8368599,17.0417594 C42.5332009,17.0417594 42.2870307,16.6594831 42.2870307,16.1877797 C42.2870307,15.7160763 42.5332009,15.3338 42.8368599,15.3338 C43.1410104,15.3338 43.3871806,15.7160763 43.3871806,16.1877797" id="Fill-90" fill="#0B334C"></path>
                                <path d="M50.0156944,10.2684426 C50.0156944,10.2684426 49.8417537,4.36281424 46.5422867,1.58418639 C43.2423283,-1.19444146 38.4663314,0.194626789 35.252852,2.53987714 C32.0398639,4.88414477 33.0225793,10.170171 33.0225793,10.170171 C33.0225793,10.170171 35.5132716,13.9157908 37.0767718,13.7418502 C38.6397807,13.5684009 39.0736495,6.8810225 39.0736495,6.8810225 C39.0736495,6.8810225 46.0209562,10.1809809 48.4526855,7.92368356 L50.0156944,10.2684426 Z" id="Fill-92" fill="#0B334C"></path>
                                <g id="Group-96" transform="translate(18.671593, 0.000000)">
                                    <mask id="mask-4" fill="white">
                                        <use xlink:href="#path-3"></use>
                                    </mask>
                                    <g id="Clip-95"></g>
                                    <path d="M8.86448617,0.222486771 C6.12369286,0.942325816 3.95483993,3.46937852 3.66002531,6.28780634 C3.41975139,8.57999005 4.30714341,10.9414552 3.71898823,13.1702538 C3.3696329,14.4959369 2.53285072,15.628025 1.84838943,16.8156366 C0.766911113,18.6916404 0.032822695,20.8383822 0.195953455,22.9983907 C0.359084214,25.1574165 1.54079951,27.31202 3.49001554,28.2564095 C4.29141996,28.6450735 5.18323421,28.8180314 6.0721003,28.8755203 C8.32743219,29.0214535 10.6402529,28.4126613 12.4774394,27.0958226 C12.9737107,26.7400796 13.4444314,26.3229169 13.7353151,25.785863 C14.007036,25.2846781 14.1057989,24.7078242 14.1608309,24.1398146 C14.3111864,22.5822107 14.1583741,20.9956167 13.7141868,19.4950102 C13.3933302,18.4120578 12.9235922,17.3782412 12.5683406,16.305116 C11.979694,14.5288578 11.7099387,12.6125628 12.0671557,10.7758677 C12.4243728,8.93868118 13.4601548,7.19092181 15.0555933,6.21262861 C15.3273141,6.0465497 15.619672,5.89717696 15.8221113,5.6514981 C17.0446093,4.16759782 16.0378174,2.25032004 14.7607787,1.34867864 C13.0783699,0.161067057 10.8667688,-0.303265978 8.86448617,0.222486771" id="Fill-94" fill="#0B334C" mask="url(#mask-4)"></path>
                                </g>
                                <path d="M13.8035156,59.9406779 C13.8035156,59.9406779 17.4508639,84.9507853 22.4872804,86.1664043 C27.5241883,87.3825146 37.5975127,85.992955 41.5922509,88.9455235 C45.586989,91.8980919 58.6128819,106.269814 58.6128819,106.269814 C58.6128819,106.269814 28.0450275,105.618765 16.0613043,96.0662794 C4.07758109,86.5137942 13.8035156,59.9406779 13.8035156,59.9406779" id="Fill-97" fill="#1FB4EB"></path>
                            </g>
                        </g>
                        <g id="Group-7" transform="translate(10.842105, 0.000000)">
                            <g id="Group-3" transform="translate(0.000000, 1.632010)">
                                <g id="Fill-1">
                                    <use fill="black" fill-opacity="1" filter="url(#filter-6)" xlink:href="#path-5"></use>
                                    <use fill="#FFFFFF" fill-rule="evenodd" xlink:href="#path-5"></use>
                                </g>
                                <path d="M14.7598734,18.457767 C14.7598734,16.9178861 16.0647863,15.7456394 17.9521049,15.7456394 C19.8382656,15.7456394 21.1431785,16.9178861 21.1431785,18.457767 C21.1431785,19.9745331 19.8382656,21.216124 17.9521049,21.216124 C16.0647863,21.216124 14.7598734,19.9745331 14.7598734,18.457767 L14.7598734,18.457767 Z M14.6880858,4.89602861 L21.216124,4.89602861 L20.1277317,14.8254533 L15.7764781,14.8254533 L14.6880858,4.89602861 Z" id="Fill-1" fill="#A8473D"></path>
                            </g>
                            <g id="Group-6">
                                <mask id="mask-8" fill="white">
                                    <use xlink:href="#path-7"></use>
                                </mask>
                                <g id="Clip-5"></g>
                            </g>
                        </g>
                    </g>
                </g>
            </g>
        </g>
    </g>
</svg>