<?xml version="1.0" encoding="UTF-8"?>
<svg width="32px" height="32px" viewBox="0 0 32 32" version="1.1" xmlns="http://www.w3.org/2000/svg" xmlns:xlink="http://www.w3.org/1999/xlink">
    <title>E98E2658-856A-4F78-8E45-8194FDF1C74A</title>
    <g id="Page-1" stroke="none" stroke-width="1" fill="none" fill-rule="evenodd">
        <g id="Master-offer--curated-Copy-2" transform="translate(-48.000000, -71.000000)" fill="#D90368" fill-rule="nonzero">
            <g id="Section-Heading-Copy" transform="translate(48.000000, 66.000000)">
                <g id="Group" transform="translate(0.000000, 5.000000)">
                    <path d="M31.2851064,17.6680851 C31.9659574,16.6468085 31.9659574,15.3191489 31.2851064,14.3319149 L30.093617,12.5617021 C29.9914894,12.3574468 29.9574468,12.1531915 29.9574468,11.9148936 L30.093617,9.77021277 C30.1617021,8.54468085 29.5148936,7.4212766 28.4255319,6.87659574 L26.5191489,5.92340426 C26.3148936,5.8212766 26.1787234,5.68510638 26.0765957,5.48085106 L25.1234043,3.57446809 C24.5787234,2.48510638 23.4212766,1.83829787 22.2297872,1.90638298 L20.0851064,2.04255319 C19.8808511,2.04255319 19.6425532,2.00851064 19.4723404,1.87234043 L17.7021277,0.714893617 L17.7021277,0.714893617 C16.6808511,0.0340425532 15.387234,0.0340425532 14.3659574,0.714893617 L12.5957447,1.90638298 C12.3574468,2.00851064 12.1531915,2.04255319 11.9148936,2.04255319 L9.77021277,1.90638298 C8.54468085,1.83829787 7.4212766,2.48510638 6.87659574,3.57446809 L5.92340426,5.48085106 C5.8212766,5.68510638 5.68510638,5.8212766 5.48085106,5.92340426 L3.57446809,6.87659574 C2.48510638,7.4212766 1.83829787,8.5787234 1.90638298,9.77021277 L2.04255319,11.9148936 C2.04255319,12.1191489 2.00851064,12.3574468 1.87234043,12.5276596 L0.714893617,14.2978723 C0.0340425532,15.3191489 0.0340425532,16.6468085 0.714893617,17.6340426 L1.90638298,19.4042553 C2.00851064,19.6425532 2.04255319,19.8468085 2.04255319,20.0851064 L1.90638298,22.2297872 C1.83829787,23.4553191 2.48510638,24.5787234 3.57446809,25.1234043 L5.48085106,26.0765957 C5.68510638,26.1787234 5.8212766,26.3489362 5.92340426,26.5191489 L6.87659574,28.4255319 C7.4212766,29.5148936 8.5787234,30.1617021 9.77021277,30.093617 L11.9148936,29.9574468 C12.1191489,29.9574468 12.3574468,29.9914894 12.5276596,30.1276596 L14.2978723,31.2851064 C14.8085106,31.6255319 15.387234,31.7957447 15.9659574,31.7957447 C16.5446809,31.7957447 17.1234043,31.6255319 17.6340426,31.2851064 L19.4042553,30.093617 C19.5744681,29.9914894 19.812766,29.9234043 20.0170213,29.9234043 L22.1617021,30.0595745 C23.387234,30.1276596 24.5106383,29.4808511 25.0553191,28.3914894 L26.0085106,26.4851064 C26.1106383,26.2808511 26.2468085,26.1446809 26.4510638,26.0425532 L28.3574468,25.0893617 C29.4468085,24.5446809 30.093617,23.387234 30.0255319,22.1957447 L29.9574468,20.0851064 C29.9574468,19.8808511 29.9914894,19.6425532 30.1276596,19.4723404 L31.2851064,17.6680851 Z M29.5829787,16.5446809 L28.4255319,18.3148936 C28.0510638,18.8595745 27.8808511,19.506383 27.9148936,20.1531915 L28.0510638,22.2978723 C28.0851064,22.706383 27.8468085,23.0808511 27.506383,23.2510638 L25.6,24.2042553 C25.0212766,24.5106383 24.5446809,24.987234 24.2382979,25.5659574 L23.2851064,27.4723404 C23.1148936,27.8468085 22.7404255,28.0510638 22.3319149,28.0170213 L20.187234,27.9148936 C19.5404255,27.8808511 18.893617,28.0510638 18.3489362,28.4255319 L16.5787234,29.5829787 C16.2382979,29.787234 15.7957447,29.787234 15.4893617,29.5829787 L13.7191489,28.4255319 C13.2085106,28.0851064 12.6297872,27.9148936 12.0510638,27.9148936 C11.9829787,27.9148936 11.9489362,27.9148936 11.8808511,27.9148936 L9.73617021,28.0510638 C9.32765957,28.0851064 8.95319149,27.8468085 8.78297872,27.506383 L7.82978723,25.6 C7.52340426,25.0212766 7.04680851,24.5446809 6.46808511,24.2382979 L4.56170213,23.2851064 C4.18723404,23.1148936 3.98297872,22.7404255 4.01702128,22.3319149 L4.15319149,20.187234 C4.18723404,19.5404255 4.01702128,18.893617 3.64255319,18.3489362 L2.48510638,16.5787234 C2.28085106,16.2382979 2.28085106,15.7957447 2.48510638,15.4893617 L3.64255319,13.7191489 C4.01702128,13.1744681 4.18723404,12.5276596 4.15319149,11.8808511 L4.01702128,9.73617021 C3.98297872,9.32765957 4.2212766,8.95319149 4.56170213,8.78297872 L6.46808511,7.82978723 C7.04680851,7.52340426 7.52340426,7.04680851 7.82978723,6.46808511 L8.78297872,4.56170213 C8.95319149,4.18723404 9.32765957,3.98297872 9.73617021,4.01702128 L11.8808511,4.15319149 C12.5276596,4.18723404 13.1744681,4.01702128 13.7191489,3.64255319 L15.4893617,2.48510638 C15.8297872,2.28085106 16.2723404,2.28085106 16.5787234,2.48510638 L18.3489362,3.64255319 C18.893617,4.01702128 19.5404255,4.18723404 20.187234,4.15319149 L22.3319149,4.01702128 C22.7404255,3.98297872 23.1148936,4.2212766 23.2851064,4.56170213 L24.2382979,6.46808511 C24.5446809,7.04680851 25.0212766,7.52340426 25.6,7.82978723 L27.506383,8.78297872 C27.8808511,8.95319149 28.0851064,9.32765957 28.0510638,9.73617021 L27.9148936,11.812766 C27.8808511,12.4595745 28.0510638,13.106383 28.4255319,13.6510638 L29.5829787,15.4212766 C29.8212766,15.7957447 29.8212766,16.2042553 29.5829787,16.5446809 Z" id="Shape"></path>
                    <path d="M12.5617021,15.387234 C14.3659574,15.387234 15.8638298,13.8893617 15.8638298,12.0851064 C15.8638298,10.2808511 14.3659574,8.78297872 12.5617021,8.78297872 C10.7574468,8.78297872 9.25957447,10.2808511 9.25957447,12.0851064 C9.25957447,13.9574468 10.7234043,15.387234 12.5617021,15.387234 Z M12.5617021,10.587234 C13.412766,10.587234 14.093617,11.2680851 14.093617,12.1191489 C14.093617,12.9702128 13.412766,13.6170213 12.5617021,13.6170213 C11.7106383,13.6170213 11.0297872,12.9361702 11.0297872,12.0851064 C11.0297872,11.2340426 11.7106383,10.587234 12.5617021,10.587234 Z" id="Shape"></path>
                    <path d="M19.4382979,16.612766 C17.6340426,16.612766 16.1361702,18.1106383 16.1361702,19.9148936 C16.1361702,21.7191489 17.6340426,23.2170213 19.4382979,23.2170213 C21.2425532,23.2170213 22.7404255,21.7191489 22.7404255,19.9148936 C22.7404255,18.0425532 21.2765957,16.612766 19.4382979,16.612766 Z M19.4382979,21.412766 C18.587234,21.412766 17.906383,20.7319149 17.906383,19.8808511 C17.906383,19.0297872 18.587234,18.3489362 19.4382979,18.3489362 C20.2893617,18.3489362 20.9702128,19.0297872 20.9702128,19.8808511 C20.9702128,20.7319149 20.2893617,21.412766 19.4382979,21.412766 Z" id="Shape"></path>
                    <path d="M22.3319149,9.66808511 C21.9574468,9.29361702 21.412766,9.29361702 21.0723404,9.66808511 L9.66808511,21.0382979 C9.29361702,21.412766 9.29361702,21.9574468 9.66808511,22.2978723 C9.83829787,22.4680851 10.0765957,22.5702128 10.2808511,22.5702128 C10.4851064,22.5702128 10.7234043,22.4680851 10.893617,22.2978723 L22.2638298,10.9276596 C22.6382979,10.587234 22.6382979,10.0425532 22.3319149,9.66808511 Z" id="Path"></path>
                </g>
            </g>
        </g>
    </g>
</svg>