<?xml version="1.0" encoding="UTF-8"?>
<svg width="143px" height="30px" viewBox="0 0 143 30" version="1.1" xmlns="http://www.w3.org/2000/svg" xmlns:xlink="http://www.w3.org/1999/xlink">
    <title>4CB178BF-33CB-4E90-9613-BCA7B436ECCE@2x</title>
    <defs>
        <linearGradient x1="-1.11022302e-14%" y1="50%" x2="100%" y2="50%" id="linearGradient-1">
            <stop stop-color="#3023AE" offset="0%"></stop>
            <stop stop-color="#C86DD7" offset="100%"></stop>
        </linearGradient>
        <linearGradient x1="50%" y1="0%" x2="50%" y2="100%" id="linearGradient-2">
            <stop stop-color="#3023AE" offset="0%"></stop>
            <stop stop-color="#C86DD7" offset="100%"></stop>
        </linearGradient>
    </defs>
    <g id="Credit-Advisory-&amp;-Rectification-Copy" stroke="none" stroke-width="1" fill="none" fill-rule="evenodd">
        <g id="Desktop----Credit-plus-Advisory-with-Pre-Approved-Offers" transform="translate(-802.000000, -1169.000000)">
            <g id="Group-22" transform="translate(442.000000, 1137.000000)">
                <g id="Credit-Plus" transform="translate(360.000000, 32.000000)">
                    <g id="Credit" transform="translate(0.000000, 5.088889)" fill-rule="nonzero">
                        <path d="M11.7325,24.2666667 C5.2325,24.2666667 0,19.1666667 0,12.2 L0,12.1333333 C0,5.33333333 5.07,-1.63118167e-15 11.96,-1.63118167e-15 C16.6075,-1.63118167e-15 19.5975,2 21.6125,4.83333333 L16.8675,8.6 C15.5675,6.96666667 14.0725,5.86666667 11.895,5.86666667 C8.71,5.86666667 6.4675,8.66666667 6.4675,12.0666667 L6.4675,12.1333333 C6.4675,15.6333333 8.71,18.3666667 11.895,18.3666667 C14.2675,18.3666667 15.665,17.2333333 17.03,15.5333333 L21.775,19 C19.63,22.0333333 16.7375,24.2666667 11.7325,24.2666667 Z" id="Path" fill="#4B0687"></path>
                        <path d="M35.2625,0.466666667 C38.74,0.466666667 41.145,1.4 42.6725,2.96666667 C44.005,4.33333333 44.6875,6.1 44.6875,8.4 L44.6875,8.46666667 C44.6875,12.0666667 42.835,14.4333333 40.0075,15.6666667 L45.435,23.8 L38.1875,23.8 L33.605,16.7333333 L30.81,16.7333333 L30.81,23.8 L24.505,23.8 L24.505,0.466666667 L35.2625,0.466666667 Z M34.97,6.03333333 L30.81,6.03333333 L30.81,11.6666667 L35.0025,11.6666667 C37.115,11.6666667 38.3825,10.6 38.3825,8.9 L38.3825,8.83333333 C38.3825,6.96666667 37.05,6.03333333 34.97,6.03333333 Z" id="Combined-Shape" fill="#670CB6"></path>
                        <path d="M47.8725,14.6 L47.8725,9.5 L65.0325,9.5 L65.0325,14.6 L47.8725,14.6 Z M47.8725,23.8 L47.8725,18.3137054 L66.3325,18.3137054 L66.3325,23.8 L47.8725,23.8 Z M47.8725,5.93653757 L47.8725,0.466666667 L66.17,0.466666667 L66.17,5.93653757 L47.8725,5.93653757 Z" id="Combined-Shape" fill="#7F0DE4"></path>
                        <path d="M78.39,0.466666667 C86.4825,0.466666667 91.195,5.26666667 91.195,12 L91.195,12.0666667 C91.195,18.8 86.4175,23.8 78.26,23.8 L69.5825,23.8 L69.5825,0.466666667 L78.39,0.466666667 Z M78.455,6.16666667 L75.8875,6.16666667 L75.8875,18.0666667 L78.455,18.0666667 C82.2575,18.0666667 84.76,15.9333333 84.76,12.1666667 L84.76,12.1 C84.76,8.36666667 82.2575,6.16666667 78.455,6.16666667 Z" id="Combined-Shape" fill="#9013FE"></path>
                        <polygon id="Path" fill="#C013FE" points="94.64 23.8 94.64 0.466666667 100.945 0.466666667 100.945 23.8"></polygon>
                        <polygon id="Path" fill="#D213FE" points="110.6625 23.8 110.6625 6.13333333 103.87 6.13333333 103.87 0.466666667 123.7925 0.466666667 123.7925 6.13333333 116.9675 6.13333333 116.9675 23.8"></polygon>
                    </g>
                    <rect id="Horizontal" fill="url(#linearGradient-1)" opacity="0.900000036" x="127.833333" y="5.55555556" width="15.1666667" height="4.44444444" rx="2.22222222"></rect>
                    <rect id="Vertical" fill="url(#linearGradient-2)" opacity="0.900000036" x="133.25" y="0" width="4.33333333" height="15.5555556" rx="2.16666667"></rect>
                </g>
            </g>
        </g>
    </g>
</svg>