<?xml version="1.0" encoding="UTF-8"?>
<svg width="113px" height="18px" viewBox="0 0 113 18" version="1.1" xmlns="http://www.w3.org/2000/svg" xmlns:xlink="http://www.w3.org/1999/xlink">
    <title>A95837CB-F171-4D1F-A2D0-1328AAFA3F2E@1x</title>
    <defs>
        <polygon id="path-1" points="0 18 113 18 113 0 0 0"></polygon>
    </defs>
    <g id="Final---Revamp-Bureaus---Mobile-&amp;-Desktop--Copy-3" stroke="none" stroke-width="1" fill="none" fill-rule="evenodd">
        <g id="Mobile---Hamburger-drawer-with-Women-icon" transform="translate(-24.000000, -16.000000)">
            <g id="PB-Logo" transform="translate(24.000000, 16.000000)">
                <path d="M45.2085212,5.94195608 C45.6307745,5.70070983 46.0857266,5.58018198 46.5738654,5.58018198 C47.3030967,5.58018198 47.8490196,5.90803678 48.210951,6.56346053 C48.57298,7.21917012 48.7539457,8.20254395 48.7539457,9.51386785 C48.7539457,10.7513506 48.5674164,11.6793673 48.1945529,12.2981087 C47.8215917,12.9167548 47.2594658,13.2262208 46.5081751,13.2262208 C46.1133497,13.2262208 45.7102276,13.1438998 45.2990041,12.9792578 C44.8874877,12.8147111 44.4652344,12.5678434 44.0320489,12.2385594 L44.0320489,7.02756419 C44.3938827,6.54516698 44.7859751,6.1832976 45.2085212,5.94195608 L45.2085212,5.94195608 Z M40.8951149,0.519536944 L40.8951149,1.04690582 L41.0510929,1.05538564 C41.7134625,1.10083369 42.1063357,1.19858987 42.2295173,1.34884474 C42.352699,1.49909961 42.4142898,1.95691487 42.4142898,2.72238578 L42.4142898,14.0511457 L43.7280968,14.0511457 L43.9334646,12.9030346 L44.0320489,12.9030346 C44.4041316,13.322643 44.8148671,13.6373493 45.2638651,13.8470583 C45.7127654,14.0567672 46.1972928,14.1617646 46.7173496,14.1617646 C47.8505814,14.1617646 48.7593142,13.6965176 49.4437433,12.7657377 C50.1280747,11.8351484 50.4701916,10.5978562 50.4701916,9.05414702 C50.4701916,7.66383688 50.1718032,6.55717212 49.575124,5.73424801 C48.9784447,4.91141918 48.1763001,4.49990949 47.1690806,4.49990949 C46.5284776,4.49990949 45.9466348,4.66169311 45.4239426,4.98497451 C44.9011528,5.30854176 44.4372208,5.7935115 44.0320489,6.4401696 L44.0320489,0.519536944 L40.8951149,0.519536944 Z" id="Fill-1" fill="#000000"></path>
                <path d="M56.0486594,12.5048545 C55.4101063,12.9527607 54.856277,13.1767615 54.3868789,13.1767615 C53.8903458,13.1767615 53.4756083,13.0002096 53.1427642,12.6472965 C52.8098224,12.294288 52.6434003,11.8501929 52.6434003,11.3150112 C52.6434003,10.5976561 52.910847,10.0340813 53.4456426,9.62409604 C53.9803406,9.21430137 54.7225537,9.00926111 55.6720868,9.00926111 L56.0486594,9.00926111 L56.0486594,12.5048545 Z M55.7129847,8.49037206 C53.9285106,8.49037206 52.6625316,8.80279167 51.9148523,9.42744033 C51.2600962,9.97262636 50.9326205,10.6824544 50.9326205,11.5569244 C50.9326205,12.3063885 51.1838641,12.9297032 51.6862538,13.4266781 C52.1886435,13.9234624 52.8167526,14.1717593 53.5702883,14.1717593 C54.5093773,14.1717593 55.4597889,13.6799295 56.4210349,12.6961746 C56.6331377,13.6799295 57.136601,14.1717593 57.9311322,14.1717593 C58.2367436,14.1717593 58.5834481,14.1008718 58.9707577,13.9589062 L58.9217583,13.3286361 C58.7415735,13.3804678 58.5970157,13.4063837 58.4877921,13.4063837 C58.1822782,13.4063837 57.9680281,13.2561288 57.8453345,12.955238 C57.7224458,12.6543471 57.6611478,12.1349817 57.6611478,11.3973322 L57.6611478,7.27680434 C57.6611478,5.43229956 56.6952165,4.50999952 54.7634516,4.50999952 C53.7920543,4.50999952 52.7388612,4.76811014 51.6038725,5.28395026 L51.6038725,6.97648516 L52.700794,6.97648516 L52.7088955,6.8148921 C52.7690222,6.21958935 52.910847,5.82542042 53.1345651,5.63267114 C53.5165062,5.31520175 53.9558409,5.15646706 54.4524717,5.15646706 C55.5165969,5.15646706 56.0486594,5.88506503 56.0486594,7.34216569 L56.0486594,8.49037206 L55.7129847,8.49037206 Z" id="Fill-3" fill="#000000"></path>
                <path d="M60.3172147,13.9580392 L68.0833177,13.9580392 L68.0833177,13.3313896 L65.5665865,13.3271974 L62.2787502,13.3271974 L67.9096726,5.21886523 L67.9096726,4.69883283 L60.5490343,4.69883283 L60.5490343,6.71950836 L61.418431,6.71950836 L61.4268253,6.54047925 C61.4377575,6.36992997 61.4432235,6.16527083 61.4432235,5.92659711 C61.4432235,5.57425563 61.5122326,5.36816731 61.6502506,5.3085227 C61.7882687,5.24878281 62.2631328,5.21886523 63.074355,5.21886523 L66.0093376,5.21886523 L60.3172147,13.4295269 L60.3172147,13.9580392 Z" id="Fill-5" fill="#000000"></path>
                <path d="M73.9151668,12.5048545 C73.2755399,12.9527607 72.7208322,13.1767615 72.2507508,13.1767615 C71.7533392,13.1767615 71.3378209,13.0002096 71.0043911,12.6472965 C70.6709613,12.294288 70.5042464,11.8501929 70.5042464,11.3150112 C70.5042464,10.5976561 70.7720834,10.0340813 71.3077575,9.62409604 C71.8434316,9.21430137 72.5870113,9.00926111 73.5380085,9.00926111 L73.9151668,9.00926111 L73.9151668,12.5048545 Z M73.5790039,8.49037206 C71.791504,8.49037206 70.5233776,8.80279167 69.7745271,9.42744033 C69.118502,9.97262636 68.7905383,10.6824544 68.7905383,11.5569244 C68.7905383,12.3063885 69.04227,12.9297032 69.5454405,13.4266781 C70.0487087,13.9234624 70.6777939,14.1717593 71.4326961,14.1717593 C72.3733468,14.1717593 73.3254177,13.6799295 74.2881279,12.6961746 C74.5006211,13.6799295 75.0048653,14.1717593 75.8009582,14.1717593 C76.1069601,14.1717593 76.4541526,14.1008718 76.842243,13.9589062 L76.7931461,13.3286361 C76.612766,13.3804678 76.4678178,13.4063837 76.3584965,13.4063837 C76.0523971,13.4063837 75.8379517,13.2561288 75.7147701,12.955238 C75.5919789,12.6543471 75.5303881,12.1349817 75.5303881,11.3973322 L75.5303881,7.27680434 C75.5303881,5.43229956 74.5628951,4.50999952 72.6279091,4.50999952 C71.6548525,4.50999952 70.5998049,4.76811014 69.4630592,5.28395026 L69.4630592,6.97648516 L70.5617377,6.97648516 L70.5698391,6.8148921 C70.6299658,6.21958935 70.7720834,5.82542042 70.996192,5.63267114 C71.3788163,5.31520175 71.8187367,5.15646706 72.316246,5.15646706 C73.3821281,5.15646706 73.9151668,5.88506503 73.9151668,7.34216569 L73.9151668,8.49037206 L73.5790039,8.49037206 Z" id="Fill-7" fill="#000000"></path>
                <path d="M83.0327634,12.5048545 C82.3942102,12.9527607 81.8402834,13.1767615 81.3709829,13.1767615 C80.8745473,13.1767615 80.4597122,13.0002096 80.1268681,12.6472965 C79.7939263,12.294288 79.6275043,11.8501929 79.6275043,11.3150112 C79.6275043,10.5976561 79.8948533,10.0340813 80.4296489,9.62409604 C80.9644445,9.21430137 81.7065601,9.00926111 82.6561907,9.00926111 L83.0327634,9.00926111 L83.0327634,12.5048545 Z M82.6970886,8.49037206 C80.9125169,8.49037206 79.6467331,8.80279167 78.8989563,9.42744033 C78.2442001,9.97262636 77.916822,10.6824544 77.916822,11.5569244 C77.916822,12.3063885 78.1678705,12.9297032 78.6703578,13.4266781 C79.1727474,13.9234624 79.8008565,14.1717593 80.5544899,14.1717593 C81.4934812,14.1717593 82.4438928,13.6799295 83.4050413,12.6961746 C83.617144,13.6799295 84.120705,14.1717593 84.9152361,14.1717593 C85.2208476,14.1717593 85.5674545,14.1008718 85.9548616,13.9589062 L85.9057647,13.3286361 C85.7256774,13.3804678 85.581022,13.4063837 85.471896,13.4063837 C85.1660893,13.4063837 84.952132,13.2561288 84.8294385,12.955238 C84.7064521,12.6543471 84.6451541,12.1349817 84.6451541,11.3973322 L84.6451541,7.27680434 C84.6451541,5.43229956 83.6792228,4.50999952 81.7474579,4.50999952 C80.7761582,4.50999952 79.7229651,4.76811014 78.5879764,5.28395026 L78.5879764,6.97648516 L79.6848979,6.97648516 L79.6929018,6.8148921 C79.7530285,6.21958935 79.8948533,5.82542042 80.1185714,5.63267114 C80.5006101,5.31520175 80.9398472,5.15646706 81.436478,5.15646706 C82.5007008,5.15646706 83.0327634,5.88506503 83.0327634,7.34216569 L83.0327634,8.49037206 L82.6970886,8.49037206 Z" id="Fill-9" fill="#000000"></path>
                <path d="M87.8497892,13.1425849 C87.7270956,13.293602 87.3361746,13.3918346 86.6769284,13.4373779 L86.5217313,13.4460483 L86.5217313,13.9756086 L91.3605628,13.9756086 L91.3605628,13.4460483 L91.0090755,13.4373779 C90.3551978,13.3975513 89.9640815,13.3006527 89.8361171,13.1469677 C89.7080551,12.9931876 89.6440241,12.5316564 89.6440241,11.7628507 L89.6440241,7.22576342 C90.1617383,6.3201372 90.8237174,5.86737173 91.6302544,5.86737173 C91.8319131,5.86737173 91.9558755,5.91720261 92.0022395,6.01676909 C92.0486034,6.11662141 92.1017023,6.43123243 92.1616337,6.960888 L92.1698328,7.11476347 L93.0771991,7.11476347 L93.0771991,4.57710447 C92.8755405,4.51450622 92.6930131,4.48315945 92.5294216,4.48315945 C91.3414316,4.48315945 90.3797951,5.135439 89.6440241,6.43961698 L89.6440241,4.69667953 L86.5217313,4.69667953 L86.5217313,5.22652565 L86.6769284,5.2349102 C87.3361746,5.28626554 87.7270956,5.3859273 87.8497892,5.53418132 C87.9723852,5.68224477 88.0336831,6.14072698 88.0336831,6.90972321 L88.0336831,11.7628507 C88.0336831,12.5316564 87.9723852,12.9917584 87.8497892,13.1425849" id="Fill-11" fill="#000000"></path>
                <path d="M4.2484187,5.95028345 C4.64841732,5.70856081 5.07945536,5.58765185 5.54172805,5.58765185 C6.23250165,5.58765185 6.74923974,5.9161736 7.09203992,6.57302654 C7.4348401,7.22997475 7.60614258,8.21515888 7.60614258,9.52905531 C7.60614258,10.76892 7.42947165,11.6987471 7.07652021,12.3186318 C6.72327594,12.9385165 6.19101814,13.2486494 5.47945398,13.2486494 C5.10541916,13.2486494 4.72367328,13.1662331 4.33421636,13.00121 C3.94466182,12.8362822 3.54476081,12.5890334 3.13441572,12.2589872 L3.13441572,7.03808299 C3.47731351,6.5546377 3.84851769,6.1920061 4.2484187,5.95028345 L4.2484187,5.95028345 Z M1.95216505e-05,4.71842218 L1.95216505e-05,5.24674384 L0.155899901,5.25541423 C0.817683851,5.30648373 1.21026424,5.40595493 1.33334825,5.55354199 C1.45643225,5.70131961 1.51802306,6.15865847 1.51802306,6.92555857 L1.48249366,17.3389738 L3.12816879,17.3389738 L3.13441572,12.9244152 C3.49205236,13.3448811 3.8864873,13.6602544 4.31801339,13.870535 C4.74944186,14.0807203 5.21513083,14.1860035 5.71478748,14.1860035 C6.80380275,14.1860035 7.67690857,13.7198037 8.33469058,12.7872136 C8.99227737,11.8547187 9.32121718,10.6151398 9.32121718,9.06857225 C9.32121718,7.67549902 9.03434653,6.56664285 8.46099566,5.74209899 C7.88744957,4.9177457 7.11673481,4.50547377 6.14885138,4.50547377 C5.53323613,4.50547377 4.97433128,4.66744795 4.47213682,4.99149159 C3.96955193,5.31543995 3.52357982,5.80136249 3.13441572,6.44935449 L3.13441572,4.71842218 L1.95216505e-05,4.71842218 Z" id="Fill-13" fill="#0066FF"></path>
                <path d="M15.4636459,12.5048545 C14.8251904,12.9527607 14.2713611,13.1767615 13.8020607,13.1767615 C13.3054299,13.1767615 12.8906924,13.0002096 12.5578483,12.6472965 C12.2249065,12.294288 12.0584844,11.8501929 12.0584844,11.3150112 C12.0584844,10.5976561 12.3259311,10.0340813 12.8606291,9.62409604 C13.3954247,9.21430137 14.1377354,9.00926111 15.0870733,9.00926111 L15.4636459,9.00926111 L15.4636459,12.5048545 Z M15.1280688,8.49037206 C13.3436923,8.49037206 12.0776157,8.80279167 11.3300341,9.42744033 C10.6752779,9.97262636 10.3477046,10.6824544 10.3477046,11.5569244 C10.3477046,12.3063885 10.5990459,12.9297032 11.1013379,13.4266781 C11.6038252,13.9234624 12.2318367,14.1717593 12.9853724,14.1717593 C13.9246566,14.1717593 14.8749706,13.6799295 15.836119,12.6961746 C16.0482218,13.6799295 16.5515875,14.1717593 17.3463139,14.1717593 C17.6518277,14.1717593 17.9984346,14.1008718 18.3859394,13.9589062 L18.3368425,13.3286361 C18.1566576,13.3804678 18.0120998,13.4063837 17.9029738,13.4063837 C17.5973623,13.4063837 17.3832098,13.2561288 17.260321,12.955238 C17.1375299,12.6543471 17.0762319,12.1349817 17.0762319,11.3973322 L17.0762319,7.27680434 C17.0762319,5.43229956 16.1103006,4.50999952 14.1786333,4.50999952 C13.207236,4.50999952 12.1539453,4.76811014 11.0190542,5.28395026 L11.0190542,6.97648516 L12.1158781,6.97648516 L12.1239796,6.8148921 C12.1840087,6.21958935 12.3259311,5.82542042 12.5496492,5.63267114 C12.9315903,5.31520175 13.370925,5.15646706 13.8674582,5.15646706 C14.9315834,5.15646706 15.4636459,5.88506503 15.4636459,7.34216569 L15.4636459,8.49037206 L15.1280688,8.49037206 Z" id="Fill-15" fill="#0066FF"></path>
                <path d="M18.9798368,5.23480539 L19.1363028,5.2433805 C19.800527,5.29435472 20.0927661,5.37600877 20.2526484,5.57180696 C20.5060394,5.88232099 20.5033064,6.1468153 20.5033064,6.91390596 L20.4577234,13.9624506 L22.1715291,13.9624506 L22.1148187,4.70638845 L18.9798368,4.70638845 L18.9798368,5.23480539 Z" id="Fill-17" fill="#0066FF"></path>
                <mask id="mask-2" fill="white">
                    <use xlink:href="#path-1"></use>
                </mask>
                <g id="Clip-20"></g>
                <polygon id="Fill-19" fill="#0066FF" mask="url(#mask-2)" points="20.5033943 3.02729741 22.1258386 3.02729741 22.1258386 1.34819685 20.5033943 1.34819685"></polygon>
                <path d="M28.6713602,13.1424039 C28.3373447,13.4526321 27.9090397,13.6076509 27.3861523,13.6076509 C26.7414498,13.6076509 26.1497486,13.4543471 25.6349627,13.1126769 C24.8553656,12.5949312 24.0229624,11.1962365 24.0229624,11.1962365 L24.0229624,12.5878805 C24.8122227,13.6703444 26.1141216,14.1263494 27.2468653,14.1263494 C28.3214346,14.1263494 29.19415,13.8669049 29.8650115,13.3474441 C30.5360682,12.8282693 30.8715478,12.1571245 30.8715478,11.3342957 C30.8715478,10.7385165 30.7000501,10.2504026 30.3573475,9.87004907 C30.0089837,9.49560288 29.3959062,9.1323996 28.5189937,8.78053451 L27.7173371,8.45696727 C26.9040652,8.13425754 26.3638035,7.85108856 26.0966497,7.6076509 C25.8236394,7.36992997 25.6872807,7.05274642 25.6872807,6.65657663 C25.6872807,6.17532276 25.8540932,5.77610404 26.1882062,5.45901577 C26.5221241,5.14192749 26.9418396,4.98347863 27.4472551,4.98347863 C27.9815627,4.98347863 28.4375884,5.12792149 28.8151371,5.41709304 C28.943004,5.51923205 29.0358294,5.67653756 29.0941015,5.88920013 C29.1519832,6.10176742 29.1985424,6.48602735 29.2332909,7.04169406 L29.2332909,7.19471202 L30.2005887,7.19471202 L30.2005887,4.99195846 C29.2129884,4.64037921 28.2575012,4.46449431 27.3339319,4.46449431 C26.3871319,4.46449431 25.6072419,4.70859892 24.9945549,5.1966176 C24.3815751,5.68482683 24.0752804,6.30337764 24.0752804,7.0523653 C24.0752804,7.68806631 24.2872855,8.22734505 24.7113934,8.66991568 C25.135306,9.11829832 25.8207112,9.52113763 26.7676088,9.87862417 L27.6476448,10.210576 C28.2167986,10.4269544 28.6147474,10.6601019 28.8412962,10.910495 C29.0619884,11.1666047 29.1723833,11.5108475 29.1723833,11.943128 C29.1723833,12.4325759 29.0054732,12.8321757 28.6713602,13.1424039" id="Fill-21" fill="#0066FF" mask="url(#mask-2)"></path>
                <path d="M37.2250446,12.5048545 C36.5865891,12.9527607 36.0326622,13.1767615 35.5634594,13.1767615 C35.0668286,13.1767615 34.6519935,13.0002096 34.3191494,12.6472965 C33.9863052,12.294288 33.8198831,11.8501929 33.8198831,11.3150112 C33.8198831,10.5976561 34.0872321,10.0340813 34.6220278,9.62409604 C35.1568234,9.21430137 35.8989389,9.00926111 36.848472,9.00926111 L37.2250446,9.00926111 L37.2250446,12.5048545 Z M36.8894675,8.49037206 C35.1049934,8.49037206 33.8390144,8.80279167 33.0914328,9.42744033 C32.4364814,9.97262636 32.1092009,10.6824544 32.1092009,11.5569244 C32.1092009,12.3063885 32.3604446,12.9297032 32.862639,13.4266781 C33.3651263,13.9234624 33.9931378,14.1717593 34.7466735,14.1717593 C35.6860553,14.1717593 36.6363693,13.6799295 37.5975177,12.6961746 C37.8096205,13.6799295 38.3129862,14.1717593 39.107615,14.1717593 C39.4132264,14.1717593 39.7596381,14.1008718 40.1472405,13.9589062 L40.0981435,13.3286361 C39.9179587,13.3804678 39.7734009,13.4063837 39.6642749,13.4063837 C39.3586634,13.4063837 39.1445109,13.2561288 39.0217197,12.955238 C38.8989286,12.6543471 38.837533,12.1349817 38.837533,11.3973322 L38.837533,7.27680434 C38.837533,5.43229956 37.8716993,4.50999952 35.9399344,4.50999952 C34.9685371,4.50999952 33.915344,4.76811014 32.7803553,5.28395026 L32.7803553,6.97648516 L33.8771792,6.97648516 L33.8852807,6.8148921 C33.9454074,6.21958935 34.0872321,5.82542042 34.3110479,5.63267114 C34.6928914,5.31520175 35.1323237,5.15646706 35.6287593,5.15646706 C36.6929821,5.15646706 37.2250446,5.88506503 37.2250446,7.34216569 L37.2250446,8.49037206 L36.8894675,8.49037206 Z" id="Fill-22" fill="#0066FF" mask="url(#mask-2)"></path>
                <path d="M113.000029,9 C113.000029,13.9706065 108.845041,18.0000476 103.719632,18.0000476 C98.5941249,18.0000476 94.4392345,13.9706065 94.4392345,9 C94.4392345,4.02948883 98.5941249,4.76394645e-05 103.719632,4.76394645e-05 C108.845041,4.76394645e-05 113.000029,4.02948883 113.000029,9" id="Fill-23" fill="#0066FF" mask="url(#mask-2)"></path>
                <path d="M100.605118,10.854309 L101.159631,10.6864275 C101.267781,11.0641132 101.250895,11.4052118 101.108875,11.7098185 C100.966952,12.01433 100.724493,12.2433805 100.381498,12.3967796 C99.9518264,12.5891477 99.5419694,12.6065838 99.1520244,12.4492783 C98.7620795,12.292068 98.447,11.9575437 98.2066885,11.4457053 C98.0511986,11.1148016 97.9714526,10.8001906 97.9671578,10.5016817 C97.9629607,10.2031728 98.0465134,9.94048878 98.2178158,9.71362965 C98.3891183,9.48677052 98.6098106,9.31298175 98.8798926,9.19216807 C99.2208382,9.03953123 99.5392364,8.99884712 99.835087,9.07011576 C100.131035,9.14147968 100.382279,9.31841265 100.588818,9.6008194 L100.108,9.91028536 C99.9620753,9.72649231 99.8020954,9.61053785 99.6281575,9.56270783 C99.4542196,9.51478253 99.2785247,9.53050355 99.1011705,9.60996618 C98.8331383,9.72992235 98.659298,9.92114716 98.5799425,10.1837359 C98.5003917,10.4463246 98.5562236,10.7806584 98.7468526,11.1865466 C98.9401169,11.5983421 99.1614924,11.861312 99.4107839,11.9756467 C99.6599778,12.0898861 99.9148329,12.0887428 100.174959,11.9723119 C100.383841,11.8788433 100.528984,11.7383069 100.610194,11.5506074 C100.691307,11.3629079 100.689647,11.1308084 100.605118,10.854309" id="Fill-24" fill="#FFFFFF" mask="url(#mask-2)"></path>
                <path d="M101.740097,9.85044067 C101.924479,10.2428946 102.15015,10.4975752 102.417304,10.6143871 C102.684457,10.7311038 102.951123,10.7298652 103.217203,10.6108618 C103.481233,10.4926206 103.654879,10.2962508 103.738236,10.0214663 C103.821398,9.74668191 103.768592,9.40825116 103.579818,9.00617407 C103.401683,8.62715449 103.178648,8.37952456 102.910518,8.26309371 C102.642388,8.14685341 102.377284,8.14732981 102.115206,8.26461817 C101.849028,8.38362155 101.673919,8.57961031 101.589781,8.85248916 C101.505642,9.12536801 101.555715,9.45789148 101.740097,9.85044067 M101.193101,10.0952122 C100.926533,9.52763565 100.89071,9.03494831 101.085634,8.61705493 C101.249128,8.26928684 101.524871,8.00841313 101.913157,7.83462436 C102.344781,7.64139869 102.762446,7.62158068 103.166056,7.77497975 C103.569764,7.92856939 103.885917,8.24870659 104.114516,8.73539136 C104.299776,9.12984612 104.384891,9.46722881 104.369761,9.74744414 C104.354827,10.0277548 104.260831,10.2823401 104.088064,10.5110095 C103.915102,10.7396789 103.691677,10.9153733 103.417691,11.0379972 C102.978258,11.2346529 102.558347,11.256186 102.158056,11.1023105 C101.75796,10.948435 101.436341,10.6127674 101.193101,10.0952122" id="Fill-25" fill="#FFFFFF" mask="url(#mask-2)"></path>
                <path d="M105.478386,10.0318803 L104.038957,6.96704302 L104.514895,6.75409461 L104.716847,7.18408842 C104.74486,6.98990996 104.819238,6.81049974 104.939979,6.64585775 C105.06072,6.48131104 105.225386,6.35220809 105.434365,6.25873946 C105.666965,6.15469487 105.879751,6.11648802 106.072918,6.14411891 C106.26589,6.17184508 106.432702,6.25664332 106.573453,6.39860893 C106.653687,5.92964604 106.892827,5.60598352 107.290971,5.42781192 C107.602439,5.28841885 107.881404,5.26545662 108.12806,5.35882997 C108.374618,5.4522986 108.580181,5.67401267 108.744651,6.02416274 L109.732837,8.12792149 L109.203605,8.36478491 L108.296727,6.43414797 C108.199119,6.22634462 108.111662,6.0844743 108.034258,6.00853699 C107.956855,5.93259969 107.859637,5.88705636 107.7428,5.87171645 C107.625963,5.8565671 107.506393,5.87628984 107.384187,5.93088466 C107.163495,6.02968891 107.013764,6.18346911 106.935287,6.39203468 C106.856712,6.60069554 106.891656,6.86271259 107.039825,7.1782764 L107.876133,8.95884903 L107.343973,9.19704635 L106.40869,7.20571674 C106.300248,6.97485589 106.175602,6.82117098 106.034558,6.74456672 C105.893709,6.66786718 105.724554,6.6736792 105.527581,6.76190748 C105.377752,6.82888857 105.257303,6.92940784 105.16643,7.06317946 C105.075362,7.19704635 105.036123,7.35082654 105.048617,7.52461531 C105.061013,7.6983088 105.132658,7.92469153 105.263746,8.20366824 L106.010546,9.79377829 L105.478386,10.0318803 Z" id="Fill-26" fill="#FFFFFF" mask="url(#mask-2)"></path>
            </g>
        </g>
    </g>
</svg>