<?xml version="1.0" encoding="UTF-8"?>
<svg width="22px" height="21px" viewBox="0 0 22 21" version="1.1" xmlns="http://www.w3.org/2000/svg" xmlns:xlink="http://www.w3.org/1999/xlink">
    <title>FC792D62-0F67-4F90-BD12-334D1076E660@1x</title>
    <g id="Final" stroke="none" stroke-width="1" fill="none" fill-rule="evenodd">
        <g id="My-Account-Transaction" transform="translate(-462.000000, -1288.000000)">
            <g id="Group-44" transform="translate(462.000000, 1288.000000)">
                <g id="Group-43">
                    <path d="M14,0.35 C14.4556349,0.35 14.8681349,0.534682541 15.1667262,0.833273811 C15.4653175,1.13186508 15.65,1.54436508 15.65,2 L15.65,2 L15.65,18 C15.65,18.4556349 15.4653175,18.8681349 15.1667262,19.1667262 C14.8681349,19.4653175 14.4556349,19.65 14,19.65 L14,19.65 L2,19.65 C1.54436508,19.65 1.13186508,19.4653175 0.833273811,19.1667262 C0.534682541,18.8681349 0.35,18.4556349 0.35,18 L0.35,18 L0.35,5.18191814 L5.66661412,0.35 Z" id="Rectangle" stroke="#1B325E" stroke-width="0.7" fill="#E7EFF7"></path>
                    <path d="M6,0 L0.570426809,5.4480638 L5,5.4480638 C5.55228475,5.4480638 6,5.00034855 6,4.4480638 L6,0 L6,0 Z" id="Path-7" fill="#1B325E"></path>
                </g>
                <path d="M12.8567663,7.50443114 C9.32310766,7.50443114 6.45851132,10.2779333 6.45851132,13.6992215 C6.45851132,17.1205098 9.32310766,19.8940119 12.8567663,19.8940119 C16.390425,19.8940119 19.2550214,17.1205098 19.2550214,13.6992215" id="Path" stroke="#052F5F" stroke-width="0.7" fill="#FFFFFF" fill-rule="nonzero"></path>
                <path d="M21,5.81494285 C16.5026162,5.81494285 12.8567663,9.34485465 12.8567663,13.6992215 L21,13.6992215 L21,5.81494285 Z" id="Path" stroke="#1B325E" stroke-width="0.7" fill="#84EB9C" fill-rule="nonzero" stroke-linejoin="round" transform="translate(16.928383, 9.757082) scale(-1, 1) translate(-16.928383, -9.757082) "></path>
            </g>
        </g>
    </g>
</svg>