<?xml version="1.0" encoding="UTF-8"?>
<svg width="100px" height="13px" viewBox="0 0 100 13" version="1.1" xmlns="http://www.w3.org/2000/svg" xmlns:xlink="http://www.w3.org/1999/xlink">
    <title>E22365CA-E9E8-427C-A11D-1B33B711D595@2x</title>
    <defs>
        <linearGradient x1="65.2333075%" y1="40.6832385%" x2="17.1130979%" y2="84.383713%" id="linearGradient-1">
            <stop stop-color="#098D40" offset="0%"></stop>
            <stop stop-color="#16C075" offset="100%"></stop>
        </linearGradient>
        <linearGradient x1="48.2477256%" y1="22.6554274%" x2="64.3122681%" y2="91.2701515%" id="linearGradient-2">
            <stop stop-color="#46B66B" offset="0%"></stop>
            <stop stop-color="#46FF69" offset="100%"></stop>
        </linearGradient>
        <linearGradient x1="99.995837%" y1="42.8248307%" x2="18.4370929%" y2="63.5274863%" id="linearGradient-3">
            <stop stop-color="#FFD64E" offset="0%"></stop>
            <stop stop-color="#F2A82A" offset="100%"></stop>
        </linearGradient>
        <linearGradient x1="26.3367157%" y1="5.42119896%" x2="85.9395458%" y2="89.3789329%" id="linearGradient-4">
            <stop stop-color="#F04434" offset="0%"></stop>
            <stop stop-color="#981B0F" offset="100%"></stop>
        </linearGradient>
        <linearGradient x1="1.63301399%" y1="50.1678242%" x2="12.2490215%" y2="54.6960113%" id="linearGradient-5">
            <stop stop-color="#8000FF" offset="0%"></stop>
            <stop stop-color="#FF7222" offset="100%"></stop>
        </linearGradient>
    </defs>
    <g id="Final" stroke="none" stroke-width="1" fill="none" fill-rule="evenodd">
        <g id="My-Account-Transaction" transform="translate(-498.000000, -1282.000000)">
            <g id="Group" transform="translate(498.000000, 1282.000000)">
                <path d="M93.4640821,0 C89.8540145,0 86.9277907,2.91015214 86.9277907,6.5 C86.9277907,10.0898571 89.8540145,13 93.4640821,13 C97.0737762,13 100,10.0898571 100,6.5 C100,2.91015214 97.0737762,0 93.4640821,0 Z M93.4640821,2.77333643 C95.533167,2.77333643 97.2110305,4.44182143 97.2110305,6.5 C97.2110305,8.55817857 95.533167,10.2266357 93.4640821,10.2266357 C91.3941569,10.2266357 89.7164801,8.55817857 89.7164801,6.5 C89.7164801,4.44182143 91.3941569,2.77333643 93.4640821,2.77333643 Z" id="Shape" fill="#D72716" fill-rule="nonzero"></path>
                <path d="M97.1680801,7.065305 C97.2838593,6.30812929 97.9944069,5.78744214 98.7563082,5.90230643 C99.5172758,6.01718 100.041083,6.72410143 99.9253038,7.48127714 C99.4435133,10.6386429 96.7058974,13 93.4640821,13 C92.6935907,13 92.0693172,12.3791571 92.0693172,11.6132714 C92.0693172,10.8565786 92.6788382,10.2414 93.436071,10.2269143 L93.4640821,10.2266357 C95.3034761,10.2266357 96.860892,8.89904786 97.1596768,7.11937571 L97.1680801,7.065305 Z" id="Path" fill="url(#linearGradient-1)" fill-rule="nonzero"></path>
                <path d="M95.0355035,1.43571071 C95.4482,0.788895714 96.3090738,0.596943286 96.9598645,1.00698 C98.8366066,2.19048143 100,4.24708143 100,6.49998143 C100,6.83037643 99.97479,7.15817143 99.9262375,7.48129571 C99.8104584,8.23846214 99.0999107,8.75915857 98.3380094,8.644285 C97.5863789,8.53080429 97.0663066,7.83944571 97.165279,7.09267 L97.1690138,7.06532357 C97.1970249,6.87974857 97.2110305,6.69100714 97.2110305,6.49998143 C97.2110305,5.22205357 96.5611735,4.05680786 95.5042222,3.37324 L95.4668741,3.34932 C94.8160834,2.93928143 94.622807,2.082535 95.0355035,1.43571071 Z" id="Path" fill="url(#linearGradient-2)" fill-rule="nonzero"></path>
                <path d="M93.4640821,0 C94.7171109,0 95.9215872,0.3529435 96.9589308,1.00699857 C97.6097214,1.41703714 97.8029979,2.27378357 97.3903013,2.92059857 C96.983207,3.55901929 96.1391399,3.75430714 95.492084,3.36501286 L95.4659404,3.34933857 C94.8721055,2.97476214 94.1849005,2.77333643 93.4640821,2.77333643 C91.5679189,2.77333643 89.9789439,4.18120857 89.7458918,6.02983643 L89.7391691,6.08598714 C89.6549491,6.84723 88.9661567,7.396415 88.2007074,7.31263 C87.435258,7.228845 86.8830663,6.54381929 86.9672863,5.78258571 C87.3301231,2.50434786 90.1229208,0 93.4640821,0 Z" id="Path" fill="url(#linearGradient-3)" fill-rule="nonzero"></path>
                <path d="M86.9672863,5.78261357 C87.0515063,5.02138 87.7402987,4.47218571 88.505748,4.55597071 C89.2620471,4.63874357 89.8101305,5.30836429 89.7419702,6.05853857 L89.7391691,6.086015 C89.7240431,6.22258929 89.7164801,6.360705 89.7164801,6.50002786 C89.7164801,8.53762929 91.3608237,10.1933 93.401524,10.2261714 L93.4640821,10.2267286 C94.233453,10.2267286 94.8581,10.8475714 94.8581,11.6133643 C94.8581,12.3791571 94.233453,13 93.4640821,13 C89.8540145,13 86.9277907,10.0898571 86.9277907,6.50002786 C86.9277907,6.25929571 86.9410493,6.01989143 86.9672863,5.78261357 Z" id="Path" fill="url(#linearGradient-4)" fill-rule="nonzero"></path>
                <path d="M94.9281277,9.93162857 L96.019626,12.4837143 C95.2409181,12.8129857 94.4024532,12.9894143 93.5415794,12.9995357 L93.4640821,13 L93.4640821,10.2266357 C93.9552096,10.2266357 94.4304642,10.1334071 94.8730392,9.95437857 L94.9281277,9.93162857 Z" id="Path" fill="#10A85C" fill-rule="nonzero"></path>
                <path d="M6.51115452,12.9508786 C4.63889415,12.9508786 3.08266408,12.3341214 1.84243631,11.1007 C0.614146855,9.85548571 0,8.31373214 0,6.47548571 C0,4.63723929 0.614146855,3.10141 1.84243631,1.86800714 C3.08266408,0.6227455 4.63889415,0.000113350714 6.51115452,0.000113350714 C7.63212046,0.000113350714 8.6696134,0.261026071 9.62366134,0.782850714 C10.5776252,1.29281286 11.3288823,1.99253786 11.8775259,2.88200714 L9.40900312,4.30516357 C9.13469064,3.81891714 8.74116302,3.44534357 8.22837358,3.18443357 C7.71559347,2.91165643 7.14318712,2.77526786 6.51115452,2.77526786 C5.40211195,2.77526786 4.51368463,3.11326786 3.84587255,3.78926786 C3.18998385,4.46526786 2.86204884,5.36067071 2.86204884,6.47548571 C2.86204884,7.59029143 3.18998385,8.48569429 3.84587255,9.16169429 C4.51368463,9.83765714 5.40211195,10.1756571 6.51115452,10.1756571 C7.14318712,10.1756571 7.71559347,10.0393429 8.22837358,9.76652857 C8.75308641,9.49380714 9.14661402,9.12018714 9.40900312,8.64579857 L11.8775259,10.0689643 C11.3408337,10.9584429 10.5955523,11.6640643 9.64149505,12.1859214 C8.6874938,12.6958929 7.64404384,12.9508786 6.51115452,12.9508786 Z M19.8014861,12.7018357 L17.4403391,8.61021571 L16.0808681,8.61021571 L16.0808681,12.7018357 L13.2187897,12.7018357 L13.2187897,0.249165429 L18.2273569,0.249165429 C19.4198818,0.249165429 20.4335093,0.664253571 21.2683328,1.49442429 C22.1030629,2.32460429 22.5204279,3.33268 22.5204279,4.51864214 C22.5204279,5.27765643 22.3057697,5.98330571 21.8764533,6.63559 C21.4590882,7.27600714 20.9045623,7.77411143 20.2128754,8.12990286 L22.8782228,12.7018357 L19.8014861,12.7018357 Z M16.0808681,2.91759 L16.0808681,6.11969429 L18.2273569,6.11969429 C18.6209126,6.11969429 18.9548046,5.96551429 19.2291264,5.65716357 C19.5153062,5.34881286 19.6583495,4.96930571 19.6583495,4.51864214 C19.6583495,4.06796929 19.5153062,3.68846214 19.2291264,3.38011143 C18.9548046,3.07176071 18.6209126,2.91759 18.2273569,2.91759 L16.0808681,2.91759 Z M43.0467583,2.04590286 C41.8900875,0.848078214 40.4471436,0.249165429 38.7179265,0.249165429 L33.7093592,0.249165429 L33.7093592,12.7018357 L38.7179265,12.7018357 C40.4471436,12.7018357 41.8900875,12.10885 43.0467583,10.9228786 C44.2154737,9.72502143 44.7997848,8.24256643 44.7997848,6.47548571 C44.7997848,4.70839571 44.2154737,3.231865 43.0467583,2.04590286 Z M41.1149277,9.01938143 C40.5067138,9.64795 39.7077445,9.96217857 38.7179265,9.96217857 L36.5714376,9.96217857 L36.5714376,2.98874643 L38.7179265,2.98874643 C39.7077445,2.98874643 40.5067138,3.308955 41.1149277,3.94937214 C41.7349995,4.57794071 42.0450822,5.41996929 42.0450822,6.47548571 C42.0450822,7.53099286 41.7349995,8.378955 41.1149277,9.01938143 Z M46.4090212,0.249165429 L49.2710063,0.249165429 L49.2710063,12.7018357 L46.4090212,12.7018357 L46.4090212,0.249165429 Z M59.8296883,2.98874643 L59.8296883,0.249165429 L50.52805,0.249165429 L50.52805,2.98874643 L53.7478299,2.98874643 L53.7478299,12.7018357 L56.6099084,12.7018357 L56.6099084,2.98874643 L59.8296883,2.98874643 Z M70.2947199,0.249165429 C71.523099,0.249165429 72.5605359,0.664253571 73.4072174,1.49442429 C74.2538989,2.32460429 74.6772396,3.33268 74.6772396,4.51864214 C74.6772396,5.70460429 74.2538989,6.71267071 73.4072174,7.54285071 C72.5605359,8.37303071 71.523099,8.78811143 70.2947199,8.78811143 L68.4165772,8.78811143 L68.4165772,12.7018357 L65.5544988,12.7018357 L65.5544988,0.249165429 L70.2947199,0.249165429 Z M70.2947199,6.11969429 C70.7359878,6.11969429 71.0997583,5.96551429 71.3859381,5.65716357 C71.6721179,5.34881286 71.8152545,4.96930571 71.8152545,4.51864214 C71.8152545,4.06796929 71.6721179,3.68846214 71.3859381,3.38011143 C71.0997583,3.07176071 70.7359878,2.91759 70.2947199,2.91759 L68.4165772,2.91759 L68.4165772,6.11969429 L70.2947199,6.11969429 Z M80.3269804,8.61021571 L82.6882208,12.7018357 L85.7648642,12.7018357 L83.0996102,8.12990286 C83.7912971,7.77411143 84.345823,7.27600714 84.763188,6.63559 C85.1925045,5.98330571 85.4071627,5.27765643 85.4071627,4.51864214 C85.4071627,3.33268 84.9897977,2.32460429 84.1549742,1.49442429 C83.3202441,0.664253571 82.3066166,0.249165429 81.1140917,0.249165429 L76.1055244,0.249165429 L76.1055244,12.7018357 L78.9675095,12.7018357 L78.9675095,8.61021571 L80.3269804,8.61021571 Z M81.1140917,6.11969429 L78.9675095,6.11969429 L78.9675095,2.91759 L81.1140917,2.91759 C81.5076473,2.91759 81.8415394,3.07176071 82.1157678,3.38011143 C82.4019476,3.68846214 82.5450842,4.06796929 82.5450842,4.51864214 C82.5450842,4.96930571 82.4019476,5.34881286 82.1157678,5.65716357 C81.8415394,5.96551429 81.5076473,6.11969429 81.1140917,6.11969429 Z M32.4432585,0.246085357 L24.1873671,0.246085357 L24.1873671,2.98292429 L32.4432585,2.98292429 L32.4432585,0.246085357 Z M24.1873671,5.03602357 L32.4432585,5.03602357 L32.4432585,7.77286714 L24.1873671,7.77286714 L24.1873671,5.03602357 Z M32.4432585,9.82530714 L24.1873671,9.82530714 L24.1873671,12.5621786 L32.4432585,12.5621786 L32.4432585,9.82530714 Z" id="Shape" fill="url(#linearGradient-5)"></path>
            </g>
        </g>
    </g>
</svg>