<?xml version="1.0" encoding="UTF-8"?>
<svg width="80px" height="17px" viewBox="0 0 80 17" version="1.1" xmlns="http://www.w3.org/2000/svg" xmlns:xlink="http://www.w3.org/1999/xlink">
    <title>57815EC9-5E0E-47CE-A4AA-43138D3923BB</title>
    <defs>
        <linearGradient x1="-1.11022302e-14%" y1="50%" x2="100%" y2="50%" id="linearGradient-1">
            <stop stop-color="#3023AE" offset="0%"></stop>
            <stop stop-color="#C86DD7" offset="100%"></stop>
        </linearGradient>
        <linearGradient x1="50%" y1="0%" x2="50%" y2="100%" id="linearGradient-2">
            <stop stop-color="#3023AE" offset="0%"></stop>
            <stop stop-color="#C86DD7" offset="100%"></stop>
        </linearGradient>
    </defs>
    <g id="Final" stroke="none" stroke-width="1" fill="none" fill-rule="evenodd">
        <g id="My-Account-Transaction" transform="translate(-499.000000, -1141.000000)">
            <rect fill="#F7F8F9" x="0" y="0" width="1440" height="2067"></rect>
            <path d="M1280,1125.5 C1282.62335,1125.5 1284.99835,1126.56332 1286.71751,1128.28249 C1288.43668,1130.00165 1289.5,1132.37665 1289.5,1135 L1289.5,1135 L1289.5,1722 C1289.5,1724.62335 1288.43668,1726.99835 1286.71751,1728.71751 C1284.99835,1730.43668 1282.62335,1731.5 1280,1731.5 L1280,1731.5 L453,1731.5 C450.376647,1731.5 448.001647,1730.43668 446.282486,1728.71751 C444.563324,1726.99835 443.5,1724.62335 443.5,1722 L443.5,1722 L443.5,1135 C443.5,1132.37665 444.563324,1130.00165 446.282486,1128.28249 C448.001647,1126.56332 450.376647,1125.5 453,1125.5 L453,1125.5 Z" id="Tile-Copy" stroke="#E5E9EF" fill="#FFFFFF"></path>
            <g id="Group-30" transform="translate(498.000000, 1141.000000)">
                <g id="Credit-Plus" transform="translate(1.000000, 0.000000)">
                    <g id="Credit" transform="translate(0.000000, 2.883704)" fill-rule="nonzero">
                        <path d="M6.56363636,13.7511111 C2.92727273,13.7511111 0,10.8611111 0,6.91333333 L0,6.87555556 C0,3.02222222 2.83636364,0 6.69090909,0 C9.29090909,0 10.9636364,1.13333333 12.0909091,2.73888889 L9.43636364,4.87333333 C8.70909091,3.94777778 7.87272727,3.32444444 6.65454545,3.32444444 C4.87272727,3.32444444 3.61818182,4.91111111 3.61818182,6.83777778 L3.61818182,6.87555556 C3.61818182,8.85888889 4.87272727,10.4077778 6.65454545,10.4077778 C7.98181818,10.4077778 8.76363636,9.76555556 9.52727273,8.80222222 L12.1818182,10.7666667 C10.9818182,12.4855556 9.36363636,13.7511111 6.56363636,13.7511111 Z" id="Path" fill="#4B0687"></path>
                        <path d="M19.7272727,0.264444444 C21.6727273,0.264444444 23.0181818,0.793333333 23.8727273,1.68111111 C24.6181818,2.45555556 25,3.45666667 25,4.76 L25,4.79777778 C25,6.83777778 23.9636364,8.17888889 22.3818182,8.87777778 L25.4181818,13.4866667 L21.3636364,13.4866667 L18.8,9.48222222 L17.2363636,9.48222222 L17.2363636,13.4866667 L13.7090909,13.4866667 L13.7090909,0.264444444 L19.7272727,0.264444444 Z M19.5636364,3.41888889 L17.2363636,3.41888889 L17.2363636,6.61111111 L19.5818182,6.61111111 C20.7636364,6.61111111 21.4727273,6.00666667 21.4727273,5.04333333 L21.4727273,5.00555556 C21.4727273,3.94777778 20.7272727,3.41888889 19.5636364,3.41888889 Z" id="Combined-Shape" fill="#670CB6"></path>
                        <path d="M26.7818182,8.27333333 L26.7818182,5.38333333 L36.3818182,5.38333333 L36.3818182,8.27333333 L26.7818182,8.27333333 Z M26.7818182,13.4866667 L26.7818182,10.3777664 L37.1090909,10.3777664 L37.1090909,13.4866667 L26.7818182,13.4866667 Z M26.7818182,3.36403796 L26.7818182,0.264444444 L37.0181818,0.264444444 L37.0181818,3.36403796 L26.7818182,3.36403796 Z" id="Combined-Shape" fill="#7F0DE4"></path>
                        <path d="M43.8545455,0.264444444 C48.3818182,0.264444444 51.0181818,2.98444444 51.0181818,6.8 L51.0181818,6.83777778 C51.0181818,10.6533333 48.3454545,13.4866667 43.7818182,13.4866667 L38.9272727,13.4866667 L38.9272727,0.264444444 L43.8545455,0.264444444 Z M43.8909091,3.49444444 L42.4545455,3.49444444 L42.4545455,10.2377778 L43.8909091,10.2377778 C46.0181818,10.2377778 47.4181818,9.02888889 47.4181818,6.89444444 L47.4181818,6.85666667 C47.4181818,4.74111111 46.0181818,3.49444444 43.8909091,3.49444444 Z" id="Combined-Shape" fill="#9013FE"></path>
                        <polygon id="Path" fill="#C013FE" points="52.9454545 13.4866667 52.9454545 0.264444444 56.4727273 0.264444444 56.4727273 13.4866667"></polygon>
                        <polygon id="Path" fill="#D213FE" points="61.9090909 13.4866667 61.9090909 3.47555556 58.1090909 3.47555556 58.1090909 0.264444444 69.2545455 0.264444444 69.2545455 3.47555556 65.4363636 3.47555556 65.4363636 13.4866667"></polygon>
                    </g>
                    <rect id="Horizontal" fill="url(#linearGradient-1)" opacity="0.900000036" x="71.5151515" y="3.14814815" width="8.48484848" height="2.51851852" rx="1.25925926"></rect>
                    <rect id="Vertical" fill="url(#linearGradient-2)" opacity="0.900000036" x="74.5454545" y="0" width="2.42424242" height="8.81481481" rx="1.21212121"></rect>
                </g>
            </g>
        </g>
    </g>
</svg>