<?xml version="1.0" encoding="UTF-8"?>
<svg width="26px" height="17px" viewBox="0 0 26 17" version="1.1" xmlns="http://www.w3.org/2000/svg" xmlns:xlink="http://www.w3.org/1999/xlink">
    <title>D3C7C7A0-7BA2-411E-A700-DE957275422F@1x</title>
    <g id="Final" stroke="none" stroke-width="1" fill="none" fill-rule="evenodd">
        <g id="My-Account-Transaction" transform="translate(-459.000000, -1358.000000)">
            <g id="Icon" transform="translate(460.000000, 1359.000000)">
                <path d="M22.800772,15 L1.19933651,15 C0.537296973,15 0,14.4642509 0,13.802868 L0,6.05183484 L23.9997469,6.05183484 L23.9997469,13.802868 C23.9997469,14.4642509 23.4628115,15 22.800772,15" id="Fill-1" fill="#ED6262" fill-rule="nonzero"></path>
                <polygon id="Fill-3" fill="#FFFFFF" fill-rule="nonzero" points="0.000253100859 6.05194313 24 6.05194313 24 3.37500271 0.000253100859 3.37500271"></polygon>
                <path d="M23.9998916,3.3748222 L0.000144629328,3.3748222 L0.000144629328,1.1975292 C0.000144629328,0.536507232 0.537080032,3.61015518e-05 1.19911957,3.61015518e-05 L22.8009166,3.61015518e-05 C23.4629562,3.61015518e-05 23.9998916,0.536507232 23.9998916,1.1975292 L23.9998916,3.3748222 Z" id="Fill-5" fill="#ED6262" fill-rule="nonzero"></path>
                <path d="M23.9998916,8.88814815 L23.9998916,13.8049979 C23.9998916,14.4649369 23.4640409,14.9999639 22.8027245,14.9999639 L1.19767328,14.9999639 C0.535995311,14.9999639 0.000144629328,14.4649369 0.000144629328,13.8049979 L0.000144629328,3.37485831 L20.954365,3.37485831" id="Stroke-6" stroke="#1B325E" stroke-width="0.7" stroke-linecap="round" stroke-linejoin="round"></path>
                <path d="M0.000180786506,1.19568801 C0.000180786506,0.535388082 0.536031472,0 1.19770944,0 L22.8027606,0 C23.464077,0 23.9999277,0.535388082 23.9999277,1.19568801 L23.9999277,6.0517265 L2.9744775,6.0517265" id="Stroke-7" stroke="#1B325E" stroke-width="0.7" stroke-linecap="round" stroke-linejoin="round"></path>
                <line x1="2.96583591" y1="11.9810683" x2="6.64949958" y2="11.9810683" id="Stroke-8" stroke="#1B325E" stroke-width="0.7" stroke-linecap="round" stroke-linejoin="round"></line>
                <line x1="9.99777331" y1="11.9810683" x2="21.791459" y2="11.9810683" id="Stroke-9" stroke="#1B325E" stroke-width="0.7" stroke-linecap="round" stroke-linejoin="round"></line>
            </g>
        </g>
    </g>
</svg>