<?xml version="1.0" encoding="UTF-8"?>
<svg width="21px" height="20px" viewBox="0 0 21 20" version="1.1" xmlns="http://www.w3.org/2000/svg" xmlns:xlink="http://www.w3.org/1999/xlink">
    <title>083C9EDD-788E-4F3E-8342-BAEAD8EED303@2x</title>
    <g id="Final" stroke="none" stroke-width="1" fill="none" fill-rule="evenodd">
        <g id="My-Account-Transaction" transform="translate(-462.000000, -1142.000000)">
            <g id="ic_credit-advisory" transform="translate(462.000000, 1143.000000)">
                <g id="meter" transform="translate(0.779190, 0.000000)">
                    <g id="meter-bars" fill-rule="nonzero">
                        <path d="M9.46417935,-0.32445493 C12.2169009,-0.32445493 14.7119405,0.77711642 16.5313581,2.56280671 C18.4211133,4.4175306 19.581962,7.01029192 19.54586,9.87344226 L19.54586,9.87344226 L16.9379514,10.0978719 C17.0398659,7.89513309 16.1858513,5.8902013 14.7549079,4.46137729 C13.4008924,3.1093673 11.530326,2.27317288 9.46417935,2.27317288 C7.82668615,2.27317288 6.31200491,2.79832576 5.07999879,3.68934376 C3.8154747,4.60387959 2.84854487,5.90361946 2.35232229,7.41628954 C1.48619578,7.60306891 0.778907606,7.62977344 0.371466845,7.63303096 L0.179810901,7.63330368 C0.34081657,5.04911613 1.57972876,3.14592645 3.29387664,1.79639251 C4.98171125,0.467574769 7.13024835,-0.32445493 9.46417935,-0.32445493 Z" id="Oval" stroke="#1B325E" stroke-width="0.648909859" fill="#41BD6D" stroke-linejoin="round"></path>
                        <path d="M9.46417935,0 C11.338062,0 13.1328213,0.529804632 14.6738733,1.50336287 C14.6738733,1.50336287 13.6932922,3.19029717 13.6932922,3.19029717 C12.4470517,2.38623406 10.9900115,1.94871795 9.46417935,1.94871795 C5.98236171,1.94871795 3.03294433,4.22481814 2.02684628,7.36818924 C2.02684628,7.36818924 0,7.36818924 0,7.3609138 C1.06459666,3.13145918 4.89814981,0 9.46417935,0 Z" id="Oval-Copy-7" fill="#FFDE64"></path>
                        <path d="M3.99448189,1.67355128 L5.08964136,3.28652297 C3.63257925,4.27289603 2.5633639,5.70558791 2.03296636,7.35020702 C2.03296636,7.35087116 0.00329796699,7.35087116 0.00329796699,7.35087116 C0.571009196,5.10692726 1.925528,3.13158549 3.83608344,1.78305151 L3.99448189,1.67355128 Z" id="Oval-Copy-6" fill="#FF565F"></path>
                    </g>
                    <g id="pin" transform="translate(8.000473, 6.820513)">
                        <ellipse id="Oval" stroke="#1B325E" stroke-width="1.61552154" fill="#FFFFFF" cx="1.6373535" cy="2.58991361" rx="1" ry="1"></ellipse>
                        <polygon id="Path-3" fill="#1B325E" transform="translate(4.473917, 2.034826) rotate(7.000000) translate(-4.473917, -2.034826) " points="1.52375681 2.16073722 7.4240763 0.345855836 2.29620106 3.72379672"></polygon>
                    </g>
                </g>
                <g id="customer-service-svgrepo-com-(1)" transform="translate(5.600650, 12.894456) scale(-1, 1) translate(-5.600650, -12.894456) translate(0.000000, 6.788912)">
                    <rect id="Rectangle" fill="#FFFFFF" x="8.27646379" y="0.518780202" width="2.43951075" height="4.38461538"></rect>
                    <path d="M11.0355452,0.332359839 C10.3866922,0.053747221 10.2645624,0 10.2835429,0 L9.45137526,0 C8.39584096,0 7.53706711,0.855481497 7.53706711,1.90749259 L7.53706711,3.70041714 C7.53706711,4.75238647 8.39584096,5.60788408 9.45137526,5.60788408 L10.2645624,5.60788408 C10.1197155,6.53967368 9.75141818,7.75704673 8.84232292,8.75464706 C7.78624393,9.91322475 6.21396207,10.5428112 4.16477916,10.6294174 C4.0904912,9.98863982 3.54294745,9.48938032 2.88047314,9.48938032 L1.29361023,9.48938032 C0.580605023,9.48938032 0.000421496108,10.0675626 0.000421496108,10.7781597 C0.000421496108,10.8501924 -0.0608356944,12.1492442 1.29361023,12.2110879 L2.88047314,12.2110879 C3.39043297,12.2110879 3.83238977,11.9151484 4.04276758,11.4864601 C6.40498227,11.4171834 8.2319298,10.6920128 9.47555132,9.3278601 C10.6634883,8.02438191 11.0813947,6.43314884 11.1973309,5.34572691 C11.218574,5.29507436 11.153122,0.579277139 11.0355452,0.332359839 Z M8.3925309,3.70033362 L8.3925309,1.90740907 C8.3925309,1.32580265 8.86742077,0.852516674 9.45141716,0.852516674 L10.340233,0.852516674 C10.3409453,0.896613197 10.341909,4.75518426 10.341909,4.75518426 L9.45141716,4.75518426 C8.86742077,4.75522602 8.3925309,4.28194004 8.3925309,3.70033362 Z" id="Shape" fill="#1B325E" fill-rule="nonzero"></path>
                    <path d="M2.88055694,11.3584298 L1.29369403,11.3584298 C1.05222673,11.3584298 0.810172839,11.1455054 0.855969084,10.7780762 C0.885717788,10.5393035 1.01782717,10.3418296 1.29369403,10.3418296 L2.88055694,10.3418296 C3.16392382,10.3418296 3.29414772,10.5387189 3.31828188,10.7780762 C3.35796079,11.171479 3.12198234,11.3584298 2.88055694,11.3584298 Z" id="Path" fill="#1B325E" fill-rule="nonzero"></path>
                </g>
            </g>
        </g>
    </g>
</svg>