<?xml version="1.0" encoding="UTF-8"?>
<svg width="24px" height="24px" viewBox="0 0 24 24" version="1.1" xmlns="http://www.w3.org/2000/svg" xmlns:xlink="http://www.w3.org/1999/xlink">
    <title>80428D40-6974-4899-A603-CF43A2042EA9@2x</title>
    <g id="Final" stroke="none" stroke-width="1" fill="none" fill-rule="evenodd">
        <g id="My-Account-Transaction" transform="translate(-460.000000, -1570.000000)">
            <g id="fd-icon" transform="translate(461.000000, 1571.000000)">
                <path d="M20.0145,19.6364339 L1.9855,19.6364339 C0.889166669,19.6364339 0,18.7476354 0,17.6509373 L0,1.98549669 C0,0.889165186 0.889166669,0 1.9855,0 L20.0145,0 C21.1108333,0 22,0.889165186 22,1.98549669 L22,17.6509373 C22,18.7476354 21.1108333,19.6364339 20.0145,19.6364339" id="Fill-2" fill="#CED8E2" fill-rule="nonzero"></path>
                <path d="M20.0145,19.6364339 L1.9855,19.6364339 C0.889166669,19.6364339 0,18.7476354 0,17.6509373 L0,1.98549669 C0,0.889165186 0.889166669,0 1.9855,0 L20.0145,0 C21.1108333,0 22,0.889165186 22,1.98549669 L22,17.6509373 C22,18.7476354 21.1108333,19.6364339 20.0145,19.6364339 Z" id="Stroke-4" stroke="#1B325E" stroke-width="0.7" stroke-linecap="round" stroke-linejoin="round"></path>
                <path d="M17.4478333,16.7031055 L4.55216667,16.7031055 C3.45583333,16.7031055 2.56666667,15.8143069 2.56666667,14.7176088 L2.56666667,4.91882513 C2.56666667,3.82249363 3.45583333,2.93332844 4.55216667,2.93332844 L17.4478333,2.93332844 C18.5441667,2.93332844 19.4333333,3.82249363 19.4333333,4.91882513 L19.4333333,14.7176088 C19.4333333,15.8143069 18.5441667,16.7031055 17.4478333,16.7031055" id="Fill-6" fill="#9AAFC3" fill-rule="nonzero"></path>
                <path d="M19.6166667,7.63618727 L19.6166667,14.5764424 C19.6166667,15.6639739 18.7275,16.5454391 17.6311667,16.5454391 L4.7355,16.5454391 C3.63916667,16.5454391 2.75,15.6639739 2.75,14.5764424" id="Stroke-8" stroke="#1B325E" stroke-width="0.733333333" stroke-linecap="round" stroke-linejoin="round"></path>
                <path d="M2.75,5.06002823 C2.75,3.97249671 3.63916667,3.09103151 4.7355,3.09103151 L17.6311667,3.09103151 C18.7275,3.09103151 19.6166667,3.97249671 19.6166667,5.06002823" id="Stroke-10" stroke="#1B325E" stroke-width="0.733333333" stroke-linecap="round" stroke-linejoin="round"></path>
                <polygon id="Fill-12" fill="#FFFFFF" fill-rule="nonzero" points="1.65 13.2726879 3.85 13.2726879 3.85 6.00023331 1.65 6.00023331"></polygon>
                <polygon id="Stroke-14" stroke="#1B325E" stroke-width="0.7" stroke-linecap="round" stroke-linejoin="round" points="1.65 13.2726879 3.85 13.2726879 3.85 6.00023331 1.65 6.00023331"></polygon>
                <line x1="3.11666667" y1="19.818337" x2="3.11666667" y2="22" id="Stroke-15" stroke="#1B325E" stroke-width="0.7" stroke-linecap="round" stroke-linejoin="round"></line>
                <line x1="19.25" y1="19.818337" x2="19.25" y2="22" id="Stroke-16" stroke="#1B325E" stroke-width="0.7" stroke-linecap="round" stroke-linejoin="round"></line>
                <path d="M16.1677267,10.0001566 C16.1677267,11.9269868 14.5928933,13.4889842 12.64956,13.4889842 C10.7065933,13.4889842 9.13212669,11.9269868 9.13212669,10.0001566 C9.13212669,8.07332654 10.7065933,6.51132914 12.64956,6.51132914 C14.5928933,6.51132914 16.1677267,8.07332654 16.1677267,10.0001566" id="Fill-17" fill="#FFD032" fill-rule="nonzero"></path>
                <path d="M16.1677267,10.0001566 C16.1677267,11.9269868 14.5928933,13.4889842 12.64956,13.4889842 C10.7065933,13.4889842 9.13212669,11.9269868 9.13212669,10.0001566 C9.13212669,8.07332654 10.7065933,6.51132914 12.64956,6.51132914 C14.5928933,6.51132914 16.1677267,8.07332654 16.1677267,10.0001566 Z" id="Stroke-18" stroke="#1B325E" stroke-width="0.7" stroke-linecap="round" stroke-linejoin="round"></path>
                <line x1="12.6496333" y1="4.76676872" x2="12.6496333" y2="6.51136583" id="Stroke-19" stroke="#1B325E" stroke-width="0.7" stroke-linecap="round" stroke-linejoin="round"></line>
                <line x1="16.3678533" y1="6.2864162" x2="15.12852" y2="7.52428077" id="Stroke-20" stroke="#1B325E" stroke-width="0.7" stroke-linecap="round" stroke-linejoin="round"></line>
                <line x1="17.9265533" y1="9.96312339" x2="16.1676533" y2="9.97559005" id="Stroke-21" stroke="#1B325E" stroke-width="0.7" stroke-linecap="round" stroke-linejoin="round"></line>
                <line x1="16.4208733" y1="13.6612805" x2="15.1635733" y2="12.4406493" id="Stroke-22" stroke="#1B325E" stroke-width="0.7" stroke-linecap="round" stroke-linejoin="round"></line>
                <line x1="12.72447" y1="15.2330313" x2="12.6999033" y2="13.4888008" id="Stroke-23" stroke="#1B325E" stroke-width="0.7" stroke-linecap="round" stroke-linejoin="round"></line>
                <line x1="8.98513" y1="13.7658537" x2="10.2064967" y2="12.5107558" id="Stroke-24" stroke="#1B325E" stroke-width="0.7" stroke-linecap="round" stroke-linejoin="round"></line>
                <line x1="7.37381332" y1="10.1115498" x2="9.13271332" y2="10.0745165" id="Stroke-25" stroke="#1B325E" stroke-width="0.7" stroke-linecap="round" stroke-linejoin="round"></line>
                <line x1="8.82684" y1="6.39260266" x2="10.1013733" y2="7.59526733" id="Stroke-26" stroke="#1B325E" stroke-width="0.7" stroke-linecap="round" stroke-linejoin="round"></line>
                <line x1="11.50523" y1="8.23612627" x2="13.7763633" y2="8.23612627" id="Stroke-27" stroke="#1B325E" stroke-width="0.7" stroke-linecap="round" stroke-linejoin="round"></line>
                <line x1="11.50523" y1="9.32662776" x2="13.7763633" y2="9.32662776" id="Stroke-28" stroke="#1B325E" stroke-width="0.7" stroke-linecap="round" stroke-linejoin="round"></line>
                <path d="M12.177,8.23612627 C12.7083,8.23612627 13.1391333,8.75825871 13.1391333,9.40249101 C13.1391333,10.0463566 12.7083,10.3822227 12.177,10.3822227 L11.5052667,10.3822227 L13.1604,12.0142533" id="Stroke-29" stroke="#1B325E" stroke-width="0.7" stroke-linecap="round" stroke-linejoin="round"></path>
            </g>
        </g>
    </g>
</svg>