<?xml version="1.0" encoding="UTF-8"?>
<svg width="22px" height="24px" viewBox="0 0 22 24" version="1.1" xmlns="http://www.w3.org/2000/svg" xmlns:xlink="http://www.w3.org/1999/xlink">
    <title>BEE562A0-65E0-4AE4-A85F-BA292A4D2239@2x</title>
    <g id="Final" stroke="none" stroke-width="1" fill="none" fill-rule="evenodd">
        <g id="My-Account-Transaction" transform="translate(-461.000000, -1637.000000)">
            <g id="Icon" transform="translate(461.000000, 1638.000000)">
                <path d="M17.6700775,3.11373183 L12.8880776,0.203475659 C12.4466849,-0.0649264467 11.8962335,-0.0682264726 11.4518933,0.196142268 L6.33387483,3.23583278 C5.79742426,3.55483529 5.4643533,4.13930654 5.4643533,4.76081141 C5.4643533,4.92911273 5.60067659,5.06478047 5.76979116,5.06478047 L6.93332887,5.06478047 L6.93332887,10.3913889 C6.93332887,10.5593236 7.0700206,10.695358 7.23876673,10.695358 C7.40751285,10.695358 7.54457303,10.5593236 7.54457303,10.3913889 L7.54457303,10.1508537 L16.841453,10.1508537 C16.841453,10.3187884 16.9781447,10.4548228 17.1468909,10.4548228 C17.315637,10.4548228 17.4523287,10.3187884 17.4523287,10.150487 L17.4523287,5.04424697 L18.2805848,5.04424697 C18.4493309,5.04424697 18.5860227,4.90821257 18.5860227,4.74027792 C18.5860227,4.08063941 18.2348981,3.45730119 17.6700775,3.11373183" id="Fill-2" fill="#FEDA9B" fill-rule="nonzero"></path>
                <path d="M11.722845,5.29083224 L8.9827469,5.29083224 C8.81363233,5.29083224 8.6769406,5.42686664 8.6769406,5.59480129 L8.6769406,9.62999962 C8.6769406,9.91783521 8.91126928,10.1506704 9.20012728,10.1506704 L11.5050962,10.1506704 C11.7939542,10.1506704 12.0282829,9.91746854 12.0282829,9.62999962 L12.0282829,5.59480129 C12.0282829,5.42686664 11.8915912,5.29083224 11.722845,5.29083224" id="Fill-4" fill="#C58B59"></path>
                <polygon id="Fill-6" fill="#FFFFFF" points="13.0544288 8.27966569 15.3008156 8.27966569 15.3008156 5.59454462 13.0544288 5.59454462"></polygon>
                <polygon id="Fill-8" fill="#052F5F" points="17.1652761 3.16297554 17.1652761 0.304786454 15.2118002 0.304786454 15.2118002 1.97423289"></polygon>
                <path d="M0,16.8933933 L1.70477801,16.8933933 C2.27291454,16.8933933 2.7334662,17.3704303 2.7334662,17.9585683 L2.7334662,20.934825 C2.7334662,21.5233296 2.27291454,22 1.70477801,22 L0,22" id="Fill-9" fill="#ED6262"></path>
                <path d="M2.7334662,18.0277588 L5.36855856,15.2964374 C5.36855856,15.2964374 6.48825175,13.8587261 8.20371456,13.8587261 L13.78339,13.8587261 C13.78339,13.8587261 14.5287468,15.7067406 12.6426957,16.5394472 C12.6426957,16.5394472 15.3334227,16.5863809 17.5805463,15.2979041 C17.5805463,15.2979041 20.2230075,13.5290902 22,15.3213709 L17.1362061,18.9748663 C17.1362061,18.9748663 15.6012795,20.0649748 12.8335483,20.29891 C12.5885348,20.3198102 12.3435213,20.3396103 12.0996131,20.3696772 L8.31277319,20.8364475 C7.180553,20.9761486 6.04170086,21.0458158 4.90100651,21.0458158 L2.7334662,21.0458158" id="Fill-10" fill="#F5D9BA"></path>
                <path d="M0,16.8933933 L1.70477801,16.8933933 C2.27291454,16.8933933 2.7334662,17.3704303 2.7334662,17.9585683 L2.7334662,20.934825 C2.7334662,21.5233296 2.27291454,22 1.70477801,22 L0,22" id="Stroke-11" stroke="#1B325E" stroke-width="0.7" stroke-linecap="round" stroke-linejoin="round"></path>
                <path d="M2.7334662,18.0277588 L5.36855856,15.2964374 C5.36855856,15.2964374 6.48825175,13.8587261 8.20371456,13.8587261 L13.78339,13.8587261 C13.78339,13.8587261 14.5287468,15.7067406 12.6426957,16.5394472 C12.6426957,16.5394472 15.3334227,16.5863809 17.5805463,15.2979041 C17.5805463,15.2979041 20.2230075,13.5290902 22,15.3213709 L17.1362061,18.9748663 C17.1362061,18.9748663 15.6012795,20.0649748 12.8335483,20.29891 C12.5885348,20.3198102 12.3435213,20.3396103 12.0996131,20.3696772 L8.31277319,20.8364475 C7.180553,20.9761486 6.04170086,21.0458158 4.90100651,21.0458158 L2.7334662,21.0458158" id="Stroke-12" stroke="#1B325E" stroke-width="0.7" stroke-linecap="round" stroke-linejoin="round"></path>
                <line x1="8.54647552" y1="16.5082802" x2="12.6424377" y2="16.5394472" id="Stroke-13" stroke="#1B325E" stroke-width="0.7" stroke-linecap="round" stroke-linejoin="round"></line>
                <path d="M17.1469277,10.150817 L17.1469277,4.74024125 L18.2806217,4.74024125 C18.2806217,4.18217021 17.9888161,3.66443281 17.5105793,3.3732972 L12.7285793,0.463041029 C12.385192,0.254039389 11.9537472,0.251839372 11.6085177,0.457174316 L6.49049924,3.4972315 C6.04357991,3.76270025 5.769828,4.24267068 5.769828,4.76114142 L7.23880357,4.76114142 L7.23880357,9.35697747" id="Stroke-14" stroke="#1B325E" stroke-width="0.7" stroke-linecap="round" stroke-linejoin="round"></path>
                <polyline id="Stroke-15" stroke="#1B325E" stroke-width="0.7" stroke-linecap="round" stroke-linejoin="round" points="15.2118739 1.97415955 15.2118739 0.30471312 17.1653498 0.30471312 17.1653498 2.97150071"></polyline>
                <path d="M12.8199159,2.97139071 C12.8199159,3.32852684 12.5288473,3.61782911 12.1703539,3.61782911 C11.8118605,3.61782911 11.5211603,3.32852684 11.5211603,2.97139071 C11.5211603,2.61462124 11.8118605,2.3249523 12.1703539,2.3249523 C12.5288473,2.3249523 12.8199159,2.61462124 12.8199159,2.97139071" id="Fill-16" fill="#1B325E"></path>
                <polyline id="Stroke-17" stroke="#1B325E" stroke-width="0.7" stroke-linecap="round" stroke-linejoin="round" points="8.98293112 9.32742391 8.98293112 5.59472796 11.7230293 5.59472796 11.7230293 10.1509637"></polyline>
                <path d="M11.1561454,8.42472016 C11.1561454,8.60292156 11.0106111,8.74775603 10.8311802,8.74775603 C10.6521177,8.74775603 10.5065834,8.60292156 10.5065834,8.42472016 C10.5065834,8.24615209 10.6521177,8.10168429 10.8311802,8.10168429 C11.0106111,8.10168429 11.1561454,8.24615209 11.1561454,8.42472016" id="Fill-18" fill="#052F5F"></path>
                <polygon id="Stroke-19" stroke="#1B325E" stroke-width="0.7" stroke-linecap="round" stroke-linejoin="round" points="13.0544288 8.27966569 15.3008156 8.27966569 15.3008156 5.59454462 13.0544288 5.59454462"></polygon>
            </g>
        </g>
    </g>
</svg>