<?xml version="1.0" encoding="UTF-8"?>
<svg width="22px" height="22px" viewBox="0 0 22 22" version="1.1" xmlns="http://www.w3.org/2000/svg" xmlns:xlink="http://www.w3.org/1999/xlink">
    <title>B4950372-A8BA-44EF-B6C5-BAC64234B570@1x</title>
    <g id="Final" stroke="none" stroke-width="1" fill="none" fill-rule="evenodd">
        <g id="My-Account-Transaction" transform="translate(-461.000000, -1218.000000)">
            <g id="Icon" transform="translate(461.523867, 1219.047602)">
                <path d="M5.22215213,9.91757773 L4.66657653,6.86095273 L3.96765438,3.0138555 C3.92973505,2.8058813 4.06992165,2.60670273 4.2807761,2.56953408 L18.7403924,0.00603209206 C18.9509596,-0.0311365587 19.1523342,0.107323759 19.1899663,0.315014235 L19.5909919,2.52073249" id="Fill-1" fill="#84EB9C"></path>
                <path d="M20.3003419,10.3004999 L5.60947508,10.3004999 C5.39574796,10.3004999 5.22223831,10.1291269 5.22223831,9.91746423 L5.22223831,2.90337098 C5.22223831,2.69227574 5.39574796,2.520619 5.60947508,2.520619 L20.3003419,2.520619 C20.5143563,2.520619 20.6881532,2.69227574 20.6881532,2.90337098 L20.6881532,9.91746423 C20.6881532,10.1291269 20.5143563,10.3004999 20.3003419,10.3004999" id="Fill-3" fill="#84EB9C"></path>
                <path d="M6.7920123,4.85864062 L6.7920123,8.18282316 C7.31110491,8.18282316 7.73166473,8.54968626 7.73166473,9.00195213 C7.73166473,9.0167061 7.72764298,9.03060888 7.72678118,9.04564658 L18.162927,9.04564658 C18.1620652,9.03060888 18.1577562,9.0167061 18.1577562,9.00195213 C18.1577562,8.54968626 18.5786033,8.18282316 19.0976959,8.18282316 C19.1088994,8.18282316 19.1195283,8.18537673 19.1307317,8.1859442 L19.1307317,4.85551959 C19.1195283,4.85580332 19.1088994,4.85864062 19.0976959,4.85864062 C18.5786033,4.85864062 18.1577562,4.49177753 18.1577562,4.03951166 L7.73166473,4.03951166 C7.73166473,4.49177753 7.31110491,4.85864062 6.7920123,4.85864062" id="Fill-5" fill="#84EB9C"></path>
                <path d="M2.57052824,16.6306617 L5.04849885,14.0816299 C5.04849885,14.0816299 6.10133473,12.7395863 7.71434249,12.7395863 L12.9615731,12.7395863 C12.9615731,12.7395863 13.6619316,14.4643819 11.8886285,15.2415188 C11.8886285,15.2415188 14.4188818,15.2852132 16.5320225,14.0827648 C16.5320225,14.0827648 19.0166003,12.4320228 20.6879234,14.1046121 L16.1140481,17.5141974 C16.1140481,17.5141974 14.6708155,18.5316537 12.0681707,18.7504097 C11.8377821,18.7694196 11.6073935,18.7881458 11.3778666,18.8162351 L7.81689703,19.2517609 C6.75257045,19.381993 5.68106218,19.4475347 4.6086921,19.4475347 L2.57052824,19.4475347" id="Fill-7" fill="#F5D9BA"></path>
                <g id="Group-12" transform="translate(0.000000, 15.571951)">
                    <path d="M0,0 L1.60324066,0 C2.13727119,0 2.57047079,0.444888889 2.57047079,0.993906746 L2.57047079,3.77190873 C2.57047079,4.32092659 2.13727119,4.76581548 1.60324066,4.76581548 L0,4.76581548" id="Fill-9" fill="#ED6262"></path>
                    <path d="M0,0 L1.60324066,0 C2.13727119,0 2.57047079,0.444888889 2.57047079,0.993906746 L2.57047079,3.77190873 C2.57047079,4.32092659 2.13727119,4.76581548 1.60324066,4.76581548 L0,4.76581548" id="Stroke-11" stroke="#1B325E" stroke-width="0.7" stroke-linecap="round" stroke-linejoin="round"></path>
                </g>
                <path d="M2.57052824,16.6306617 L5.04849885,14.0816299 C5.04849885,14.0816299 6.10133473,12.7395863 7.71434249,12.7395863 L12.9615731,12.7395863 C12.9615731,12.7395863 13.6619316,14.4643819 11.8886285,15.2415188 C11.8886285,15.2415188 14.4188818,15.2852132 16.5320225,14.0827648 C16.5320225,14.0827648 19.0166003,12.4320228 20.6879234,14.1046121 L16.1140481,17.5141974 C16.1140481,17.5141974 14.6708155,18.5316537 12.0681707,18.7504097 C11.8377821,18.7694196 11.6073935,18.7881458 11.3778666,18.8162351 L7.81689703,19.2517609 C6.75257045,19.381993 5.68106218,19.4475347 4.6086921,19.4475347 L2.57052824,19.4475347" id="Stroke-13" stroke="#1B325E" stroke-width="0.7" stroke-linecap="round" stroke-linejoin="round"></path>
                <line x1="8.03674295" y1="15.2122946" x2="11.8884274" y2="15.2418025" id="Stroke-15" stroke="#1B325E" stroke-width="0.7" stroke-linecap="round" stroke-linejoin="round"></line>
                <path d="M20.3003419,10.3004999 L5.60947508,10.3004999 C5.39574796,10.3004999 5.22223831,10.1291269 5.22223831,9.91746423 L5.22223831,2.90337098 C5.22223831,2.69227574 5.39574796,2.520619 5.60947508,2.520619 L20.3003419,2.520619 C20.5143563,2.520619 20.6881532,2.69227574 20.6881532,2.90337098 L20.6881532,9.91746423 C20.6881532,10.1291269 20.5143563,10.3004999 20.3003419,10.3004999 Z" id="Stroke-17" stroke="#1B325E" stroke-width="0.7" stroke-linecap="round" stroke-linejoin="round"></path>
                <path d="M6.7920123,4.85864062 L6.7920123,8.18282316 C7.31110491,8.18282316 7.73166473,8.54968626 7.73166473,9.00195213 C7.73166473,9.0167061 7.72764298,9.03060888 7.72678118,9.04564658 L18.162927,9.04564658 C18.1620652,9.03060888 18.1577562,9.0167061 18.1577562,9.00195213 C18.1577562,8.54968626 18.5786033,8.18282316 19.0976959,8.18282316 C19.1088994,8.18282316 19.1195283,8.18537673 19.1307317,8.1859442 L19.1307317,4.85551959 C19.1195283,4.85580332 19.1088994,4.85864062 19.0976959,4.85864062 C18.5786033,4.85864062 18.1577562,4.49177753 18.1577562,4.03951166 L7.73166473,4.03951166 C7.73166473,4.49177753 7.31110491,4.85864062 6.7920123,4.85864062 Z" id="Stroke-19" stroke="#1B325E" stroke-width="0.7" stroke-linecap="round" stroke-linejoin="round"></path>
                <path d="M9.85434273,6.54243725 C9.85434273,6.87582019 9.58086394,7.14564757 9.24361174,7.14564757 C8.90635954,7.14564757 8.63288075,6.87582019 8.63288075,6.54243725 C8.63288075,6.20933804 8.90635954,5.93922693 9.24361174,5.93922693 C9.58086394,5.93922693 9.85434273,6.20933804 9.85434273,6.54243725" id="Fill-21" fill="#052F5F"></path>
                <path d="M17.1830284,6.54243725 C17.1830284,6.87582019 16.9098369,7.14564757 16.5722974,7.14564757 C16.2350452,7.14564757 15.9615664,6.87582019 15.9615664,6.54243725 C15.9615664,6.20933804 16.2350452,5.93922693 16.5722974,5.93922693 C16.9098369,5.93922693 17.1830284,6.20933804 17.1830284,6.54243725" id="Fill-23" fill="#052F5F"></path>
                <line x1="11.8873645" y1="4.99023467" x2="13.8597441" y2="4.99023467" id="Stroke-25" stroke="#1B325E" stroke-width="0.564705873" stroke-linecap="round" stroke-linejoin="round"></line>
                <line x1="11.8873645" y1="5.93065828" x2="13.8597441" y2="5.93065828" id="Stroke-27" stroke="#1B325E" stroke-width="0.564705873" stroke-linecap="round" stroke-linejoin="round"></line>
                <path d="M12.470604,4.99023467 C12.9319558,4.99023467 13.3059783,5.44051443 13.3059783,5.99605808 C13.3059783,6.55160173 12.9319558,6.84072277 12.470604,6.84072277 L11.8874507,6.84072277 L13.3246506,8.24830808" id="Stroke-29" stroke="#1B325E" stroke-width="0.564705873" stroke-linecap="round" stroke-linejoin="round"></path>
                <path d="M5.22215213,9.91757773 L4.66657653,6.86095273 L3.96765438,3.0138555 C3.92973505,2.8058813 4.06992165,2.60670273 4.2807761,2.56953408 L18.7403924,0.00603209206 C18.9509596,-0.0311365587 19.1523342,0.107323759 19.1899663,0.315014235 L19.5909919,2.52073249" id="Stroke-31" stroke="#1B325E" stroke-width="0.7" stroke-linecap="round" stroke-linejoin="round"></path>
            </g>
        </g>
    </g>
</svg>