<?xml version="1.0" encoding="UTF-8"?>
<svg width="26px" height="20px" viewBox="0 0 26 20" version="1.1" xmlns="http://www.w3.org/2000/svg" xmlns:xlink="http://www.w3.org/1999/xlink">
    <title>7AD9EFEB-2FBB-4C6C-A143-F3C0676482B6@2x</title>
    <g id="Final" stroke="none" stroke-width="1" fill="none" fill-rule="evenodd">
        <g id="My-Account-Transaction" transform="translate(-459.000000, -1501.000000)">
            <g id="Group-10" transform="translate(460.000000, 1499.000000)">
                <rect id="Rectangle" x="0" y="0" width="24" height="24"></rect>
                <g id="stepup-credit-card" transform="translate(0.000000, 3.000000)">
                    <g id="Icon">
                        <path d="M21.1932373,13.6796596 L1.11477907,13.6796596 C0.499415645,13.6796596 0,13.1910686 0,12.5879024 L0,5.51913606 L22.3076803,5.51913606 L22.3076803,12.5879024 C22.3076803,13.1910686 21.8086007,13.6796596 21.1932373,13.6796596" id="Fill-1" fill="#8770F7" fill-rule="nonzero"></path>
                        <polygon id="Fill-3" fill="#FFFFFF" fill-rule="nonzero" points="0.000235256359 5.51923481 22.3079155 5.51923481 22.3079155 3.07792589 0.000235256359 3.07792589"></polygon>
                        <path d="M22.3078147,3.07776127 L0.000134432454,3.07776127 L0.000134432454,1.09211946 C0.000134432454,0.489282422 0.499214,3.29237946e-05 1.11457742,3.29237946e-05 L21.1933717,3.29237946e-05 C21.8087352,3.29237946e-05 22.3078147,0.489282422 22.3078147,1.09211946 L22.3078147,3.07776127 Z" id="Fill-5" fill="#8770F7" fill-rule="nonzero"></path>
                        <path d="M11.9206022,13.6796267 C9.51896465,13.6796267 5.91650827,13.6796267 1.1132331,13.6796267 C0.498205755,13.6796267 0.000134432454,13.1916942 0.000134432454,12.5898449 L0.000134432454,3.0777942 L19.4770085,3.0777942" id="Stroke-6" stroke="#1B325E" stroke-width="0.7" stroke-linecap="round" stroke-linejoin="round"></path>
                        <path d="M0.00016804042,1.09044034 C0.00016804042,0.488261783 0.498239366,0 1.11326671,0 L21.1950858,0 C21.809777,0 22.3078483,0.488261783 22.3078483,1.09044034 L22.3078483,5.51903725 L2.76476636,5.51903725" id="Stroke-7" stroke="#1B325E" stroke-width="0.7" stroke-linecap="round" stroke-linejoin="round"></path>
                        <line x1="2.75673404" y1="10.9264624" x2="6.18068646" y2="10.9264624" id="Stroke-8" stroke="#1B325E" stroke-width="0.7" stroke-linecap="round" stroke-linejoin="round"></line>
                        <line x1="9.29289511" y1="10.9264624" x2="12.2550842" y2="10.9264624" id="Stroke-9" stroke="#1B325E" stroke-width="0.7" stroke-linecap="round" stroke-linejoin="round"></line>
                    </g>
                    <g id="Icon" transform="translate(13.818182, 7.920000)">
                        <path d="M9.26290909,8.997057 L0.918909091,8.997057 C0.411515152,8.997057 0,8.58982568 0,8.08733852 L0,0.909718484 C0,0.407399321 0.411515152,0 0.918909091,0 L9.26290909,0 C9.77030303,0 10.1818182,0.407399321 10.1818182,0.909718484 L10.1818182,8.08733852 C10.1818182,8.58982568 9.77030303,8.997057 9.26290909,8.997057" id="Fill-2" fill="#CED8E2"></path>
                        <path d="M9.26290909,8.997057 L0.918909091,8.997057 C0.411515152,8.997057 0,8.58982568 0,8.08733852 L0,0.909718484 C0,0.407399321 0.411515152,0 0.918909091,0 L9.26290909,0 C9.77030303,0 10.1818182,0.407399321 10.1818182,0.909718484 L10.1818182,8.08733852 C10.1818182,8.58982568 9.77030303,8.997057 9.26290909,8.997057 Z" id="Stroke-4" stroke="#1B325E" stroke-width="0.7" stroke-linecap="round" stroke-linejoin="round"></path>
                        <path d="M3.56711011,6.96899776 C3.18082439,6.96899776 2.86753247,6.64222831 2.86753247,6.23902392 L2.86753247,2.6364716 C2.86753247,2.23340202 3.18082439,1.90649776 3.56711011,1.90649776 L7.5393834,1.90649776 C7.92566911,1.90649776 8.23896104,2.23340202 8.23896104,2.6364716 L8.23896104,6.23902392 C8.23896104,6.64222831 7.92566911,6.96899776 7.5393834,6.96899776 L3.56711011,6.96899776 Z" id="Fill-6" fill="#9AAFC3"></path>
                        <path d="M8.23030303,4.62376217 L8.23030303,6.11616087 C8.23030303,6.61444804 7.81878788,7.01831937 7.31139394,7.01831937 L3.61154978,7.01831937 C3.10415584,7.01831937 2.69264069,6.61444804 2.69264069,6.11616087 L2.69264069,4.82816107" id="Stroke-8" stroke="#1B325E" stroke-width="0.7" stroke-linecap="round" stroke-linejoin="round"></path>
                        <path d="M2.69264069,4.24242376 L2.69264069,2.88091294 C2.69264069,2.38262577 3.10415584,1.97875444 3.61154978,1.97875444 L7.31139394,1.97875444 C7.81878788,1.97875444 8.23030303,2.38262577 8.23030303,2.88091294" id="Stroke-10" stroke="#1B325E" stroke-width="0.7" stroke-linecap="round" stroke-linejoin="round"></path>
                        <path d="M1.80339993,3.38158175 C2.31226329,3.23 2.44164641,3.28792679 2.53530137,3.38158175 C2.62895632,3.47523671 2.68688312,3.60461982 2.68688312,3.74753247 L2.68688312,3.74753247 L2.68688312,5.4837718 C2.68688312,5.62668444 2.62895632,5.75606756 2.53530137,5.84972251 C2.44164641,5.94337747 2.31226329,6.00130426 2.16935065,6.00130426 C2.026438,6.00130426 1.89705489,5.94337747 1.80339993,5.84972251 C1.70974498,5.75606756 1.65181818,5.62668444 1.65181818,5.4837718 L1.65181818,5.4837718 L1.65181818,3.74753247 C1.65181818,3.60461982 1.70974498,3.47523671 1.80339993,3.38158175 Z" id="Fill-12" stroke="#1B325E" stroke-width="0.7" fill="#FFFFFF"></path>
                        <line x1="2.29090909" y1="9.08040167" x2="2.29090909" y2="10.08" id="Stroke-15" stroke="#1B325E" stroke-width="0.7" stroke-linecap="round" stroke-linejoin="round"></line>
                        <line x1="8.06060606" y1="9.08040167" x2="8.06060606" y2="10.08" id="Stroke-16" stroke="#1B325E" stroke-width="0.7" stroke-linecap="round" stroke-linejoin="round"></line>
                        <g id="Group-14" transform="translate(4.363636, 3.456000)" stroke="#1B325E" stroke-linecap="round" stroke-linejoin="round" stroke-width="0.545454545">
                            <path d="M1.7038961,1.1115 C1.7038961,1.4221608 1.44808146,1.674 1.13240797,1.674 C0.816794046,1.674 0.561038961,1.4221608 0.561038961,1.1115 C0.561038961,0.800839201 0.816794046,0.549 1.13240797,0.549 C1.44808146,0.549 1.7038961,0.800839201 1.7038961,1.1115 Z" id="Stroke-18" fill="#FFFFFF"></path>
                            <line x1="1.11501378" y1="0" x2="1.11501378" y2="0.360045403" id="Stroke-19"></line>
                            <line x1="1.85955117" y1="0.313620885" x2="1.6033144" y2="0.569088157" id="Stroke-20"></line>
                            <line x1="2.18181818" y1="1.09576259" x2="1.81815908" y2="1.09997929" id="Stroke-21"></line>
                            <line x1="1.87051325" y1="1.83562618" x2="1.61056181" y2="1.58371547" id="Stroke-22"></line>
                            <line x1="1.13210917" y1="2.16" x2="1.12378465" y2="1.80003027" id="Stroke-23"></line>
                            <line x1="0.333145704" y1="1.85720772" x2="0.585667798" y2="1.59818388" id="Stroke-24"></line>
                            <line x1="0" y1="1.12965799" x2="0.363659107" y2="1.11713194" id="Stroke-25"></line>
                            <line x1="0.300418659" y1="0.335535376" x2="0.563933159" y2="0.583738176" id="Stroke-26"></line>
                        </g>
                    </g>
                </g>
            </g>
        </g>
    </g>
</svg>