<?xml version="1.0" encoding="UTF-8"?>
<svg width="24px" height="24px" viewBox="0 0 24 24" version="1.1" xmlns="http://www.w3.org/2000/svg" xmlns:xlink="http://www.w3.org/1999/xlink">
    <title>F7673BBF-5D2D-4BD2-B83D-5E2783A1A4EA@2x</title>
    <g id="Final" stroke="none" stroke-width="1" fill="none" fill-rule="evenodd">
        <g id="My-Account-Transaction" transform="translate(-460.000000, -1430.000000)">
            <g id="Group-7" transform="translate(460.000000, 1430.000000)">
                <rect id="Rectangle" x="0" y="0" width="24" height="24"></rect>
                <g id="Group-6-Copy" transform="translate(2.000000, 0.491927)">
                    <g id="3668836_bill_fee_tax_icon" transform="translate(7.589227, 10.496814) rotate(-180.000000) translate(-7.589227, -10.496814) ">
                        <path d="M0.00496245714,20.2965121 C0.00496245714,20.5837001 0.237774379,20.816512 0.524962438,20.816512 C0.645473474,20.816512 0.762243209,20.7746551 0.855311112,20.6980961 L2.41261119,19.4170391 C2.60890356,19.2555663 2.89315991,19.2596562 3.08472542,19.4267095 L4.7176925,20.8507272 C4.91496898,21.0227607 5.20936891,21.0213438 5.40498028,20.8474192 L6.99675221,19.4321219 C7.18780262,19.2622526 7.47398882,19.2564518 7.67176576,19.4184398 L9.45125044,20.8759158 C9.64608703,21.0354955 9.92727474,21.0325154 10.1186854,20.8688421 L11.8453461,19.3923915 C12.0219425,19.2413857 12.2772877,19.2258641 12.4708746,19.3543678 L14.3708686,20.6155914 C14.6101392,20.7744202 14.9328624,20.7092092 15.0916912,20.4699386 C15.1482732,20.3846995 15.1784535,20.2846632 15.1784535,20.1823537 L15.1784535,1.00722236 C15.1784535,0.402888942 14.773827,0 14.1668874,0 C10.5490459,0 1.80892074,0 -1.3087575e-14,0 C0.00330830476,11.0924444 0.00496245714,17.8579485 0.00496245714,20.2965121 Z" id="Path" fill="#EAF5FF" fill-rule="nonzero"></path>
                        <path d="M0.00496245714,9.32297591 C0.00496245714,12.9808213 0.00496245714,16.6386667 0.00496245714,20.2965121 C0.00496245714,20.5837001 0.237774379,20.816512 0.524962438,20.816512 C0.645473474,20.816512 0.762243209,20.7746551 0.855311112,20.6980961 L2.41261119,19.4170391 C2.60890356,19.2555663 2.89315991,19.2596562 3.08472542,19.4267095 L4.7176925,20.8507272 C4.91496898,21.0227607 5.20936891,21.0213438 5.40498028,20.8474192 L6.99675221,19.4321219 C7.18780262,19.2622526 7.47398882,19.2564518 7.67176576,19.4184398 L9.45125044,20.8759158 C9.64608703,21.0354955 9.92727474,21.0325154 10.1186854,20.8688421 L11.8453461,19.3923915 C12.0219425,19.2413857 12.2772877,19.2258641 12.4708746,19.3543678 L14.3708686,20.6155914 C14.6101392,20.7744202 14.9328624,20.7092092 15.0916912,20.4699386 C15.1482732,20.3846995 15.1784535,20.2846632 15.1784535,20.1823537 L15.1784535,1.00722236 C15.1784535,0.402888942 14.773827,0 14.1668874,0 C10.5490459,0 7.83566482,0 6.02674408,0" id="Shape" stroke="#052F5F" stroke-width="0.7" fill="#EAF5FF" fill-rule="nonzero" stroke-linecap="round"></path>
                        <line x1="6.15022632" y1="6.39219061" x2="12.2575565" y2="6.39219061" id="Line" stroke="#052F5F" stroke-width="0.7" stroke-linecap="round"></line>
                        <line x1="8.54005116" y1="3.83531437" x2="12.2575565" y2="3.83531437" id="Line-Copy" stroke="#052F5F" stroke-width="0.7" stroke-linecap="round"></line>
                    </g>
                    <g id="Group-2-Copy" transform="translate(2.655361, 5.109939)" stroke="#1B325E" stroke-linecap="round" stroke-linejoin="round" stroke-width="0.7">
                        <line x1="0" y1="0.25216282" x2="4.04626427" y2="0.25216282" id="Stroke-25"></line>
                        <line x1="0" y1="1.92375015" x2="4.04626427" y2="1.92375015" id="Stroke-27"></line>
                        <path d="M1.19649437,0.25216282 C2.14294069,0.25216282 2.91023403,1.05252761 2.91023403,2.03999721 C2.91023403,3.02746681 2.14294069,3.54137464 1.19649437,3.54137464 L0.000176795704,3.54137464 L2.94853977,6.04333414" id="Stroke-29"></path>
                    </g>
                    <g id="Group-3-Copy" transform="translate(9.824835, 13.036572)" stroke="#052F5F" stroke-width="0.7">
                        <path d="M5,0 C7.76142375,-5.07265313e-16 10,2.23857625 10,5 C10,7.76142375 7.76142375,10 5,10 C2.23857625,10 3.38176876e-16,7.76142375 0,5 C-3.38176876e-16,2.23857625 2.23857625,5.07265313e-16 5,0 Z" id="Rectangle-Copy-2" fill="#8DFFA7" fill-rule="nonzero"></path>
                        <polyline id="Path-3" stroke-linecap="round" stroke-linejoin="round" points="2.9219222 5.03989857 4.44392386 6.75617406 7.78531388 3.32362309"></polyline>
                    </g>
                </g>
            </g>
        </g>
    </g>
</svg>