<?xml version="1.0" encoding="UTF-8"?>
<svg width="107px" height="37px" viewBox="0 0 107 37" version="1.1" xmlns="http://www.w3.org/2000/svg" xmlns:xlink="http://www.w3.org/1999/xlink">
    <title>Combined Shape@2x</title>
    <g id="Final---Revamp-Bureaus---Mobile-&amp;-Desktop--Copy-3" stroke="none" stroke-width="1" fill="none" fill-rule="evenodd">
        <g id="Credit-Report-Styleguide" transform="translate(-605.000000, -2658.000000)" fill="#F4F6F9" stroke="#DCE1E6">
            <path d="M676,2658.5 C676.653507,2658.5 677.29429,2658.55446 677.918047,2658.65916 C679.734656,2658.58778 681.367724,2659.04491 682.753686,2659.90847 C684.162299,2660.78613 685.315714,2662.08321 686.038459,2663.66522 L686.038459,2663.66522 L695.699384,2684.81194 C697.133919,2687.95198 699.389727,2690.5518 702.146493,2692.40124 C703.443115,2693.27111 704.85056,2693.97498 706.335499,2694.49099 L706.335499,2694.49099 L678.021266,2694.49999 C677.577924,2694.46289 677.12635,2694.47451 676.668015,2694.48742 C676.446941,2694.49366 676.224204,2694.5 676,2694.5 L676,2694.5 L617,2694.5 C613.824363,2694.5 610.949363,2693.21282 608.868272,2691.13173 C606.787181,2689.05064 605.5,2686.17564 605.5,2683 L605.5,2683 L605.5,2670 C605.5,2666.82436 606.787181,2663.94936 608.868272,2661.86827 C610.949363,2659.78718 613.824363,2658.5 617,2658.5 L617,2658.5 Z" id="Combined-Shape"></path>
        </g>
    </g>
</svg>