<?xml version="1.0" encoding="UTF-8"?>
<svg width="118px" height="43px" viewBox="0 0 118 43" version="1.1" xmlns="http://www.w3.org/2000/svg" xmlns:xlink="http://www.w3.org/1999/xlink">
    <title>37992CA6-0946-4CF8-825C-4B86F93812C6@2x</title>
    <g id="Final---Revamp-Bureaus---Mobile-&amp;-Desktop--Copy-3" stroke="none" stroke-width="1" fill="none" fill-rule="evenodd">
        <g id="Credit-Report-Styleguide" transform="translate(-652.000000, -2735.000000)">
            <g id="Active-" transform="translate(652.000000, 2736.000000)">
                <path d="M0,41 L0.318767837,40.9872265 C4.98193733,40.7390951 9.09945788,37.8257453 10.8766572,33.4868614 L10.8766572,33.4868614 L20.5232786,9.93544 C22.9848773,3.92565207 28.8350123,-1.19299893e-15 35.3293959,0 L35.3293959,0 L82.4299467,0 C88.9243303,-1.19299893e-15 94.7744653,3.92565207 97.2360641,9.93544 L106.882685,33.4868614 C108.659885,37.8257453 112.777405,40.7390951 117.440575,40.9872265 L117.759343,41 L0,41 Z" id="Combined-Shape" fill="#FFFFFF"></path>
                <g id="Group-19" transform="translate(0.176718, 0.000000)" stroke="#B0B1E9" stroke-linecap="round" stroke-linejoin="round">
                    <path d="M117.267509,40.6729623 C110.855061,40.0188868 108.221765,35.52649 107.885638,35.0723711 C101.266359,26.1295219 98.7209139,0.881673286 85.0239602,0 C61.5368158,0 45.8621624,0 38,0" id="Path"></path>
                    <path d="M79.2675086,40.6729623 C72.8550605,40.0188868 70.2217653,35.52649 69.8856375,35.0723711 C63.2663589,26.1295219 60.7209139,0.881673286 47.0239602,0 C23.5368158,0 7.86216244,0 0,0" id="Path" transform="translate(39.633754, 20.336481) scale(-1, 1) translate(-39.633754, -20.336481) "></path>
                </g>
            </g>
        </g>
    </g>
</svg>