<?xml version="1.0" encoding="UTF-8"?>
<svg width="43px" height="43px" viewBox="0 0 43 43" version="1.1" xmlns="http://www.w3.org/2000/svg" xmlns:xlink="http://www.w3.org/1999/xlink">
    <title>1CA45037-C10B-48ED-9C98-1E26E267144B@2x</title>
    <g id="Final---Revamp-Bureaus---Mobile-&amp;-Desktop--Copy-3" stroke="none" stroke-width="1" fill="none" fill-rule="evenodd">
        <g id="Credit-Report-Styleguide" transform="translate(-843.000000, -2436.000000)">
            <g id="Group-20" transform="translate(843.490835, 2437.000000)">
                <g id="Group-18-Copy">
                    <path d="M0,3.63797881e-12 L4.57326129,3.63797881e-12 C11.0362806,3.63679157e-12 16.8646345,3.88832116 19.3465112,9.85580865 L28.2554822,31.2767651 C30.6593451,37.056674 36.2506336,40.870805 42.5091648,41 L42.5091648,41 L42.5091648,41 L0,41 L0,3.63797881e-12 Z" id="Rectangle" fill="#F4F6F9"></path>
                    <path d="M42.0633689,40.9733661 C34.3468762,40.9733661 30.5179947,35.52649 30.1815913,35.0723711 C23.5568846,26.1295219 21.0093522,0.881673286 7.30116635,4.54747351e-13 L1.50916481,4.54747351e-13 L0.50916481,4.54747351e-13" id="Path" stroke="#DCE1E6" stroke-linecap="round" stroke-linejoin="round"></path>
                </g>
                <line x1="0.50916481" y1="40.9733661" x2="42.0844218" y2="41" id="Path-15" stroke="#B0B1E9" stroke-linecap="round"></line>
            </g>
        </g>
    </g>
</svg>