<?xml version="1.0" encoding="UTF-8"?>
<svg width="13px" height="13px" viewBox="0 0 13 13" version="1.1" xmlns="http://www.w3.org/2000/svg" xmlns:xlink="http://www.w3.org/1999/xlink">
    <title>6F086192-DE0C-4523-9834-99730B7A71C6</title>
    <g id="Page-2" stroke="none" stroke-width="1" fill="none" fill-rule="evenodd">
        <g id="1_My-Account_Mobile-app" transform="translate(-272.000000, -33.000000)" fill="#052F5F" fill-rule="nonzero">
            <g id="Group-30" transform="translate(16.000000, 12.000000)">
                <g id="close-button" transform="translate(232.000000, 0.000000)">
                    <g id="hamburger-close-icon" transform="translate(24.000000, 21.000000)">
                        <path d="M1.70710678,12.1431721 L12.1431721,1.70710678 C12.5336964,1.31658249 12.5336964,0.683417511 12.1431721,0.292893219 C11.7526478,-0.0976310729 11.1194829,-0.0976310729 10.7289586,0.292893219 L0.292893219,10.7289586 C-0.0976310729,11.1194829 -0.0976310729,11.7526478 0.292893219,12.1431721 C0.683417511,12.5336964 1.31658249,12.5336964 1.70710678,12.1431721 Z" id="Path-3"></path>
                        <path d="M1.70710678,12.1431721 L12.1431721,1.70710678 C12.5336964,1.31658249 12.5336964,0.683417511 12.1431721,0.292893219 C11.7526478,-0.0976310729 11.1194829,-0.0976310729 10.7289586,0.292893219 L0.292893219,10.7289586 C-0.0976310729,11.1194829 -0.0976310729,11.7526478 0.292893219,12.1431721 C0.683417511,12.5336964 1.31658249,12.5336964 1.70710678,12.1431721 Z" id="Path-3" transform="translate(6.218033, 6.218033) scale(-1, 1) translate(-6.218033, -6.218033) "></path>
                    </g>
                </g>
            </g>
        </g>
    </g>
</svg>