<?xml version="1.0" encoding="UTF-8"?>
<svg width="146px" height="24px" viewBox="0 0 146 24" version="1.1" xmlns="http://www.w3.org/2000/svg" xmlns:xlink="http://www.w3.org/1999/xlink">
    <title>Paisabazaar Logo@1x</title>
    <g id="Page-1" stroke="none" stroke-width="1" fill="none" fill-rule="evenodd">
        <g id="Paisabazaar-Logo" fill-rule="nonzero">
            <path d="M58.4109567,7.92257382 C58.956523,7.60091045 59.5443373,7.4402058 60.1750301,7.4402058 C61.117349,7.4402058 61.8225748,7.8772208 62.2903291,8.75125081 C62.7579574,9.62553489 62.9917715,10.9367069 62.9917715,12.6851481 C62.9917715,14.3351338 62.7507689,15.572369 62.269016,16.3974889 C61.787263,17.2223547 61.0608502,17.6349781 60.0901558,17.6349781 C59.5800274,17.6349781 59.0591793,17.5252162 58.5278638,17.3056924 C57.99617,17.0862956 57.4506037,16.757137 56.8909127,16.3180893 L56.8909127,9.37005897 C57.3584148,8.72685927 57.8650121,8.24436422 58.4109567,7.92257382 L58.4109567,7.92257382 Z M52.8378822,0.692643369 L52.8378822,1.39580559 L53.0394113,1.40711208 C53.8952164,1.4677098 54.4028226,1.59805206 54.5619776,1.79839295 C54.7211327,1.99873384 54.8007102,2.60915741 54.8007102,3.6297907 L54.8007102,18.7348839 L56.4983218,18.7348839 L56.7635382,17.204061 L56.8909127,17.204061 C57.3716567,17.7635419 57.9023416,18.1831525 58.4825891,18.4626388 C59.0624582,18.7423792 59.6884849,18.8823765 60.3604167,18.8823765 C61.8247187,18.8823765 62.9987078,18.2620438 63.8830145,17.0209975 C64.7671951,15.7802052 65.2092224,14.1304735 65.2092224,12.0721837 C65.2092224,10.218427 64.8236939,8.74286622 64.0527631,7.64562826 C63.2817061,6.54851735 62.2454328,5.99983485 60.9440693,5.99983485 C60.1163874,5.99983485 59.3646258,6.21554749 58.6892889,6.64659164 C58.0138258,7.07801692 57.4144091,7.72464667 56.8909127,8.58686202 L56.8909127,0.692643369 L52.8378822,0.692643369 Z" id="Fill-1" fill="#000000"></path>
            <path d="M72.4168015,16.6731005 C71.5918941,17.270439 70.8762009,17.5691083 70.2697219,17.5691083 C69.6281833,17.5691083 69.0923277,17.3337046 68.6622813,16.8630242 C68.2321087,16.3924708 68.0170854,15.8002138 68.0170854,15.0866344 C68.0170854,14.130283 68.362636,13.3787188 69.0534848,12.8320689 C69.7444598,12.2856731 70.7034257,12.0122847 71.9302562,12.0122847 L72.4168015,12.0122847 L72.4168015,16.6731005 Z M71.9830977,11.320556 C69.6774936,11.320556 68.0418036,11.7371177 67.0759016,12.5698599 C66.2299333,13.2967785 65.806823,14.2432209 65.806823,15.4091871 C65.806823,16.4084778 66.1313127,17.2395685 66.780418,17.9022052 C67.4295234,18.5645878 68.2410627,18.8956521 69.2146577,18.8956521 C70.4281202,18.8956521 71.6560858,18.2400025 72.89805,16.9281953 C73.1719681,18.2400025 73.8224608,18.8956521 74.8490233,18.8956521 C75.2438842,18.8956521 75.6918388,18.8011349 76.1922565,18.6119734 L76.1288215,17.7714818 C75.8962685,17.8405912 75.7093685,17.8751458 75.5683738,17.8751458 C75.173513,17.8751458 74.8966942,17.6748049 74.7381697,17.273615 C74.579393,16.8725521 74.5001938,16.1800612 74.5001938,15.1963963 L74.5001938,9.70245715 C74.5001938,7.24297738 73.2521762,6.01336453 70.7562671,6.01336453 C69.5011872,6.01336453 68.1404243,6.3573868 66.6741045,7.04530431 L66.6741045,9.30202945 L68.0912401,9.30202945 L68.1017075,9.08644385 C68.1793933,8.29270265 68.362636,7.76726834 68.6516877,7.51014091 C69.1451692,7.08684614 69.7128054,6.87519876 70.35447,6.87519876 C71.7293577,6.87519876 72.4168015,7.84666787 72.4168015,9.78960607 L72.4168015,11.320556 L71.9830977,11.320556 Z" id="Fill-3" fill="#000000"></path>
            <path d="M77.9319648,18.6108047 L87.9660465,18.6108047 L87.9660465,17.7751405 L84.7143402,17.7696778 L80.4662123,17.7696778 L87.7416909,6.9585111 L87.7416909,6.2651309 L78.231484,6.2651309 L78.231484,8.95925216 L79.3547755,8.95925216 L79.3656212,8.72054542 C79.3797459,8.49327221 79.3868083,8.22039192 79.3868083,7.90215861 C79.3868083,7.43224044 79.4759704,7.1575816 79.6542947,7.07792799 C79.8326189,6.99840142 80.4460342,6.9585111 81.4942883,6.9585111 L85.2863903,6.9585111 L77.9319648,17.905991 L77.9319648,18.6108047 Z" id="Fill-5" fill="#000000"></path>
            <path d="M95.5009528,16.6731005 C94.6746582,17.270439 93.9578299,17.5691083 93.3504681,17.5691083 C92.7077945,17.5691083 92.17093,17.3337046 91.7401269,16.8630242 C91.3093237,16.3924708 91.0939221,15.8002138 91.0939221,15.0866344 C91.0939221,14.130283 91.4401032,13.3787188 92.1322133,12.8320689 C92.8241971,12.2856731 93.7849286,12.0122847 95.0136508,12.0122847 L95.5009528,12.0122847 L95.5009528,16.6731005 Z M95.0666184,11.320556 C92.7571048,11.320556 91.1186403,11.7371177 90.1510988,12.5698599 C89.3034911,13.2967785 88.8797502,14.2432209 88.8797502,15.4091871 C88.8797502,16.4084778 89.2049965,17.2395685 89.8552369,17.9022052 C90.5053512,18.5645878 91.3181516,18.8956521 92.2936383,18.8956521 C93.5089926,18.8956521 94.738976,18.2400025 95.9828318,16.9281953 C96.2573806,18.2400025 96.9090082,18.8956521 97.9374625,18.8956521 C98.3329539,18.8956521 98.7814129,18.8011349 99.2829657,18.6119734 L99.2194046,17.7714818 C98.9863471,17.8405912 98.7990688,17.8751458 98.657948,17.8751458 C98.2623304,17.8751458 97.9852594,17.6748049 97.8261044,17.273615 C97.6674538,16.8725521 97.5878763,16.1800612 97.5878763,15.1963963 L97.5878763,9.70245715 C97.5878763,7.24297738 96.3378409,6.01336453 93.8378962,6.01336453 C92.5805462,6.01336453 91.2173871,6.3573868 89.7486711,7.04530431 L89.7486711,9.30202945 L91.1682029,9.30202945 L91.1786703,9.08644385 C91.2563561,8.29270265 91.4401032,7.76726834 91.7295334,7.51014091 C92.2238976,7.08684614 92.7924166,6.87519876 93.4350902,6.87519876 C94.8123739,6.87519876 95.5009528,7.84666787 95.5009528,9.78960607 L95.5009528,11.320556 L95.0666184,11.320556 Z" id="Fill-7" fill="#000000"></path>
            <path d="M107.281238,16.6731005 C106.456204,17.270439 105.740511,17.5691083 105.134158,17.5691083 C104.492619,17.5691083 103.956764,17.3337046 103.526843,16.8630242 C103.096545,16.3924708 102.881522,15.8002138 102.881522,15.0866344 C102.881522,14.130283 103.226946,13.3787188 103.917921,12.8320689 C104.60877,12.2856731 105.567736,12.0122847 106.794566,12.0122847 L107.281238,12.0122847 L107.281238,16.6731005 Z M106.847534,11.320556 C104.541804,11.320556 102.90624,11.7371177 101.940212,12.5698599 C101.094369,13.2967785 100.671259,14.2432209 100.671259,15.4091871 C100.671259,16.4084778 100.995749,17.2395685 101.644728,17.9022052 C102.293959,18.5645878 103.105499,18.8956521 104.07922,18.8956521 C105.292556,18.8956521 106.520396,18.2400025 107.76236,16.9281953 C108.036404,18.2400025 108.686897,18.8956521 109.713459,18.8956521 C110.10832,18.8956521 110.556149,18.8011349 111.056693,18.6119734 L110.993258,17.7714818 C110.760578,17.8405912 110.573679,17.8751458 110.43281,17.8751458 C110.037697,17.8751458 109.76113,17.6748049 109.602606,17.273615 C109.443829,16.8725521 109.364504,16.1800612 109.364504,15.1963963 L109.364504,9.70245715 C109.364504,7.24297738 108.116486,6.01336453 105.620703,6.01336453 C104.365497,6.01336453 103.00486,6.3573868 101.538414,7.04530431 L101.538414,9.30202945 L102.955676,9.30202945 L102.966017,9.08644385 C103.043829,8.29270265 103.226946,7.76726834 103.515998,7.51014091 C104.009605,7.08684614 104.577115,6.87519876 105.218906,6.87519876 C106.593794,6.87519876 107.281238,7.84666787 107.281238,9.78960607 L107.281238,11.320556 L106.847534,11.320556 Z" id="Fill-9" fill="#000000"></path>
            <path d="M113.504981,17.5234758 C113.346583,17.724833 112.841499,17.8558105 111.98973,17.9165352 L111.788957,17.9279687 L111.788957,18.6341799 L118.041152,18.6341799 L118.041152,17.9279687 L117.586892,17.9165352 C116.742058,17.8634328 116.236722,17.7342339 116.071388,17.5293196 C115.906053,17.3242783 115.823197,16.7089002 115.823197,15.6836935 L115.823197,9.63446575 C116.492102,8.42683069 117.347403,7.8231402 118.389603,7.8231402 C118.650027,7.8231402 118.810191,7.88958172 118.870095,8.02233773 C118.929873,8.15547486 118.998478,8.57495845 119.076038,9.28116961 L119.086632,9.48633799 L120.258981,9.48633799 L120.258981,6.10277475 C119.998431,6.01930997 119.762599,5.97751405 119.551359,5.97751405 C118.016308,5.97751405 116.773839,6.84722472 115.823197,8.58626494 L115.823197,6.262209 L111.788957,6.262209 L111.788957,6.96867424 L111.98973,6.97985369 C112.841499,7.04845489 113.346583,7.18133793 113.504981,7.37875692 C113.66338,7.57630295 113.742579,8.18761579 113.742579,9.21294953 L113.742579,15.6836935 C113.742579,16.7089002 113.66338,17.3223727 113.504981,17.5234758" id="Fill-11" fill="#000000"></path>
            <path d="M5.48908308,7.93366434 C6.00589554,7.61149282 6.56281204,7.45028002 7.16008482,7.45028002 C8.05258892,7.45028002 8.72010682,7.88818429 9.16314298,8.76399284 C9.60592691,9.63992843 9.82738194,10.9536413 9.82738194,12.7055124 C9.82738194,14.3585471 9.59911679,15.5983231 9.14309096,16.4249674 C8.68668678,17.2514848 7.99899075,17.6648705 7.07962451,17.6648705 C6.59635819,17.6648705 6.10312892,17.5549815 5.5999367,17.3349496 C5.09661837,17.1150446 4.5798059,16.7853778 4.04975154,16.3454409 L4.04975154,9.38394436 C4.49266159,8.73947427 4.97239673,8.2559629 5.48908308,7.93366434 L5.48908308,7.93366434 Z M7.10542736e-15,6.29130099 L7.10542736e-15,6.99560656 L0.201403002,7.00716713 C1.05645144,7.07538721 1.56367929,7.20788914 1.72270821,7.40467293 C1.88161102,7.6017108 1.96131465,8.21149917 1.96131465,9.23403805 L1.91540939,23.1186652 L4.04168029,23.1186652 L4.04975154,17.2325559 C4.51183081,17.7931801 5.02145482,18.21368 5.57900189,18.4940556 C6.13629673,18.7744312 6.73810959,18.9146826 7.38368377,18.9146826 C8.79073029,18.9146826 9.91881411,18.2932066 10.7686919,17.0497465 C11.6183175,15.8064134 12.0431933,14.1536328 12.0431933,12.0914047 C12.0431933,10.2339639 11.6726723,8.75548121 10.9318826,7.65608359 C10.1908406,6.55694005 9.19504965,6.00724124 7.94450979,6.00724124 C7.14911296,6.00724124 6.42686186,6.22320795 5.77800874,6.65526842 C5.12877727,7.08720185 4.55256542,7.735102 4.04975154,8.5990959 L4.04975154,6.29130099 L7.10542736e-15,6.29130099 Z" id="Fill-13" fill="#0066FF"></path>
            <path d="M19.9795436,16.6731005 C19.1547623,17.270439 18.4390691,17.5691083 17.8327162,17.5691083 C17.1910515,17.5691083 16.6551959,17.3337046 16.2251495,16.8630242 C15.7949769,16.3924708 15.5799536,15.8002138 15.5799536,15.0866344 C15.5799536,14.130283 15.9255042,13.3787188 16.616353,12.8320689 C17.307328,12.2856731 18.26642,12.0122847 19.4929983,12.0122847 L19.9795436,12.0122847 L19.9795436,16.6731005 Z M19.5459659,11.320556 C17.2404879,11.320556 15.6046718,11.7371177 14.6387698,12.5698599 C13.7928015,13.2967785 13.3695651,14.2432209 13.3695651,15.4091871 C13.3695651,16.4084778 13.694307,17.2395685 14.3432862,17.9022052 C14.9925177,18.5645878 15.8039309,18.8956521 16.7775259,18.8956521 C17.9911145,18.8956521 19.218954,18.2400025 20.4607921,16.9281953 C20.7348363,18.2400025 21.3852028,18.8956521 22.4120176,18.8956521 C22.8067524,18.8956521 23.2545809,18.8011349 23.7552508,18.6119734 L23.6916897,17.7714818 C23.4590106,17.8405912 23.2722367,17.8751458 23.131242,17.8751458 C22.7363811,17.8751458 22.4596885,17.6748049 22.3009118,17.273615 C22.1422612,16.8725521 22.0629359,16.1800612 22.0629359,15.1963963 L22.0629359,9.70245715 C22.0629359,7.24297738 20.8150444,6.01336453 18.3192614,6.01336453 C17.0641815,6.01336453 15.7032925,6.3573868 14.2369727,7.04530431 L14.2369727,9.30202945 L15.6541083,9.30202945 L15.6645757,9.08644385 C15.7421354,8.29270265 15.9255042,7.76726834 16.2145559,7.51014091 C16.7080374,7.08684614 17.2755475,6.87519876 17.9172121,6.87519876 C19.2920997,6.87519876 19.9795436,7.84666787 19.9795436,9.78960607 L19.9795436,11.320556 L19.5459659,11.320556 Z" id="Fill-15" fill="#0066FF"></path>
            <path d="M24.5225622,6.97971395 L24.7247219,6.99114748 C25.5829231,7.05924052 25.9605065,7.16798611 26.1670801,7.42905176 C26.4944704,7.84307266 26.4910653,8.1957336 26.4910653,9.21839952 L26.4320443,18.6165087 L28.6463423,18.6165087 L28.5730704,6.2751543 L24.5225622,6.2751543 L24.5225622,6.97971395 Z" id="Fill-17" fill="#0066FF"></path>
            <polygon id="Fill-19" fill="#0066FF" points="26.4910149 4.03629088 28.5872708 4.03629088 28.5872708 1.79760531 26.4910149 1.79760531"></polygon>
            <path d="M37.0443808,17.5232598 C36.612821,17.9368996 36.0594357,18.1434654 35.3838465,18.1434654 C34.5508679,18.1434654 33.7862427,17.9391863 33.121121,17.4834965 C32.1139799,16.7932923 31.0386114,14.9283562 31.0386114,14.9283562 L31.0386114,16.7837644 C32.0582378,18.2271843 33.7403375,18.8351941 35.2037567,18.8351941 C36.5921384,18.8351941 37.7198439,18.4891392 38.586747,17.7966483 C39.453524,17.1044114 39.8871016,16.209547 39.8871016,15.1124361 C39.8871016,14.3179326 39.6655205,13.6672376 39.2227365,13.160097 C38.7725119,12.6608327 37.9805202,12.1765591 36.8475179,11.7074032 L35.8117491,11.2759779 C34.7609727,10.845696 34.0629354,10.4681354 33.7177632,10.1434231 C33.3650242,9.82646016 33.1887177,9.40367355 33.1887177,8.87531733 C33.1887177,8.23376915 33.4043715,7.70147471 33.8360575,7.27868811 C34.2674912,6.85577446 34.8097786,6.6445082 35.4627935,6.6445082 C36.1531379,6.6445082 36.7423394,6.83722673 37.2301458,7.22279084 C37.3953543,7.35897691 37.515288,7.5687187 37.5904516,7.8522703 C37.6653629,8.13569485 37.725519,8.64791709 37.7704153,9.38880996 L37.7704153,9.59296203 L39.0201985,9.59296203 L39.0201985,6.65581469 C37.7441838,6.18716692 36.5096603,5.95265247 35.3163759,5.95265247 C34.0930765,5.95265247 33.0854309,6.27812702 32.2936914,6.92882203 C31.5018257,7.57964408 31.106082,8.40450989 31.106082,9.40316539 C31.106082,10.2507712 31.3800002,10.9696863 31.9278366,11.5597836 C32.4756729,12.1576303 33.3612408,12.6948793 34.5846663,13.1714035 L35.7217041,13.6141352 C36.457071,13.9025143 36.9712351,14.2135064 37.2639442,14.5473655 C37.5490864,14.888847 37.6917206,15.3477128 37.6917206,15.9242169 C37.6917206,16.5768175 37.4760668,17.10962 37.0443808,17.5232598" id="Fill-21" fill="#0066FF"></path>
            <path d="M48.0960711,16.6731005 C47.2711637,17.270439 46.5554705,17.5691083 45.9491176,17.5691083 C45.3074529,17.5691083 44.7715973,17.3337046 44.3415509,16.8630242 C43.9115044,16.3924708 43.6964811,15.8002138 43.6964811,15.0866344 C43.6964811,14.130283 44.0419056,13.3787188 44.7328805,12.8320689 C45.4237294,12.2856731 46.3826952,12.0122847 47.6093997,12.0122847 L48.0960711,12.0122847 L48.0960711,16.6731005 Z M47.6623673,11.320556 C45.3568893,11.320556 43.7211993,11.7371177 42.7552973,12.5698599 C41.9090768,13.2967785 41.4860926,14.2432209 41.4860926,15.4091871 C41.4860926,16.4084778 41.8107084,17.2395685 42.4596876,17.9022052 C43.1089191,18.5645878 43.9203323,18.8956521 44.8939273,18.8956521 C46.1076421,18.8956521 47.3354815,18.2400025 48.5773196,16.9281953 C48.8513639,18.2400025 49.5017303,18.8956521 50.528419,18.8956521 C50.9232799,18.8956521 51.3708561,18.8011349 51.8716522,18.6119734 L51.8080911,17.7714818 C51.575412,17.8405912 51.3886381,17.8751458 51.2476434,17.8751458 C50.8526564,17.8751458 50.5759638,17.6748049 50.4174393,17.273615 C50.2587887,16.8725521 50.1794634,16.1800612 50.1794634,15.1963963 L50.1794634,9.70245715 C50.1794634,7.24297738 48.9315719,6.01336453 46.4356628,6.01336453 C45.1805829,6.01336453 43.8196939,6.3573868 42.3533741,7.04530431 L42.3533741,9.30202945 L43.7705097,9.30202945 L43.780851,9.08644385 C43.8586629,8.29270265 44.0419056,7.76726834 44.3310834,7.51014091 C44.8244388,7.08684614 45.392075,6.87519876 46.0336135,6.87519876 C47.4085011,6.87519876 48.0960711,7.84666787 48.0960711,9.78960607 L48.0960711,11.320556 L47.6623673,11.320556 Z" id="Fill-22" fill="#0066FF"></path>
            <path d="M146,12 C146,18.6275103 140.631607,24 134.009396,24 C127.387185,24 122.018792,18.6275103 122.018792,12 C122.018792,5.37248965 127.387185,0 134.009396,0 C140.631607,0 146,5.37248965 146,12" id="Fill-23" fill="#0066FF"></path>
            <path d="M129.985397,14.4724505 L130.701847,14.2486073 C130.841454,14.7521909 130.819763,15.2069914 130.636268,15.6130088 C130.452773,16.0191533 130.139507,16.3244286 129.696345,16.5290888 C129.141194,16.785581 128.61177,16.8088292 128.107947,16.5990874 C127.604125,16.3893456 127.197031,15.9434379 126.886414,15.2609831 C126.685641,14.8197758 126.582481,14.4001652 126.577058,14.0022782 C126.571509,13.6042643 126.679462,13.2540171 126.900917,12.9516637 C127.122246,12.6490562 127.407262,12.4173366 127.756344,12.2561238 C128.196857,12.052734 128.608239,11.9984882 128.990489,12.0935136 C129.372738,12.188666 129.697354,12.4244508 129.964336,12.8009951 L129.343102,13.2136186 C129.154562,12.9686869 128.947862,12.8142072 128.723128,12.7503065 C128.498268,12.6864057 128.27139,12.7074943 128.042242,12.8133179 C127.695809,12.9732604 127.471327,13.2282281 127.368797,13.5783483 C127.266141,13.9284684 127.338026,14.3741221 127.584325,14.9154363 C127.834155,15.4643729 128.12018,15.8151283 128.442274,15.9674483 C128.764241,16.1198954 129.093397,16.1183709 129.429615,15.963129 C129.699498,15.8385035 129.886902,15.6511206 129.991829,15.4007262 C130.096755,15.150586 130.094611,14.8411184 129.985397,14.4724505" id="Fill-24" fill="#FFFFFF"></path>
            <path d="M131.451805,13.1339015 C131.690033,13.6571761 131.981607,13.996752 132.326779,14.1525021 C132.671951,14.3081252 133.016493,14.3066007 133.360278,14.1478017 C133.701415,13.990273 133.92577,13.7283181 134.033345,13.3619369 C134.14092,12.9955557 134.072692,12.5444394 133.828789,12.0082067 C133.598758,11.5028446 133.310463,11.1726696 132.96403,11.0175547 C132.617597,10.8624398 132.275073,10.863075 131.936332,11.0194603 C131.592547,11.1782594 131.3663,11.4395791 131.25759,11.8032924 C131.148881,12.1671328 131.213577,12.6104998 131.451805,13.1339015 M130.745066,13.4602653 C130.40065,12.7036196 130.354367,12.0465726 130.606215,11.4893785 C130.817329,11.0256852 131.173725,10.6778518 131.675404,10.4461322 C132.233077,10.1884966 132.772716,10.1620724 133.294321,10.3667327 C133.815799,10.5713929 134.22428,10.9982447 134.519638,11.6471612 C134.759001,12.1731037 134.868846,12.6229496 134.84955,12.9965721 C134.830003,13.3704486 134.708682,13.7097704 134.485335,14.0146646 C134.261988,14.3195588 133.973315,14.5538191 133.619441,14.7173186 C133.051426,14.9795276 132.509013,15.0082385 131.991948,14.8030701 C131.474757,14.5979017 131.059214,14.1503425 130.745066,13.4602653" id="Fill-25" fill="#FFFFFF"></path>
            <path d="M136.281832,13.3758858 L134.421913,9.28941445 L135.036967,9.00548174 L135.297896,9.57868281 C135.33409,9.31990387 135.430189,9.08068898 135.586191,8.86116516 C135.742067,8.64176839 135.954946,8.46963021 136.224955,8.34500471 C136.525357,8.20627786 136.800284,8.15533512 137.049862,8.1921765 C137.299315,8.22914492 137.514842,8.34220985 137.696572,8.53149832 C137.800363,7.90608412 138.109341,7.47465885 138.623757,7.23709546 C139.026058,7.05123704 139.386617,7.02062059 139.705305,7.14511905 C140.023867,7.26961751 140.289462,7.56523783 140.501963,8.03223409 L141.778608,10.8372606 L141.094822,11.1530802 L139.923229,8.57875692 C139.797115,8.30181137 139.683992,8.11252289 139.58411,8.01127262 C139.484102,7.91002234 139.358493,7.84929758 139.207536,7.8289713 C139.056452,7.80864502 138.902089,7.83494214 138.744195,7.90786267 C138.458927,8.03960237 138.265595,8.24464371 138.1642,8.52273261 C138.062679,8.80094856 138.107701,9.15030648 138.299141,9.57093342 L139.379806,11.9451699 L138.69211,12.262768 L137.483818,9.60764776 C137.34358,9.29983167 137.182534,9.09479033 137.000426,8.99265078 C136.818318,8.89051123 136.59989,8.89826062 136.345393,9.01577192 C136.151683,9.10520755 135.996186,9.23910691 135.878648,9.41759705 C135.76111,9.59608719 135.710413,9.80112853 135.726429,10.0327211 C135.742445,10.2644407 135.835139,10.5662859 136.004383,10.9381298 L136.969402,13.0584148 L136.281832,13.3758858 Z" id="Fill-26" fill="#FFFFFF"></path>
        </g>
    </g>
</svg>