<?xml version="1.0" encoding="UTF-8"?>
<svg width="102px" height="18px" viewBox="0 0 102 18" version="1.1" xmlns="http://www.w3.org/2000/svg" xmlns:xlink="http://www.w3.org/1999/xlink">
    <title>7E97F613-27C5-4FC4-8B64-CC2D00DBFC68@1x</title>
    <g id="Final" stroke="none" stroke-width="1" fill="none" fill-rule="evenodd">
        <g id="SBM_Bureau-page_Desktop" transform="translate(-797.000000, -258.000000)" fill-rule="nonzero">
            <g id="Group-4" transform="translate(338.000000, 238.000000)">
                <g id="Group-5" transform="translate(444.000000, 18.849656)">
                    <g id="Group-19" transform="translate(15.000000, 0.000000)">
                        <g id="Paisabazaar-Logo@1x@1x" transform="translate(0.000000, 2.000000)">
                            <path d="M40.8076547,5.61182312 C41.1888037,5.38397824 41.5994685,5.27014578 42.0400895,5.27014578 C42.6984219,5.27014578 43.1911139,5.57969807 43.5179012,6.19880266 C43.8446004,6.81808721 44.00795,7.74683405 44.00795,8.98531324 C44.00795,10.1540531 43.8395783,11.030428 43.5030112,11.614888 C43.166444,12.1991679 42.6589501,12.4914428 41.9807938,12.4914428 C41.6244027,12.4914428 41.2605225,12.4136948 40.8893295,12.2581988 C40.5178722,12.1027927 40.1367231,11.8696387 39.7457061,11.5586466 L39.7457061,6.6371251 C40.0723172,6.18152532 40.4262413,5.83975799 40.8076547,5.61182312 L40.8076547,5.61182312 Z M36.9141369,0.490622386 L36.9141369,0.988695626 L37.0549312,0.99670439 C37.6528224,1.03962778 38.0074514,1.13195354 38.1186419,1.27386167 C38.2298324,1.4157698 38.2854277,1.84815317 38.2854277,2.57110175 L38.2854277,13.2705428 L39.4714303,13.2705428 L39.6567185,12.1862099 L39.7457061,12.1862099 C40.0815684,12.5825088 40.4523208,12.879733 40.8576992,13.0777025 C41.2628133,13.2758519 41.7001744,13.3750167 42.1696062,13.3750167 C43.1926117,13.3750167 44.0127959,12.9356144 44.6305992,12.0565399 C45.2483144,11.1776453 45.557128,10.0090854 45.557128,8.55113012 C45.557128,7.23805246 45.2877861,6.19286357 44.7491907,5.41565335 C44.210507,4.63853312 43.4865352,4.24988302 42.5773635,4.24988302 C41.99912,4.24988302 41.4739167,4.40267947 41.0021059,4.70800241 C40.5302071,5.01359532 40.1114365,5.47162472 39.7457061,6.0823606 L39.7457061,0.490622386 L36.9141369,0.490622386 Z" id="Fill-1" fill="#000000"></path>
                            <path d="M50.59256,11.8101129 C50.0162548,12.2332276 49.5162499,12.444785 49.0925454,12.444785 C48.6443472,12.444785 48.2699824,12.2780408 47.969539,11.9446421 C47.6690074,11.6113335 47.5187857,11.1918181 47.5187857,10.686366 C47.5187857,10.0089505 47.7601978,9.47659248 48.2428455,9.08938214 C48.7255815,8.70235178 49.395544,8.50870166 50.2526447,8.50870166 L50.59256,8.50870166 L50.59256,11.8101129 Z M50.2895614,8.01872717 C48.6787969,8.01872717 47.5360546,8.3137917 46.8612463,8.90365076 C46.2702274,9.41855144 45.9746298,10.0889481 45.9746298,10.9148409 C45.9746298,11.6226718 46.2013281,12.211361 46.6548126,12.6807287 C47.1082972,13.1499164 47.675263,13.3844202 48.3554458,13.3844202 C49.2032073,13.3844202 50.061101,12.9200018 50.9287747,11.990805 C51.1201421,12.9200018 51.5745959,13.3844202 52.2917834,13.3844202 C52.5676451,13.3844202 52.8805997,13.3174706 53.2302066,13.1834812 L53.185889,12.5881329 C53.0234205,12.6370854 52.8928465,12.6615616 52.7943433,12.6615616 C52.5184817,12.6615616 52.3250877,12.5196535 52.2143377,12.2354773 C52.1034115,11.9513911 52.0480806,11.4608767 52.0480806,10.764114 L52.0480806,6.87257381 C52.0480806,5.13044231 51.1761779,4.25946654 49.4324606,4.25946654 C48.5556239,4.25946654 47.604954,4.50314898 46.5805388,4.99042389 L46.5805388,6.58893753 L47.5705924,6.58893753 L47.5779052,6.43623106 C47.6321789,5.87399771 47.7601978,5.50181507 47.962138,5.31968314 C48.306899,5.01984935 48.7034668,4.86993245 49.151753,4.86993245 C50.112291,4.86993245 50.59256,5.55805641 50.59256,6.9343043 L50.59256,8.01872717 L50.2895614,8.01872717 Z" id="Fill-3" fill="#000000"></path>
                            <path d="M54.4456192,13.1826533 L61.4557311,13.1826533 L61.4557311,12.5907245 L59.1839911,12.5868551 L56.2161209,12.5868551 L61.2989895,4.92894536 L61.2989895,4.43780105 L54.6548724,4.43780105 L54.6548724,6.34613695 L55.4396377,6.34613695 L55.4472148,6.17705301 C55.4570828,6.01606782 55.4620168,5.82277761 55.4620168,5.59736235 C55.4620168,5.26450364 55.5243081,5.06995363 55.6488908,5.01353233 C55.7734735,4.95720101 56.2020239,4.92894536 56.9343658,4.92894536 L59.5836425,4.92894536 L54.4456192,12.6834103 L54.4456192,13.1826533 Z" id="Fill-5" fill="#000000"></path>
                            <path d="M66.7198437,11.8101129 C66.1425694,12.2332276 65.6417716,12.444785 65.2174503,12.444785 C64.7684592,12.444785 64.3933895,12.2780408 64.0924174,11.9446421 C63.7914453,11.6113335 63.6409593,11.1918181 63.6409593,10.686366 C63.6409593,10.0089505 63.8828118,9.47659248 64.3663408,9.08938214 C64.8497815,8.70235178 65.5209775,8.50870166 66.3793999,8.50870166 L66.7198437,8.50870166 L66.7198437,11.8101129 Z M66.4164046,8.01872717 C64.8029088,8.01872717 63.6582282,8.3137917 62.9822745,8.90365076 C62.3901102,9.41855144 62.0940721,10.0889481 62.0940721,10.9148409 C62.0940721,11.6226718 62.3212989,12.211361 62.7755765,12.6807287 C63.2297659,13.1499164 63.7976128,13.3844202 64.4791172,13.3844202 C65.3282003,13.3844202 66.1875038,12.9200018 67.0564989,11.990805 C67.248307,12.9200018 67.7035537,13.3844202 68.4220628,13.3844202 C68.6983651,13.3844202 69.011672,13.3174706 69.3620719,13.1834812 L69.3176662,12.5881329 C69.1548452,12.6370854 69.024007,12.6615616 68.9254157,12.6615616 C68.6490253,12.6615616 68.4554552,12.5196535 68.3442647,12.2354773 C68.2334266,11.9513911 68.1778314,11.4608767 68.1778314,10.764114 L68.1778314,6.87257381 C68.1778314,5.13044231 67.304519,4.25946654 65.5579823,4.25946654 C64.6795597,4.25946654 63.7272156,4.50314898 62.7011264,4.99042389 L62.7011264,6.58893753 L63.6928541,6.58893753 L63.7001669,6.43623106 C63.7544406,5.87399771 63.8828118,5.50181507 64.0850165,5.31968314 C64.4303942,5.01984935 64.8275787,4.86993246 65.2765699,4.86993246 C66.2387818,4.86993246 66.7198437,5.55805641 66.7198437,6.9343043 L66.7198437,8.01872717 L66.4164046,8.01872717 Z" id="Fill-7" fill="#000000"></path>
                            <path d="M74.949906,11.8101129 C74.3735124,12.2332276 73.8735077,12.444785 73.4498912,12.444785 C73.0016927,12.444785 72.6273283,12.2780408 72.3269725,11.9446421 C72.0263534,11.6113335 71.8761318,11.1918181 71.8761318,10.686366 C71.8761318,10.0089505 72.1174554,9.47659248 72.6001914,9.08938214 C73.0828393,8.70235178 73.7528019,8.50870166 74.6099023,8.50870166 L74.949906,8.50870166 L74.949906,11.8101129 Z M74.6469073,8.01872717 C73.0360548,8.01872717 71.8934005,8.3137917 71.2185043,8.90365076 C70.6275729,9.41855144 70.3319755,10.0889481 70.3319755,10.9148409 C70.3319755,11.6226718 70.558674,12.211361 71.0120702,12.6807287 C71.4656426,13.1499164 72.0326089,13.3844202 72.7128797,13.3844202 C73.5605528,13.3844202 74.4183588,12.9200018 75.2860323,11.990805 C75.4774877,12.9200018 75.9319417,13.3844202 76.6491289,13.3844202 C76.9249907,13.3844202 77.2378575,13.3174706 77.5875526,13.1834812 L77.543235,12.5881329 C77.3806778,12.6370854 77.2501045,12.6615616 77.1516892,12.6615616 C76.8756513,12.6615616 76.6824333,12.5196535 76.5716836,12.2354773 C76.4607572,11.9513911 76.4053384,11.4608767 76.4053384,10.764114 L76.4053384,6.87257381 C76.4053384,5.13044231 75.5334354,4.25946654 73.7898062,4.25946654 C72.9128815,4.25946654 71.9622995,4.50314898 70.9377961,4.99042389 L70.9377961,6.58893753 L71.927938,6.58893753 L71.9351626,6.43623106 C71.9895244,5.87399771 72.1174554,5.50181507 72.3193959,5.31968314 C72.6642446,5.01984935 73.0607242,4.86993246 73.5090987,4.86993246 C74.4696369,4.86993246 74.949906,5.55805641 74.949906,6.9343043 L74.949906,8.01872717 L74.6469073,8.01872717 Z" id="Fill-9" fill="#000000"></path>
                            <path d="M79.2980004,12.412462 C79.1873388,12.55509 78.8344719,12.6478658 78.2394004,12.6908791 L78.0991343,12.6989778 L78.0991343,13.1992108 L82.4671062,13.1992108 L82.4671062,12.6989778 L82.1497465,12.6908791 C81.55952,12.6532649 81.206477,12.561749 81.0909697,12.4166014 C80.9754617,12.2713638 80.917576,11.835471 80.917576,11.1092829 L80.917576,6.82441324 C81.3848932,5.96900507 81.9824322,5.54139098 82.7105446,5.54139098 C82.8924846,5.54139098 83.00438,5.58845372 83.0462308,5.68248923 C83.0879935,5.77679469 83.135923,6.0739289 83.1901087,6.57416181 L83.19751,6.71948941 L84.0165484,6.71948941 L84.0165484,4.32279878 C83.8345203,4.2636779 83.6697609,4.23407245 83.5221823,4.23407245 C82.4497494,4.23407245 81.5817231,4.85011751 80.917576,6.08193767 L80.917576,4.43573138 L78.0991343,4.43573138 L78.0991343,4.93614425 L78.2394004,4.94406303 C78.8344719,4.99265555 79.1873388,5.08678103 79.2980004,5.22661949 C79.4086627,5.36654792 79.4639935,5.79956118 79.4639935,6.52583925 L79.4639935,11.1092829 C79.4639935,11.835471 79.4086627,12.270014 79.2980004,12.412462" id="Fill-11" fill="#000000"></path>
                            <path d="M3.83483886,5.61967891 C4.19589962,5.39147408 4.58497827,5.27728168 5.00225104,5.27728168 C5.6257813,5.27728168 6.09212942,5.58746387 6.40164784,6.20782826 C6.71099003,6.82828264 6.86570519,7.75882925 6.86570519,8.99973795 C6.86570519,10.1706375 6.70623228,11.0488122 6.38763889,11.6343519 C6.06878118,12.2198017 5.588336,12.5126166 4.94603904,12.5126166 C4.60841463,12.5126166 4.26382979,12.4347786 3.91228454,12.2789226 C3.56065119,12.1231566 3.19959042,11.8896426 2.82927847,11.5780206 L2.82927847,6.64696059 C3.13870878,6.19046094 3.47386621,5.84797372 3.83483886,5.61967891 L3.83483886,5.61967891 Z M0,4.4563382 L0,4.95522131 L0.140706207,4.96341005 C0.738068814,5.01173261 1.09243348,5.10558814 1.20353587,5.24497666 C1.31455016,5.38454515 1.37023352,5.81647858 1.37023352,6.54077695 L1.33816272,16.3757212 L2.82363965,16.3757212 L2.82927847,12.2063938 C3.15210098,12.6035026 3.50813967,12.9013567 3.89765885,13.0999561 C4.28700183,13.2985554 4.70744643,13.3979002 5.158464,13.3979002 C6.14146911,13.3979002 6.92958246,12.957688 7.5233327,12.0769038 C8.11690675,11.1962095 8.41373778,10.0254899 8.41373778,8.564745 C8.41373778,7.24905776 8.15488065,6.20179919 7.63734264,5.42305921 C7.11962836,4.6444992 6.4239388,4.25512921 5.55027396,4.25512921 C4.99458577,4.25512921 4.48999938,4.40810563 4.03669104,4.71414846 C3.58311837,5.02010131 3.1805594,5.47903058 2.82927847,6.09102626 L2.82927847,4.4563382 L0,4.4563382 Z" id="Fill-13" fill="#0066FF"></path>
                            <path d="M13.9583113,11.8101129 C13.3820942,12.2332276 12.8820894,12.444785 12.458473,12.444785 C12.0101867,12.444785 11.6358218,12.2780408 11.3353784,11.9446421 C11.0348469,11.6113335 10.8846251,11.1918181 10.8846251,10.686366 C10.8846251,10.0089505 11.1260372,9.47659248 11.608685,9.08938214 C12.0914209,8.70235178 12.7614715,8.50870166 13.6183961,8.50870166 L13.9583113,8.50870166 L13.9583113,11.8101129 Z M13.6554008,8.01872717 C12.0447244,8.01872717 10.901894,8.3137917 10.2270858,8.90365076 C9.6360668,9.41855144 9.3403811,10.0889481 9.3403811,10.9148409 C9.3403811,11.6226718 9.56725558,12.211361 10.020652,12.6807287 C10.4742247,13.1499164 11.0411024,13.3844202 11.7212852,13.3844202 C12.5691348,13.3844202 13.4269405,12.9200018 14.294526,11.990805 C14.4859815,12.9200018 14.9403472,13.3844202 15.6577109,13.3844202 C15.9334846,13.3844202 16.246351,13.3174706 16.5961341,13.1834812 L16.5517284,12.5881329 C16.3891718,12.6370854 16.2586859,12.6615616 16.1601828,12.6615616 C15.884321,12.6615616 15.6910153,12.5196535 15.5800891,12.2354773 C15.469251,11.9513911 15.4138319,11.4608767 15.4138319,10.764114 L15.4138319,6.87257381 C15.4138319,5.13044231 14.5420173,4.25946654 12.7983881,4.25946654 C11.9215515,4.25946654 10.9707934,4.50314898 9.94637819,4.99042389 L9.94637819,6.58893753 L10.9364318,6.58893753 L10.9437447,6.43623106 C10.9979302,5.87399771 11.1260372,5.50181507 11.3279774,5.31968314 C11.6727385,5.01984935 12.0692181,4.86993246 12.5175043,4.86993246 C13.4780423,4.86993246 13.9583113,5.55805641 13.9583113,6.9343043 L13.9583113,8.01872717 L13.6554008,8.01872717 Z" id="Fill-15" fill="#0066FF"></path>
                            <path d="M17.132201,4.94396405 L17.2734358,4.9520628 C17.8730011,5.00029537 18.1367922,5.07732349 18.2811108,5.262245 C18.5098355,5.5555098 18.5074566,5.8053113 18.5074566,6.52969966 L18.4662227,13.1866937 L20.013198,13.1866937 L19.9620081,4.44490096 L17.132201,4.44490096 L17.132201,4.94396405 Z" id="Fill-17" fill="#0066FF"></path>
                            <polygon id="Fill-19" fill="#0066FF" points="18.5074214 2.85903937 19.9719289 2.85903937 19.9719289 1.27330376 18.5074214 1.27330376"></polygon>
                            <path d="M25.8803208,12.412309 C25.5788202,12.7053039 25.1922085,12.8516213 24.7202215,12.8516213 C24.1382776,12.8516213 23.6040874,12.7069236 23.1394133,12.3841434 C22.4357942,11.8952487 21.6845093,10.5742523 21.6845093,10.5742523 L21.6845093,11.8884998 C22.3968511,12.9109222 23.5720166,13.3415958 24.5944054,13.3415958 C25.5643707,13.3415958 26.3522197,13.0964736 26.9578643,12.6059592 C27.5634209,12.1156247 27.8663313,11.4817625 27.8663313,10.7046422 C27.8663313,10.1418689 27.711528,9.68095997 27.4021858,9.32173538 C27.0876453,8.96808983 26.534336,8.6250627 25.7427865,8.29274393 L25.0191672,7.98715101 C24.2850631,7.682368 23.7973932,7.41492924 23.5562455,7.1849247 C23.3098114,6.96040928 23.1866384,6.66093543 23.1866384,6.28668311 C23.1866384,5.83225315 23.3373006,5.45521125 23.6388895,5.15573741 C23.9403021,4.85617358 24.3191604,4.70652664 24.7753763,4.70652664 C25.2576717,4.70652664 25.6693056,4.8430356 26.0101019,5.11614351 C26.1255215,5.21260864 26.2093108,5.36117575 26.2618224,5.5620248 C26.3141576,5.76278385 26.3561845,6.12560794 26.3875504,6.65040706 L26.3875504,6.79501477 L27.2606866,6.79501477 L27.2606866,4.71453541 C26.3692243,4.38257657 25.506749,4.21646217 24.6730845,4.21646217 C23.8184507,4.21646217 23.1144791,4.44700664 22.561346,4.9079156 C22.0081248,5.36891456 21.7316463,5.95319451 21.7316463,6.66057548 C21.7316463,7.26096293 21.9230138,7.77019446 22.3057489,8.18818005 C22.6884838,8.6116548 23.3071682,8.99220617 24.1618902,9.32974415 L24.956259,9.64334577 C25.4700085,9.8476143 25.829219,10.0679004 26.0337144,10.3043839 C26.2329234,10.5462666 26.3325719,10.8712966 26.3325719,11.2796536 C26.3325719,11.7419124 26.1819097,12.1193142 25.8803208,12.412309" id="Fill-21" fill="#0066FF"></path>
                            <path d="M33.6013647,11.8101129 C33.0250596,12.2332276 32.5250547,12.444785 32.1014383,12.444785 C31.653152,12.444785 31.2787872,12.2780408 30.9783438,11.9446421 C30.6779003,11.6113335 30.5276786,11.1918181 30.5276786,10.686366 C30.5276786,10.0089505 30.7690025,9.47659248 31.2517384,9.08938214 C31.7343863,8.70235178 32.4043487,8.50870166 33.2613614,8.50870166 L33.6013647,8.50870166 L33.6013647,11.8101129 Z M33.2983662,8.01872717 C31.6876898,8.01872717 30.5449475,8.3137917 29.8701392,8.90365076 C29.2789441,9.41855144 28.9834346,10.0889481 28.9834346,10.9148409 C28.9834346,11.6226718 29.2102209,12.211361 29.6636174,12.6807287 C30.1171901,13.1499164 30.6840678,13.3844202 31.3642506,13.3844202 C32.2121883,13.3844202 33.0699939,12.9200018 33.9375794,11.990805 C34.1290351,12.9200018 34.5834006,13.3844202 35.3006763,13.3844202 C35.576538,13.3844202 35.8892282,13.3174706 36.2390995,13.1834812 L36.1946938,12.5881329 C36.0321372,12.6370854 35.9016513,12.6615616 35.8031481,12.6615616 C35.5271983,12.6615616 35.3338925,12.5196535 35.2231425,12.2354773 C35.1123044,11.9513911 35.0568854,11.4608767 35.0568854,10.764114 L35.0568854,6.87257381 C35.0568854,5.13044231 34.1850708,4.25946654 32.4413535,4.25946654 C31.5645168,4.25946654 30.6137588,4.50314898 29.5893435,4.99042389 L29.5893435,6.58893753 L30.5793972,6.58893753 L30.5866219,6.43623106 C30.6409837,5.87399771 30.7690025,5.50181507 30.9710309,5.31968314 C31.3157038,5.01984935 31.7122716,4.86993246 32.1604697,4.86993246 C33.1210076,4.86993246 33.6013647,5.55805641 33.6013647,6.9343043 L33.6013647,8.01872717 L33.2983662,8.01872717 Z" id="Fill-22" fill="#0066FF"></path>
                            <path d="M102,8.5 C102,13.1944865 98.2494789,17 93.6230027,17 C88.9965265,17 85.2460054,13.1944865 85.2460054,8.5 C85.2460054,3.8055135 88.9965265,0 93.6230027,0 C98.2494789,0 102,3.8055135 102,8.5" id="Fill-23" fill="#0066FF"></path>
                            <path d="M90.8117157,10.2513191 L91.3122493,10.0927635 C91.4097829,10.4494686 91.3946289,10.7716189 91.2664338,11.0592146 C91.1382387,11.3469003 90.9193816,11.5631369 90.6097753,11.7081046 C90.2219301,11.8897865 89.8520585,11.906254 89.5000726,11.7576869 C89.1480873,11.6091198 88.8636792,11.2932685 88.6466728,10.809863 C88.5064067,10.4973412 88.434336,10.200117 88.4305474,9.91828039 C88.4266707,9.63635388 88.5020899,9.38826211 88.656805,9.17409512 C88.8114321,8.95974814 89.0105529,8.79561342 89.2544321,8.68142102 C89.5621878,8.53735325 89.8495916,8.49892914 90.116643,8.5662388 C90.3836937,8.63363842 90.6104802,8.80065265 90.7970019,9.06737153 L90.3629891,9.35964651 C90.2312693,9.18615322 90.0868625,9.0767301 89.9298565,9.0314671 C89.7727626,8.98620404 89.6142588,9.0011418 89.4541691,9.07610018 C89.2121405,9.18939278 89.0553106,9.3699949 88.9836801,9.61799671 C88.9119615,9.86599845 88.9621825,10.1816698 89.1342545,10.5651007 C89.3087932,10.9539308 89.5086189,11.2023825 89.7336435,11.3102759 C89.9585793,11.4182592 90.1885376,11.4171794 90.4234297,11.3072164 C90.6119781,11.21894 90.7429041,11.0862104 90.8162093,10.9088477 C90.8895138,10.7316651 90.8880159,10.5124589 90.8117157,10.2513191" id="Fill-24" fill="#FFFFFF"></path>
                            <path d="M91.8361925,9.30318023 C92.0026258,9.67383307 92.2063282,9.914366 92.4474757,10.024689 C92.6886233,10.134922 92.9293307,10.1338422 93.1695093,10.0213595 C93.4078379,9.90977671 93.564579,9.72422532 93.6397342,9.4647053 C93.7148893,9.20518529 93.6672232,8.88564457 93.4968252,8.50581308 C93.3361186,8.14784826 93.134707,7.9139743 92.8926785,7.80410125 C92.65065,7.69422819 92.4113524,7.69467812 92.1746977,7.80545105 C91.9345191,7.91793374 91.7764562,8.1030352 91.7005081,8.36066545 C91.6245607,8.61838573 91.6697593,8.93243736 91.8361925,9.30318023 M91.3424434,9.53435459 C91.101824,8.99839722 91.0694893,8.53298892 91.2454379,8.13830977 C91.3929285,7.80986035 91.6419175,7.56347836 91.9924055,7.39934364 C92.3820127,7.21685176 92.7590208,7.19813462 93.1234297,7.34310233 C93.48775,7.48806997 93.7731271,7.79042333 93.9794731,8.25007252 C94.1466993,8.62261512 94.2234404,8.94125597 94.2099596,9.20590524 C94.1963035,9.47073442 94.111545,9.71108737 93.955508,9.92705409 C93.7994711,10.1430208 93.5977954,10.3089552 93.3505684,10.4247673 C92.953736,10.6104987 92.5747899,10.6308356 92.2135527,10.485508 C91.8522275,10.3401804 91.5619166,10.0231593 91.3424434,9.53435459" id="Fill-25" fill="#FFFFFF"></path>
                            <path d="M95.210595,9.47458578 L93.9111995,6.5800019 L94.3408948,6.3788829 L94.5231876,6.78490032 C94.5484738,6.60159857 94.6156115,6.43215469 94.7245992,6.27665866 C94.8334989,6.12125261 94.9822225,5.9993214 95.170859,5.911045 C95.3807289,5.81278015 95.5728012,5.77669571 95.7471639,5.80279169 C95.9214392,5.82897765 96.0720129,5.90906531 96.198975,6.04314464 C96.2714865,5.60014292 96.4873478,5.29455002 96.8467343,5.12627595 C97.1277939,4.99462624 97.3796913,4.97293958 97.6023364,5.06112599 C97.8248934,5.1493124 98.0104461,5.35871013 98.1589057,5.68949915 L99.0508083,7.67639293 L98.5730948,7.90009848 L97.7545846,6.07661949 C97.6664776,5.88044972 97.5874465,5.74637038 97.5176659,5.67465144 C97.4477973,5.60293249 97.3600431,5.55991912 97.2545799,5.54552134 C97.1490281,5.53112356 97.0411855,5.54975068 96.930876,5.60140272 C96.7315791,5.69471835 96.5965116,5.83995596 96.525674,6.0369356 C96.4547483,6.23400523 96.4862021,6.48146709 96.6199478,6.77941117 L97.374933,8.46116201 L96.8944878,8.68612733 L96.0503386,6.80541716 C95.9523641,6.58738077 95.8398525,6.44214315 95.7126264,6.3697943 C95.5854002,6.29744545 95.4327999,6.30293461 95.2550006,6.38617178 C95.1196689,6.44952201 95.0110341,6.54436739 94.9289185,6.67079791 C94.8468029,6.79722843 94.8113844,6.94246604 94.8225737,7.10651078 C94.8337629,7.2706455 94.8985218,7.48445251 95.0167607,7.74784194 L95.6909521,9.24971048 L95.210595,9.47458578 Z" id="Fill-26" fill="#FFFFFF"></path>
                        </g>
                    </g>
                </g>
            </g>
        </g>
    </g>
</svg>