<?xml version="1.0" encoding="UTF-8"?>
<svg width="271px" height="304px" viewBox="0 0 271 304" version="1.1" xmlns="http://www.w3.org/2000/svg" xmlns:xlink="http://www.w3.org/1999/xlink">
    <title>1ECDC2F6-81E7-4698-BC4D-6927FD027DCE</title>
    <defs>
        <linearGradient x1="0.326708413%" y1="48.9719626%" x2="99.2195299%" y2="48.9719626%" id="linearGradient-1">
            <stop stop-color="#FF66A9" offset="0%"></stop>
            <stop stop-color="#F53689" offset="100%"></stop>
        </linearGradient>
        <linearGradient x1="-14.0569404%" y1="48.7921351%" x2="132.401829%" y2="54.9930632%" id="linearGradient-2">
            <stop stop-color="#D1DCF5" stop-opacity="0.114336027" offset="0%"></stop>
            <stop stop-color="#D5D5F1" offset="100%"></stop>
        </linearGradient>
    </defs>
    <g id="Final-Desktop" stroke="none" stroke-width="1" fill="none" fill-rule="evenodd">
        <g id="Balance-power-Lp" transform="translate(-894.000000, -953.000000)">
            <g id="Group-12" transform="translate(247.000000, 875.000000)">
                <g id="Group-31" transform="translate(615.706854, 78.000000)">
                    <path d="M157.890732,301.812655 C269.105475,297.488733 310.68926,239.47924 303.496531,201.4211 C296.303786,163.362959 259.415061,146.63727 209.955656,146.63727 C160.496251,146.63727 190.999552,80.5128421 120.826573,80.5128421 C70.343147,80.5128421 26.604917,118.583567 24.2963373,159.502629 C20.1124684,233.660426 46.6759742,306.136593 157.890732,301.812655 Z" id="BG-1" fill="#EEF4FD" fill-rule="nonzero" opacity="0.600000024" transform="translate(164.084416, 191.254895) scale(-1, 1) rotate(15.000000) translate(-164.084416, -191.254895) "></path>
                    <g id="mobile" transform="translate(101.293146, 0.000000)">
                        <path d="M133.91368,5.77793135 L21.6028389,5.77793135 C12.2551028,5.77793135 4.67386803,13.3591661 4.67386803,22.7069022 L4.67386803,282.115779 C4.67386803,291.463515 12.2551028,299.044749 21.6028389,299.044749 L133.91368,299.044749 C143.261416,299.044749 150.842659,291.463515 150.842659,282.115779 L150.842659,22.7069022 C150.851851,13.3591661 143.270616,5.77793135 133.91368,5.77793135 Z" id="Path" fill="#F5F8FE" fill-rule="nonzero"></path>
                        <path d="M17.8490236,287.810905 C10.7402694,287.810905 4.97748545,282.048121 4.97748545,274.939367 L4.97748545,18.13424 C4.97748545,11.0254857 10.7402694,5.2627018 17.8490236,5.2627018 L128.310558,5.2627018 C135.419313,5.2627018 141.182096,11.0254857 141.182096,18.13424 L141.182096,274.939367 C141.182096,282.048121 135.419313,287.810905 128.310558,287.810905 L17.8490236,287.810905 Z" id="Path" fill="#FFFFFF" fill-rule="nonzero"></path>
                        <g id="Group-18" transform="translate(20.000000, 24.000000)" fill-rule="nonzero">
                            <path d="M101.508753,110 L6.49124721,110 C2.9483759,110 0,107.041322 0,103.494667 L0,6.50533304 C0,2.95599326 2.9483759,0 6.49124721,0 L101.508753,0 C105.048946,0 108,2.95599326 108,6.50533304 L108,103.494667 C108,107.041322 105.048946,110 101.508753,110 Z" id="Path" stroke="#E4E8F5" stroke-width="0.639986354" fill="#F5F7FD" stroke-linecap="round" stroke-linejoin="round" stroke-dasharray="1.287384873005881"></path>
                            <path d="M53.4081825,36.9619975 C59.112125,36.9619975 63.7368708,32.3279881 63.7368708,26.6119938 C63.7368708,20.8959996 59.112125,16.2619902 53.4081825,16.2619902 C47.70424,16.2619902 43.0821721,20.8959996 43.0821721,26.6119938 C43.0821721,32.3279881 47.70424,36.9619975 53.4081825,36.9619975 Z" id="Path" fill="#EAEEF9"></path>
                            <path d="M90.2963551,55.5893193 L16.228118,55.5893193 C15.3444086,55.5893193 14.4580213,54.7033267 14.4580213,53.8173342 L14.4580213,45.8326621 C14.4580213,44.9466696 15.3444086,44.0579922 16.228118,44.0579922 L90.2963551,44.0579922 C91.1800645,44.0579922 92.0664518,44.9466696 92.0664518,45.8326621 L92.0664518,53.8173342 C92.0664518,54.7033267 91.1800645,55.5893193 90.2963551,55.5893193 Z" id="Path" fill="#CED7E2"></path>
                            <path d="M90.2963551,75.4033341 L16.228118,75.4033341 C15.3444086,75.4033341 14.4580213,74.5146567 14.4580213,73.6286642 L14.4580213,65.6439921 C14.4580213,64.7579996 15.3444086,63.8693222 16.228118,63.8693222 L90.2963551,63.8693222 C91.1800645,63.8693222 92.0664518,64.7579996 92.0664518,65.6439921 L92.0664518,73.6286642 C92.0664518,74.5146567 91.1800645,75.4033341 90.2963551,75.4033341 Z" id="Path" fill="#CED7E2"></path>
                            <path d="M90.5909249,81.3153206 L64.6232581,81.3153206 C63.7368708,81.3153206 62.8531614,81.9086671 62.8531614,83.0899905 L62.8531614,89.5953235 C62.8531614,90.4840009 63.442301,91.3699934 64.6232581,91.3699934 L90.5909249,91.3699934 C91.4746343,91.3699934 92.3610216,90.7793317 92.3610216,89.5953235 L92.3610216,83.0899905 C92.0664518,82.2039979 91.4746343,81.3153206 90.5909249,81.3153206 Z" id="Path" fill="url(#linearGradient-1)"></path>
                            <path d="M84.3942475,85.1599912 L70.5253657,85.1599912 C69.9335482,85.1599912 69.3444086,85.7506529 69.3444086,86.3439994 C69.3444086,86.9346611 69.9335482,87.5280076 70.5253657,87.5280076 L84.3942475,87.5280076 C84.9833871,87.5280076 85.5752046,86.9346611 85.5752046,86.3439994 C85.5752046,85.4553221 84.9833871,85.1599912 84.3942475,85.1599912 Z" id="Path" fill="#FFFFFF"></path>
                            <path d="M56.3592363,68.898001 L20.9492685,68.898001 C20.3601289,68.898001 19.7683114,69.4886627 19.7683114,70.0793244 C19.7683114,70.6726709 20.3601289,71.2633326 20.9492685,71.2633326 L56.3592363,71.2633326 C56.9510538,71.2633326 57.5401934,70.6726709 57.5401934,70.0793244 C57.2456236,69.1933319 56.9510538,68.898001 56.3592363,68.898001 Z" id="Path" fill="#EAEEF9"></path>
                            <path d="M56.3592363,48.4933245 L20.9492685,48.4933245 C20.3601289,48.4933245 19.7683114,49.0866711 19.7683114,49.6773327 C19.7683114,50.2679944 20.3601289,50.8613409 20.9492685,50.8613409 L56.3592363,50.8613409 C56.9510538,50.8613409 57.5401934,50.2679944 57.5401934,49.6773327 C57.2456236,49.0866711 56.9510538,48.4933245 56.3592363,48.4933245 Z" id="Path" fill="#EAEEF9"></path>
                        </g>
                        <g id="Rectangle-+-Mask-+-Rectangle-+-Mask-+-Rectangle-Mask-Copy-3" transform="translate(20.000000, 234.888889)">
                            <rect id="Mask" fill="#052F5F" x="0" y="0" width="108.888889" height="18.5185185" rx="2"></rect>
                            <rect id="Mask" stroke="#E4E8ED" stroke-width="0.555555556" fill="#FFFFFF" x="0" y="2" width="108.888889" height="18.5185185" rx="2"></rect>
                            <rect id="Tab" fill="url(#linearGradient-2)" fill-rule="nonzero" x="78.8104747" y="6.44444444" width="26.6666667" height="10" rx="1.33019677"></rect>
                        </g>
                        <g id="Rectangle-+-Mask-+-Rectangle-+-Mask-+-Rectangle-Mask-Copy-2" transform="translate(20.000000, 204.444444)">
                            <rect id="Mask" fill="#052F5F" x="0" y="0" width="108.888889" height="18.5185185" rx="2"></rect>
                            <rect id="Mask" stroke="#E4E8ED" stroke-width="0.555555556" fill="#FFFFFF" x="0" y="2" width="108.888889" height="18.5185185" rx="2"></rect>
                            <rect id="Tab" fill="url(#linearGradient-2)" fill-rule="nonzero" x="78.8104747" y="6.44444444" width="26.6666667" height="10" rx="1.33019677"></rect>
                        </g>
                        <g id="Rectangle-+-Mask-+-Rectangle-+-Mask-+-Rectangle-Mask-Copy" transform="translate(20.000000, 174.000000)">
                            <rect id="Mask" fill="#052F5F" x="0" y="0" width="108.888889" height="18.5185185" rx="2"></rect>
                            <rect id="Mask" stroke="#E4E8ED" stroke-width="0.555555556" fill="#FFFFFF" x="0" y="2" width="108.888889" height="18.5185185" rx="2"></rect>
                            <rect id="Tab" fill="url(#linearGradient-2)" fill-rule="nonzero" x="78.8104747" y="6.44444444" width="26.6666667" height="10" rx="1.33019677"></rect>
                        </g>
                        <g id="Rectangle-+-Mask-+-Rectangle-+-Mask-+-Rectangle-Mask" transform="translate(20.000000, 143.555556)">
                            <rect id="Mask" fill="#052F5F" x="0" y="0" width="108.888889" height="18.5185185" rx="2"></rect>
                            <rect id="Mask" stroke="#E4E8ED" stroke-width="0.555555556" fill="#FFFFFF" x="0" y="2" width="108.888889" height="18.5185185" rx="2"></rect>
                            <rect id="Tab" fill="url(#linearGradient-2)" fill-rule="nonzero" x="78.8104747" y="6.44444444" width="26.6666667" height="10" rx="1.33019677"></rect>
                        </g>
                        <path d="M129.239812,0.00920052763 L16.9289708,0.00920052763 C7.58123476,0.00920052763 0,7.59043529 0,16.9381714 L0,276.347048 C0,285.694784 7.58123476,293.276019 16.9289708,293.276019 L129.239812,293.276019 C138.587548,293.276019 146.168791,285.694784 146.168791,276.347048 L146.168791,16.9289708 C146.177983,7.58123476 138.605949,0 129.258213,0 L129.239812,0.00920052763 Z M141.182096,274.157322 C141.182096,281.701755 135.072946,287.801705 127.537714,287.801705 L18.6218679,287.801705 C11.0774353,287.801705 4.97748545,281.692554 4.97748545,274.157322 L4.97748545,18.9070843 C4.97748545,11.3626516 11.0866358,5.2627018 18.6218679,5.2627018 L37.8509707,5.2627018 L37.8509707,8.34487856 C37.8509707,12.7427308 41.4207754,16.3125355 45.8186276,16.3125355 L100.322553,16.3125355 C104.720405,16.3125355 108.29021,12.7427308 108.29021,8.34487856 L108.29021,5.2627018 L127.519313,5.2627018 C135.063746,5.2627018 141.163695,11.3718521 141.163695,18.9070843 L141.163695,274.157322 L141.182096,274.157322 Z" id="Shape" fill="#1C3754" fill-rule="nonzero"></path>
                    </g>
                </g>
            </g>
        </g>
    </g>
</svg>