<?xml version="1.0" encoding="UTF-8"?>
<svg width="16px" height="16px" viewBox="0 0 16 16" version="1.1" xmlns="http://www.w3.org/2000/svg" xmlns:xlink="http://www.w3.org/1999/xlink">
    <title>calculator copy</title>
    <g id="Rana---App" stroke="none" stroke-width="1" fill="none" fill-rule="evenodd">
        <g id="Artboard" transform="translate(-121.000000, -79.000000)" fill="#1B1DC7" fill-rule="nonzero">
            <g id="calculator-copy" transform="translate(121.000000, 79.000000)">
                <path d="M2.9375,4.5 L3.5625,4.5 L3.5625,5.125 C3.5625,5.383875 3.772375,5.59375 4.03125,5.59375 C4.290125,5.59375 4.5,5.383875 4.5,5.125 L4.5,4.5 L5.125,4.5 C5.383875,4.5 5.59375,4.290125 5.59375,4.03125 C5.59375,3.772375 5.383875,3.5625 5.125,3.5625 L4.5,3.5625 L4.5,2.9375 C4.5,2.678625 4.290125,2.46875 4.03125,2.46875 C3.772375,2.46875 3.5625,2.678625 3.5625,2.9375 L3.5625,3.5625 L2.9375,3.5625 C2.678625,3.5625 2.46875,3.772375 2.46875,4.03125 C2.46875,4.290125 2.678625,4.5 2.9375,4.5 Z" id="Path"></path>
                <path d="M10.21875,4.5 L12.09375,4.5 C12.352625,4.5 12.5625,4.290125 12.5625,4.03125 C12.5625,3.772375 12.352625,3.5625 12.09375,3.5625 L10.21875,3.5625 C9.959875,3.5625 9.75,3.772375 9.75,4.03125 C9.75,4.290125 9.959875,4.5 10.21875,4.5 Z" id="Path"></path>
                <path d="M12.25,11.46875 L10.0625,11.46875 C9.803625,11.46875 9.59375,11.678625 9.59375,11.9375 C9.59375,12.196375 9.803625,12.40625 10.0625,12.40625 L12.25,12.40625 C12.508875,12.40625 12.71875,12.196375 12.71875,11.9375 C12.71875,11.678625 12.508875,11.46875 12.25,11.46875 Z" id="Path"></path>
                <path d="M12.25,9.90625 L10.0625,9.90625 C9.803625,9.90625 9.59375,10.116125 9.59375,10.375 C9.59375,10.633875 9.803625,10.84375 10.0625,10.84375 L12.25,10.84375 C12.508875,10.84375 12.71875,10.633875 12.71875,10.375 C12.71875,10.116125 12.508875,9.90625 12.25,9.90625 Z" id="Path"></path>
                <path d="M5.1439375,10.0435625 C4.96090625,9.8605 4.66409375,9.8605 4.48103125,10.0435625 L4.03125,10.4933438 L3.5814375,10.0435313 C3.39840625,9.86046875 3.10159375,9.86046875 2.91853125,10.0435313 C2.73546875,10.2265938 2.73546875,10.523375 2.91853125,10.7064375 L3.36834375,11.15625 L2.91853125,11.6060625 C2.73546875,11.789125 2.73546875,12.0859063 2.91853125,12.2689688 C3.0100625,12.3605 3.13003125,12.40625 3.25,12.40625 C3.36996875,12.40625 3.4899375,12.3605 3.5814375,12.2689375 L4.03125,11.8191563 L4.4810625,12.2689688 C4.5725625,12.3605 4.69253125,12.40625 4.8125,12.40625 C4.93246875,12.40625 5.0524375,12.3605 5.1439375,12.2689375 C5.327,12.085875 5.327,11.7890938 5.1439375,11.6060313 L4.69415625,11.15625 L5.14396875,10.7064375 C5.32703125,10.5234062 5.32703125,10.2265937 5.1439375,10.0435625 Z" id="Path"></path>
                <path d="M15.1875,8.47403125 L15.1875,1.40625 C15.1875,0.63084375 14.5566562,-8.8817842e-16 13.78125,-8.8817842e-16 L1.40625,-8.8817842e-16 C0.63084375,-8.8817842e-16 0,0.63084375 0,1.40625 L0,13.78125 C0,14.5566562 0.63084375,15.1875 1.40625,15.1875 L8.474,15.1875 C9.2424375,15.7005 10.1649687,16 11.15625,16 C13.827125,16 16,13.8270937 16,11.15625 C16,10.165 15.7005,9.24246875 15.1875,8.47403125 Z M14.25,1.40625 L14.25,7.4321875 C13.4102813,6.73340625 12.3315312,6.3125 11.15625,6.3125 C9.98096875,6.3125 8.90221875,6.73340625 8.0625,7.4321875 L8.0625,0.9375 L13.78125,0.9375 C14.0397188,0.9375 14.25,1.14778125 14.25,1.40625 Z M1.40625,0.9375 L7.125,0.9375 L7.125,7.125 L0.9375,7.125 L0.9375,1.40625 C0.9375,1.14778125 1.14778125,0.9375 1.40625,0.9375 Z M0.9375,13.78125 L0.9375,8.0625 L7.125,8.0625 L7.125,8.47403125 C6.612,9.24246875 6.3125,10.165 6.3125,11.15625 C6.3125,12.3315313 6.73340625,13.4102813 7.4321875,14.25 L1.40625,14.25 C1.14778125,14.25 0.9375,14.0397188 0.9375,13.78125 Z M11.15625,15.0625 C9.00234375,15.0625 7.25,13.3101563 7.25,11.15625 C7.25,9.00234375 9.00234375,7.25 11.15625,7.25 C13.3101563,7.25 15.0625,9.00234375 15.0625,11.15625 C15.0625,13.3101563 13.3101563,15.0625 11.15625,15.0625 Z" id="Shape"></path>
            </g>
        </g>
    </g>
</svg>