<?xml version="1.0" encoding="UTF-8"?>
<svg width="20px" height="20px" viewBox="0 0 20 20" version="1.1" xmlns="http://www.w3.org/2000/svg" xmlns:xlink="http://www.w3.org/1999/xlink">
    <title>0E0EFD7A-DBFD-4BE2-AC91-1E261BBF1D3A@1x</title>
    <g id="New---Revamp-Bureaus---Mobile-&amp;-Desktop--Copy-3" stroke="none" stroke-width="1" fill="none" fill-rule="evenodd">
        <g id="Desktop" transform="translate(-1612.000000, -2356.000000)">
            <g id="FAQs-Copy" transform="translate(1599.999974, 2345.000000)">
                <g id="Group-54" transform="translate(12.000000, 10.000000)">
                    <g id="contact-us" transform="translate(0.000000, 1.000000)">
                        <rect id="Rectangle" fill="#FFFFFF" opacity="0" x="0" y="0" width="20" height="20"></rect>
                        <g id="Group-82" transform="translate(2.000000, 4.000000)" fill-rule="nonzero" stroke-dasharray="0,0" stroke-linecap="round" stroke-linejoin="round" stroke-width="1.2">
                            <path d="M4,13 C1.6,13 0,11.8529412 0,9.17647059 L0,3.82352941 C0,1.14705882 1.6,0 4,0 L12,0 C14.4,0 16,1.14705882 16,3.82352941 L16,9.17647059 C16,11.8529412 14.4,13 12,13 L4,13 Z" id="Vector" stroke="#1B1DC7"></path>
                            <path d="M12,4 L9.49599609,6.40770465 C8.67199612,7.19743177 7.31999607,7.19743177 6.49599609,6.40770465 L4,4" id="Vector" stroke="#D90368"></path>
                        </g>
                    </g>
                </g>
            </g>
        </g>
    </g>
</svg>