<svg xmlns="http://www.w3.org/2000/svg" width="20" height="20" viewBox="0 0 20 20"><g fill="none" fill-rule="evenodd"><path d="M20,0 L20,20 L0,20 L0,0 L20,0 Z" opacity="0"/><g stroke-dasharray="0 0" stroke-linecap="round" stroke-linejoin="round" stroke-width="1.252" transform="translate(3 2)"><path fill="#D90368" stroke="#DB1072" d="M11.9,4.17391304 C10.740202,4.17391304 9.8,3.2395508 9.8,2.08695652 C9.8,0.934362246 10.740202,0 11.9,0 C13.059798,0 14,0.934362246 14,2.08695652 C14,3.2395508 13.059798,4.17391304 11.9,4.17391304 Z"/><line x1="3.5" x2="7" y1="7.652" y2="7.652" stroke="#1B1DC7"/><line x1="3.5" x2="9.8" y1="11.478" y2="11.478" stroke="#1B1DC7"/><path stroke="#1B1DC7" d="M7.4,0 L4.9,0 C1.4,0 0,1.39130435 0,4.86956522 L0,11.1304348 C0,14.6086957 1.4,16 4.9,16 L9.1,16 C12.6,16 14,14.6086957 14,11.1304348 L14,6.56521739"/></g></g></svg>