<?xml version="1.0" encoding="UTF-8"?>
<svg width="16px" height="13px" viewBox="0 0 16 13" version="1.1" xmlns="http://www.w3.org/2000/svg" xmlns:xlink="http://www.w3.org/1999/xlink">
    <title>5F1518EA-C6E3-4C78-91B3-724501273174</title>
    <g id="Final" stroke="none" stroke-width="1" fill="none" fill-rule="evenodd">
        <g id="Hamburger" transform="translate(-15.000000, -62.000000)" fill="#1B1DC7" fill-rule="nonzero">
            <g id="Group-9" transform="translate(14.000000, 56.000000)">
                <g id="Group-6" transform="translate(1.000000, 0.000000)">
                    <path d="M1.11702921,14.6124196 C1.26646248,15.9036167 1.79248256,17.1104135 2.62391779,18.1068426 C2.81942072,18.3411421 2.78348027,18.685906 2.54364254,18.8768944 C2.30380482,19.0678828 1.95089149,19.0327723 1.75538856,18.7984729 C0.789244718,17.6406029 0.177360279,16.2368159 0.00359756702,14.7353971 C-0.0311644627,14.4350314 0.189905507,14.1640074 0.497371165,14.1300481 C0.804836822,14.0960888 1.08226718,14.3120539 1.11702921,14.6124196 Z M15.2883221,15.0040826 L15.37841,15.0177825 C15.6793339,15.0881495 15.8648888,15.383507 15.7928585,15.677482 C15.5121282,16.823219 14.9701994,17.8868962 14.2125288,18.7957494 C14.0171328,19.030134 13.6642355,19.0653982 13.4243107,18.8745142 C13.1843858,18.6836302 13.1482881,18.338882 13.3436841,18.1044974 C13.9957457,17.322326 14.4617849,16.4076019 14.7031168,15.4226607 C14.760741,15.1874807 14.9657629,15.0244318 15.1995396,15.0046473 L15.2883221,15.0040826 Z M11.7282929,10.4080657 C11.9561504,10.6306615 11.9561504,10.9916699 11.7282929,11.2142657 L9.82598511,13.0726458 C9.98260151,13.3547045 10.0717383,13.6776299 10.0717383,14.0203763 C10.0717383,15.119993 9.155977,16.0144965 8.03048195,16.0144965 C6.90487289,16.0144965 5.98922556,15.119993 5.98922556,14.0203763 C5.98922556,12.9208709 6.90487289,12.0262561 8.03048195,12.0262561 C8.38144401,12.0262561 8.71188861,12.1133346 9.00061447,12.2663345 L10.9029223,10.4079543 C11.1308937,10.1853585 11.5003214,10.1853585 11.7282929,10.4080657 Z M8.03048195,13.1666283 C7.5485503,13.1666283 7.1564394,13.5496846 7.1564394,14.0204876 C7.1564394,14.4912906 7.5485503,14.874347 8.03048195,14.874347 C8.5124136,14.874347 8.9045245,14.4912906 8.9045245,14.0204876 C8.9045245,13.5496846 8.5124136,13.1666283 8.03048195,13.1666283 Z M10.7259772,6.4697842 C13.7146689,7.53088483 15.8086116,10.2366052 15.9990007,13.3739705 C16.0173122,13.6757201 15.7817581,13.934838 15.4728759,13.9527267 C15.1639937,13.9706153 14.8987508,13.7405006 14.8804393,13.438751 C14.7166814,10.7402325 12.9144774,8.41148678 10.3432367,7.49859735 C10.0524224,7.39534707 9.90235016,7.08133851 10.008041,6.7972396 C10.1137319,6.5131407 10.4351629,6.36653392 10.7259772,6.4697842 Z M7.98282295,6 C8.29224747,6 8.54308559,6.24504583 8.54308559,6.54732519 C8.54308559,6.84960454 8.29224747,7.09465038 7.98282295,7.09465038 C4.68057911,7.09465038 1.85774662,9.37498845 1.21050714,12.497437 C1.14909538,12.793703 0.853463154,12.9852396 0.550194092,12.925246 C0.246925029,12.8652523 0.0508609521,12.5764468 0.112272719,12.2801807 C0.86481907,8.64970494 4.14489112,6 7.98282295,6 Z" id="credit-score-hover"></path>
                </g>
            </g>
        </g>
    </g>
</svg>