<?xml version="1.0" encoding="UTF-8"?>
<svg width="20px" height="20px" viewBox="0 0 20 20" version="1.1" xmlns="http://www.w3.org/2000/svg" xmlns:xlink="http://www.w3.org/1999/xlink">
    <title>3E34231A-CB9A-40E3-87D1-80D4E0B4B5CA@1x</title>
    <g id="New---Revamp-Bureaus---Mobile-&amp;-Desktop--Copy-3" stroke="none" stroke-width="1" fill="none" fill-rule="evenodd">
        <g id="Desktop" transform="translate(-1324.000000, -2356.000000)">
            <g id="FAQs" transform="translate(1311.999974, 2345.000000)">
                <g id="Group-54" transform="translate(12.000000, 10.000000)">
                    <g id="Group-81" transform="translate(0.000000, 1.000000)">
                        <rect id="Rectangle" fill="#FFFFFF" opacity="0" x="0" y="0" width="20" height="20"></rect>
                        <g id="Group-52" transform="translate(2.000000, 2.000000)" fill-rule="nonzero">
                            <path d="M10.4,16 C14.4,16 16,14.4 16,10.4 L16,5.6 C16,1.6 14.4,0 10.4,0 L5.6,0 C1.6,0 0,1.6 0,5.6 L0,10.4 C0,14.4 1.6,16 5.6,16 L10.4,16 Z" id="Vector" stroke="#1B1DC7" stroke-width="1.2" stroke-linecap="round" stroke-linejoin="round" stroke-dasharray="0,0"></path>
                            <g id="Group-49" transform="translate(5.000000, 3.000000)" fill="#D90368">
                                <circle id="Oval" cx="3.02884699" cy="8.35391897" r="1"></circle>
                                <path d="M3.02884699,6.83956766 C2.61088603,6.83956766 2.27167134,6.50035297 2.27167134,6.08239201 C2.27167134,5.07459122 3.16286708,4.30757228 4.03437626,3.68971695 C4.30544514,3.49739434 4.60452952,2.86060961 4.4371937,2.33815841 C4.27137224,1.82252179 3.61565812,1.51510848 3.07730623,1.51510848 C3.07730623,1.51510848 3.07730623,1.51510848 3.07654906,1.51510848 C2.48595205,1.51510848 1.75300602,1.78996324 1.4675508,2.5592537 C1.32217307,2.95147069 0.88528272,3.15060789 0.493822908,3.00523016 C0.10160592,2.85985244 -0.0982884521,2.42371926 0.0478464487,2.03150227 C0.505937718,0.798063137 1.69470349,0 3.07654906,0 C3.07654906,0 3.07730623,0 3.07806341,0 C4.17142505,0 5.48512481,0.643599304 5.8803705,1.87476691 C6.26198702,3.06428986 5.67441872,4.38404703 4.91118566,4.92467044 C3.89581311,5.64398731 3.78602264,5.97411589 3.78602264,6.08239201 C3.78602264,6.50035297 3.44680795,6.83956766 3.02884699,6.83956766 Z" id="Path" stroke="#FFFFFF" stroke-width="0.3"></path>
                            </g>
                        </g>
                    </g>
                </g>
            </g>
        </g>
    </g>
</svg>