<?xml version="1.0" encoding="UTF-8"?>
<svg width="16px" height="16px" viewBox="0 0 16 16" version="1.1" xmlns="http://www.w3.org/2000/svg" xmlns:xlink="http://www.w3.org/1999/xlink">
    <title>2A76C9B8-3D2B-4E6A-81E0-9BA4C7228405</title>
    <g id="Page-2" stroke="none" stroke-width="1" fill="none" fill-rule="evenodd">
        <g id="1_My-Account_Mobile-app" transform="translate(-16.000000, -136.000000)" fill-rule="nonzero" stroke="#052F5F">
            <g id="Group-5" transform="translate(16.000000, 133.000000)">
                <g id="home" transform="translate(0.000000, 3.000000)">
                    <path d="M6.16662597,0.5 C6.35047478,0.5 6.51704996,0.57495367 6.63773886,0.695629939 C6.75841464,0.816293094 6.83337403,0.982829063 6.83337403,1.16662597 L6.83337403,1.16662597 L6.83337403,4.16662597 C6.83337403,4.35047348 6.7584201,4.51704759 6.63773384,4.63773384 C6.51704759,4.7584201 6.35047348,4.83337403 6.16662597,4.83337403 L6.16662597,4.83337403 L1.16662597,4.83337403 C0.982829063,4.83337403 0.816293094,4.75841464 0.695629939,4.63773886 C0.57495367,4.51704996 0.5,4.35047478 0.5,4.16662597 L0.5,4.16662597 L0.5,1.16662597 C0.5,0.982827769 0.574959125,0.816290726 0.695624926,0.695624926 C0.816290726,0.574959125 0.982827769,0.5 1.16662597,0.5 L1.16662597,0.5 Z" id="Shape"></path>
                    <path d="M6.16662597,7.16662597 C6.35047348,7.16662597 6.51704759,7.2415799 6.63773384,7.36226616 C6.7584201,7.48295241 6.83337403,7.64952652 6.83337403,7.83337403 L6.83337403,7.83337403 L6.83337403,14.833374 C6.83337403,15.0171709 6.75841464,15.1837069 6.63773886,15.3043701 C6.51704996,15.4250463 6.35047478,15.5 6.16662597,15.5 L6.16662597,15.5 L1.16662597,15.5 C0.982827769,15.5 0.816290726,15.4250409 0.695624926,15.3043751 C0.574959125,15.1837093 0.5,15.0171722 0.5,14.833374 L0.5,14.833374 L0.5,7.83337403 C0.5,7.64952522 0.57495367,7.48295004 0.695629939,7.36226114 C0.816293094,7.24158536 0.982829063,7.16662597 1.16662597,7.16662597 L1.16662597,7.16662597 Z" id="Shape"></path>
                    <path d="M14.833374,11.166626 C15.0171709,11.166626 15.1837069,11.2415854 15.3043701,11.3622611 C15.4250463,11.48295 15.5,11.6495252 15.5,11.833374 L15.5,11.833374 L15.5,14.833374 C15.5,15.0171722 15.4250409,15.1837093 15.3043751,15.3043751 C15.1837093,15.4250409 15.0171722,15.5 14.833374,15.5 L14.833374,15.5 L9.83337403,15.5 C9.64952522,15.5 9.48295004,15.4250463 9.36226114,15.3043701 C9.24158536,15.1837069 9.16662597,15.0171709 9.16662597,14.833374 L9.16662597,14.833374 L9.16662597,11.833374 C9.16662597,11.6495265 9.2415799,11.4829524 9.36226616,11.3622662 C9.48295241,11.2415799 9.64952652,11.166626 9.83337403,11.166626 L9.83337403,11.166626 Z" id="Shape"></path>
                    <path d="M14.833374,0.5 C15.0171722,0.5 15.1837093,0.574959125 15.3043751,0.695624926 C15.4250409,0.816290726 15.5,0.982827769 15.5,1.16662597 L15.5,1.16662597 L15.5,8.16662597 C15.5,8.35047478 15.4250463,8.51704996 15.3043701,8.63773886 C15.1837069,8.75841464 15.0171709,8.83337403 14.833374,8.83337403 L14.833374,8.83337403 L9.83337403,8.83337403 C9.64952652,8.83337403 9.48295241,8.7584201 9.36226616,8.63773384 C9.2415799,8.51704759 9.16662597,8.35047348 9.16662597,8.16662597 L9.16662597,8.16662597 L9.16662597,1.16662597 C9.16662597,0.982829063 9.24158536,0.816293094 9.36226114,0.695629939 C9.48295004,0.57495367 9.64952522,0.5 9.83337403,0.5 L9.83337403,0.5 Z" id="Shape"></path>
                </g>
            </g>
        </g>
    </g>
</svg>