<?xml version="1.0" encoding="UTF-8"?>
<svg width="20px" height="20px" viewBox="0 0 20 20" version="1.1" xmlns="http://www.w3.org/2000/svg" xmlns:xlink="http://www.w3.org/1999/xlink">
    <title>10D3A976-E45F-40E3-88A3-478A37BADB8D@1x</title>
    <g id="New---Revamp-Bureaus---Mobile-&amp;-Desktop--Copy-3" stroke="none" stroke-width="1" fill="none" fill-rule="evenodd">
        <g id="Desktop" transform="translate(-1036.000000, -2016.000000)">
            <g id="credit-health" transform="translate(1023.999974, 2005.000000)">
                <g id="Group-80" transform="translate(12.000000, 11.000000)">
                    <rect id="Rectangle" fill="#FFFFFF" x="0" y="0" width="20" height="20"></rect>
                    <g id="ranking-icon" transform="translate(2.000000, 2.000000)" fill-rule="nonzero" stroke="#052F5F" stroke-dasharray="0,0" stroke-linecap="round" stroke-linejoin="round" stroke-width="1.2">
                        <g id="Group-56" transform="translate(0.000000, 6.000000)">
                            <path d="M1.60000366,3.33333333 C0.720001629,3.33333333 0,4.08333331 0,5 L0,10 L5.33601075,10 L5.33601075,3.33333333 L1.60000366,3.33333333 Z" id="Vector" fill="#FFFFFF"></path>
                            <path d="M6.9280432,0 C6.04804117,0 5.32803954,0.74999998 5.32803954,1.66666667 L5.32803954,10 L10.6640533,10 L10.6640533,1.66666667 C10.6640533,0.74999998 9.95205172,0 9.06404968,0 L6.9280432,0 Z" id="Vector"></path>
                            <path d="M10.6639893,5.83333333 L10.6639893,10 L16,10 L16,7.5 C16,6.58333331 15.2799984,5.83333333 14.3999963,5.83333333 L10.6639893,5.83333333 Z" id="Vector" fill="#FFFFFF"></path>
                        </g>
                        <g id="Group" transform="translate(5.000000, 0.000000)" fill="#FFFFFF">
                            <path d="M2.69983625,0.999883954 C2.74643004,1.10079631 2.87290024,1.19497952 2.97940035,1.2084345 L3.61840037,1.3160768 C4.02443204,1.3833517 4.12427567,1.68607551 3.83140038,1.97535758 L3.33218114,2.47991932 C3.2456498,2.56737669 3.19905611,2.72884235 3.22568113,2.84320968 L3.36546191,3.46214778 C3.47861828,3.95325455 3.21902385,4.14162754 2.79302343,3.88598293 L2.19396202,3.52942679 C2.08746192,3.46215189 1.90774288,3.46215189 1.80124278,3.52942679 L1.20217866,3.88598293 C0.776178248,4.14162754 0.516583822,3.95325455 0.629740186,3.46214778 L0.769523505,2.84320968 C0.796148531,2.72884235 0.749554834,2.5606492 0.6630235,2.47991932 L0.170459372,1.98209164 C-0.122415918,1.68608209 -0.0292285134,1.39006523 0.383459401,1.32279033 L1.02245943,1.21516856 C1.12895953,1.19498609 1.25542973,1.10080287 1.30202353,1.00661801 L1.65480432,0.293485201 C1.84783575,-0.0967091983 2.15402418,-0.0966952439 2.34705562,0.286771672 L2.69983625,0.999883954 Z" id="Vector"></path>
                        </g>
                    </g>
                </g>
            </g>
        </g>
    </g>
</svg>