<?xml version="1.0" encoding="UTF-8"?>
<svg width="16px" height="16px" viewBox="0 0 16 16" version="1.1" xmlns="http://www.w3.org/2000/svg" xmlns:xlink="http://www.w3.org/1999/xlink">
    <title>Loans Copy</title>
    <g id="Rana---App" stroke="none" stroke-width="1" fill="none" fill-rule="evenodd">
        <g id="Artboard" transform="translate(-35.000000, -55.000000)" fill="#1B1DC7" fill-rule="nonzero">
            <g id="Loans-Copy" transform="translate(43.000000, 63.000000) scale(-1, 1) translate(-43.000000, -63.000000) translate(35.000000, 55.000000)">
                <path d="M12.2209688,0 L0.00221875,0 L0.00221875,6.625 L12.2209688,6.625 L12.2209688,0 Z M11.2834688,5.6875 L0.93971875,5.6875 L0.93971875,0.9375 L11.2834688,0.9375 L11.2834688,5.6875 Z" id="Shape"></path>
                <path d="M7.46309375,8.5 C6.50503125,8.5 5.6794375,9.07784375 5.3165,9.90334375 L3.66203125,8.248875 C3.219375,7.8061875 2.63078125,7.56240625 2.00475,7.56240625 C1.37871875,7.56240625 0.79015625,7.8061875 0.34746875,8.248875 L0.016,8.5803125 L4.3249375,12.88925 C5.24753125,13.8118438 6.65846875,13.749375 8.0229375,13.689 C9.23815625,13.6351875 10.3859375,13.5844063 11.0165625,14.2150625 L12.7834687,16 L15.9977812,12.5671563 L12.8916562,9.46103125 C12.2719375,8.8413125 11.4479062,8.5 10.5715,8.5 L7.46309375,8.5 Z M14.6719687,12.5671563 L12.7834375,14.6741562 L11.7556562,13.6283437 L13.7444062,11.6395937 L14.6719687,12.5671563 Z M13.0815,10.9766875 L10.9895938,13.0685938 C10.40325,12.7899687 9.71521875,12.7221563 9.00296875,12.7221563 C8.665125,12.7221563 8.3218125,12.7373438 7.9814375,12.7524375 C6.76625,12.8062187 5.6185,12.8570625 4.9878125,12.226375 L1.39815625,8.63665625 C1.58515625,8.547125 1.7913125,8.49990625 2.00475,8.49990625 C2.380375,8.49990625 2.7335,8.6461875 2.999125,8.91178125 L5.12721875,11.03225 L5.12721875,11.3123125 L8.61571875,11.3123125 C9.14703125,11.3123125 9.6465,11.5192188 10.0222188,11.8949063 L10.685125,11.232 C10.1323438,10.6792188 9.39740625,10.375 8.61571875,10.375 L6.13740625,10.375 C6.330875,9.82946875 6.852125,9.4375 7.46309375,9.4375 L10.5714688,9.4375 C11.1975,9.4375 11.7860625,9.68128125 12.22875,10.1239688 L13.0815,10.9766875 Z" id="Shape"></path>
                <path d="M6.12721875,4.71875 C6.902625,4.71875 7.53346875,4.08790625 7.53346875,3.3125 C7.53346875,2.53709375 6.902625,1.90625 6.12721875,1.90625 C5.3518125,1.90625 4.72096875,2.53709375 4.72096875,3.3125 C4.72096875,4.08790625 5.3518125,4.71875 6.12721875,4.71875 Z M6.12721875,2.84375 C6.3856875,2.84375 6.59596875,3.05403125 6.59596875,3.3125 C6.59596875,3.57096875 6.3856875,3.78125 6.12721875,3.78125 C5.86875,3.78125 5.65846875,3.57096875 5.65846875,3.3125 C5.65846875,3.05403125 5.86875,2.84375 6.12721875,2.84375 Z" id="Shape"></path>
                <polygon id="Path" points="2.84596875 2.84375 3.78346875 2.84375 3.78346875 3.78125 2.84596875 3.78125"></polygon>
                <polygon id="Path" points="8.47096875 2.84375 9.40846875 2.84375 9.40846875 3.78125 8.47096875 3.78125"></polygon>
            </g>
        </g>
    </g>
</svg>