<?xml version="1.0" encoding="UTF-8"?>
<svg width="24px" height="24px" viewBox="0 0 24 24" version="1.1" xmlns="http://www.w3.org/2000/svg" xmlns:xlink="http://www.w3.org/1999/xlink">
    <title>DD222459-0D62-4442-8369-2FFACC3AE0A4@1x</title>
    <g id="Final" stroke="none" stroke-width="1" fill="none" fill-rule="evenodd" opacity="0.6">
        <g id="Desktop---Credit-Alert-Preferences-" transform="translate(-1244.000000, -698.000000)">
            <g id="Group-38" transform="translate(411.000000, 125.000000)">
                <g id="Group-37" transform="translate(24.000000, 40.000000)">
                    <g id="Group-35" transform="translate(0.000000, 419.000000)">
                        <g id="Group-14" transform="translate(0.000000, 108.000000)">
                            <g id="lock" transform="translate(809.000000, 6.000000)">
                                <path d="M6,10 L6,8 C6,4.69000006 7,2 12,2 C17,2 18,4.69000006 18,8 L18,10" id="Vector" stroke="#052F5F" stroke-width="1.5" stroke-linecap="round" stroke-linejoin="round" stroke-dasharray="0,0" fill-rule="nonzero"></path>
                                <path d="M12,18.5 C10.6192881,18.5 9.5,17.3807119 9.5,16 C9.5,14.6192881 10.6192881,13.5 12,13.5 C13.3807119,13.5 14.5,14.6192881 14.5,16 C14.5,17.3807119 13.3807119,18.5 12,18.5 Z" id="Vector" stroke="#052F5F" stroke-width="1.5" stroke-linecap="round" stroke-linejoin="round" stroke-dasharray="0,0"></path>
                                <path d="M7,22 C3,22 2,21 2,17 L2,15 C2,11 3,10 7,10 L17,10 C21,10 22,11 22,15 L22,17 C22,21 21,22 17,22 L7,22 Z" id="Vector" stroke="#052F5F" stroke-width="1.5" stroke-linecap="round" stroke-linejoin="round" stroke-dasharray="0,0" fill-rule="nonzero"></path>
                                <path d="M24,0 L24,24 L0,24 L0,0 L24,0 Z" id="Vector" opacity="0" transform="translate(12.000000, 12.000000) rotate(-180.000000) translate(-12.000000, -12.000000) "></path>
                            </g>
                        </g>
                    </g>
                </g>
            </g>
        </g>
    </g>
</svg>