<?xml version="1.0" encoding="UTF-8"?>
<svg width="14px" height="14px" viewBox="0 0 14 14" version="1.1" xmlns="http://www.w3.org/2000/svg" xmlns:xlink="http://www.w3.org/1999/xlink">
    <title>65CE78AC-35F5-49B3-BA79-C89603E0AE79</title>
    <g id="Final" stroke="none" stroke-width="1" fill="none" fill-rule="evenodd">
        <g id="Hamburger-Copy-2" transform="translate(-18.000000, -593.000000)" fill="#052F5F" fill-rule="nonzero">
            <g id="Group-9" transform="translate(14.000000, 56.000000)">
                <g id="Group-6-Copy" transform="translate(2.000000, 535.000000)">
                    <g id="logout-(3)" transform="translate(2.000000, 2.000000)">
                        <path d="M6.97675781,0.0232421875 C7.29826562,0.0232421875 7.55814062,0.283171875 7.55814062,0.604679688 C7.55814062,0.9261875 7.29826562,1.1860625 6.97675781,1.1860625 L6.97675781,1.1860625 L1.74417578,1.1860625 C1.42326953,1.1860625 1.16279297,1.44651172 1.16279297,1.76744531 L1.16279297,1.76744531 L1.16279297,12.232582 C1.16279297,12.5534883 1.42324219,12.8139648 1.74417578,12.8139648 L1.74417578,12.8139648 L6.97675781,12.8139648 C7.29826562,12.8139648 7.55814062,13.0738398 7.55814062,13.3953477 C7.55814062,13.7168555 7.29826562,13.9767305 6.97675781,13.9767305 L6.97675781,13.9767305 L1.74417578,13.9767305 C0.782550781,13.9767305 -7.4162898e-14,13.1941797 -7.4162898e-14,12.2325547 L-7.4162898e-14,12.2325547 L-7.4162898e-14,1.76744531 C-7.4162898e-14,0.805820313 0.782550781,0.0232421875 1.74417578,0.0232421875 L1.74417578,0.0232421875 Z M9.46976953,3.10348828 C9.69535547,2.87500391 10.0639492,2.87207813 10.2918594,3.09766406 L10.2918594,3.09766406 L13.82675,6.58604297 C13.937793,6.6959375 14,6.84419531 14,6.99994531 C14,7.15575 13.9372187,7.30460938 13.82675,7.41390234 L13.82675,7.41390234 L10.2918594,10.9022813 C10.1790664,11.0139258 10.0314102,11.0697344 9.88372656,11.0697344 C9.73371875,11.0697344 9.58371094,11.0116016 9.46976953,10.8964844 C9.24478516,10.668 9.24653516,10.2999805 9.47559375,10.0743945 L9.47559375,10.0743945 L12.0017461,7.58138281 L5.23255469,7.58138281 C4.91104687,7.58138281 4.65117187,7.32148047 4.65117187,6.99997266 C4.65117187,6.67846484 4.91104687,6.41858984 5.23255469,6.41858984 L5.23255469,6.41858984 L12.0017461,6.41858984 L9.47559375,3.92557813 C9.24650781,3.69999219 9.24418359,3.33197266 9.46976953,3.10348828 Z" id="Combined-Shape"></path>
                    </g>
                </g>
            </g>
        </g>
    </g>
</svg>