<?xml version="1.0" encoding="UTF-8"?>
<svg width="16px" height="16px" viewBox="0 0 16 16" version="1.1" xmlns="http://www.w3.org/2000/svg" xmlns:xlink="http://www.w3.org/1999/xlink">
    <title>8EC04408-F23E-44A0-8D93-C3F3A80C530A</title>
    <g id="Page-2" stroke="none" stroke-width="1" fill="none" fill-rule="evenodd">
        <g id="1_My-Account_Mobile-app" transform="translate(-16.000000, -191.000000)" fill="#052F5F" fill-rule="nonzero">
            <g id="Group-11" transform="translate(16.000000, 188.000000)">
                <g id="my-account" transform="translate(0.000000, 3.000000)">
                    <path d="M13.6568603,2.34313966 C12.145874,0.832153313 10.1368408,0 8,0 C5.86303712,0 3.85412597,0.832153313 2.34313966,2.34313966 C0.832153312,3.85412597 -8.8817842e-16,5.86303712 -8.8817842e-16,8 C-8.8817842e-16,10.1368408 0.832153312,12.145874 2.34313966,13.6568603 C3.85412597,15.1678467 5.86303712,16 8,16 C10.1368408,16 12.145874,15.1678467 13.6568603,13.6568603 C15.1678467,12.145874 16,10.1368408 16,8 C16,5.86303712 15.1678467,3.85412597 13.6568603,2.34313966 Z M4.01062012,13.824585 C4.34521484,11.8980713 6.01464844,10.4770508 8,10.4770508 C9.98547363,10.4770508 11.6547852,11.8980713 11.9893799,13.824585 C10.8535156,14.6049805 9.47924806,15.0625 8,15.0625 C6.52075194,15.0625 5.14648437,14.6049805 4.01062012,13.824585 Z M5.45629881,6.99584962 C5.45629881,5.59313966 6.59741212,4.45214844 8,4.45214844 C9.40258787,4.45214844 10.5437012,5.59326172 10.5437012,6.99584962 C10.5437012,8.3984375 9.40258787,9.53955078 8,9.53955078 C6.59741212,9.53955078 5.45629881,8.3984375 5.45629881,6.99584962 Z M12.8013916,13.1743164 C12.5490722,12.2774658 12.0479736,11.4637451 11.3455811,10.828125 C10.9146728,10.4381103 10.4241943,10.1303711 9.89685059,9.91345216 C10.8499756,9.29174806 11.4813232,8.21618653 11.4813232,6.99584962 C11.4813232,5.07629394 9.91955566,3.51464844 8,3.51464844 C6.08044434,3.51464844 4.51879881,5.07629394 4.51879881,6.99584962 C4.51879881,8.21618653 5.1501465,9.29174806 6.10314941,9.91345216 C5.57592775,10.1303711 5.08532716,10.4379883 4.65441894,10.8280029 C3.95214844,11.4636231 3.45092775,12.2773438 3.19860841,13.1743164 C1.80883787,11.8835449 0.9375,10.0417481 0.9375,8 C0.9375,4.10571287 4.10571287,0.9375 8,0.9375 C11.8942871,0.9375 15.0625,4.10571287 15.0625,8 C15.0625,10.0418701 14.1911621,11.883667 12.8013916,13.1743164 Z" id="Shape"></path>
                </g>
            </g>
        </g>
    </g>
</svg>