<?xml version="1.0" encoding="UTF-8"?>
<svg width="20px" height="20px" viewBox="0 0 20 20" version="1.1" xmlns="http://www.w3.org/2000/svg" xmlns:xlink="http://www.w3.org/1999/xlink">
    <title>49DF9B67-FB07-4308-ACCA-C174B7759980@2x</title>
    <g id="New---Revamp-Bureaus---Mobile-&amp;-Desktop--Copy-3" stroke="none" stroke-width="1" fill="none" fill-rule="evenodd">
        <g id="Desktop" transform="translate(-1324.000000, -2265.000000)">
            <g id="All-offer" transform="translate(1311.999974, 2254.000000)">
                <g id="Offers-icon" transform="translate(12.000000, 11.000000)">
                    <rect id="Rectangle" fill="#FFFFFF" opacity="0" x="0" y="0" width="20" height="20"></rect>
                    <g id="Group-77" transform="translate(2.000000, 2.000000)" stroke-linecap="round" stroke-linejoin="round">
                        <path d="M1.76811823,3.72361726 C1.76811823,2.64357702 2.64320015,1.76847636 3.72321726,1.76761164 L4.61299917,1.76761164 C5.12922833,1.76761164 5.62383985,1.56267206 5.99047496,1.19948799 L6.61220683,0.576886732 C7.37401233,-0.189258705 8.61227054,-0.192717601 9.37839958,0.569104216 L9.37926428,0.56996894 L9.38704663,0.576886732 L10.0096346,1.19948799 C10.3762697,1.56353678 10.8708812,1.76761164 11.3871103,1.76761164 L12.2760276,1.76761164 C13.3560447,1.76761164 14.2319913,2.6427123 14.2319913,3.72361726 L14.2319913,4.61168878 C14.2319913,5.12792899 14.4360618,5.62341582 14.8001028,5.99005879 L15.4226907,6.6126514 C16.1888197,7.37447321 16.1931433,8.61275794 15.4313378,9.37890338 L15.430473,9.3797681 L15.4226907,9.38755062 L14.8001028,10.0101519 C14.4360618,10.3759301 14.2319913,10.8705522 14.2319913,11.3867924 L14.2319913,12.2765934 C14.2319913,13.3566336 13.3569094,14.2317343 12.2768923,14.2317343 L12.2760276,14.2317343 L11.3853809,14.2317343 C10.8691518,14.2317343 10.3736756,14.4366739 10.0079051,14.8007227 L9.38531722,15.4224592 C8.62437642,16.1886046 7.38698292,16.1929283 6.62085388,15.4328359 C6.61998918,15.4319712 6.61912447,15.4311064 6.61825977,15.4302417 L6.61047742,15.4224592 L5.98874555,14.8007227 C5.62297514,14.4366739 5.12749892,14.232599 4.61126976,14.2317343 L3.72321726,14.2317343 C2.64320015,14.2317343 1.76811823,13.3566336 1.76811823,12.2765934 L1.76811823,11.385063 C1.76811823,10.8688228 1.56318304,10.3742007 1.19914204,10.0084224 L0.577418818,9.38582117 C-0.188710214,8.62486408 -0.193033741,7.38744407 0.567907058,6.62129864 C0.567907058,6.62043391 0.568771764,6.61956919 0.569636469,6.61870446 L0.577418818,6.61092195 L1.19914204,5.98832934 C1.56318304,5.62168637 1.76811823,5.12706426 1.76811823,4.60995933 L1.76811823,3.72361726" id="Path" stroke="#1B1DC7" stroke-width="1.2"></path>
                        <line x1="5.77754124" y1="10.2226146" x2="10.2220927" y2="5.77793335" id="Path" stroke="#D90368" stroke-width="1.2"></line>
                        <line x1="10.1562886" y1="10.1606138" x2="10.164071" y2="10.1606138" id="Path" stroke="#D90368" stroke-width="1.6"></line>
                        <line x1="5.83276133" y1="5.836994" x2="5.84054368" y2="5.836994" id="Path" stroke="#D90368" stroke-width="1.6"></line>
                    </g>
                </g>
            </g>
        </g>
    </g>
</svg>