<svg xmlns="http://www.w3.org/2000/svg" width="18" height="18" viewBox="0 0 18 18"><g fill="none" fill-rule="evenodd" stroke-dasharray="0 0" stroke-linecap="round" stroke-linejoin="round" stroke-width="1.2" transform="rotate(-90 9 8)"><path stroke="#1B1DC7" d="M10.4,16 C14.4,16 16,14.4 16,10.4 L16,5.6 C16,1.6 14.4,-2.94923703e-14 10.4,-2.94923703e-14 L5.6,-2.94923703e-14 C1.6,-2.94923703e-14 0,1.6 0,5.6 L0,10.4 C0,14.4 1.6,16 5.6,16 L10.4,16 Z"/><line x1="10.856" x2="10.856" y1="13.2" y2="10.08" stroke="#1B1DC7"/><line x1="10.856" x2="10.856" y1="4.36" y2="2.8" stroke="#1B1DC7"/><path stroke="#D90368" d="M10.8559761,8.51996078 C9.7072238,8.51996078 8.77597656,7.58871355 8.77597656,6.43996124 C8.77597656,5.29120893 9.7072238,4.35996094 10.8559761,4.35996094 C12.0047284,4.35996094 12.9359764,5.29120893 12.9359764,6.43996124 C12.9359764,7.58871355 12.0047284,8.51996078 10.8559761,8.51996078 Z"/><line x1="5.144" x2="5.144" y1="13.2" y2="11.64" stroke="#1B1DC7"/><line x1="5.144" x2="5.144" y1="5.92" y2="2.8" stroke="#1B1DC7"/><path stroke="#D90368" d="M5.14396515,11.6400772 C3.99521284,11.6400772 3.06396484,10.70883 3.06396484,9.56007767 C3.06396484,8.41132536 3.99521284,7.48007812 5.14396515,7.48007812 C6.29271746,7.48007812 7.22396469,8.41132536 7.22396469,9.56007767 C7.22396469,10.70883 6.29271746,11.6400772 5.14396515,11.6400772 Z"/></g></svg>