<?xml version="1.0" encoding="UTF-8"?>
<svg width="20px" height="20px" viewBox="0 0 20 20" version="1.1" xmlns="http://www.w3.org/2000/svg" xmlns:xlink="http://www.w3.org/1999/xlink">
    <title>83A3EEC3-0188-481C-8045-1A71CD7170CF@1x</title>
    <g id="Final" stroke="none" stroke-width="1" fill="none" fill-rule="evenodd">
        <g id="Desktop---Credit-Alert-Preferences-" transform="translate(-97.000000, -736.000000)">
            <g id="side-navigation-" transform="translate(73.000000, 125.000000)">
                <g id="FAQs-Copy-2" transform="translate(12.000000, 600.000000)">
                    <g id="Group-54" transform="translate(12.000000, 10.000000)">
                        <g id="vuesax/linear/setting-3" transform="translate(10.000000, 11.000000) rotate(-90.000000) translate(-10.000000, -11.000000) translate(0.000000, 1.000000)">
                            <g transform="translate(0.000000, -0.000000)" id="setting-3">
                                <g transform="translate(0.000000, -0.000000)">
                                    <path d="M20,-1.84093167e-14 L20,20 L0,20 L0,-1.84093167e-14 L20,-1.84093167e-14 Z" id="Vector" opacity="0"></path>
                                    <g id="Group-7" transform="translate(2.000000, 2.000000)" stroke="#052F5F" stroke-dasharray="0,0" stroke-linecap="round" stroke-linejoin="round" stroke-width="1.2">
                                        <path d="M10.4,16 C14.4,16 16,14.4 16,10.4 L16,5.6 C16,1.6 14.4,-1.85317814e-14 10.4,-1.85317814e-14 L5.6,-1.85317814e-14 C1.6,-1.85317814e-14 0,1.6 0,5.6 L0,10.4 C0,14.4 1.6,16 5.6,16 L10.4,16 Z" id="Vector" fill-rule="nonzero"></path>
                                        <line x1="10.855957" y1="13.2000778" x2="10.855957" y2="10.0800781" id="Vector"></line>
                                        <line x1="10.855957" y1="4.35999985" x2="10.855957" y2="2.8" id="Vector"></line>
                                        <path d="M10.8559761,8.51996078 C9.7072238,8.51996078 8.77597656,7.58871355 8.77597656,6.43996124 C8.77597656,5.29120893 9.7072238,4.35996094 10.8559761,4.35996094 C12.0047284,4.35996094 12.9359764,5.29120893 12.9359764,6.43996124 C12.9359764,7.58871355 12.0047284,8.51996078 10.8559761,8.51996078 Z" id="Vector"></path>
                                        <line x1="5.14404297" y1="13.2000397" x2="5.14404297" y2="11.6400391" id="Vector"></line>
                                        <line x1="5.14404297" y1="5.91999969" x2="5.14404297" y2="2.8" id="Vector"></line>
                                        <path d="M5.14396515,11.6400772 C3.99521284,11.6400772 3.06396484,10.70883 3.06396484,9.56007767 C3.06396484,8.41132536 3.99521284,7.48007812 5.14396515,7.48007812 C6.29271746,7.48007812 7.22396469,8.41132536 7.22396469,9.56007767 C7.22396469,10.70883 6.29271746,11.6400772 5.14396515,11.6400772 Z" id="Vector"></path>
                                    </g>
                                </g>
                            </g>
                        </g>
                    </g>
                </g>
            </g>
        </g>
    </g>
</svg>