<?xml version="1.0" encoding="UTF-8"?>
<svg width="16px" height="16px" viewBox="0 0 16 16" version="1.1" xmlns="http://www.w3.org/2000/svg" xmlns:xlink="http://www.w3.org/1999/xlink">
    <title>E0DE74AB-6E67-45E8-8838-82E2C708C100</title>
    <g id="Page-2" stroke="none" stroke-width="1" fill="none" fill-rule="evenodd">
        <g id="1_My-Account_Mobile-app" transform="translate(-16.000000, -646.000000)" fill="#052F5F" fill-rule="nonzero">
            <g id="Group-27" transform="translate(16.000000, 643.000000)">
                <g id="tools" transform="translate(0.000000, 3.000000)">
                    <path d="M8.5020625,16 L7.49790625,16 C6.68575,16 6.02496875,15.33925 6.02496875,14.5270937 L6.02496875,14.187375 C5.6796875,14.0770625 5.34421875,13.9378125 5.0219375,13.7710313 L4.7811875,14.0117813 C4.19809375,14.5955938 3.2640625,14.5784688 2.69790625,14.0115625 L1.9881875,13.301875 C1.42103125,12.7353438 1.40471875,11.801625 1.988375,11.2185938 L2.2289375,10.9780313 C2.06215625,10.65575 1.9229375,10.3203438 1.81259375,9.975 L1.47290625,9.975 C0.66078125,9.975 0,9.31425 0,8.50209375 L0,7.49790625 C0,6.68575 0.66078125,6.025 1.4729375,6.025 L1.812625,6.025 C1.92296875,5.6796875 2.0621875,5.34425 2.22896875,5.02196875 L1.98821875,4.78125 C1.40490625,4.1985625 1.421,3.26475 1.98840625,2.69796875 L2.6981875,1.98821875 C3.26565625,1.41996875 4.19946875,1.40578125 4.7814375,1.98840625 L5.02196875,2.2289375 C5.34425,2.0621875 5.67971875,1.9229375 6.025,1.81259375 L6.025,1.47290625 C6.025,0.66075 6.68575,0 7.4979375,0 L8.50209375,0 C9.31425,0 9.975,0.66075 9.975,1.47290625 L9.975,1.812625 C10.3202812,1.9229375 10.65575,2.0621875 10.9780312,2.22896875 L11.2187812,1.98821875 C11.801875,1.40440625 12.7359062,1.42153125 13.3020625,1.9884375 L14.0117813,2.698125 C14.5789375,3.26465625 14.59525,4.198375 14.0115938,4.78140625 L13.7710313,5.02196875 C13.9378125,5.34425 14.0770313,5.67965625 14.187375,6.025 L14.5270625,6.025 C15.3392188,6.025 16,6.68575 16,7.49790625 L16,8.50209375 C16,9.31425 15.3392188,9.975 14.5270625,9.975 L14.187375,9.975 C14.0770313,10.3203125 13.9378125,10.65575 13.7710313,10.9780313 L14.0117813,11.2187813 C14.5950938,11.8014688 14.579,12.7352813 14.0115938,13.3020625 L13.3018125,14.0118125 C12.7343438,14.5800625 11.8005313,14.59425 11.2185625,14.011625 L10.9780313,13.7710938 C10.65575,13.9378438 10.3202813,14.0770938 9.975,14.1874375 L9.975,14.5271563 C9.975,15.33925 9.31425,16 8.5020625,16 Z M5.20361459,12.7441776 C5.64737025,13.006615 6.12497981,13.2048757 6.6231557,13.3334462 C6.82832339,13.3863797 6.9716682,13.5714147 6.9716682,13.7833036 L6.9716682,14.4693021 C6.9716682,14.7619076 7.2097606,14.999969 7.50236615,14.999969 L8.49763385,14.999969 C8.7902394,14.999969 9.0283318,14.7619076 9.0283318,14.4693021 L9.0283318,13.7833036 C9.0283318,13.5714147 9.17167661,13.3863797 9.3768443,13.3334462 C9.87502019,13.2048757 10.3526298,13.006615 10.7963854,12.7441776 C10.9789735,12.6362043 11.2114287,12.6655671 11.3614328,12.8155712 L11.8473433,13.3015126 C12.0568472,13.5112644 12.3932801,13.5064015 12.5976425,13.3017294 L13.3015746,12.5978283 C13.5054414,12.3942093 13.5122555,12.0577145 13.3017604,11.8474981 L12.8156332,11.3613709 C12.66566,11.2113978 12.6362973,10.9789116 12.7442395,10.7963544 C13.006677,10.3526298 13.2049066,9.87502019 13.3334771,9.37681333 C13.3864416,9.17164564 13.5714766,9.0283318 13.7833346,9.0283318 L14.4693021,9.0283318 C14.7619076,9.0283318 15,8.79027038 15,8.49766483 L15,7.50236615 C15,7.2097606 14.7619076,6.97169918 14.4693021,6.97169918 L13.7833346,6.97169918 C13.5714456,6.97169918 13.3864416,6.82835436 13.3334771,6.62321765 C13.2049066,6.12501079 13.006646,5.64740122 12.7442395,5.20367654 C12.6362973,5.02111942 12.66566,4.78863321 12.8156332,4.63866009 L13.3015746,4.15271869 C13.511636,3.94290499 13.5061537,3.60653406 13.3017604,3.40238849 L12.5978903,2.69851837 C12.3938686,2.49421793 12.0573738,2.48824007 11.8475601,2.69833253 L11.3614638,3.18445977 C11.2114907,3.33446386 10.9789425,3.36382663 10.7964164,3.25585342 C10.3526607,2.99341594 9.87505116,2.79515532 9.37687527,2.66658481 C9.17170758,2.6136513 9.02836277,2.42861631 9.02836277,2.2167274 L9.02836277,1.53066697 C9.02836277,1.23806142 8.79027038,1 8.49766483,1 L7.50239712,1 C7.20979157,1 6.97169918,1.23806142 6.97169918,1.53066697 L6.97169918,2.21666545 C6.97169918,2.42855436 6.82835436,2.61358935 6.62318667,2.66652286 C6.12501079,2.79509337 5.64740122,2.993354 5.20364557,3.25579147 C5.0210265,3.36373371 4.78857126,3.33437094 4.63859814,3.18439782 L4.15268772,2.69845642 C3.94318375,2.48870467 3.6067199,2.49356749 3.40238849,2.69823961 L2.69845642,3.4021407 C2.49458961,3.60575972 2.48777547,3.94222358 2.69827058,4.1524709 L3.18439782,4.63859814 C3.33437094,4.78857126 3.36373371,5.02105748 3.25579147,5.20361459 C2.993354,5.64733928 2.79512435,6.12494884 2.66655384,6.6231557 C2.61358935,6.82832339 2.42855436,6.97163723 2.21669642,6.97163723 L1.53069794,6.97163723 C1.23809239,6.9716682 1,7.20972962 1,7.50233517 L1,8.49763385 C1,8.7902394 1.23809239,9.02830082 1.53069794,9.02830082 L2.21666545,9.02830082 C2.42855436,9.02830082 2.61355838,9.17164564 2.66652286,9.37678235 C2.79509337,9.87498921 2.993354,10.3525988 3.2557605,10.7963235 C3.36370274,10.9788806 3.33433997,11.2113668 3.18436685,11.3613399 L2.69842545,11.8472813 C2.48836396,12.057095 2.49384625,12.3934659 2.69823961,12.5976115 L3.40210973,13.3014816 C3.6061314,13.5057821 3.94262623,13.5117599 4.15243993,13.3016675 L4.6385362,12.8155402 C4.74904923,12.7050582 4.97896465,12.6113017 5.20361459,12.7441776 L5.20361459,12.7441776 Z" id="Shape"></path>
                    <path d="M8,11.48125 C6.08040625,11.48125 4.51875,9.9195625 4.51875,8 C4.51875,6.0804375 6.08040625,4.51875 8,4.51875 C9.91959375,4.51875 11.48125,6.0804375 11.48125,8 C11.48125,9.9195625 9.91959375,11.48125 8,11.48125 Z M8,5.45625 C6.59734375,5.45625 5.45625,6.597375 5.45625,8 C5.45625,9.402625 6.597375,10.54375 8,10.54375 C9.402625,10.54375 10.54375,9.402625 10.54375,8 C10.54375,6.597375 9.40265625,5.45625 8,5.45625 L8,5.45625 Z" id="Shape"></path>
                </g>
            </g>
        </g>
    </g>
</svg>