<?xml version="1.0" encoding="UTF-8"?>
<svg width="14px" height="14px" viewBox="0 0 14 14" version="1.1" xmlns="http://www.w3.org/2000/svg" xmlns:xlink="http://www.w3.org/1999/xlink">
    <title>25FA99C4-3667-4B48-A05D-C5414D7FE1EF</title>
    <g id="Page-2" stroke="none" stroke-width="1" fill="none" fill-rule="evenodd">
        <g id="Refresh-Score-Bureau-Dahsboard-Copy" transform="translate(-951.000000, -146.000000)" fill="#1B1DC7">
            <g id="Group-5" transform="translate(874.000000, 109.000000)">
                <g id="Group-2" transform="translate(0.000000, 32.000000)">
                    <path d="M88.6666667,17.4444444 L79.3333333,17.4444444 C78.9055556,17.4444444 78.5555556,17.0944444 78.5555556,16.6666667 L78.5555556,7.33333333 C78.5555556,6.90555556 78.9055556,6.55555556 79.3333333,6.55555556 L83.2222222,6.55555556 C83.65,6.55555556 84,6.20555556 84,5.77777778 C84,5.35 83.65,5 83.2222222,5 L78.5555556,5 C77.6922222,5 77,5.7 77,6.55555556 L77,17.4444444 C77,18.3 77.7,19 78.5555556,19 L89.4444444,19 C90.3,19 91,18.3 91,17.4444444 L91,12.7777778 C91,12.35 90.65,12 90.2222222,12 C89.7944444,12 89.4444444,12.35 89.4444444,12.7777778 L89.4444444,16.6666667 C89.4444444,17.0944444 89.0944444,17.4444444 88.6666667,17.4444444 Z M85.5555556,5.77777778 C85.5555556,6.20555556 85.9055556,6.55555556 86.3333333,6.55555556 L88.3477778,6.55555556 L81.2466667,13.6566667 C80.9433333,13.96 80.9433333,14.45 81.2466667,14.7533333 C81.55,15.0566667 82.04,15.0566667 82.3433333,14.7533333 L89.4444444,7.65222222 L89.4444444,9.66666667 C89.4444444,10.0944444 89.7944444,10.4444444 90.2222222,10.4444444 C90.65,10.4444444 91,10.0944444 91,9.66666667 L91,5.77777778 C91,5.35 90.65,5 90.2222222,5 L86.3333333,5 C85.9055556,5 85.5555556,5.35 85.5555556,5.77777778 Z" id="link"></path>
                </g>
            </g>
        </g>
    </g>
</svg>