<?xml version="1.0" encoding="UTF-8"?>
<svg width="36px" height="36px" viewBox="0 0 36 36" version="1.1" xmlns="http://www.w3.org/2000/svg" xmlns:xlink="http://www.w3.org/1999/xlink">
    <title>5BF84B71-12F4-4C8B-BA37-2BA8E54F8C04@1x</title>
    <g id="Final" stroke="none" stroke-width="1" fill="none" fill-rule="evenodd">
        <g id="Desktop---Credit-Alert-Preferences-" transform="translate(-435.000000, -941.000000)">
            <g id="Group-38" transform="translate(411.000000, 125.000000)">
                <g id="Group-37" transform="translate(24.000000, 40.000000)">
                    <g id="Group-35" transform="translate(0.000000, 419.000000)">
                        <g id="Group-28" transform="translate(0.000000, 357.000000)">
                            <path d="M36,0 L36,36 L0,36 L0,0 L36,0 Z" id="Vector" opacity="0"></path>
                            <g id="Group-27" transform="translate(9.000000, 8.000000)" stroke="#052F5F" stroke-dasharray="0,0" stroke-width="1.50073933">
                                <line x1="9.49434585" y1="4.62721854" x2="9.49434585" y2="8.09767866" id="Vector" stroke-linecap="round"></line>
                                <path d="M2.40882643,6.94091925 L2.40882643,9.12949784 C2.40882643,9.83818031 2.11003845,10.9012037 1.73655363,11.5056682 L0.381337284,13.7150898 C-0.451000295,15.0803457 0.125233139,16.6019287 1.66185648,17.1021751 C6.76259231,18.7592415 12.279495,18.7592415 17.3802309,17.1021751 C18.8208152,16.6331941 19.4397337,14.9865496 18.6607511,13.7150898 L17.3055342,11.5056682 C16.9320494,10.9012037 16.6332634,9.82775852 16.6332634,9.12949784 L16.6332634,6.94091925 C16.6225924,3.12654002 13.421294,0 9.5157097,0 C5.58878347,0 2.40882643,3.10569644 2.40882643,6.94091925 Z" id="Vector" stroke-linecap="round" fill-rule="nonzero"></path>
                                <path d="M13.0478339,17.5295404 C13.0478339,19.43673 11.4471848,21 9.49439266,21 C8.52333209,21 7.62696816,20.6039721 6.98670843,19.978664 C6.34644871,19.3533559 5.94095141,18.4779243 5.94095141,17.5295404" id="Vector" fill-rule="nonzero"></path>
                            </g>
                        </g>
                    </g>
                </g>
            </g>
        </g>
    </g>
</svg>