<?xml version="1.0" encoding="UTF-8"?>
<svg width="20px" height="20px" viewBox="0 0 20 20" version="1.1" xmlns="http://www.w3.org/2000/svg" xmlns:xlink="http://www.w3.org/1999/xlink">
    <title>B9145BB2-2DFE-4D5C-9A26-727CB21E7E21@1x</title>
    <g id="Page-1" stroke="none" stroke-width="1" fill="none" fill-rule="evenodd">
        <g id="Mobile---Preferences---Credit-Alert-Final" transform="translate(-16.000000, -901.000000)">
            <g id="Group-8" transform="translate(0.000000, 531.000000)">
                <g id="Group-31" transform="translate(16.000000, 24.000000)">
                    <g id="Group-16" transform="translate(0.000000, 152.000000)">
                        <g id="Group-3-Copy" transform="translate(0.000000, 193.000000)">
                            <g id="notification-bing" transform="translate(0.000000, 1.000000)">
                                <path d="M20,0 L20,20 L0,20 L0,0 L20,0 Z" id="Vector" opacity="0"></path>
                                <line x1="10" y1="5.36661784" x2="10" y2="8.14161817" id="Vector" stroke="#052F5F" stroke-width="1.2" stroke-linecap="round" stroke-dasharray="0,0"></line>
                                <path d="M4.46668327,7.21666654 L4.46668327,8.96666686 C4.46668327,9.53333353 4.23334983,10.3833333 3.94168317,10.8666666 L2.88334986,12.6333332 C2.23334988,13.7249998 2.68334965,14.9416665 3.8833497,15.3416665 C7.8666832,16.6666667 12.1750152,16.6666667 16.1583487,15.3416665 C17.2833487,14.9666665 17.7666827,13.6499999 17.1583494,12.6333332 L16.1000156,10.8666666 C15.808349,10.3833333 15.5750171,9.5250002 15.5750171,8.96666686 L15.5750171,7.21666654 C15.5666838,4.16666667 13.0666838,1.66666667 10.0166837,1.66666667 C6.95001702,1.66666667 4.46668327,4.14999982 4.46668327,7.21666654 Z" id="Vector" stroke="#052F5F" stroke-width="1.2" stroke-linecap="round" stroke-dasharray="0,0" fill-rule="nonzero"></path>
                                <path d="M12.7750365,15.6833903 C12.7750365,17.2083903 11.5250366,18.4583902 10.0000366,18.4583902 C9.2417032,18.4583902 8.54170293,18.141724 8.04170291,17.641724 C7.54170289,17.1417239 7.22503662,16.4417237 7.22503662,15.6833903" id="Vector" stroke="#052F5F" stroke-width="1.2" stroke-dasharray="0,0" fill-rule="nonzero"></path>
                            </g>
                        </g>
                    </g>
                </g>
            </g>
        </g>
    </g>
</svg>