<?xml version="1.0" encoding="UTF-8"?>
<svg width="20px" height="20px" viewBox="0 0 20 20" version="1.1" xmlns="http://www.w3.org/2000/svg" xmlns:xlink="http://www.w3.org/1999/xlink">
    <title>9C6EF242-39F6-4C90-A042-19D581DF5CF7@1x</title>
    <g id="Page-1" stroke="none" stroke-width="1" fill="none" fill-rule="evenodd">
        <g id="Mobile---Preferences---Credit-Alert-Final" transform="translate(-16.000000, -754.000000)">
            <g id="Group-8" transform="translate(0.000000, 531.000000)">
                <g id="Group-31" transform="translate(16.000000, 24.000000)">
                    <g id="Group-16" transform="translate(0.000000, 152.000000)">
                        <g id="Group-13" transform="translate(0.000000, 46.000000)">
                            <g id="vuesax/linear/mobile" transform="translate(0.000000, 1.000000)">
                                <path d="M20,0 L20,20 L0,20 L0,0 L20,0 Z" id="Vector" opacity="0"></path>
                                <g id="mobile" transform="translate(3.000000, 1.000000)" stroke="#052F5F" stroke-dasharray="0,0" stroke-linecap="round" stroke-linejoin="round" stroke-width="1.2">
                                    <path d="M14,13.5 C14,17.1 13.125,18 9.625,18 L4.375,18 C0.875,18 0,17.1 0,13.5 L0,4.5 C0,0.9 0.875,0 4.375,0 L9.625,0 C13.125,0 14,0.9 14,4.5 L14,13.5 Z" id="Vector" fill-rule="nonzero"></path>
                                    <line x1="8.75" y1="3.15" x2="5.25" y2="3.15" id="Vector"></line>
                                    <path d="M6.99995744,15.3900003 C6.25092124,15.3900003 5.64370728,14.7654365 5.64370728,13.9949993 C5.64370728,13.2245621 6.25092124,12.6 6.99995744,12.6 C7.74899364,12.6 8.35620761,13.2245621 8.35620761,13.9949993 C8.35620761,14.7654365 7.74899364,15.3900003 6.99995744,15.3900003 Z" id="Vector"></path>
                                </g>
                            </g>
                        </g>
                    </g>
                </g>
            </g>
        </g>
    </g>
</svg>