<?xml version="1.0" encoding="UTF-8"?>
<svg width="36px" height="36px" viewBox="0 0 36 36" version="1.1" xmlns="http://www.w3.org/2000/svg" xmlns:xlink="http://www.w3.org/1999/xlink">
    <title>FCA97497-F6A3-49BE-8309-0A3339C89EBB@1x</title>
    <g id="Final" stroke="none" stroke-width="1" fill="none" fill-rule="evenodd">
        <g id="Desktop---Credit-Alert-Preferences-" transform="translate(-435.000000, -752.000000)">
            <g id="Group-38" transform="translate(411.000000, 125.000000)">
                <g id="Group-37" transform="translate(24.000000, 40.000000)">
                    <g id="Group-35" transform="translate(0.000000, 419.000000)">
                        <g id="vuesax/linear/mobile" transform="translate(0.000000, 168.000000)">
                            <path d="M36,0 L36,36 L0,36 L0,0 L36,0 Z" id="Vector" opacity="0"></path>
                            <g id="mobile" transform="translate(10.000000, 8.000000)" stroke="#052F5F" stroke-dasharray="0,0" stroke-linecap="round" stroke-linejoin="round" stroke-width="1.37142857">
                                <path d="M16,15.75 C16,19.95 15,21 11,21 L5,21 C1,21 0,19.95 0,15.75 L0,5.25 C0,1.05 1,0 5,0 L11,0 C15,0 16,1.05 16,5.25 L16,15.75 Z" id="Vector" fill-rule="nonzero"></path>
                                <line x1="10" y1="3.675" x2="6" y2="3.675" id="Vector"></line>
                                <path d="M7.99995136,17.9550004 C7.14390999,17.9550004 6.44995117,17.2263426 6.44995117,16.3274992 C6.44995117,15.4286558 7.14390999,14.7 7.99995136,14.7 C8.85599273,14.7 9.54995155,15.4286558 9.54995155,16.3274992 C9.54995155,17.2263426 8.85599273,17.9550004 7.99995136,17.9550004 Z" id="Vector"></path>
                            </g>
                        </g>
                    </g>
                </g>
            </g>
        </g>
    </g>
</svg>