<?xml version="1.0" encoding="UTF-8"?>
<svg width="20px" height="20px" viewBox="0 0 20 20" version="1.1" xmlns="http://www.w3.org/2000/svg" xmlns:xlink="http://www.w3.org/1999/xlink">
    <title>AF18F9D5-9EEA-4CF3-A18A-920AE028AA4F@1x</title>
    <g id="Page-1" stroke="none" stroke-width="1" fill="none" fill-rule="evenodd">
        <g id="Mobile---Preferences---Credit-Alert-Final" transform="translate(-16.000000, -708.000000)">
            <g id="Group-8" transform="translate(0.000000, 531.000000)">
                <g id="Group-31" transform="translate(16.000000, 24.000000)">
                    <g id="Group-16" transform="translate(0.000000, 152.000000)">
                        <g id="message-text" transform="translate(0.000000, 1.000000)">
                            <path d="M20,0 L20,20 L0,20 L0,0 L20,0 Z" id="Vector" opacity="0"></path>
                            <path d="M6.66666667,15.8333333 C3.33333333,15.8333333 1.66666667,15 1.66666667,10.8333333 L1.66666667,6.66666667 C1.66666667,3.33333333 3.33333333,1.66666667 6.66666667,1.66666667 L13.3333333,1.66666667 C16.6666667,1.66666667 18.3333333,3.33333333 18.3333333,6.66666667 L18.3333333,10.8333333 C18.3333333,14.1666667 16.6666667,15.8333333 13.3333333,15.8333333 L12.9166667,15.8333333 C12.6583333,15.8333333 12.4083332,15.958333 12.2499998,16.1666667 L10.9999998,17.833333 C10.4499998,18.5666663 9.55000018,18.5666663 9.00000016,17.833333 L7.75000016,16.1666667 C7.61666683,15.983333 7.30833334,15.8333333 7.08333333,15.8333333 L6.66666667,15.8333333 Z" id="Vector" stroke="#052F5F" stroke-width="1.2" stroke-linecap="round" stroke-linejoin="round" stroke-dasharray="0,0" fill-rule="nonzero"></path>
                            <line x1="5.83333333" y1="6.66666667" x2="14.1666667" y2="6.66666667" id="Vector" stroke="#052F5F" stroke-width="1.2" stroke-linecap="round" stroke-linejoin="round" stroke-dasharray="0,0"></line>
                            <line x1="5.83333333" y1="10.8333333" x2="10.8333333" y2="10.8333333" id="Vector" stroke="#052F5F" stroke-width="1.2" stroke-linecap="round" stroke-linejoin="round" stroke-dasharray="0,0"></line>
                        </g>
                    </g>
                </g>
            </g>
        </g>
    </g>
</svg>