<?xml version="1.0" encoding="UTF-8"?>
<svg width="36px" height="36px" viewBox="0 0 36 36" version="1.1" xmlns="http://www.w3.org/2000/svg" xmlns:xlink="http://www.w3.org/1999/xlink">
    <title>02DEF030-4791-499E-9FDF-80E8FC7121C4@1x</title>
    <g id="Final" stroke="none" stroke-width="1" fill="none" fill-rule="evenodd">
        <g id="Desktop---Credit-Alert-Preferences-" transform="translate(-435.000000, -881.000000)">
            <g id="Group-38" transform="translate(411.000000, 125.000000)">
                <g id="Group-37" transform="translate(24.000000, 40.000000)">
                    <g id="Group-35" transform="translate(0.000000, 419.000000)">
                        <g id="Group-22" transform="translate(0.000000, 297.000000)">
                            <path d="M36,0 L36,36 L0,36 L0,0 L36,0 Z" id="Vector" opacity="0"></path>
                            <g id="Group-21" transform="translate(8.000000, 9.000000)" fill-rule="nonzero" stroke="#052F5F" stroke-dasharray="0,0" stroke-linecap="round" stroke-linejoin="round" stroke-width="1.52470588">
                                <path d="M5.25,18 C2.1,18 0,16.4117647 0,12.7058824 L0,5.29411765 C0,1.58823529 2.1,0 5.25,0 L15.75,0 C18.9,0 21,1.58823529 21,5.29411765 L21,12.7058824 C21,16.4117647 18.9,18 15.75,18 L5.25,18 Z" id="Vector"></path>
                                <path d="M15.75,5.82352941 L12.4634949,8.47058824 C11.3819949,9.33882352 9.60749484,9.33882352 8.52599487,8.47058824 L5.25,5.82352941" id="Vector"></path>
                            </g>
                        </g>
                    </g>
                </g>
            </g>
        </g>
    </g>
</svg>