<?xml version="1.0" encoding="UTF-8"?>
<svg width="18px" height="18px" viewBox="0 0 18 18" version="1.1" xmlns="http://www.w3.org/2000/svg" xmlns:xlink="http://www.w3.org/1999/xlink">
    <title>8261ED84-1A92-4A81-8468-052B9D857C86@1x</title>
    <g id="Page-1" stroke="none" stroke-width="1" fill="none" fill-rule="evenodd" opacity="0.6">
        <g id="Mobile---Preferences---Credit-Alert-Final" transform="translate(-326.000000, -709.000000)">
            <g id="Group-8" transform="translate(0.000000, 531.000000)">
                <g id="Group-31" transform="translate(16.000000, 24.000000)">
                    <g id="Group-16" transform="translate(0.000000, 152.000000)">
                        <g id="lock" transform="translate(310.000000, 2.000000)">
                            <path d="M4.5,7.5 L4.5,6 C4.5,3.51750004 5.25,1.5 9,1.5 C12.75,1.5 13.5,3.51750004 13.5,6 L13.5,7.5" id="Vector" stroke="#052F5F" stroke-width="1.125" stroke-linecap="round" stroke-linejoin="round" stroke-dasharray="0,0" fill-rule="nonzero"></path>
                            <path d="M9,13.875 C7.96446607,13.875 7.125,13.0355339 7.125,12 C7.125,10.9644661 7.96446607,10.125 9,10.125 C10.0355339,10.125 10.875,10.9644661 10.875,12 C10.875,13.0355339 10.0355339,13.875 9,13.875 Z" id="Vector" stroke="#052F5F" stroke-width="1.125" stroke-linecap="round" stroke-linejoin="round" stroke-dasharray="0,0"></path>
                            <path d="M5.25,16.5 C2.25,16.5 1.5,15.75 1.5,12.75 L1.5,11.25 C1.5,8.25 2.25,7.5 5.25,7.5 L12.75,7.5 C15.75,7.5 16.5,8.25 16.5,11.25 L16.5,12.75 C16.5,15.75 15.75,16.5 12.75,16.5 L5.25,16.5 Z" id="Vector" stroke="#052F5F" stroke-width="1.125" stroke-linecap="round" stroke-linejoin="round" stroke-dasharray="0,0" fill-rule="nonzero"></path>
                            <path d="M18,3.55271368e-15 L18,18 L0,18 L0,3.55271368e-15 L18,3.55271368e-15 Z" id="Vector" opacity="0" transform="translate(9.000000, 9.000000) rotate(-180.000000) translate(-9.000000, -9.000000) "></path>
                        </g>
                    </g>
                </g>
            </g>
        </g>
    </g>
</svg>