<?xml version="1.0" encoding="UTF-8"?>
<svg width="36px" height="36px" viewBox="0 0 36 36" version="1.1" xmlns="http://www.w3.org/2000/svg" xmlns:xlink="http://www.w3.org/1999/xlink">
    <title>C0B485CC-91F3-4DC0-A5BA-5A89C0A62A70@1x</title>
    <g id="Final" stroke="none" stroke-width="1" fill="none" fill-rule="evenodd">
        <g id="Desktop---Credit-Alert-Preferences-" transform="translate(-435.000000, -692.000000)">
            <g id="Group-38" transform="translate(411.000000, 125.000000)">
                <g id="Group-37" transform="translate(24.000000, 40.000000)">
                    <g id="Group-35" transform="translate(0.000000, 419.000000)">
                        <g id="message-text" transform="translate(0.000000, 108.000000)">
                            <path d="M36,0 L36,36 L0,36 L0,0 L36,0 Z" id="Vector" opacity="0"></path>
                            <g id="Group-19" transform="translate(8.000000, 8.000000)" stroke="#052F5F" stroke-dasharray="0,0" stroke-linecap="round" stroke-linejoin="round" stroke-width="1.44">
                                <path d="M6,16.949153 C2,16.949153 0,15.952144 0,10.967099 L0,5.982054 C0,1.994018 2,0 6,0 L14,0 C18,0 20,1.994018 20,5.982054 L20,10.967099 C20,14.955135 18,16.949153 14,16.949153 L13.5,16.949153 C13.19,16.949153 12.8899998,17.098704 12.6999998,17.3479562 L11.1999998,19.3419742 C10.5399998,20.2193421 9.46000022,20.2193421 8.80000019,19.3419742 L7.30000019,17.3479562 C7.14000019,17.1286142 6.77000001,16.949153 6.5,16.949153 L6,16.949153 Z" id="Vector" fill-rule="nonzero"></path>
                                <line x1="5" y1="5.982054" x2="15" y2="5.982054" id="Vector"></line>
                                <line x1="5" y1="10.967099" x2="11" y2="10.967099" id="Vector"></line>
                            </g>
                        </g>
                    </g>
                </g>
            </g>
        </g>
    </g>
</svg>