<?xml version="1.0" encoding="UTF-8"?>
<svg width="20px" height="20px" viewBox="0 0 20 20" version="1.1" xmlns="http://www.w3.org/2000/svg" xmlns:xlink="http://www.w3.org/1999/xlink">
    <title>8203E774-1A00-4546-9BE0-62747A45EC77@1x</title>
    <g id="Page-1" stroke="none" stroke-width="1" fill="none" fill-rule="evenodd">
        <g id="Mobile---Preferences---Credit-Alert-Final" transform="translate(-16.000000, -855.000000)">
            <g id="Group-8" transform="translate(0.000000, 531.000000)">
                <g id="Group-31" transform="translate(16.000000, 24.000000)">
                    <g id="Group-16" transform="translate(0.000000, 152.000000)">
                        <g id="Group-4" transform="translate(0.000000, 147.000000)">
                            <g id="sms" transform="translate(0.000000, 1.000000)">
                                <path d="M20,0 L20,20 L0,20 L0,0 L20,0 Z" id="Vector" opacity="0"></path>
                                <path d="M5.83333333,17.0833333 C3.33333333,17.0833333 1.66666667,15.8333333 1.66666667,12.9166667 L1.66666667,7.08333333 C1.66666667,4.16666667 3.33333333,2.91666667 5.83333333,2.91666667 L14.1666667,2.91666667 C16.6666667,2.91666667 18.3333333,4.16666667 18.3333333,7.08333333 L18.3333333,12.9166667 C18.3333333,15.8333333 16.6666667,17.0833333 14.1666667,17.0833333 L5.83333333,17.0833333 Z" id="Vector" stroke="#052F5F" stroke-width="1.2" stroke-linecap="round" stroke-linejoin="round" stroke-dasharray="0,0" fill-rule="nonzero"></path>
                                <path d="M14.1666667,7.5 L11.5583293,9.58333333 C10.699996,10.2666667 9.29166257,10.2666667 8.43332926,9.58333333 L5.83333333,7.5" id="Vector" stroke="#052F5F" stroke-width="1.2" stroke-linecap="round" stroke-linejoin="round" stroke-dasharray="0,0" fill-rule="nonzero"></path>
                            </g>
                        </g>
                    </g>
                </g>
            </g>
        </g>
    </g>
</svg>