<?xml version="1.0" encoding="UTF-8"?>
<svg width="14px" height="14px" viewBox="0 0 14 14" version="1.1" xmlns="http://www.w3.org/2000/svg" xmlns:xlink="http://www.w3.org/1999/xlink">
    <title>AEF115CC-2F59-4E2B-89CA-199EDABC0B6C@1x</title>
    <g id="Final" stroke="none" stroke-width="1" fill="none" fill-rule="evenodd">
        <g id="Desktop---Credit-Alert-Preferences-" transform="translate(-531.000000, -650.000000)">
            <g id="Group-38" transform="translate(411.000000, 125.000000)">
                <g id="Group-37" transform="translate(24.000000, 40.000000)">
                    <g id="Group-35" transform="translate(0.000000, 419.000000)">
                        <g id="Group-9" transform="translate(0.000000, 62.000000)">
                            <g id="Group-24" transform="translate(96.000000, 4.000000)">
                                <circle id="Oval" fill="#52CB60" cx="7" cy="7" r="7"></circle>
                                <path d="M6.18043193,9.80428863 C6.11361257,9.87642129 6.02244765,9.91666667 5.92774869,9.91666667 C5.83304973,9.91666667 5.74188482,9.87642129 5.67506545,9.80428863 L3.65706806,7.63820191 C3.44764398,7.41344583 3.44764398,7.0489898 3.65706806,6.82465515 L3.9097513,6.55340265 C4.11924085,6.32864657 4.4584424,6.32864657 4.66786649,6.55340265 L5.92774869,7.90559141 L9.33213351,4.25190039 C9.54162304,4.02714431 9.88115183,4.02714431 10.0902487,4.25190039 L10.3429319,4.5231529 C10.552356,4.74790898 10.552356,5.11229475 10.3429319,5.33669965 L6.18043193,9.80428863 Z" id="Path" fill="#FFFFFF" fill-rule="nonzero"></path>
                            </g>
                        </g>
                    </g>
                </g>
            </g>
        </g>
    </g>
</svg>