<?xml version="1.0" encoding="UTF-8"?>
<svg width="21px" height="20px" viewBox="0 0 21 20" version="1.1" xmlns="http://www.w3.org/2000/svg" xmlns:xlink="http://www.w3.org/1999/xlink">
    <title>825046D5-D61B-4C87-9BC2-14A6769DE52A@1x</title>
    <g id="Page-1" stroke="none" stroke-width="1" fill="none" fill-rule="evenodd">
        <g id="Mobile---Preferences---Credit-Alert-Final" transform="translate(-16.000000, -809.000000)">
            <g id="Group-8" transform="translate(0.000000, 531.000000)">
                <g id="Group-31" transform="translate(16.000000, 24.000000)">
                    <g id="Group-16" transform="translate(0.000000, 152.000000)">
                        <g id="Group-15" transform="translate(0.000000, 101.000000)">
                            <g id="Group-11" transform="translate(0.000000, 1.000000)">
                                <path d="M20,0 L20,20 L0,20 L0,0 L20,0 Z" id="Vector" opacity="0"></path>
                                <g id="noun-whatsapp-5245923" transform="translate(1.000000, 1.000000)" fill="#052F5F" fill-rule="nonzero" stroke="#052F5F">
                                    <path d="M9.81085709,0 C4.74399388,0 0.621544602,4.03763704 0.621544602,9.00025835 C0.621544602,10.5187088 1.01529692,12.015338 1.76195387,13.341364 L0.0312976665,17.4422506 C-0.0288669182,17.5847951 -0.000901431962,17.7480675 0.103237986,17.8634022 C0.182540495,17.9515271 0.295695887,18 0.412351027,18 C0.448598152,18 0.485214564,17.9953146 0.521092874,17.9855832 L5.13572076,16.7479035 C6.54880895,17.567518 8.16114257,18 9.81068752,18 C14.8775507,18 19,13.9625706 19,8.99958018 C19,4.03695888 14.8775507,0.000244509556 9.81068752,0.000244509556 L9.81085709,0 Z M9.81085709,17.1927125 C8.25424624,17.1927125 6.73390466,16.769937 5.41483394,15.9697956 C5.34914889,15.9297888 5.27389252,15.9092449 5.19790135,15.9092449 C5.16147005,15.9092449 5.12503782,15.9139303 5.08915951,15.9236618 L1.11466057,16.989585 L2.60080541,13.4677247 C2.64993378,13.3514904 2.64073269,13.2193953 2.57633402,13.1107269 C1.83686497,11.8647432 1.44605189,10.4434506 1.44605189,8.99996771 C1.44605189,4.48244606 5.19846046,0.80705223 9.81106293,0.80705223 C14.4236654,0.80705223 18.176074,4.48226152 18.176074,8.99996771 C18.176074,13.5176739 14.4236654,17.1928832 9.81106293,17.1928832 L9.81085709,17.1927125 Z" id="Shape" stroke-width="0.5"></path>
                                    <path d="M13.7119225,10.9146298 L11.718903,9.89484039 C11.5803544,9.82401566 11.4129176,9.83591358 11.2863284,9.92565643 L9.60607235,11.1175713 C8.66344832,10.432068 8.09783622,9.82024052 8.08756778,9.80907612 C8.08131204,9.80222801 8.07376803,9.79718235 8.06714442,9.79087492 C8.06125655,9.78510819 8.05647277,9.77844046 8.04984869,9.77285411 C8.04175263,9.766006 7.65554527,9.43207699 7.16685698,8.79357027 L8.41178768,7.10986824 C8.50323332,6.98588344 8.51556016,6.82189135 8.44306685,6.68619316 L7.40199768,4.73449943 C7.29693458,4.53735091 7.04890934,4.46075945 6.8477845,4.56275684 L5.00342179,5.49479958 C4.82641837,5.58418397 4.74012578,5.78476024 4.79808124,5.97127028 C5.64960818,8.70327243 7.29288843,10.1935812 7.48977872,10.3651531 C7.70155825,10.5929392 9.65081449,12.628066 12.4492472,13.4647962 C12.4891745,13.4766899 12.5296519,13.4822767 12.5695811,13.4822767 C12.7204565,13.4822767 12.8636071,13.4008228 12.9357311,13.2636806 L13.8875402,11.457447 C13.9914964,11.2602985 13.9132999,11.0175512 13.7121901,10.9146358 L13.7119225,10.9146298 Z M5.69170502,6.05488701 L6.86079998,5.4641427 L7.59400434,6.83860934 L6.67290635,8.08459313 C6.32552217,7.53550771 5.97206172,6.85683222 5.69165792,6.05488701 L5.69170502,6.05488701 Z M12.3638364,12.5879055 C11.6068922,12.3275029 10.9189066,11.9726641 10.326069,11.6034086 L11.562898,10.7259422 L12.9664243,11.4440622 L12.3638364,12.5879055 Z" id="Shape" stroke-width="0.3"></path>
                                </g>
                            </g>
                        </g>
                    </g>
                </g>
            </g>
        </g>
    </g>
</svg>