<?xml version="1.0" encoding="UTF-8"?>
<svg width="36px" height="36px" viewBox="0 0 36 36" version="1.1" xmlns="http://www.w3.org/2000/svg" xmlns:xlink="http://www.w3.org/1999/xlink">
    <title>FBB785E8-4515-45DE-87CB-1494C96404FE@1x</title>
    <g id="Final" stroke="none" stroke-width="1" fill="none" fill-rule="evenodd">
        <g id="Desktop---Credit-Alert-Preferences-" transform="translate(-435.000000, -821.000000)">
            <g id="Group-38" transform="translate(411.000000, 125.000000)">
                <g id="Group-37" transform="translate(24.000000, 40.000000)">
                    <g id="Group-35" transform="translate(0.000000, 419.000000)">
                        <g id="Group-20" transform="translate(0.000000, 237.000000)">
                            <path d="M36,0 L36,36 L0,36 L0,0 L36,0 Z" id="Vector" opacity="0"></path>
                            <g id="noun-whatsapp-5245923" transform="translate(7.000000, 7.000000)" fill="#052F5F" fill-rule="nonzero" stroke="#052F5F">
                                <path d="M11.8763007,0 C5.74272943,0 0.752396098,4.93488972 0.752396098,11.0003158 C0.752396098,12.8561997 1.22904363,14.6854131 2.13289153,16.3061116 L0.0378866489,21.3183063 C-0.0349441642,21.4925273 -0.00109120711,21.6920825 0.124972299,21.8330471 C0.220970073,21.9407554 0.357947653,22 0.49916177,22 C0.543039869,22 0.587364999,21.9942735 0.630796636,21.9823794 L6.21692513,20.4696598 C7.92750557,21.4714108 9.87927785,22 11.8760954,22 C18.0096667,22 23,17.065364 23,10.9994869 C23,4.93406085 18.0096667,0.000298845013 11.8760954,0.000298845013 L11.8763007,0 Z M11.8763007,21.0133153 C9.99198229,21.0133153 8.1515688,20.4965897 6.55479898,19.5186391 C6.4752855,19.4697419 6.38418569,19.4446327 6.29219637,19.4446327 C6.24809533,19.4446327 6.20399314,19.4503592 6.16056151,19.4622533 L1.34932595,20.7650484 L3.1483434,16.4605525 C3.20781458,16.3184883 3.19667642,16.1570387 3.11872013,16.0242218 C2.22357339,14.5013527 1.75048386,12.7642174 1.75048386,10.9999605 C1.75048386,5.47854518 6.29287319,0.98639717 11.8765499,0.98639717 C17.4602265,0.98639717 22.0026159,5.47831964 22.0026159,10.9999605 C22.0026159,16.5216014 17.4602265,21.0135239 11.8765499,21.0135239 L11.8763007,21.0133153 Z" id="Shape" stroke-width="0.611111111"></path>
                                <path d="M16.5986431,13.3401031 L14.1860404,12.0936938 C14.0183237,12.0071302 13.815637,12.0216722 13.6623975,12.1313579 L11.6284034,13.5881427 C10.4873322,12.7503054 9.80264385,12.0025162 9.79021363,11.9888708 C9.78264089,11.9805009 9.77350867,11.974334 9.76549061,11.9666249 C9.75836319,11.9595767 9.75257231,11.9514272 9.74455367,11.9445995 C9.73475319,11.9362295 9.26723901,11.5280941 8.67566898,10.747697 L10.1826903,8.68983896 C10.2933877,8.53830199 10.3083097,8.3378672 10.2205546,8.17201386 L8.96031298,5.78661041 C8.83313133,5.54565111 8.53289025,5.45203932 8.28942334,5.5767028 L6.05677375,6.71586616 C5.84250644,6.82511375 5.738047,7.07026251 5.8082036,7.29821923 C6.83899938,10.637333 8.82823337,12.4588215 9.06657424,12.6685205 C9.32293893,12.9469256 11.6825649,15.4343029 15.0701414,16.4569731 C15.1184744,16.4715099 15.1674734,16.4783382 15.2158087,16.4783382 C15.3984474,16.4783382 15.5717349,16.3787834 15.6590429,16.2111652 L16.8112329,14.0035463 C16.9370746,13.762587 16.8424156,13.4658959 16.5989669,13.3401104 L16.5986431,13.3401031 Z M6.88995871,7.40041746 L8.30517892,6.67839663 L9.19274209,8.3583003 L8.07772874,9.88116938 C7.65721105,9.21006498 7.22933787,8.38057272 6.88990169,7.40041746 L6.88995871,7.40041746 Z M14.9667493,15.3852179 C14.0504484,15.0669479 13.2176238,14.6332562 12.4999783,14.1819438 L13.9971923,13.1094849 L15.6961979,13.9871871 L14.9667493,15.3852179 Z" id="Shape" stroke-width="0.55"></path>
                            </g>
                        </g>
                    </g>
                </g>
            </g>
        </g>
    </g>
</svg>