<?xml version="1.0" encoding="UTF-8"?>
<svg width="84px" height="83px" viewBox="0 0 84 83" version="1.1" xmlns="http://www.w3.org/2000/svg" xmlns:xlink="http://www.w3.org/1999/xlink">
    <title>F83B057F-A850-4A02-8EF3-87E15C49A28C</title>
    <defs>
        <path d="M41.4019608,78.815534 C63.3797908,78.815534 81.1960784,61.1730153 81.1960784,39.407767 C81.1960784,17.6425187 63.3797908,0 41.4019608,0 C19.4241307,0 1.60784314,17.6425187 1.60784314,39.407767 C1.60784314,61.1730153 19.4241307,78.815534 41.4019608,78.815534 Z" id="path-1"></path>
        <linearGradient x1="0.275145216%" y1="48.9452767%" x2="97.2791195%" y2="48.9452767%" id="linearGradient-3">
            <stop stop-color="#FFD44F" offset="0.289017%"></stop>
            <stop stop-color="#FFA607" offset="100%"></stop>
        </linearGradient>
        <linearGradient x1="0.611433812%" y1="49.403852%" x2="97.6154081%" y2="49.403852%" id="linearGradient-4">
            <stop stop-color="#FFD44F" offset="0.289017%"></stop>
            <stop stop-color="#FFA607" offset="100%"></stop>
        </linearGradient>
        <linearGradient x1="-0.681871386%" y1="50.0921569%" x2="100.064207%" y2="50.0921569%" id="linearGradient-5">
            <stop stop-color="#FFD44F" offset="0.289017%"></stop>
            <stop stop-color="#FFA607" offset="100%"></stop>
        </linearGradient>
        <linearGradient x1="57.5042433%" y1="-8.47662655%" x2="43.7183933%" y2="102.958165%" id="linearGradient-6">
            <stop stop-color="#FFD44F" offset="0.289017%"></stop>
            <stop stop-color="#FFA607" offset="100%"></stop>
        </linearGradient>
        <linearGradient x1="49.7499167%" y1="103.033471%" x2="49.7499167%" y2="-3.26706789%" id="linearGradient-7">
            <stop stop-color="#FFD44F" offset="0.289017%"></stop>
            <stop stop-color="#FF9807" offset="100%"></stop>
        </linearGradient>
        <linearGradient x1="30.3700389%" y1="35.2374883%" x2="56.6333182%" y2="66.0908359%" id="linearGradient-8">
            <stop stop-color="#FAA404" offset="0%"></stop>
            <stop stop-color="#FF7904" stop-opacity="0" offset="100%"></stop>
        </linearGradient>
        <linearGradient x1="74.2987587%" y1="99.5298858%" x2="27.1999962%" y2="21.7506156%" id="linearGradient-9">
            <stop stop-color="#FFE491" offset="0%"></stop>
            <stop stop-color="#FFFFFF" offset="100%"></stop>
        </linearGradient>
        <linearGradient x1="-6.92343103%" y1="20.5733716%" x2="82.4213595%" y2="112.664013%" id="linearGradient-10">
            <stop stop-color="#EF4896" offset="0%"></stop>
            <stop stop-color="#F14D9A" stop-opacity="0" offset="100%"></stop>
        </linearGradient>
        <linearGradient x1="23.2474147%" y1="9.91416086%" x2="78.8732829%" y2="91.6472351%" id="linearGradient-11">
            <stop stop-color="#83A6FF" offset="0%"></stop>
            <stop stop-color="#5A78FF" offset="100%"></stop>
        </linearGradient>
        <path d="M26.5294118,13.2037923 C26.5294118,14.2280117 26.3908737,15.2522311 26.1836907,16.2147505 C26.0457767,16.8255802 25.8385937,17.3747099 25.6314106,17.9238395 C24.3184194,21.3420175 21.5551471,24.0814959 18.1004325,25.3833652 C17.8246045,25.4512351 17.6174215,25.5869751 17.3409695,25.654845 C16.0279783,26.0620648 14.7156111,26.2718447 13.2647059,26.2718447 C5.94153485,26.2718447 0,20.3856681 0,13.1359223 C0,5.88000657 5.94153485,0 13.2647059,0 C20.5878769,0.0678699604 26.5294118,5.94787653 26.5294118,13.2037923 Z" id="path-12"></path>
        <filter x="-15.1%" y="-7.6%" width="130.2%" height="130.5%" filterUnits="objectBoundingBox" id="filter-13">
            <feOffset dx="0" dy="2" in="SourceAlpha" result="shadowOffsetOuter1"></feOffset>
            <feGaussianBlur stdDeviation="1" in="shadowOffsetOuter1" result="shadowBlurOuter1"></feGaussianBlur>
            <feColorMatrix values="0 0 0 0 0.11372549   0 0 0 0 0.294117647   0 0 0 0 1  0 0 0 0.22 0" type="matrix" in="shadowBlurOuter1"></feColorMatrix>
        </filter>
        <linearGradient x1="31.2747761%" y1="22.7651515%" x2="61.1902996%" y2="56.5530303%" id="linearGradient-14">
            <stop stop-color="#4F6AFF" offset="0%"></stop>
            <stop stop-color="#657EFF" stop-opacity="0" offset="100%"></stop>
        </linearGradient>
        <linearGradient x1="76.4462407%" y1="61.477381%" x2="33.6190105%" y2="27.3898022%" id="linearGradient-15">
            <stop stop-color="#C2D1FF" offset="1.13208%"></stop>
            <stop stop-color="#FFFFFF" offset="100%"></stop>
        </linearGradient>
    </defs>
    <g id="desktop" stroke="none" stroke-width="1" fill="none" fill-rule="evenodd">
        <g id="finpower-landing-page" transform="translate(-348.000000, -395.000000)">
            <g id="Group" transform="translate(240.000000, 395.000000)">
                <g id="all-accounts" transform="translate(109.000000, 0.000000)">
                    <g id="Rectangle-+-Path-+-Path-+-Rectangle-+-Path-+-Path-Mask">
                        <path d="M41.0538722,78.8131309 C62.1437091,78.8131309 79.2401467,62.4510412 79.2401467,42.2654345 C79.2401467,22.0798279 62.1437091,5.71773821 41.0538722,5.71773821 C19.9640353,5.71773821 2.86759771,22.0798279 2.86759771,42.2654345 C2.86759771,62.4510412 19.9640353,78.8131309 41.0538722,78.8131309 Z" id="Mask" fill="#EAEEF9" fill-rule="nonzero"></path>
                        <path d="M41,82 C63.6436167,82 82,63.821834 82,41.3980583 C82,18.9742825 63.6436167,0.796116505 41,0.796116505 C18.3563833,0.796116505 0,18.9742825 0,41.3980583 C0,63.821834 18.3563833,82 41,82 Z" id="Path" stroke="#EAEEF9" stroke-width="0.600558785" stroke-linecap="round" stroke-linejoin="round" stroke-dasharray="0.3002794027328491,1.801676177978516"></path>
                        <mask id="mask-2" fill="white">
                            <use xlink:href="#path-1"></use>
                        </mask>
                        <use id="Mask-Copy-2" fill-opacity="0" fill="#EAEEF9" fill-rule="nonzero" xlink:href="#path-1"></use>
                        <g id="Group-20" mask="url(#mask-2)">
                            <g transform="translate(17.982043, 5.717738)">
                                <path d="M38.1712019,0 C41.4099023,0 43.9666721,2.55477528 43.9666721,5.78087837 L43.9666721,81.2120171 C43.9666721,84.4381202 41.4099023,86.9928955 38.1712019,86.9928955 L5.79359155,86.9928955 C2.55489122,86.9928955 0,84.4381202 0,81.2120171 L0,5.94871032 C0,2.72260723 2.55489122,0.167831953 5.79359155,0.167831953 L38.1712019,0 Z" id="Path" fill="#1C3754" fill-rule="nonzero"></path>
                                <path d="M41.0698763,5.94871032 L41.0698763,81.3798491 C41.0698763,82.9089846 39.8769675,84.2702883 38.1712019,84.2702883 L38.0021282,84.2702883 L5.79359155,84.2702883 L5.62263927,84.2702883 C4.08970454,84.2702883 2.7258435,82.9089846 2.7258435,81.3798491 L2.7258435,5.94871032 C2.7258435,4.2517428 4.08970454,3.05827114 5.62263927,3.05827114 L10.3942743,3.05827114 C11.0762049,3.05827114 11.5871831,3.58041499 11.5871831,4.2517428 C11.5871831,5.44521447 12.6091396,6.47085418 13.8020484,6.47085418 L30.1627451,6.47085418 C31.3556539,6.47085418 32.3776104,5.44521447 32.3776104,4.2517428 C32.3776104,3.58041499 32.8885886,3.05827114 33.3995669,3.05827114 L38.0021282,3.05827114 C39.7060152,2.89043919 41.0698763,4.2517428 41.0698763,5.94871032 Z" id="Path" fill="#FFFFFF" fill-rule="nonzero"></path>
                                <path d="M10.8426327,20.053059 C11.4080902,20.053059 11.867094,19.5942562 11.867094,19.028274 C11.867094,18.4622918 11.4080902,18.0028622 10.8426327,18.0028622 C10.2771752,18.0028622 9.81879761,18.4622918 9.81879761,19.028274 C9.81879761,19.5942562 10.2771752,20.053059 10.8426327,20.053059 Z" id="Path" fill="url(#linearGradient-3)" fill-rule="nonzero"></path>
                                <path d="M30.6716171,43.7768411 C31.2370746,43.7768411 31.6954521,43.3180382 31.6954521,42.7514293 C31.6954521,42.1854471 31.2370746,41.7266443 30.6716171,41.7266443 C30.1055333,41.7266443 29.6471558,42.1854471 29.6471558,42.7514293 C29.6471558,43.3180382 30.1055333,43.7768411 30.6716171,43.7768411 Z" id="Path" fill="url(#linearGradient-4)" fill-rule="nonzero"></path>
                                <path d="M36.3074065,15.8048489 C36.872864,15.8048489 37.3312416,15.3460461 37.3312416,14.7794372 C37.3312416,14.213455 36.872864,13.7546521 36.3074065,13.7546521 C35.7413228,13.7546521 35.2829452,14.213455 35.2829452,14.7794372 C35.2829452,15.3460461 35.7413228,15.8048489 36.3074065,15.8048489 Z" id="Path-Copy" fill="url(#linearGradient-4)" fill-rule="nonzero"></path>
                                <rect id="Rectangle" fill="#EDF0FC" fill-rule="evenodd" x="9.39298241" y="50.3495858" width="26.3003507" height="3.72959895" rx="0.891203545"></rect>
                                <rect id="Rectangle-Copy" fill="#EDF0FC" fill-rule="evenodd" x="9.39298241" y="59.6735832" width="15.0287719" height="3.72959895" rx="0.891203545"></rect>
                                <g id="Group-4" stroke-width="1" fill="none" fill-rule="evenodd" transform="translate(11.271579, 18.647995)">
                                    <path d="M22.1440977,13.4829612 C22.089575,13.7565265 22.0350522,13.9757258 21.9799495,14.2492911 C21.9254267,14.4679121 21.870904,14.6871113 21.7618585,14.9063106 C21.652233,15.2348204 21.5431875,15.5633301 21.3790393,15.8368954 C21.3245165,16.0011503 21.215471,16.1654052 21.1603683,16.3290817 C20.8871745,16.8767907 20.5049353,17.4239213 20.1772188,17.9166859 C20.0130706,18.1353069 19.8495024,18.2995617 19.7404569,18.518761 C18.8112502,19.6136007 17.6094297,20.5441855 16.3530866,21.2006266 C16.1344156,21.3105154 15.8612218,21.4198259 15.6425508,21.5291363 C15.2057889,21.6933912 14.8229696,21.8576461 14.3862077,21.9669565 C14.1675367,22.0219009 13.8943429,22.0768453 13.675672,22.1312114 C12.2006578,22.4597211 10.6165982,22.4597211 9.08648122,22.1312114 C3.07679907,20.8726952 -0.801855936,14.9606767 0.454487229,8.88498162 C1.71083039,2.86423097 7.61146706,-1.02178474 13.675672,0.236731435 C15.8066991,0.675129993 17.773578,1.71444689 19.3031149,3.30205117 C21.7618585,5.98391675 22.9091562,9.81556642 22.1440977,13.4829612 Z" id="Path" fill="url(#linearGradient-5)" fill-rule="nonzero"></path>
                                    <path d="M21.1058455,6.03886116 C21.0513228,5.9295507 20.9968,5.82024025 20.8871745,5.65598538 C20.3958898,4.77976662 19.7943996,4.01343669 19.0844439,3.30205117 C17.554907,1.7693913 15.5880281,0.729496041 13.457001,0.236731435 C7.44731881,-1.02178474 1.4921594,2.86423097 0.235816235,8.88498162 C-0.583764971,12.8808861 0.782203706,16.7674802 3.5686638,19.3400354 C4.98915522,20.6534959 6.79188586,21.6390252 8.86781023,22.0768453 C10.4524499,22.4047767 11.9819868,22.4047767 13.457001,22.0768453 C13.675672,22.0219009 13.9488657,21.9669565 14.1675367,21.9120121 C14.6042986,21.8027017 15.0416406,21.6384468 15.4238798,21.4747703 C15.6970736,21.3648815 15.9157446,21.255571 16.1344156,21.1462605 C17.4452815,20.4892411 18.5925792,19.6136007 19.5217859,18.4638166 C19.6853541,18.2995617 19.8495024,18.0809408 19.9585478,17.8617415 C20.3407871,17.3689769 20.6690836,16.8218463 20.9422773,16.2747156 C20.9968,16.1104608 21.1058455,15.9462059 21.1603683,15.781951 C21.3245165,15.4534413 21.433562,15.1798759 21.5431875,14.8513662 C21.5977103,14.6871113 21.652233,14.5778009 21.7067557,14.413546 C21.7067557,14.3586016 21.7612785,14.3042356 21.7612785,14.1949251 C21.8163812,13.9207814 21.870904,13.7015821 21.9254267,13.4280168 C22.6904852,10.9104061 22.3076659,8.28290655 21.1058455,6.03886116 Z M19.4121604,14.9606767 C19.3576376,15.0705655 19.3031149,15.234242 19.2485921,15.3441308 C19.0299211,15.781951 18.7567274,16.2197712 18.4290109,16.6575914 C18.3193854,16.8218463 18.2103399,16.9861011 18.0461917,17.150356 C17.2817133,18.0259964 16.3525065,18.7923263 15.3148344,19.2850909 C15.1506861,19.3944014 14.9320151,19.4493458 14.7139242,19.5586563 C14.3856276,19.7229111 14.0579112,19.8322216 13.675672,19.887166 C12.3097033,20.2706202 10.8346891,20.3799306 9.35967496,20.0514209 C4.49729049,19.0115256 1.38311392,14.2492911 2.36684338,9.37774622 C3.34999281,4.5062013 8.15785453,1.38651552 13.020239,2.37146637 C14.7139242,2.75492051 16.2979838,3.57561649 17.554907,4.83471103 C18.2648627,5.54609656 18.8657729,6.3673709 19.3031149,7.24301129 C19.3576376,7.35232175 19.4121604,7.51715498 19.4666831,7.62646544 C20.1772188,9.26843576 20.3958898,11.074661 20.0675933,12.8808861 C20.0675933,12.9352522 20.0681733,12.9901966 20.0130706,13.045141 C20.0130706,13.1000854 19.9585478,13.2093959 19.9585478,13.2643403 C19.8495024,13.8664154 19.6853541,14.413546 19.4121604,14.9606767 Z" id="Shape" fill="url(#linearGradient-6)" fill-rule="nonzero"></path>
                                    <path d="M13.020239,2.6999761 C13.675672,2.80986492 14.2765822,3.02848584 14.8774924,3.30205117 C14.9871179,3.35699558 15.1506861,3.41193999 15.2603116,3.46630604 C15.6970736,3.68550531 16.1344156,3.95907064 16.5166548,4.23263597 C16.680803,4.34194643 16.8443713,4.45183525 16.9539968,4.61609012 C17.8281007,5.38242005 18.5380564,6.25806044 19.0299211,7.2979557 C19.1389666,7.46221057 19.1940694,7.68140985 19.3031149,7.84508636 C19.4121604,8.17359609 19.5763086,8.50210583 19.6308314,8.83061557 C20.0130706,10.1440762 20.0681733,11.5674256 19.7949796,12.990775 C18.8112502,17.698065 14.2220594,20.7084403 9.52382321,19.7778555 C4.82500697,18.7923263 1.82045591,14.1949251 2.74908259,9.48763504 C3.07679907,7.84508636 3.89638028,6.31300485 5.0982007,5.10827636 C7.11960233,2.97411979 10.1247334,2.09790104 13.020239,2.6999761 Z" id="Path" stroke="url(#linearGradient-7)" stroke-width="0.728220517"></path>
                                    <path d="M22.5431578,14.5199647 C22.488635,14.7391639 22.4341123,14.9583632 22.3244868,15.1769841 C22.2154413,15.5054939 22.1063958,15.8340036 21.9422476,16.1075689 C21.8877248,16.2718238 21.7780993,16.4360787 21.7235766,16.6003335 C21.4503828,17.1474642 21.0681436,17.6945949 20.7404271,18.1873595 C20.5762789,18.4065587 20.4127107,18.5708136 20.3030852,18.7894345 C19.3744585,19.8842742 18.172638,20.814859 16.9157149,21.4718785 C16.6976239,21.5811889 16.4244302,21.6904994 16.2057592,21.7998098 C15.7684172,21.9640647 16.5462363,21.5499574 16.1088943,21.6598462 C15.8908033,21.7142122 15.6176096,21.7691566 15.3989386,21.8241011 L8.2591604,13.9490393 L9.75873502,14.0821445 L10.0319288,13.4800694 L8.61603882,12.0794052 C8.61603882,12.0794052 11.974864,9.61642106 11.8658185,9.5071106 C11.8107158,9.45216619 13.1171039,5.16032896 13.1171039,5.16032896 L14.2872878,5.98636652 L15.6941734,5.16032896 L22.5431578,14.5199647 Z" id="Path" fill="url(#linearGradient-8)" fill-rule="nonzero"></path>
                                    <path d="M14.0466496,17.8842977 C10.6639677,14.0378468 8.97262681,12.0862132 8.97262681,12.0293971 L8.97262681,12.0293971 L8.97262681,12.0123523 C9.72043904,12.0123523 10.503305,11.8220183 11.3212246,11.4413503 C11.7593958,11.270902 12.218015,10.8987565 12.6970822,10.3249137 C13.0593038,9.75675257 13.2579414,9.2709748 13.2929951,8.86758039 L13.2929951,8.86758039 L14.8528847,8.86758039 C14.8645692,8.86758039 15.1391565,8.4755492 15.6766466,7.69148683 C15.6766466,7.674442 15.6620409,7.66307878 15.6328295,7.65739716 L15.6328295,7.65739716 L13.2316511,7.65739716 C13.1206478,7.15173375 12.9103256,6.72277209 12.6006846,6.37051219 L12.6006846,6.37051219 L14.8528847,6.37051219 C14.9171498,6.31937768 15.1975794,5.92166489 15.6941734,5.17737379 L15.6941734,5.17737379 L15.6941734,5.16032896 L7.26375902,5.16032896 C7.24623217,5.16032896 6.96872373,5.54951934 6.43123369,6.3279001 L6.43123369,6.3279001 L6.43123369,6.37051219 L8.65714353,6.37051219 C9.03104964,6.37051219 9.45169402,6.44437313 9.91907666,6.59209503 C10.5734124,6.84208593 11.0145047,7.19150503 11.2423538,7.64035233 L11.2423538,7.64035233 L11.2423538,7.65739716 L7.26375902,7.65739716 C7.25207446,7.65739716 6.96872373,8.04942835 6.41370684,8.83349072 C6.41370684,8.85621717 6.42539141,8.86758039 6.44876054,8.86758039 L6.44876054,8.86758039 L11.4614394,8.86758039 C11.4614394,9.04939195 11.4263857,9.22552191 11.3562783,9.39597025 C10.9064225,10.5607006 9.75841388,11.1430657 7.91225244,11.1430657 C7.52081948,11.1430657 7.17904592,11.1231801 6.88693177,11.0834088 L6.88693177,11.0834088 L6.86940492,11.1260209 L6.86940492,12.2595024 C6.86940492,12.2765472 8.51692873,14.151479 11.8119764,17.8842977 L11.8119764,17.8842977 L14.0466496,17.8842977 Z" id="`" fill="url(#linearGradient-9)" fill-rule="nonzero"></path>
                                </g>
                                <path d="M24.7091795,4.08391085 L20.4485227,4.08391085 C20.1084967,4.08391085 19.7665922,3.74824694 19.7665922,3.39393504 C19.7665922,3.05827114 20.1084967,2.72260723 20.4485227,2.72260723 L24.7091795,2.72260723 C25.0510841,2.72260723 25.3911101,3.05827114 25.3911101,3.39393504 C25.3911101,3.74824694 25.0510841,4.08391085 24.7091795,4.08391085 Z" id="Path" fill="#2D5887" fill-rule="nonzero"></path>
                                <path d="M18.0627052,4.08391085 L17.7226792,4.08391085 C17.3807747,4.08391085 17.0407487,3.74824694 17.0407487,3.39393504 C17.0407487,3.05827114 17.3807747,2.72260723 17.7226792,2.72260723 L18.0627052,2.72260723 C18.4046097,2.72260723 18.7446357,3.05827114 18.7446357,3.39393504 C18.7446357,3.74824694 18.4046097,4.08391085 18.0627052,4.08391085 Z" id="Path" fill="#2D5887" fill-rule="nonzero"></path>
                            </g>
                        </g>
                    </g>
                    <path d="M2.63063804,19.8050011 C3.68644651,19.4658321 4.26354891,18.3481163 3.92072353,17.2997759 C3.57789815,16.2514355 2.44399734,15.681015 1.3889698,16.0201839 C0.333161337,16.3593529 -0.243941071,17.4847771 0.0988843108,18.5331175 C0.441709693,19.5737495 1.5756105,20.14417 2.63063804,19.8050011 Z" id="Path" fill="url(#linearGradient-10)" fill-rule="nonzero" opacity="0.4"></path>
                    <path d="M14.4415268,15.8638183 C15.0747512,15.6598633 15.4206473,14.9868118 15.2153145,14.3613498 C15.0092927,13.7290893 14.3292139,13.3891643 13.6959896,13.5931193 C13.0627653,13.7970743 12.7161801,14.4701258 12.9222019,15.0955878 C13.1282238,15.7210498 13.8083025,16.0677733 14.4415268,15.8638183 Z" id="Path" fill="#FA4E99" fill-rule="nonzero"></path>
                    <path d="M81.0843764,13.6016665 C82.2312197,12.5655814 82.3118009,10.7985597 81.2635257,9.663124 C80.2152504,8.52768834 78.435269,8.44962714 77.2884256,9.48571218 C76.1408628,10.5288937 76.0610011,12.288819 77.1092763,13.4242546 C78.1575516,14.5596903 79.937533,14.6377515 81.0843764,13.6016665 Z" id="Path" fill="#EAEEF9" fill-rule="nonzero"></path>
                    <path d="M75.1758045,20.3844732 C75.6679011,19.9437609 75.7023186,19.1851576 75.2526946,18.7010965 C74.8038029,18.2098106 74.0407603,18.1809114 73.5493959,18.6216238 C73.0572993,19.069561 73.0236142,19.8209394 73.4725058,20.3122253 C73.9221298,20.7962864 74.6844402,20.8324104 75.1758045,20.3844732 Z" id="Path" fill="#EAEEF9" fill-rule="nonzero"></path>
                    <g id="Group-7" transform="translate(49.039216, 52.543689)" fill-rule="nonzero">
                        <g id="Path">
                            <use fill="black" fill-opacity="1" filter="url(#filter-13)" xlink:href="#path-12"></use>
                            <use fill="url(#linearGradient-11)" xlink:href="#path-12"></use>
                        </g>
                        <path d="M26.5294118,15.976068 C26.3941602,16.5074757 26.1918921,17.0329126 25.989624,17.5643204 C24.7083896,20.7408252 22.1453115,23.260534 18.9078033,24.5203883 L11.6237145,17.3672816 L10.6117647,16.3761165 L17.7612112,10.0828155 L20.1220212,8.75728155 C19.2294101,7.19370959 19.4668159,7.08354083 20.8342386,8.42677527 C22.2016612,9.77000971 24.0775103,11.9560523 26.461786,14.9849029 L26.5294118,15.976068 Z" id="Path" fill="url(#linearGradient-14)"></path>
                        <path d="M12.5942847,17.8584676 C12.1933809,17.8584676 11.79308,17.7113285 11.5260117,17.3434809 L8.18762424,14.2169011 C7.58717281,13.5480872 7.31655958,12.6745417 7.91701101,12.0057278 C8.51806531,11.3369139 9.56361634,11.6332323 10.1640678,12.3020462 L12.5942847,14.6137381 L18.3309896,8.24425087 C18.9320439,7.58212515 19.9606997,7.1841983 20.5611511,7.84632402 C21.1616025,8.51513789 20.6696331,9.55179938 20.0691816,10.2206132 L13.6619549,17.3434809 C13.3948866,17.7113285 12.9945857,17.8584676 12.5942847,17.8584676 Z" id="Path" fill="url(#linearGradient-15)"></path>
                    </g>
                </g>
            </g>
        </g>
    </g>
</svg>