<?xml version="1.0" encoding="UTF-8"?>
<svg width="83px" height="83px" viewBox="0 0 83 83" version="1.1" xmlns="http://www.w3.org/2000/svg" xmlns:xlink="http://www.w3.org/1999/xlink">
    <title>AC31D126-9C38-41B8-B4E5-99CBB73B19F3</title>
    <defs>
        <linearGradient x1="0%" y1="50.1510574%" x2="97.2264094%" y2="50.1510574%" id="linearGradient-1">
            <stop stop-color="#83A6FF" offset="0%"></stop>
            <stop stop-color="#5A78FF" offset="100%"></stop>
        </linearGradient>
        <linearGradient x1="-0.157728707%" y1="50.5928854%" x2="99.1324921%" y2="50.5928854%" id="linearGradient-2">
            <stop stop-color="#FF66A9" offset="0%"></stop>
            <stop stop-color="#F53689" offset="100%"></stop>
        </linearGradient>
        <linearGradient x1="6.97064577%" y1="19.9935505%" x2="74.5078369%" y2="113.898742%" id="linearGradient-3">
            <stop stop-color="#EF4896" offset="0%"></stop>
            <stop stop-color="#F14D9A" stop-opacity="0" offset="100%"></stop>
        </linearGradient>
        <linearGradient x1="23.4896972%" y1="9.12431108%" x2="78.6117945%" y2="92.4678506%" id="linearGradient-4">
            <stop stop-color="#83A6FF" offset="0%"></stop>
            <stop stop-color="#5A78FF" offset="100%"></stop>
        </linearGradient>
        <path d="M26.3959758,14.3442217 C26.3220646,14.864674 26.2481534,15.3851263 26.1742422,15.9055786 C26.1742422,15.9734637 26.100331,16.0488916 26.100331,16.1243194 C26.100331,16.1997473 26.027174,16.2751752 26.027174,16.4184881 C25.8054404,17.4593927 25.4366387,18.4173267 24.9939257,19.3073756 C23.6657868,21.8266664 21.6732014,23.825505 19.2386573,25.0851505 C18.9437667,25.2360062 18.6481219,25.3793192 18.3532314,25.5301749 C17.6156278,25.8243436 16.9511813,26.0506272 16.1396666,26.1939402 C15.9186872,26.269368 15.7708648,26.269368 15.5498854,26.3447959 C13.9261018,26.6389646 12.2291612,26.6389646 10.5322205,26.269368 C3.37565622,24.7909818 -1.19929574,17.7535614 0.276665518,10.5728281 C1.75187258,3.38455207 8.76136869,-1.20146246 15.9186872,0.276923804 C18.4271425,0.797376111 20.7877755,2.05702155 22.5586273,3.90500438 C25.3627275,6.64303609 26.6908663,10.4974003 26.3959758,14.3442217 Z" id="path-5"></path>
        <filter x="-15.1%" y="-7.5%" width="130.3%" height="130.1%" filterUnits="objectBoundingBox" id="filter-6">
            <feOffset dx="0" dy="2" in="SourceAlpha" result="shadowOffsetOuter1"></feOffset>
            <feGaussianBlur stdDeviation="1" in="shadowOffsetOuter1" result="shadowBlurOuter1"></feGaussianBlur>
            <feColorMatrix values="0 0 0 0 0.11372549   0 0 0 0 0.294117647   0 0 0 0 1  0 0 0 0.22 0" type="matrix" in="shadowBlurOuter1"></feColorMatrix>
        </filter>
        <linearGradient x1="30.8631097%" y1="29.9653375%" x2="70.0400934%" y2="66.4518965%" id="linearGradient-7">
            <stop stop-color="#4F6AFF" offset="0%"></stop>
            <stop stop-color="#657EFF" stop-opacity="0" offset="100%"></stop>
        </linearGradient>
        <linearGradient x1="58.1422358%" y1="76.8975682%" x2="32.7175451%" y2="16.4002778%" id="linearGradient-8">
            <stop stop-color="#C2D1FF" offset="1.13208%"></stop>
            <stop stop-color="#FFFFFF" offset="100%"></stop>
        </linearGradient>
        <linearGradient x1="56.1301989%" y1="93.6523672%" x2="46.7955779%" y2="29.4356628%" id="linearGradient-9">
            <stop stop-color="#C2D1FF" offset="1.13208%"></stop>
            <stop stop-color="#FFFFFF" offset="100%"></stop>
        </linearGradient>
    </defs>
    <g id="desktop" stroke="none" stroke-width="1" fill="none" fill-rule="evenodd">
        <g id="finpower-landing-page" transform="translate(-1008.000000, -395.000000)">
            <g id="Group" transform="translate(240.000000, 395.000000)">
                <g id="Group-5" transform="translate(660.000000, 0.000000)">
                    <g id="ic_clock" transform="translate(108.000000, 0.000000)">
                        <path d="M23.2015529,5.47578963 C24.1336919,5.16740948 24.6437851,4.16150282 24.3410764,3.22167761 C24.0376401,2.2818524 23.036373,1.76788549 22.1042341,2.06892326 C21.1720952,2.3773034 20.662002,3.38321007 20.9654383,4.32303527 C21.2681469,5.26286048 22.269414,5.78416977 23.2015529,5.47578963 Z" id="Path" fill="#EAEEF9" fill-rule="nonzero"></path>
                        <path d="M16.4212836,2.3788242 C17.0550799,2.16589505 17.4014484,1.4830533 17.1955192,0.844265853 C16.98959,0.205478409 16.3084956,-0.146956044 15.6746993,0.0586307203 C15.0409031,0.271559868 14.6945345,0.95440162 14.9004637,1.59318906 C15.1063929,2.23197651 15.7867597,2.58441096 16.4212836,2.3788242 Z" id="Path" fill="#EAEEF9" fill-rule="nonzero"></path>
                        <path d="M1.2071963,42.8522219 C1.87373747,42.8522219 2.41366493,42.3088855 2.41366493,41.6333861 C2.41366493,40.9652291 1.87373747,40.4218927 1.2071963,40.4218927 C0.540655122,40.4218927 0,40.9652291 0,41.6333861 C0,42.3088855 0.540655122,42.8522219 1.2071963,42.8522219 Z" id="Path" fill="url(#linearGradient-1)" fill-rule="nonzero"></path>
                        <path d="M75.068956,14.356428 C75.5783215,14.356428 75.9916352,13.9379121 75.9916352,13.4239451 C75.9916352,12.9099782 75.5783215,12.4988047 75.068956,12.4988047 C74.5588628,12.4988047 74.1462767,12.9099782 74.1462767,13.4239451 C74.1462767,13.9379121 74.5588628,14.356428 75.068956,14.356428 Z" id="Path" fill="url(#linearGradient-2)" fill-rule="nonzero"></path>
                        <path d="M82.1223333,25.9822025 C83.2218352,24.9689535 83.2989677,23.2508355 82.2933346,22.1421355 C81.2884292,21.0334354 79.5820547,20.9526692 78.4825528,21.9659182 C77.3823233,22.9791673 77.3059184,24.7046276 78.3108239,25.8133277 C79.3157293,26.9220277 81.0221038,26.9954516 82.1223333,25.9822025 Z" id="Path" fill="#EAEEF9" fill-rule="nonzero"></path>
                        <path d="M41.6571544,82 C62.451538,82 79.3088131,65.6063202 79.3088131,45.3838071 C79.3088131,25.1612941 62.451538,8.76761423 41.6571544,8.76761423 C20.8627708,8.76761423 4.00549561,25.1612941 4.00549561,45.3838071 C4.00549561,65.6063202 20.8627708,82 41.6571544,82 Z" id="Path" stroke="#EAEEF9" stroke-width="0.600558785" stroke-linecap="round" stroke-linejoin="round" stroke-dasharray="0.3002794027328491,1.801676177978516"></path>
                        <g id="CLOCK" transform="translate(10.414289, 3.134354)" fill-rule="nonzero">
                            <polygon id="Path" fill="#B3BFCF" points="33.120911 8.63736492 26.7912576 8.63736492 26.7912576 12.8071273 33.120911 12.8071273"></polygon>
                            <polygon id="Path" fill="#9FADBF" points="33.120911 8.63736492 26.7912576 8.63736492 26.7912576 10.4244059 33.120911 10.4244059"></polygon>
                            <polygon id="Path" fill="#B3BFCF" points="9.12782794 16.946342 5.69291592 20.4211439 8.19158243 22.9489669 11.6264945 19.4741649"></polygon>
                            <polygon id="Path" fill="#B3BFCF" points="49.2958537 19.2145094 52.7307657 22.6893114 54.9691545 20.4287809 51.5342424 16.9539789"></polygon>
                            <path d="M32.3114095,74.8418888 C49.1404414,74.8418888 62.7827683,61.0419609 62.7827683,44.0116127 C62.7827683,26.9812646 49.1404414,13.1813367 32.3114095,13.1813367 C15.4823775,13.1813367 1.84005061,26.9812646 1.84005061,44.0116127 C1.84005061,61.0419609 15.4823775,74.8418888 32.3114095,74.8418888 Z" id="Path" fill="#D3DAE6"></path>
                            <path d="M30.4713588,73.7268974 C47.3003908,73.7268974 60.9427177,59.9193326 60.9427177,42.8966213 C60.9427177,25.8662732 47.3003908,12.0663453 30.4713588,12.0663453 C13.6423269,12.0663453 0,25.8662732 0,42.8966213 C0,59.9193326 13.6423269,73.7268974 30.4713588,73.7268974 Z" id="Path" stroke="#D3DAE6" stroke-width="0.5" fill="#DAE1ED"></path>
                            <path d="M3.60616725,44.6072931 C2.87059966,44.6072931 2.28139116,44.0116127 2.28139116,43.2631939 C2.28139116,43.1180922 2.28139116,42.9653537 2.28139116,42.8966213 C2.28139116,28.5239239 12.8803543,16.3812093 26.9383711,14.5941683 C27.6746932,14.517799 28.3370812,15.044747 28.4102607,15.785529 C28.4841947,16.5339479 27.9689202,17.2059975 27.2333526,17.2747298 C14.4993574,18.9166692 4.93169777,29.9367555 4.93169777,42.8966213 C4.93169777,43.041723 4.93169777,43.1180922 4.93169777,43.2631939 C4.93169777,44.0116127 4.34248927,44.6072931 3.60616725,44.6072931 Z" id="Path" fill="#EDF0FC"></path>
                            <path d="M30.4713588,71.4892776 C27.4536457,71.4892776 24.4359325,71.0463358 21.6392668,70.076446 C20.9029448,69.8549752 20.5347838,69.1065563 20.7558313,68.3657743 C20.9768788,67.6173554 21.7124463,67.243146 22.4487684,67.4722538 C25.025141,68.3657743 27.7478727,68.7323468 30.4713588,68.7323468 C43.2045996,68.7323468 54.0977898,59.1250921 55.7907269,46.3179648 C55.8646608,45.5771829 56.5270489,45.0578718 57.2626165,45.1266042 C57.9989385,45.2029734 58.514213,45.875023 58.440279,46.615805 C57.5575979,53.3973966 54.2449033,59.6520401 49.1668464,64.2647443 C44.0141012,68.9614546 37.3902207,71.4892776 30.4713588,71.4892776 Z" id="Path" fill="#C8D3DE"></path>
                            <path d="M54.2449033,42.8966213 C54.2449033,43.1944615 54.2449033,43.4159324 54.2449033,43.7137726 C53.8035627,56.5972691 43.3517131,66.9453058 30.4713588,66.9453058 C17.5910046,66.9453058 7.13915496,56.5972691 6.69781441,43.7137726 C6.69781441,43.4159324 6.69781441,43.1944615 6.69781441,42.8966213 C6.69781441,29.9367555 16.855437,19.2908787 29.5886777,18.8403 C29.8829048,18.8403 30.1771318,18.8403 30.4713588,18.8403 C43.4995811,18.8403 54.0246102,29.4174444 54.2449033,42.4460426 C54.2449033,42.5987812 54.2449033,42.7438828 54.2449033,42.8966213 Z" id="Path" fill="#EDF0FC"></path>
                            <path d="M54.2449033,43.7137726 C53.8035627,56.5972691 43.3517131,66.9453058 30.4713588,66.9453058 C17.5910046,66.9453058 7.13915496,56.5972691 6.69781441,43.7137726 C7.13915496,30.830276 17.5910046,20.4818194 30.4713588,20.4818194 C43.3517131,20.4058701 53.8035627,30.7539067 54.2449033,43.7137726 Z" id="Path" fill="#FFFFFF"></path>
                            <path d="M36.8010122,58.2315716 L23.1850904,58.2315716 C22.5227023,58.2315716 22.0074278,57.7122605 22.0074278,57.0402109 L22.0074278,50.189887 C22.0074278,49.5254743 22.5227023,48.9985264 23.1850904,48.9985264 L36.8010122,48.9985264 C37.4634003,48.9985264 37.9786748,49.5254743 37.9786748,50.189887 L37.9786748,57.0402109 C37.9786748,57.7122605 37.4634003,58.2315716 36.8010122,58.2315716 Z" id="Path" fill="#F2F5FC"></path>
                            <path d="M51.0800766,44.087982 L47.1789279,44.087982 C46.5165398,44.087982 46.0020197,43.561034 46.0020197,42.8966213 C46.0020197,42.2245717 46.5165398,41.7052607 47.1789279,41.7052607 L51.0800766,41.7052607 C51.7424646,41.7052607 52.2577392,42.2245717 52.2577392,42.8966213 C52.2577392,43.561034 51.6692851,44.087982 51.0800766,44.087982 Z" id="Path" fill="#DAE1ED"></path>
                            <path d="M12.5861273,44.087982 L8.68497854,44.087982 C8.02259049,44.087982 7.50731597,43.561034 7.50731597,42.8966213 C7.50731597,42.2245717 8.02259049,41.7052607 8.68497854,41.7052607 L12.5861273,41.7052607 C13.2485153,41.7052607 13.7637898,42.2245717 13.7637898,42.8966213 C13.7637898,43.561034 13.1745813,44.087982 12.5861273,44.087982 Z" id="Path" fill="#DAE1ED"></path>
                            <path d="M29.8829048,65.6088435 C29.2205167,65.6088435 28.7052422,65.0895324 28.7052422,64.4174828 L28.7052422,60.4691913 C28.7052422,59.7971417 29.2205167,59.2778307 29.8829048,59.2778307 C30.5452928,59.2778307 31.0605673,59.7971417 31.0605673,60.4691913 L31.0605673,64.4174828 C30.9866334,65.0895324 30.4713588,65.6088435 29.8829048,65.6088435 Z" id="Path" fill="#DAE1ED"></path>
                            <path d="M29.8829048,26.6605136 C29.2205167,26.6605136 28.7052422,26.1412026 28.7052422,25.469153 L28.7052422,21.5972308 C28.7052422,20.9251811 29.2205167,20.4058701 29.8829048,20.4058701 C30.5452928,20.4058701 31.0605673,20.9251811 31.0605673,21.5972308 L31.0605673,25.5455222 C30.9866334,26.1412026 30.4713588,26.6605136 29.8829048,26.6605136 Z" id="Path" fill="#DAE1ED"></path>
                            <path d="M30.1771318,46.1728632 C32.1688225,46.1728632 33.7840535,44.5385607 33.7840535,42.5224119 C33.7840535,40.5062631 32.1688225,38.8719606 30.1771318,38.8719606 C28.1854411,38.8719606 26.5709646,40.5062631 26.5709646,42.5224119 C26.5709646,44.5385607 28.1854411,46.1728632 30.1771318,46.1728632 Z" id="Path" fill="#F2F5FC"></path>
                            <path d="M43.8576787,26.3853298 C43.4161105,26.0125658 42.7531188,26.0142245 42.3836924,26.3890174 L29.6051646,39.9641895 C29.5319184,39.9643728 29.5319184,39.9643728 29.457917,39.9645579 C28.5004301,39.9669534 27.7615963,40.7089092 27.7591864,41.6779219 C27.7589966,41.7542221 27.7588069,41.8305223 27.7586361,41.8991925 L25.6910445,44.0636476 C25.3214284,44.5147408 25.3197585,45.1861826 25.6873442,45.5515017 C25.9072688,45.7798507 26.128347,45.8479674 26.4228422,45.8472365 C26.7173374,45.8464938 27.0127585,45.777085 27.1605753,45.547816 L29.2281669,43.3833608 C29.3021683,43.3831756 29.3761697,43.3829905 29.3761697,43.3829905 C30.3336566,43.3805951 31.0717352,42.6386411 31.0741452,41.6696285 C31.0743349,41.5933283 31.0745057,41.5246581 31.0746955,41.4483579 L43.8537886,27.9494841 C44.2968218,27.4295375 44.2984916,26.7580957 43.8576787,26.3853298 Z" id="Path" fill="#DAE1ED" transform="translate(34.799960, 35.977036) rotate(-20.000000) translate(-34.799960, -35.977036) "></path>
                            <path d="M42.9003116,25.5681611 C42.4594986,25.1953953 41.7965068,25.197054 41.4270805,25.5718469 L28.6485526,39.147019 C28.5745513,39.1472041 28.5745513,39.1472041 28.5013051,39.1473874 C27.5438181,39.1497828 26.8049844,39.8917387 26.8025744,40.8607513 C26.8023847,40.9370515 26.8022139,41.0057217 26.8020241,41.0820219 L24.7336774,43.246479 C24.3640613,43.6975721 24.3624104,44.3613839 24.7299772,44.7343331 C24.9506758,44.9550501 25.171735,45.0307968 25.4662302,45.0300654 C25.7607254,45.0293233 26.0554104,44.9522863 26.2032083,44.7306473 L28.271555,42.5661902 C28.3455563,42.5660051 28.4188026,42.5658219 28.4188026,42.5658219 C29.3770447,42.5634245 30.1151233,41.8214706 30.1175332,40.8524579 C30.117723,40.7761577 30.1179127,40.6998575 30.1180835,40.6311873 L42.8964216,27.1323154 C43.3402288,26.6047369 43.2678783,25.9411103 42.9003116,25.5681611 Z" id="Path" fill="#EB358A" transform="translate(33.829276, 35.159866) rotate(-20.000000) translate(-33.829276, -35.159866) "></path>
                            <path d="M42.457362,25.9423122 L25.0994871,44.2137446 C24.9522395,44.214113 24.9522395,44.214113 24.8049919,44.2144814 C24.6582946,43.9935792 24.7322809,43.6958251 24.8800977,43.4665561 L41.5735008,25.791924 C41.7953,25.5700998 42.1637966,25.5691779 42.3839299,25.7135967 C42.5319326,25.7132264 42.5315531,25.8658268 42.457362,25.9423122 Z" id="Path" fill="#FF4FA2" transform="translate(33.615781, 34.914140) rotate(-20.000000) translate(-33.615781, -34.914140) "></path>
                            <path d="M36.1386242,2.7569308 L36.1386242,6.77395463 C36.1386242,8.33952475 34.8877821,9.53088543 33.4158925,9.53088543 L26.6441441,9.53088543 C25.0983205,9.53088543 23.920658,8.26315547 23.920658,6.77395463 L23.920658,2.7569308 C23.920658,1.19136068 25.1722545,0 26.6441441,0 L33.4158925,0 C34.9609616,0 36.1386242,1.26772995 36.1386242,2.7569308 Z" id="Path" fill="#1C3754"></path>
                            <path d="M36.1386242,2.7569308 L36.1386242,6.77395463 C36.1386242,8.33952475 34.8877821,9.53088543 33.4158925,9.53088543 L26.6441441,9.53088543 C25.0983205,9.53088543 23.920658,8.26315547 23.920658,6.77395463 L23.920658,6.03317267 C24.3627529,7.9653153 26.05569,7.9653153 26.05569,7.9653153 L33.0477315,7.9653153 C34.0043466,7.9653153 34.8138481,7.14816407 34.8138481,6.17827429 L34.8138481,3.27624187 C34.8138481,1.26772995 34.4464415,0.519311065 33.4158925,0 C34.9609616,0 36.1386242,1.26772995 36.1386242,2.7569308 Z" id="Path" fill="#172D45"></path>
                            <path d="M24.951207,7.22453334 C24.7301595,7.22453334 24.583046,7.07179479 24.583046,6.8503239 L24.583046,2.23761974 C24.583046,2.00851191 24.7301595,1.86341029 24.951207,1.86341029 C25.1722545,1.86341029 25.319368,2.00851191 25.319368,2.23761974 L25.319368,6.8503239 C25.245434,7.07179479 25.0983205,7.22453334 24.951207,7.22453334 Z" id="Path" fill="#2D5887"></path>
                            <path d="M26.6441441,7.22453334 C26.4230966,7.22453334 26.2759831,7.07179479 26.2759831,6.8503239 L26.2759831,2.23761974 C26.2759831,2.00851191 26.4230966,1.86341029 26.6441441,1.86341029 C26.8651916,1.86341029 27.0123051,2.00851191 27.0123051,2.23761974 L27.0123051,6.8503239 C27.0123051,7.07179479 26.8651916,7.22453334 26.6441441,7.22453334 Z" id="Path" fill="#2D5887"></path>
                            <path d="M28.4110152,7.22453334 C28.1899677,7.22453334 28.0428542,7.07179479 28.0428542,6.8503239 L28.0428542,2.23761974 C28.0428542,2.00851191 28.1899677,1.86341029 28.4110152,1.86341029 C28.6313082,1.86341029 28.7784218,2.00851191 28.7784218,2.23761974 L28.7784218,6.8503239 C28.7052422,7.07179479 28.5581287,7.22453334 28.4110152,7.22453334 Z" id="Path" fill="#2D5887"></path>
                            <path d="M30.1031978,7.22453334 C29.8829048,7.22453334 29.7350368,7.07179479 29.7350368,6.8503239 L29.7350368,2.23761974 C29.7350368,2.00851191 29.8829048,1.86341029 30.1031978,1.86341029 C30.3242453,1.86341029 30.4713588,2.00851191 30.4713588,2.23761974 L30.4713588,6.8503239 C30.4713588,7.07179479 30.3242453,7.22453334 30.1031978,7.22453334 Z" id="Path" fill="#2D5887"></path>
                            <path d="M31.8700689,7.22453334 C31.6490214,7.22453334 31.5019079,7.07179479 31.5019079,6.8503239 L31.5019079,2.23761974 C31.5019079,2.00851191 31.6490214,1.86341029 31.8700689,1.86341029 C32.0911164,1.86341029 32.2382299,2.00851191 32.2382299,2.23761974 L32.2382299,6.8503239 C32.1642959,7.07179479 32.0171824,7.22453334 31.8700689,7.22453334 Z" id="Path" fill="#2D5887"></path>
                            <path d="M33.563006,7.22453334 C33.3419585,7.22453334 33.194845,7.07179479 33.194845,6.8503239 L33.194845,2.23761974 C33.194845,2.00851191 33.3419585,1.86341029 33.563006,1.86341029 C33.7832991,1.86341029 33.931167,2.00851191 33.931167,2.23761974 L33.931167,6.8503239 C33.931167,7.07179479 33.7101195,7.22453334 33.563006,7.22453334 Z" id="Path" fill="#2D5887"></path>
                            <path d="M35.2559431,7.22453334 C35.0348956,7.22453334 34.8877821,7.07179479 34.8877821,6.8503239 L34.8877821,2.23761974 C34.8877821,2.00851191 35.0348956,1.86341029 35.2559431,1.86341029 C35.4762362,1.86341029 35.6233497,2.00851191 35.6233497,2.23761974 L35.6233497,6.8503239 C35.6233497,7.07179479 35.4762362,7.22453334 35.2559431,7.22453334 Z" id="Path" fill="#2D5887" opacity="0.7"></path>
                            <path d="M9.78946156,17.2747298 L6.10936034,21.0015504 C5.29985877,21.8187017 3.97432826,21.8187017 3.09164715,21.0015504 L0.956615078,18.8403 C0.147113518,18.0231487 0.147113518,16.6790495 0.956615078,15.785529 L4.6367163,12.0663453 C5.44697229,11.2415572 6.77174838,11.2415572 7.65442948,12.0663453 L9.78946156,14.2199589 C10.5989631,15.1211163 10.5989631,16.4575786 9.78946156,17.2747298 Z" id="Path" fill="#1C3754"></path>
                            <path d="M50.8590291,17.2747298 L54.5391303,21.0015504 C55.3493863,21.8187017 56.6741624,21.8187017 57.5568435,21.0015504 L59.6918756,18.8403 C60.5013771,18.0231487 60.5013771,16.6790495 59.6918756,15.785529 L56.0117744,12.0663453 C55.2022728,11.2415572 53.8767423,11.2415572 52.9940612,12.0663453 L50.8590291,14.2199589 C50.0495275,15.1211163 50.0495275,16.4575786 50.8590291,17.2747298 Z" id="Path" fill="#1C3754"></path>
                            <path d="M50.2519029,29.5970546 L29.6618573,42.5224119 L29.6618573,18.8403 C29.9560843,18.8403 30.2510663,18.8403 30.5452928,18.8403 C36.1386242,18.8403 44.8338516,21.4444922 50.2519029,29.5970546 Z" id="Path" fill="url(#linearGradient-3)" opacity="0.4"></path>
                            <path d="M30.1771318,42.8202521 C30.3400883,42.8202521 30.4713588,42.6904243 30.4713588,42.5224119 C30.4713588,42.3543995 30.3400883,42.2245717 30.1771318,42.2245717 C30.0149297,42.2245717 29.8829048,42.3543995 29.8829048,42.5224119 C29.8829048,42.6904243 30.0149297,42.8202521 30.1771318,42.8202521 Z" id="Path" fill="#1C3754"></path>
                        </g>
                        <g id="Group-17" transform="translate(49.668146, 52.224195)" fill-rule="nonzero">
                            <g id="Path">
                                <use fill="black" fill-opacity="1" filter="url(#filter-6)" xlink:href="#path-5"></use>
                                <use fill="url(#linearGradient-4)" xlink:href="#path-5"></use>
                            </g>
                            <path d="M26.385417,14.4121068 C26.385417,14.9325591 26.2375946,15.4530114 26.1636835,15.9659209 C26.1636835,16.0413488 26.1636835,16.1167766 26.0905265,16.1922045 C26.0905265,16.2676324 26.0905265,16.3430603 26.0166153,16.4863732 C25.7948817,17.5272778 25.4260799,18.4852118 24.983367,19.3752607 C23.6552281,21.8945515 21.6633969,23.8933901 19.2280985,25.1530355 C18.933208,25.3038913 18.6383174,25.4472042 18.3426726,25.59806 L9.2674341,20.0390259 L11.1121971,13.6729136 L13.6206525,10.0448331 L19.2280985,9.59980861 L26.385417,14.4121068 Z" id="Path" fill="url(#linearGradient-7)"></path>
                            <path d="M16.7196432,13.5974858 C16.7196432,13.5220579 16.7196432,13.5220579 16.7196432,13.4541728 C16.7196432,13.4541728 16.7196432,13.3787449 16.7935544,13.3033171 C16.7935544,13.2278892 16.7935544,13.2278892 16.8674656,13.1524613 C16.9413767,13.0091484 17.0152879,12.7828648 17.0884449,12.5641239 C17.1623561,12.4886961 17.3840897,11.9682438 17.3840897,11.8928159 L13.1047825,9.52438074 C13.0308713,9.52438074 12.9569601,9.75066436 12.8830489,9.89397731 C12.7359808,10.0448331 12.6620696,10.2635739 12.5881584,10.2635739 C12.5881584,10.2635739 12.3664248,10.4898575 12.3664248,10.5652854 L12.2193566,10.7085983 C12.0715342,10.8594541 11.8505548,11.0781949 11.3339307,11.3044785 C10.595573,11.6740751 10.0057918,11.4553342 9.78405825,11.5232193 L9.63699006,11.5986472 C9.56307887,11.5986472 9.48916768,11.6740751 9.48916768,11.7495029 C9.2674341,11.9682438 9.34134529,11.9682438 9.1942771,19.6694293 C9.1942771,19.895713 9.48916768,19.9711408 9.63699006,19.8202851 L12.1454454,15.5284392 C12.2932678,15.3021556 12.5142472,15.2267278 12.7359808,15.3775835 C12.9569601,15.5284392 13.0308713,15.7471801 12.8830489,15.9659209 L10.2267712,20.2653095 C10.079703,20.4840503 10.3006824,20.710334 10.522416,20.5594782 L12.7359808,19.2244049 L12.8091378,19.1565198 L15.0966137,17.7460186 C16.8674656,16.6372289 17.1623561,16.5618011 17.2362673,16.1922045 C17.3101785,15.8980358 17.0884449,15.7471801 16.8674656,15.1512999 C16.7935544,15.0079869 16.572575,14.2687938 16.7196432,13.5974858 Z M14.3590102,14.6383904 C13.9902084,15.2267278 13.2518507,15.4530114 12.6620696,15.0834148 C12.0715342,14.7138182 11.8505548,13.9670823 12.2193566,13.3787449 C12.5881584,12.7828648 13.3257619,12.5641239 13.9162972,12.9337205 C14.5060784,13.3033171 14.727812,14.0425102 14.3590102,14.6383904 Z" id="Shape" fill="url(#linearGradient-8)"></path>
                            <path d="M17.4580009,11.8249308 C17.3840897,11.8928159 17.1623561,12.4132682 17.1623561,12.4886961 C17.0884449,12.7074369 16.9413767,12.9337205 16.9413767,13.0770335 L12.5881584,10.3390017 C12.6620696,10.2635739 12.7352266,10.1202609 12.8830489,9.96940518 C12.9569601,9.81854944 13.1047825,9.59980861 13.1047825,9.59980861 L17.4580009,11.8249308 Z" id="Path" fill="#C4D1FF"></path>
                            <path d="M17.0884449,12.7074369 L12.7352266,9.96940518 C12.3664248,9.75066436 12.2925136,9.23021205 12.5142472,8.93604335 L13.6945637,7.00508986 C13.9162972,6.6354933 14.4321672,6.56760822 14.727812,6.78634904 L19.0810303,9.52438074 C19.4498321,9.75066436 19.5237433,10.2635739 19.3020097,10.5652854 L18.1216932,12.4886961 C17.8999597,12.8582926 17.3840897,12.9337205 17.0884449,12.7074369 Z" id="Path" fill="url(#linearGradient-9)"></path>
                        </g>
                    </g>
                </g>
            </g>
        </g>
    </g>
</svg>