<?xml version="1.0" encoding="UTF-8"?>
<svg width="83px" height="84px" viewBox="0 0 83 84" version="1.1" xmlns="http://www.w3.org/2000/svg" xmlns:xlink="http://www.w3.org/1999/xlink">
    <title>19444B61-248F-4A17-A600-E25B9E77D95E</title>
    <defs>
        <path d="M40.7614263,77.9551172 C61.3575894,77.9551172 78.0538312,61.2193589 78.0538312,40.5727642 C78.0538312,19.9261696 61.3575894,3.19041131 40.7614263,3.19041131 C20.1652632,3.19041131 3.46902134,19.9261696 3.46902134,40.5727642 C3.46902134,61.2193589 20.1652632,77.9551172 40.7614263,77.9551172 Z" id="path-1"></path>
        <path d="M46.3052766,56.2488514 L5.95429505,56.2488514 C4.19990454,56.2488514 2.76449413,54.7629482 2.76449413,52.9468443 L2.76449413,3.85700612 L49.4950776,3.85700612 L49.4950776,52.9468443 C49.4950776,54.7629482 48.0596672,56.2488514 46.3052766,56.2488514 Z" id="path-3"></path>
        <filter x="-18.2%" y="-12.4%" width="136.4%" height="132.4%" filterUnits="objectBoundingBox" id="filter-4">
            <feOffset dx="0" dy="2" in="SourceAlpha" result="shadowOffsetOuter1"></feOffset>
            <feGaussianBlur stdDeviation="2.5" in="shadowOffsetOuter1" result="shadowBlurOuter1"></feGaussianBlur>
            <feColorMatrix values="0 0 0 0 0.396078431   0 0 0 0 0.478431373   0 0 0 0 0.576470588  0 0 0 0.18 0" type="matrix" in="shadowBlurOuter1"></feColorMatrix>
        </filter>
        <linearGradient x1="-0.0819806526%" y1="49.6856721%" x2="100.054654%" y2="49.6856721%" id="linearGradient-5">
            <stop stop-color="#FF66A9" offset="0%"></stop>
            <stop stop-color="#F53689" offset="100%"></stop>
        </linearGradient>
        <linearGradient x1="-6.92343103%" y1="49.8201978%" x2="82.4213595%" y2="50.3828889%" id="linearGradient-6">
            <stop stop-color="#EF4896" offset="0%"></stop>
            <stop stop-color="#F14D9A" stop-opacity="0" offset="100%"></stop>
        </linearGradient>
        <linearGradient x1="-0.349440895%" y1="50.0645231%" x2="99.590655%" y2="50.0645231%" id="linearGradient-7">
            <stop stop-color="#83A6FF" offset="0%"></stop>
            <stop stop-color="#5A78FF" offset="100%"></stop>
        </linearGradient>
        <linearGradient x1="-0.349440895%" y1="50.0645231%" x2="99.590655%" y2="50.0645231%" id="linearGradient-8">
            <stop stop-color="#83A6FF" offset="0%"></stop>
            <stop stop-color="#5A78FF" offset="100%"></stop>
        </linearGradient>
        <linearGradient x1="-0.455456367%" y1="50.6176907%" x2="99.6902897%" y2="50.6176907%" id="linearGradient-9">
            <stop stop-color="#83A6FF" offset="0%"></stop>
            <stop stop-color="#5A78FF" offset="100%"></stop>
        </linearGradient>
        <linearGradient x1="-0.455456367%" y1="50.6176907%" x2="99.6902897%" y2="50.6176907%" id="linearGradient-10">
            <stop stop-color="#83A6FF" offset="0%"></stop>
            <stop stop-color="#5A78FF" offset="100%"></stop>
        </linearGradient>
        <linearGradient x1="23.6349923%" y1="9.12431108%" x2="78.4549817%" y2="92.4678506%" id="linearGradient-11">
            <stop stop-color="#83A6FF" offset="0%"></stop>
            <stop stop-color="#5A78FF" offset="100%"></stop>
        </linearGradient>
        <path d="M26.3365385,13.2647059 C26.3365385,14.2638233 26.1942667,15.2629408 25.9820785,16.1889521 C25.8406197,16.8306617 25.6284315,17.4723713 25.4154303,18.0409747 C24.0000294,21.7531429 20.9554133,24.604283 17.2035033,25.8877022 C16.9205857,25.9608083 16.5661258,26.0988977 16.2832082,26.1720039 C15.2921836,26.3831995 14.2296167,26.5294118 13.1678627,26.5294118 C5.8762309,26.5294118 0,20.6078131 0,13.2647059 C0,5.92159865 5.9469603,0 13.1678627,0 C20.4603076,0 26.3365385,5.92159865 26.3365385,13.2647059 Z" id="path-12"></path>
        <filter x="-15.2%" y="-7.5%" width="130.4%" height="130.2%" filterUnits="objectBoundingBox" id="filter-13">
            <feOffset dx="0" dy="2" in="SourceAlpha" result="shadowOffsetOuter1"></feOffset>
            <feGaussianBlur stdDeviation="1" in="shadowOffsetOuter1" result="shadowBlurOuter1"></feGaussianBlur>
            <feColorMatrix values="0 0 0 0 0.11372549   0 0 0 0 0.294117647   0 0 0 0 1  0 0 0 0.22 0" type="matrix" in="shadowBlurOuter1"></feColorMatrix>
        </filter>
        <linearGradient x1="29.9565726%" y1="25.2035747%" x2="72.7701687%" y2="60.3606234%" id="linearGradient-14">
            <stop stop-color="#4F6AFF" offset="0%"></stop>
            <stop stop-color="#657EFF" stop-opacity="0" offset="100%"></stop>
        </linearGradient>
        <linearGradient x1="76.7291003%" y1="62.1054232%" x2="40.4494054%" y2="43.9122163%" id="linearGradient-15">
            <stop stop-color="#C2D1FF" offset="1.13208%"></stop>
            <stop stop-color="#FFFFFF" offset="100%"></stop>
        </linearGradient>
    </defs>
    <g id="desktop" stroke="none" stroke-width="1" fill="none" fill-rule="evenodd">
        <g id="finpower-landing-page" transform="translate(-678.000000, -394.000000)">
            <g id="Group" transform="translate(240.000000, 395.000000)">
                <g id="default-copy-6" transform="translate(330.000000, 0.000000)">
                    <g id="ic_insights" transform="translate(108.000000, 0.000000)">
                        <g id="Rectangle-+-Path-+-Path-+-Rectangle-+-Path-+-Path-Mask" transform="translate(0.798077, 0.000000)">
                            <path d="M40.7019231,82 C63.1809168,82 81.4038462,63.6436167 81.4038462,41 C81.4038462,18.3563833 63.1809168,0 40.7019231,0 C18.2229293,0 0,18.3563833 0,41 C0,63.6436167 18.2229293,82 40.7019231,82 Z" id="Path" stroke="#EAEEF9" stroke-width="0.600558785" stroke-linecap="round" stroke-linejoin="round" stroke-dasharray="0.3002794027328491,1.801676177978516"></path>
                            <mask id="mask-2" fill="white">
                                <use xlink:href="#path-1"></use>
                            </mask>
                            <use id="Mask" fill="#EAEEF9" fill-rule="nonzero" xlink:href="#path-1"></use>
                            <rect id="Rectangle" fill="#2D5887" fill-rule="nonzero" mask="url(#mask-2)" x="37.3653313" y="57.6246977" width="3.34929096" height="24.9851867"></rect>
                            <polygon id="Path" fill="#2D5887" fill-rule="nonzero" mask="url(#mask-2)" points="57.3547504 75.5105692 54.1117862 75.5105692 47.9448377 59.1106009 50.6561685 57.899865"></polygon>
                            <polygon id="Path" fill="#2D5887" fill-rule="nonzero" mask="url(#mask-2)" points="18.8113227 75.5105692 22.0542869 75.5105692 28.2212354 59.1106009 25.5099046 57.899865"></polygon>
                            <rect id="Rectangle" fill="#172D45" fill-rule="nonzero" mask="url(#mask-2)" x="37.3653313" y="57.6246977" width="3.34929096" height="5.77851235"></rect>
                            <polygon id="Path" fill="#172D45" fill-rule="nonzero" mask="url(#mask-2)" points="52.7827024 63.40321 49.5397382 63.40321 47.9448377 59.1106009 50.6561685 57.899865"></polygon>
                            <polygon id="Path" fill="#172D45" fill-rule="nonzero" mask="url(#mask-2)" points="28.2212354 59.1106009 26.6263349 63.40321 23.436534 63.40321 25.5099046 57.899865"></polygon>
                        </g>
                        <g id="Presentation_2" transform="translate(13.548778, 2.751683)" fill-rule="nonzero">
                            <path d="M52.2595717,0.88519977 L52.2595717,2.92143745 C52.2595717,3.41673851 51.8874283,3.80197267 51.4089581,3.80197267 L0.850613578,3.80197267 C0.37214344,3.80197267 0,3.41673851 0,2.92143745 L0,0.88519977 C0,0.389898712 0.37214344,0.00466455517 0.850613578,0.00466455517 L51.4089581,0.00466455517 C51.8874283,-0.0503688957 52.2595717,0.389898712 52.2595717,0.88519977 Z" id="Path" fill="#172D45"></path>
                            <g id="Path">
                                <use fill="black" fill-opacity="1" filter="url(#filter-4)" xlink:href="#path-3"></use>
                                <use fill="#FFFFFF" xlink:href="#path-3"></use>
                            </g>
                            <ellipse id="Oval" fill="url(#linearGradient-5)" cx="8.70992862" cy="10.7126856" rx="1" ry="1"></ellipse>
                            <rect id="Rectangle" fill="url(#linearGradient-6)" opacity="0.4" x="11.6132382" y="9.7388051" width="25.162016" height="1.94776102" rx="0.432899175"></rect>
                            <rect id="Rectangle-Copy-2" fill="url(#linearGradient-6)" opacity="0.4" x="11.6132382" y="15.5820882" width="25.162016" height="1.94776102" rx="0.432899175"></rect>
                            <ellipse id="Oval-Copy" fill="url(#linearGradient-5)" cx="8.70992862" cy="16.5559687" rx="1" ry="1"></ellipse>
                            <g id="Group-7" transform="translate(25.972835, 35.146697) scale(-1, 1) translate(-25.972835, -35.146697) translate(7.815012, 22.486250)">
                                <path d="M4.57204798,25.3208933 L0.744286881,25.3208933 C0.318980092,25.3208933 0,25.0164336 0,24.6104874 L0,0.761149096 C0,0.355202911 0.318980092,0 0.744286881,0 L4.57204798,0 C4.99735477,0 5.31633486,0.304459638 5.31633486,0.761149096 L5.31633486,24.6104874 C5.31633486,25.0164336 4.99735477,25.3208933 4.57204798,25.3208933 Z" id="Path" fill="url(#linearGradient-7)"></path>
                                <path d="M25.2525906,25.3208933 L21.4248295,25.3208933 C20.9995227,25.3208933 20.6805426,25.0164336 20.6805426,24.6104874 L20.6805426,11.9246692 C20.6805426,11.518723 20.9995227,11.2142633 21.4248295,11.2142633 L25.2525906,11.2142633 C25.6778974,11.2142633 25.9968775,11.518723 25.9968775,11.9246692 L25.9968775,24.6104874 C25.9968775,25.0164336 25.6778974,25.3208933 25.2525906,25.3208933 Z" id="Path" fill="url(#linearGradient-8)"></path>
                                <path d="M35.5662802,25.3208933 L31.7385191,25.3208933 C31.3132123,25.3208933 30.9942322,25.0164336 30.9942322,24.6104874 L30.9942322,17.5064292 C30.9942322,17.100483 31.3132123,16.7960234 31.7385191,16.7960234 L35.5662802,16.7960234 C35.991587,16.7960234 36.3105671,17.100483 36.3105671,17.5064292 L36.3105671,24.6104874 C36.3637305,25.0164336 35.991587,25.3208933 35.5662802,25.3208933 Z" id="Path" fill="url(#linearGradient-9)" opacity="0.4"></path>
                                <path d="M14.8857376,25.3208933 L11.0579765,25.3208933 C10.6326697,25.3208933 10.3136896,25.0164336 10.3136896,24.6104874 L10.3136896,6.74885532 C10.3136896,6.34290913 10.6326697,6.0384495 11.0579765,6.0384495 L14.8857376,6.0384495 C15.3110444,6.0384495 15.6300245,6.34290913 15.6300245,6.74885532 L15.6300245,24.6104874 C15.6831878,25.0164336 15.3110444,25.3208933 14.8857376,25.3208933 Z" id="Path" fill="url(#linearGradient-10)" opacity="0.4"></path>
                            </g>
                        </g>
                        <path d="M2.50803041,16.6073462 C3.51463022,16.2801224 4.06483529,15.201771 3.73798816,14.1903519 C3.41114104,13.1789327 2.33008858,12.6286017 1.3242333,12.9558255 C0.317633499,13.2830494 -0.232571572,14.3688376 0.0942755541,15.3802568 C0.42112268,16.384239 1.50217513,16.9345701 2.50803041,16.6073462 Z" id="Path" fill="#EAEEF9" fill-rule="nonzero"></path>
                        <path d="M6.69003567,10.3454716 C7.37425551,10.1223644 7.7480078,9.38611076 7.52613891,8.70191544 C7.30352549,8.0102832 6.56867785,7.63843792 5.88445801,7.86154509 C5.20023818,8.08465226 4.82574135,8.82090593 5.04835477,9.50510125 C5.27096819,10.1892966 6.00581583,10.5685788 6.69003567,10.3454716 Z" id="Path" fill="#EAEEF9" fill-rule="nonzero"></path>
                        <path d="M82.0524953,29.3913871 C83.2392706,28.3055989 83.3226575,26.4538094 82.2378824,25.2639045 C81.1531074,24.0739995 79.3111488,23.9921936 78.1243736,25.0779818 C76.9368539,26.171207 76.8542114,28.0155596 77.9389865,29.2054645 C79.0237616,30.3953694 80.8657201,30.4771754 82.0524953,29.3913871 Z" id="Path" fill="#EAEEF9" fill-rule="nonzero"></path>
                        <path d="M82.2721307,16.3024331 C82.7724525,15.8487818 82.8074452,15.0679067 82.3503059,14.569634 C81.8939112,14.0639245 81.1181146,14.0341768 80.6185373,14.4878281 C80.1182155,14.9489162 80.0839673,15.7223544 80.5403621,16.228064 C80.9975013,16.7263367 81.7725534,16.7635212 82.2721307,16.3024331 Z" id="Path" fill="#EAEEF9" fill-rule="nonzero"></path>
                        <g id="Group-4-Copy-2" transform="translate(49.480769, 52.254902)" fill-rule="nonzero">
                            <g id="Path">
                                <use fill="black" fill-opacity="1" filter="url(#filter-13)" xlink:href="#path-12"></use>
                                <use fill="url(#linearGradient-11)" xlink:href="#path-12"></use>
                            </g>
                            <path d="M25.9820785,16.1889521 C25.8406197,16.8306617 25.6284315,17.4723713 25.4154303,18.0409747 C24.0000294,21.7531429 20.9554133,24.604283 17.2035033,25.8877022 C16.9205857,25.9608083 16.5661258,26.0988977 16.2832082,26.1720039 L6.51279548,16.2620583 L10.0525173,13.0535103 L14.0881579,15.7584381 L18.2652573,11.9081805 L18.9733642,11.2664709 L19.8936594,10.0561579 L25.9820785,16.1889521 Z" id="Path" fill="url(#linearGradient-14)"></path>
                            <path d="M20.0351182,10.2673535 C20.0351182,10.0561579 19.82293,9.84496236 19.6107418,9.84496236 L15.7872894,9.84496236 C15.5751012,9.84496236 15.362913,10.0561579 15.362913,10.2673535 L15.362913,11.1283815 C15.362913,11.3395771 15.5751012,11.5507727 15.7872894,11.5507727 L17.1327739,11.5507727 L14.0174285,14.6943374 L10.9736254,11.6238788 C10.6191655,11.2664709 10.1240597,11.2664709 9.76959971,11.6238788 L6.22987789,15.1898347 C6.08841909,15.336047 6.08841909,15.6203487 6.22987789,15.8315443 L6.79652605,16.4732538 C6.93798485,16.6194662 7.22090244,16.6194662 7.43309064,16.4732538 L10.3362479,13.5490076 L13.3800509,16.6194662 C13.7345109,16.9687511 14.2296167,16.9687511 14.5840767,16.6194662 L18.2652573,12.8341919 L18.2652573,14.1907172 C18.2652573,14.4019128 18.4774455,14.6212312 18.6904467,14.6212312 L19.5400124,14.6212312 C19.7522006,14.6212312 19.9643888,14.4019128 19.9643888,14.1907172 L20.0351182,10.2673535 Z" id="Path" fill="url(#linearGradient-15)"></path>
                        </g>
                    </g>
                </g>
            </g>
        </g>
    </g>
</svg>