<?xml version="1.0" encoding="UTF-8"?>
<svg width="16px" height="16px" viewBox="0 0 16 16" version="1.1" xmlns="http://www.w3.org/2000/svg" xmlns:xlink="http://www.w3.org/1999/xlink">
    <title>D92F0F21-7175-4C68-8631-A3F048A5F8E6@1x</title>
    <g id="Final" stroke="none" stroke-width="1" fill="none" fill-rule="evenodd">
        <g id="Mobile---CHR-Plan" transform="translate(-208.000000, -402.000000)" fill="#1B1DC7" fill-rule="nonzero">
            <g id="Group-25" transform="translate(0.000000, 378.000000)">
                <g id="Group-27" transform="translate(16.000000, 24.000000)">
                    <g id="noun-tick-453824" transform="translate(192.000000, 0.000000)">
                        <path d="M8,16 C3.58915814,16 0,12.4112874 0,7.99971279 C0.000673143062,3.58871257 3.58944534,0 8,0 C12.4105547,0 16,3.58871257 16,8.00028721 C16,12.4112874 12.4108419,16 8,16 Z M8,1.23041574 C4.26752827,1.23041574 1.23094597,4.26681985 1.23094597,7.99971279 C1.23094597,11.7317441 4.26724107,14.7690098 8,14.7690098 C11.7318973,14.7690098 14.769054,11.7326057 14.769054,7.99971279 C14.769054,4.26739427 11.7318973,1.23041574 8,1.23041574 Z" id="Shape"></path>
                        <path d="M6.94252378,10.6153515 C6.78501095,10.6153515 6.62760725,10.554991 6.50755699,10.43506 L4.62314127,8.54988727 C4.38260994,8.31001939 4.38260994,7.92060602 4.62314127,7.68006606 C4.86300054,7.4395261 5.25239993,7.4395261 5.49293125,7.68006606 L6.9424089,9.12959575 L10.5068677,5.56500898 C10.746727,5.32514109 11.1361264,5.32514109 11.377347,5.56500898 C11.6172062,5.80554893 11.6172062,6.19497954 11.377347,6.43551949 L7.37720337,10.4358067 C7.25749776,10.5550657 7.09998779,10.6154262 6.94246634,10.6154262 L6.94252378,10.6153515 Z" id="Path"></path>
                    </g>
                </g>
            </g>
        </g>
    </g>
</svg>