<?xml version="1.0" encoding="UTF-8"?>
<svg width="20px" height="20px" viewBox="0 0 20 20" version="1.1" xmlns="http://www.w3.org/2000/svg" xmlns:xlink="http://www.w3.org/1999/xlink">
    <title>363C99B6-9F58-4807-865F-32D34ED24B5A@1x</title>
    <g id="Final" stroke="none" stroke-width="1" fill="none" fill-rule="evenodd">
        <g id="Desktop---Landing-Chr" transform="translate(-953.000000, -438.000000)" fill="#1B1DC7" fill-rule="nonzero">
            <g id="Group-57" transform="translate(373.000000, 187.000000)">
                <g id="Group-50" transform="translate(0.000000, 219.000000)">
                    <g id="Group-31" transform="translate(0.000000, 32.000000)">
                        <g id="Group-51" transform="translate(100.000000, 0.000000)">
                            <g id="Group-55" transform="translate(250.000000, 0.000000)">
                                <g id="Group-33" transform="translate(170.000000, 0.000000)">
                                    <g id="noun-tick-453824" transform="translate(60.000000, 0.000000)">
                                        <path d="M10,20 C4.48644768,20 0,15.5141093 0,9.99964099 C0.000841428828,4.48589072 4.48680668,0 10,0 C15.5131933,0 20,4.48589072 20,10.000359 C20,15.5141093 15.5135523,20 10,20 Z M10,1.53801967 C5.33441034,1.53801967 1.53868246,5.33352481 1.53868246,9.99964099 C1.53868246,14.6646801 5.33405134,18.4612623 10,18.4612623 C14.6648717,18.4612623 18.4613175,14.6657572 18.4613175,9.99964099 C18.4613175,5.33424284 14.6648717,1.53801967 10,1.53801967 Z" id="Shape"></path>
                                        <path d="M8.67815473,13.2691893 C8.48126369,13.2691893 8.28450906,13.1937388 8.13444624,13.0438249 L5.77892658,10.6873591 C5.47826243,10.3875242 5.47826243,9.90075752 5.77892658,9.60008257 C6.07875067,9.29940763 6.56549991,9.29940763 6.86616406,9.60008257 L8.67801113,11.4119947 L13.1335846,6.95626122 C13.4334087,6.65642637 13.920158,6.65642637 14.2216837,6.95626122 C14.5215078,7.25693617 14.5215078,7.74372442 14.2216837,8.04439937 L9.22150422,13.0447584 C9.0718722,13.1938321 8.87498474,13.2692827 8.67808293,13.2692827 L8.67815473,13.2691893 Z" id="Path"></path>
                                    </g>
                                </g>
                            </g>
                        </g>
                    </g>
                </g>
            </g>
        </g>
    </g>
</svg>