<?xml version="1.0" encoding="UTF-8"?>
<svg width="16px" height="16px" viewBox="0 0 16 16" version="1.1" xmlns="http://www.w3.org/2000/svg" xmlns:xlink="http://www.w3.org/1999/xlink">
    <title>ABF9FDEE-A112-472F-A781-A7BBF65E303A@1x</title>
    <g id="Final" stroke="none" stroke-width="1" fill="none" fill-rule="evenodd">
        <g id="Desktop---Landing-Chr" transform="translate(-373.000000, -251.000000)" fill="#D90368">
            <g id="Group-57" transform="translate(373.000000, 187.000000)">
                <g id="Group-12" transform="translate(0.000000, 62.000000)">
                    <path d="M8,2 C12.416,2 16,5.584 16,10 C16,14.416 12.416,18 8,18 C3.584,18 0,14.416 0,10 C0,5.584 3.584,2 8,2 Z M8,3.33333333 C4.32,3.33333333 1.33333333,6.32 1.33333333,10 C1.33333333,13.68 4.32,16.6666667 8,16.6666667 C11.68,16.6666667 14.6666667,13.68 14.6666667,10 C14.6666667,6.32 11.68,3.33333333 8,3.33333333 Z M10.3794067,8.04632977 C10.6283733,7.80677897 11.0288057,7.80677897 11.2777723,8.04632977 C11.5296315,8.28866375 11.5296315,8.68264559 11.2777723,8.92497957 L11.2777723,8.92497957 L7.43840467,12.6191286 C7.1943943,12.8600891 6.7879754,12.8600891 6.5387995,12.6203369 L6.5387995,12.6203369 L4.72222771,10.872467 C4.47036854,10.630133 4.47036854,10.2361511 4.72222771,9.99381716 C4.97119431,9.75426636 5.37162669,9.75426636 5.62042676,9.99365721 L5.62042676,9.99365721 L6.99066667,11.3066667 Z" id="Combined-Shape"></path>
                </g>
            </g>
        </g>
    </g>
</svg>