<?xml version="1.0" encoding="UTF-8"?>
<svg width="12px" height="12px" viewBox="0 0 12 12" version="1.1" xmlns="http://www.w3.org/2000/svg" xmlns:xlink="http://www.w3.org/1999/xlink">
    <title>C31EBF51-C633-49F8-BE67-A4B4B54BB903</title>
    <g id="Final" stroke="none" stroke-width="1" fill="none" fill-rule="evenodd">
        <g id="SBM_Bureau-page_Desktop" transform="translate(-1161.000000, -458.000000)" fill="#D90368">
            <g id="Group-4" transform="translate(338.000000, 238.000000)">
                <g id="Group-5" transform="translate(444.000000, 18.849656)">
                    <g id="Group-18" transform="translate(15.000000, 161.150344)">
                        <g id="Group-10-Copy" transform="translate(0.000000, 37.000000)">
                            <g id="Point" transform="translate(364.000000, 0.000000)">
                                <g id="favorite-blue-tick" transform="translate(0.000000, 3.000000)">
                                    <path d="M6,0 C9.312,0 12,2.688 12,6 C12,9.312 9.312,12 6,12 C2.688,12 0,9.312 0,6 C0,2.688 2.688,0 6,0 Z M6,1 C3.24,1 1,3.24 1,6 C1,8.76 3.24,11 6,11 C8.76,11 11,8.76 11,6 C11,3.24 8.76,1 6,1 Z M8.45832921,4.53474732 C8.6236118,4.693779 8.64427212,4.93988972 8.52031018,5.12069116 L8.45832921,5.19373468 L5.5788035,7.96434644 C5.4186717,8.12247677 5.16528187,8.14224306 4.97924018,8.02425242 L4.90409963,7.96525268 L3.54167079,6.65435022 C3.3527764,6.47259974 3.3527764,6.17711336 3.54167079,5.99536287 C3.70505511,5.83815766 3.95541394,5.81850701 4.14045822,5.93633055 L4.21532007,5.99524291 L5.243,6.98 L7.78455504,4.53474732 C7.97127998,4.35508423 8.27160427,4.35508423 8.45832921,4.53474732 Z" id="Combined-Shape-Copy-2"></path>
                                </g>
                            </g>
                        </g>
                    </g>
                </g>
            </g>
        </g>
    </g>
</svg>