<?xml version="1.0" encoding="UTF-8"?>
<svg width="140px" height="89px" viewBox="0 0 140 89" version="1.1" xmlns="http://www.w3.org/2000/svg" xmlns:xlink="http://www.w3.org/1999/xlink">
    <title>F8F07D47-2E70-46C8-B2B5-5A0687F0E541</title>
    <defs>
        <linearGradient x1="100%" y1="50%" x2="0%" y2="50%" id="linearGradient-1">
            <stop stop-color="#110D26" offset="0%"></stop>
            <stop stop-color="#2A1B58" offset="100%"></stop>
        </linearGradient>
        <rect id="path-2" x="0" y="0" width="139.792593" height="88.3547523" rx="6.46153846"></rect>
        <linearGradient x1="50.0041108%" y1="101.425212%" x2="50.0041108%" y2="-1.425212%" id="linearGradient-4">
            <stop stop-color="#FF0279" offset="0%"></stop>
            <stop stop-color="#FF0279" stop-opacity="0" offset="100%"></stop>
        </linearGradient>
        <linearGradient x1="10.2722772%" y1="43.2105187%" x2="64.8205446%" y2="68.3177145%" id="linearGradient-5">
            <stop stop-color="#FF0279" offset="0%"></stop>
            <stop stop-color="#FF0279" stop-opacity="0" offset="100%"></stop>
        </linearGradient>
        <linearGradient x1="49.9958602%" y1="-0.667219917%" x2="49.9958602%" y2="100.6639%" id="linearGradient-6">
            <stop stop-color="#9101F6" offset="0%"></stop>
            <stop stop-color="#9101F6" stop-opacity="0" offset="100%"></stop>
        </linearGradient>
        <linearGradient x1="101.758883%" y1="49.9907407%" x2="-1.76772141%" y2="49.9907407%" id="linearGradient-7">
            <stop stop-color="#9101F6" offset="0%"></stop>
            <stop stop-color="#9101F6" stop-opacity="0" offset="100%"></stop>
        </linearGradient>
        <linearGradient x1="49.9958892%" y1="-1.43233806%" x2="49.9958892%" y2="101.425212%" id="linearGradient-8">
            <stop stop-color="#FF0279" offset="0%"></stop>
            <stop stop-color="#FF0279" stop-opacity="0" offset="100%"></stop>
        </linearGradient>
        <linearGradient x1="103.097414%" y1="50%" x2="-3.09741366%" y2="50%" id="linearGradient-9">
            <stop stop-color="#FF0279" offset="0%"></stop>
            <stop stop-color="#FF0279" stop-opacity="0" offset="100%"></stop>
        </linearGradient>
        <linearGradient x1="49.9931034%" y1="-2.06483585%" x2="49.9931034%" y2="102.064836%" id="linearGradient-10">
            <stop stop-color="#03D6F9" offset="0%"></stop>
            <stop stop-color="#03D6F9" stop-opacity="0" offset="100%"></stop>
        </linearGradient>
        <linearGradient x1="50%" y1="101.364883%" x2="50%" y2="-1.37860082%" id="linearGradient-11">
            <stop stop-color="#03D6F9" offset="0%"></stop>
            <stop stop-color="#03D6F9" stop-opacity="0" offset="100%"></stop>
        </linearGradient>
        <linearGradient x1="89.7277228%" y1="64.6504633%" x2="35.1794554%" y2="10.4737106%" id="linearGradient-12">
            <stop stop-color="#FF0279" offset="0%"></stop>
            <stop stop-color="#FF0279" stop-opacity="0" offset="100%"></stop>
        </linearGradient>
        <linearGradient x1="106.234414%" y1="49.9844769%" x2="-6.23441397%" y2="49.9844769%" id="linearGradient-13">
            <stop stop-color="#FF0279" offset="0%"></stop>
            <stop stop-color="#FF0279" stop-opacity="0" offset="100%"></stop>
        </linearGradient>
        <linearGradient x1="50%" y1="-1.77320684%" x2="50%" y2="101.773207%" id="linearGradient-14">
            <stop stop-color="#9101F6" offset="0%"></stop>
            <stop stop-color="#9101F6" stop-opacity="0" offset="100%"></stop>
        </linearGradient>
        <linearGradient x1="101.241003%" y1="50%" x2="-1.24100273%" y2="50%" id="linearGradient-15">
            <stop stop-color="#FF0279" offset="0%"></stop>
            <stop stop-color="#FF0279" stop-opacity="0" offset="100%"></stop>
        </linearGradient>
        <linearGradient x1="102.076196%" y1="49.9892496%" x2="-2.07619641%" y2="49.9892496%" id="linearGradient-16">
            <stop stop-color="#03D6F9" offset="0%"></stop>
            <stop stop-color="#03D6F9" stop-opacity="0" offset="100%"></stop>
        </linearGradient>
        <linearGradient x1="-2.61985853%" y1="50%" x2="102.619859%" y2="50%" id="linearGradient-17">
            <stop stop-color="#03D6F9" offset="0%"></stop>
            <stop stop-color="#03D6F9" stop-opacity="0" offset="100%"></stop>
        </linearGradient>
        <linearGradient x1="50%" y1="0.00791786534%" x2="50%" y2="100%" id="linearGradient-18">
            <stop stop-color="#FFFFFF" offset="0.00263935811%"></stop>
            <stop stop-color="#C2C2C2" offset="100%"></stop>
        </linearGradient>
        <path d="M2.20409197,0.202282793 C0.986570988,0.202282793 0,1.19174819 0,2.4119702 L0,2.4119702 L0,10.2487971 C0,11.4690191 0.986570988,12.4572981 2.20409197,12.4572981 L2.20409197,12.4572981 L13.2310658,12.4572981 C14.4497711,12.4572981 15.4369343,11.4690191 15.4369343,10.2487971 L15.4369343,10.2487971 L15.4369343,2.4119702 C15.4369343,1.19174819 14.4497711,0.202282793 13.2310658,0.202282793 L13.2310658,0.202282793 L2.20409197,0.202282793 Z" id="path-19"></path>
        <path d="M2.85405166,12.4572981 L2.85405166,8.35706742 L0,8.35706742 L0,8.07351559 L2.85405166,8.07351559 L2.85405166,4.06463841 L0,4.06463841 L0,3.78167978 L2.85405166,3.78167978 L2.85405166,0.202875998 L3.1366663,0.202875998 L3.1366663,3.78167978 L5.22302734,3.78167978 C5.54185941,2.76255416 6.47757512,2.01689588 7.59675286,1.99732013 L7.59675286,0.202875998 L7.8793675,0.202875998 L7.8793675,2.01689588 C8.91304837,2.11418145 9.76029857,2.82246783 10.0619125,3.78167978 L12.3590471,3.78167978 L12.3590471,0.202875998 L12.6422555,0.202875998 L12.6422555,3.78167978 L15.4773078,3.78167978 L15.4773078,4.06463841 L13.7869635,4.06463841 L13.7869635,8.07351559 L15.4773078,8.07351559 L15.4773078,8.35706742 L12.6422555,8.35706742 L12.6422555,12.4572981 L12.3590471,12.4572981 L12.3590471,8.35706742 L10.1212853,8.35706742 C9.87904422,9.41119212 8.98132712,10.2072728 7.8793675,10.3116768 L7.8793675,12.4572981 L7.59675286,12.4572981 L7.59675286,10.3312526 C6.40810891,10.3104904 5.41895766,9.47347861 5.16246706,8.35706742 L3.1366663,8.35706742 L3.1366663,12.4572981 L2.85405166,12.4572981 Z M13.5037551,8.07351559 L13.5037551,4.06463841 L10.1420658,4.06463841 C10.1711585,4.21827842 10.1895641,4.37607087 10.1895641,4.53801574 C10.1895641,5.13122041 9.97879056,5.70425613 9.59227348,6.16458295 C9.97879056,6.62490978 10.1895641,7.19735229 10.1895641,7.79055696 C10.1895641,7.88784252 10.1711585,7.97978925 10.1604714,8.07351559 L13.5037551,8.07351559 Z M7.6418762,10.0530396 C8.89108042,10.0530396 9.90694944,9.03806638 9.90694944,7.79055696 C9.90694944,7.22701252 9.69083236,6.68304384 9.30015918,6.2600889 L9.21109994,6.16458295 L9.30015918,6.06848379 C9.69083236,5.64612207 9.90694944,5.10274659 9.90694944,4.53801574 C9.90694944,3.29050632 8.89108042,2.27553312 7.6418762,2.27553312 C6.39326571,2.27553312 5.37739669,3.29050632 5.37739669,4.53801574 C5.37739669,5.10274659 5.59292004,5.64612207 5.98359322,6.06848379 L6.07205873,6.16458295 L5.98359322,6.2600889 C5.59292004,6.68304384 5.37739669,7.22701252 5.37739669,7.79055696 C5.37739669,9.03806638 6.39326571,10.0530396 7.6418762,10.0530396 Z M5.123281,8.07351559 C5.11259389,7.97978925 5.09418832,7.88784252 5.09418832,7.79055696 C5.09418832,7.19735229 5.30555557,6.62490978 5.69147893,6.16458295 C5.30555557,5.70425613 5.09418832,5.13122041 5.09418832,4.53801574 C5.09418832,4.37607087 5.11259389,4.21827842 5.14168657,4.06463841 L3.1366663,4.06463841 L3.1366663,8.07351559 L5.123281,8.07351559 Z" id="path-21"></path>
        <linearGradient x1="49.999962%" y1="84.8101095%" x2="49.999962%" y2="-24.5244399%" id="linearGradient-23">
            <stop stop-color="#0275AF" offset="0%"></stop>
            <stop stop-color="#FFFFFF" offset="100%"></stop>
        </linearGradient>
    </defs>
    <g id="New-My-Account" stroke="none" stroke-width="1" fill="none" fill-rule="evenodd">
        <g id="Step-Up-Card---Virtual---2-Card---Desktop" transform="translate(-705.000000, -376.000000)">
            <g id="Investment" transform="translate(425.000000, 270.000000)">
                <g id="MF" transform="translate(1.000000, 46.000000)">
                    <g id="Card-Front" transform="translate(279.000000, 60.000000)">
                        <g id="Card-+-Pattern">
                            <mask id="mask-3" fill="white">
                                <use xlink:href="#path-2"></use>
                            </mask>
                            <use id="Card-Bg" fill="url(#linearGradient-1)" fill-rule="nonzero" xlink:href="#path-2"></use>
                            <g id="Pattern" mask="url(#mask-3)" fill-rule="nonzero">
                                <g transform="translate(113.700979, 36.911142) rotate(45.000000) translate(-113.700979, -36.911142) translate(78.700979, -14.588858)" id="Path">
                                    <path d="M9.79293963,0.117438886 C9.92500502,-0.0140384429 10.1342053,-0.0209816682 10.2744202,0.0963478459 L10.2984182,0.11834303 L26.7401013,16.6044509 C26.8721733,16.7368797 26.8786265,16.9468147 26.7601044,17.0868244 L26.7378915,17.1107761 L18.0398837,25.681481 C17.9077359,25.8116947 17.6996281,25.8181718 17.559921,25.7014566 L17.5360062,25.6795811 L14.6408403,22.7833971 C14.509135,22.6516455 14.501896,22.4427205 14.6190667,22.3024848 L14.6410354,22.2784801 L20.144461,16.7814537 L4.4972067,1.14967961 C4.3653697,1.01797367 4.35803408,0.808971014 4.47520805,0.668663345 L4.4971783,0.644645981 C4.62900048,0.512925237 4.8381876,0.505596083 4.97861911,0.622666723 L5.00265767,0.644617597 L20.9028375,16.5289906 C21.0346943,16.6607162 21.0420096,16.8697567 20.9247909,17.0100612 L20.9028125,17.0340776 L15.398926,22.5310187 L17.7907388,24.9236801 L25.9800184,16.8542156 L9.79203469,0.622471703 C9.66044131,0.490522771 9.65349196,0.28150694 9.77092503,0.141415678 L9.79293963,0.117438886 Z" fill="url(#linearGradient-4)"></path>
                                    <path d="M19.2055023,76.3630862 C19.3373971,76.231755 19.5462928,76.22463 19.6865437,76.3415875 L19.7105517,76.3635151 L42.2278249,98.8609318 C42.3609586,98.9939481 42.3669279,99.2054541 42.246781,99.3455225 L42.2242696,99.3694683 L39.3058708,102.204943 C39.1735009,102.333552 38.9666537,102.339273 38.8276611,102.223122 L38.8038663,102.20136 L19.4209385,82.8230648 L13.9299382,88.343581 C13.7985182,88.4757022 13.5893543,88.4836678 13.4485666,88.3670251 L13.4244613,88.3451474 C13.2922234,88.2138433 13.2842507,88.0048639 13.4009965,87.8642003 L13.4228934,87.8401162 L19.1667597,82.0656038 C19.2984977,81.933163 19.5082751,81.9255236 19.6490128,82.0428904 L19.6731022,82.0648998 L39.060289,101.447333 L41.465917,99.1096865 L19.4572528,77.1204303 L4.43898561,92.0748657 C4.30693213,92.206355 4.09773245,92.2133171 3.95750691,92.0960003 L3.93350697,92.0740073 C3.80190165,91.9420703 3.79493336,91.7330551 3.91235374,91.5929532 L3.93436617,91.5689744 L19.2055023,76.3630862 Z" fill="url(#linearGradient-5)"></path>
                                    <path d="M51.9920317,40.2002522 C52.1239676,40.0704606 52.3314753,40.0638289 52.4711353,40.1799421 L52.4950477,40.2017068 L61.160887,48.8259785 C61.2931512,48.9576084 61.3007056,49.1669344 61.1834003,49.3074374 L61.1614032,49.3314878 L49.9062392,60.5782549 L52.3004203,62.9115631 L69.2914801,45.9515987 C69.4233712,45.8199468 69.6325622,45.812727 69.7729324,45.9298709 L69.7969594,45.9518344 C69.9287275,46.0836092 69.9359537,46.2926156 69.8187064,46.4328621 L69.7967235,46.4568679 L52.5561891,63.6661291 C52.4255012,63.7965798 52.2186195,63.8050224 52.0780782,63.6906032 L52.0539945,63.6691361 L49.1481057,60.8372324 C49.0134754,60.7060298 49.0047177,60.4949026 49.12277,60.3533253 L49.1449193,60.3290935 L60.4026639,49.0795194 L52.2412122,40.9572089 L49.8470311,43.312602 L55.4058573,48.8255408 C55.5385204,48.9571093 55.5462653,49.1667476 55.4288198,49.3074273 L55.4067945,49.3315074 L26.8795892,77.8332596 L43.0842205,93.9920558 C43.216179,94.1236403 43.2237075,94.3326361 43.1066631,94.4730516 L43.084715,94.4970892 C42.9530144,94.6289313 42.7438341,94.6364532 42.6032947,94.519512 L42.5792358,94.4975833 L26.1214685,78.086469 C25.9894187,77.9547936 25.9819838,77.7456227 26.0992353,77.6052215 L26.1212211,77.5811885 L54.6476296,49.0797166 L49.0869005,43.5650702 C48.953511,43.4327813 48.9465133,43.2217512 49.065605,43.0811957 L49.0879301,43.0571538 L51.9920317,40.2002522 Z" fill="url(#linearGradient-6)"></path>
                                    <path d="M57.7714317,74.7064728 C57.9034708,74.5763662 58.111372,74.569778 58.2510959,74.6862487 L58.275016,74.7080797 L69.7967042,86.2071087 C69.9363643,86.3464941 69.9364872,86.5726053 69.7969788,86.7121423 C69.6652208,86.8439271 69.4560373,86.8513581 69.3155487,86.7343558 L69.2914995,86.7124166 L58.0207191,75.463669 L49.8324264,83.5321476 L52.273974,85.9555701 L57.7804753,80.4576529 C57.9123169,80.3260094 58.1214511,80.3187272 58.2618442,80.4357836 L58.2858762,80.4577313 L64.0404653,86.2072458 C64.1729957,86.3396593 64.1795954,86.5500073 64.0608211,86.6901896 L64.0385596,86.7141692 L56.1286803,94.4992261 C55.9880515,94.6376357 55.761747,94.6359372 55.6232152,94.4954324 C55.4923796,94.3627334 55.4866273,94.1536812 55.6048607,94.0142636 L55.6270123,93.990413 L63.280181,86.457607 L58.0331529,81.2152058 L52.5276343,86.7123578 C52.3961043,86.8436903 52.1875682,86.8512913 52.047127,86.7349412 L52.0230796,86.7131221 L49.0725124,83.7847979 C48.939281,83.6525709 48.9322446,83.4417504 49.0511359,83.3012176 L49.0734239,83.2771776 L57.7714317,74.7064728 Z" fill="url(#linearGradient-7)"></path>
                                    <path d="M40.4951544,68.933746 C40.6272734,68.8035607 40.8353263,68.797054 40.9750379,68.9137043 L40.9989541,68.9355679 L43.89412,71.8299664 C44.0258802,71.9616916 44.033169,72.1706417 43.9160092,72.3109113 L43.894042,72.3349221 L38.3904472,77.8334568 L54.0378315,93.4655473 C54.1696685,93.5972532 54.1770041,93.8062559 54.0598301,93.9465636 L54.0378599,93.9705809 C53.9060377,94.1023017 53.6968506,94.1096308 53.5564191,93.9925602 L53.5323805,93.9706093 L37.6322006,78.0862363 C37.5003584,77.9545252 37.4930281,77.7455125 37.610214,77.6052056 L37.6321864,77.5811885 L43.1357848,72.0821172 L40.7441694,69.6914277 L32.5548898,77.7608921 L48.7430035,93.9927552 C48.8745969,94.1247041 48.8815462,94.33372 48.7641131,94.4738112 L48.7420985,94.497788 C48.6100332,94.6292654 48.4008328,94.6362086 48.2606179,94.5188791 L48.23662,94.4968839 L31.7949368,78.010776 C31.6628649,77.8783472 31.6564117,77.6684122 31.7749338,77.5284025 L31.7971466,77.5044508 L40.4951544,68.933746 Z" fill="url(#linearGradient-8)"></path>
                                    <path d="M69.2783449,57.4423255 C69.4176485,57.3025844 69.6439589,57.3021302 69.7838233,57.4413109 C69.9159175,57.5727594 69.9236616,57.7817473 69.806762,57.9222833 L69.7848388,57.9463435 L64.0141654,63.7351404 C63.8815753,63.8681469 63.6704267,63.8748242 63.5299413,63.7556935 L63.5059136,63.7333646 L60.9025782,61.0850242 L58.5008974,63.4171494 L69.7843707,74.6939714 C69.9161799,74.8257052 69.9234713,75.0347094 69.8062677,75.1749923 L69.7842924,75.199005 C69.6524424,75.330698 69.4432537,75.337983 69.302847,75.2208828 L69.278813,75.1989268 L57.7392535,63.6659721 C57.6061246,63.5329194 57.6002047,63.3213823 57.7204093,63.1813356 L57.7429309,63.1573941 L60.6595425,60.3254904 C60.792743,60.1961585 61.0010745,60.191312 61.1399009,60.3092674 L61.1636488,60.3313575 L63.7625303,62.9752543 L69.2783449,57.4423255 Z" fill="url(#linearGradient-9)"></path>
                                    <path d="M46.2406764,63.162939 C46.3723562,63.0293235 46.5831799,63.021287 46.724371,63.1392779 L46.748534,63.1614082 L52.5084845,68.9359205 C52.639719,69.0674869 52.6470675,69.275791 52.5304884,69.4159508 L52.5086291,69.439948 L44.1460736,77.8328652 L46.5195318,80.2028502 L57.7386454,68.9361383 C57.8702886,68.803935 58.0797499,68.7962376 58.220451,68.9133019 L58.2445371,68.9352555 L69.7966066,80.4557113 C69.9363205,80.5950428 69.9365308,80.821154 69.7970762,80.9607447 C69.6653692,81.0925803 69.4561885,81.1000919 69.3156548,80.9831438 L69.2915971,80.9612139 L57.9928913,69.6933995 L46.7737709,80.9603311 C46.6420702,81.0925922 46.432498,81.1002305 46.2918059,80.9830352 L46.2677228,80.9610578 L43.3886411,78.0863005 C43.256954,77.9548111 43.2493773,77.7461621 43.3660995,77.6057962 L43.3879878,77.5817641 L51.7507711,69.1880104 L46.4968353,63.920961 L44.1338372,66.3183548 L46.7517567,68.9355687 C46.8835453,69.067323 46.890804,69.2763283 46.7735784,69.416593 L46.7515993,69.4406023 C46.6197287,69.5722746 46.4105389,69.5795269 46.2701505,69.4624047 L46.24612,69.440445 L43.3777611,66.57283 C43.246722,66.4418249 43.2386978,66.2342578 43.3542225,66.0938819 L43.3758919,66.0698364 L46.2406764,63.162939 Z" fill="url(#linearGradient-10)"></path>
                                    <path d="M51.9295557,34.2970996 C52.0614018,34.1637562 52.2721335,34.1560114 52.4131388,34.2741111 L52.4372681,34.2962586 L63.7621355,45.674108 L69.2794807,40.1890767 C69.4116373,40.0576909 69.6208424,40.0508926 69.7609758,40.1683192 L69.7849585,40.190331 C69.9164603,40.3223711 69.9232645,40.5313917 69.8057343,40.6714015 L69.783703,40.6953631 L64.0130297,46.4323786 C63.8808462,46.5637911 63.6715898,46.5705618 63.5314608,46.4530744 L63.5074795,46.4310516 L52.1845697,35.0552188 L32.5554819,54.9071702 L37.8812569,60.0799645 L49.1449389,48.8264738 C49.2767685,48.6947604 49.485956,48.687443 49.6263809,48.8045215 L49.6504183,48.8264738 C49.7822479,48.9581871 49.7895717,49.1671902 49.6723899,49.3074912 L49.6504183,49.3315074 L38.1376658,60.8341075 C38.0071512,60.964507 37.8004891,60.9731588 37.6598807,60.8590592 L37.6357821,60.8376496 L31.7989845,55.1684854 C31.6645451,55.0379071 31.6550219,54.8275778 31.7719145,54.6857404 L31.7938552,54.6614514 L51.9295557,34.2970996 Z" fill="url(#linearGradient-11)"></path>
                                    <path d="M69.0114694,28.4215225 C69.1506201,28.2816294 69.3769298,28.280928 69.5169464,28.419956 C69.6491842,28.5512601 69.6571569,28.7602395 69.5404112,28.9009031 L69.5185142,28.9249872 L63.774648,34.6994996 C63.6427675,34.8320837 63.432715,34.8395762 63.2920007,34.7218848 L63.2679186,34.6998162 L60.625484,32.0498989 L58.2218296,34.3869536 L63.4828703,39.6451297 L69.0134319,34.1708649 C69.145874,34.0397663 69.3550933,34.0334223 69.494971,34.1511529 L69.5189058,34.1732167 C69.65012,34.305542 69.6564696,34.5145769 69.5386351,34.6543313 L69.5165518,34.6782449 L63.7333685,40.4027615 C63.6013478,40.5334429 63.3929321,40.5402196 63.2529858,40.4234399 L63.2290297,40.4015492 L57.4601435,34.6359646 C57.3270735,34.5029708 57.3210917,34.2915466 57.4411623,34.1514883 L57.4636595,34.1275435 L60.3802711,31.2920686 C60.5127748,31.163251 60.7199461,31.1576431 60.8589479,31.2741378 L60.8827409,31.295963 L63.5205662,33.9415093 L69.0114694,28.4215225 Z" fill="url(#linearGradient-12)"></path>
                                    <path d="M69.2783416,51.6910287 C69.4176434,51.5512858 69.6439537,51.5508286 69.78382,51.6900075 C69.9159159,51.8214543 69.9236627,52.0304421 69.806765,52.1709797 L69.7848421,52.1950401 L64.0516987,57.9463402 C63.9123969,58.0860831 63.6860866,58.0865403 63.5462203,57.9473614 C63.4141244,57.8159147 63.4063776,57.6069268 63.5232753,57.4663893 L63.5451982,57.4423288 L69.2783416,51.6910287 Z" fill="url(#linearGradient-13)"></path>
                                    <path d="M68.9995722,11.1562943 C69.1390626,11.0167394 69.3653733,11.0165873 69.5050515,11.1559546 C69.6369697,11.2875793 69.6444343,11.4965774 69.5273469,11.6369572 L69.5053915,11.6609881 L52.501136,28.6728823 L54.8740022,31.0422757 L60.3618309,25.530578 C60.4935576,25.398271 60.7031984,25.3906538 60.8438935,25.5079202 L60.8679765,25.5299107 L63.4891859,28.1487605 L69.0000956,22.658372 C69.1321092,22.5268428 69.3413068,22.5198174 69.4815679,22.6370919 L69.5055745,22.6590776 C69.6372197,22.7909749 69.6442513,22.999988 69.5268733,23.1401253 L69.5048682,23.1641108 L63.7413434,28.906483 C63.6094601,29.0378823 63.4005125,29.0450415 63.2602306,28.9280624 L63.2362174,28.9061304 L60.6158133,26.2881084 L55.1283507,31.7998615 C54.9966529,31.9321396 54.7870678,31.9397864 54.646368,31.8225858 L54.6222836,31.8006073 L51.7432019,28.92585 C51.6113652,28.7942113 51.6039417,28.5852753 51.7210033,28.4449326 L51.7429535,28.4209079 L68.9995722,11.1562943 Z" fill="url(#linearGradient-14)"></path>
                                    <path d="M64.9088961,3.77013278 C65.0483999,3.6305912 65.2747106,3.63046082 65.4143754,3.76984156 C65.546281,3.90147893 65.5537255,4.11047774 65.4366246,4.25084632 L65.4146669,4.27487511 L45.2807536,24.4142459 C45.1489608,24.5460745 44.939702,24.5534721 44.7992158,24.4363854 L44.7751678,24.4144308 L39.2682992,18.9143543 L36.868592,21.2561416 L45.2806079,29.660658 C45.4124375,29.7923714 45.4197613,30.0013744 45.3025795,30.1416755 L45.2806079,30.1656916 C45.1487783,30.297405 44.9395908,30.3047224 44.7991658,30.1876439 L44.7751285,30.1656916 L36.1075021,21.5057086 C35.9745711,21.3728949 35.9683893,21.1617781 36.0880747,21.0216702 L36.1105021,20.9977128 L39.0217523,18.1568812 C39.1540022,18.0278303 39.3611373,18.0218231 39.5003581,18.1380289 L39.5241924,18.1598043 L45.0276754,23.6566904 L64.9088961,3.77013278 Z" fill="url(#linearGradient-15)"></path>
                                    <path d="M41.5174067,2.35295921 C41.6546793,2.21122605 41.8809596,2.20751196 42.0228179,2.34466354 C42.1567951,2.47419559 42.1675541,2.68305026 42.0526947,2.82525555 L42.0311209,2.84962903 L37.3002274,7.73423594 L48.2801855,18.7045115 L53.7606243,13.1845979 C53.8919208,13.052354 54.1010771,13.0441932 54.2419738,13.1607045 L54.2660996,13.1825596 C54.3984602,13.3137403 54.4066283,13.5227121 54.2900141,13.6634846 L54.2681397,13.6875891 L48.5349963,19.4621015 C48.403325,19.5947229 48.1934442,19.6024992 48.052606,19.4851334 L48.0284989,19.4631227 L36.5461278,7.99087715 C36.4158269,7.86069113 36.4069533,7.65462117 36.52067,7.51411184 L36.5420104,7.49002543 L41.5174067,2.35295921 Z" fill="url(#linearGradient-16)"></path>
                                    <path d="M3.17757941,12.4256212 C3.30911445,12.2936143 3.51828512,12.2858304 3.65897122,12.4025955 L3.68305752,12.4244941 L17.3260802,25.9947768 C17.4659757,26.1339263 17.4664808,26.360037 17.3272084,26.4998091 C17.1956734,26.6318161 16.9865027,26.6396 16.8458166,26.5228348 L16.8217303,26.5009363 L3.17870756,12.9306536 C3.0388121,12.791504 3.03830701,12.5653933 3.17757941,12.4256212 Z" fill="url(#linearGradient-17)" transform="translate(10.252394, 19.462715) rotate(45.000000) translate(-10.252394, -19.462715) "></path>
                                </g>
                            </g>
                        </g>
                        <g id="Content" transform="translate(9.759059, 9.971942)">
                            <g id="master-card" transform="translate(94.765632, 52.397194)">
                                <polygon id="Fill-95" fill="#E65F24" points="10.8292314 16.7556493 18.8531983 16.7556493 18.8531983 2.10560438 10.8292314 2.10560438"></polygon>
                                <path d="M11.3342149,9.40132211 C11.3342149,6.42692256 12.6809917,3.78892031 14.8695041,2.04855556 C13.2982645,0.813942761 11.3342149,0.0278597082 9.20181818,0.0278597082 C4.09586777,0.0845039282 0,4.23745006 0,9.40132211 C0,14.5657722 4.09586777,18.7187183 9.20181818,18.7187183 C11.3342149,18.7187183 13.2982645,17.9887015 14.8695041,16.6980224 C12.7371074,15.0143019 11.3342149,12.3762997 11.3342149,9.40132211" id="Fill-97" fill="#D91F26"></path>
                                <path d="M29.7389504,9.42952862 C29.7389504,14.5934007 25.6425041,18.7469248 20.5365537,18.7469248 C18.404157,18.7469248 16.440686,18.016908 14.8694463,16.726229 C17.0012645,15.0425084 18.404157,12.34844 18.404157,9.3734624 C18.404157,6.39848485 17.0579587,3.7604826 14.8694463,2.02069585 C16.440686,0.786083053 18.404157,-8.21390592e-15 20.5365537,-8.21390592e-15 C25.6425041,0.112132435 29.7389504,4.26565657 29.7389504,9.42952862" id="Fill-98" fill="#EC9723"></path>
                            </g>
                            <g id="Uers-Name" transform="translate(0.072850, 61.022740)"></g>
                            <g id="Contactless-icon" transform="translate(117.904521, 12.454545)" fill="#FFFFFF" fill-rule="nonzero">
                                <path d="M3.48989902,1.06877232 C3.70937243,0.959132384 3.97624996,1.04801311 4.08598667,1.26729299 C4.56028863,2.21506041 4.79933865,3.17041728 4.79933865,4.12924788 C4.79933865,5.08807847 4.56028863,6.04343535 4.08598667,6.99120277 C3.97624996,7.21048264 3.70937243,7.29936337 3.48989902,7.18972343 C3.27042561,7.0800835 3.18146643,6.81344131 3.29120314,6.59416144 C3.70549617,5.76630604 3.91074365,4.9460401 3.91074365,4.12924788 C3.91074365,3.31245566 3.70549617,2.49218971 3.29120314,1.66433432 C3.18146643,1.44505445 3.27042561,1.17841226 3.48989902,1.06877232 Z" id="Path-3"></path>
                                <path d="M4.9338659,0.180960913 C5.15333931,0.0713209764 5.42021684,0.160201706 5.52995355,0.379481579 C6.15235468,1.62318613 6.46545428,2.87448014 6.46545428,4.12924788 C6.46545428,5.38401561 6.15235468,6.63530962 5.52995355,7.87901418 C5.42021684,8.09829405 5.15333931,8.18717478 4.9338659,8.07753484 C4.71439249,7.96789491 4.62543331,7.70125272 4.73517001,7.48197284 C5.29756222,6.35818031 5.57685928,5.24197723 5.57685928,4.12924788 C5.57685928,3.01651852 5.29756222,1.90031544 4.73517001,0.776522911 C4.62543331,0.557243038 4.71439249,0.290600849 4.9338659,0.180960913 Z" id="Path-2"></path>
                                <path d="M1.93485777,1.8456073 C2.15433118,1.73596737 2.42120871,1.8248481 2.53094542,2.04412797 C2.90650709,2.79458895 3.13322303,3.51532171 3.13322303,4.12924788 C3.13322303,4.74317404 2.90650709,5.46390681 2.53094542,6.21436779 C2.42120871,6.43364766 2.15433118,6.52252839 1.93485777,6.41288845 C1.71538435,6.30324852 1.62642518,6.03660633 1.73616188,5.81732645 C2.05552707,5.17915933 2.24462802,4.57800507 2.24462802,4.12924788 C2.24462802,3.68049069 2.05552707,3.07933642 1.73616188,2.4411693 C1.62642518,2.22188943 1.71538435,1.95524724 1.93485777,1.8456073 Z" id="Path-4"></path>
                                <path d="M0.524578823,2.60732752 C0.752407258,2.51627651 1.01097527,2.62699365 1.10210665,2.85462118 L1.23649018,3.18122475 C1.40622614,3.60099699 1.4671074,3.82597274 1.4671074,4.12924788 C1.4671074,4.28743917 1.44324851,4.44635817 1.39862541,4.61354723 L1.37763648,4.68854283 C1.34885054,4.78647463 1.31578952,4.8793578 1.2655856,5.00560027 L1.10210663,5.40387461 C1.01097524,5.63150213 0.752407219,5.74221925 0.524578791,5.65116822 C0.296750363,5.56011719 0.18593552,5.30177719 0.277066911,5.07414967 L0.433347994,4.69375582 C0.487007682,4.55946841 0.515580152,4.47641199 0.540033872,4.3847914 C0.565934187,4.28775086 0.578512397,4.20397008 0.578512397,4.12924788 C0.578512397,3.96174615 0.530588887,3.79971028 0.381386499,3.43744422 L0.295195604,3.22927341 L0.277066899,3.18434606 C0.185935525,2.95671853 0.296750388,2.69837853 0.524578823,2.60732752 Z" id="Path-5"></path>
                            </g>
                            <g id="Card-Name" transform="translate(28.330447, 22.396184)" fill-rule="nonzero">
                                <path d="M27.6682167,7.05316872 C28.6226336,7.05316872 29.364775,6.78518119 29.894641,6.24920614 C30.4245069,5.71323108 30.6894399,4.94543858 30.6894399,3.94582866 L30.6894399,3.94582866 L30.6894399,0.0493228582 L29.4256602,0.0493228582 L29.4256602,3.8965058 C29.4256602,5.2512403 28.8431368,5.92860756 27.67809,5.92860756 C26.506461,5.92860756 25.9206465,5.2512403 25.9206465,3.8965058 L25.9206465,3.8965058 L25.9206465,0.0493228582 L24.6371203,0.0493228582 L24.6371203,3.94582866 C24.6371203,4.94543858 24.9036988,5.71323108 25.4368558,6.24920614 C25.9700129,6.78518119 26.7137998,7.05316872 27.6682167,7.05316872 Z M33.7699027,6.95452301 L33.7699027,4.96187954 L35.3298806,4.96187954 C35.9288595,4.96187954 36.4504977,4.86323382 36.8947952,4.66594239 C37.3390927,4.46865095 37.6797208,4.18422247 37.9166795,3.81265694 C38.1536382,3.44109141 38.2721175,3.00540616 38.2721175,2.5056012 C38.2721175,1.99921985 38.1536382,1.56189051 37.9166795,1.19361317 C37.6797208,0.825335827 37.3390927,0.54255144 36.8947952,0.345260007 C36.4504977,0.147968575 35.9288595,0.0493228582 35.3298806,0.0493228582 L35.3298806,0.0493228582 L32.4863765,0.0493228582 L32.4863765,6.95452301 L33.7699027,6.95452301 Z M35.270641,3.87677666 L33.7699027,3.87677666 L33.7699027,1.13442574 L35.270641,1.13442574 C35.8301267,1.13442574 36.2546777,1.2528006 36.5442938,1.48955032 C36.83391,1.72630004 36.9787181,2.06498366 36.9787181,2.5056012 C36.9787181,2.94621873 36.83391,3.28490236 36.5442938,3.52165208 C36.2546777,3.7584018 35.8301267,3.87677666 35.270641,3.87677666 L35.270641,3.87677666 Z" id="UP" fill="#D8056C"></path>
                                <path d="M2.51768595,7.00384587 C3.06400735,7.00384587 3.52476033,6.9216411 3.8999449,6.75723158 C4.27512948,6.59282205 4.55322681,6.37251328 4.73423691,6.09630527 C4.91524702,5.82009727 5.00575207,5.51429555 5.00575207,5.17890011 C5.00575207,4.77116448 4.89879155,4.44727772 4.68487052,4.20723981 C4.47094949,3.9672019 4.21259871,3.78799551 3.90981818,3.66962065 C3.60703765,3.55124579 3.20223324,3.42958274 2.69540496,3.3046315 C2.24123416,3.19283302 1.88250505,3.08761092 1.61921763,2.98896521 C1.35593021,2.89031949 1.135427,2.7489273 0.957707989,2.56478863 C0.779988981,2.38064996 0.691129477,2.13403567 0.691129477,1.82494575 C0.691129477,1.41721013 0.855684114,1.08510288 1.18479339,0.828624018 C1.51390266,0.572145155 1.9976933,0.443905724 2.63616529,0.443905724 C2.95869238,0.443905724 3.28615611,0.493228582 3.61855647,0.591874299 C3.95095684,0.690520015 4.25538292,0.835200399 4.53183471,1.02591545 L4.53183471,1.02591545 L4.719427,0.621468013 C4.44955739,0.430752962 4.1303214,0.279496197 3.76171901,0.167697718 C3.39311662,0.0558992393 3.01793205,1.46024994e-15 2.63616529,1.46024994e-15 C2.08984389,1.46024994e-15 1.63402755,0.0822047637 1.26871625,0.246614291 C0.903404959,0.411023818 0.631889807,0.63297668 0.454170799,0.912472877 C0.276451791,1.19196907 0.187592287,1.49941489 0.187592287,1.83481033 C0.187592287,2.24912233 0.294552801,2.57958548 0.508473829,2.82619978 C0.722394858,3.07281407 0.982391185,3.25530864 1.28846281,3.3736835 C1.59453444,3.49205836 2.00098439,3.61372141 2.50781267,3.73867265 C2.95540129,3.84389475 3.3108393,3.94582866 3.57412672,4.04447437 C3.83741414,4.14312009 4.05791736,4.28451228 4.23563636,4.46865095 C4.41335537,4.65278962 4.50221488,4.89940392 4.50221488,5.20849383 C4.50221488,5.60965307 4.33436915,5.93518394 3.99867769,6.18508642 C3.66298623,6.4349889 3.16603122,6.55994014 2.50781267,6.55994014 C2.05364187,6.55994014 1.62086318,6.47937947 1.20947658,6.31825814 C0.798089991,6.1571368 0.470626263,5.9483367 0.227085399,5.69185784 L0.227085399,5.69185784 L4.38461633e-15,6.06671156 C0.256705234,6.34291957 0.613788797,6.56816062 1.07125069,6.74243472 C1.52871258,6.91670882 2.01085767,7.00384587 2.51768595,7.00384587 Z M8.05659504,6.99398129 C8.26064279,6.99398129 8.45646281,6.96274348 8.6440551,6.90026786 C8.83164738,6.83779224 8.98797429,6.747367 9.11303581,6.62899214 L9.11303581,6.62899214 L8.90569697,6.28373214 C8.69506703,6.47444719 8.42848852,6.56980471 8.10596143,6.56980471 C7.79001653,6.56980471 7.5514123,6.48266766 7.39014876,6.30839357 C7.22888522,6.13411947 7.14825344,5.8792847 7.14825344,5.54388926 L7.14825344,5.54388926 L7.14825344,2.22939319 L8.78721763,2.22939319 L8.78721763,1.80521661 L7.14825344,1.80521661 L7.14825344,0.680655443 L6.65458953,0.680655443 L6.65458953,1.80521661 L5.70675482,1.80521661 L5.70675482,2.22939319 L6.65458953,2.22939319 L6.65458953,5.59321212 C6.65458953,6.03382965 6.77635996,6.37744557 7.01990083,6.62405986 C7.26344169,6.87067415 7.60900643,6.99398129 8.05659504,6.99398129 Z M12.5785565,6.99398129 C12.9734876,6.99398129 13.3404444,6.9216411 13.679427,6.77696072 C14.0184096,6.63228033 14.299798,6.42512433 14.5235923,6.1554927 L14.5235923,6.1554927 L14.2372672,5.82996184 C14.0463838,6.06671156 13.8077796,6.24591794 13.5214545,6.367581 C13.2351295,6.48924405 12.9241212,6.55007557 12.5884298,6.55007557 C12.1803343,6.55007557 11.8133774,6.46458262 11.4875592,6.29359671 C11.161741,6.1226108 10.9033903,5.88092879 10.7125069,5.56855069 C10.5216235,5.25617259 10.4195996,4.89940392 10.4064353,4.49824467 L10.4064353,4.49824467 L14.8395372,4.49824467 L14.8494105,4.36014067 C14.8494105,3.8603357 14.74245,3.41314179 14.5285289,3.01855892 C14.3146079,2.62397606 14.0217006,2.31653024 13.6498072,2.09622147 C13.2779137,1.87591271 12.8582994,1.76575832 12.3909642,1.76575832 C11.923629,1.76575832 11.5023691,1.8775568 11.1271846,2.10115376 C10.752,2.32475072 10.4574472,2.63548472 10.2435262,3.03335578 C10.0296051,3.43122684 9.92264463,3.88006485 9.92264463,4.37986981 C9.92264463,4.88625115 10.0361873,5.33673326 10.2632727,5.73131612 C10.4903581,6.12589899 10.8046575,6.4349889 11.2061708,6.65858586 C11.6076841,6.88218282 12.065146,6.99398129 12.5785565,6.99398129 Z M14.3656198,4.11352637 L10.4163085,4.11352637 C10.4426373,3.74524903 10.5430156,3.41478588 10.7174435,3.12213692 C10.8918714,2.82948797 11.1238935,2.60260282 11.4135096,2.44148148 C11.7031258,2.28036014 12.028944,2.19979948 12.3909642,2.19979948 C12.7529844,2.19979948 13.0788026,2.28200424 13.3684187,2.44641377 C13.6580349,2.61082329 13.8917025,2.83770844 14.0694215,3.12706921 C14.2471405,3.41642998 14.3458733,3.74524903 14.3656198,4.11352637 L14.3656198,4.11352637 Z M16.8734325,8.86824991 L16.8734325,5.78063898 C17.0774803,6.16206909 17.3638053,6.45965033 17.7324077,6.67338272 C18.1010101,6.8871151 18.5123967,6.99398129 18.9665675,6.99398129 C19.447067,6.99398129 19.8814913,6.88382691 20.2698402,6.66351814 C20.6581892,6.44320938 20.9626152,6.13411947 21.1831185,5.73624841 C21.4036217,5.33837735 21.5138733,4.88625115 21.5138733,4.37986981 C21.5138733,3.87348846 21.4036217,3.42300636 21.1831185,3.02842349 C20.9626152,2.63384063 20.6581892,2.32475072 20.2698402,2.10115376 C19.8814913,1.8775568 19.447067,1.76575832 18.9665675,1.76575832 C18.5058145,1.76575832 18.0894913,1.87591271 17.7175978,2.09622147 C17.3457043,2.31653024 17.0577337,2.62397606 16.853686,3.01855892 L16.853686,3.01855892 L16.853686,1.80521661 L16.3797686,1.80521661 L16.3797686,8.86824991 L16.8734325,8.86824991 Z M18.9369477,6.55007557 C18.5420165,6.55007557 18.1882241,6.45800624 17.8755702,6.27386756 C17.5629164,6.08972889 17.3160845,5.83325003 17.1350744,5.50443098 C16.9540643,5.17561192 16.8635592,4.8007582 16.8635592,4.37986981 C16.8635592,3.95898142 16.9540643,3.5841277 17.1350744,3.25530864 C17.3160845,2.92648959 17.5629164,2.67001072 17.8755702,2.48587205 C18.1882241,2.30173338 18.5420165,2.20966405 18.9369477,2.20966405 C19.3318788,2.20966405 19.6873168,2.30173338 20.0032617,2.48587205 C20.3192066,2.67001072 20.5676841,2.92648959 20.7486942,3.25530864 C20.9297043,3.5841277 21.0202094,3.95898142 21.0202094,4.37986981 C21.0202094,4.8007582 20.9297043,5.17561192 20.7486942,5.50443098 C20.5676841,5.83325003 20.3192066,6.08972889 20.0032617,6.27386756 C19.6873168,6.45800624 19.3318788,6.55007557 18.9369477,6.55007557 Z" id="Step" fill="#03D6F8"></path>
                            </g>
                            <g id="SIM" transform="translate(7.524891, 20.084175)">
                                <mask id="mask-20" fill="white">
                                    <use xlink:href="#path-19"></use>
                                </mask>
                                <g id="Clip-2">
                                    <use fill="#D8D8D8" xlink:href="#path-19"></use>
                                    <use fill="url(#linearGradient-18)" xlink:href="#path-19"></use>
                                </g>
                                <mask id="mask-22" fill="white">
                                    <use xlink:href="#path-21"></use>
                                </mask>
                                <use id="Clip-5" fill="#818183" xlink:href="#path-21"></use>
                            </g>
                            <g id="SBM-Bank---Logo" transform="translate(86.823657, 0.398429)" fill-rule="nonzero">
                                <polygon id="Path" fill="#FFFFFF" points="3.04876033 9.12665544 1.82809917 7.982211 1.82809917 1.13866442 3.04876033 2.30268479e-15"></polygon>
                                <polygon id="Path" fill="#FFFFFF" points="1.22066116 7.4157688 4.31753398e-15 6.27710438 4.31753398e-15 2.84955107 1.22066116 1.71088664"></polygon>
                                <polygon id="Path" fill="#00B2E3" points="3.65619835 7.4157688 4.8768595 6.27710438 4.8768595 2.84955107 3.65619835 1.71088664"></polygon>
                                <path d="M15.6198347,4.3523569 C15.8824515,4.13594099 16.0263582,3.80760811 16.007438,3.46801347 C16.007438,2.66459035 15.4289256,2.27154882 14.2719008,2.27154882 L12.0504132,2.27154882 L12.0504132,6.83198653 L14.514876,6.83198653 C15.7355372,6.83198653 16.4066116,6.32912458 16.4066116,5.42744108 C16.4165741,4.93295455 16.0944738,4.49282347 15.6198347,4.3523569 M14.3586777,4.09803591 L12.9123967,4.09803591 L12.9123967,3.01717172 L14.3123967,3.01717172 C15.0702479,3.01717172 15.1338843,3.25993266 15.1338843,3.51425365 C15.1338843,3.9130752 14.8909091,4.09225589 14.3702479,4.09225589 M12.9123967,4.83787879 L14.4628099,4.83787879 C15.4173554,4.83787879 15.5446281,5.13843996 15.5446281,5.41588103 C15.5446281,5.88406285 15.2322314,6.07480359 14.4570248,6.07480359 L12.9123967,6.07480359 L12.9123967,4.83787879 Z" id="Shape" fill="#FFFFFF"></path>
                                <path d="M23.1404959,6.66436588 L23.1404959,6.66436588 C23.0873905,5.24357575 22.9521791,3.82703716 22.7355372,2.42182941 L22.7355372,2.27732884 L21.9834711,2.27732884 L20.2479339,5.16734007 L18.5123967,2.27732884 L17.7545455,2.27732884 L17.7545455,2.42182941 C17.5379036,3.82703716 17.4026921,5.24357575 17.3495868,6.66436588 L17.3495868,6.83776655 L18.1884298,6.83776655 L18.1884298,6.67592593 C18.2173554,5.68754209 18.3041322,4.54887767 18.4256198,3.64719416 L20.0049587,6.22508418 L20.531405,6.22508418 L22.1049587,3.65297419 C22.2264463,4.54887767 22.3132231,5.68754209 22.3421488,6.67592593 L22.3421488,6.83776655 L23.1404959,6.83776655 L23.1404959,6.66436588 Z" id="Path" fill="#FFFFFF"></path>
                                <path d="M9.75371901,4.23097643 L8.96115702,4.07491582 C8.38264463,3.95353535 8.15702479,3.81481481 8.15702479,3.49691358 C8.15702479,3.17901235 8.55619835,2.97671156 9.23305785,2.97671156 C9.65161706,2.98533326 10.0651629,3.06953606 10.453719,3.22525253 L11.0322314,2.72817059 L10.9280992,2.67037037 C10.41043,2.41063399 9.83494792,2.28728304 9.25619835,2.31200898 C8.09917355,2.31200898 7.32975207,2.79753086 7.32975207,3.5547138 C7.32975207,4.21941639 7.79256198,4.62979798 8.74710744,4.80319865 L9.56280992,4.9708193 C10.3264463,5.11531987 10.3264463,5.39854097 10.3264463,5.54882155 C10.3264463,5.93608305 9.89256198,6.17306397 9.16942149,6.17306397 C8.64659217,6.16239705 8.13349531,6.02978248 7.67107438,5.78580247 L7.12727273,6.27710438 L7.21404959,6.3349046 C7.81266797,6.71385295 8.50704368,6.9143626 9.21570248,6.91291472 C10.4247934,6.91291472 11.1479339,6.39848485 11.1479339,5.54304153 C11.1479339,4.87255892 10.7140496,4.49107744 9.74793388,4.30611672" id="Path" fill="#FFFFFF"></path>
                                <path d="M26.4264463,4.04601571 C26.0930704,4.05385112 25.7716685,4.17173006 25.5123967,4.38125701 L25.5123967,2.89001122 L25.1363636,2.89001122 L25.1363636,6.67592593 L25.1363636,6.67592593 C25.5533605,6.7605261 25.9777988,6.80312613 26.4033058,6.80308645 C27.1796995,6.80308645 27.8090909,6.17425 27.8090909,5.39854097 C27.8090909,4.62283193 27.1796995,3.99399551 26.4033058,3.99399551 L26.4264463,4.04601571 Z M26.4264463,6.50830527 C26.119853,6.51112655 25.8137167,6.48402447 25.5123967,6.42738496 L25.5123967,4.75117845 C25.7466469,4.49603627 26.080033,4.35478835 26.4264463,4.36391695 C26.7115892,4.35071544 26.9891837,4.45771012 27.1915758,4.65882473 C27.3939679,4.85993935 27.5025681,5.13670187 27.4909091,5.42166105 C27.5025681,5.70662024 27.3939679,5.98338276 27.1915758,6.18449738 C26.9891837,6.38561199 26.7115892,6.49260667 26.4264463,6.47940516 L26.4264463,6.50830527 Z" id="Shape" fill="#00B2E3"></path>
                                <path d="M31.0429752,5.73378227 L31.0429752,4.04601571 L30.7595041,4.04601571 L30.7190083,4.23675645 C30.4175668,4.08859322 30.0822454,4.02278459 29.7471074,4.04601571 C29.3654032,4.03016164 28.9939089,4.17149464 28.7194314,4.43698955 C28.4449538,4.70248447 28.2915412,5.06888011 28.2950413,5.45056117 C28.3093969,6.01989343 28.6571175,6.52770041 29.1830267,6.74736403 C29.7089358,6.96702766 30.314932,6.85757258 30.7305785,6.46784512 L30.8115702,6.81464646 L31.1702479,6.81464646 L31.1702479,6.77418631 C31.0913295,6.43282042 31.0486693,6.08408989 31.0429752,5.73378227 L31.0429752,5.73378227 Z M29.7066116,6.47940516 C29.4262338,6.49013608 29.1546184,6.38070434 28.9601215,6.1786501 C28.7656246,5.97659587 28.6667677,5.70116035 28.6884298,5.42166105 C28.6750901,5.13725311 28.7823389,4.86039825 28.9838441,4.65907077 C29.1853493,4.45774328 29.4624485,4.35058906 29.7471074,4.36391695 C30.0700783,4.36395439 30.3866318,4.45403251 30.661157,4.62401796 L30.661157,5.95342312 C30.4984084,6.32403891 30.1071784,6.53961796 29.7066116,6.47940516 L29.7066116,6.47940516 Z" id="Shape" fill="#00B2E3"></path>
                                <path d="M33.131405,4.04601571 C32.7850822,4.05678134 32.451829,4.18062598 32.1826446,4.39859708 L32.1421488,4.04601571 L31.8181818,4.04601571 L31.8181818,6.76840629 L32.2,6.76840629 L32.2,4.75117845 C32.4203932,4.50387576 32.7363493,4.36287316 33.0677686,4.36391695 C33.646281,4.36391695 33.9181818,4.62401796 33.9181818,5.16734007 L33.9181818,6.78574635 L34.3,6.78574635 L34.3,5.08641975 C34.3022481,4.78697334 34.1752471,4.50107913 33.9514789,4.30185753 C33.7277107,4.10263592 33.428876,4.00940725 33.131405,4.04601571 L33.131405,4.04601571 Z" id="Path" fill="#00B2E3"></path>
                                <path d="M35.8677686,5.15578002 L37.5338843,4.04601571 L36.9553719,4.04601571 C36.822314,4.12693603 35.7231405,4.8147587 35.5090909,4.98815937 L35.5090909,2.89001122 L35.1272727,2.89001122 L35.1272727,6.76840629 L35.5090909,6.76840629 L35.5090909,5.26560045 C35.7289256,5.52570146 36.9900826,6.64124579 37.1404959,6.77418631 L37.1404959,6.77418631 L37.6842975,6.77418631 L35.8677686,5.15578002 Z" id="Path" fill="#00B2E3"></path>
                            </g>
                            <g id="paisabazaar-Logo" transform="translate(0.611311, 0.398429)" fill-rule="nonzero">
                                <g id="Group-15" transform="translate(47.712506, 0.307028)">
                                    <path d="M9.25421512,4.70361146 C9.25421512,7.21981924 7.19118727,9.25960634 4.64634419,9.25960634 C2.10146773,9.25960634 0.0384398656,7.21981924 0.0384398656,4.70361146 C0.0384398656,2.18742027 2.10146773,0.147633179 4.64634419,0.147633179 C7.19118727,0.147633179 9.25421512,2.18742027 9.25421512,4.70361146" id="Fill-1" fill="#0375AF"></path>
                                    <path d="M4.6463358,8.99194052 C7.04168341,8.99194052 8.98350682,7.07199735 8.98350682,4.70360648 C8.98350682,2.33524881 7.04168341,0.415305639 4.6463358,0.415305639 C2.25097155,0.415305639 0.30916482,2.33524881 0.30916482,4.70360648 C0.30916482,7.07199735 2.25097155,8.99194052 4.6463358,8.99194052 Z" id="Fill-4" fill="url(#linearGradient-23)"></path>
                                    <path d="M4.63013357,6.01538697 C2.55988281,6.01538697 0.881603179,4.79891884 0.881603179,3.2983381 C0.881603179,1.79775736 2.75174324,0.45679697 4.63013357,0.45679697 C6.50852389,0.45679697 8.37868063,1.79775736 8.37868063,3.2983381 C8.37868063,4.79891884 6.700401,6.01538697 4.63013357,6.01538697 Z" id="Fill-7" fill="#0391C4" opacity="0.600000024"></path>
                                    <path d="M3.0999532,5.64231527 L3.37525712,5.55735043 C3.4289534,5.74852963 3.42057951,5.92121511 3.35006875,6.07535707 C3.27957466,6.22953224 3.15918759,6.34545829 2.98889083,6.42315181 C2.7755403,6.52050114 2.57206495,6.52934957 2.37846478,6.4497469 C2.18484792,6.37011104 2.02839643,6.2007956 1.90904358,5.94170097 C1.8318604,5.77419505 1.79222624,5.61489012 1.79014111,5.46378617 C1.7880393,5.31269882 1.82952505,5.17973997 1.91458168,5.0649096 C1.999655,4.95006263 2.10921608,4.86204317 2.24331498,4.80086782 C2.41261087,4.72362252 2.57069711,4.70305366 2.71762373,4.73914462 C2.86453366,4.77525219 2.98925781,4.86478236 3.09184622,5.00773513 L2.85312383,5.16440047 C2.7806447,5.07136746 2.70124294,5.01271548 2.61486851,4.98847776 C2.52847739,4.96422344 2.44128558,4.9722086 2.353193,5.01240006 C2.22009497,5.07312718 2.13382062,5.16994527 2.09440332,5.30285432 C2.05495265,5.43577998 2.08259314,5.60499582 2.17725805,5.81050183 C2.27325745,6.01892966 2.38315215,6.15207113 2.50692548,6.20990964 C2.63068214,6.26778136 2.75717448,6.26723352 2.88635246,6.20828273 C2.9900585,6.16095276 3.06208724,6.0898001 3.102422,5.99475834 C3.1427234,5.89978298 3.14192271,5.78227983 3.0999532,5.64231527" id="Fill-9" fill="#FFFFFF"></path>
                                    <path d="M3.6634755,5.13411494 C3.75500438,5.33279787 3.8670843,5.46170604 3.99971527,5.52082285 C4.13234623,5.57992305 4.26476034,5.57934201 4.39687419,5.51906312 C4.52798718,5.45923247 4.61421149,5.35977479 4.65556379,5.2206901 C4.69688273,5.08160541 4.67067682,4.91031442 4.57691268,4.70673414 C4.48851984,4.51485769 4.37774104,4.38950217 4.24462632,4.33060118 C4.11149493,4.2717168 3.97984814,4.27194921 3.84968597,4.33134824 C3.71757212,4.39161052 3.63061385,4.49081918 3.58884452,4.6289244 C3.54705851,4.76706283 3.57194663,4.93541541 3.6634755,5.13411494 M3.39190814,5.25804276 C3.25954407,4.97072612 3.2417454,4.72130998 3.33854549,4.50976113 C3.41966539,4.333689 3.55661675,4.20162661 3.74941623,4.11365695 C3.96373426,4.015876 4.17109629,4.00583228 4.37151901,4.08350921 C4.57192505,4.16121934 4.72891033,4.32328006 4.84240814,4.56967479 C4.93438741,4.76932059 4.97664049,4.94011354 4.96916738,5.08198723 C4.96171095,5.22391073 4.91505408,5.35275249 4.8292468,5.46852913 C4.74338948,5.58427256 4.63249391,5.67322169 4.49647669,5.7352769 C4.27822194,5.83485079 4.0697256,5.84572456 3.87102102,5.76783182 C3.67229977,5.68995568 3.51261216,5.52004259 3.39190814,5.25804276" id="Fill-11" fill="#FFFFFF"></path>
                                    <path d="M5.51961673,5.22598754 L4.80486746,3.67450757 L5.04120447,3.5666829 L5.1414909,3.78434099 C5.15541957,3.686062 5.19233469,3.59525354 5.2522697,3.51191561 C5.31217131,3.42861088 5.39399182,3.36326864 5.49773122,3.31592207 C5.61319737,3.26324652 5.71887178,3.24392275 5.8147544,3.25791754 C5.91062037,3.27194554 5.99345842,3.31487619 6.06328526,3.3867261 C6.10315297,3.14931262 6.22192199,2.98550876 6.41960898,2.89529795 C6.57422557,2.82474293 6.71274495,2.8131055 6.83520048,2.86038566 C6.95763931,2.90766583 7.05969395,3.01990641 7.14136432,3.19717382 L7.63198714,4.26213957 L7.36922737,4.3820499 L6.91897268,3.40470518 C6.87049758,3.2995201 6.82706011,3.22770339 6.78862702,3.18925506 C6.75019389,3.15080672 6.70195232,3.12774768 6.64391896,3.12004473 C6.5859023,3.11232519 6.52653447,3.12230249 6.4658822,3.14997666 C6.3562711,3.19999602 6.28195704,3.27782236 6.24297344,3.38342247 C6.20395649,3.48903918 6.22128808,3.62168262 6.29486817,3.78140258 L6.71012604,4.6827803 L6.44588165,4.80335467 L5.9814981,3.79533097 C5.92765172,3.67844205 5.86574837,3.60063232 5.79577139,3.56183536 C5.72577776,3.523055 5.64185542,3.52597681 5.5440211,3.57061738 C5.46962365,3.6045502 5.40985548,3.65543282 5.36468321,3.72316564 C5.31951097,3.79093166 5.30001084,3.86879119 5.30618282,3.95671105 C5.3123381,4.04469731 5.34795213,4.15926206 5.41300822,4.3004717 L5.78384447,5.10542976 L5.51961673,5.22598754 Z" id="Fill-13" fill="#FFFFFF"></path>
                                </g>
                                <path d="M22.45903,3.35053405 C22.6687746,3.23375569 22.8948255,3.17537445 23.1372995,3.17537445 C23.4996251,3.17537445 23.7708061,3.33408506 23.9506254,3.65144276 C24.1304613,3.96889573 24.220371,4.44502755 24.220371,5.07990175 C24.220371,5.67898823 24.1276908,6.12828723 23.9424639,6.42786223 C23.7572036,6.72742137 23.4778946,6.87720885 23.104687,6.87720885 C22.9085281,6.87720885 22.7082468,6.83738833 22.5039598,6.75768371 C22.2995727,6.67799497 22.0897779,6.55846983 21.8745923,6.39904474 L21.8745923,3.87613989 C22.0543448,3.64258317 22.2491184,3.46739181 22.45903,3.35053405 L22.45903,3.35053405 Z M20.3161864,0.725283422 L20.3161864,0.980576324 L20.3936619,0.984720329 C20.7227576,1.00671054 20.9179151,1.05402523 20.979101,1.12677553 C21.040287,1.19952583 21.0708966,1.42115862 21.0708966,1.79178504 L21.0708966,7.27660515 L21.7236136,7.27660515 L21.8256068,6.72075285 L21.8745923,6.72075285 C22.0594353,6.92392021 22.2634886,7.07626398 22.486552,7.17778416 C22.7095152,7.27932018 22.9502367,7.33015966 23.2085829,7.33015966 C23.7716072,7.33015966 24.2230247,7.10492268 24.5630524,6.65428999 C24.9030132,6.20372081 25.0729687,5.60469783 25.0729687,4.8573163 C25.0729687,4.18419343 24.9247271,3.64841017 24.6283274,3.24998241 C24.3318609,2.85160227 23.9333678,2.65238839 23.4329982,2.65238839 C23.1147845,2.65238839 22.8257451,2.73071166 22.566047,2.88719943 C22.3063488,3.04386185 22.0758417,3.27867289 21.8745923,3.59172782 L21.8745923,0.725283422 L20.3161864,0.725283422 Z" id="Fill-1" fill="#FFFFFF"></path>
                                <path d="M27.8442651,6.52795502 C27.5270695,6.74485634 27.2518996,6.8532832 27.0187053,6.8532832 C26.7720588,6.8532832 26.5660028,6.76781506 26.4006538,6.59694236 C26.2352548,6.42603793 26.1525886,6.21101011 26.1525886,5.95190666 C26.1525886,5.60462002 26.2854419,5.33175084 26.5511151,5.13323556 C26.8167717,4.9348314 27.185473,4.83554995 27.6572023,4.83554995 L27.8442651,4.83554995 L27.8442651,6.52795502 Z M27.6774975,4.5843693 C26.7910188,4.5843693 26.1620853,4.73561753 25.7906802,5.03801872 C25.4654067,5.30196481 25.3027114,5.64566315 25.3027114,6.06901844 C25.3027114,6.43186491 25.4275034,6.7336469 25.6770707,6.97423731 C25.9266379,7.2147801 26.2386929,7.33500384 26.6130522,7.33500384 C27.0796242,7.33500384 27.5517709,7.09689033 28.0293083,6.62059972 C28.1346396,7.09689033 28.3847243,7.33500384 28.7794621,7.33500384 C28.9313088,7.33500384 29.1035007,7.3006769 29.2959377,7.23195946 L29.2715701,6.92681146 C29.1820944,6.95189779 29.1102769,6.96442507 29.056034,6.96442507 C28.9042374,6.96442507 28.7978046,6.89167476 28.7368356,6.7460154 C28.6757999,6.60038777 28.6453404,6.34893722 28.6453404,5.99175895 L28.6453404,3.99680981 C28.6453404,3.10378479 28.1654663,2.65726434 27.2058015,2.65726434 C26.7232236,2.65726434 26.2000219,2.78221957 25.6361799,3.03197125 L25.6361799,3.85142035 L26.1810787,3.85142035 L26.1851177,3.77317646 C26.2150097,3.48495381 26.2854419,3.2941232 26.3965647,3.2007799 C26.5863313,3.04708655 26.8046046,2.970224 27.0513011,2.970224 C27.5799438,2.970224 27.8442651,3.32300421 27.8442651,4.02846937 L27.8442651,4.5843693 L27.6774975,4.5843693 Z" id="Fill-4" fill="#FFFFFF"></path>
                                <path d="M29.964854,7.231553 L33.8229405,7.231553 L33.8229405,6.92813564 L32.5726841,6.92611924 L30.9392896,6.92611924 L33.736686,3.00047682 L33.736686,2.74869282 L30.0800158,2.74869282 L30.0800158,3.72696367 L30.5119225,3.72696367 L30.5160784,3.64028888 C30.521536,3.55777397 30.5242566,3.45868304 30.5242566,3.34311136 C30.5242566,3.17250858 30.5585213,3.0727508 30.6270843,3.04385391 C30.6956473,3.01495702 30.931512,3.00047682 31.3345615,3.00047682 L32.7926431,3.00047682 L29.964854,6.97564088 L29.964854,7.231553 Z" id="Fill-6" fill="#FFFFFF"></path>
                                <path d="M36.7201254,6.52795502 C36.4023957,6.74485634 36.1267919,6.8532832 35.8932805,6.8532832 C35.6461333,6.8532832 35.4397434,6.76781506 35.2740773,6.59694236 C35.108428,6.42603793 35.0256283,6.21101011 35.0256283,5.95190666 C35.0256283,5.60462002 35.1586986,5.33175084 35.4248391,5.13323556 C35.6909296,4.9348314 36.0602985,4.83554995 36.5327288,4.83554995 L36.7201254,4.83554995 L36.7201254,6.52795502 Z M36.5531074,4.5843693 C35.6651267,4.5843693 35.0351417,4.73561753 34.6631191,5.03801872 C34.3372279,5.30196481 34.1742991,5.64566315 34.1742991,6.06901844 C34.1742991,6.43186491 34.2993247,6.7336469 34.5493259,6.97423731 C34.7993104,7.2147801 35.1118494,7.33500384 35.4869097,7.33500384 C35.9541994,7.33500384 36.4271472,7.09689033 36.9054357,6.62059972 C37.0109673,7.09689033 37.2615192,7.33500384 37.6569748,7.33500384 C37.809005,7.33500384 37.9814473,7.3006769 38.1742991,7.23195946 L38.1498839,6.92681146 C38.0602747,6.95189779 37.9882568,6.96442507 37.9339806,6.96442507 C37.7818502,6.96442507 37.6753339,6.89167476 37.614148,6.7460154 C37.5531289,6.60038777 37.5225526,6.34893722 37.5225526,5.99175895 L37.5225526,3.99680981 C37.5225526,3.10378479 37.0418941,2.65726434 36.0806771,2.65726434 C35.597248,2.65726434 35.073095,2.78221957 34.508335,3.03197125 L34.508335,3.85142035 L35.0541684,3.85142035 L35.0582074,3.77317646 C35.0880827,3.48495381 35.1586986,3.2941232 35.2700216,3.2007799 C35.4601053,3.04708655 35.678679,2.970224 35.9258095,2.970224 C36.4553534,2.970224 36.7201254,3.32300421 36.7201254,4.02846937 L36.7201254,4.5843693 L36.5531074,4.5843693 Z" id="Fill-8" fill="#FFFFFF"></path>
                                <path d="M41.24965,6.52795502 C40.9324211,6.74485634 40.6572345,6.8532832 40.4240736,6.8532832 C40.1774438,6.8532832 39.971371,6.76781506 39.8060721,6.59694236 C39.6406397,6.42603793 39.5579569,6.21101011 39.5579569,5.95190666 C39.5579569,5.60462002 39.6907768,5.33175084 39.9564333,5.13323556 C40.2221065,4.9348314 40.5908078,4.83554995 41.0625372,4.83554995 L41.24965,4.83554995 L41.24965,6.52795502 Z M41.0828658,4.5843693 C40.196337,4.5843693 39.5674703,4.73561753 39.1960151,5.03801872 C38.8707916,5.30196481 38.7080964,5.64566315 38.7080964,6.06901844 C38.7080964,6.43186491 38.832855,6.7336469 39.0824222,6.97423731 C39.3320229,7.2147801 39.6440612,7.33500384 40.0184705,7.33500384 C40.4850092,7.33500384 40.9571057,7.09689033 41.4346265,6.62059972 C41.5399912,7.09689033 41.7901093,7.33500384 42.1848469,7.33500384 C42.3366436,7.33500384 42.5088522,7.3006769 42.7013227,7.23195946 L42.6769051,6.92681146 C42.5874459,6.95189779 42.5155949,6.96442507 42.4614189,6.96442507 C42.309489,6.96442507 42.203173,6.89167476 42.1422204,6.7460154 C42.0811347,6.60038777 42.0506421,6.34893722 42.0506421,5.99175895 L42.0506421,3.99680981 C42.0506421,3.10378479 41.5708012,2.65726434 40.6111364,2.65726434 C40.1285585,2.65726434 39.6053568,2.78221957 39.0415314,3.03197125 L39.0415314,3.85142035 L39.5864636,3.85142035 L39.5904692,3.77317646 C39.6203446,3.48495381 39.6907768,3.2941232 39.8018996,3.2007799 C39.9917162,3.04708655 40.2098894,2.970224 40.4566527,2.970224 C40.9853287,2.970224 41.24965,3.32300421 41.24965,4.02846937 L41.24965,4.5843693 L41.0828658,4.5843693 Z" id="Fill-10" fill="#FFFFFF"></path>
                                <path d="M43.6426767,6.83672622 C43.5817578,6.90984172 43.3875683,6.95741042 43.0600583,6.97944826 L42.9828832,6.98362403 L42.9828832,7.24004423 L45.3868102,7.24004423 L45.3868102,6.98362403 L45.2121648,6.97944826 C44.8873252,6.96017307 44.6930523,6.91325535 44.6294796,6.83885378 C44.5658569,6.76437287 44.5340122,6.54096179 44.5340122,6.1687 L44.5340122,3.9721236 C44.7912068,3.53363712 45.1201022,3.3144177 45.5208151,3.3144177 C45.6209224,3.3144177 45.6825423,3.33856724 45.7055746,3.38677106 C45.7285736,3.43508603 45.754944,3.58741392 45.7847525,3.84388175 L45.7888416,3.91834681 L46.2396082,3.91834681 L46.2396082,2.68975269 C46.1394174,2.65942684 46.0487233,2.64426391 45.9675093,2.64426391 C45.3772968,2.64426391 44.8995757,2.96006563 44.5340122,3.59149441 L44.5340122,2.74764173 L42.9828832,2.74764173 L42.9828832,3.00414132 L43.0600583,3.00823769 C43.3875683,3.0331176 43.5817578,3.08136905 43.6426767,3.15308732 C43.7035789,3.22482147 43.7340217,3.4467718 43.7340217,3.81906535 L43.7340217,6.1687 C43.7340217,6.54096179 43.7035789,6.76372189 43.6426767,6.83672622" id="Fill-12" fill="#FFFFFF"></path>
                                <path d="M2.11057155,3.35456531 C2.30926735,3.23756467 2.52341818,3.17902465 2.75307413,3.17902465 C3.09622285,3.17902465 3.35291678,3.33805281 3.52323938,3.65604561 C3.6935119,3.97413367 3.77864817,4.45112287 3.77864817,5.08726725 C3.77864817,5.68752868 3.69090825,6.13770093 3.51552855,6.43783164 C3.3400487,6.73796236 3.07561056,6.88809917 2.72211397,6.88809917 C2.53631964,6.88809917 2.34666989,6.84815161 2.15319811,6.76830409 C1.95965956,6.68844072 1.76096377,6.56872502 1.55714411,6.40896651 L1.55714411,3.88120318 C1.72745002,3.64715426 1.91190915,3.47158184 2.11057155,3.35456531 L2.11057155,3.35456531 Z M-1.00140676e-05,2.75817798 L-1.00140676e-05,3.01396308 L0.0774821788,3.01813884 C0.406227327,3.04289172 0.601251293,3.09103204 0.662403866,3.16249627 C0.723523059,3.23403988 0.754132723,3.45545039 0.754132723,3.82675954 L0.736491275,8.86840934 L1.55405644,8.86840934 L1.55714411,6.73107155 C1.73481036,6.93468349 1.93078566,7.08737656 2.14515347,7.18918252 C2.35945452,7.29097261 2.59079617,7.34189148 2.83902821,7.34189148 C3.38007159,7.34189148 3.81381424,7.1162417 4.14058995,6.66468808 C4.46724884,6.21324565 4.63064505,5.61307949 4.63064505,4.86428488 C4.63064505,4.18982831 4.48816155,3.65298127 4.2033281,3.25379138 C3.91839448,2.85468088 3.53550661,2.65507007 3.05466447,2.65507007 C2.74883484,2.65507007 2.47116144,2.73350448 2.22167764,2.89035743 C1.97202693,3.04722626 1.75048238,3.28248186 1.55714411,3.59620364 L1.55714411,2.75817798 L-1.00140676e-05,2.75817798 Z" id="Fill-15" fill="#FFFFFF"></path>
                                <path d="M7.68215172,6.52795502 C7.3650062,6.74485634 7.08981962,6.8532832 6.85669216,6.8532832 C6.60997892,6.8532832 6.40392279,6.76781506 6.23857384,6.59694236 C6.0731748,6.42603793 5.99050867,6.21101011 5.99050867,5.95190666 C5.99050867,5.60462002 6.12336197,5.33175084 6.38898513,5.13323556 C6.65469172,4.9348314 7.02344304,4.83554995 7.49508894,4.83554995 L7.68215172,4.83554995 L7.68215172,6.52795502 Z M7.51545089,4.5843693 C6.62895554,4.5843693 6.00000535,4.73561753 5.62865035,5.03801872 C5.30334338,5.30196481 5.14064816,5.64566315 5.14064816,6.06901844 C5.14064816,6.43186491 5.2654735,6.7336469 5.51500738,6.97423731 C5.7646247,7.2147801 6.07661299,7.33500384 6.45097221,7.33500384 C6.91757767,7.33500384 7.38972429,7.09689033 7.86717832,6.62059972 C7.97254302,7.09689033 8.22264436,7.33500384 8.61743226,7.33500384 C8.76922883,7.33500384 8.94140404,7.3006769 9.1338911,7.23195946 L9.10949015,6.92681146 C9.02003116,6.95189779 8.94818021,6.96442507 8.89398742,6.96442507 C8.74215746,6.96442507 8.63575803,6.89167476 8.57472229,6.7460154 C8.5137366,6.60038777 8.48324377,6.34893722 8.48324377,5.99175895 L8.48324377,3.99680981 C8.48324377,3.10378479 8.00343642,2.65726434 7.04377163,2.65726434 C6.56119368,2.65726434 6.03794198,2.78221957 5.47411662,3.03197125 L5.47411662,3.85142035 L6.01899871,3.85142035 L6.02303771,3.77317646 C6.05289634,3.48495381 6.12336197,3.2941232 6.23453483,3.2007799 C6.42425133,3.04708655 6.64249123,2.970224 6.88920451,2.970224 C7.4178304,2.970224 7.68215172,3.32300421 7.68215172,4.02846937 L7.68215172,4.5843693 L7.51545089,4.5843693 Z" id="Fill-18" fill="#FFFFFF"></path>
                                <path d="M9.42894057,3.00817736 L9.50664974,3.01232137 C9.83666335,3.03702662 9.98183393,3.07652962 10.0612455,3.17133365 C10.1871724,3.32167686 10.1858205,3.44971231 10.1858205,3.82108496 L10.1631386,7.23364883 L11.0145347,7.23364883 L10.986345,2.75232875 L9.42894057,2.75232875 L9.42894057,3.00817736 Z" id="Fill-20" fill="#FFFFFF"></path>
                                <polygon id="Fill-22" fill="#FFFFFF" points="10.1858255 1.93940527 10.9918244 1.93940527 10.9918244 1.1264818 10.1858255 1.1264818"></polygon>
                                <path d="M14.2435825,6.83664841 C14.0776493,6.98684873 13.8648504,7.06188539 13.6051189,7.06188539 C13.2848189,7.06188539 12.9908393,6.98770611 12.7351134,6.82223175 C12.3478527,6.57159092 11.9343384,5.8944193 11.9343384,5.8944193 L11.9343384,6.56814552 C12.3264226,7.092243 12.9731645,7.3130343 13.5358883,7.3130343 C14.0697215,7.3130343 14.503314,7.18738045 14.8365988,6.93592986 C15.1699171,6.68455871 15.3365845,6.35962748 15.3365845,5.96127908 C15.3365845,5.67275478 15.2513982,5.43646711 15.0811591,5.25236854 C14.9080659,5.07103261 14.6035548,4.89519027 14.1678761,4.72484153 L13.7696333,4.56817911 C13.365599,4.4119295 13.0971887,4.27484393 12.9645023,4.1569859 C12.8288784,4.04187466 12.7610999,3.88835597 12.7610999,3.69650921 C12.7610999,3.46352406 12.8440164,3.27024833 13.0099828,3.11674552 C13.1758658,2.96317919 13.3843921,2.88647542 13.6354615,2.88647542 C13.9009011,2.88647542 14.1274359,2.95643129 14.3150161,3.09647006 C14.3785053,3.14588057 14.4246368,3.22202864 14.4535608,3.32500953 C14.4823345,3.42795866 14.505467,3.61393079 14.5227579,3.88295765 L14.5227579,3.95707341 L15.0032663,3.95707341 L15.0032663,2.89058766 C14.5126771,2.72038181 14.0379936,2.63524713 13.5791657,2.63524713 C13.1087883,2.63524713 12.7213607,2.75342271 12.4169664,2.98971035 C12.112472,3.22602974 11.9602916,3.52552536 11.9602916,3.88816544 C11.9602916,4.19594907 12.0656062,4.45698959 12.2762855,4.67125525 C12.4869314,4.88834712 12.8274097,5.08340111 13.2978205,5.25646492 L13.7350013,5.4172237 C14.0177652,5.52193521 14.2154596,5.63485538 14.3279843,5.75606355 C14.4376551,5.88006614 14.4924988,6.04669956 14.4924988,6.25602736 C14.4924988,6.49296597 14.4095489,6.68646398 14.2435825,6.83664841" id="Fill-24" fill="#FFFFFF"></path>
                                <path d="M18.4929519,6.52795502 C18.175773,6.74485634 17.9005864,6.8532832 17.6674589,6.8532832 C17.4207457,6.8532832 17.2146895,6.76781506 17.0493239,6.59694236 C16.8839916,6.42603793 16.8013088,6.21101011 16.8013088,5.95190666 C16.8013088,5.60462002 16.9341287,5.33175084 17.1997853,5.13323556 C17.4654585,4.9348314 17.8341597,4.83554995 18.3058557,4.83554995 L18.4929519,4.83554995 L18.4929519,6.52795502 Z M18.3262176,4.5843693 C17.4397223,4.5843693 16.8108222,4.73561753 16.4394004,5.03801872 C16.11406,5.30196481 15.9514483,5.64566315 15.9514483,6.06901844 C15.9514483,6.43186491 16.0762402,6.7336469 16.3257741,6.97423731 C16.5753748,7.2147801 16.887363,7.33500384 17.261739,7.33500384 C17.7283778,7.33500384 18.200491,7.09689033 18.6779785,6.62059972 C18.7833432,7.09689033 19.0334111,7.33500384 19.428199,7.33500384 C19.580029,7.33500384 19.7521207,7.3006769 19.9446579,7.23195946 L19.9202569,6.92681146 C19.8307479,6.95189779 19.758947,6.96442507 19.7047208,6.96442507 C19.5528742,6.96442507 19.4464747,6.89167476 19.3855224,6.7460154 C19.3245367,6.60038777 19.2939938,6.34893722 19.2939938,5.99175895 L19.2939938,3.99680981 C19.2939938,3.10378479 18.8141865,2.65726434 17.8545384,2.65726434 C17.3719438,2.65726434 16.8487087,2.78221957 16.2848834,3.03197125 L16.2848834,3.85142035 L16.8297655,3.85142035 L16.8337711,3.77317646 C16.8636464,3.48495381 16.9341287,3.2941232 17.0452849,3.2007799 C17.2350181,3.04708655 17.4532914,2.970224 17.6999546,2.970224 C18.2285972,2.970224 18.4929519,3.32300421 18.4929519,4.02846937 L18.4929519,4.5843693 L18.3262176,4.5843693 Z" id="Fill-25" fill="#FFFFFF"></path>
                            </g>
                        </g>
                    </g>
                </g>
            </g>
        </g>
    </g>
</svg>