<?xml version="1.0" encoding="UTF-8"?>
<svg width="40px" height="42px" viewBox="0 0 40 42" version="1.1" xmlns="http://www.w3.org/2000/svg" xmlns:xlink="http://www.w3.org/1999/xlink">
    <title>inactive left@1x</title>
    <g id="inactive-left" stroke="none" stroke-width="1" fill="none" fill-rule="evenodd">
        <path d="M71.5,5 C72.181707,5 72.8501372,5.05684471 73.5008092,5.16605266 L73.5,5 C77.1552223,5 80.4743513,7.13274992 81.993246,10.4574467 L91.6541717,31.6041718 C94.4468503,37.7170445 100.439484,41.7250183 107.134155,41.9893069 L107.5,42 L73.5,42 L73.5008092,41.8339473 C72.8501372,41.9431553 72.181707,42 71.5,42 L0.5,42 L0.5,17 C0.5,10.372583 5.872583,5 12.5,5 L71.5,5 Z" id="Combined-Shape" stroke="#DCE1E6" fill="#F4F6F9"></path>
        <path d="M152.666838,41.4508178 C52.8889459,41.5 -3.66666667,41.5122956 -17,41.4877044 C-37,41.4508178 -37,0.5 -57,0.5 C-77,0.5 -88.2067563,0.5 -100,0.5" id="Path" stroke="#B0B1E9"></path>
    </g>
</svg>