<?xml version="1.0" encoding="UTF-8"?>
<svg width="20px" height="20px" viewBox="0 0 20 20" version="1.1" xmlns="http://www.w3.org/2000/svg" xmlns:xlink="http://www.w3.org/1999/xlink">
    <!-- Generator: sketchtool 63 (101010) - https://sketch.com -->
    <title>F57C21C4-98BB-49DB-B737-70ED74A3C18D</title>
    <desc>Created with sketchtool.</desc>
    <g id="Advisory/Build---Mobile" stroke="none" stroke-width="1" fill="none" fill-rule="evenodd">
        <g id="FAQS-page" transform="translate(-209.000000, -56.000000)" fill-rule="nonzero">
            <g id="Group-2" transform="translate(12.000000, 14.000000)">
                <g id="question-(3)" transform="translate(197.000000, 42.000000)">
                    <path d="M10,0 C4.49339844,0 0,4.49414062 0,10 C0,11.7873437 0.483554687,13.5371484 1.40113281,15.0789062 L0.029609375,19.2302344 C-0.0401953125,19.4414844 0.015703125,19.6741016 0.173867188,19.8305859 C0.331875,19.9869141 0.564921875,20.0405469 0.775703125,19.9684375 L4.88511719,18.5619141 C6.46335937,19.5036328 8.22570313,20.0000179 10,20.0000179 C15.5066406,20.0000179 20,15.5058984 20,10 C20,4.49335937 15.5058984,0 10,0 Z M10,18.828125 C8.356875,18.828125 6.72132812,18.3422656 5.27019531,17.4230859 C5.1221875,17.3293359 4.93730469,17.3053906 4.76691406,17.3637109 L1.51242188,18.4776172 L2.59921875,15.1880859 C2.65425781,15.0214844 2.63175781,14.8389453 2.53785156,14.6907422 C1.64421875,13.2799609 1.171875,11.6579297 1.171875,10 C1.171875,5.13214844 5.1321875,1.171875 10,1.171875 C14.8678125,1.171875 18.828125,5.13214844 18.828125,10 C18.828125,14.8678516 14.8678516,18.828125 10,18.828125 Z" id="Shape" fill="#052F5F"></path>
                    <g id="question-mark-(2)" transform="translate(6.000000, 3.000000)" fill="#32C5FF">
                        <g id="Group" transform="translate(0.437781, 0.437781)">
                            <path d="M2.4562554,11.3992481 C2.69646724,10.8088 3.36099032,10.5285499 3.94050923,10.7732919 C4.52002814,11.0180339 4.79509087,11.6950892 4.55487903,12.2855373 C4.31466718,12.8759854 3.65014411,13.1562356 3.07062519,12.9114936 C2.49110628,12.6667515 2.21604355,11.9896962 2.4562554,11.3992481 Z M3.50002271,-5.41788836e-14 C4.46638893,-5.41788836e-14 5.34140596,0.399223545 5.9747633,1.04461797 C6.6082115,1.68996612 7,2.58148515 7,3.56607612 C7,5.10215651 6.26534546,5.81053995 5.5095684,6.5393335 C5.07898716,6.95452414 4.63564156,7.38202563 4.63564156,8.13622768 C4.63564156,8.77523527 4.12720229,9.29326323 3.50002271,9.29326323 C2.87284314,9.29326323 2.36440386,8.77523527 2.36440386,8.13622768 C2.36440386,6.40266446 3.17232854,5.62360929 3.95699574,4.86704688 C4.34837542,4.48962189 4.72880773,4.12279534 4.72880773,3.56602984 C4.72880773,3.22021505 4.591307,2.90716751 4.36899825,2.68066624 C4.14668951,2.45416496 3.83943647,2.31407109 3.50002271,2.31407109 C3.16060895,2.31407109 2.85335592,2.45421124 2.63104717,2.68061995 C2.40873842,2.90712123 2.27123769,3.22016877 2.27123769,3.56598355 C2.27123769,4.20499115 1.76279842,4.7230191 1.13561885,4.7230191 C0.50843927,4.7230191 -2.12718732e-13,4.20499115 -2.12718732e-13,3.56598355 C-2.12718732e-13,2.58139259 0.391833927,1.68987356 1.0252367,1.04452541 C1.65863946,0.399177263 2.5336565,-5.41788836e-14 3.50002271,-5.41788836e-14 Z" id="Combined-Shape"></path>
                        </g>
                    </g>
                </g>
            </g>
        </g>
    </g>
</svg>