<?xml version="1.0" encoding="UTF-8"?>
<svg width="36px" height="36px" viewBox="0 0 36 36" version="1.1" xmlns="http://www.w3.org/2000/svg" xmlns:xlink="http://www.w3.org/1999/xlink">
    <title>347EC9FE-6602-4C24-9DBC-C82963BB2F67</title>
    <g id="Page-2" stroke="none" stroke-width="1" fill="none" fill-rule="evenodd">
        <g id="wa-comm-desktop" transform="translate(-606.000000, -1481.000000)" fill-rule="nonzero">
            <g id="Group-4-Copy" transform="translate(590.000000, 1464.000000)">
                <g id="WhatsApp_icon" transform="translate(16.000000, 17.000000)">
                    <path d="M9.43783784,30.9405405 L10.0216216,31.2324324 C12.4540541,32.6918919 15.1783784,33.372973 17.9027027,33.372973 L17.9027027,33.372973 C26.4648649,33.372973 33.4702703,26.3675676 33.4702703,17.8054054 C33.4702703,13.7189189 31.8162162,9.72972973 28.8972973,6.81081081 C25.9783784,3.89189189 22.0864865,2.23783784 17.9027027,2.23783784 C9.34054054,2.23783784 2.33513514,9.24324324 2.43243243,17.9027027 C2.43243243,20.8216216 3.30810811,23.6432432 4.76756757,26.0756757 L5.15675676,26.6594595 L3.6,32.4 L9.43783784,30.9405405 Z" id="Path" fill="#52CB60"></path>
                    <path d="M30.5513514,5.25405405 C27.2432432,1.84864865 22.6702703,0 18,0 C8.07567568,0 0.0972972973,8.07567568 0.194594595,17.9027027 C0.194594595,21.0162162 1.07027027,24.0324324 2.52972973,26.7567568 L0,36 L9.43783784,33.5675676 C12.0648649,35.027027 14.9837838,35.7081081 17.9027027,35.7081081 L17.9027027,35.7081081 C27.7297297,35.7081081 35.7081081,27.6324324 35.7081081,17.8054054 C35.7081081,13.0378378 33.8594595,8.56216216 30.5513514,5.25405405 Z M18,32.6918919 L18,32.6918919 C15.372973,32.6918919 12.7459459,32.0108108 10.5081081,30.6486486 L9.92432432,30.3567568 L4.28108108,31.8162162 L5.74054054,26.2702703 L5.35135135,25.6864865 C1.07027027,18.7783784 3.11351351,9.63243243 10.1189189,5.35135135 C17.1243243,1.07027027 26.172973,3.11351351 30.4540541,10.1189189 C34.7351351,17.1243243 32.6918919,26.172973 25.6864865,30.4540541 C23.4486486,31.9135135 20.7243243,32.6918919 18,32.6918919 Z M26.5621622,21.8918919 L25.4918919,21.4054054 C25.4918919,21.4054054 23.9351351,20.7243243 22.9621622,20.2378378 C22.8648649,20.2378378 22.7675676,20.1405405 22.6702703,20.1405405 C22.3783784,20.1405405 22.1837838,20.2378378 21.9891892,20.3351351 L21.9891892,20.3351351 C21.9891892,20.3351351 21.8918919,20.4324324 20.5297297,21.9891892 C20.4324324,22.1837838 20.2378378,22.2810811 20.0432432,22.2810811 L19.9459459,22.2810811 C19.8486486,22.2810811 19.6540541,22.1837838 19.5567568,22.0864865 L19.0702703,21.8918919 L19.0702703,21.8918919 C18,21.4054054 17.027027,20.8216216 16.2486486,20.0432432 C16.0540541,19.8486486 15.7621622,19.6540541 15.5675676,19.4594595 C14.8864865,18.7783784 14.2054054,18 13.7189189,17.1243243 L13.6216216,16.9297297 C13.5243243,16.8324324 13.5243243,16.7351351 13.427027,16.5405405 C13.427027,16.3459459 13.427027,16.1513514 13.5243243,16.0540541 C13.5243243,16.0540541 13.9135135,15.5675676 14.2054054,15.2756757 C14.4,15.0810811 14.4972973,14.7891892 14.6918919,14.5945946 C14.8864865,14.3027027 14.9837838,13.9135135 14.8864865,13.6216216 C14.7891892,13.1351351 13.6216216,10.5081081 13.3297297,9.92432432 C13.1351351,9.63243243 12.9405405,9.53513514 12.6486486,9.43783784 L12.3567568,9.43783784 C12.1621622,9.43783784 11.8702703,9.43783784 11.5783784,9.43783784 C11.3837838,9.43783784 11.1891892,9.53513514 10.9945946,9.53513514 L10.8972973,9.63243243 C10.7027027,9.72972973 10.5081081,9.92432432 10.3135135,10.0216216 C10.1189189,10.2162162 10.0216216,10.4108108 9.82702703,10.6054054 C9.14594595,11.4810811 8.75675676,12.5513514 8.75675676,13.6216216 L8.75675676,13.6216216 C8.75675676,14.4 8.95135135,15.1783784 9.24324324,15.8594595 L9.34054054,16.1513514 C10.2162162,18 11.3837838,19.6540541 12.9405405,21.1135135 L13.3297297,21.5027027 C13.6216216,21.7945946 13.9135135,21.9891892 14.1081081,22.2810811 C16.1513514,24.0324324 18.4864865,25.2972973 21.1135135,25.9783784 C21.4054054,26.0756757 21.7945946,26.0756757 22.0864865,26.172973 L22.0864865,26.172973 C22.3783784,26.172973 22.7675676,26.172973 23.0594595,26.172973 C23.5459459,26.172973 24.1297297,25.9783784 24.5189189,25.7837838 C24.8108108,25.5891892 25.0054054,25.5891892 25.2,25.3945946 L25.3945946,25.2 C25.5891892,25.0054054 25.7837838,24.9081081 25.9783784,24.7135135 C26.172973,24.5189189 26.3675676,24.3243243 26.4648649,24.1297297 C26.6594595,23.7405405 26.7567568,23.2540541 26.8540541,22.7675676 C26.8540541,22.572973 26.8540541,22.2810811 26.8540541,22.0864865 C26.8540541,22.0864865 26.7567568,21.9891892 26.5621622,21.8918919 Z" id="Shape" fill="#FFFFFF"></path>
                </g>
            </g>
        </g>
    </g>
</svg>