<?xml version="1.0" encoding="UTF-8"?>
<svg width="359px" height="202px" viewBox="0 0 359 202" version="1.1" xmlns="http://www.w3.org/2000/svg" xmlns:xlink="http://www.w3.org/1999/xlink">
    <title>59B20901-5F1D-4FD4-ADD4-594AB7B54402</title>
    <defs>
        <linearGradient x1="56.6521434%" y1="7.70791075%" x2="30.167139%" y2="89.7439148%" id="linearGradient-1">
            <stop stop-color="#FF66A9" offset="0%"></stop>
            <stop stop-color="#F53689" offset="100%"></stop>
        </linearGradient>
        <linearGradient x1="40.5917857%" y1="10.3554032%" x2="58.1687299%" y2="84.5390583%" id="linearGradient-2">
            <stop stop-color="#FF66A9" offset="0%"></stop>
            <stop stop-color="#F53689" offset="100%"></stop>
        </linearGradient>
        <linearGradient x1="0.0128765869%" y1="49.7403615%" x2="100.159243%" y2="49.7403615%" id="linearGradient-3">
            <stop stop-color="#83A6FF" offset="0%"></stop>
            <stop stop-color="#5A78FF" offset="100%"></stop>
        </linearGradient>
        <linearGradient x1="-1.27829561%" y1="51.0050925%" x2="101.704394%" y2="51.0050925%" id="linearGradient-4">
            <stop stop-color="#FF66A9" offset="0%"></stop>
            <stop stop-color="#F53689" offset="100%"></stop>
        </linearGradient>
        <linearGradient x1="-616.883117%" y1="45.9237537%" x2="1635.11688%" y2="45.9237537%" id="linearGradient-5">
            <stop stop-color="#83A6FF" stop-opacity="0" offset="0%"></stop>
            <stop stop-color="#5A78FF" offset="100%"></stop>
        </linearGradient>
        <linearGradient x1="-439.397089%" y1="45.9237537%" x2="1813.72141%" y2="45.9237537%" id="linearGradient-6">
            <stop stop-color="#83A6FF" stop-opacity="0" offset="0%"></stop>
            <stop stop-color="#5A78FF" offset="100%"></stop>
        </linearGradient>
        <linearGradient x1="-841.882223%" y1="50.5006258%" x2="1543.91855%" y2="50.5006258%" id="linearGradient-7">
            <stop stop-color="#83A6FF" stop-opacity="0" offset="0%"></stop>
            <stop stop-color="#5A78FF" offset="100%"></stop>
        </linearGradient>
        <linearGradient x1="-1293.92168%" y1="50.2866076%" x2="1239.6844%" y2="50.2866076%" id="linearGradient-8">
            <stop stop-color="#83A6FF" stop-opacity="0" offset="0%"></stop>
            <stop stop-color="#5A78FF" offset="100%"></stop>
        </linearGradient>
        <linearGradient x1="-1241.64241%" y1="52.6883108%" x2="1326.57657%" y2="52.6883108%" id="linearGradient-9">
            <stop stop-color="#83A6FF" stop-opacity="0" offset="0%"></stop>
            <stop stop-color="#5A78FF" offset="100%"></stop>
        </linearGradient>
        <linearGradient x1="-1293.92168%" y1="47.472642%" x2="1239.6844%" y2="47.472642%" id="linearGradient-10">
            <stop stop-color="#83A6FF" stop-opacity="0" offset="0%"></stop>
            <stop stop-color="#5A78FF" offset="100%"></stop>
        </linearGradient>
        <linearGradient x1="-266.961039%" y1="45.9237537%" x2="1984.98701%" y2="45.9237537%" id="linearGradient-11">
            <stop stop-color="#83A6FF" stop-opacity="0" offset="0%"></stop>
            <stop stop-color="#5A78FF" offset="100%"></stop>
        </linearGradient>
        <linearGradient x1="-1078.73943%" y1="49.8642666%" x2="1448.46303%" y2="49.8642666%" id="linearGradient-12">
            <stop stop-color="#83A6FF" stop-opacity="0" offset="0%"></stop>
            <stop stop-color="#5A78FF" offset="100%"></stop>
        </linearGradient>
        <linearGradient x1="-1452.53097%" y1="48.3606656%" x2="1236.29506%" y2="48.3606656%" id="linearGradient-13">
            <stop stop-color="#83A6FF" stop-opacity="0" offset="0%"></stop>
            <stop stop-color="#5A78FF" offset="100%"></stop>
        </linearGradient>
        <linearGradient x1="-1485.07984%" y1="55.1036467%" x2="1002.74096%" y2="55.1036467%" id="linearGradient-14">
            <stop stop-color="#83A6FF" stop-opacity="0" offset="0%"></stop>
            <stop stop-color="#5A78FF" offset="100%"></stop>
        </linearGradient>
        <linearGradient x1="-1570.51642%" y1="51.782364%" x2="787.379502%" y2="51.782364%" id="linearGradient-15">
            <stop stop-color="#83A6FF" stop-opacity="0" offset="0%"></stop>
            <stop stop-color="#5A78FF" offset="100%"></stop>
        </linearGradient>
        <linearGradient x1="-1344.37764%" y1="48.1607307%" x2="1290.49354%" y2="48.1607307%" id="linearGradient-16">
            <stop stop-color="#83A6FF" stop-opacity="0" offset="0%"></stop>
            <stop stop-color="#5A78FF" offset="100%"></stop>
        </linearGradient>
        <linearGradient x1="-1369.40299%" y1="58.7222873%" x2="1299.10459%" y2="58.7222873%" id="linearGradient-17">
            <stop stop-color="#83A6FF" stop-opacity="0" offset="0%"></stop>
            <stop stop-color="#5A78FF" offset="100%"></stop>
        </linearGradient>
        <linearGradient x1="-1293.92168%" y1="50.1823867%" x2="1239.6844%" y2="50.1823867%" id="linearGradient-18">
            <stop stop-color="#83A6FF" stop-opacity="0" offset="0%"></stop>
            <stop stop-color="#5A78FF" offset="100%"></stop>
        </linearGradient>
        <linearGradient x1="-106.66277%" y1="45.9237537%" x2="2426.94331%" y2="45.9237537%" id="linearGradient-19">
            <stop stop-color="#83A6FF" stop-opacity="0" offset="0%"></stop>
            <stop stop-color="#5A78FF" offset="100%"></stop>
        </linearGradient>
        <linearGradient x1="-266.451453%" y1="43.8452521%" x2="92.3764589%" y2="43.8452521%" id="linearGradient-20">
            <stop stop-color="#83A6FF" stop-opacity="0" offset="0%"></stop>
            <stop stop-color="#5A78FF" offset="100%"></stop>
        </linearGradient>
        <linearGradient x1="-700.103896%" y1="49.8533724%" x2="1529.97403%" y2="49.8533724%" id="linearGradient-21">
            <stop stop-color="#FF66A9" stop-opacity="0" offset="0%"></stop>
            <stop stop-color="#F53689" offset="100%"></stop>
        </linearGradient>
        <linearGradient x1="-883.887734%" y1="49.8533724%" x2="1347.34927%" y2="49.8533724%" id="linearGradient-22">
            <stop stop-color="#FF66A9" stop-opacity="0" offset="0%"></stop>
            <stop stop-color="#F53689" offset="100%"></stop>
        </linearGradient>
        <linearGradient x1="-516.831169%" y1="49.8533724%" x2="1713.24675%" y2="49.8533724%" id="linearGradient-23">
            <stop stop-color="#FF66A9" stop-opacity="0" offset="0%"></stop>
            <stop stop-color="#F53689" offset="100%"></stop>
        </linearGradient>
        <linearGradient x1="-333.731809%" y1="49.8533724%" x2="1897.5052%" y2="49.8533724%" id="linearGradient-24">
            <stop stop-color="#FF66A9" stop-opacity="0" offset="0%"></stop>
            <stop stop-color="#F53689" offset="100%"></stop>
        </linearGradient>
        <linearGradient x1="-150.233766%" y1="49.8533724%" x2="2079.84416%" y2="49.8533724%" id="linearGradient-25">
            <stop stop-color="#FF66A9" stop-opacity="0" offset="0%"></stop>
            <stop stop-color="#F53689" offset="100%"></stop>
        </linearGradient>
        <linearGradient x1="-1434.04366%" y1="49.8533724%" x2="797.193347%" y2="49.8533724%" id="linearGradient-26">
            <stop stop-color="#FF66A9" stop-opacity="0" offset="0%"></stop>
            <stop stop-color="#F53689" offset="100%"></stop>
        </linearGradient>
        <linearGradient x1="-1067.25572%" y1="49.8533724%" x2="1163.98129%" y2="49.8533724%" id="linearGradient-27">
            <stop stop-color="#FF66A9" stop-opacity="0" offset="0%"></stop>
            <stop stop-color="#F53689" offset="100%"></stop>
        </linearGradient>
        <linearGradient x1="-1249.97403%" y1="49.8533724%" x2="980.103896%" y2="49.8533724%" id="linearGradient-28">
            <stop stop-color="#FF66A9" stop-opacity="0" offset="0%"></stop>
            <stop stop-color="#F53689" offset="100%"></stop>
        </linearGradient>
        <linearGradient x1="23.2123212%" y1="49.8533724%" x2="2384.54345%" y2="49.8533724%" id="linearGradient-29">
            <stop stop-color="#FF66A9" stop-opacity="0" offset="0%"></stop>
            <stop stop-color="#F53689" offset="100%"></stop>
        </linearGradient>
        <linearGradient x1="-253.102887%" y1="49.8533724%" x2="96.055307%" y2="49.8533724%" id="linearGradient-30">
            <stop stop-color="#FF66A9" stop-opacity="0" offset="0%"></stop>
            <stop stop-color="#F53689" offset="100%"></stop>
        </linearGradient>
        <linearGradient x1="-975.104046%" y1="48.3589433%" x2="1309.30799%" y2="48.3589433%" id="linearGradient-31">
            <stop stop-color="#83A6FF" stop-opacity="0" offset="0%"></stop>
            <stop stop-color="#5A78FF" offset="100%"></stop>
        </linearGradient>
        <linearGradient x1="-879.732711%" y1="52.7204503%" x2="1630.89356%" y2="52.7204503%" id="linearGradient-32">
            <stop stop-color="#83A6FF" stop-opacity="0" offset="0%"></stop>
            <stop stop-color="#5A78FF" offset="100%"></stop>
        </linearGradient>
        <linearGradient x1="-1444.62596%" y1="49.8337648%" x2="1373.09272%" y2="49.8337648%" id="linearGradient-33">
            <stop stop-color="#83A6FF" stop-opacity="0" offset="0%"></stop>
            <stop stop-color="#5A78FF" offset="100%"></stop>
        </linearGradient>
        <linearGradient x1="-616.883117%" y1="44.5747801%" x2="1635.11688%" y2="44.5747801%" id="linearGradient-34">
            <stop stop-color="#83A6FF" stop-opacity="0" offset="0%"></stop>
            <stop stop-color="#5A78FF" offset="100%"></stop>
        </linearGradient>
        <linearGradient x1="-1293.92168%" y1="46.8196038%" x2="1239.6844%" y2="46.8196038%" id="linearGradient-35">
            <stop stop-color="#83A6FF" stop-opacity="0" offset="0%"></stop>
            <stop stop-color="#5A78FF" offset="100%"></stop>
        </linearGradient>
        <linearGradient x1="-266.961039%" y1="44.5747801%" x2="1984.98701%" y2="44.5747801%" id="linearGradient-36">
            <stop stop-color="#83A6FF" stop-opacity="0" offset="0%"></stop>
            <stop stop-color="#5A78FF" offset="100%"></stop>
        </linearGradient>
        <linearGradient x1="-439.397089%" y1="44.5747801%" x2="1813.72141%" y2="44.5747801%" id="linearGradient-37">
            <stop stop-color="#83A6FF" stop-opacity="0" offset="0%"></stop>
            <stop stop-color="#5A78FF" offset="100%"></stop>
        </linearGradient>
        <linearGradient x1="-1241.64241%" y1="50.5161707%" x2="1326.57657%" y2="50.5161707%" id="linearGradient-38">
            <stop stop-color="#83A6FF" stop-opacity="0" offset="0%"></stop>
            <stop stop-color="#5A78FF" offset="100%"></stop>
        </linearGradient>
        <linearGradient x1="-1435.69816%" y1="50.7932485%" x2="986.494352%" y2="50.7932485%" id="linearGradient-39">
            <stop stop-color="#83A6FF" stop-opacity="0" offset="0%"></stop>
            <stop stop-color="#5A78FF" offset="100%"></stop>
        </linearGradient>
        <linearGradient x1="-1588.22882%" y1="51.4696685%" x2="796.259626%" y2="51.4696685%" id="linearGradient-40">
            <stop stop-color="#83A6FF" stop-opacity="0" offset="0%"></stop>
            <stop stop-color="#5A78FF" offset="100%"></stop>
        </linearGradient>
        <linearGradient x1="-1452.53097%" y1="50.2214021%" x2="1236.29506%" y2="50.2214021%" id="linearGradient-41">
            <stop stop-color="#83A6FF" stop-opacity="0" offset="0%"></stop>
            <stop stop-color="#5A78FF" offset="100%"></stop>
        </linearGradient>
        <linearGradient x1="-1293.92168%" y1="49.6350365%" x2="1239.6844%" y2="49.6350365%" id="linearGradient-42">
            <stop stop-color="#83A6FF" stop-opacity="0" offset="0%"></stop>
            <stop stop-color="#5A78FF" offset="100%"></stop>
        </linearGradient>
        <linearGradient x1="-1293.92168%" y1="46.9515373%" x2="1239.6844%" y2="46.9515373%" id="linearGradient-43">
            <stop stop-color="#83A6FF" stop-opacity="0" offset="0%"></stop>
            <stop stop-color="#5A78FF" offset="100%"></stop>
        </linearGradient>
        <linearGradient x1="-1369.20522%" y1="50.5733658%" x2="1298.91697%" y2="50.5733658%" id="linearGradient-44">
            <stop stop-color="#83A6FF" stop-opacity="0" offset="0%"></stop>
            <stop stop-color="#5A78FF" offset="100%"></stop>
        </linearGradient>
        <linearGradient x1="-106.66277%" y1="44.5747801%" x2="2426.94331%" y2="44.5747801%" id="linearGradient-45">
            <stop stop-color="#83A6FF" stop-opacity="0" offset="0%"></stop>
            <stop stop-color="#5A78FF" offset="100%"></stop>
        </linearGradient>
        <linearGradient x1="-263.234329%" y1="46.6588511%" x2="92.4433869%" y2="46.6588511%" id="linearGradient-46">
            <stop stop-color="#83A6FF" stop-opacity="0" offset="0%"></stop>
            <stop stop-color="#5A78FF" offset="100%"></stop>
        </linearGradient>
        <linearGradient x1="50%" y1="60.1331546%" x2="50%" y2="100%" id="linearGradient-47">
            <stop stop-color="#FFFFFF" stop-opacity="0" offset="0%"></stop>
            <stop stop-color="#FFFFFF" stop-opacity="0.08" offset="100%"></stop>
        </linearGradient>
        <path d="M81.6461166,48 C77.8511823,43.6232272 75.5824716,40.9806779 74.8399844,40.0723521 L74.7831273,40.0025044 C74.6404271,39.8263782 74.569077,39.7313259 74.569077,39.7173476 L74.569077,39.7173476 L74.569077,39.6932351 C75.6120949,39.6932351 76.7040043,39.4239786 77.8448051,38.8854655 C78.4559485,38.6443403 79.0956118,38.1178835 79.7637952,37.3060951 C80.269007,36.5023443 80.5460586,35.8151373 80.5949501,35.2444742 L80.5949501,35.2444742 L82.7706203,35.2444742 C82.7869174,35.2444742 83.1699006,34.6898861 83.9195697,33.58071 C83.9195697,33.5565975 83.8991983,33.5405224 83.8584554,33.5324849 L83.8584554,33.5324849 L80.50939,33.5324849 C80.354567,32.8171467 80.0612182,32.2103148 79.6293436,31.7119893 L79.6293436,31.7119893 L82.7706203,31.7119893 C82.8602546,31.6396517 83.2513864,31.0770261 83.9440154,30.0241125 L83.9440154,30.0241125 L83.9440154,30 L72.185618,30 C72.1611723,30 71.7741149,30.5505693 71.0244457,31.651708 L71.0244457,31.651708 L71.0244457,31.7119893 L74.1290538,31.7119893 C74.6505627,31.7119893 75.2372603,31.8164769 75.8891465,32.0254521 C76.8017872,32.3791025 77.4170048,32.8734092 77.7347993,33.5083724 L77.7347993,33.5083724 L77.7347993,33.5324849 L72.185618,33.5324849 C72.1829895,33.5324849 72.1705037,33.5469123 72.1481609,33.575767 L72.116618,33.6173179 C71.9715207,33.8112217 71.5993147,34.3375321 71,35.1962492 C71,35.2283992 71.0162972,35.2444742 71.0488915,35.2444742 L71.0488915,35.2444742 L78.040371,35.2444742 C78.040371,35.5016745 77.9914795,35.7508372 77.8936966,35.9919625 C77.2662561,37.6396517 75.6650606,38.4634963 73.0901101,38.4634963 C72.5441554,38.4634963 72.0674637,38.435365 71.6600348,38.3791025 L71.6600348,38.3791025 L71.635589,38.4393838 L71.635589,40.0428667 C71.635589,40.0669792 73.9334879,42.719357 78.5292857,48 L78.5292857,48 L81.6461166,48 Z" id="path-48"></path>
        <filter x="-3.9%" y="-2.8%" width="107.7%" height="105.6%" filterUnits="objectBoundingBox" id="filter-49">
            <feGaussianBlur stdDeviation="0.5" in="SourceAlpha" result="shadowBlurInner1"></feGaussianBlur>
            <feOffset dx="0" dy="0" in="shadowBlurInner1" result="shadowOffsetInner1"></feOffset>
            <feComposite in="shadowOffsetInner1" in2="SourceAlpha" operator="arithmetic" k2="-1" k3="1" result="shadowInnerInner1"></feComposite>
            <feColorMatrix values="0 0 0 0 0   0 0 0 0 0   0 0 0 0 0  0 0 0 0.0572492693 0" type="matrix" in="shadowInnerInner1"></feColorMatrix>
        </filter>
        <linearGradient x1="283.7%" y1="127.7%" x2="-14.1%" y2="127.7%" id="linearGradient-50">
            <stop stop-color="#384FC3" offset="0%"></stop>
            <stop stop-color="#DFD8FF" offset="100%"></stop>
        </linearGradient>
        <linearGradient x1="0.0568813507%" y1="50.5948373%" x2="99.8836518%" y2="50.5948373%" id="linearGradient-51">
            <stop stop-color="#FF66A9" offset="0%"></stop>
            <stop stop-color="#F53689" offset="100%"></stop>
        </linearGradient>
        <linearGradient x1="-14.0569404%" y1="48.4040595%" x2="132.401829%" y2="56.5972871%" id="linearGradient-52">
            <stop stop-color="#99C8F2" stop-opacity="0" offset="0%"></stop>
            <stop stop-color="#99C8F2" offset="100%"></stop>
        </linearGradient>
        <linearGradient x1="24.8253324%" y1="80.9755287%" x2="107.459995%" y2="27.4779634%" id="linearGradient-53">
            <stop stop-color="#83A6FF" offset="0%"></stop>
            <stop stop-color="#5A78FF" offset="100%"></stop>
        </linearGradient>
        <linearGradient x1="44.0742191%" y1="80.2322984%" x2="55.2396379%" y2="22.4704043%" id="linearGradient-54">
            <stop stop-color="#83A6FF" offset="0%"></stop>
            <stop stop-color="#5A78FF" offset="100%"></stop>
        </linearGradient>
    </defs>
    <g id="desktop" stroke="none" stroke-width="1" fill="none" fill-rule="evenodd">
        <g id="finpower-landing-page" transform="translate(-240.000000, -2139.000000)">
            <g id="Group-19-Copy-2" transform="translate(0.000000, 2091.000000)">
                <g id="Bottom_banner_artwork" transform="translate(240.000000, 48.000000)">
                    <g id="Group-12" transform="translate(0.000000, 60.000000)" fill-rule="nonzero">
                        <polygon id="Path" fill="url(#linearGradient-1)" points="6.33829535 18.8479673 4.206413e-12 6.99915805 6.59201686 0 17.2388355 4.57685831 9.12686076 19.9239836"></polygon>
                        <polygon id="Path" fill="url(#linearGradient-2)" points="0 6.99915805 10.1417468 11.3082752 10.9005401 20.4619918 10.6468186 21 0.761164537 16.6934087"></polygon>
                        <polygon id="Path" fill="#F665AA" points="10.6468186 21 9.88802529 11.8462834 9.88802529 11.0380082 13.942827 7.53969209 14.1965485 7.26942507 17.2388355 4.57685831 17.7462785 10.5 17.7462785 10.770267 18 14.2685831 16.2263206 15.8851335 15.9725991 16.1554005 15.7188776 16.4231417 14.7039916 17.2314169 12.6765907 19.1157084 12.4228692 19.3859755"></polygon>
                    </g>
                    <path d="M111.001065,193 C113.118775,193 115,191.353256 115,189.001072 C115,186.882605 113.353129,185 111.001065,185 C108.883356,185 107,186.646744 107,189.001072 C107,191.117395 108.883356,193 111.001065,193 Z" id="Path" fill="url(#linearGradient-3)" fill-rule="nonzero"></path>
                    <path d="M350,8 C352.250141,8 354,6.2500712 354,4.00113928 C354,1.7499288 352.250141,0 350,0 C347.749859,0 346,1.7499288 346,4.00113928 C346.24901,6.2500712 347.998868,8 350,8 Z" id="Path" fill="url(#linearGradient-4)" fill-rule="nonzero"></path>
                    <g id="Group-14" transform="translate(10.000000, 30.000000)" fill-rule="nonzero">
                        <path d="M29.8606832,0 L29.3542089,0 C28.3412603,0 27.3283117,0.752576466 27.3283117,2.01001614 C27.3283117,3.26745582 28.0880231,4.02239146 29.3542089,4.02239146 L29.8606832,4.02239146 C30.871265,4.02239146 31.8842136,3.26745582 31.8842136,2.01001614 C31.8842136,0.752576466 30.871265,0 29.8606832,0 Z" id="Path" fill="url(#linearGradient-5)"></path>
                        <path d="M21.7618278,0 L21.2553535,0 C20.2447716,0 19.231823,0.752576466 19.231823,2.01001614 C19.231823,3.26745582 19.9915345,4.02239146 21.2553535,4.02239146 L21.7618278,4.02239146 C22.7747764,4.02239146 23.7853583,3.26745582 23.7853583,2.01001614 C23.7853583,0.752576466 22.7747764,0 21.7618278,0 Z" id="Path" fill="url(#linearGradient-6)"></path>
                        <path d="M37.9571718,0 L37.4506975,0 C36.4377489,0 35.427167,0.752576466 35.427167,1.75994371 C35.427167,2.76495178 36.1845118,3.76995985 37.1974603,3.76995985 L37.7039346,3.76995985 C37.7039346,3.76995985 37.7039346,3.76995985 37.9571718,3.76995985 C38.9677537,3.76995985 39.7274651,3.01738339 39.7274651,2.01001614 C39.7274651,1.00500807 38.9677537,0.250072431 37.9571718,0 Z" id="Path" fill="url(#linearGradient-7)"></path>
                        <path d="M55.6695719,24.6439303 C55.6695719,23.6365631 54.9098605,22.631555 53.6460415,22.631555 C52.3798557,22.631555 51.6201443,23.3864906 51.6201443,24.6439303 L51.6201443,25.1464343 C51.6201443,26.1514424 52.3798557,27.1588097 53.6460415,27.1588097 C54.9098605,27.1588097 55.6695719,26.403874 55.6695719,25.1464343 L55.6695719,24.6439303 Z" id="Path" fill="url(#linearGradient-8)"></path>
                        <path d="M52.3798557,8.79971855 L52.1266186,8.29721452 C51.6201443,7.54227888 50.3563252,7.29220645 49.5966138,7.79471048 C48.8369024,8.29721452 48.5836652,9.55465419 49.0901395,10.3095898 L49.3433766,10.8120939 C49.5966138,11.3145979 50.3563252,11.5670295 50.8627995,11.5670295 C51.1160367,11.5670295 51.6201443,11.5670295 51.8733814,11.3145979 C52.88633,10.8120939 53.1395672,9.8070858 52.3798557,8.79971855 Z" id="Path" fill="url(#linearGradient-9)"></path>
                        <path d="M53.6460415,30.6786971 C52.6330929,30.6786971 51.6201443,31.4336327 51.6201443,32.6910724 L51.6201443,33.1935764 C51.6201443,34.1985845 52.3798557,35.2059517 53.6460415,35.2059517 C54.9098605,35.2059517 55.6695719,34.1985845 55.6695719,33.1935764 L55.6695719,32.6910724 C55.6695719,31.4336327 54.6566234,30.6786971 53.6460415,30.6786971 Z" id="Path" fill="url(#linearGradient-10)"></path>
                        <path d="M13.9185763,0 L13.412102,0 C12.3991534,0 11.3862049,0.752576466 11.3862049,2.01001614 C11.3862049,3.26745582 12.1459163,4.02239146 13.412102,4.02239146 L13.9185763,4.02239146 C14.9291582,4.02239146 15.9421068,3.26745582 15.9421068,2.01001614 C15.9421068,0.752576466 14.9291582,0 13.9185763,0 Z" id="Path" fill="url(#linearGradient-11)"></path>
                        <path d="M46.3068976,2.76495178 L45.8004233,2.51252018 C44.7898414,2.01001614 43.7768928,2.26244775 43.2704185,3.26745582 C42.7639442,4.27482306 43.0171813,5.27983113 44.0301299,5.78233517 L44.2833671,6.03476677 C44.5366042,6.2848392 45.0407118,6.2848392 45.293949,6.2848392 C46.0536604,6.2848392 46.5601347,6.03476677 46.8133719,5.27983113 C47.3198462,4.52489549 47.066609,3.26745582 46.3068976,2.76495178 Z" id="Path" fill="url(#linearGradient-12)"></path>
                        <path d="M57.9463396,54.8201233 C57.442232,54.0651877 56.1760462,53.8151153 55.4163348,54.3176193 C54.6566234,54.8201233 54.4057529,56.077563 54.9098605,56.8324987 L55.1630976,57.3350027 C55.4163348,57.8375067 56.1760462,58.0899383 56.6825205,58.0899383 C56.9357577,58.0899383 57.442232,58.0899383 57.6931024,57.8375067 C58.4528139,57.3350027 58.706051,56.077563 58.1995767,55.3226274 L57.9463396,54.8201233 Z" id="Path" fill="url(#linearGradient-13)"></path>
                        <path d="M63.5151901,59.849882 L63.261953,59.5974504 C62.2490044,59.0949464 61.2360558,59.347378 60.7295815,60.0999545 C60.2254739,61.1073217 60.4787111,62.1123298 61.2360558,62.6148338 L61.7425301,62.8672654 C61.9957672,63.119697 62.2490044,63.119697 62.7554787,63.119697 C63.5151901,63.119697 64.0192977,62.8672654 64.525772,62.1123298 C64.7790092,61.6098258 64.2725349,60.3523861 63.5151901,59.849882 Z" id="Path" fill="url(#linearGradient-14)"></path>
                        <path d="M70.0946226,61.8622574 L69.5881483,61.8622574 C68.5751997,61.8622574 67.5622511,62.6148338 67.5622511,63.6222011 C67.5622511,64.6272091 68.3219625,65.6345764 69.3349111,65.6345764 L69.8413854,65.6345764 C69.8413854,65.6345764 69.8413854,65.6345764 70.0946226,65.6345764 C71.1052045,65.6345764 71.8649159,64.8796407 71.8649159,63.8722735 C72.1181531,62.8672654 71.3584416,62.1123298 70.0946226,61.8622574 Z" id="Path" fill="url(#linearGradient-15)"></path>
                        <path d="M53.6460415,19.1116676 C54.9098605,18.859236 55.6695719,18.1043003 55.4163348,17.0992922 L55.4163348,16.5967882 C55.1630976,15.589421 54.4033862,14.8368445 53.1395672,15.0869169 C52.1266186,15.3393485 51.3669071,16.091925 51.6201443,17.3493647 L51.6201443,17.8542279 C51.8733814,18.3567319 52.6330929,19.1116676 53.6460415,19.1116676 Z" id="Path" fill="url(#linearGradient-16)"></path>
                        <path d="M55.6695719,48.532925 L55.6695719,48.0304209 C55.6695719,47.0254129 54.6566234,46.2704772 53.6460415,46.2704772 C52.6330929,46.2704772 51.8733814,47.2754853 51.8733814,48.2804934 C51.8733814,48.532925 51.8733814,48.7853566 51.8733814,48.7853566 C52.1266186,49.7903646 52.88633,50.2928687 53.6460415,50.2928687 L53.8992786,50.2928687 C55.1630976,50.5453003 55.9228091,49.537933 55.6695719,48.532925 Z" id="Path" fill="url(#linearGradient-17)"></path>
                        <path d="M53.6460415,43.0006622 C54.6566234,43.0006622 55.6695719,42.2457266 55.6695719,40.9882869 L55.6695719,40.4857829 C55.6695719,39.4807748 54.9098605,38.4734076 53.6460415,38.4734076 C52.3798557,38.4734076 51.6201443,39.2283432 51.6201443,40.4857829 L51.6201443,40.9882869 C51.8733814,41.9956542 52.6330929,43.0006622 53.6460415,43.0006622 Z" id="Path" fill="url(#linearGradient-18)"></path>
                        <path d="M5.56648385,0 C4.55353526,0 3.54295337,0.752576466 3.54295337,2.01001614 C3.54295337,3.26745582 4.30266482,4.02239146 5.56648385,4.02239146 L5.819721,4.02239146 C6.83266959,4.02239146 7.59238104,3.26745582 7.59238104,2.01001614 C7.59238104,0.752576466 6.57943245,0 5.56648385,0 Z" id="Path" fill="url(#linearGradient-19)"></path>
                        <path d="M101.723232,62.1123298 L93.8799809,62.1123298 L93.3735066,62.1123298 L85.7811255,62.1123298 L85.277018,62.1123298 L77.9378741,62.1123298 L77.4313998,62.1123298 C76.4184512,62.1123298 75.4078693,62.8672654 75.4078693,64.1247051 C75.4078693,65.3821448 76.165214,66.1370804 77.4313998,66.1370804 L77.9378741,66.1370804 L85.277018,66.1370804 L86.0343627,66.1370804 L93.6267437,66.1370804 L94.133218,66.1370804 L101.97647,66.1370804 C102.989418,66.1370804 104,65.3821448 104,64.1247051 C104,62.8672654 102.736181,62.1123298 101.723232,62.1123298 Z" id="Path" fill="url(#linearGradient-20)"></path>
                        <path d="M35.4248003,82.7338686 L34.9206927,82.7338686 C33.9077441,82.7338686 32.8947955,83.4888043 32.8947955,84.7462439 C32.8947955,86.0036836 33.654507,86.7562601 34.9206927,86.7562601 L35.4248003,86.7562601 C36.4377489,86.7562601 37.4506975,86.0036836 37.4506975,84.7462439 C37.4506975,83.4888043 36.4377489,82.7338686 35.4248003,82.7338686 Z" id="Path" fill="url(#linearGradient-21)"></path>
                        <path d="M43.7768928,82.7338686 L43.2704185,82.7338686 C42.2574699,82.7338686 41.246888,83.4888043 41.246888,84.7462439 C41.246888,86.0036836 42.0042328,86.7562601 43.2704185,86.7562601 L43.7768928,86.7562601 C44.7874747,86.7562601 45.8004233,86.0036836 45.8004233,84.7462439 C45.8004233,83.4888043 44.7874747,82.7338686 43.7768928,82.7338686 Z" id="Path" fill="url(#linearGradient-22)"></path>
                        <path d="M27.0750745,82.7338686 L26.5686002,82.7338686 C25.5580183,82.7338686 24.5450697,83.4888043 24.5450697,84.7462439 C24.5450697,86.0036836 25.3047812,86.7562601 26.5686002,86.7562601 L27.0750745,86.7562601 C28.0880231,86.7562601 29.1009717,86.0036836 29.1009717,84.7462439 C29.1009717,83.4888043 28.0880231,82.7338686 27.0750745,82.7338686 Z" id="Path" fill="url(#linearGradient-23)"></path>
                        <path d="M18.7253487,82.7338686 L18.2188745,82.7338686 C17.2059259,82.7338686 16.195344,83.4888043 16.195344,84.7462439 C16.195344,86.0036836 16.9550554,86.7562601 18.2188745,86.7562601 L18.7253487,86.7562601 C19.7382973,86.7562601 20.7488792,86.0036836 20.7488792,84.7462439 C20.7488792,83.4888043 19.7382973,82.7338686 18.7253487,82.7338686 Z" id="Path" fill="url(#linearGradient-24)"></path>
                        <path d="M10.375623,82.7338686 L9.86914867,82.7338686 C8.85620008,82.7338686 7.84325148,83.4888043 7.84325148,84.7462439 C7.84325148,86.0036836 8.60296293,86.7562601 9.86914867,86.7562601 L10.375623,86.7562601 C11.3862049,86.7562601 12.3991534,86.0036836 12.3991534,84.7462439 C12.3991534,83.4888043 11.639442,82.7338686 10.375623,82.7338686 Z" id="Path" fill="url(#linearGradient-25)"></path>
                        <path d="M68.8284368,82.7338686 L68.3219625,82.7338686 C67.3090139,82.7338686 66.2984321,83.4888043 66.2984321,84.7462439 C66.2984321,86.0036836 67.0557768,86.7562601 68.3219625,86.7562601 L68.8284368,86.7562601 C69.8390187,86.7562601 70.8519673,86.0036836 70.8519673,84.7462439 C70.8519673,83.4888043 69.8390187,82.7338686 68.8284368,82.7338686 Z" id="Path" fill="url(#linearGradient-26)"></path>
                        <path d="M52.1266186,82.7338686 L51.6201443,82.7338686 C50.6095624,82.7338686 49.5966138,83.4888043 49.5966138,84.7462439 C49.5966138,86.0036836 50.3563252,86.7562601 51.6201443,86.7562601 L52.1266186,86.7562601 C53.1395672,86.7562601 54.1501491,86.0036836 54.1501491,84.7462439 C54.1501491,83.4888043 53.1395672,82.7338686 52.1266186,82.7338686 Z" id="Path" fill="url(#linearGradient-27)"></path>
                        <path d="M60.4787111,82.7338686 L59.9722368,82.7338686 C58.9592882,82.7338686 57.9463396,83.4888043 57.9463396,84.7462439 C57.9463396,86.0036836 58.706051,86.7562601 59.9722368,86.7562601 L60.4787111,86.7562601 C61.4892929,86.7562601 62.5022415,86.0036836 62.5022415,84.7462439 C62.5022415,83.4888043 61.4892929,82.7338686 60.4787111,82.7338686 Z" id="Path" fill="url(#linearGradient-28)"></path>
                        <path d="M2.27676763,82.7338686 L2.02353048,82.7338686 C1.01294859,82.7338686 0,83.4888043 0,84.7462439 C0,86.0036836 0.759711444,86.7562601 2.02353048,86.7562601 L2.27676763,86.7562601 C3.28971622,86.7562601 4.30266482,86.0036836 4.30266482,84.7462439 C4.30266482,83.4888043 3.28971622,82.7338686 2.27676763,82.7338686 Z" id="Path" fill="url(#linearGradient-29)"></path>
                        <path d="M101.723232,82.7338686 L93.6267437,82.7338686 L93.1202694,82.7338686 L85.2746513,82.7338686 L84.7705437,82.7338686 L77.6846369,82.7338686 L77.4313998,82.7338686 L77.1781626,82.7338686 L76.6716883,82.7338686 C75.6611064,82.7338686 74.6481578,83.4888043 74.6481578,84.7462439 C74.6481578,86.0036836 75.4078693,86.7562601 76.6716883,86.7562601 L77.1781626,86.7562601 L77.4313998,86.7562601 L77.6846369,86.7562601 L84.7705437,86.7562601 L85.2746513,86.7562601 L93.1202694,86.7562601 L93.6267437,86.7562601 L101.723232,86.7562601 C102.736181,86.7562601 103.746763,86.0036836 103.746763,84.7462439 C103.746763,83.4888043 102.736181,82.7338686 101.723232,82.7338686 Z" id="Path" fill="url(#linearGradient-30)"></path>
                        <path d="M44.2833671,164.712802 L44.0301299,164.965233 C43.0171813,165.467737 42.7639442,166.725177 43.2704185,167.480113 C43.5236556,167.982617 44.2833671,168.485121 45.0407118,168.485121 C45.293949,168.485121 45.5471861,168.485121 46.0536604,168.235048 L46.5601347,167.982617 C47.5730833,167.480113 47.8263205,166.222673 47.066609,165.467737 C46.3068976,164.462729 45.0407118,163.960225 44.2833671,164.712802 Z" id="Path" fill="url(#linearGradient-31)"></path>
                        <path d="M37.4506975,166.725177 L36.9442232,166.725177 C35.9312746,166.725177 35.1739299,167.732544 35.1739299,168.737552 C35.1739299,169.74256 36.1845118,170.497496 36.9442232,170.497496 L37.4506975,170.497496 C38.4636461,170.497496 39.2209908,169.492488 39.2209908,168.485121 C39.474228,167.480113 38.4636461,166.725177 37.4506975,166.725177 Z" id="Path" fill="url(#linearGradient-32)"></path>
                        <path d="M53.8992786,151.385828 C52.88633,151.133397 51.8733814,151.888332 51.8733814,153.145772 L51.8733814,153.648276 C51.6201443,154.655643 52.3798557,155.660651 53.3928043,155.913083 L53.6460415,155.913083 C54.6566234,155.913083 55.4163348,155.158147 55.4163348,154.403212 L55.4163348,153.900708 C55.6695719,152.643268 54.9098605,151.63826 53.8992786,151.385828 Z" id="Path" fill="url(#linearGradient-33)"></path>
                        <path d="M29.8606832,166.977609 L29.3542089,166.977609 C28.3412603,166.977609 27.3283117,167.732544 27.3283117,168.989984 C27.3283117,170.247424 28.0880231,171 29.3542089,171 L29.8606832,171 C30.871265,171 31.8842136,170.247424 31.8842136,168.989984 C31.8842136,167.732544 30.871265,166.977609 29.8606832,166.977609 Z" id="Path" fill="url(#linearGradient-34)"></path>
                        <path d="M53.6460415,143.591118 C52.6330929,143.591118 51.6201443,144.343694 51.6201443,145.601134 L51.6201443,146.105997 C51.6201443,147.111005 52.3798557,148.116013 53.6460415,148.116013 C54.9098605,148.116013 55.6695719,147.363437 55.6695719,146.105997 L55.6695719,145.601134 C55.6695719,144.343694 54.6566234,143.591118 53.6460415,143.591118 Z" id="Path" fill="url(#linearGradient-35)"></path>
                        <path d="M13.9185763,166.977609 L13.412102,166.977609 C12.3991534,166.977609 11.3862049,167.732544 11.3862049,168.989984 C11.3862049,170.247424 12.1459163,171 13.412102,171 L13.9185763,171 C14.9291582,171 15.9421068,170.247424 15.9421068,168.989984 C15.9421068,167.732544 14.9291582,166.977609 13.9185763,166.977609 Z" id="Path" fill="url(#linearGradient-36)"></path>
                        <path d="M21.7618278,166.977609 L21.2553535,166.977609 C20.2447716,166.977609 19.231823,167.732544 19.231823,168.989984 C19.231823,170.247424 19.9915345,171 21.2553535,171 L21.7618278,171 C22.7747764,171 23.7853583,170.247424 23.7853583,168.989984 C23.7853583,167.732544 22.7747764,166.977609 21.7618278,166.977609 Z" id="Path" fill="url(#linearGradient-37)"></path>
                        <path d="M51.8733814,159.180539 C51.1160367,158.678035 49.8498509,158.930466 49.3433766,159.685402 L49.0901395,160.187906 C48.5836652,160.942842 48.8369024,162.200281 49.5966138,162.702785 C49.8498509,162.952858 50.3563252,162.952858 50.6095624,162.952858 C51.1160367,162.952858 51.8733814,162.702785 52.1266186,162.200281 L52.3798557,161.695418 C53.1395672,160.942842 52.88633,159.685402 51.8733814,159.180539 Z" id="Path" fill="url(#linearGradient-38)"></path>
                        <path d="M61.4892929,107.377799 L60.9828187,107.630231 C59.9722368,108.132735 59.7189996,109.390174 60.4787111,110.14511 C60.7295815,110.647614 61.4892929,111.150118 61.9957672,111.150118 C62.2490044,111.150118 62.7554787,111.150118 63.0087158,110.897686 L63.261953,110.647614 C64.2725349,110.14511 64.525772,108.88767 64.0192977,108.132735 C63.5151901,107.377799 62.5022415,106.875295 61.4892929,107.377799 Z" id="Path" fill="url(#linearGradient-39)"></path>
                        <path d="M69.8413854,104.86292 L69.3349111,104.86292 C68.3219625,104.86292 67.5622511,105.870287 67.5622511,106.875295 C67.5622511,107.880303 68.5751997,108.635239 69.3349111,108.635239 L69.5881483,108.635239 L70.0946226,108.635239 C71.1052045,108.635239 71.8649159,107.630231 71.8649159,106.622863 C71.8649159,105.617855 70.8519673,104.86292 69.8413854,104.86292 Z" id="Path" fill="url(#linearGradient-40)"></path>
                        <path d="M55.1630976,113.412566 L54.9098605,113.917429 C54.4057529,114.670005 54.6566234,115.927445 55.4163348,116.429949 C55.6695719,116.682381 56.1760462,116.682381 56.4292834,116.682381 C56.9357577,116.682381 57.6931024,116.429949 57.9463396,115.927445 L58.1995767,115.677373 C58.706051,114.922437 58.4528139,113.664997 57.6931024,113.162493 C56.9357577,112.155126 55.6695719,112.407558 55.1630976,113.412566 Z" id="Path" fill="url(#linearGradient-41)"></path>
                        <path d="M53.6460415,135.543976 C52.6330929,135.543976 51.6201443,136.296552 51.6201443,137.553992 L51.6201443,138.058855 C51.6201443,139.063863 52.3798557,140.068871 53.6460415,140.068871 C54.9098605,140.068871 55.6695719,139.313936 55.6695719,138.058855 L55.6695719,137.553992 C55.6695719,136.548984 54.6566234,135.543976 53.6460415,135.543976 Z" id="Path" fill="url(#linearGradient-42)"></path>
                        <path d="M53.6460415,127.746906 C52.6330929,127.746906 51.6201443,128.501842 51.6201443,129.759281 L51.6201443,130.261786 C51.6201443,131.269153 52.3798557,132.274161 53.6460415,132.274161 C54.9098605,132.274161 55.6695719,131.519225 55.6695719,130.261786 L55.6695719,129.759281 C55.6695719,128.501842 54.6566234,127.746906 53.6460415,127.746906 Z" id="Path" fill="url(#linearGradient-43)"></path>
                        <path d="M54.1501491,119.952196 C53.1395672,119.699764 52.1266186,120.4547 51.8733814,121.459708 C51.8733814,121.712139 51.8733814,121.962212 51.8733814,121.962212 C51.8733814,122.969579 52.6330929,123.974587 53.6460415,123.974587 L53.8992786,123.974587 C54.9098605,123.974587 55.6695719,123.219652 55.6695719,122.214643 L55.6695719,121.712139 C55.9228091,120.957204 55.1630976,119.952196 54.1501491,119.952196 Z" id="Path" fill="url(#linearGradient-44)"></path>
                        <path d="M5.56648385,166.977609 C4.55590196,166.977609 3.54295337,167.732544 3.54295337,168.989984 C3.54295337,170.247424 4.30266482,171 5.56648385,171 L5.819721,171 C6.83266959,171 7.59238104,170.247424 7.59238104,168.989984 C7.59238104,167.732544 6.57943245,166.977609 5.56648385,166.977609 Z" id="Path" fill="url(#linearGradient-45)"></path>
                        <path d="M101.723232,104.86292 L93.8799809,104.86292 L93.3735066,104.86292 L85.7811255,104.86292 L85.2746513,104.86292 L77.6846369,104.86292 L77.4313998,104.86292 L77.1781626,104.86292 C76.165214,104.86292 75.1546321,105.617855 75.1546321,106.875295 C75.1546321,108.132735 75.9143436,108.88767 77.1781626,108.88767 L77.4313998,108.88767 L77.6846369,108.88767 L85.2746513,108.88767 L86.0343627,108.88767 L93.6267437,108.88767 L94.133218,108.88767 L101.97647,108.88767 C102.989418,108.88767 104,108.132735 104,106.875295 C104,105.617855 102.736181,104.86292 101.723232,104.86292 Z" id="Path" fill="url(#linearGradient-46)"></path>
                    </g>
                    <g id="mobile" transform="translate(111.000000, 8.000000)">
                        <ellipse id="Oval" stroke="url(#linearGradient-47)" fill-opacity="0.05" fill="#FFFFFF" cx="74.5" cy="104" rx="74" ry="73.5"></ellipse>
                        <path d="M115.660744,2 L41.3993991,2 C35.2185581,2 30.20575,6.96338824 30.20575,13.0832941 L30.20575,182.916706 C30.20575,189.036612 35.2185581,194 41.3993991,194 L115.660744,194 C121.841585,194 126.854399,189.036612 126.854399,182.916706 L126.854399,13.0832941 C126.860477,6.96338824 121.847669,2 115.660744,2 Z" id="Path" fill="#FFFFFF" fill-rule="nonzero" opacity="0.15"></path>
                        <path d="M114.264771,188 L40.7818644,188 C36.0528705,188 32.2192635,184.20639 32.2192635,179.526734 L32.2192635,10.473266 C32.2192635,5.79361042 36.0528705,2 40.7818644,2 L114.264771,2 C118.993765,2 122.827372,5.79361042 122.827372,10.473266 L122.827372,179.526734 C122.827372,184.20639 118.993765,188 114.264771,188 L114.264771,188 Z" id="Path" fill="#FFFCF8" fill-rule="nonzero"></path>
                        <path d="M113.647226,0.00602334044 L39.3858849,0.00602334044 C33.2050443,0.00602334044 28.1922365,4.96925587 28.1922365,11.0889698 L28.1922365,180.917054 C28.1922365,187.036767 33.2050443,192 39.3858849,192 L113.647226,192 C119.828066,192 124.84088,187.036767 124.84088,180.917054 L124.84088,11.0829464 C124.846958,4.96323253 119.840233,0 113.659393,0 L113.647226,0.00602334044 Z M121.543615,179.483499 C121.543615,184.422638 117.504168,188.416112 112.521777,188.416112 L40.5052498,188.416112 C35.516776,188.416112 31.4834125,184.416614 31.4834125,179.483499 L31.4834125,12.3779646 C31.4834125,7.43882545 35.5228595,3.44535073 40.5052498,3.44535073 L53.2197744,3.44535073 L53.2197744,5.46316978 C53.2197744,8.34232652 55.5801742,10.6793826 58.4880894,10.6793826 L94.5267706,10.6793826 C97.4346858,10.6793826 99.7950856,8.34232652 99.7950856,5.46316978 L99.7950856,3.44535073 L112.50961,3.44535073 C117.498084,3.44535073 121.531448,7.44484879 121.531448,12.3779646 L121.531448,179.483499 L121.543615,179.483499 Z" id="Shape" fill="#1C3754" fill-rule="nonzero"></path>
                        <path d="M43.9325514,20 L111.114084,20 C113.135023,20 114.773318,21.6382948 114.773318,23.6592338 L114.773318,54.3407662 C114.773318,56.3617052 113.135023,58 111.114084,58 L43.9325514,58 C41.9116124,58 40.2733176,56.3617052 40.2733176,54.3407662 L40.2733176,23.6592338 C40.2733176,21.6382948 41.9116124,20 43.9325514,20 Z" id="Path" fill="#CEE4D0" fill-rule="nonzero"></path>
                        <path d="M43.9286253,20 L110.571375,20 C112.741095,20 114.5,21.7589055 114.5,23.9286253 L114.5,54.0713747 C114.5,56.2410945 112.741095,58 110.571375,58 L43.9286253,58 C41.7589055,58 40,56.2410945 40,54.0713747 L40,23.9286253 C40,21.7589055 41.7589055,20 43.9286253,20 Z" id="Path" fill="#6B84FF" fill-rule="nonzero"></path>
                        <g id="`" fill-rule="nonzero">
                            <use fill="#FFFFFF" xlink:href="#path-48"></use>
                            <use fill="black" fill-opacity="1" filter="url(#filter-49)" xlink:href="#path-48"></use>
                        </g>
                        <path d="M44.2733176,106 L110.773318,106 C112.982457,106 114.773318,107.790861 114.773318,110 L114.773318,154 C114.773318,156.209139 112.982457,158 110.773318,158 L44.2733176,158 C42.0641786,158 40.2733176,156.209139 40.2733176,154 L40.2733176,110 C40.2733176,107.790861 42.0641786,106 44.2733176,106 Z" id="Shape" fill="url(#linearGradient-50)" fill-rule="nonzero"></path>
                        <g id="Group_25" transform="translate(78.530074, 89.000000) scale(-1, -1) translate(-78.530074, -89.000000) translate(40.273318, 80.000000)" fill-rule="nonzero">
                            <g id="Group" fill="url(#linearGradient-51)">
                                <rect id="Rectangle-41" x="0" y="0" width="76.5135135" height="18" rx="2.13615277"></rect>
                            </g>
                            <rect id="Rectangle-42" fill-opacity="0.6" fill="#FFFFFF" x="5.3226792" y="3.85714286" width="7.3186839" height="5.78571429" rx="1.06807638"></rect>
                            <rect id="Rectangle-43" fill-opacity="0.6" fill="#FFFFFF" x="66.53349" y="3.85714286" width="4.6573443" height="4.5" rx="0.534038192"></rect>
                            <g id="Group" transform="translate(66.533490, 10.285714)" fill="#FFFFFF" fill-opacity="0.6">
                                <rect id="Rectangle-44" x="0" y="0" width="4.6573443" height="4.5" rx="0.534038192"></rect>
                            </g>
                            <rect id="Rectangle-45" fill-opacity="0.6" fill="#FFFFFF" x="17.2987074" y="4.5" width="45.2427732" height="3.21428571" rx="0.534038192"></rect>
                        </g>
                        <polygon id="Shape" fill="#FFFFFF" fill-rule="nonzero" points="39.3967017 116.691324 114.773318 116.691324 114.773318 123.273081 39.3967017 123.273081"></polygon>
                        <polygon id="Path" fill="#E3EFF9" fill-rule="nonzero" points="42.2868311 62 76.5165608 62 76.5165608 66 42.2868311 66"></polygon>
                        <polygon id="Path" fill="#E3EFF9" fill-rule="nonzero" points="42.2868311 68 76.5165608 68 76.5165608 72 42.2868311 72"></polygon>
                        <g id="amount" transform="translate(92.853022, 62.000000)" fill="url(#linearGradient-52)" fill-rule="nonzero">
                            <g id="Input">
                                <rect id="Tab" x="0" y="0" width="22.5723085" height="9.72985587" rx="0.709992524"></rect>
                            </g>
                        </g>
                    </g>
                    <g id="Group-14" transform="translate(307.000000, 115.500000) scale(-1, 1) translate(-307.000000, -115.500000) translate(255.000000, 30.000000)" fill-rule="nonzero">
                        <path d="M29.8606832,0 L29.3542089,0 C28.3412603,0 27.3283117,0.752576466 27.3283117,2.01001614 C27.3283117,3.26745582 28.0880231,4.02239146 29.3542089,4.02239146 L29.8606832,4.02239146 C30.871265,4.02239146 31.8842136,3.26745582 31.8842136,2.01001614 C31.8842136,0.752576466 30.871265,0 29.8606832,0 Z" id="Path" fill="url(#linearGradient-5)"></path>
                        <path d="M21.7618278,0 L21.2553535,0 C20.2447716,0 19.231823,0.752576466 19.231823,2.01001614 C19.231823,3.26745582 19.9915345,4.02239146 21.2553535,4.02239146 L21.7618278,4.02239146 C22.7747764,4.02239146 23.7853583,3.26745582 23.7853583,2.01001614 C23.7853583,0.752576466 22.7747764,0 21.7618278,0 Z" id="Path" fill="url(#linearGradient-6)"></path>
                        <path d="M37.9571718,0 L37.4506975,0 C36.4377489,0 35.427167,0.752576466 35.427167,1.75994371 C35.427167,2.76495178 36.1845118,3.76995985 37.1974603,3.76995985 L37.7039346,3.76995985 C37.7039346,3.76995985 37.7039346,3.76995985 37.9571718,3.76995985 C38.9677537,3.76995985 39.7274651,3.01738339 39.7274651,2.01001614 C39.7274651,1.00500807 38.9677537,0.250072431 37.9571718,0 Z" id="Path" fill="url(#linearGradient-7)"></path>
                        <path d="M55.6695719,24.6439303 C55.6695719,23.6365631 54.9098605,22.631555 53.6460415,22.631555 C52.3798557,22.631555 51.6201443,23.3864906 51.6201443,24.6439303 L51.6201443,25.1464343 C51.6201443,26.1514424 52.3798557,27.1588097 53.6460415,27.1588097 C54.9098605,27.1588097 55.6695719,26.403874 55.6695719,25.1464343 L55.6695719,24.6439303 Z" id="Path" fill="url(#linearGradient-8)"></path>
                        <path d="M52.3798557,8.79971855 L52.1266186,8.29721452 C51.6201443,7.54227888 50.3563252,7.29220645 49.5966138,7.79471048 C48.8369024,8.29721452 48.5836652,9.55465419 49.0901395,10.3095898 L49.3433766,10.8120939 C49.5966138,11.3145979 50.3563252,11.5670295 50.8627995,11.5670295 C51.1160367,11.5670295 51.6201443,11.5670295 51.8733814,11.3145979 C52.88633,10.8120939 53.1395672,9.8070858 52.3798557,8.79971855 Z" id="Path" fill="url(#linearGradient-9)"></path>
                        <path d="M53.6460415,30.6786971 C52.6330929,30.6786971 51.6201443,31.4336327 51.6201443,32.6910724 L51.6201443,33.1935764 C51.6201443,34.1985845 52.3798557,35.2059517 53.6460415,35.2059517 C54.9098605,35.2059517 55.6695719,34.1985845 55.6695719,33.1935764 L55.6695719,32.6910724 C55.6695719,31.4336327 54.6566234,30.6786971 53.6460415,30.6786971 Z" id="Path" fill="url(#linearGradient-10)"></path>
                        <path d="M13.9185763,0 L13.412102,0 C12.3991534,0 11.3862049,0.752576466 11.3862049,2.01001614 C11.3862049,3.26745582 12.1459163,4.02239146 13.412102,4.02239146 L13.9185763,4.02239146 C14.9291582,4.02239146 15.9421068,3.26745582 15.9421068,2.01001614 C15.9421068,0.752576466 14.9291582,0 13.9185763,0 Z" id="Path" fill="url(#linearGradient-11)"></path>
                        <path d="M46.3068976,2.76495178 L45.8004233,2.51252018 C44.7898414,2.01001614 43.7768928,2.26244775 43.2704185,3.26745582 C42.7639442,4.27482306 43.0171813,5.27983113 44.0301299,5.78233517 L44.2833671,6.03476677 C44.5366042,6.2848392 45.0407118,6.2848392 45.293949,6.2848392 C46.0536604,6.2848392 46.5601347,6.03476677 46.8133719,5.27983113 C47.3198462,4.52489549 47.066609,3.26745582 46.3068976,2.76495178 Z" id="Path" fill="url(#linearGradient-12)"></path>
                        <path d="M57.9463396,54.8201233 C57.442232,54.0651877 56.1760462,53.8151153 55.4163348,54.3176193 C54.6566234,54.8201233 54.4057529,56.077563 54.9098605,56.8324987 L55.1630976,57.3350027 C55.4163348,57.8375067 56.1760462,58.0899383 56.6825205,58.0899383 C56.9357577,58.0899383 57.442232,58.0899383 57.6931024,57.8375067 C58.4528139,57.3350027 58.706051,56.077563 58.1995767,55.3226274 L57.9463396,54.8201233 Z" id="Path" fill="url(#linearGradient-13)"></path>
                        <path d="M63.5151901,59.849882 L63.261953,59.5974504 C62.2490044,59.0949464 61.2360558,59.347378 60.7295815,60.0999545 C60.2254739,61.1073217 60.4787111,62.1123298 61.2360558,62.6148338 L61.7425301,62.8672654 C61.9957672,63.119697 62.2490044,63.119697 62.7554787,63.119697 C63.5151901,63.119697 64.0192977,62.8672654 64.525772,62.1123298 C64.7790092,61.6098258 64.2725349,60.3523861 63.5151901,59.849882 Z" id="Path" fill="url(#linearGradient-14)"></path>
                        <path d="M70.0946226,61.8622574 L69.5881483,61.8622574 C68.5751997,61.8622574 67.5622511,62.6148338 67.5622511,63.6222011 C67.5622511,64.6272091 68.3219625,65.6345764 69.3349111,65.6345764 L69.8413854,65.6345764 C69.8413854,65.6345764 69.8413854,65.6345764 70.0946226,65.6345764 C71.1052045,65.6345764 71.8649159,64.8796407 71.8649159,63.8722735 C72.1181531,62.8672654 71.3584416,62.1123298 70.0946226,61.8622574 Z" id="Path" fill="url(#linearGradient-15)"></path>
                        <path d="M53.6460415,19.1116676 C54.9098605,18.859236 55.6695719,18.1043003 55.4163348,17.0992922 L55.4163348,16.5967882 C55.1630976,15.589421 54.4033862,14.8368445 53.1395672,15.0869169 C52.1266186,15.3393485 51.3669071,16.091925 51.6201443,17.3493647 L51.6201443,17.8542279 C51.8733814,18.3567319 52.6330929,19.1116676 53.6460415,19.1116676 Z" id="Path" fill="url(#linearGradient-16)"></path>
                        <path d="M55.6695719,48.532925 L55.6695719,48.0304209 C55.6695719,47.0254129 54.6566234,46.2704772 53.6460415,46.2704772 C52.6330929,46.2704772 51.8733814,47.2754853 51.8733814,48.2804934 C51.8733814,48.532925 51.8733814,48.7853566 51.8733814,48.7853566 C52.1266186,49.7903646 52.88633,50.2928687 53.6460415,50.2928687 L53.8992786,50.2928687 C55.1630976,50.5453003 55.9228091,49.537933 55.6695719,48.532925 Z" id="Path" fill="url(#linearGradient-17)"></path>
                        <path d="M53.6460415,43.0006622 C54.6566234,43.0006622 55.6695719,42.2457266 55.6695719,40.9882869 L55.6695719,40.4857829 C55.6695719,39.4807748 54.9098605,38.4734076 53.6460415,38.4734076 C52.3798557,38.4734076 51.6201443,39.2283432 51.6201443,40.4857829 L51.6201443,40.9882869 C51.8733814,41.9956542 52.6330929,43.0006622 53.6460415,43.0006622 Z" id="Path" fill="url(#linearGradient-18)"></path>
                        <path d="M5.56648385,0 C4.55353526,0 3.54295337,0.752576466 3.54295337,2.01001614 C3.54295337,3.26745582 4.30266482,4.02239146 5.56648385,4.02239146 L5.819721,4.02239146 C6.83266959,4.02239146 7.59238104,3.26745582 7.59238104,2.01001614 C7.59238104,0.752576466 6.57943245,0 5.56648385,0 Z" id="Path" fill="url(#linearGradient-19)"></path>
                        <path d="M101.723232,62.1123298 L93.8799809,62.1123298 L93.3735066,62.1123298 L85.7811255,62.1123298 L85.277018,62.1123298 L77.9378741,62.1123298 L77.4313998,62.1123298 C76.4184512,62.1123298 75.4078693,62.8672654 75.4078693,64.1247051 C75.4078693,65.3821448 76.165214,66.1370804 77.4313998,66.1370804 L77.9378741,66.1370804 L85.277018,66.1370804 L86.0343627,66.1370804 L93.6267437,66.1370804 L94.133218,66.1370804 L101.97647,66.1370804 C102.989418,66.1370804 104,65.3821448 104,64.1247051 C104,62.8672654 102.736181,62.1123298 101.723232,62.1123298 Z" id="Path" fill="url(#linearGradient-20)"></path>
                        <path d="M35.4248003,82.7338686 L34.9206927,82.7338686 C33.9077441,82.7338686 32.8947955,83.4888043 32.8947955,84.7462439 C32.8947955,86.0036836 33.654507,86.7562601 34.9206927,86.7562601 L35.4248003,86.7562601 C36.4377489,86.7562601 37.4506975,86.0036836 37.4506975,84.7462439 C37.4506975,83.4888043 36.4377489,82.7338686 35.4248003,82.7338686 Z" id="Path" fill="url(#linearGradient-21)"></path>
                        <path d="M43.7768928,82.7338686 L43.2704185,82.7338686 C42.2574699,82.7338686 41.246888,83.4888043 41.246888,84.7462439 C41.246888,86.0036836 42.0042328,86.7562601 43.2704185,86.7562601 L43.7768928,86.7562601 C44.7874747,86.7562601 45.8004233,86.0036836 45.8004233,84.7462439 C45.8004233,83.4888043 44.7874747,82.7338686 43.7768928,82.7338686 Z" id="Path" fill="url(#linearGradient-22)"></path>
                        <path d="M27.0750745,82.7338686 L26.5686002,82.7338686 C25.5580183,82.7338686 24.5450697,83.4888043 24.5450697,84.7462439 C24.5450697,86.0036836 25.3047812,86.7562601 26.5686002,86.7562601 L27.0750745,86.7562601 C28.0880231,86.7562601 29.1009717,86.0036836 29.1009717,84.7462439 C29.1009717,83.4888043 28.0880231,82.7338686 27.0750745,82.7338686 Z" id="Path" fill="url(#linearGradient-23)"></path>
                        <path d="M18.7253487,82.7338686 L18.2188745,82.7338686 C17.2059259,82.7338686 16.195344,83.4888043 16.195344,84.7462439 C16.195344,86.0036836 16.9550554,86.7562601 18.2188745,86.7562601 L18.7253487,86.7562601 C19.7382973,86.7562601 20.7488792,86.0036836 20.7488792,84.7462439 C20.7488792,83.4888043 19.7382973,82.7338686 18.7253487,82.7338686 Z" id="Path" fill="url(#linearGradient-24)"></path>
                        <path d="M10.375623,82.7338686 L9.86914867,82.7338686 C8.85620008,82.7338686 7.84325148,83.4888043 7.84325148,84.7462439 C7.84325148,86.0036836 8.60296293,86.7562601 9.86914867,86.7562601 L10.375623,86.7562601 C11.3862049,86.7562601 12.3991534,86.0036836 12.3991534,84.7462439 C12.3991534,83.4888043 11.639442,82.7338686 10.375623,82.7338686 Z" id="Path" fill="url(#linearGradient-25)"></path>
                        <path d="M68.8284368,82.7338686 L68.3219625,82.7338686 C67.3090139,82.7338686 66.2984321,83.4888043 66.2984321,84.7462439 C66.2984321,86.0036836 67.0557768,86.7562601 68.3219625,86.7562601 L68.8284368,86.7562601 C69.8390187,86.7562601 70.8519673,86.0036836 70.8519673,84.7462439 C70.8519673,83.4888043 69.8390187,82.7338686 68.8284368,82.7338686 Z" id="Path" fill="url(#linearGradient-26)"></path>
                        <path d="M52.1266186,82.7338686 L51.6201443,82.7338686 C50.6095624,82.7338686 49.5966138,83.4888043 49.5966138,84.7462439 C49.5966138,86.0036836 50.3563252,86.7562601 51.6201443,86.7562601 L52.1266186,86.7562601 C53.1395672,86.7562601 54.1501491,86.0036836 54.1501491,84.7462439 C54.1501491,83.4888043 53.1395672,82.7338686 52.1266186,82.7338686 Z" id="Path" fill="url(#linearGradient-27)"></path>
                        <path d="M60.4787111,82.7338686 L59.9722368,82.7338686 C58.9592882,82.7338686 57.9463396,83.4888043 57.9463396,84.7462439 C57.9463396,86.0036836 58.706051,86.7562601 59.9722368,86.7562601 L60.4787111,86.7562601 C61.4892929,86.7562601 62.5022415,86.0036836 62.5022415,84.7462439 C62.5022415,83.4888043 61.4892929,82.7338686 60.4787111,82.7338686 Z" id="Path" fill="url(#linearGradient-28)"></path>
                        <path d="M2.27676763,82.7338686 L2.02353048,82.7338686 C1.01294859,82.7338686 0,83.4888043 0,84.7462439 C0,86.0036836 0.759711444,86.7562601 2.02353048,86.7562601 L2.27676763,86.7562601 C3.28971622,86.7562601 4.30266482,86.0036836 4.30266482,84.7462439 C4.30266482,83.4888043 3.28971622,82.7338686 2.27676763,82.7338686 Z" id="Path" fill="url(#linearGradient-29)"></path>
                        <path d="M101.723232,82.7338686 L93.6267437,82.7338686 L93.1202694,82.7338686 L85.2746513,82.7338686 L84.7705437,82.7338686 L77.6846369,82.7338686 L77.4313998,82.7338686 L77.1781626,82.7338686 L76.6716883,82.7338686 C75.6611064,82.7338686 74.6481578,83.4888043 74.6481578,84.7462439 C74.6481578,86.0036836 75.4078693,86.7562601 76.6716883,86.7562601 L77.1781626,86.7562601 L77.4313998,86.7562601 L77.6846369,86.7562601 L84.7705437,86.7562601 L85.2746513,86.7562601 L93.1202694,86.7562601 L93.6267437,86.7562601 L101.723232,86.7562601 C102.736181,86.7562601 103.746763,86.0036836 103.746763,84.7462439 C103.746763,83.4888043 102.736181,82.7338686 101.723232,82.7338686 Z" id="Path" fill="url(#linearGradient-30)"></path>
                        <path d="M44.2833671,164.712802 L44.0301299,164.965233 C43.0171813,165.467737 42.7639442,166.725177 43.2704185,167.480113 C43.5236556,167.982617 44.2833671,168.485121 45.0407118,168.485121 C45.293949,168.485121 45.5471861,168.485121 46.0536604,168.235048 L46.5601347,167.982617 C47.5730833,167.480113 47.8263205,166.222673 47.066609,165.467737 C46.3068976,164.462729 45.0407118,163.960225 44.2833671,164.712802 Z" id="Path" fill="url(#linearGradient-31)"></path>
                        <path d="M37.4506975,166.725177 L36.9442232,166.725177 C35.9312746,166.725177 35.1739299,167.732544 35.1739299,168.737552 C35.1739299,169.74256 36.1845118,170.497496 36.9442232,170.497496 L37.4506975,170.497496 C38.4636461,170.497496 39.2209908,169.492488 39.2209908,168.485121 C39.474228,167.480113 38.4636461,166.725177 37.4506975,166.725177 Z" id="Path" fill="url(#linearGradient-32)"></path>
                        <path d="M53.8992786,151.385828 C52.88633,151.133397 51.8733814,151.888332 51.8733814,153.145772 L51.8733814,153.648276 C51.6201443,154.655643 52.3798557,155.660651 53.3928043,155.913083 L53.6460415,155.913083 C54.6566234,155.913083 55.4163348,155.158147 55.4163348,154.403212 L55.4163348,153.900708 C55.6695719,152.643268 54.9098605,151.63826 53.8992786,151.385828 Z" id="Path" fill="url(#linearGradient-33)"></path>
                        <path d="M29.8606832,166.977609 L29.3542089,166.977609 C28.3412603,166.977609 27.3283117,167.732544 27.3283117,168.989984 C27.3283117,170.247424 28.0880231,171 29.3542089,171 L29.8606832,171 C30.871265,171 31.8842136,170.247424 31.8842136,168.989984 C31.8842136,167.732544 30.871265,166.977609 29.8606832,166.977609 Z" id="Path" fill="url(#linearGradient-34)"></path>
                        <path d="M53.6460415,143.591118 C52.6330929,143.591118 51.6201443,144.343694 51.6201443,145.601134 L51.6201443,146.105997 C51.6201443,147.111005 52.3798557,148.116013 53.6460415,148.116013 C54.9098605,148.116013 55.6695719,147.363437 55.6695719,146.105997 L55.6695719,145.601134 C55.6695719,144.343694 54.6566234,143.591118 53.6460415,143.591118 Z" id="Path" fill="url(#linearGradient-35)"></path>
                        <path d="M13.9185763,166.977609 L13.412102,166.977609 C12.3991534,166.977609 11.3862049,167.732544 11.3862049,168.989984 C11.3862049,170.247424 12.1459163,171 13.412102,171 L13.9185763,171 C14.9291582,171 15.9421068,170.247424 15.9421068,168.989984 C15.9421068,167.732544 14.9291582,166.977609 13.9185763,166.977609 Z" id="Path" fill="url(#linearGradient-36)"></path>
                        <path d="M21.7618278,166.977609 L21.2553535,166.977609 C20.2447716,166.977609 19.231823,167.732544 19.231823,168.989984 C19.231823,170.247424 19.9915345,171 21.2553535,171 L21.7618278,171 C22.7747764,171 23.7853583,170.247424 23.7853583,168.989984 C23.7853583,167.732544 22.7747764,166.977609 21.7618278,166.977609 Z" id="Path" fill="url(#linearGradient-37)"></path>
                        <path d="M51.8733814,159.180539 C51.1160367,158.678035 49.8498509,158.930466 49.3433766,159.685402 L49.0901395,160.187906 C48.5836652,160.942842 48.8369024,162.200281 49.5966138,162.702785 C49.8498509,162.952858 50.3563252,162.952858 50.6095624,162.952858 C51.1160367,162.952858 51.8733814,162.702785 52.1266186,162.200281 L52.3798557,161.695418 C53.1395672,160.942842 52.88633,159.685402 51.8733814,159.180539 Z" id="Path" fill="url(#linearGradient-38)"></path>
                        <path d="M61.4892929,107.377799 L60.9828187,107.630231 C59.9722368,108.132735 59.7189996,109.390174 60.4787111,110.14511 C60.7295815,110.647614 61.4892929,111.150118 61.9957672,111.150118 C62.2490044,111.150118 62.7554787,111.150118 63.0087158,110.897686 L63.261953,110.647614 C64.2725349,110.14511 64.525772,108.88767 64.0192977,108.132735 C63.5151901,107.377799 62.5022415,106.875295 61.4892929,107.377799 Z" id="Path" fill="url(#linearGradient-39)"></path>
                        <path d="M69.8413854,104.86292 L69.3349111,104.86292 C68.3219625,104.86292 67.5622511,105.870287 67.5622511,106.875295 C67.5622511,107.880303 68.5751997,108.635239 69.3349111,108.635239 L69.5881483,108.635239 L70.0946226,108.635239 C71.1052045,108.635239 71.8649159,107.630231 71.8649159,106.622863 C71.8649159,105.617855 70.8519673,104.86292 69.8413854,104.86292 Z" id="Path" fill="url(#linearGradient-40)"></path>
                        <path d="M55.1630976,113.412566 L54.9098605,113.917429 C54.4057529,114.670005 54.6566234,115.927445 55.4163348,116.429949 C55.6695719,116.682381 56.1760462,116.682381 56.4292834,116.682381 C56.9357577,116.682381 57.6931024,116.429949 57.9463396,115.927445 L58.1995767,115.677373 C58.706051,114.922437 58.4528139,113.664997 57.6931024,113.162493 C56.9357577,112.155126 55.6695719,112.407558 55.1630976,113.412566 Z" id="Path" fill="url(#linearGradient-41)"></path>
                        <path d="M53.6460415,135.543976 C52.6330929,135.543976 51.6201443,136.296552 51.6201443,137.553992 L51.6201443,138.058855 C51.6201443,139.063863 52.3798557,140.068871 53.6460415,140.068871 C54.9098605,140.068871 55.6695719,139.313936 55.6695719,138.058855 L55.6695719,137.553992 C55.6695719,136.548984 54.6566234,135.543976 53.6460415,135.543976 Z" id="Path" fill="url(#linearGradient-42)"></path>
                        <path d="M53.6460415,127.746906 C52.6330929,127.746906 51.6201443,128.501842 51.6201443,129.759281 L51.6201443,130.261786 C51.6201443,131.269153 52.3798557,132.274161 53.6460415,132.274161 C54.9098605,132.274161 55.6695719,131.519225 55.6695719,130.261786 L55.6695719,129.759281 C55.6695719,128.501842 54.6566234,127.746906 53.6460415,127.746906 Z" id="Path" fill="url(#linearGradient-43)"></path>
                        <path d="M54.1501491,119.952196 C53.1395672,119.699764 52.1266186,120.4547 51.8733814,121.459708 C51.8733814,121.712139 51.8733814,121.962212 51.8733814,121.962212 C51.8733814,122.969579 52.6330929,123.974587 53.6460415,123.974587 L53.8992786,123.974587 C54.9098605,123.974587 55.6695719,123.219652 55.6695719,122.214643 L55.6695719,121.712139 C55.9228091,120.957204 55.1630976,119.952196 54.1501491,119.952196 Z" id="Path" fill="url(#linearGradient-44)"></path>
                        <path d="M5.56648385,166.977609 C4.55590196,166.977609 3.54295337,167.732544 3.54295337,168.989984 C3.54295337,170.247424 4.30266482,171 5.56648385,171 L5.819721,171 C6.83266959,171 7.59238104,170.247424 7.59238104,168.989984 C7.59238104,167.732544 6.57943245,166.977609 5.56648385,166.977609 Z" id="Path" fill="url(#linearGradient-45)"></path>
                        <path d="M101.723232,104.86292 L93.8799809,104.86292 L93.3735066,104.86292 L85.7811255,104.86292 L85.2746513,104.86292 L77.6846369,104.86292 L77.4313998,104.86292 L77.1781626,104.86292 C76.165214,104.86292 75.1546321,105.617855 75.1546321,106.875295 C75.1546321,108.132735 75.9143436,108.88767 77.1781626,108.88767 L77.4313998,108.88767 L77.6846369,108.88767 L85.2746513,108.88767 L86.0343627,108.88767 L93.6267437,108.88767 L94.133218,108.88767 L101.97647,108.88767 C102.989418,108.88767 104,108.132735 104,106.875295 C104,105.617855 102.736181,104.86292 101.723232,104.86292 Z" id="Path" fill="url(#linearGradient-46)"></path>
                    </g>
                    <g id="Group-13" transform="translate(335.000000, 148.000000)" fill-rule="nonzero">
                        <polygon id="Path" fill="url(#linearGradient-53)" points="20.1205479 5.07587629 18.4245631 20.3080412 7.51629665 22 0 10.6371134 17.9393481 1.93463918"></polygon>
                        <polygon id="Path" fill="url(#linearGradient-54)" points="18.4245631 20.3080412 11.3934813 9.42824742 16.4859707 0.242680412 16.9689183 0 24 10.8797938"></polygon>
                        <polygon id="Path" fill="#89A7FF" points="16.9711856 0 11.8786963 8.94515464 11.3957487 9.42824742 11.3957487 9.67092784 5.09248937 10.1540206 4.84988191 10.1540206 0 10.6371134 3.39423713 4.83546392 3.63684459 4.35237113 5.57543694 1.20886598 8.48445914 0.966185567 8.7270666 0.725773196 9.21228153 0.725773196 10.6679263 0.725773196 13.819556 0.242680412 14.545111 0.242680412"></polygon>
                    </g>
                </g>
            </g>
        </g>
    </g>
</svg>