<?xml version="1.0" encoding="UTF-8"?>
<svg width="76px" height="80px" viewBox="0 0 76 80" version="1.1" xmlns="http://www.w3.org/2000/svg" xmlns:xlink="http://www.w3.org/1999/xlink">
    <title>9D84E853-26EA-4FC8-9F0E-5E9F6295D982@1x</title>
    <defs>
        <polygon id="path-1" points="44.2879865 0 0 0 0 60.0895522 44.2879865 60.0895522"></polygon>
        <filter x="-39.5%" y="-20.8%" width="179.0%" height="158.2%" filterUnits="objectBoundingBox" id="filter-2">
            <feOffset dx="0" dy="5" in="SourceAlpha" result="shadowOffsetOuter1"></feOffset>
            <feGaussianBlur stdDeviation="5" in="shadowOffsetOuter1" result="shadowBlurOuter1"></feGaussianBlur>
            <feColorMatrix values="0 0 0 0 0.396078431   0 0 0 0 0.478431373   0 0 0 0 0.576470588  0 0 0 0.18 0" type="matrix" in="shadowBlurOuter1"></feColorMatrix>
        </filter>
        <linearGradient x1="0.372003546%" y1="50.6048514%" x2="99.8767144%" y2="50.6048514%" id="linearGradient-3">
            <stop stop-color="#83A6FF" offset="0%"></stop>
            <stop stop-color="#5A78FF" offset="100%"></stop>
        </linearGradient>
        <linearGradient x1="23.7757225%" y1="9.12431108%" x2="78.3030958%" y2="92.4678506%" id="linearGradient-4">
            <stop stop-color="#83A6FF" offset="0%"></stop>
            <stop stop-color="#5A78FF" offset="100%"></stop>
        </linearGradient>
        <path d="M62.7184119,25.9309839 C61.7554968,27.2933001 60.7925817,28.5817962 59.9674198,30.0112215 C58.7982142,31.917122 58.1793428,31.3735377 55.2227389,32.2593788 L57.8359777,32.8700722 C57.904515,32.8700722 57.904515,32.8700722 57.9730523,32.9371814 C58.1108055,33.0713998 58.1793428,33.2794382 58.0422682,33.4136565 C57.6296873,34.02435 57.2171063,34.6417544 56.8045254,35.2524478 C53.7094896,39.3326855 49.1704206,42.124427 44.081696,43.0773772 C43.3942873,43.2115956 42.7747373,43.6880707 42.4999095,44.3054751 C41.8810381,45.526862 41.3307039,46.7549598 40.7118325,47.9763468 C40.505542,48.3857127 40.0929611,48.5199311 39.6803801,48.3186035 C39.2677992,48.1105651 39.130046,47.7079101 39.3363365,47.2985441 C39.6803801,46.5469214 40.0244238,45.8020096 40.3677889,45.1174961 C40.6432952,44.5068026 40.5747579,43.8961091 40.3677889,43.2787048 C40.0244238,42.1915362 39.7489174,41.1043676 39.6803801,39.9500898 C39.6803801,38.8562103 39.8866706,37.7019326 40.1614984,36.614764 C40.6432952,34.8430819 41.3307039,33.1452198 42.3621563,31.6486853 L42.4313722,31.5748652 C42.4999095,31.5748652 42.6376627,31.5748652 42.6376627,31.7157945 C42.7062,31.9842312 42.7747373,32.1922696 42.9124904,32.5278155 C43.0502436,31.8500128 43.2565341,31.1722102 43.4628246,30.4876967 C43.5313619,30.21926 43.7376523,29.9441124 43.9439428,29.6689648 C45.0446111,28.5817962 46.2823539,27.6288459 47.65785,26.8839341 L47.7263873,26.8839341 C47.7956032,26.8839341 47.8641404,26.9510433 47.8641404,27.0181525 C47.8641404,27.4275184 47.8641404,27.9039935 47.8641404,28.3133595 C48.4144746,27.4946276 49.033346,26.816825 49.7207547,26.0652022 C49.9270452,25.8638747 50.2025516,25.6558363 50.4773793,25.5887271 C54.3283611,24.2264109 58.5233865,24.0250834 62.4435841,25.112252 C63.1309928,25.2464704 63.1309928,25.3873996 62.7184119,25.9309839 Z" id="path-5"></path>
        <filter x="-23.1%" y="-14.6%" width="146.3%" height="145.8%" filterUnits="objectBoundingBox" id="filter-6">
            <feOffset dx="0" dy="2" in="SourceAlpha" result="shadowOffsetOuter1"></feOffset>
            <feGaussianBlur stdDeviation="1.5" in="shadowOffsetOuter1" result="shadowBlurOuter1"></feGaussianBlur>
            <feColorMatrix values="0 0 0 0 0.11372549   0 0 0 0 0.294117647   0 0 0 0 1  0 0 0 0.22 0" type="matrix" in="shadowBlurOuter1"></feColorMatrix>
        </filter>
        <circle id="path-7" cx="8.5" cy="8.5" r="8.5"></circle>
        <filter x="-23.7%" y="-17.8%" width="147.5%" height="159.2%" filterUnits="objectBoundingBox" id="filter-8">
            <feMorphology radius="0.46599978" operator="erode" in="SourceAlpha" result="shadowSpreadOuter1"></feMorphology>
            <feOffset dx="0" dy="3" in="shadowSpreadOuter1" result="shadowOffsetOuter1"></feOffset>
            <feGaussianBlur stdDeviation="2" in="shadowOffsetOuter1" result="shadowBlurOuter1"></feGaussianBlur>
            <feComposite in="shadowBlurOuter1" in2="SourceAlpha" operator="out" result="shadowBlurOuter1"></feComposite>
            <feColorMatrix values="0 0 0 0 0   0 0 0 0 0   0 0 0 0 0  0 0 0 0.5 0" type="matrix" in="shadowBlurOuter1"></feColorMatrix>
        </filter>
    </defs>
    <g id="rana-" stroke="none" stroke-width="1" fill="none" fill-rule="evenodd">
        <g id="my-account---otp-not-verified-copy-7" transform="translate(-453.000000, -501.000000)">
            <g id="Group-32-Copy-3" transform="translate(443.000000, 483.000000)">
                <g id="Group-10" transform="translate(-86.000000, -63.000000)">
                    <g transform="translate(101.500000, 100.000000) scale(-1, 1) translate(-101.500000, -100.000000) ">
                        <g id="Group" transform="translate(41.000000, 86.000000)">
                            <g id="Group-19" fill-rule="nonzero">
                                <g id="Path">
                                    <use fill="black" fill-opacity="1" filter="url(#filter-2)" xlink:href="#path-1"></use>
                                    <use fill="#FFFFFF" xlink:href="#path-1"></use>
                                </g>
                                <path d="M5.8453492,17.2202134 C5.57052143,17.2202134 5.29501507,16.9450658 5.29501507,16.6766291 C5.29501507,16.4014815 5.57052143,16.1330448 5.8453492,16.1330448 L38.3734214,16.1330448 C38.6489278,16.1330448 38.9237555,16.4014815 38.9237555,16.6766291 C38.9237555,16.9450658 38.6489278,17.2202134 38.3734214,17.2202134 L5.8453492,17.2202134 Z" id="Path" fill="#DAE1ED"></path>
                                <path d="M5.8453492,21.3004511 C5.57052143,21.3004511 5.29501507,21.0320144 5.29501507,20.7568668 C5.29501507,20.4884301 5.57052143,20.2132825 5.8453492,20.2132825 L38.3734214,20.2132825 C38.6489278,20.2132825 38.9237555,20.4884301 38.9237555,20.7568668 C38.9237555,21.0320144 38.6489278,21.3004511 38.3734214,21.3004511 L5.8453492,21.3004511 Z" id="Path" fill="#DAE1ED"></path>
                                <path d="M5.8453492,25.3873996 C5.57052143,25.3873996 5.29501507,25.112252 5.29501507,24.8371044 C5.29501507,24.5686677 5.57052143,24.2935201 5.8453492,24.2935201 L38.3734214,24.2935201 C38.6489278,24.2935201 38.9237555,24.5686677 38.9237555,24.8371044 C38.9237555,25.112252 38.6489278,25.3873996 38.3734214,25.3873996 L5.8453492,25.3873996 Z" id="Path" fill="#DAE1ED"></path>
                                <path d="M5.8453492,29.5347464 C5.57052143,29.5347464 5.29501507,29.2663097 5.29501507,28.9911621 C5.29501507,28.7160145 5.57052143,28.4475778 5.8453492,28.4475778 L38.3734214,28.4475778 C38.6489278,28.4475778 38.9237555,28.7160145 38.9237555,28.9911621 C38.9237555,29.2663097 38.6489278,29.5347464 38.3734214,29.5347464 L5.8453492,29.5347464 Z" id="Path" fill="#DAE1ED"></path>
                                <path d="M5.8453492,33.614984 C5.57052143,33.614984 5.29501507,33.3465474 5.29501507,33.0713998 C5.29501507,32.8029631 5.57052143,32.5278155 5.8453492,32.5278155 L38.3734214,32.5278155 C38.6489278,32.5278155 38.9237555,32.8029631 38.9237555,33.0713998 C38.9237555,33.3465474 38.6489278,33.614984 38.3734214,33.614984 L5.8453492,33.614984 Z" id="Path" fill="#DAE1ED"></path>
                                <path d="M5.8453492,37.7019326 C5.57052143,37.7019326 5.29501507,37.426785 5.29501507,37.1583483 C5.29501507,36.8832007 5.57052143,36.614764 5.8453492,36.614764 L20.1499651,36.614764 C20.4247928,36.614764 20.6996206,36.8832007 20.6996206,37.1583483 C20.6996206,37.426785 20.4247928,37.7019326 20.1499651,37.7019326 L5.8453492,37.7019326 Z" id="Path" fill="#DAE1ED"></path>
                                <path d="M29.7085428,6.94579926 L14.5102278,6.94579926 C14.1668627,6.94579926 13.8913563,6.67065166 13.8913563,6.32839488 C13.8913563,5.99284902 14.1668627,5.71770142 14.5102278,5.71770142 L29.7085428,5.71770142 C30.0525865,5.71770142 30.3274143,5.99284902 30.3274143,6.32839488 C30.3274143,6.67065166 30.0525865,6.94579926 29.7085428,6.94579926 Z" id="Path" fill="#CED7E2"></path>
                                <path d="M25.8575611,10.1401958 L18.3618881,10.1401958 C18.0178444,10.1401958 17.7430167,9.87175914 17.7430167,9.52950237 C17.7430167,9.18724559 18.0178444,8.9188089 18.3618881,8.9188089 L25.8575611,8.9188089 C26.2016047,8.9188089 26.4764325,9.18724559 26.4764325,9.52950237 C26.4764325,9.87175914 26.2016047,10.1401958 25.8575611,10.1401958 Z" id="Path" fill="#CED7E2"></path>
                                <path d="M35.7601825,50.1573948 C35.6231079,49.2044446 35.553892,48.5199311 34.8664833,48.3186035 C33.765815,48.0434559 33.42245,49.4728813 32.3909976,50.5600499 C32.0469539,50.9023066 31.5651571,51.1774543 31.1525762,51.4458909 C31.0155016,51.5130001 30.7399952,51.6539294 30.6714579,51.3787818 C30.3966301,50.5600499 30.6714579,50.9694158 31.8406635,49.6809197 C32.3909976,49.0635153 32.7343627,48.3186035 32.5972881,47.4327625 C32.5280722,46.8891782 32.1847071,46.4127031 31.634373,46.2046646 C31.0840389,46.0033371 30.5337047,46.0704463 30.1211238,46.5469214 C29.1582087,47.7079101 29.4337151,48.3857127 29.3644992,50.0835748 C29.3644992,50.224504 29.2959619,50.3587224 29.1582087,50.4258315 C28.1959722,50.9694158 27.1645198,51.3116726 25.9953143,51.4458909 C25.9953143,51.3787818 25.9953143,51.3787818 25.9953143,51.3787818 C26.6141857,50.5600499 27.8519286,49.1306245 28.1267563,46.6811398 C28.2645095,45.7281895 28.2645095,44.8490594 27.7833913,43.9632183 C26.8890135,42.3257545 24.4820651,42.533793 23.3820754,44.5068026 C22.2814071,46.6140306 22.4876976,49.8822472 24.0009468,51.7210385 C23.6569032,51.9894752 23.3820754,52.2646228 23.0380317,52.4659503 C22.8317413,52.6068796 22.763204,52.9424255 22.9002786,53.1504639 C23.0380317,53.4189006 23.4506127,53.4860098 23.7254405,53.2846822 C24.8261087,52.3988412 24.7568928,52.4659503 24.894646,52.3988412 C25.1009365,52.331732 25.307227,52.3988412 25.5135174,52.3988412 C26.270142,52.3988412 26.7512603,52.331732 27.3015944,52.2646228 C27.5771008,52.1975137 29.4337151,51.5130001 29.5022524,51.5130001 C29.5022524,51.5130001 29.5022524,51.5868202 29.5714682,51.6539294 C29.7777587,52.3988412 30.1903397,52.6739888 31.0155016,52.6068796 C31.634373,52.5330595 32.1847071,52.2646228 32.6658254,51.8552569 C33.2161595,51.3116726 34.1098587,50.224504 34.5916555,49.6070996 C34.7287301,50.0835748 34.7287301,50.4929407 34.8664833,50.9023066 C35.1413111,51.6539294 35.8979357,51.7881477 36.3797325,51.1774543 C36.9293881,50.5600499 37.1356785,49.7480289 37.75455,49.4057721 C37.9608404,49.338663 38.0985936,49.1306245 38.0985936,48.929297 C38.0985936,48.5199311 37.6860127,48.3186035 37.341969,48.4528219 C36.586023,48.7950787 36.1727635,49.4728813 35.7601825,50.1573948 Z M24.894646,51.1103451 C24.3443119,50.4258315 24.1380214,49.6809197 24.0009468,48.8621878 C23.7254405,47.63409 23.8631936,46.4127031 24.3443119,45.2584253 C24.6198182,44.6410209 24.9638619,44.1645458 25.6512706,44.0303275 C26.3386793,43.8961091 26.8204762,44.0303275 26.9575508,44.7081301 C27.5078849,47.0233965 26.5449698,49.2715538 24.894646,51.1103451 Z M30.6714579,47.5669808 C31.0840389,46.7549598 31.5651571,47.4998716 31.4966198,47.8421284 C31.3588666,48.2514944 31.1525762,48.5870402 30.9462857,48.929297 C30.8092111,49.1306245 30.6714579,49.2715538 30.4651674,49.4728813 C30.3966301,48.7950787 30.3966301,48.1843852 30.6714579,47.5669808 Z" id="Shape" fill="url(#linearGradient-3)"></path>
                                <g id="Path">
                                    <use fill="black" fill-opacity="1" filter="url(#filter-6)" xlink:href="#path-5"></use>
                                    <use fill="url(#linearGradient-4)" xlink:href="#path-5"></use>
                                </g>
                                <path d="M55.5661039,28.9911621 C47.7956032,31.8500128 43.6691151,38.1784077 40.3677889,45.0503869 C40.6432952,44.4396934 40.5740793,43.829 40.3677889,43.2115956 C40.2307143,42.8022296 40.1614984,42.4666838 40.0244238,42.0573178 C40.0929611,42.0573178 40.0929611,41.9902087 40.1614984,41.9902087 C43.5313619,35.6618138 47.7263873,30.21926 55.0164484,27.4946276 C55.4290293,27.3604093 55.8416103,27.5617368 55.9786849,27.9711027 C56.1164381,28.4475778 55.9101476,28.8569438 55.5661039,28.9911621 Z" id="Path" fill="#FFFFFF" opacity="0.3"></path>
                                <path d="M11.5129086,52.9088709 C11.0311117,53.385346 10.343703,53.6604936 9.79336889,53.2511277 C8.96820699,52.6404342 8.69337922,52.4995049 8.14304509,52.4323958 C7.45563637,52.3652866 6.83676494,52.2981774 6.62979588,51.5465547 C6.56125858,51.3452272 6.56125858,51.2110088 6.56125858,51.0029704 C6.49272128,50.5264953 6.28643081,50.0500202 5.94238715,49.6473651 C5.46126891,49.0970699 5.11722525,48.6205948 5.46126891,48.0099014 C5.87384986,47.3320987 6.28643081,47.0569511 6.28643081,46.2449301 C6.28643081,45.9697825 6.28643081,45.768455 6.35496811,45.5604166 C6.49272128,45.0168323 6.97383953,44.6074664 7.52417366,44.6074664 C7.73046414,44.6074664 7.93675461,44.5403572 8.14304509,44.5403572 C8.83045381,44.473248 9.03674429,43.9967729 9.93112207,43.6545161 C10.2059498,43.5202978 10.4814562,43.5874069 10.756284,43.7216253 C10.9625745,43.8625545 11.1688649,43.9967729 11.4443713,44.1981004 C12.0632427,44.6745755 12.4758237,44.473248 13.3695229,44.7416847 C13.7821038,44.882614 13.9883943,45.2181598 14.0576102,45.5604166 C14.0576102,45.9697825 14.1946848,46.4462577 14.3324379,46.7885144 C14.6764816,47.4663171 15.3638903,47.8085738 15.295353,48.5534856 C15.295353,48.6944149 15.2261371,48.8957424 15.1575998,48.9628516 C14.8135562,49.3722175 14.5387284,49.9158018 14.3324379,50.4593861 C14.2639006,50.6674245 14.2639006,50.8016429 14.2639006,51.0029704 C14.2639006,51.4123364 14.1261475,51.7545931 13.8513197,51.9559206 C13.0254792,52.7746525 12.2695332,52.1639591 11.5129086,52.9088709 Z M7.24934589,50.4593861 C8.34933556,52.0230298 10.4122403,52.4323958 12.0632427,51.4123364 C13.6450292,50.4593861 14.0576102,48.3521581 13.0946951,46.8556236 C13.0946951,46.8556236 13.0946951,46.7885144 13.0254792,46.7885144 C11.9940268,45.2181598 9.79336889,44.8155048 8.21158239,45.8355642 C6.62979588,46.7885144 6.21721493,48.8957424 7.18013001,50.3922769 C7.24934589,50.3922769 7.24934589,50.4593861 7.24934589,50.4593861 Z" id="Shape" fill="#DAE1ED"></path>
                                <path d="M8.55562604,46.3120393 C9.86258478,45.4261982 11.6506618,45.768455 12.6128983,47.1240603 C13.507276,48.3521581 13.1632324,50.0500202 11.9254895,50.9358612 L11.8569522,51.0029704 C10.5499935,51.8888115 8.76191652,51.4794455 7.79900143,50.1909494 C6.90530224,48.9628516 7.24934589,47.2649895 8.48708874,46.3791485 C8.48708874,46.3120393 8.48708874,46.3120393 8.55562604,46.3120393 Z" id="Path" fill="#DAE1ED"></path>
                            </g>
                            <g id="Group-2" transform="translate(37.500000, 49.500000)">
                                <g id="Oval">
                                    <use fill="black" fill-opacity="1" filter="url(#filter-8)" xlink:href="#path-7"></use>
                                    <circle stroke="#FFFFFF" stroke-width="1.03400022" fill="#FF2727" fill-rule="evenodd" cx="8.5" cy="8.5" r="9.01700011"></circle>
                                </g>
                                <g id="!" transform="translate(7.000000, 3.500000)" fill="#FFFFFF" fill-rule="nonzero">
                                    <path d="M0.75,7.5 L2.25,7.5 L3,0 L0,0 L0.75,7.5 Z M1.50379061,10.5 C1.81209386,10.5 2.06353791,10.4021505 2.25812274,10.2064516 C2.45270758,10.0107527 2.55,9.75985663 2.55,9.45376344 C2.55,9.14265233 2.45270758,8.88924731 2.25812274,8.69354839 C2.06353791,8.49784946 1.81209386,8.4 1.50379061,8.4 C1.19548736,8.4 0.942779783,8.49784946 0.74566787,8.69354839 C0.548555957,8.88924731 0.45,9.14265233 0.45,9.45376344 C0.45,9.75985663 0.548555957,10.0107527 0.74566787,10.2064516 C0.942779783,10.4021505 1.19548736,10.5 1.50379061,10.5 Z" id="Shape"></path>
                                </g>
                            </g>
                        </g>
                    </g>
                </g>
            </g>
        </g>
    </g>
</svg>