<?xml version="1.0" encoding="UTF-8"?>
<svg width="12px" height="12px" viewBox="0 0 12 12" version="1.1" xmlns="http://www.w3.org/2000/svg" xmlns:xlink="http://www.w3.org/1999/xlink">
    <title>1FD5C94D-D265-439D-9FEA-E79167459FFA</title>
    <g id="desktop" stroke="none" stroke-width="1" fill="none" fill-rule="evenodd" opacity="0.600000024">
        <g id="finpower-landing-page" transform="translate(-456.000000, -1166.000000)">
            <g id="easy-steps" transform="translate(240.000000, 987.000000)">
                <g id="Group-9" transform="translate(0.000000, 146.000000)">
                    <g id="step-1" transform="translate(56.000000, 0.000000)">
                        <g id="Group-3" transform="translate(0.000000, 23.000000)">
                            <g id="i" transform="translate(160.000000, 10.000000)">
                                <g id="Group-15-Copy-5" fill="#052F5F">
                                    <path d="M6,0 C9.312,0 12,2.688 12,6 C12,9.312 9.312,12 6,12 C2.688,12 0,9.312 0,6 C0,2.688 2.688,0 6,0 Z M6,1 C3.24,1 1,3.24 1,6 C1,8.76 3.24,11 6,11 C8.76,11 11,8.76 11,6 C11,3.24 8.76,1 6,1 Z M5.98840541,5.08054054 C6.32424324,5.08054054 6.59651351,5.35281081 6.59651351,5.68864865 L6.59651351,5.68864865 L6.59651351,8.89135135 L6.58855411,8.98998697 C6.54142378,9.27892054 6.29065946,9.49945946 5.98840541,9.49945946 C5.65256757,9.49945946 5.3802973,9.22718919 5.3802973,8.89135135 L5.3802973,8.89135135 L5.3802973,5.68864865 L5.3882567,5.59001303 C5.43538703,5.30107946 5.68615135,5.08054054 5.98840541,5.08054054 Z M5.98840541,2.56702703 C6.32425424,2.56702703 6.59651351,2.8392863 6.59651351,3.17513514 C6.59651351,3.51098397 6.32425424,3.78324324 5.98840541,3.78324324 C5.65255657,3.78324324 5.3802973,3.51098397 5.3802973,3.17513514 C5.3802973,2.8392863 5.65255657,2.56702703 5.98840541,2.56702703 Z" id="Combined-Shape"></path>
                                </g>
                                <g id="help" transform="translate(6.250000, 5.750000) scale(1, -1) translate(-6.250000, -5.750000) translate(5.250000, 1.750000)"></g>
                            </g>
                        </g>
                    </g>
                </g>
            </g>
        </g>
    </g>
</svg>