<?xml version="1.0" encoding="UTF-8"?>
<svg width="16px" height="13px" viewBox="0 0 16 13" version="1.1" xmlns="http://www.w3.org/2000/svg" xmlns:xlink="http://www.w3.org/1999/xlink">
    <!-- Generator: sketchtool 51.3 (57544) - http://www.bohemiancoding.com/sketch -->
    <title>0F1AA74B-13CC-4845-BB08-9D21575D3A17-481-0000931A261B87A4</title>
    <desc>Created with sketchtool.</desc>
    <defs></defs>
    <g id="KYC-No" stroke="none" stroke-width="1" fill="none" fill-rule="evenodd">
        <g id="01-PAN_DOB-ii" transform="translate(-10.000000, -83.000000)" fill="#052F5F" fill-rule="nonzero">
            <g id="Header_New_User" transform="translate(0.000000, 65.000000)">
                <g id="Header_New_User_back">
                    <g id="left-arrow" transform="translate(10.000000, 18.000000)">
                        <path d="M15.3536875,5.5411875 L0.6463125,5.5411875 C0.289375,5.5411875 0,5.8305625 0,6.1875 C0,6.54446875 0.289375,6.8338125 0.6463125,6.8338125 L15.3536875,6.8338125 C15.7106563,6.8338125 16,6.54446875 16,6.1875 C16,5.8305625 15.7106562,5.5411875 15.3536875,5.5411875 Z" id="Shape"></path>
                        <path d="M1.560375,6.1875 L6.61859375,1.12925 C6.871,0.87684375 6.871,0.467625 6.61859375,0.21521875 C6.3661875,-0.03715625 5.95696875,-0.03715625 5.7045625,0.21521875 L0.1893125,5.73046875 C-0.06309375,5.982875 -0.06309375,6.39209375 0.1893125,6.6445 L5.7045625,12.15975 C5.83075,12.2859688 5.9961875,12.3490625 6.16159375,12.3490625 C6.327,12.3490625 6.4924375,12.2859688 6.618625,12.15975 C6.87103125,11.9073438 6.87103125,11.498125 6.618625,11.2457187 L1.560375,6.1875 Z" id="Shape"></path>
                    </g>
                </g>
            </g>
        </g>
    </g>
</svg>