<?xml version="1.0" encoding="UTF-8"?>
<svg width="36px" height="45px" viewBox="0 0 36 45" version="1.1" xmlns="http://www.w3.org/2000/svg" xmlns:xlink="http://www.w3.org/1999/xlink">
    <title>C8B9D104-C631-4699-A5D9-78F1031E36C1@1x</title>
    <defs>
        <linearGradient x1="-0.278258803%" y1="45.4%" x2="100.423602%" y2="45.4%" id="linearGradient-1">
            <stop stop-color="#83A6FF" offset="0%"></stop>
            <stop stop-color="#5A78FF" offset="100%"></stop>
        </linearGradient>
        <linearGradient x1="50.3629076%" y1="2.08471211%" x2="50.3629076%" y2="102.9561%" id="linearGradient-2">
            <stop stop-color="#83A6FF" offset="0%"></stop>
            <stop stop-color="#5A78FF" offset="100%"></stop>
        </linearGradient>
        <circle id="path-3" cx="5.66666667" cy="5.66666667" r="5.66666667"></circle>
        <filter x="-35.6%" y="-26.8%" width="171.2%" height="188.8%" filterUnits="objectBoundingBox" id="filter-4">
            <feMorphology radius="0.46599978" operator="erode" in="SourceAlpha" result="shadowSpreadOuter1"></feMorphology>
            <feOffset dx="0" dy="3" in="shadowSpreadOuter1" result="shadowOffsetOuter1"></feOffset>
            <feGaussianBlur stdDeviation="2" in="shadowOffsetOuter1" result="shadowBlurOuter1"></feGaussianBlur>
            <feComposite in="shadowBlurOuter1" in2="SourceAlpha" operator="out" result="shadowBlurOuter1"></feComposite>
            <feColorMatrix values="0 0 0 0 0   0 0 0 0 0   0 0 0 0 0  0 0 0 0.5 0" type="matrix" in="shadowBlurOuter1"></feColorMatrix>
        </filter>
    </defs>
    <g id="rana-" stroke="none" stroke-width="1" fill="none" fill-rule="evenodd">
        <g id="My-Acc-state-2-Copy" transform="translate(-289.000000, -441.000000)">
            <g id="Group-9" transform="translate(17.000000, 421.000000)">
                <g id="Group-4" transform="translate(225.000000, -75.608696)">
                    <g id="Group" transform="translate(47.000000, 95.608696)">
                        <g id="Group-23" fill-rule="nonzero">
                            <g id="Group-22">
                                <path d="M16.7257932,0 C18.1639382,0 19.3333333,1.15936313 19.3333333,2.58762797 L19.3333333,35.4134741 C19.3333333,36.8406369 18.1639382,38 16.7257932,38 L2.60754016,38 C1.1682846,38 0,36.8406369 0,35.4134741 L0,2.58762797 C0,1.15936313 1.1682846,0 2.60754016,0 L16.7257932,0 Z" id="Path" fill="#1C3754"></path>
                                <path d="M10.879928,1.6960645 L8.99201562,1.6960645 C8.81210868,1.6960645 8.72215521,1.51753139 8.72215521,1.42826484 C8.72215521,1.24973174 8.90206215,1.16046518 8.99201562,1.16046518 L10.879928,1.16046518 C11.059835,1.16046518 11.1497884,1.33899829 11.1497884,1.42826484 C11.1497884,1.60679795 11.059835,1.6960645 10.879928,1.6960645 Z" id="Path" fill="#2D5887"></path>
                                <path d="M7.91257396,1.6960645 L7.82262048,1.6960645 C7.64271354,1.6960645 7.55276007,1.51753139 7.55276007,1.42826484 C7.55276007,1.24973174 7.73266701,1.16046518 7.82262048,1.16046518 L7.91257396,1.16046518 C8.0924809,1.16046518 8.18243437,1.33899829 8.18243437,1.42826484 C8.18243437,1.60679795 8.0924809,1.6960645 7.91257396,1.6960645 Z" id="Path" fill="#2D5887"></path>
                                <path d="M15.1066307,25.2448015 L4.13563865,25.2448015 C3.86688877,25.2448015 3.68698183,25.0662684 3.68698183,24.7995708 L3.68698183,24.5317711 C3.68698183,24.2639715 3.86688877,24.0854384 4.13563865,24.0854384 L15.1066307,24.0854384 C15.3764911,24.0854384 15.556398,24.2639715 15.556398,24.5317711 L15.556398,24.7995708 C15.556398,24.9770018 15.3764911,25.2448015 15.1066307,25.2448015 Z" id="Path" fill="#FFFFFF"></path>
                                <path d="M14.9267237,23.9961718 C15.2865376,23.9961718 15.556398,24.2639715 15.556398,24.6210377 C15.556398,24.9770018 15.2865376,25.2448015 14.9267237,25.2448015 L4.3155456,25.2448015 C3.95684225,25.2448015 3.68698183,24.9770018 3.68698183,24.6210377 C3.68698183,24.2639715 3.95684225,23.9961718 4.3155456,23.9961718 L14.9267237,23.9961718 Z M14.9267237,23.4605725 L4.3155456,23.4605725 C3.68698183,23.4605725 3.147261,23.9961718 3.147261,24.6210377 C3.147261,25.2448015 3.68698183,25.7804008 4.3155456,25.7804008 L15.0166772,25.7804008 C15.6463515,25.7804008 16.1860723,25.2448015 16.1860723,24.6210377 C16.0961189,23.9961718 15.6463515,23.4605725 14.9267237,23.4605725 Z" id="Shape" fill="#E6EAFF"></path>
                                <path d="M7.91257396,24.8877353 L4.3155456,24.8877353 C4.22559213,24.8877353 4.13674919,24.7995708 4.13674919,24.7103042 L4.13674919,24.6210377 C4.13674919,24.5317711 4.22559213,24.4425046 4.3155456,24.4425046 L7.91257396,24.4425046 C8.00252743,24.4425046 8.0924809,24.5317711 8.0924809,24.6210377 L8.0924809,24.7103042 C8.18243437,24.7995708 8.0924809,24.8877353 7.91257396,24.8877353 Z" id="Path" fill="url(#linearGradient-1)"></path>
                                <path d="M7.28401019,11.686204 C8.0924809,11.1506047 9.0819691,10.882805 10.0714573,10.882805 C12.8589044,10.882805 15.1965841,13.1133668 15.1965841,15.8784258 C15.1965841,18.6434848 12.9488579,20.8740466 10.0714573,20.8740466 C7.19405671,20.8740466 4.94521991,18.6434848 4.94521991,15.8784258 C5.03517338,14.0941968 5.9347081,12.5777675 7.28401019,11.686204 Z" id="Path" fill="url(#linearGradient-2)"></path>
                            </g>
                            <path d="M16.7383178,1.33333333 C17.459279,1.33333333 18,1.86796868 18,2.58228559 L18,35.4177144 C18,36.130929 17.459279,36.6666667 16.7383178,36.6666667 L2.59501558,36.6666667 C1.87405429,36.6666667 1.33333333,36.130929 1.33333333,35.4177144 L1.33333333,2.6715752 C1.33333333,1.95725829 1.87405429,1.42262295 2.59501558,1.42262295 L4.66666667,1.42262295 C4.93702715,1.42262295 5.11726747,1.60120218 5.11726747,1.86796868 C5.11726747,2.40370636 5.56786827,2.85015443 6.10858923,2.85015443 L13.3148643,2.85015443 C13.8555852,2.85015443 14.306186,2.40370636 14.306186,1.86796868 C14.306186,1.60120218 14.4864263,1.42262295 14.7567868,1.42262295 L16.7383178,1.42262295 L16.7383178,1.33333333 Z" id="Path" fill="#FFFFFF"></path>
                        </g>
                        <g id="Group-14" transform="translate(9.083333, 3.088266)">
                            <path d="M24.0717829,0 C25.6429688,-2.88622168e-16 26.9166667,1.27369783 26.9166667,2.84488374 L26.9166667,11.5981873 C26.9166667,13.1693732 25.6429688,14.4430711 24.0717829,14.4430711 L10.777,14.443 L3.88723254,18.9153787 C3.51067321,19.1597626 3.00729927,19.0526133 2.76291537,18.6760539 C2.65634069,18.5118382 2.61261396,18.3146752 2.63977144,18.1208003 L3.154,14.443 L2.84488374,14.4430711 C1.27369783,14.4430711 6.36503989e-16,13.1693732 0,11.5981873 L0,2.84488374 C2.51674431e-16,1.27369783 1.27369783,7.32711378e-16 2.84488374,0 L24.0717829,0 Z" id="Combined-Shape" fill="#094772"></path>
                            <path d="M5.93692392,9.04361801 L6.82691757,8.56773823 L5.95260663,7.39966966 L7.28563676,7.30528028 L7.15625442,6.31419179 L5.69384195,6.72321244 L5.85458971,5.27590862 L4.82737237,5.27590862 L4.98812012,6.72321244 L3.55707306,6.31419179 L3.40416667,7.2974145 L4.72935545,7.39966966 L3.86288586,8.56773823 L4.7881656,9.03575223 L5.32529833,7.81262319 L5.93692392,9.04361801 Z M11.4055814,9.04361801 L12.295575,8.56773823 L11.4212641,7.39966966 L12.7542942,7.30528028 L12.6249119,6.31419179 L11.1624994,6.72321244 L11.3232472,5.27590862 L10.2960298,5.27590862 L10.4567776,6.72321244 L9.02573052,6.31419179 L8.87282412,7.2974145 L10.1980129,7.39966966 L9.33154331,8.56773823 L10.2568231,9.03575223 L10.7939558,7.81262319 L11.4055814,9.04361801 Z M16.8742388,9.04361801 L17.7642325,8.56773823 L16.8899215,7.39966966 L18.2229517,7.30528028 L18.0935693,6.31419179 L16.6311569,6.72321244 L16.7919046,5.27590862 L15.7646873,5.27590862 L15.925435,6.72321244 L14.494388,6.31419179 L14.3414816,7.2974145 L15.6666703,7.39966966 L14.8002008,8.56773823 L15.7254805,9.03575223 L16.2626132,7.81262319 L16.8742388,9.04361801 Z M22.3428963,9.04361801 L23.2328899,8.56773823 L22.358579,7.39966966 L23.6916091,7.30528028 L23.5622268,6.31419179 L22.0998143,6.72321244 L22.2605621,5.27590862 L21.2333447,5.27590862 L21.3940925,6.72321244 L19.9630454,6.31419179 L19.810139,7.2974145 L21.1353278,7.39966966 L20.2688582,8.56773823 L21.194138,9.03575223 L21.7312707,7.81262319 L22.3428963,9.04361801 Z" id="****" fill="#FFFFFF" fill-rule="nonzero"></path>
                        </g>
                        <g id="Group-2" transform="translate(17.333333, 28.666667)">
                            <g id="Oval">
                                <use fill="black" fill-opacity="1" filter="url(#filter-4)" xlink:href="#path-3"></use>
                                <circle stroke="#FFFFFF" stroke-width="1.03400022" fill="#FF2727" fill-rule="evenodd" cx="5.66666667" cy="5.66666667" r="6.18366678"></circle>
                            </g>
                            <g id="!" transform="translate(4.666667, 2.333333)" fill="#FFFFFF" fill-rule="nonzero">
                                <path d="M0.5,5 L1.5,5 L2,0 L0,0 L0.5,5 Z M1.00252708,7 C1.20806258,7 1.37569194,6.93476703 1.50541516,6.80430108 C1.63513839,6.67383513 1.7,6.50657109 1.7,6.30250896 C1.7,6.09510155 1.63513839,5.92616487 1.50541516,5.79569892 C1.37569194,5.66523297 1.20806258,5.6 1.00252708,5.6 C0.796991576,5.6 0.628519856,5.66523297 0.497111913,5.79569892 C0.365703971,5.92616487 0.3,6.09510155 0.3,6.30250896 C0.3,6.50657109 0.365703971,6.67383513 0.497111913,6.80430108 C0.628519856,6.93476703 0.796991576,7 1.00252708,7 Z" id="Shape"></path>
                            </g>
                        </g>
                    </g>
                </g>
            </g>
        </g>
    </g>
</svg>