<?xml version="1.0" encoding="UTF-8"?>
<svg width="14px" height="11px" viewBox="0 0 14 11" version="1.1" xmlns="http://www.w3.org/2000/svg" xmlns:xlink="http://www.w3.org/1999/xlink">
    <title>FA5AEBE2-3C31-4027-AB86-A622032AE379</title>
    <g id="Final-Mobile" stroke="none" stroke-width="1" fill="none" fill-rule="evenodd">
        <g id="bureau-dashboard-with-bp" transform="translate(-304.000000, -562.000000)" fill="#1B1DC7">
            <g id="Group-6-Copy-3" transform="translate(14.000000, 538.000000)">
                <g id="Group-7" transform="translate(282.000000, 16.000000)">
                    <g id="Group-3" transform="translate(8.000000, 8.000000)">
                        <path d="M11.523135,2.990625 L9.62545884,4.90875 C9.40780422,5.12875 9.55744177,5.5 9.86351858,5.5 L11.0810241,5.5 C11.0810241,7.775625 9.25136496,9.625 7,9.625 C6.46266516,9.625 5.93893373,9.521875 5.46961596,9.3225 C5.22475452,9.219375 4.94588453,9.295 4.76223845,9.480625 C4.4153514,9.83125 4.53778212,10.4225 4.99349648,10.608125 C5.6124518,10.8625 6.29262249,11 7,11 C10.0063544,11 12.4413655,8.53875 12.4413655,5.5 L13.658871,5.5 C13.9649478,5.5 14.1145854,5.12875 13.8969307,4.915625 L11.9992545,2.9975 C11.8700221,2.86 11.6523675,2.86 11.523135,2.990625 L11.523135,2.990625 Z M2.9189759,5.5 C2.9189759,3.224375 4.74863504,1.375 7,1.375 C7.53733484,1.375 8.06106627,1.478125 8.53038404,1.6775 C8.77524548,1.780625 9.05411547,1.705 9.23776155,1.519375 C9.5846486,1.16875 9.46221788,0.5775 9.00650352,0.391875 C8.3875482,0.1375 7.70737751,0 7,0 C3.99364558,0 1.55863453,2.46125 1.55863453,5.5 L0.341129005,5.5 C0.0350521969,5.5 -0.114585354,5.87125 0.103069265,6.084375 L2.00074547,8.0025 C2.13677961,8.14 2.34763252,8.14 2.48366666,8.0025 L4.38134287,6.084375 C4.59219578,5.87125 4.44255823,5.5 4.13648142,5.5 L2.9189759,5.5 Z" id="🔹Icon-Color"></path>
                    </g>
                </g>
            </g>
        </g>
    </g>
</svg>