<?xml version="1.0" encoding="UTF-8"?>
<svg width="20px" height="20px" viewBox="0 0 20 20" version="1.1" xmlns="http://www.w3.org/2000/svg" xmlns:xlink="http://www.w3.org/1999/xlink">
    <title>3FDCE4AB-208F-4915-A097-E003E675B3DF@1x</title>
    <g id="New-design----desktop" stroke="none" stroke-width="1" fill="none" fill-rule="evenodd">
        <g id="consent" transform="translate(-280.000000, -413.000000)">
            <g id="Group-4" transform="translate(276.000000, 179.000000)">
                <g id="no-accounts-message" transform="translate(0.000000, 56.000000)">
                    <g id="Group-10" transform="translate(2.000000, 80.000000)">
                        <g id="Group-8" transform="translate(2.000000, 24.000000)">
                            <g id="Group-4-Copy" transform="translate(0.000000, 68.000000)">
                                <g id="calendar" transform="translate(0.000000, 6.000000)">
                                    <path d="M20,0 L20,20 L0,20 L0,0 L20,0 Z" id="Vector" opacity="0"></path>
                                    <path d="M6.04166667,4.16666667 L6.04166667,1.66666667 C6.04166667,1.325 6.325,1.04166667 6.66666667,1.04166667 C7.00833333,1.04166667 7.29166667,1.325 7.29166667,1.66666667 L7.29166667,4.16666667 C7.29166667,4.50833333 7.00833333,4.79166667 6.66666667,4.79166667 C6.325,4.79166667 6.04166667,4.50833333 6.04166667,4.16666667 Z" id="Vector" fill="#1B1DC7" fill-rule="nonzero"></path>
                                    <path d="M12.7083333,4.16666667 L12.7083333,1.66666667 C12.7083333,1.325 12.9916667,1.04166667 13.3333333,1.04166667 C13.675,1.04166667 13.9583333,1.325 13.9583333,1.66666667 L13.9583333,4.16666667 C13.9583333,4.50833333 13.675,4.79166667 13.3333333,4.79166667 C12.9916667,4.79166667 12.7083333,4.50833333 12.7083333,4.16666667 Z" id="Vector" fill="#1B1DC7" fill-rule="nonzero"></path>
                                    <path d="M6.76666578,12.0167341 C6.65833245,11.9750674 6.57500076,11.9167158 6.49166743,11.8417158 C6.34166742,11.6833824 6.25,11.4750562 6.25,11.2500562 C6.25,11.1417228 6.27500153,11.0333854 6.31666819,10.9333854 C6.35833486,10.8333854 6.41666743,10.74173 6.49166743,10.6583966 C6.57500076,10.5833966 6.65833245,10.525045 6.76666578,10.4833783 C7.06666579,10.3583783 7.4416659,10.4250633 7.67499924,10.6583966 C7.82499924,10.81673 7.91666667,11.0333895 7.91666667,11.2500562 C7.91666667,11.3000562 7.90833295,11.3583997 7.89999962,11.4167331 C7.89166629,11.4667331 7.87499847,11.516727 7.84999847,11.566727 C7.83333181,11.616727 7.80833486,11.6667209 7.77500153,11.7167209 C7.75,11.7583875 7.70833257,11.8000491 7.67499924,11.8417158 C7.51666591,11.9917158 7.29999999,12.0833896 7.08333333,12.0833896 C6.975,12.0833896 6.86666577,12.0584008 6.76666578,12.0167341 Z" id="Vector" fill="#D90368" fill-rule="nonzero"></path>
                                    <path d="M9.68333244,12.0165722 C9.57499911,11.9749055 9.49166743,11.9165538 9.4083341,11.8415538 C9.25833409,11.6832205 9.16666667,11.4748943 9.16666667,11.2498943 C9.16666667,11.141561 9.19166819,11.0332236 9.23333486,10.9332236 C9.27500153,10.8332236 9.33333409,10.7415681 9.4083341,10.6582348 C9.49166743,10.5832348 9.57499911,10.5248831 9.68333244,10.4832165 C9.98333246,10.3498831 10.3583326,10.4249014 10.5916659,10.6582348 C10.7416659,10.8165681 10.8333333,11.0332276 10.8333333,11.2498943 C10.8333333,11.2998943 10.8249996,11.3582378 10.8166663,11.4165711 C10.808333,11.4665711 10.7916651,11.516565 10.7666651,11.566565 C10.7499985,11.616565 10.7250015,11.6665589 10.6916682,11.7165589 C10.6666667,11.7582256 10.6249992,11.7998872 10.5916659,11.8415538 C10.4333326,11.9915539 10.2166667,12.0832276 10,12.0832276 C9.89166667,12.0832276 9.78333244,12.0582388 9.68333244,12.0165722 Z" id="Vector" fill="#D90368" fill-rule="nonzero"></path>
                                    <path d="M12.5999991,12.0165722 C12.4916658,11.9749055 12.4083341,11.9165538 12.3250008,11.8415538 C12.2916674,11.7998872 12.2583318,11.7582256 12.2249985,11.7165589 C12.1916651,11.6665589 12.1666682,11.616565 12.1500015,11.566565 C12.1250015,11.516565 12.1083337,11.4665711 12.1000004,11.4165711 C12.091667,11.3582378 12.0833333,11.2998943 12.0833333,11.2498943 C12.0833333,11.0332276 12.1750008,10.8165681 12.3250008,10.6582348 C12.4083341,10.5832348 12.4916658,10.5248831 12.5999991,10.4832165 C12.9083324,10.3498831 13.2749992,10.4249014 13.5083326,10.6582348 C13.6583326,10.8165681 13.75,11.0332276 13.75,11.2498943 C13.75,11.2998943 13.7416663,11.3582378 13.733333,11.4165711 C13.7249996,11.4665711 13.7083318,11.516565 13.6833318,11.566565 C13.6666651,11.616565 13.6416682,11.6665589 13.6083349,11.7165589 C13.5833333,11.7582256 13.5416659,11.7998872 13.5083326,11.8415538 C13.3499992,11.9915539 13.1333333,12.0832276 12.9166667,12.0832276 C12.8083333,12.0832276 12.6999991,12.0582388 12.5999991,12.0165722 Z" id="Vector" fill="#D90368" fill-rule="nonzero"></path>
                                    <path d="M6.76666578,14.9332967 C6.66666578,14.8916301 6.57500076,14.8332784 6.49166743,14.7582784 C6.34166742,14.5999451 6.25,14.3832855 6.25,14.1666189 C6.25,14.0582856 6.27500153,13.9499481 6.31666819,13.8499481 C6.35833486,13.7416148 6.41666743,13.6499593 6.49166743,13.5749593 C6.80000077,13.266626 7.3666659,13.266626 7.67499924,13.5749593 C7.82499924,13.7332926 7.91666667,13.9499522 7.91666667,14.1666189 C7.91666667,14.3832855 7.82499924,14.5999451 7.67499924,14.7582784 C7.51666591,14.9082784 7.29999999,14.9999522 7.08333333,14.9999522 C6.975,14.9999522 6.86666577,14.9749634 6.76666578,14.9332967 Z" id="Vector" fill="#D90368" fill-rule="nonzero"></path>
                                    <path d="M9.4083341,14.7582784 C9.25833409,14.5999451 9.16666667,14.3832855 9.16666667,14.1666189 C9.16666667,14.0582856 9.19166819,13.9499481 9.23333486,13.8499481 C9.27500153,13.7416148 9.33333409,13.6499593 9.4083341,13.5749593 C9.71666743,13.266626 10.2833326,13.266626 10.5916659,13.5749593 C10.6666667,13.6499593 10.7249985,13.7416148 10.7666651,13.8499481 C10.8083318,13.9499481 10.8333333,14.0582856 10.8333333,14.1666189 C10.8333333,14.3832855 10.7416659,14.5999451 10.5916659,14.7582784 C10.4333326,14.9082784 10.2166667,14.9999522 10,14.9999522 C9.78333334,14.9999522 9.56666743,14.9082784 9.4083341,14.7582784 Z" id="Vector" fill="#D90368" fill-rule="nonzero"></path>
                                    <path d="M12.3250008,14.7582538 C12.2500008,14.6832538 12.1916682,14.5915983 12.1500015,14.483265 C12.1083349,14.383265 12.0833333,14.2749276 12.0833333,14.1665942 C12.0833333,14.0582609 12.1083349,13.9499235 12.1500015,13.8499235 C12.1916682,13.7415902 12.2500008,13.6499347 12.3250008,13.5749347 C12.5166674,13.383268 12.8083322,13.2915851 13.0749989,13.3499184 C13.1333322,13.3582517 13.1833342,13.3749164 13.2333342,13.3999164 C13.2833342,13.4165831 13.3333345,13.4416054 13.3833345,13.4749388 C13.4250011,13.4999388 13.4666659,13.5416014 13.5083326,13.5749347 C13.6583326,13.733268 13.75,13.9499276 13.75,14.1665942 C13.75,14.3832609 13.6583326,14.5999205 13.5083326,14.7582538 C13.3499992,14.9082538 13.1333333,14.9999275 12.9166667,14.9999275 C12.7,14.9999275 12.4833341,14.9082538 12.3250008,14.7582538 Z" id="Vector" fill="#D90368" fill-rule="nonzero"></path>
                                    <path d="M2.91666667,8.19986979 C2.575,8.19986979 2.29166667,7.91653646 2.29166667,7.57486979 C2.29166667,7.23320313 2.575,6.94986979 2.91666667,6.94986979 L17.0833333,6.94986979 C17.425,6.94986979 17.7083333,7.23320313 17.7083333,7.57486979 C17.7083333,7.91653646 17.425,8.19986979 17.0833333,8.19986979 L2.91666667,8.19986979 Z" id="Vector" fill="#1B1DC7" fill-rule="nonzero"></path>
                                    <path d="M6.66666667,18.9583333 C3.62499992,18.9583333 1.875,17.2083334 1.875,14.1666667 L1.875,7.08333333 C1.875,4.04166659 3.62499992,2.29166667 6.66666667,2.29166667 L13.3333333,2.29166667 C16.375,2.29166667 18.125,4.04166659 18.125,7.08333333 L18.125,14.1666667 C18.125,17.2083334 16.375,18.9583333 13.3333333,18.9583333 L6.66666667,18.9583333 Z M3.125,7.08333333 L3.125,14.1666667 C3.125,16.5499999 4.28333342,17.7083333 6.66666667,17.7083333 L13.3333333,17.7083333 C15.7166666,17.7083333 16.875,16.5499999 16.875,14.1666667 L16.875,7.08333333 C16.875,4.70000009 15.7166666,3.54166667 13.3333333,3.54166667 L6.66666667,3.54166667 C4.28333342,3.54166667 3.125,4.70000009 3.125,7.08333333 Z" id="Vector" fill="#1B1DC7"></path>
                                </g>
                            </g>
                        </g>
                    </g>
                </g>
            </g>
        </g>
    </g>
</svg>