<?xml version="1.0" encoding="UTF-8"?>
<svg width="24px" height="24px" viewBox="0 0 24 24" version="1.1" xmlns="http://www.w3.org/2000/svg" xmlns:xlink="http://www.w3.org/1999/xlink">
    <title>E9D2E123-54A2-4114-8FA4-09FF1DBE3D67@2x</title>
    <g id="New-design----desktop" stroke="none" stroke-width="1" fill="none" fill-rule="evenodd">
        <g id="consent" transform="translate(-400.000000, -650.000000)">
            <g id="Group-4" transform="translate(276.000000, 179.000000)">
                <g id="no-accounts-message" transform="translate(0.000000, 56.000000)">
                    <g id="Group-9" transform="translate(2.000000, 410.000000)">
                        <g id="Group-10" transform="translate(122.000000, 0.000000)">
                            <g id="award" transform="translate(0.000000, 5.000000)">
                                <path d="M24,0 L24,24 L0,24 L0,0 L24,0 Z" id="Vector" opacity="0" transform="translate(12.000000, 12.000000) rotate(-180.000000) translate(-12.000000, -12.000000) "></path>
                                <path d="M4.26000977,16.9899416 C4.26000977,18.8099416 4.26000977,18.8099412 5.98000956,19.9699411 L10.7100096,22.6999416 C11.4200096,23.1099416 12.5800095,23.1099416 13.2900095,22.6999416 L18.02001,19.9699411 C19.7400093,18.8099412 19.7400093,18.8099416 19.7400093,16.9899416 L19.7400093,12.0199418 C19.7400093,10.1999418 19.7400093,10.1999413 18.02001,9.03994131 L13.2900095,6.30994141 C12.5800095,5.89994141 11.4200096,5.89994141 10.7100096,6.30994141 L5.98000956,9.03994131 C4.26000977,10.1999413 4.26000977,10.1999418 4.26000977,12.0199418 L4.26000977,16.9899416 Z" id="Vector" stroke="#052F5F" stroke-width="1.5" stroke-linecap="round" stroke-linejoin="round" stroke-dasharray="0,0" fill-rule="nonzero"></path>
                                <path d="M17.5,8.63000011 L17.5,4 C17.5,2 16.5,1 14.5,1 L9.5,1 C7.5,1 6.5,2 6.5,4 L6.5,8.55999994" id="Vector" stroke="#052F5F" stroke-width="1.5" stroke-linecap="round" stroke-linejoin="round" stroke-dasharray="0,0" fill-rule="nonzero"></path>
                                <path d="M13.2000241,12.8799613 C13.2900241,13.0199613 13.4900247,13.1599609 13.6400247,13.1999609 L14.6600242,13.4599612 C15.2900242,13.6199612 15.4600245,14.159961 15.0500245,14.659961 L14.3800244,15.4699614 C14.2800244,15.5999614 14.2000244,15.8299612 14.2100244,15.9899611 L14.2700248,17.0399623 C14.3100248,17.6899623 13.8500243,18.0199621 13.2500243,17.7799621 L12.270025,17.3899608 C12.120025,17.3299608 11.8700248,17.3299608 11.7200248,17.3899608 L10.7400243,17.7799621 C10.1400243,18.0199621 9.68002471,17.6799623 9.7200247,17.0399623 L9.78002417,15.9899611 C9.79002417,15.8299612 9.7100241,15.5899614 9.61002409,15.4699614 L8.94002402,14.659961 C8.53002402,14.159961 8.70002437,13.6199612 9.33002436,13.4599612 L10.3500248,13.1999609 C10.5100248,13.1599609 10.7100245,13.0099612 10.7900245,12.8799613 L11.3600242,11.989961 C11.7200242,11.4499609 12.2800247,11.4499609 12.6300247,11.989961 L13.2000241,12.8799613 Z" id="Vector" stroke="#FF0067" stroke-width="1.3" stroke-linecap="round" stroke-linejoin="round" stroke-dasharray="0,0" fill-rule="nonzero"></path>
                            </g>
                        </g>
                    </g>
                </g>
            </g>
        </g>
    </g>
</svg>