<?xml version="1.0" encoding="UTF-8"?>
<svg width="20px" height="20px" viewBox="0 0 20 20" version="1.1" xmlns="http://www.w3.org/2000/svg" xmlns:xlink="http://www.w3.org/1999/xlink">
    <title>3286EFB8-847B-492A-8284-4B79DF769E6D@1x</title>
    <g id="New-design----desktop" stroke="none" stroke-width="1" fill="none" fill-rule="evenodd">
        <g id="consent" transform="translate(-280.000000, -547.000000)">
            <g id="Group-4" transform="translate(276.000000, 179.000000)">
                <g id="no-accounts-message" transform="translate(0.000000, 56.000000)">
                    <g id="Group-10" transform="translate(2.000000, 80.000000)">
                        <g id="Group-8" transform="translate(2.000000, 24.000000)">
                            <g id="Group-4-Copy-3" transform="translate(0.000000, 202.000000)">
                                <g id="timer" transform="translate(0.000000, 6.000000)">
                                    <path d="M7.29985277,18.9583333 C5.72485278,18.9583333 4.57485241,18.3000003 4.13318577,17.166667 C3.67485243,15.9833337 4.09985214,14.5166663 5.19985219,13.5249996 L9.06651934,10 L5.19985219,6.47499998 C4.09985214,5.48333327 3.67485243,4.01666671 4.13318577,2.83333341 C4.57485241,1.69166674 5.72485278,1.04166667 7.29985277,1.04166667 L12.699852,1.04166667 C14.274852,1.04166667 15.424853,1.70000007 15.8665196,2.83333341 C16.324853,4.01666671 15.8998524,5.48333327 14.7998524,6.47499998 L10.9331854,10 L14.8081859,13.5249996 C15.8998525,14.5166663 16.3331849,15.9833337 15.8748515,17.166667 C15.4248515,18.3000003 14.274852,18.9583333 12.699852,18.9583333 L7.29985277,18.9583333 Z M6.04151905,14.4416666 C5.34151907,15.0833333 5.03318583,16.016666 5.29985249,16.7083327 C5.5498525,17.3499993 6.2581861,17.7083333 7.29985277,17.7083333 L12.699852,17.7083333 C13.7415187,17.7083333 14.4498517,17.3583327 14.6998517,16.7083327 C14.9665183,16.016666 14.6665189,15.0833333 13.9581855,14.4416666 L9.99985258,10.8416669 L6.04151905,14.4416666 Z M5.29985249,3.29166671 C5.03318583,3.98333336 5.33318569,4.91666675 6.04151905,5.5583334 L9.99985258,9.15833314 L13.9581855,5.5583334 C14.6581855,4.91666675 14.9665183,3.98333336 14.6998517,3.29166671 C14.4498517,2.65000006 13.7415187,2.29166667 12.699852,2.29166667 L7.29985277,2.29166667 C6.2581861,2.29166667 5.5498525,2.64166673 5.29985249,3.29166671 Z" id="Vector" fill="#1B1DC7"></path>
                                    <path d="M20,0 L20,20 L0,20 L0,0 L20,0 Z" id="Vector" opacity="0"></path>
                                    <path d="M8.99799226,15.4132906 C10.172243,15.1533131 11.0569651,14.4201619 11.6763765,14.2230524 C12.2957879,14.0259429 13.182941,14.0817422 13.4854809,14.2230524 C13.7880209,14.3643626 14.5447338,14.6110364 14.7995687,16 C14.8645859,17.0327078 14.1236336,17.7058705 12.648949,17.7058705 C11.7346954,17.7058705 9.8589937,17.7058705 7.021844,17.7058705 C6.29785572,17.6487024 5.77804837,17.4177566 5.46242194,17.013033 C5.20895125,16.7357234 5.20612061,16.4181398 5.20612061,16.0917788 C6.28730083,15.4813227 7.82374154,15.6732681 8.99799226,15.4132906 Z" id="Path-2" fill="#D90368"></path>
                                    <path d="M10.0033653,9.15833314 L12.3899016,6.9854905 C12.05948,6.59832581 11.55223,6.40474346 10.8681517,6.40474346 C10.3849718,6.40474346 9.89411813,6.79233734 9.00932416,6.9854905 C8.76406876,7.03903048 8.29709315,7.03903048 7.6083973,6.9854905 L10.0033653,9.15833314 Z" id="Path-3" fill="#D90368"></path>
                                </g>
                            </g>
                        </g>
                    </g>
                </g>
            </g>
        </g>
    </g>
</svg>