<?xml version="1.0" encoding="UTF-8"?>
<svg width="22px" height="19px" viewBox="0 0 22 19" version="1.1" xmlns="http://www.w3.org/2000/svg" xmlns:xlink="http://www.w3.org/1999/xlink">
    <title>Group</title>
    <g id="New-Design---Mobile" stroke="none" stroke-width="1" fill="none" fill-rule="evenodd" stroke-linecap="round" stroke-linejoin="round">
        <g id="consent-copy-4" transform="translate(-15.000000, -369.000000)" stroke-width="1.2">
            <g id="no-accounts-message-copy" transform="translate(16.000000, 64.000000)">
                <g id="Group-10" transform="translate(0.000000, 60.000000)">
                    <g id="Group-4-Copy-4" transform="translate(0.000000, 238.000000)">
                        <g id="Group" transform="translate(0.000000, 8.000000)">
                            <path d="M17.6913635,13.0762121 L17.6913635,2.30756845 C17.6926194,2.00417758 17.6338192,1.70356719 17.5182699,1.42301269 C17.4027663,1.14245818 17.2328382,0.887566099 17.0183314,0.673054718 C16.803779,0.458525105 16.5488869,0.288601606 16.2683324,0.173084258 C15.9878235,0.0575669096 15.6871675,-0.00125153578 15.3837766,0 L2.30756652,0" id="Path" stroke="#1B1DC7"></path>
                            <line x1="8.46107716" y1="6.1535126" x2="14.6145878" y2="6.1535126" id="Path" stroke="#D90368"></line>
                            <line x1="8.46107716" y1="9.23026792" x2="14.6145878" y2="9.23026792" id="Path" stroke="#D90368"></line>
                            <path d="M0.586507081,3.84603727 C0.337422087,3.56716928 0.159840886,3.23191691 0.0690515343,2.86917885 C-0.0217378175,2.50644079 -0.0230186594,2.12706547 0.0653229626,1.76373485 C0.153664585,1.40040423 0.328975824,1.06396674 0.576173741,0.783412234 C0.823371659,0.502844056 1.13504925,0.286559552 1.48437266,0.153165116 C1.83369606,0.0197706798 2.21020431,-0.026731628 2.58148891,0.0176556954 C2.95276895,0.0620384607 3.30771711,0.195988992 3.6157573,0.407970596 C3.9237519,0.619952201 4.17568119,0.903610808 4.34975716,1.23453294 C4.52387872,1.56545506 4.61495068,1.93375407 4.61513301,2.30765961 L4.61513301,14.6146809 C4.61531533,14.988632 4.70638729,15.3568854 4.88050885,15.6878076 C5.05458483,16.0187297 5.30651411,16.3024293 5.61450872,16.5143836 C5.9225489,16.7263834 6.27749251,16.860302 6.6487999,16.9046985 C7.02006171,16.9490949 7.3965654,16.9026017 7.74590248,16.7691845 C8.09523956,16.6358129 8.40688068,16.4195284 8.65406948,16.1389738 C8.90130387,15.8584193 9.07661055,15.5219818 9.16494761,15.1586056 C9.25328468,14.795275 9.25200839,14.4158997 9.16120992,14.0531616 C9.07041146,13.6904236 8.8928257,13.3552168 8.64376805,13.0763032 L19.4124117,13.0763032 C19.7094211,13.4084105 19.9039632,13.8193738 19.9725179,14.2596461 C20.0410726,14.6998728 19.9807226,15.1505833 19.7987154,15.557262 C19.6167538,15.9639407 19.3208839,16.3092666 18.9469328,16.551487 C18.5729817,16.7937074 18.1369029,16.9224753 17.6913431,16.9222477 L6.9226995,16.9222477" id="Path" stroke="#1B1DC7"></path>
                        </g>
                    </g>
                </g>
            </g>
        </g>
    </g>
</svg>