<?xml version="1.0" encoding="UTF-8"?>
<svg width="21px" height="22px" viewBox="0 0 21 22" version="1.1" xmlns="http://www.w3.org/2000/svg" xmlns:xlink="http://www.w3.org/1999/xlink">
    <title>Group 13</title>
    <g id="New-Design---Mobile" stroke="none" stroke-width="1" fill="none" fill-rule="evenodd">
        <g id="consent-copy-4" transform="translate(-15.000000, -426.000000)">
            <g id="no-accounts-message-copy" transform="translate(16.000000, 64.000000)">
                <g id="Group-10" transform="translate(0.000000, 60.000000)">
                    <g id="Group-4-Copy-5" transform="translate(0.000000, 298.000000)">
                        <g id="Group-13" transform="translate(0.000000, 5.000000)">
                            <polyline id="Path" stroke="#1B1DC7" stroke-width="1.13636364" stroke-linecap="round" transform="translate(3.785400, 4.040404) scale(-1, 1) translate(-3.785400, -4.040404) " points="2.76814126 1.51515152 2.76814126 4.54545455 4.80265903 6.56565657"></polyline>
                            <path d="M0.613290831,2.27272725 C-0.204430277,3.67909579 -0.204430277,5.4118133 0.613290831,6.81818184 C1.43101194,8.22455038 2.94222286,9.09090909 4.57766507,9.09090909 C6.21310728,9.09090909 7.72431822,8.2245504 8.54203934,6.81818185 C9.35976046,5.4118133 9.35976046,3.67909579 8.54203934,2.27272724 C7.72431822,0.866358691 6.21310728,0 4.57766507,0 C2.94222286,0 1.43101194,0.866358713 0.613290831,2.27272725 Z" id="Path" stroke="#1B1DC7" stroke-width="1.13636364"></path>
                            <polyline id="Path-6" stroke="#1B1DC7" stroke-width="1.13636364" fill="#FFFFFF" stroke-linejoin="round" points="15.6517655 4.04156053 6.94635569 4.04156053 6.94635569 20 19 20 19 7.36623542"></polyline>
                            <polygon id="Path-5" stroke="#1B1DC7" stroke-width="1.13636364" fill="#1B1DC7" stroke-linejoin="round" points="15.6517655 4.04156053 15.6517655 7.36623542 19 7.36623542"></polygon>
                            <rect id="Rectangle" stroke="#ED0068" stroke-width="0.909090909" fill="#ED0068" x="8.5974026" y="10.4545455" width="8.09090909" height="1" rx="0.5"></rect>
                            <rect id="Rectangle" stroke="#ED0068" stroke-width="0.909090909" fill="#ED0068" x="8.5974026" y="12.4545455" width="7.09090909" height="1" rx="0.5"></rect>
                            <rect id="Rectangle-Copy-3" stroke="#ED0068" stroke-width="0.909090909" fill="#ED0068" x="8.5974026" y="14.4545455" width="4.09090909" height="1" rx="0.5"></rect>
                        </g>
                    </g>
                </g>
            </g>
        </g>
    </g>
</svg>