<?xml version="1.0" encoding="UTF-8"?>
<svg width="20px" height="20px" viewBox="0 0 20 20" version="1.1" xmlns="http://www.w3.org/2000/svg" xmlns:xlink="http://www.w3.org/1999/xlink">
    <title>B9C87650-AE54-4A00-AAD9-1CF9ED23AADC@1x</title>
    <g id="New-design----desktop" stroke="none" stroke-width="1" fill="none" fill-rule="evenodd">
        <g id="consent" transform="translate(-280.000000, -479.000000)">
            <g id="Group-4" transform="translate(276.000000, 179.000000)">
                <g id="no-accounts-message" transform="translate(0.000000, 56.000000)">
                    <g id="Group-10" transform="translate(2.000000, 80.000000)">
                        <g id="Group-8" transform="translate(2.000000, 24.000000)">
                            <g id="Group-4" transform="translate(0.000000, 134.000000)">
                                <g id="timer" transform="translate(0.000000, 6.000000)">
                                    <path d="M20,0 L20,20 L0,20 L0,0 L20,0 Z" id="Vector" opacity="0"></path>
                                    <path d="M2.08333333,11.0416667 C2.08333333,6.67500019 5.63333352,3.125 10,3.125 C14.3666665,3.125 17.9166667,6.67500019 17.9166667,11.0416667 C17.9166667,15.4083331 14.3666665,18.9583333 10,18.9583333 C5.63333352,18.9583333 2.08333333,15.4083331 2.08333333,11.0416667 Z M3.33333333,11.0416667 C3.33333333,14.7166665 6.32500013,17.7083333 10,17.7083333 C13.6749999,17.7083333 16.6666667,14.7166665 16.6666667,11.0416667 C16.6666667,7.36666679 13.6749999,4.375 10,4.375 C6.32500013,4.375 3.33333333,7.36666679 3.33333333,11.0416667 Z" id="Vector" fill="#1B1DC7"></path>
                                    <path d="M9.375,10.8333333 L9.375,6.66666667 C9.375,6.325 9.65833334,6.04166667 10,6.04166667 C10.3416667,6.04166667 10.625,6.325 10.625,6.66666667 L10.625,10.8333333 C10.625,11.175 10.3416667,11.4583333 10,11.4583333 C9.65833334,11.4583333 9.375,11.175 9.375,10.8333333 Z" id="Vector" fill="#D90368" fill-rule="nonzero"></path>
                                    <path d="M7.5,2.29166667 C7.15833334,2.29166667 6.875,2.00833333 6.875,1.66666667 C6.875,1.325 7.15833334,1.04166667 7.5,1.04166667 L12.5,1.04166667 C12.8416667,1.04166667 13.125,1.325 13.125,1.66666667 C13.125,2.00833333 12.8416667,2.29166667 12.5,2.29166667 L7.5,2.29166667 Z" id="Vector" fill="#1B1DC7" fill-rule="nonzero"></path>
                                </g>
                            </g>
                        </g>
                    </g>
                </g>
            </g>
        </g>
    </g>
</svg>