<?xml version="1.0" encoding="UTF-8"?>
<svg width="86px" height="75px" viewBox="0 0 86 75" version="1.1" xmlns="http://www.w3.org/2000/svg" xmlns:xlink="http://www.w3.org/1999/xlink">
    <title>93A3D15B-29E6-40AD-B6B4-AC4072448491</title>
    <g id="Mobile---Flow" stroke="none" stroke-width="1" fill="none" fill-rule="evenodd">
        <g id="No-accounts" transform="translate(-137.000000, -469.000000)">
            <g id="Group-Copy-10" transform="translate(0.000000, 425.000000)">
                <g id="No_linked_account_artwork" transform="translate(137.000000, 44.000000)">
                    <g id="Bank">
                        <g id="Group" transform="translate(9.011662, 28.424896)" fill="#FFFFFF" fill-rule="nonzero">
                            <rect id="Rectangle" x="0" y="0" width="7.75016351" height="31.8648512"></rect>
                            <rect id="Rectangle" x="22.7338129" y="0" width="7.75016351" height="31.8648512"></rect>
                            <rect id="Rectangle" x="45.4676259" y="0" width="7.75016351" height="31.8648512"></rect>
                        </g>
                        <g id="Group" transform="translate(14.000000, 31.000000)" fill="#7DB7FF" fill-rule="nonzero">
                            <rect id="Rectangle" x="0" y="0" width="8" height="32.0717658"></rect>
                            <polygon id="Rectangle" transform="translate(24.095244, 16.161012) rotate(-0.342766) translate(-24.095244, -16.161012) " points="20.0955624 0.228321726 28.0952437 0.228282016 28.0949249 32.0937021 20.0952437 32.0937418"></polygon>
                            <rect id="Rectangle" x="40.1904873" y="0.206914618" width="8" height="31.8648512"></rect>
                        </g>
                        <line x1="28.1803995" y1="66.8075573" x2="28.9554158" y2="66.8075573" id="Path" fill="#FFFFFF" fill-rule="nonzero"></line>
                        <path d="M66.0011974,67.8075573 L7.40996127,67.8075573 L7.40996127,64.2382801 C7.40996127,63.358893 8.13330986,62.6346918 9.01166172,62.6346918 L64.3994969,62.6346918 C65.2778488,62.6346918 66.0011974,63.358893 66.0011974,64.2382801 L66.0011974,67.8075573 L66.0011974,67.8075573 Z" id="Path" fill="#C4E0FF" fill-rule="nonzero"></path>
                        <path d="M70.3412889,72.4805537 L3.32820849,72.4805537 L3.32820849,68.9112765 C3.32820849,68.0318894 4.05155708,67.3076883 4.92990894,67.3076883 L68.7395885,67.3076883 C69.6179403,67.3076883 70.3412889,68.0318894 70.3412889,68.9112765 L70.3412889,72.4805537 Z" id="Path" fill="#9FCAFF" fill-rule="nonzero"></path>
                        <path d="M24.9253308,6.80231807 L32.9855008,0.853522799 C34.5355335,-0.2845076 36.6539116,-0.2845076 38.2039443,0.853522799 L70.2896212,24.6487039 C71.9946571,25.8901916 71.1163053,28.5800816 68.9979273,28.5800816 L2.19151784,28.5800816 C0.0731398142,28.5800816 -0.80521205,25.8901916 0.899823921,24.6487039 L17.6918449,12.1820981" id="Path" fill="#FFFFFF" fill-rule="nonzero"></path>
                        <line x1="17.6401771" y1="12.2338268" x2="21.1019168" y2="9.64739406" id="Path" fill="#FFFFFF" fill-rule="nonzero"></line>
                        <path d="M5.84360915,32.8511331 L35.7592403,10.8147263 C37.2059375,9.72842456 39.22098,9.72842456 40.7193449,10.8147263 L70.0666307,32.8511331 C71.6683312,34.0408922 70.8416471,36.5755962 68.8266046,36.5755962 L7.08363531,36.5755962 C5.0685928,36.5755962 4.24190869,34.0408922 5.84360915,32.8511331 Z" id="Path" fill="#C4E0FF" fill-rule="nonzero"></path>
                        <circle id="Oval" fill="#FFFFFF" cx="38" cy="20" r="2"></circle>
                    </g>
                    <g id="Group-24" transform="translate(55.456397, 49.297230)">
                        <path d="M16.9257884,2.8066524 L28.5844124,21.9601061 C29.15873,22.9036278 28.8594309,24.1340796 27.9159092,24.7083971 C27.6025776,24.8991207 27.2428288,25 26.8760153,25 L3.55876731,25 C2.45419781,25 1.55876731,24.1045695 1.55876731,23 C1.55876731,22.6331865 1.65964663,22.2734377 1.8503702,21.9601061 L13.5089942,2.8066524 C14.0833117,1.86313073 15.3137635,1.56383164 16.2572852,2.13814918 C16.5303416,2.30435743 16.7595802,2.53359599 16.9257884,2.8066524 Z" id="Rectangle" fill="#F18853"></path>
                        <path d="M15.6269531,17.9589844 L15.9755859,11 L14.0820312,11 L14.4375,17.9589844 L15.6269531,17.9589844 Z M15.0253906,21.1923828 C15.344401,21.1923828 15.5916341,21.097819 15.7670898,20.9086914 C15.9425456,20.7195638 16.0302734,20.4632161 16.0302734,20.1396484 C16.0302734,19.8160807 15.9436849,19.563151 15.7705078,19.3808594 C15.5973307,19.1985677 15.3489583,19.1074219 15.0253906,19.1074219 C14.6972656,19.1074219 14.4443359,19.1951497 14.2666016,19.3706055 C14.0888672,19.5460612 14,19.8024089 14,20.1396484 C14,20.476888 14.0900065,20.7366536 14.2700195,20.9189453 C14.4500326,21.101237 14.7018229,21.1923828 15.0253906,21.1923828 Z" id="!" fill="#FFFFFF" fill-rule="nonzero"></path>
                    </g>
                </g>
            </g>
        </g>
    </g>
</svg>