<?xml version="1.0" encoding="UTF-8"?>
<svg width="20px" height="20px" viewBox="0 0 20 20" version="1.1" xmlns="http://www.w3.org/2000/svg" xmlns:xlink="http://www.w3.org/1999/xlink">
    <title>EF57661C-96F4-4129-A6C3-A6EDADC7AB7E@1x</title>
    <g id="New-design----desktop" stroke="none" stroke-width="1" fill="none" fill-rule="evenodd">
        <g id="consent" transform="translate(-280.000000, -345.000000)">
            <g id="Group-4" transform="translate(276.000000, 179.000000)">
                <g id="no-accounts-message" transform="translate(0.000000, 56.000000)">
                    <g id="Group-10" transform="translate(2.000000, 80.000000)">
                        <g id="Group-8" transform="translate(2.000000, 24.000000)">
                            <g id="clipboard-text" transform="translate(0.000000, 6.000000)">
                                <path d="M6.66666667,10.7918294 C6.325,10.7918294 6.04166667,10.5084961 6.04166667,10.1668294 C6.04166667,9.82516276 6.325,9.54182943 6.66666667,9.54182943 L12.5,9.54182943 C12.8416667,9.54182943 13.125,9.82516276 13.125,10.1668294 C13.125,10.5084961 12.8416667,10.7918294 12.5,10.7918294 L6.66666667,10.7918294 Z" id="Vector" fill="#D90368" fill-rule="nonzero"></path>
                                <path d="M6.66666667,14.1251636 C6.325,14.1251636 6.04166667,13.8418302 6.04166667,13.5001636 C6.04166667,13.1584969 6.325,12.8751628 6.66666667,12.8751628 L10.3166668,12.8751628 C10.6583334,12.8751628 10.9416668,13.1584969 10.9416668,13.5001636 C10.9416668,13.8418302 10.6583334,14.1251636 10.3166668,14.1251636 L6.66666667,14.1251636 Z" id="Vector" fill="#D90368" fill-rule="nonzero"></path>
                                <path d="M8.33333333,5.625 C7.53333335,5.625 6.04166667,5.625 6.04166667,3.33333333 C6.04166667,1.04166667 7.53333335,1.04166667 8.33333333,1.04166667 L11.6666667,1.04166667 C12.4666666,1.04166667 13.9583333,1.04166667 13.9583333,3.33333333 C13.9583333,4.13333332 13.9583333,5.625 11.6666667,5.625 L8.33333333,5.625 Z M7.29166667,3.33333333 C7.29166667,4.375 7.50833333,4.375 8.33333333,4.375 L11.6666667,4.375 C12.7083333,4.375 12.7083333,4.15833334 12.7083333,3.33333333 C12.7083333,2.29166667 12.4916667,2.29166667 11.6666667,2.29166667 L8.33333333,2.29166667 C7.50833333,2.29166667 7.29166667,2.29166667 7.29166667,3.33333333 Z" id="Vector" fill="#1B1DC7"></path>
                                <path d="M7.5,18.9582761 C2.81666676,18.9582761 1.875,16.8082762 1.875,13.3332761 L1.875,8.33327651 C1.875,4.53327656 3.25000008,2.90827648 6.63333337,2.73327648 C6.9666667,2.71660982 7.275,2.9749432 7.29166667,3.32494318 C7.30833333,3.67494317 7.04166663,3.95827649 6.69999997,3.97494316 C4.33333337,4.10827649 3.125,4.81661002 3.125,8.33327651 L3.125,13.3332761 C3.125,16.4166095 3.73333335,17.7082761 7.5,17.7082761 L12.5,17.7082761 C16.2666667,17.7082761 16.875,16.4166095 16.875,13.3332761 L16.875,8.33327651 C16.875,4.81661002 15.6666666,4.10827649 13.3,3.97494316 C12.9583334,3.95827649 12.6916667,3.65827652 12.7083333,3.31660986 C12.725,2.9749432 13.0250008,2.70827649 13.3666674,2.72494316 C16.7500007,2.90827649 18.125,4.53327616 18.125,8.32494299 L18.125,13.3249426 C18.125,16.8082758 17.1833332,18.9582761 12.5,18.9582761 L7.5,18.9582761 Z" id="Vector" fill="#1B1DC7" fill-rule="nonzero"></path>
                                <path d="M20,0 L20,20 L0,20 L0,0 L20,0 Z" id="Vector" opacity="0"></path>
                            </g>
                        </g>
                    </g>
                </g>
            </g>
        </g>
    </g>
</svg>