<?xml version="1.0" encoding="UTF-8"?>
<svg width="24px" height="24px" viewBox="0 0 24 24" version="1.1" xmlns="http://www.w3.org/2000/svg" xmlns:xlink="http://www.w3.org/1999/xlink">
    <title>B0ABED25-F560-4A2F-8402-7F649BCB8021@2x</title>
    <g id="Page-1" stroke="none" stroke-width="1" fill="none" fill-rule="evenodd">
        <g id="Desktop---Account-Aggregator-" transform="translate(-713.000000, -384.000000)">
            <g id="Group-12" transform="translate(713.000000, 100.000000)">
                <g id="Group-9" transform="translate(0.000000, 278.000000)">
                    <g id="shield-tick" transform="translate(0.000000, 6.000000)">
                        <path d="M24,0 L24,24 L0,24 L0,0 L24,0 Z" id="Vector" opacity="0" transform="translate(12.000000, 12.000000) rotate(-180.000000) translate(-12.000000, -12.000000) "></path>
                        <path d="M5.50003409,4.11005878 C4.35003412,4.54005879 3.41003418,5.90005851 3.41003418,7.12005854 L3.41003418,14.5500584 C3.41003418,15.7300583 4.19003397,17.280058 5.14003396,17.9900579 L9.44003391,21.2000599 C10.8500339,22.2600598 13.1700343,22.2600598 14.5800343,21.2000599 L18.8800335,17.9900579 C19.8300335,17.280058 20.6100349,15.7300583 20.6100349,14.5500584 L20.6100349,7.12005854 C20.6100349,5.89005852 19.6700348,4.53005856 18.5200348,4.10005856 L13.5300341,2.2300586 C12.680034,1.92005859 11.3200341,1.92005859 10.4900341,2.2300586 L5.50003409,4.11005878 Z" id="Vector" stroke="#052F5F" stroke-width="1.5" stroke-linecap="round" stroke-linejoin="round" stroke-dasharray="0,0" fill-rule="nonzero"></path>
                        <path d="M9.05004883,11.8700533 L10.6600485,13.4800529 L14.9600487,9.18005371" id="Vector" stroke="#FF0067" stroke-width="1.5" stroke-linecap="round" stroke-linejoin="round" stroke-dasharray="0,0" fill-rule="nonzero"></path>
                    </g>
                </g>
            </g>
        </g>
    </g>
</svg>