<?xml version="1.0" encoding="UTF-8"?>
<svg width="20px" height="20px" viewBox="0 0 20 20" version="1.1" xmlns="http://www.w3.org/2000/svg" xmlns:xlink="http://www.w3.org/1999/xlink">
    <title>78A651C9-90C1-46BD-9D29-777710CBEEA5@2x</title>
    <g id="New-design----desktop" stroke="none" stroke-width="1" fill="none" fill-rule="evenodd">
        <g id="consent" transform="translate(-510.000000, -652.000000)" fill-rule="nonzero">
            <g id="Group-4" transform="translate(276.000000, 179.000000)">
                <g id="no-accounts-message" transform="translate(0.000000, 56.000000)">
                    <g id="Group-9" transform="translate(2.000000, 410.000000)">
                        <g id="Group-8" transform="translate(232.000000, 0.000000)">
                            <g id="15515310431583411995" transform="translate(0.000000, 7.000000)">
                                <path d="M10,20 C4.48844884,20 0,15.5189456 0,10.0164745 C0,4.51400329 4.48844884,0 10,0 C15.5115512,0 20,4.48105437 20,9.98352554 C20,15.4859967 15.5115512,20 10,20 Z M10,1.31795717 C5.21452145,1.31795717 1.28712871,5.23887974 1.28712871,10.0164745 C1.28712871,14.7940692 5.18151815,18.6820428 9.9669967,18.6820428 C14.7524752,18.6820428 18.6468647,14.7940692 18.6468647,10.0164745 C18.6468647,5.23887974 14.7854785,1.31795717 10,1.31795717 Z" id="Shape" fill="#052F5F"></path>
                                <path d="M10.1650165,15.5189456 L10,15.5189456 C6.66666667,15.5189456 5.14851485,13.0477759 4.85148515,11.7627677 C4.75247525,11.4003295 4.98349835,11.0378913 5.34653465,10.9719934 C5.70957096,10.8731466 6.07260726,11.1037891 6.13861386,11.4662273 C6.17161716,11.5650741 6.89768977,14.2339374 10.0330033,14.2339374 L10.1980198,14.2339374 C13.3333333,14.2339374 14.0594059,11.5980231 14.0924092,11.4662273 C14.1914191,11.1037891 14.5544554,10.9060956 14.8844884,11.0049423 C15.2475248,11.1037891 15.4455446,11.4332784 15.379538,11.7957166 C14.9834983,13.0807249 13.4983498,15.5189456 10.1650165,15.5189456 Z" id="Path" fill="#FF0067"></path>
                                <ellipse id="Oval" fill="#FF0067" cx="6.53465347" cy="8.07248764" rx="1.15511551" ry="1.15321252"></ellipse>
                                <ellipse id="Oval" fill="#FF0067" cx="13.3663366" cy="8.07248764" rx="1.15511551" ry="1.15321252"></ellipse>
                            </g>
                        </g>
                    </g>
                </g>
            </g>
        </g>
    </g>
</svg>