<?xml version="1.0" encoding="UTF-8"?>
<svg width="20px" height="20px" viewBox="0 0 20 20" version="1.1" xmlns="http://www.w3.org/2000/svg" xmlns:xlink="http://www.w3.org/1999/xlink">
    <title>74EAC200-B641-4728-8D74-2E57AFA056C4</title>
    <g id="Mobile---Flow" stroke="none" stroke-width="1" fill="none" fill-rule="evenodd">
        <g id="consent-full" transform="translate(-20.000000, -472.000000)">
            <g id="Group-4-Copy-4" transform="translate(20.000000, 466.000000)">
                <g id="storage" transform="translate(0.000000, 6.000000)">
                    <path d="M4.375,6.875 L4.375,5.20833333 C4.375,4.86666667 4.65833334,4.58333333 5,4.58333333 C5.34166666,4.58333333 5.625,4.86666667 5.625,5.20833333 L5.625,6.875 C5.625,7.21666666 5.34166666,7.5 5,7.5 C4.65833334,7.5 4.375,7.21666666 4.375,6.875 Z" id="Vector" fill="#052F5F" fill-rule="nonzero"></path>
                    <path d="M7.70833333,6.875 L7.70833333,5.20833333 C7.70833333,4.86666667 7.99166667,4.58333333 8.33333333,4.58333333 C8.675,4.58333333 8.95833333,4.86666667 8.95833333,5.20833333 L8.95833333,6.875 C8.95833333,7.21666666 8.675,7.5 8.33333333,7.5 C7.99166667,7.5 7.70833333,7.21666666 7.70833333,6.875 Z" id="Vector" fill="#052F5F" fill-rule="nonzero"></path>
                    <path d="M7.5,18.9583333 C2.97500014,18.9583333 1.04166667,17.0249999 1.04166667,12.5 L1.04166667,7.5 C1.04166667,2.97500014 2.97500014,1.04166667 7.5,1.04166667 L12.5,1.04166667 C17.0249999,1.04166667 18.9583333,2.97500014 18.9583333,7.5 L18.9583333,12.5 C18.9583333,17.0249999 17.0249999,18.9583333 12.5,18.9583333 L7.5,18.9583333 Z M2.29166667,7.5 L2.29166667,12.5 C2.29166667,16.3416668 3.65833322,17.7083333 7.5,17.7083333 L12.5,17.7083333 C16.3416668,17.7083333 17.7083333,16.3416668 17.7083333,12.5 L17.7083333,7.5 C17.7083333,3.65833322 16.3416668,2.29166667 12.5,2.29166667 L7.5,2.29166667 C3.65833322,2.29166667 2.29166667,3.65833322 2.29166667,7.5 Z" id="Vector" fill="#052F5F"></path>
                    <path d="M4.375,15 L4.375,13.3333333 C4.375,12.9916667 4.65833334,12.7083333 5,12.7083333 C5.34166666,12.7083333 5.625,12.9916667 5.625,13.3333333 L5.625,15 C5.625,15.3416667 5.34166666,15.625 5,15.625 C4.65833334,15.625 4.375,15.3416667 4.375,15 Z" id="Vector" fill="#052F5F" fill-rule="nonzero"></path>
                    <path d="M7.70833333,15 L7.70833333,13.3333333 C7.70833333,12.9916667 7.99166667,12.7083333 8.33333333,12.7083333 C8.675,12.7083333 8.95833333,12.9916667 8.95833333,13.3333333 L8.95833333,15 C8.95833333,15.3416667 8.675,15.625 8.33333333,15.625 C7.99166667,15.625 7.70833333,15.3416667 7.70833333,15 Z" id="Vector" fill="#052F5F" fill-rule="nonzero"></path>
                    <path d="M11.6666667,6.66666667 C11.325,6.66666667 11.0416667,6.38333333 11.0416667,6.04166667 C11.0416667,5.7 11.325,5.41666667 11.6666667,5.41666667 L15,5.41666667 C15.3416667,5.41666667 15.625,5.7 15.625,6.04166667 C15.625,6.38333333 15.3416667,6.66666667 15,6.66666667 L11.6666667,6.66666667 Z" id="Vector" fill="#052F5F" fill-rule="nonzero"></path>
                    <path d="M11.6666667,14.7916667 C11.325,14.7916667 11.0416667,14.5083333 11.0416667,14.1666667 C11.0416667,13.825 11.325,13.5416667 11.6666667,13.5416667 L15,13.5416667 C15.3416667,13.5416667 15.625,13.825 15.625,14.1666667 C15.625,14.5083333 15.3416667,14.7916667 15,14.7916667 L11.6666667,14.7916667 Z" id="Vector" fill="#052F5F" fill-rule="nonzero"></path>
                    <path d="M1.66666667,10.625 C1.325,10.625 1.04166667,10.3416667 1.04166667,10 C1.04166667,9.65833334 1.325,9.375 1.66666667,9.375 L18.3333333,9.375 C18.675,9.375 18.9583333,9.65833334 18.9583333,10 C18.9583333,10.3416667 18.675,10.625 18.3333333,10.625 L1.66666667,10.625 Z" id="Vector" fill="#052F5F" fill-rule="nonzero"></path>
                    <path d="M20,0 L20,20 L0,20 L0,0 L20,0 Z" id="Vector" opacity="0"></path>
                </g>
            </g>
        </g>
    </g>
</svg>