<?xml version="1.0" encoding="UTF-8"?>
<svg width="48px" height="35px" viewBox="0 0 48 35" version="1.1" xmlns="http://www.w3.org/2000/svg" xmlns:xlink="http://www.w3.org/1999/xlink">
    <title>819B6D14-6200-4653-BD29-B98F44924B2F@2x</title>
    <g id="Page-2" stroke="none" stroke-width="1" fill="none" fill-rule="evenodd">
        <g id="My-Account_Desktop" transform="translate(-425.000000, -386.000000)">
            <g id="Group-5-Copy" transform="translate(425.000000, 379.000000)">
                <rect id="Rectangle" fill="#D8D8D8" opacity="0" x="0" y="0" width="48" height="48"></rect>
                <g id="noun-laptop-4504500-copy-4" transform="translate(0.000000, 7.000000)" fill="#062F5F" fill-rule="nonzero">
                    <path d="M46.0146749,28.5020204 L44.9295581,28.5020204 L44.9295581,3.85613636 C44.9295581,1.72996772 43.2321497,0 41.1459971,0 L6.85330513,0 C4.76715256,0 3.06974412,1.72996772 3.06974412,3.85613636 L3.06974412,28.5020204 L1.98462729,28.5020204 C0.890265043,28.5020204 0,29.4093623 0,30.5247164 C0,32.9925939 1.96997416,35 4.39140437,35 L43.6085956,35 C46.0300258,35 48,32.9922383 48,30.5243608 C48,29.4093623 47.1093861,28.5020204 46.0150238,28.5020204 L46.0146749,28.5020204 Z M4.97700636,3.85613636 C4.97700636,2.80229702 5.81872417,1.94455803 6.85278181,1.94455803 L41.1454738,1.94455803 C42.179828,1.94455803 43.0210748,2.80224369 43.0210748,3.85613636 L43.0210748,28.5020204 L4.97700636,28.5020204 L4.97700636,3.85613636 Z M43.6082467,33.0551753 L4.39105548,33.0551753 C3.02177255,33.0551753 1.90761113,31.9197312 1.90761113,30.5240941 C1.90761113,30.4810356 1.94202244,30.4459642 1.98427056,30.4459642 L17.6866724,30.4459642 L17.7043887,30.5029115 C17.9353849,31.245666 18.6116619,31.7501844 19.3762414,31.7501844 L28.5562547,31.7501844 C29.2843497,31.7501844 29.9367892,31.2918287 30.1953995,30.5980282 L30.2522973,30.4455926 L46.0148817,30.4455926 C46.0571298,30.4455926 46.0915411,30.480664 46.0915411,30.5237225 C46.0915411,31.9199819 44.9777285,33.0551753 43.6084456,33.0551753 L43.6082467,33.0551753 Z" id="Shape"></path>
                </g>
            </g>
        </g>
    </g>
</svg>