<?xml version="1.0" encoding="UTF-8"?>
<svg width="27px" height="48px" viewBox="0 0 27 48" version="1.1" xmlns="http://www.w3.org/2000/svg" xmlns:xlink="http://www.w3.org/1999/xlink">
    <title>6CD166EF-5171-4812-BC28-308B73EAE1AE@2x</title>
    <g id="Page-2" stroke="none" stroke-width="1" fill="none" fill-rule="evenodd">
        <g id="My-Account_Desktop" transform="translate(-436.000000, -569.000000)" fill="#062F5F" fill-rule="nonzero">
            <g id="Group-6-Copy" transform="translate(425.000000, 569.000000)">
                <g id="noun-iphone-1314324-copy-5" transform="translate(11.000000, 0.000000)">
                    <path d="M0,3.59610407 C0,1.609936 1.62835596,0 3.63454763,0 L23.3654524,0 C25.372664,0 27,1.60892808 27,3.59610407 L27,44.4038959 C27,46.390064 25.371644,48 23.3654524,48 L3.63454763,48 C1.62733604,48 0,46.3910719 0,44.4038959 L0,3.59610407 Z M2.04428571,43.9713689 C2.04428571,45.0776407 2.93692006,45.9809524 4.03757071,45.9809524 L22.962536,45.9809524 C24.0646097,45.9809524 24.9557143,45.0812313 24.9557143,43.9713689 L24.9557143,4.0286311 C24.9557143,2.9223593 24.0645208,2.01904762 22.9652932,2.01904762 L19.4781651,2.01904762 C19.2057819,2.01904762 18.8639176,2.2126003 18.7218158,2.45139487 L17.741414,4.10047952 C17.6017492,4.33541417 17.2612724,4.53247669 16.9861053,4.53247669 L10.0138947,4.53247669 C9.73699327,4.53247669 9.40034092,4.33927409 9.25858601,4.10047952 L8.27818423,2.45139487 C8.13851944,2.21646022 7.79769574,2.01904762 7.52183489,2.01904762 L4.0347068,2.01904762 C2.93930369,2.01904762 2.04428571,2.91876867 2.04428571,4.0286311 L2.04428571,43.9713689 Z" id="Shape"></path>
                </g>
            </g>
        </g>
    </g>
</svg>