<?xml version="1.0" encoding="UTF-8"?>
<svg width="50px" height="36px" viewBox="0 0 50 36" version="1.1" xmlns="http://www.w3.org/2000/svg" xmlns:xlink="http://www.w3.org/1999/xlink">
    <title>33C1D120-A4BF-49AF-82DC-5B1143E33C98@2x</title>
    <g id="Page-2" stroke="none" stroke-width="1" fill="none" fill-rule="evenodd">
        <g id="My-Account_Desktop" transform="translate(-425.000000, -669.000000)">
            <g id="Group-7" transform="translate(425.000000, 662.000000)">
                <rect id="Rectangle" fill="#D8D8D8" opacity="0" x="0" y="0" width="48" height="48"></rect>
                <g id="Group-4" transform="translate(0.000000, 7.000000)" fill-rule="nonzero">
                    <g id="noun-laptop-4504500-copy-2" fill="#062F5F">
                        <path d="M43.0574932,26.8733336 L43.0574932,3.63578571 C43.0574932,1.63111242 41.4308101,0 39.4315806,0 L6.56775075,0 C4.5685212,0 2.94183811,1.63111242 2.94183811,3.63578571 L2.94183811,26.8733336 L1.90193449,26.8733336 C0.853170666,26.8733336 0,27.7288273 0,28.7804469 C0,31.1073028 1.8878919,33 4.20842919,33 L41.7915708,33 C44.1121081,33 46,31.1069675 46,28.7801116 C46,27.7288273 45.146495,26.8733336 44.0977312,26.8733336 L43.0574932,26.8733336 Z M4.76963109,3.63578571 C4.76963109,2.64216576 5.57627733,1.83344043 6.56724923,1.83344043 L39.431079,1.83344043 C40.4223351,1.83344043 41.22853,2.64211548 41.22853,3.63578571 L41.22853,26.8733336 L4.76963109,26.8733336 L4.76963109,3.63578571 Z M4.20809484,31.1663081 C2.89586536,31.1663081 1.82812733,30.0957465 1.82812733,28.7798602 C1.82812733,28.7392621 1.86110484,28.7061948 1.90159262,28.7061948 L16.9497277,28.7061948 L16.9667059,28.759888 C17.1880772,29.4601994 17.836176,29.9358881 18.568898,29.9358881 L27.3664108,29.9358881 C28.0641685,29.9358881 28.689423,29.5037242 28.9372579,28.8495694 L28.9917849,28.7058445 L44.0975949,28.7058445 C44.1380827,28.7058445 44.1710602,28.7389118 44.1710602,28.7795098 C44.1710602,30.0959829 43.1036565,31.1663081 41.791427,31.1663081 L4.20809484,31.1663081 Z" id="Shape"></path>
                    </g>
                    <g id="noun-iphone-1314324-copy-2" transform="translate(32.000000, 7.000000)">
                        <path d="M13.846194,-1 C14.7096555,-1 15.488935,-0.667141194 16.053912,-0.136526909 C16.6421487,0.415932487 17,1.18092752 17,2.02280854 L17,2.02280854 L17,24.9771915 C17,25.8186415 16.6420658,26.5837199 16.0536856,27.136314 C15.488573,27.6670557 14.7092204,28 13.846194,28 L13.846194,28 L2.153806,28 C1.29034449,28 0.511065003,27.6671412 -0.0539119634,27.1365269 C-0.642148734,26.5840675 -1,25.8190725 -1,24.9771915 L-1,24.9771915 L-1,2.02280854 C-1,1.18135852 -0.64206578,0.416280052 -0.0536856148,-0.136314016 C0.511426983,-0.667055683 1.29077963,-1 2.153806,-1 L2.153806,-1 Z" id="Shape" stroke="#FFFFFF" stroke-width="2" fill="#062F5F"></path>
                        <path d="M1.67272727,24.3409653 C1.67272727,24.9414777 2.16575118,25.4318182 2.7736676,25.4318182 L13.2263914,25.4318182 C13.8350938,25.4318182 14.3272727,24.9434268 14.3272727,24.3409653 L14.3272727,2.65903468 C14.3272727,2.0585223 13.8350446,1.56818182 13.2279142,1.56818182 L11.3018876,1.56818182 C11.1514436,1.56818182 10.9626236,1.67324712 10.8841373,1.80287087 L10.3426373,2.69803582 C10.265497,2.8255643 10.0774432,2.93253483 9.92546167,2.93253483 L6.07453833,2.93253483 C5.92159884,2.93253483 5.73565747,2.82765956 5.65736275,2.69803582 L5.11586273,1.80287087 C5.03872243,1.67534238 4.85047712,1.56818182 4.69811239,1.56818182 L2.77208579,1.56818182 C2.16706771,1.56818182 1.67272727,2.05657321 1.67272727,2.65903468 L1.67272727,24.3409653 Z" id="Path" fill="#FFFFFF"></path>
                    </g>
                </g>
            </g>
        </g>
    </g>
</svg>