<?xml version="1.0" encoding="UTF-8"?>
<svg width="18px" height="18px" viewBox="0 0 18 18" version="1.1" xmlns="http://www.w3.org/2000/svg" xmlns:xlink="http://www.w3.org/1999/xlink">
    <title>124DA79D-A58A-48E4-BEE0-18D5F4DCC8D5@1x</title>
    <g id="Final" stroke="none" stroke-width="1" fill="none" fill-rule="evenodd">
        <g id="Desktop---Landing-Chr-01" transform="translate(-625.000000, -824.000000)" fill="#1B1DC7" fill-rule="nonzero">
            <g id="Group-57" transform="translate(373.000000, 187.000000)">
                <g id="Group-50" transform="translate(0.000000, 219.000000)">
                    <g id="Group-31" transform="translate(0.000000, 32.000000)">
                        <g id="Group-51" transform="translate(100.000000, 0.000000)">
                            <g id="Group-58" transform="translate(1.000000, 383.000000)">
                                <g id="noun_Error_2190951" transform="translate(151.000000, 3.000000)">
                                    <path d="M9.0001602,13.531257 C9.52757521,13.531257 9.93299031,13.0977142 9.9498826,12.5815917 C9.96489798,12.0673461 9.50317523,11.6319265 9.0001602,11.6319265 C8.49714517,11.6319265 8.03354549,12.0654693 8.05043779,12.5815917 C8.05794548,12.8255769 8.14428388,13.0583012 8.31508376,13.2384748 C8.50089901,13.4317861 8.73739115,13.5162425 9.0001602,13.531257 C9.18597545,13.5406411 9.40182145,13.4411702 9.53132905,13.3116704 C9.66083665,13.1821706 9.76031351,12.9682144 9.7509289,12.7805335 C9.74154429,12.5872222 9.67772895,12.3845268 9.53132905,12.2493966 C9.37929839,12.1105127 9.20662159,12.0410708 9.0001602,12.0298099 C8.99265251,12.0298099 8.98514482,12.0298099 8.97763714,12.0279331 C9.0433294,12.0373172 9.11089858,12.0467012 9.17659084,12.0542085 C9.15406778,12.0504548 9.13717549,12.0467012 9.11652935,12.0373172 C9.17659084,12.0617157 9.23665234,12.087991 9.29671383,12.1123895 C9.28357538,12.1067591 9.27231385,12.0992519 9.26105232,12.0917446 C9.31172921,12.1311576 9.3624061,12.1705706 9.41308298,12.2099836 C9.39619069,12.1968459 9.38305223,12.1837083 9.36991378,12.166817 C9.40932914,12.2174908 9.4487445,12.2681647 9.48815985,12.3188385 C9.48065217,12.3075777 9.47314448,12.2963168 9.46751371,12.2831791 C9.4919137,12.343237 9.5181906,12.4032949 9.54259058,12.4633528 C9.5350829,12.4427079 9.52945213,12.4239398 9.52569829,12.4032949 C9.5350829,12.4689832 9.54446751,12.5365483 9.55197519,12.6022366 C9.55009827,12.5740845 9.55009827,12.5872222 9.55197519,12.55907 C9.54259058,12.6247583 9.53320597,12.6923235 9.52569829,12.7580118 C9.52945213,12.7354901 9.53320597,12.7185988 9.54259058,12.6979539 C9.5181906,12.7580118 9.4919137,12.8180697 9.46751371,12.8781275 C9.47314448,12.8649899 9.48065217,12.853729 9.48815985,12.8424682 C9.4487445,12.893142 9.40932914,12.9438158 9.36991378,12.9944897 C9.38305223,12.9775984 9.39619069,12.9644607 9.41308298,12.9513231 C9.3624061,12.9907361 9.31172921,13.0301491 9.26105232,13.069562 C9.27231385,13.0620548 9.28357538,13.0545476 9.29671383,13.0489171 C9.23665234,13.0733157 9.17659084,13.099591 9.11652935,13.1239895 C9.13717549,13.1164823 9.1559447,13.1108518 9.17659084,13.1070982 C9.11089858,13.1164823 9.0433294,13.1258663 8.97763714,13.1333735 C9.00579096,13.1314967 8.99265251,13.1314967 9.02080634,13.1333735 C8.95511408,13.1239895 8.88754489,13.1146055 8.82185263,13.1070982 C8.84437569,13.1108518 8.86126799,13.1146055 8.88191413,13.1239895 C8.82185263,13.099591 8.76179113,13.0733157 8.70172964,13.0489171 C8.71486809,13.0545476 8.72612962,13.0620548 8.73739115,13.069562 C8.68671426,13.0301491 8.63603738,12.9907361 8.58536049,12.9513231 C8.60225279,12.9644607 8.61539124,12.9775984 8.62852969,12.9944897 C8.58911433,12.9438158 8.54969898,12.893142 8.51028362,12.8424682 C8.51779131,12.853729 8.52529899,12.8649899 8.53092976,12.8781275 C8.50652978,12.8180697 8.48025287,12.7580118 8.45585289,12.6979539 C8.46336058,12.7185988 8.46899134,12.7373669 8.47274518,12.7580118 C8.46336058,12.6923235 8.45397597,12.6247583 8.44646828,12.55907 C8.4483452,12.5872222 8.4483452,12.5740845 8.44646828,12.6022366 C8.45585289,12.5365483 8.4652375,12.4689832 8.47274518,12.4032949 C8.46899134,12.4258166 8.4652375,12.4427079 8.45585289,12.4633528 C8.48025287,12.4032949 8.50652978,12.343237 8.53092976,12.2831791 C8.52529899,12.2963168 8.51779131,12.3075777 8.51028362,12.3188385 C8.54969898,12.2681647 8.58911433,12.2174908 8.62852969,12.166817 C8.61539124,12.1837083 8.60225279,12.1968459 8.58536049,12.2099836 C8.63603738,12.1705706 8.68671426,12.1311576 8.73739115,12.0917446 C8.72612962,12.0992519 8.71486809,12.1067591 8.70172964,12.1123895 C8.76179113,12.087991 8.82185263,12.0617157 8.88191413,12.0373172 C8.86126799,12.0448244 8.84249877,12.0504548 8.82185263,12.0542085 C8.88754489,12.0448244 8.95511408,12.0354404 9.02080634,12.0279331 C9.01329865,12.0279331 9.00579096,12.0298099 8.99828328,12.0298099 C8.80496033,12.0298099 8.60412971,12.1142663 8.46711442,12.2493966 C8.33760682,12.3788964 8.23812997,12.5928526 8.24751457,12.7805335 C8.26816071,13.187801 8.57972972,13.531257 9.0001602,13.531257 Z" id="Path"></path>
                                    <path d="M8.2493915,4.86603058 C8.2493915,5.421566 8.2493915,5.97710142 8.2493915,6.53076003 C8.2493915,7.4166138 8.2493915,8.30246758 8.2493915,9.18644454 C8.2493915,9.39101671 8.2493915,9.59558887 8.2493915,9.79828422 C8.2493915,10.1905373 8.5947451,10.5677759 9.0001602,10.5490078 C9.40745222,10.5302397 9.7509289,10.2186894 9.7509289,9.79828422 C9.7509289,9.24274881 9.7509289,8.68721339 9.7509289,8.13355478 C9.7509289,7.247701 9.7509289,6.36184723 9.7509289,5.47787026 C9.7509289,5.2732981 9.7509289,5.06872593 9.7509289,4.86603058 C9.7509289,4.47377753 9.4055753,4.09653895 9.0001602,4.11530704 C8.59286818,4.13219832 8.2493915,4.44374859 8.2493915,4.86603058 L8.2493915,4.86603058 Z" id="Path"></path>
                                    <path d="M16.4984626,9.00064047 C16.4984626,9.37600223 16.4721857,9.74948719 16.4233857,10.1210953 C16.4327703,10.055407 16.4421549,9.98784192 16.4496626,9.92215361 C16.3520627,10.6334642 16.1624936,11.3316371 15.8847092,11.9941506 C15.9091092,11.9340927 15.9353861,11.8740348 15.9597861,11.8139769 C15.6838786,12.4689832 15.3235096,13.0864533 14.8899407,13.649496 C14.929356,13.5988221 14.9687714,13.5481483 15.0081867,13.4974745 C14.570864,14.0623939 14.0640951,14.5710091 13.4991416,15.0064288 C13.5498185,14.9670158 13.6004954,14.9276028 13.6511723,14.8881898 C13.0880958,15.3217327 12.4705885,15.6802031 11.8155428,15.9579709 C11.8756043,15.9335723 11.9356658,15.907297 11.9957273,15.8828985 C11.3331739,16.1606662 10.634959,16.3502239 9.9236057,16.447818 C9.98929796,16.4384339 10.0568671,16.4290499 10.1225594,16.4215426 C9.37929839,16.5210135 8.62289892,16.5210135 7.87963791,16.4215426 C7.94533017,16.4309267 8.01289936,16.4403107 8.07859162,16.447818 C7.36723827,16.3502239 6.66902338,16.1606662 6.00647,15.8828985 C6.0665315,15.907297 6.12659299,15.9335723 6.18665449,15.9579709 C5.5316088,15.68208 4.91410154,15.3217327 4.35102502,14.8881898 C4.4017019,14.9276028 4.45237879,14.9670158 4.50305568,15.0064288 C3.93810223,14.5691323 3.42945644,14.0623939 2.99401059,13.4974745 C3.03342595,13.5481483 3.0728413,13.5988221 3.11225666,13.649496 C2.67868774,13.0864533 2.32019568,12.4689832 2.04241126,11.8139769 C2.06681124,11.8740348 2.09308815,11.9340927 2.11748813,11.9941506 C1.83970371,11.3316371 1.65013461,10.6334642 1.55253468,9.92215361 C1.56191929,9.98784192 1.5713039,10.055407 1.57881159,10.1210953 C1.47933474,9.37787904 1.47933474,8.62152508 1.57881159,7.87830878 C1.56942698,7.94399709 1.56004237,8.0115622 1.55253468,8.07725051 C1.65013461,7.36593996 1.83970371,6.66776707 2.11748813,6.00525355 C2.09308815,6.06531143 2.06681124,6.12536931 2.04241126,6.1854272 C2.31831876,5.53042091 2.67868774,4.9129508 3.11225666,4.34990815 C3.0728413,4.40058199 3.03342595,4.45125582 2.99401059,4.50192966 C3.43133336,3.9370102 3.93810223,3.428395 4.50305568,2.99297535 C4.45237879,3.03238834 4.4017019,3.07180132 4.35102502,3.11121431 C4.91410154,2.67767147 5.5316088,2.31920098 6.18665449,2.04143327 C6.12659299,2.06583178 6.0665315,2.09210711 6.00647,2.11650562 C6.66902338,1.83873791 7.36723827,1.64918022 8.07859162,1.55158616 C8.01289936,1.5609702 7.94533017,1.57035425 7.87963791,1.57786148 C8.62289892,1.47839061 9.37929839,1.47839061 10.1225594,1.57786148 C10.0568671,1.56847744 9.98929796,1.55909339 9.9236057,1.55158616 C10.634959,1.64918022 11.3331739,1.83873791 11.9957273,2.11650562 C11.9356658,2.09210711 11.8756043,2.06583178 11.8155428,2.04143327 C12.4705885,2.31732417 13.0880958,2.67767147 13.6511723,3.11121431 C13.6004954,3.07180132 13.5498185,3.03238834 13.4991416,2.99297535 C14.0640951,3.43027181 14.5727409,3.9370102 15.0081867,4.50192966 C14.9687714,4.45125582 14.929356,4.40058199 14.8899407,4.34990815 C15.3235096,4.9129508 15.6820016,5.53042091 15.9597861,6.1854272 C15.9353861,6.12536931 15.9091092,6.06531143 15.8847092,6.00525355 C16.1624936,6.66776707 16.3520627,7.36593996 16.4496626,8.07725051 C16.440278,8.0115622 16.4308934,7.94399709 16.4233857,7.87830878 C16.4721857,8.25179374 16.4965857,8.6252787 16.4984626,9.00064047 C16.4984626,9.39289351 16.8438162,9.77013209 17.2492313,9.751364 C17.6546464,9.73259592 18,9.42104565 18,9.00064047 C17.9981231,8.0734969 17.8592309,7.13509247 17.5720618,6.25299232 C17.2942774,5.39716748 16.8926162,4.5732484 16.3708319,3.83941614 C16.0968013,3.45279352 15.7964939,3.08306218 15.4680326,2.74148297 C15.1395712,2.40178057 14.7829561,2.09961434 14.4094487,1.81246259 C13.6924646,1.2625576 12.8928959,0.842152416 12.0445273,0.530602148 C11.1773894,0.211544644 10.252067,0.0426318479 9.33049843,0.00697247983 C8.39579139,-0.0305636971 7.44231514,0.0839216425 6.54326962,0.339167645 C5.68176254,0.583152795 4.84277852,0.962268182 4.09388674,1.4539921 C3.3487488,1.94383921 2.66554928,2.53878761 2.09871891,3.22757646 C1.80028836,3.59167737 1.52062701,3.97266957 1.27662719,4.37618347 C1.02887351,4.78720461 0.826165966,5.22074745 0.644104556,5.66367434 C0.291243266,6.51949917 0.0960434038,7.43162827 0.0247203772,8.35501822 C-0.0466026494,9.28779222 0.0378588295,10.2412111 0.259335596,11.1495866 C0.471427754,12.0260563 0.828042887,12.8818812 1.29727333,13.6532496 C1.75711915,14.4096036 2.33145721,15.1096533 2.99401059,15.6989712 C3.66407166,16.2939196 4.41484036,16.800658 5.23317824,17.1685126 C5.67050101,17.3655775 6.11720839,17.5382439 6.57893114,17.6677437 C7.05566926,17.8009971 7.541792,17.8835767 8.03166857,17.9417578 C8.96637561,18.0506127 9.91797493,17.9943085 10.8395435,17.8085044 C11.7292044,17.6283307 12.5963423,17.2998892 13.3884033,16.8569623 C14.161695,16.4252963 14.880556,15.8697608 15.4924325,15.229769 C16.1080629,14.5860236 16.6411087,13.8446841 17.0371391,13.0451635 C17.4425542,12.2306285 17.737231,11.3597892 17.8761232,10.4589209 C17.9512,9.97470426 17.9981231,9.48861077 17.9981231,8.99688685 C17.9981231,8.6046338 17.6527695,8.22739522 17.2473544,8.24616331 C16.8419393,8.26868502 16.4984626,8.58023528 16.4984626,9.00064047 Z" id="Path"></path>
                                </g>
                            </g>
                        </g>
                    </g>
                </g>
            </g>
        </g>
    </g>
</svg>