<?xml version="1.0" encoding="UTF-8"?>
<svg width="19px" height="19px" viewBox="0 0 19 19" version="1.1" xmlns="http://www.w3.org/2000/svg" xmlns:xlink="http://www.w3.org/1999/xlink">
    <title>7B2D821C-4268-4213-8ABB-C1A3C8839A9F@1x</title>
    <g id="Final---Revamp-Bureaus---Mobile-&amp;-Desktop--Copy-3" stroke="none" stroke-width="1" fill="none" fill-rule="evenodd">
        <g id="Mobile---Dashboard" transform="translate(-16.000000, -481.000000)">
            <g id="Group-39" transform="translate(-4.000000, 128.000000)">
                <g id="Group-17" transform="translate(4.000000, 56.000000)">
                    <g id="Group-31" transform="translate(16.000000, 296.000000)">
                        <g id="Credit_Factors_icon" transform="translate(0.000000, 1.000000)">
                            <rect id="Rectangle-Copy" fill="#FFFFFF" x="0" y="0" width="19" height="19" rx="3"></rect>
                            <g id="Score-trend" transform="translate(4.000000, 4.000000)">
                                <path d="M10.5882353,0 L10.5882353,9.58823529 C10.5882353,10.3679314 9.95616671,11 9.17647059,11 L0,11 L0,11" id="Rectangle" stroke="#1B1DC7" stroke-linecap="round" transform="translate(5.294118, 5.500000) scale(-1, 1) translate(-5.294118, -5.500000) "></path>
                                <polyline id="Path-9" stroke="#1B1DC7" points="3.17647059 7.90625 5.29411765 4.46875 8.82352941 6.53125 10.9411765 3.09375"></polyline>
                                <ellipse id="Oval" stroke="#D90368" stroke-width="0.705882353" fill="#FFFFFF" cx="3.17647059" cy="7.90625" rx="1" ry="1"></ellipse>
                                <ellipse id="Oval-Copy" stroke="#D90368" stroke-width="0.705882353" fill="#FFFFFF" cx="5.29411765" cy="4.46875" rx="1" ry="1"></ellipse>
                                <ellipse id="Oval-Copy-5" stroke="#D90368" stroke-width="0.705882353" fill="#FFFFFF" cx="8.82352941" cy="6.53125" rx="1" ry="1"></ellipse>
                                <ellipse id="Oval-Copy-6" stroke="#D90368" stroke-width="0.705882353" fill="#FFFFFF" cx="10.9411765" cy="3.09375" rx="1" ry="1"></ellipse>
                            </g>
                        </g>
                    </g>
                </g>
            </g>
        </g>
    </g>
</svg>