<?xml version="1.0" encoding="UTF-8"?>
<svg width="11px" height="10px" viewBox="0 0 11 10" version="1.1" xmlns="http://www.w3.org/2000/svg" xmlns:xlink="http://www.w3.org/1999/xlink">
    <title>510BE586-EACF-4211-8688-38A8D575D046@1x</title>
    <g id="New---Revamp-Bureaus---Mobile-&amp;-Desktop--Copy-3" stroke="none" stroke-width="1" fill="none" fill-rule="evenodd">
        <g id="Credit-Report-Styleguide" transform="translate(-293.000000, -3305.000000)" fill="#1B1DC7" fill-rule="nonzero">
            <g id="Group-9" transform="translate(153.000000, 3105.000000)">
                <g id="Hey-Jyoti...-Copy-4" transform="translate(0.000000, 94.000000)">
                    <g id="Download-Button" transform="translate(0.000000, 47.000000)">
                        <g id="score-details" transform="translate(82.075975, 0.000000)">
                            <g id="Group-32" transform="translate(0.000000, 55.000000)">
                                <g id="noun_Error_2190951" transform="translate(58.000000, 4.000000)">
                                    <path d="M5.000089,7.51736501 C5.29309734,7.51736501 5.51832795,7.27650787 5.52771256,6.98977319 C5.53605443,6.70408118 5.27954179,6.46218137 5.000089,6.46218137 C4.7206362,6.46218137 4.46308083,6.70303851 4.47246544,6.98977319 C4.47663638,7.1253205 4.52460215,7.25461177 4.61949098,7.35470824 C4.72272167,7.46210342 4.8541062,7.50902364 5.000089,7.51736501 C5.10331969,7.52257837 5.22323414,7.46731677 5.29518281,7.39537243 C5.36713147,7.3234281 5.42239639,7.20456354 5.41718272,7.10029638 C5.41196905,6.9929012 5.37651608,6.88029267 5.29518281,6.80522032 C5.21072133,6.72806262 5.11478977,6.68948377 5.000089,6.68322775 C4.99591806,6.68322775 4.99174712,6.68322775 4.98757619,6.68218507 C5.02407189,6.68739843 5.06161032,6.69261179 5.09810602,6.69678248 C5.08559321,6.69469713 5.0762086,6.69261179 5.06473853,6.68739843 C5.09810602,6.70095316 5.13147352,6.71555056 5.16484102,6.72910529 C5.15754188,6.72597728 5.15128547,6.72180659 5.14502907,6.71763591 C5.17318289,6.73953201 5.20133672,6.76142811 5.22949055,6.78332422 C5.22010594,6.77602552 5.2128068,6.76872681 5.20550766,6.75934277 C5.22740508,6.7874949 5.2493025,6.81564704 5.27119992,6.84379917 C5.26702898,6.83754314 5.26285804,6.83128711 5.25972984,6.82398841 C5.27328539,6.8573539 5.28788367,6.89071939 5.30143921,6.92408488 C5.29726828,6.91261549 5.29414007,6.90218878 5.2920546,6.89071939 C5.29726828,6.9272129 5.30248195,6.96474907 5.30665288,7.00124258 C5.30561015,6.9856025 5.30561015,6.9929012 5.30665288,6.97726113 C5.30143921,7.01375464 5.29622554,7.05129081 5.2920546,7.08778432 C5.29414007,7.07527226 5.29622554,7.06588822 5.30143921,7.05441883 C5.28788367,7.08778432 5.27328539,7.12114981 5.25972984,7.1545153 C5.26285804,7.1472166 5.26702898,7.14096057 5.27119992,7.13470454 C5.2493025,7.16285667 5.22740508,7.1910088 5.20550766,7.21916094 C5.2128068,7.20977689 5.22010594,7.20247819 5.22949055,7.19517949 C5.20133672,7.21707559 5.17318289,7.2389717 5.14502907,7.2608678 C5.15128547,7.25669711 5.15754188,7.25252643 5.16484102,7.24939841 C5.13147352,7.26295314 5.09810602,7.27755055 5.06473853,7.29110528 C5.0762086,7.28693459 5.08663595,7.28380658 5.09810602,7.28172123 C5.06161032,7.28693459 5.02407189,7.29214795 4.98757619,7.29631863 C5.0032172,7.29527596 4.99591806,7.29527596 5.01155908,7.29631863 C4.97506338,7.29110528 4.93752494,7.28589192 4.90102924,7.28172123 C4.91354205,7.28380658 4.92292666,7.28589192 4.93439674,7.29110528 C4.90102924,7.27755055 4.86766174,7.26295314 4.83429424,7.24939841 C4.84159338,7.25252643 4.84784979,7.25669711 4.8541062,7.2608678 C4.82595237,7.2389717 4.79779854,7.21707559 4.76964472,7.19517949 C4.77902933,7.20247819 4.78632847,7.20977689 4.79362761,7.21916094 C4.77173019,7.1910088 4.74983276,7.16285667 4.72793534,7.13470454 C4.73210628,7.14096057 4.73627722,7.1472166 4.73940542,7.1545153 C4.72584988,7.12114981 4.7112516,7.08778432 4.69769605,7.05441883 C4.70186699,7.06588822 4.70499519,7.07631493 4.70708066,7.08778432 C4.70186699,7.05129081 4.69665332,7.01375464 4.69248238,6.97726113 C4.69352511,6.9929012 4.69352511,6.9856025 4.69248238,7.00124258 C4.69769605,6.96474907 4.70290972,6.9272129 4.70708066,6.89071939 C4.70499519,6.90323145 4.70290972,6.91261549 4.69769605,6.92408488 C4.7112516,6.89071939 4.72584988,6.8573539 4.73940542,6.82398841 C4.73627722,6.83128711 4.73210628,6.83754314 4.72793534,6.84379917 C4.74983276,6.81564704 4.77173019,6.7874949 4.79362761,6.75934277 C4.78632847,6.76872681 4.77902933,6.77602552 4.76964472,6.78332422 C4.79779854,6.76142811 4.82595237,6.73953201 4.8541062,6.71763591 C4.84784979,6.72180659 4.84159338,6.72597728 4.83429424,6.72910529 C4.86766174,6.71555056 4.90102924,6.70095316 4.93439674,6.68739843 C4.92292666,6.69156912 4.91249932,6.69469713 4.90102924,6.69678248 C4.93752494,6.69156912 4.97506338,6.68635576 5.01155908,6.68218507 C5.00738814,6.68218507 5.0032172,6.68322775 4.99904626,6.68322775 C4.89164463,6.68322775 4.78007206,6.73014797 4.70395246,6.80522032 C4.63200379,6.87716466 4.57673887,6.99602922 4.58195254,7.10029638 C4.59342262,7.32655611 4.76651651,7.51736501 5.000089,7.51736501 Z" id="Path"></path>
                                    <path d="M4.58299528,2.70335032 C4.58299528,3.01198111 4.58299528,3.3206119 4.58299528,3.62820001 C4.58299528,4.120341 4.58299528,4.61248199 4.58299528,5.1035803 C4.58299528,5.2172315 4.58299528,5.33088271 4.58299528,5.44349124 C4.58299528,5.6614096 4.77485839,5.87098658 5.000089,5.86055987 C5.22636234,5.85013315 5.41718272,5.67704967 5.41718272,5.44349124 C5.41718272,5.13486045 5.41718272,4.82622966 5.41718272,4.51864154 C5.41718272,4.02650056 5.41718272,3.53435957 5.41718272,3.04326126 C5.41718272,2.92961006 5.41718272,2.81595885 5.41718272,2.70335032 C5.41718272,2.48543196 5.22531961,2.27585497 5.000089,2.28628169 C4.77381565,2.29566573 4.58299528,2.46874922 4.58299528,2.70335032 L4.58299528,2.70335032 Z" id="Path"></path>
                                    <path d="M9.16581255,5.00035581 C9.16581255,5.20889013 9.15121427,5.41638177 9.12410318,5.62283075 C9.12931685,5.58633724 9.13453053,5.54880107 9.13870146,5.51230756 C9.08447928,5.90748009 8.97916311,6.29535392 8.82483844,6.66341699 C8.83839398,6.63005149 8.85299226,6.596686 8.86654781,6.56332051 C8.71326587,6.9272129 8.51306088,7.27025185 8.27218925,7.58305332 C8.29408667,7.55490119 8.31598409,7.52674905 8.33788151,7.49859692 C8.09492442,7.81244107 7.81338616,8.09500507 7.49952313,8.33690487 C7.52767696,8.31500877 7.55583078,8.29311267 7.58398461,8.27121656 C7.27116432,8.5120737 6.92810473,8.71122397 6.56419046,8.86553936 C6.59755796,8.85198463 6.63092545,8.83738723 6.66429295,8.8238325 C6.29620774,8.97814789 5.90831058,9.08345772 5.51311428,9.13767665 C5.54960998,9.13246329 5.58714841,9.12724993 5.62364411,9.12307924 C5.21072133,9.17834084 4.7904994,9.17834084 4.37757662,9.12307924 C4.41407232,9.1282926 4.45161075,9.13350596 4.48810645,9.13767665 C4.09291015,9.08345772 3.70501299,8.97814789 3.33692778,8.8238325 C3.37029528,8.83738723 3.40366277,8.85198463 3.43703027,8.86553936 C3.073116,8.71226664 2.73005641,8.5120737 2.41723612,8.27121656 C2.44538995,8.29311267 2.47354377,8.31500877 2.5016976,8.33690487 C2.18783457,8.09396239 1.90525358,7.81244107 1.66333922,7.49859692 C1.68523664,7.52674905 1.70713406,7.55490119 1.72903148,7.58305332 C1.48815985,7.27025185 1.2889976,6.9272129 1.13467292,6.56332051 C1.14822847,6.596686 1.16282675,6.63005149 1.1763823,6.66341699 C1.02205762,6.29535392 0.916741453,5.90748009 0.862519269,5.51230756 C0.86773294,5.54880107 0.872946612,5.58633724 0.877117549,5.62283075 C0.821852631,5.2099328 0.821852631,4.78973615 0.877117549,4.37683821 C0.871903877,4.41333171 0.866690206,4.45086789 0.862519269,4.4873614 C0.916741453,4.09218887 1.02205762,3.70431504 1.1763823,3.33625197 C1.16282675,3.36961746 1.14822847,3.40298295 1.13467292,3.43634844 C1.28795487,3.07245606 1.48815985,2.72941711 1.72903148,2.41661564 C1.70713406,2.44476777 1.68523664,2.4729199 1.66333922,2.50107204 C1.90629631,2.18722789 2.18783457,1.90466389 2.5016976,1.66276408 C2.47354377,1.68466019 2.44538995,1.70655629 2.41723612,1.72845239 C2.73005641,1.48759526 3.073116,1.28844499 3.43703027,1.13412959 C3.40366277,1.14768432 3.37029528,1.16228173 3.33692778,1.17583646 C3.70501299,1.02152106 4.09291015,0.916211233 4.48810645,0.861992311 C4.45161075,0.867205669 4.41407232,0.872419027 4.37757662,0.876589713 C4.7904994,0.821328119 5.21072133,0.821328119 5.62364411,0.876589713 C5.58714841,0.871376355 5.54960998,0.866162997 5.51311428,0.861992311 C5.90831058,0.916211233 6.29620774,1.02152106 6.66429295,1.17583646 C6.63092545,1.16228173 6.59755796,1.14768432 6.56419046,1.13412959 C6.92810473,1.28740232 7.27116432,1.48759526 7.58398461,1.72845239 C7.55583078,1.70655629 7.52767696,1.68466019 7.49952313,1.66276408 C7.81338616,1.90570656 8.09596716,2.18722789 8.33788151,2.50107204 C8.31598409,2.4729199 8.29408667,2.44476777 8.27218925,2.41661564 C8.51306088,2.72941711 8.71222313,3.07245606 8.86654781,3.43634844 C8.85299226,3.40298295 8.83839398,3.36961746 8.82483844,3.33625197 C8.97916311,3.70431504 9.08447928,4.09218887 9.13870146,4.4873614 C9.13348779,4.45086789 9.12827412,4.41333171 9.12410318,4.37683821 C9.15121427,4.58432985 9.16476982,4.7918215 9.16581255,5.00035581 C9.16581255,5.21827417 9.35767567,5.42785116 9.58290628,5.41742445 C9.80813689,5.40699773 10,5.23391425 10,5.00035581 C9.99895727,4.48527605 9.92179493,3.96394026 9.76225658,3.47388462 C9.6079319,2.99842638 9.38478676,2.54069356 9.09490662,2.13300897 C8.94266741,1.91821862 8.77582992,1.71281232 8.59335142,1.52304609 C8.41087292,1.33432254 8.2127534,1.16645241 8.00524927,1.00692366 C7.60692477,0.701420887 7.16271995,0.467862453 6.69140404,0.294778971 C6.20966079,0.117524802 5.69559278,0.0236843599 5.18361024,0.0038735999 C4.66432855,-0.0169798317 4.13461952,0.0466231347 3.63514979,0.18842647 C3.15653474,0.323973775 2.69043251,0.534593434 2.27438152,0.807773389 C1.860416,1.07991067 1.48086071,1.41043756 1.16595495,1.79309803 C1.0001602,1.99537632 0.844792785,2.20703865 0.709237326,2.43121304 C0.571596397,2.65955812 0.458981092,2.90041525 0.357835864,3.14648574 C0.161801814,3.62194398 0.0533574466,4.12868237 0.0137335429,4.64167679 C-0.0258903608,5.15988457 0.0210326831,5.68956173 0.144075331,6.19421477 C0.261904308,6.6811424 0.460023826,7.15660064 0.720707403,7.58513866 C0.976177308,8.00533531 1.29525401,8.39425181 1.66333922,8.72165069 C2.03559536,9.05217758 2.45268909,9.3336989 2.90732124,9.53806253 C3.15027834,9.64754305 3.3984491,9.74346883 3.65496174,9.81541317 C3.91981626,9.88944286 4.18988444,9.93532041 4.4620381,9.96764322 C4.98131978,10.0281182 5.50998607,9.99683803 6.02196862,9.89361354 C6.51622468,9.79351707 6.99796793,9.61104954 7.43800181,9.36497905 C7.86760834,9.12516459 8.26697558,8.8165338 8.60690697,8.46098279 C8.94892382,8.10334644 9.24506036,7.69149116 9.4650773,7.24731307 C9.69030791,6.7947936 9.8540172,6.31099399 9.93117954,5.81051163 C9.97288891,5.54150236 9.99895727,5.27145043 9.99895727,4.99827047 C9.99895727,4.78035211 9.80709415,4.57077512 9.58186354,4.58120184 C9.35663293,4.5937139 9.16581255,4.76679738 9.16581255,5.00035581 Z" id="Path"></path>
                                </g>
                            </g>
                        </g>
                    </g>
                </g>
            </g>
        </g>
    </g>
</svg>