<?xml version="1.0" encoding="UTF-8"?>
<svg width="16px" height="16px" viewBox="0 0 16 16" version="1.1" xmlns="http://www.w3.org/2000/svg" xmlns:xlink="http://www.w3.org/1999/xlink">
    <title>1D1958E2-A031-4CB0-86A4-328F97F1B26F</title>
    <g id="Final-with-AA" stroke="none" stroke-width="1" fill="none" fill-rule="evenodd">
        <g id="Paisapal-Know-More" transform="translate(-348.000000, -1024.000000)">
            <g id="Group-12" transform="translate(348.000000, 710.000000)">
                <g id="Group-9" transform="translate(0.000000, 72.000000)">
                    <g id="Group-15-Copy-6" transform="translate(0.000000, 242.000000)">
                        <path d="M8,0 C3.584,0 0,3.584 0,8 C0,12.416 3.584,16 8,16 C12.416,16 16,12.416 16,8 C16,3.584 12.416,0 8,0 Z" id="🔹Icon-Color" fill="#0FA982" fill-rule="nonzero"></path>
                        <path d="M8,1.33333333 C4.32,1.33333333 1.33333333,4.32 1.33333333,8 C1.33333333,11.68 4.32,14.6666667 8,14.6666667 C11.68,14.6666667 14.6666667,11.68 14.6666667,8 C14.6666667,4.32 11.68,1.33333333 8,1.33333333 Z" id="🔹Icon-Color" fill="#FFFFFF"></path>
                        <path d="M10.3794067,6.04632977 C10.6283733,5.80677897 11.0288057,5.80677897 11.2777723,6.04632977 C11.5296315,6.28866375 11.5296315,6.68264559 11.2777723,6.92497957 L11.2777723,6.92497957 L7.43840467,10.6191286 C7.1943943,10.8600891 6.7879754,10.8600891 6.5387995,10.6203369 L6.5387995,10.6203369 L4.72222771,8.87246697 C4.47036854,8.63013298 4.47036854,8.23615114 4.72222771,7.99381716 C4.97119431,7.75426636 5.37162669,7.75426636 5.62042676,7.99365721 L5.62042676,7.99365721 L6.99066667,9.30666667 Z" id="Path" fill="#0FA982" fill-rule="nonzero"></path>
                    </g>
                </g>
            </g>
        </g>
    </g>
</svg>