<?xml version="1.0" encoding="UTF-8"?>
<svg width="16px" height="16px" viewBox="0 0 16 16" version="1.1" xmlns="http://www.w3.org/2000/svg" xmlns:xlink="http://www.w3.org/1999/xlink">
    <title>546139FB-6269-4508-A5B2-7F26F35F7647@1x</title>
    <g id="No-Hit-&amp;-No-Score-final" stroke="none" stroke-width="1" fill="none" fill-rule="evenodd">
        <g id="Desktop----My-Profile-" transform="translate(-466.000000, -505.000000)">
            <g id="Group-17" transform="translate(442.000000, 170.000000)">
                <g id="Group-14" transform="translate(24.000000, 32.000000)">
                    <g id="Group-11" transform="translate(0.000000, 54.000000)">
                        <g id="Input-Copy-7" transform="translate(0.000000, 220.000000)">
                            <g id="Address" transform="translate(0.000000, 29.000000)">
                                <path d="M16,0 L16,16 L0,16 L0,0 L16,0 Z" id="Vector" opacity="0"></path>
                                <line x1="1.33333333" y1="14.6666667" x2="14.6666667" y2="14.6666667" id="Vector" stroke="#69829F" stroke-linecap="round" stroke-linejoin="round" stroke-dasharray="0,0"></line>
                                <path d="M2.00667318,14.6732419 L2,4.71324062 C2,4.26657395 2.22667642,3.85321784 2.5933431,3.60655117 L5.26000977,1.82656248 C5.70667644,1.52656249 6.29332356,1.52656249 6.73999023,1.82656248 L9.4066569,3.60655117 C9.77999024,3.85321784 10,4.26657395 10,4.71324062 L10.0066732,14.6598956 L2.00667318,14.6732419 Z" id="Vector" stroke="#69829F" stroke-linecap="round" stroke-linejoin="round" stroke-dasharray="0,0" fill-rule="nonzero"></path>
                                <line x1="13.319987" y1="14.6733398" x2="13.319987" y2="12" id="Vector" stroke="#69829F" stroke-linecap="round" stroke-linejoin="round" stroke-dasharray="0,0"></line>
                                <path d="M12,9.33333333 L12,10.6666667 C12,11.4 12.6,12 13.3333333,12 C14.0666667,12 14.6666667,11.4 14.6666667,10.6666667 L14.6666667,9.33333333 C14.6666667,8.59999998 14.0666667,8 13.3333333,8 C12.6,8 12,8.59999998 12,9.33333333 Z" id="Vector" stroke="#69829F" stroke-linecap="round" stroke-linejoin="round" stroke-dasharray="0,0" fill-rule="nonzero"></path>
                                <line x1="2" y1="9.33333333" x2="10" y2="9.33333333" id="Vector" stroke="#69829F" stroke-linecap="round" stroke-linejoin="round" stroke-dasharray="0,0"></line>
                                <line x1="6" y1="14.6666667" x2="6" y2="12.1666667" id="Vector" stroke="#69829F" stroke-linecap="round" stroke-linejoin="round" stroke-dasharray="0,0"></line>
                                <path d="M6,7 C5.44771524,7 5,6.55228476 5,6 C5,5.44771524 5.44771524,5 6,5 C6.55228476,5 7,5.44771524 7,6 C7,6.55228476 6.55228476,7 6,7 Z" id="Vector" stroke="#69829F" stroke-linecap="round" stroke-linejoin="round" stroke-dasharray="0,0"></path>
                            </g>
                        </g>
                    </g>
                </g>
            </g>
        </g>
    </g>
</svg>