<?xml version="1.0" encoding="UTF-8"?>
<svg width="16px" height="16px" viewBox="0 0 16 16" version="1.1" xmlns="http://www.w3.org/2000/svg" xmlns:xlink="http://www.w3.org/1999/xlink">
    <title>FC9C052F-6AC5-4247-B474-1FED305817C9@1x</title>
    <g id="No-Hit-&amp;-No-Score-final" stroke="none" stroke-width="1" fill="none" fill-rule="evenodd">
        <g id="Desktop----My-Profile-" transform="translate(-796.000000, -331.000000)">
            <g id="Group-17" transform="translate(442.000000, 170.000000)">
                <g id="Group-14" transform="translate(24.000000, 32.000000)">
                    <g id="Group-11" transform="translate(0.000000, 54.000000)">
                        <g id="Input-Copy-7" transform="translate(330.000000, 46.000000)">
                            <g id="Group-9" transform="translate(0.000000, 27.000000)">
                                <g id="cake" transform="translate(0.000000, 2.000000)">
                                    <line x1="1.33333333" y1="14.6666667" x2="14.6666667" y2="14.6666667" id="Vector" stroke="#69829F" stroke-linecap="round" stroke-linejoin="round" stroke-dasharray="0,0"></line>
                                    <path d="M2.07332357,14.6666667 L2.07332357,8.66666667 C2.07332357,7.56000002 3.06665699,6.66666667 4.29332368,6.66666667 L11.69999,6.66666667 C12.9266566,6.66666667 13.9199893,7.56000002 13.9199893,8.66666667 L13.9199893,14.6666667" id="Vector" stroke="#69829F" stroke-linecap="round" stroke-linejoin="round" stroke-dasharray="0,0" fill-rule="nonzero"></path>
                                    <path d="M3.70670573,6.66666667 L3.70670573,4.78000005 C3.70670573,3.98000002 4.42670576,3.33333333 5.32003911,3.33333333 L10.6867065,3.33333333 C11.5733732,3.33333333 12.2933731,3.98000002 12.2933731,4.78000005 L12.2933731,6.66666667" id="Vector" stroke="#69829F" stroke-linecap="round" stroke-linejoin="round" stroke-dasharray="0,0" fill-rule="nonzero"></path>
                                    <path d="M2.35335286,9.31998698 L2.60001961,9.3266538 C3.09335295,9.33332046 3.48668623,9.73332071 3.48668623,10.2266541 L3.48668623,10.446654 C3.48668623,10.9399873 3.88668617,11.3466543 4.38668617,11.3466543 C4.88001951,11.3466543 5.28668594,10.946654 5.28668594,10.446654 L5.28668594,10.2399871 C5.28668594,9.74665372 5.6866862,9.33998744 6.1866862,9.33998744 C6.68001954,9.33998744 7.08668645,9.73998706 7.08668645,10.2399871 L7.08668645,10.446654 C7.08668645,10.9399873 7.48668607,11.3466543 7.98668607,11.3466543 C8.48001941,11.3466543 8.88668633,10.946654 8.88668633,10.446654 L8.88668633,10.2399871 C8.88668633,9.74665372 9.28668658,9.33998744 9.78668658,9.33998744 C10.2800199,9.33998744 10.6866868,9.73998706 10.6866868,10.2399871 L10.6866868,10.446654 C10.6866868,10.9399873 11.0866858,11.3466543 11.5866858,11.3466543 C12.0800192,11.3466543 12.4866861,10.946654 12.4866861,10.446654 L12.4866861,10.2399871 C12.4866861,9.74665372 12.8866857,9.33998744 13.3866857,9.33998744 L13.6866862,9.33998744" id="Vector" stroke="#69829F" stroke-linecap="round" stroke-linejoin="round" stroke-dasharray="0,0" fill-rule="nonzero"></path>
                                    <line x1="5.33333333" y1="3.33333333" x2="5.33333333" y2="2" id="Vector" stroke="#69829F" stroke-linecap="round" stroke-linejoin="round" stroke-dasharray="0,0"></line>
                                    <line x1="10.6666667" y1="3.33333333" x2="10.6666667" y2="2" id="Vector" stroke="#69829F" stroke-linecap="round" stroke-linejoin="round" stroke-dasharray="0,0"></line>
                                    <line x1="8" y1="3.33333333" x2="8" y2="1.33333333" id="Vector" stroke="#69829F" stroke-linecap="round" stroke-linejoin="round" stroke-dasharray="0,0"></line>
                                    <path d="M16,0 L16,16 L0,16 L0,0 L16,0 Z" id="Vector" opacity="0"></path>
                                </g>
                            </g>
                        </g>
                    </g>
                </g>
            </g>
        </g>
    </g>
</svg>