<?xml version="1.0" encoding="UTF-8"?>
<svg width="16px" height="16px" viewBox="0 0 16 16" version="1.1" xmlns="http://www.w3.org/2000/svg" xmlns:xlink="http://www.w3.org/1999/xlink">
    <title>3A6EF697-9C8C-44BE-93AA-86C795511A4F@1x</title>
    <g id="No-Hit-&amp;-No-Score-final" stroke="none" stroke-width="1" fill="none" fill-rule="evenodd">
        <g id="Desktop----My-Profile-" transform="translate(-466.000000, -419.000000)">
            <g id="Group-17" transform="translate(442.000000, 170.000000)">
                <g id="Group-14" transform="translate(24.000000, 32.000000)">
                    <g id="Group-11" transform="translate(0.000000, 54.000000)">
                        <g id="Input-Copy-5" transform="translate(0.000000, 133.000000)">
                            <g id="Group-9" transform="translate(0.000000, 27.000000)">
                                <g id="Email-Address" transform="translate(0.000000, 3.000000)">
                                    <path d="M4.66666667,13.6666667 C2.66666667,13.6666667 1.33333333,12.6666667 1.33333333,10.3333333 L1.33333333,5.66666667 C1.33333333,3.33333333 2.66666667,2.33333333 4.66666667,2.33333333 L11.3333333,2.33333333 C13.3333333,2.33333333 14.6666667,3.33333333 14.6666667,5.66666667 L14.6666667,10.3333333 C14.6666667,12.6666667 13.3333333,13.6666667 11.3333333,13.6666667 L4.66666667,13.6666667 Z" id="Vector" stroke="#052F5F" opacity="0.6" stroke-linecap="round" stroke-linejoin="round" stroke-dasharray="0,0" fill-rule="nonzero"></path>
                                    <path d="M11.3333333,6 L9.24666341,7.66666667 C8.55999676,8.21333333 7.43333006,8.21333333 6.74666341,7.66666667 L4.66666667,6" id="Vector" stroke="#052F5F" opacity="0.6" stroke-linecap="round" stroke-linejoin="round" stroke-dasharray="0,0" fill-rule="nonzero"></path>
                                    <path d="M16,0 L16,16 L0,16 L0,0 L16,0 Z" id="Vector" opacity="0"></path>
                                </g>
                            </g>
                        </g>
                    </g>
                </g>
            </g>
        </g>
    </g>
</svg>