<?xml version="1.0" encoding="UTF-8"?>
<svg width="16px" height="16px" viewBox="0 0 16 16" version="1.1" xmlns="http://www.w3.org/2000/svg" xmlns:xlink="http://www.w3.org/1999/xlink">
    <title>861614CD-ED4A-4351-B33C-AB56D0284AA2@1x</title>
    <g id="No-Hit-&amp;-No-Score-final" stroke="none" stroke-width="1" fill="none" fill-rule="evenodd">
        <g id="Desktop----My-Profile-" transform="translate(-466.000000, -773.000000)">
            <g id="Group-16" transform="translate(442.000000, 674.000000)">
                <g id="Group-15" transform="translate(24.000000, 24.000000)">
                    <g id="Input-Copy-5" transform="translate(0.000000, 45.000000)">
                        <g id="Group-9" transform="translate(0.000000, 27.000000)">
                            <g id="buliding" transform="translate(0.000000, 3.000000)">
                                <path d="M16,0 L16,16 L0,16 L0,0 L16,0 Z" id="Vector" opacity="0"></path>
                                <line x1="1.33333333" y1="14.6666667" x2="14.6666667" y2="14.6666667" id="Vector" stroke="#69829F" stroke-linecap="round" stroke-linejoin="round" stroke-dasharray="0,0"></line>
                                <path d="M4.66666667,1.33333333 C2.66666667,1.33333333 2,2.52666664 2,4 L2,14.6666667 L14,14.6666667 L14,4 C14,2.52666664 13.3333333,1.33333333 11.3333333,1.33333333 L4.66666667,1.33333333 Z" id="Vector" stroke="#69829F" stroke-linecap="round" stroke-linejoin="round" stroke-dasharray="0,0" fill-rule="nonzero"></path>
                                <line x1="4.66666667" y1="11" x2="6.66666667" y2="11" id="Vector" stroke="#69829F" stroke-linecap="round" stroke-linejoin="round" stroke-dasharray="0,0"></line>
                                <line x1="9.33333333" y1="11" x2="11.3333333" y2="11" id="Vector" stroke="#69829F" stroke-linecap="round" stroke-linejoin="round" stroke-dasharray="0,0"></line>
                                <line x1="4.66666667" y1="8" x2="6.66666667" y2="8" id="Vector" stroke="#69829F" stroke-linecap="round" stroke-linejoin="round" stroke-dasharray="0,0"></line>
                                <line x1="9.33333333" y1="8" x2="11.3333333" y2="8" id="Vector" stroke="#69829F" stroke-linecap="round" stroke-linejoin="round" stroke-dasharray="0,0"></line>
                                <line x1="4.66666667" y1="5" x2="6.66666667" y2="5" id="Vector" stroke="#69829F" stroke-linecap="round" stroke-linejoin="round" stroke-dasharray="0,0"></line>
                                <line x1="9.33333333" y1="5" x2="11.3333333" y2="5" id="Vector" stroke="#69829F" stroke-linecap="round" stroke-linejoin="round" stroke-dasharray="0,0"></line>
                                <path d="M16,0 L16,16 L0,16 L0,0 L16,0 Z" id="Vector" opacity="0"></path>
                            </g>
                        </g>
                    </g>
                </g>
            </g>
        </g>
    </g>
</svg>