<?xml version="1.0" encoding="UTF-8"?>
<svg width="16px" height="16px" viewBox="0 0 16 16" version="1.1" xmlns="http://www.w3.org/2000/svg" xmlns:xlink="http://www.w3.org/1999/xlink">
    <title>1D45346C-15AD-4CAF-8C64-1531506160CE@1x</title>
    <g id="No-Hit-&amp;-No-Score-final" stroke="none" stroke-width="1" fill="none" fill-rule="evenodd">
        <g id="Desktop----My-Profile-" transform="translate(-798.000000, -859.000000)">
            <g id="Group-16" transform="translate(442.000000, 674.000000)">
                <g id="Group-15" transform="translate(24.000000, 24.000000)">
                    <g id="Group-10" transform="translate(332.000000, 132.000000)">
                        <g id="money" transform="translate(0.000000, 29.000000)">
                            <path d="M16,0 L16,16 L0,16 L0,0 L16,0 Z" id="Vector" opacity="0"></path>
                            <path d="M4.66666667,13.6666667 C2.66666667,13.6666667 1.33333333,12.6666667 1.33333333,10.3333333 L1.33333333,5.66666667 C1.33333333,3.33333333 2.66666667,2.33333333 4.66666667,2.33333333 L11.3333333,2.33333333 C13.3333333,2.33333333 14.6666667,3.33333333 14.6666667,5.66666667 L14.6666667,10.3333333 C14.6666667,12.6666667 13.3333333,13.6666667 11.3333333,13.6666667 L4.66666667,13.6666667 Z" id="Vector" stroke="#69829F" stroke-linecap="round" stroke-linejoin="round" stroke-dasharray="0,0" fill-rule="nonzero"></path>
                            <path d="M8,10 C6.89543049,10 6,9.10456951 6,8 C6,6.89543049 6.89543049,6 8,6 C9.10456951,6 10,6.89543049 10,8 C10,9.10456951 9.10456951,10 8,10 Z" id="Vector" stroke="#69829F" stroke-linecap="round" stroke-linejoin="round" stroke-dasharray="0,0"></path>
                            <line x1="3.66666667" y1="6.33333333" x2="3.66666667" y2="9.66666667" id="Vector" stroke="#69829F" stroke-linecap="round" stroke-linejoin="round" stroke-dasharray="0,0"></line>
                            <line x1="12.3333333" y1="6.33333333" x2="12.3333333" y2="9.66666667" id="Vector" stroke="#69829F" stroke-linecap="round" stroke-linejoin="round" stroke-dasharray="0,0"></line>
                        </g>
                    </g>
                </g>
            </g>
        </g>
    </g>
</svg>