<?xml version="1.0" encoding="UTF-8"?>
<svg width="14px" height="18px" viewBox="0 0 14 18" version="1.1" xmlns="http://www.w3.org/2000/svg" xmlns:xlink="http://www.w3.org/1999/xlink">
    <title>D8F6E4EB-B96F-496A-B946-09126B09DD0D@1x</title>
    <g id="No-Hit-&amp;-No-Score-final" stroke="none" stroke-width="1" fill="none" fill-rule="evenodd" opacity="0.6" stroke-dasharray="0,0" stroke-linecap="round" stroke-linejoin="round">
        <g id="Desktop----My-Profile-" transform="translate(-795.000000, -418.000000)" stroke="#052F5F">
            <g id="Group-17" transform="translate(442.000000, 170.000000)">
                <g id="Group-14" transform="translate(24.000000, 32.000000)">
                    <g id="Group-11" transform="translate(0.000000, 54.000000)">
                        <g id="Input-Copy-6" transform="translate(330.000000, 133.000000)">
                            <g id="Group-9" transform="translate(0.000000, 27.000000)">
                                <g id="mobile" transform="translate(0.000000, 3.000000)">
                                    <path d="M12,12 C12,15.2 11.25,16 8.25,16 L3.75,16 C0.75,16 0,15.2 0,12 L0,4 C0,0.8 0.75,0 3.75,0 L8.25,0 C11.25,0 12,0.8 12,4 L12,12 Z" id="Vector" fill-rule="nonzero"></path>
                                    <line x1="7.5" y1="2.8" x2="4.5" y2="2.8" id="Vector"></line>
                                    <path d="M5.99996352,13.6800003 C5.35793249,13.6800003 4.83746338,13.1248325 4.83746338,12.4399994 C4.83746338,11.7551663 5.35793249,11.2 5.99996352,11.2 C6.64199455,11.2 7.16246367,11.7551663 7.16246367,12.4399994 C7.16246367,13.1248325 6.64199455,13.6800003 5.99996352,13.6800003 Z" id="Vector"></path>
                                </g>
                            </g>
                        </g>
                    </g>
                </g>
            </g>
        </g>
    </g>
</svg>