<?xml version="1.0" encoding="UTF-8"?>
<svg width="16px" height="16px" viewBox="0 0 16 16" version="1.1" xmlns="http://www.w3.org/2000/svg" xmlns:xlink="http://www.w3.org/1999/xlink">
    <title>C4201FDF-8FBD-4C5B-8F9A-28FD5627DC32@1x</title>
    <g id="No-Hit-&amp;-No-Score-final" stroke="none" stroke-width="1" fill="none" fill-rule="evenodd">
        <g id="Desktop----My-Profile-" transform="translate(-466.000000, -332.000000)">
            <g id="Group-17" transform="translate(442.000000, 170.000000)">
                <g id="Group-14" transform="translate(24.000000, 32.000000)">
                    <g id="Group-11" transform="translate(0.000000, 54.000000)">
                        <g id="Input-Copy-5" transform="translate(0.000000, 46.000000)">
                            <g id="Group-9" transform="translate(0.000000, 27.000000)">
                                <g id="user" transform="translate(0.000000, 3.000000)">
                                    <path d="M8,8 C6.15905078,8 4.66666667,6.50761588 4.66666667,4.66666667 C4.66666667,2.82571745 6.15905078,1.33333333 8,1.33333333 C9.84094922,1.33333333 11.3333333,2.82571745 11.3333333,4.66666667 C11.3333333,6.50761588 9.84094922,8 8,8 Z" id="Vector" stroke-opacity="0.6" stroke="#052F5F" stroke-linecap="round" stroke-linejoin="round" stroke-dasharray="0,0"></path>
                                    <path d="M13.7266032,14.6666667 C13.7266032,12.0866667 11.1599388,10 7.99993896,10 C4.83993912,10 2.27327474,12.0866667 2.27327474,14.6666667" id="Vector" stroke-opacity="0.6" stroke="#052F5F" stroke-linecap="round" stroke-linejoin="round" stroke-dasharray="0,0" fill-rule="nonzero"></path>
                                    <path d="M16,0 L16,16 L0,16 L0,0 L16,0 Z" id="Vector" opacity="0"></path>
                                </g>
                            </g>
                        </g>
                    </g>
                </g>
            </g>
        </g>
    </g>
</svg>