<?xml version="1.0" encoding="UTF-8"?>
<svg width="109px" height="32px" viewBox="0 0 109 32" version="1.1" xmlns="http://www.w3.org/2000/svg" xmlns:xlink="http://www.w3.org/1999/xlink">
    <title>BD20B0C7-AD1F-4038-8141-617E1F546174@2x</title>
    <g id="Final---Revamp-Bureaus---Mobile-&amp;-Desktop--Copy-3" stroke="none" stroke-width="1" fill="none" fill-rule="evenodd">
        <g id="Mobile---Hamburger-drawer-with-men-icon" transform="translate(-149.000000, -787.000000)" fill-rule="nonzero">
            <g id="Group-59" transform="translate(0.000000, 707.000000)">
                <g id="Download-app" transform="translate(24.000000, 16.000000)">
                    <g id="Group-58" transform="translate(0.000000, 64.000000)">
                        <g id="Group" transform="translate(125.000000, 0.000000)">
                            <g>
                                <path d="M104.940682,31.550702 L4.10746344,31.550702 C2.05373172,31.550702 0.400728141,29.9032761 0.400728141,27.8564743 L0.400728141,4.09360374 C0.400728141,2.04680187 2.05373172,0.399375975 4.10746344,0.399375975 L104.890591,0.399375975 C106.944323,0.399375975 108.597326,2.04680187 108.597326,4.09360374 L108.597326,27.9063963 C108.647417,29.9032761 106.994414,31.550702 104.940682,31.550702 Z" id="Path" fill="#000000"></path>
                                <path d="M104.940682,32 L4.10746344,32 C1.85336765,32 0,30.1528861 0,27.9063963 L0,4.09360374 C0,1.84711388 1.85336765,0 4.10746344,0 L104.890591,0 C107.144687,0 108.999046,1.84711388 108.999046,4.09360374 L108.999046,27.9063963 C109.048145,30.1528861 107.194778,32 104.940682,32 Z M4.10746344,0.79875195 C2.30418681,0.79875195 0.801456282,2.24648986 0.801456282,4.09360374 L0.801456282,27.9063963 C0.801456282,29.7035881 2.25409579,31.201248 4.10746344,31.201248 L104.890591,31.201248 C106.693867,31.201248 108.196598,29.7535101 108.196598,27.9063963 L108.196598,4.09360374 C108.196598,2.29641186 106.743959,0.79875195 104.890591,0.79875195 L4.10746344,0.79875195 Z" id="Shape" fill="#A7A9AC"></path>
                            </g>
                            <g transform="translate(34.863348, 5.042122)" fill="#FFFFFF">
                                <path d="M1.45263951,4.04368175 L1.00182035,5.54134165 L0,5.54134165 L1.7030946,0.299531981 L2.95537004,0.299531981 L4.65846464,5.54134165 L3.60655327,5.54134165 L3.10564309,4.04368175 L1.45263951,4.04368175 Z M2.95537004,3.34477379 L2.5546419,2.04680187 C2.45445986,1.74726989 2.35427783,1.34789392 2.30418681,1.04836193 L2.30418681,1.04836193 C2.20400477,1.34789392 2.15391376,1.69734789 2.05373172,2.04680187 L1.65300358,3.34477379 L2.95537004,3.34477379 Z" id="Shape"></path>
                                <path d="M6.06101313,1.74726989 L6.66210534,3.69422777 C6.76228738,4.04368175 6.86246941,4.34321373 6.91256043,4.64274571 L6.91256043,4.64274571 C6.96265145,4.34321373 7.06283348,4.04368175 7.16301552,3.69422777 L7.76410773,1.74726989 L8.76592808,1.74726989 L7.31328857,5.54134165 L6.36155924,5.54134165 L4.95901074,1.74726989 L6.06101313,1.74726989 Z" id="Path"></path>
                                <path d="M12.6730275,4.64274571 C12.6730275,4.99219969 12.6730275,5.34165367 12.7231185,5.54134165 L11.8715712,5.54134165 L11.8214802,5.14196568 L11.8214802,5.14196568 C11.5710251,5.44149766 11.2203879,5.64118565 10.7194778,5.64118565 C9.9681125,5.64118565 9.51729334,5.09204368 9.51729334,4.49297972 C9.51729334,3.54446178 10.3688406,3.04524181 11.7713891,3.04524181 L11.7713891,2.99531981 C11.7713891,2.74570983 11.6712071,2.34633385 11.0200239,2.34633385 C10.6693867,2.34633385 10.2686586,2.44617785 10.0182035,2.64586583 L9.81783945,2.04680187 C10.1183856,1.89703588 10.5692047,1.69734789 11.1702969,1.69734789 C12.3724813,1.69734789 12.7231185,2.44617785 12.7231185,3.29485179 L12.7231185,4.64274571 L12.6730275,4.64274571 Z M11.7713891,3.69422777 C11.0701149,3.69422777 10.4189317,3.84399376 10.4189317,4.39313573 C10.4189317,4.7425897 10.6693867,4.94227769 10.9699329,4.94227769 C11.370661,4.94227769 11.6211161,4.69266771 11.7212981,4.44305772 C11.7212981,4.39313573 11.7212981,4.29329173 11.7212981,4.24336973 L11.7212981,3.69422777 L11.7713891,3.69422777 Z" id="Shape"></path>
                                <path d="M14.5263951,1.19812793 C14.225849,1.19812793 13.9753939,0.948517941 13.9753939,0.698907956 C13.9753939,0.399375975 14.175758,0.199687988 14.5263951,0.199687988 C14.8770322,0.199687988 15.0773963,0.449297972 15.0773963,0.698907956 C15.0773963,0.948517941 14.8770322,1.19812793 14.5263951,1.19812793 L14.5263951,1.19812793 Z M14.0254849,5.54134165 L14.0254849,1.74726989 L14.9772143,1.74726989 L14.9772143,5.54134165 L14.0254849,5.54134165 Z" id="Shape"></path>
                                <polygon id="Path" points="16.3797628 0 17.3314921 0 17.3314921 5.54134165 16.3797628 5.54134165 16.3797628 0"></polygon>
                                <path d="M21.6894106,4.64274571 C21.6894106,4.99219969 21.6894106,5.34165367 21.7395016,5.54134165 L20.8879543,5.54134165 L20.8378633,5.14196568 L20.8378633,5.14196568 C20.5874082,5.44149766 20.2367711,5.64118565 19.7358609,5.64118565 C18.9844957,5.64118565 18.5336765,5.09204368 18.5336765,4.49297972 C18.5336765,3.54446178 19.3852238,3.04524181 20.7877723,3.04524181 L20.7877723,2.99531981 C20.7877723,2.74570983 20.6875903,2.34633385 20.036407,2.34633385 C19.6857699,2.34633385 19.2850418,2.44617785 19.0345867,2.64586583 L18.8342226,2.04680187 C19.1347687,1.89703588 19.5855879,1.69734789 20.1866801,1.69734789 C21.3888645,1.69734789 21.7395016,2.44617785 21.7395016,3.29485179 L21.7395016,4.64274571 L21.6894106,4.64274571 Z M20.7877723,3.69422777 C20.0864981,3.69422777 19.4353148,3.84399376 19.4353148,4.39313573 C19.4353148,4.7425897 19.6857699,4.94227769 19.986316,4.94227769 C20.3870442,4.94227769 20.6374993,4.69266771 20.7376813,4.44305772 C20.7376813,4.39313573 20.7376813,4.29329173 20.7376813,4.24336973 L20.7376813,3.69422777 L20.7877723,3.69422777 Z" id="Shape"></path>
                                <path d="M23.0418681,0 L23.9935974,0 L23.9935974,2.24648986 L23.9935974,2.24648986 C24.2440525,1.89703588 24.6447807,1.6474259 25.1957819,1.6474259 C26.1475112,1.6474259 26.7986944,2.39625585 26.7986944,3.59438378 C26.7986944,4.94227769 25.9471471,5.64118565 25.0955998,5.64118565 C24.5946896,5.64118565 24.1438705,5.44149766 23.8934154,4.99219969 L23.8934154,4.99219969 L23.8433244,5.54134165 L23.0418681,5.54134165 C23.0418681,5.29173167 23.0919591,4.8424337 23.0919591,4.49297972 L23.0919591,0 L23.0418681,0 Z M24.0436884,3.99375975 C24.0436884,4.09360374 24.0436884,4.14352574 24.0436884,4.24336973 C24.1438705,4.64274571 24.4945076,4.89235569 24.8952357,4.89235569 C25.496328,4.89235569 25.8469651,4.39313573 25.8469651,3.64430577 C25.8469651,2.99531981 25.546419,2.44617785 24.8952357,2.44617785 C24.4945076,2.44617785 24.1438705,2.74570983 24.0436884,3.1450858 C24.0436884,3.1950078 23.9935974,3.29485179 23.9935974,3.39469579 L23.9935974,3.99375975 L24.0436884,3.99375975 Z" id="Shape"></path>
                                <polygon id="Path" points="28.0008788 0 28.9526082 0 28.9526082 5.54134165 28.0008788 5.54134165"></polygon>
                                <path d="M31.0063399,3.89391576 C31.0063399,4.59282371 31.5573411,4.89235569 32.1584333,4.89235569 C32.6092525,4.89235569 32.9097986,4.8424337 33.2103447,4.7425897 L33.3606177,5.39157566 C33.0099806,5.54134165 32.5591614,5.64118565 32.0081602,5.64118565 C30.7558848,5.64118565 30.0546106,4.89235569 30.0546106,3.74414977 C30.0546106,2.69578783 30.7057938,1.69734789 31.9079782,1.69734789 C33.1602537,1.69734789 33.5609818,2.69578783 33.5609818,3.54446178 C33.5609818,3.74414977 33.5609818,3.84399376 33.5108908,3.94383775 L31.0063399,3.94383775 L31.0063399,3.89391576 Z M32.7094345,3.2449298 C32.7094345,2.89547582 32.5591614,2.29641186 31.9079782,2.29641186 C31.306886,2.29641186 31.0564309,2.84555382 31.0063399,3.2449298 L32.7094345,3.2449298 Z" id="Shape"></path>
                                <path d="M38.3196285,5.64118565 C37.2677171,5.64118565 36.4161698,4.89235569 36.4161698,3.69422777 C36.4161698,2.44617785 37.2176261,1.69734789 38.3697195,1.69734789 C39.5218129,1.69734789 40.2731782,2.49609984 40.2731782,3.64430577 C40.2731782,4.99219969 39.3214488,5.64118565 38.3196285,5.64118565 L38.3196285,5.64118565 Z M38.3697195,4.94227769 C38.9207207,4.94227769 39.3214488,4.39313573 39.3214488,3.64430577 C39.3214488,3.04524181 39.0709937,2.34633385 38.4198105,2.34633385 C37.7185363,2.34633385 37.4680812,2.99531981 37.4680812,3.64430577 C37.4179901,4.39313573 37.7686273,4.94227769 38.3697195,4.94227769 L38.3697195,4.94227769 Z" id="Shape"></path>
                                <path d="M41.4252716,2.89547582 C41.4252716,2.44617785 41.4252716,2.09672387 41.3751805,1.74726989 L42.2267278,1.74726989 L42.2768189,2.29641186 L42.2768189,2.29641186 C42.4270919,1.99687988 42.8779111,1.6474259 43.4790033,1.6474259 C44.1301865,1.6474259 44.8314608,2.09672387 44.8314608,3.29485179 L44.8314608,5.54134165 L43.8797314,5.54134165 L43.8797314,3.39469579 C43.8797314,2.84555382 43.6793673,2.44617785 43.1283662,2.44617785 C42.727638,2.44617785 42.4771829,2.69578783 42.3770009,2.99531981 C42.3269099,3.09516381 42.3269099,3.1950078 42.3269099,3.29485179 L42.3269099,5.54134165 L41.3751805,5.54134165 L41.3751805,2.89547582 L41.4252716,2.89547582 Z" id="Path"></path>
                                <path d="M49.2895613,0.748829953 L49.2895613,1.74726989 L50.1911996,1.74726989 L50.1911996,2.44617785 L49.2895613,2.44617785 L49.2895613,4.09360374 C49.2895613,4.54290172 49.3897434,4.7925117 49.7904715,4.7925117 C49.9407445,4.7925117 50.0409266,4.7925117 50.1411086,4.7425897 L50.1411086,5.49141966 C49.9908356,5.54134165 49.7403805,5.59126365 49.4398344,5.59126365 C49.0891972,5.59126365 48.7886511,5.49141966 48.5882871,5.29173167 C48.387923,5.09204368 48.287741,4.7425897 48.287741,4.24336973 L48.287741,2.44617785 L47.7367398,2.44617785 L47.7367398,1.74726989 L48.287741,1.74726989 L48.287741,1.04836193 L49.2895613,0.748829953 Z" id="Path"></path>
                                <path d="M51.293202,0 L52.2449314,0 L52.2449314,2.24648986 L52.2449314,2.24648986 C52.3451134,2.04680187 52.5454775,1.89703588 52.7458415,1.79719189 C52.9462056,1.69734789 53.1465697,1.6474259 53.3970248,1.6474259 C54.048208,1.6474259 54.7494822,2.09672387 54.7494822,3.29485179 L54.7494822,5.54134165 L53.7977529,5.54134165 L53.7977529,3.39469579 C53.7977529,2.84555382 53.5973888,2.44617785 53.0463876,2.44617785 C52.6957505,2.44617785 52.3952044,2.69578783 52.2950224,2.99531981 C52.2449314,3.09516381 52.2449314,3.1950078 52.2449314,3.29485179 L52.2449314,5.54134165 L51.293202,5.54134165 L51.293202,0 Z" id="Path"></path>
                                <path d="M56.803214,3.89391576 C56.803214,4.59282371 57.3542152,4.89235569 57.9553074,4.89235569 C58.4061265,4.89235569 58.7066726,4.8424337 59.0072187,4.7425897 L59.1574918,5.39157566 C58.8068547,5.54134165 58.3560355,5.64118565 57.8050343,5.64118565 C56.5527589,5.64118565 55.8514846,4.89235569 55.8514846,3.74414977 C55.8514846,2.69578783 56.5026679,1.69734789 57.7048523,1.69734789 C58.9571277,1.69734789 59.3578559,2.69578783 59.3578559,3.54446178 C59.3578559,3.74414977 59.3578559,3.84399376 59.3077648,3.94383775 L56.803214,3.94383775 L56.803214,3.89391576 Z M58.4562175,3.2449298 C58.4562175,2.89547582 58.3059445,2.29641186 57.6547613,2.29641186 C57.053669,2.29641186 56.803214,2.84555382 56.7531229,3.2449298 L58.4562175,3.2449298 Z" id="Shape"></path>
                            </g>
                            <g transform="translate(10.294622, 4.742590)" fill="#FFFFFF">
                                <g id="Path">
                                    <path d="M14.049613,10.9329173 C14.049613,8.33697348 16.2035267,7.08892356 16.3037088,6.98907956 C15.1015244,5.19188768 13.1980657,4.99219969 12.4967914,4.94227769 C10.8938789,4.7925117 9.34105733,5.89079563 8.53960105,5.89079563 C7.68805375,5.89079563 6.48586933,4.94227769 5.13341185,4.99219969 C3.38022624,5.04212168 1.77731367,6.04056162 0.875675358,7.58814353 C-0.977692293,10.7332293 0.4248562,15.425897 2.17804182,17.9719189 C3.07968013,19.2199688 4.08150048,20.6177847 5.43395796,20.5678627 C6.73632442,20.5179407 7.23723459,19.7191888 8.84014716,19.7191888 C10.3929687,19.7191888 10.8938789,20.5678627 12.2463364,20.5179407 C13.6488848,20.5179407 14.5505232,19.2698908 15.4020705,17.9719189 C16.4038908,16.524181 16.804619,15.1263651 16.85471,15.0265211 C16.804619,15.0764431 14.099704,14.0280811 14.049613,10.9329173"></path>
                                    <path d="M11.4949711,3.29485179 C12.1962453,2.39625585 12.6971555,1.19812793 12.5468825,0 C11.5450621,0.0499219969 10.2426956,0.698907956 9.49133039,1.5475819 C8.84014716,2.29641186 8.23905495,3.54446178 8.389328,4.7425897 C9.5414214,4.8424337 10.7436058,4.14352574 11.4949711,3.29485179"></path>
                                </g>
                                <g transform="translate(23.967634, 9.585023)">
                                    <path d="M9.1165652,10.7831513 L7.26319755,10.7831513 L6.2613772,7.63806552 L2.75500597,7.63806552 L1.80327663,10.7831513 L0,10.7831513 L3.45628021,0.0998439938 L5.61019397,0.0998439938 L9.1165652,10.7831513 Z M5.96083109,6.29017161 L5.05919278,3.49453978 C4.95901074,3.1950078 4.75864667,2.54602184 4.50819158,1.49765991 L4.45810057,1.49765991 C4.35791853,1.94695788 4.15755446,2.64586583 3.95719039,3.49453978 L3.05555207,6.29017161 L5.96083109,6.29017161 Z" id="Shape"></path>
                                    <path d="M17.9826753,6.83931357 C17.9826753,8.13728549 17.6320382,9.18564743 16.9307639,9.93447738 C16.2795807,10.6333853 15.4781244,10.9329173 14.5764861,10.9329173 C13.5746658,10.9329173 12.8233005,10.5834633 12.3724813,9.83463339 L12.3223903,9.83463339 L12.3223903,13.8783151 L10.6192957,13.8783151 L10.6192957,5.59126365 C10.6192957,4.7425897 10.6192957,3.94383775 10.5692047,3.04524181 L12.0719352,3.04524181 L12.1721173,4.24336973 L12.2222083,4.24336973 C12.7732095,3.34477379 13.6748478,2.84555382 14.8269412,2.84555382 C15.7285795,2.84555382 16.4799448,3.1950078 17.131128,3.94383775 C17.6821292,4.69266771 17.9826753,5.64118565 17.9826753,6.83931357 M16.2294897,6.88923557 C16.2294897,6.14040562 16.0792166,5.54134165 15.7285795,5.04212168 C15.3779424,4.54290172 14.8770322,4.29329173 14.225849,4.29329173 C13.8251209,4.29329173 13.4243927,4.44305772 13.0737556,4.69266771 C12.7231185,4.99219969 12.5227544,5.34165367 12.3724813,5.79095164 C12.3223903,5.99063963 12.2722993,6.19032761 12.2722993,6.29017161 L12.2722993,7.58814353 C12.2722993,8.13728549 12.4225724,8.63650546 12.7732095,8.98595944 C13.1238466,9.38533541 13.5746658,9.5850234 14.125667,9.5850234 C14.7768502,9.5850234 15.2777604,9.33541342 15.6283975,8.83619345 C16.0792166,8.33697348 16.2294897,7.68798752 16.2294897,6.88923557" id="Shape"></path>
                                    <path d="M26.8988765,6.83931357 C26.8988765,8.13728549 26.5482393,9.18564743 25.8469651,9.93447738 C25.1957819,10.6333853 24.4444166,10.9329173 23.4926873,10.9329173 C22.4908669,10.9329173 21.7395016,10.5834633 21.2886825,9.83463339 L21.2385915,9.83463339 L21.2385915,13.8783151 L19.5354969,13.8783151 L19.5354969,5.59126365 C19.5354969,4.7425897 19.5354969,3.94383775 19.4854058,3.04524181 L20.9881364,3.04524181 L21.0883184,4.24336973 L21.1384094,4.24336973 C21.6894106,3.34477379 22.5910489,2.84555382 23.7431423,2.84555382 C24.6447807,2.84555382 25.3961459,3.1950078 26.0473292,3.94383775 C26.5983303,4.69266771 26.8988765,5.64118565 26.8988765,6.83931357 M25.1456908,6.88923557 C25.1456908,6.14040562 24.9954178,5.54134165 24.6447807,5.04212168 C24.2941435,4.54290172 23.7932334,4.29329173 23.1420501,4.29329173 C22.741322,4.29329173 22.3405938,4.44305772 21.9899567,4.69266771 C21.6393196,4.99219969 21.4389555,5.34165367 21.3387735,5.79095164 C21.2886825,5.99063963 21.2385915,6.19032761 21.2385915,6.29017161 L21.2385915,7.58814353 C21.2385915,8.13728549 21.3888645,8.63650546 21.7395016,8.98595944 C22.0901388,9.38533541 22.5409579,9.5850234 23.0919591,9.5850234 C23.7431423,9.5850234 24.2440525,9.33541342 24.5946896,8.83619345 C24.9453268,8.33697348 25.1456908,7.68798752 25.1456908,6.88923557" id="Shape"></path>
                                    <path d="M36.866989,7.78783151 C36.866989,8.68642746 36.5664428,9.43525741 35.9152596,10.0343214 C35.2139854,10.6833073 34.262256,10.9828393 33.0099806,10.9828393 C31.8578872,10.9828393 30.9061579,10.7831513 30.2048836,10.3338534 L30.6056118,8.88611544 C31.356977,9.33541342 32.2085243,9.5850234 33.1101626,9.5850234 C33.7613459,9.5850234 34.262256,9.43525741 34.6128932,9.13572543 C34.9635303,8.83619345 35.1638944,8.43681747 35.1638944,7.9875195 C35.1638944,7.53822153 35.0136213,7.18876755 34.7130752,6.88923557 C34.4125291,6.58970359 33.9116189,6.3400936 33.2103447,6.04056162 C31.306886,5.34165367 30.4052477,4.29329173 30.4052477,2.99531981 C30.4052477,2.09672387 30.7558848,1.39781591 31.407068,0.848673947 C32.0582513,0.299531981 32.9598896,0 34.011801,0 C35.0136213,0 35.8150776,0.149765991 36.4662608,0.499219969 L36.0154417,1.89703588 C35.4143494,1.5475819 34.7130752,1.39781591 33.9617099,1.39781591 C33.3606177,1.39781591 32.8597075,1.5475819 32.5591614,1.84711388 C32.2586153,2.09672387 32.1083423,2.44617785 32.1083423,2.79563183 C32.1083423,3.1950078 32.2586153,3.54446178 32.6092525,3.84399376 C32.9097986,4.09360374 33.4107087,4.39313573 34.162074,4.69266771 C35.0637123,5.04212168 35.7649866,5.49141966 36.2158057,5.99063963 C36.6165339,6.3900156 36.866989,7.03900156 36.866989,7.78783151" id="Path"></path>
                                    <path d="M42.5272739,4.34321373 L40.6238153,4.34321373 L40.6238153,8.08736349 C40.6238153,9.03588144 40.9744524,9.5351014 41.6256356,9.5351014 C41.9261817,9.5351014 42.1766368,9.48517941 42.3770009,9.43525741 L42.4270919,10.7332293 C42.0764548,10.8829953 41.6256356,10.9329173 41.0746344,10.9329173 C40.3733602,10.9329173 39.87245,10.7332293 39.4717219,10.3338534 C39.0709937,9.93447738 38.9207207,9.23556942 38.9207207,8.23712949 L38.9207207,4.34321373 L37.7686273,4.34321373 L37.7686273,3.04524181 L38.9207207,3.04524181 L38.9207207,1.6474259 L40.6238153,1.14820593 L40.6238153,3.04524181 L42.5272739,3.04524181 L42.5272739,4.34321373 L42.5272739,4.34321373 Z" id="Path"></path>
                                    <path d="M51.092838,6.83931357 C51.092838,8.0374415 50.7422008,8.98595944 50.0910176,9.78471139 C49.3897434,10.5834633 48.438014,10.9828393 47.2358296,10.9828393 C46.0837362,10.9828393 45.1820979,10.5834633 44.5309146,9.83463339 C43.8797314,9.08580343 43.5290943,8.13728549 43.5290943,6.98907956 C43.5290943,5.79095164 43.8797314,4.7925117 44.5810057,4.04368175 C45.2822799,3.29485179 46.2340092,2.89547582 47.3861027,2.89547582 C48.5381961,2.89547582 49.4398344,3.29485179 50.1411086,4.04368175 C50.7922918,4.7425897 51.092838,5.69110764 51.092838,6.83931357 M49.2895613,6.88923557 C49.2895613,6.19032761 49.1392883,5.59126365 48.8387422,5.04212168 C48.488105,4.44305772 47.9871949,4.09360374 47.2859206,4.09360374 C46.5846464,4.09360374 46.0837362,4.39313573 45.7330991,5.04212168 C45.432553,5.54134165 45.2822799,6.19032761 45.2822799,6.88923557 C45.2822799,7.58814353 45.432553,8.18720749 45.7330991,8.73634945 C46.0837362,9.33541342 46.6347374,9.6349454 47.2859206,9.6349454 C47.9371038,9.6349454 48.438014,9.33541342 48.8387422,8.68642746 C49.1392883,8.23712949 49.2895613,7.63806552 49.2895613,6.88923557" id="Shape"></path>
                                    <path d="M56.7030319,4.54290172 C56.5527589,4.49297972 56.3523948,4.49297972 56.1520307,4.49297972 C55.5509385,4.49297972 55.1001194,4.7425897 54.7494822,5.19188768 C54.4489361,5.59126365 54.2986631,6.09048362 54.2986631,6.73946958 L54.2986631,10.7831513 L52.5955685,10.7831513 L52.5955685,5.49141966 C52.5955685,4.59282371 52.5955685,3.79407176 52.5454775,3.04524181 L54.048208,3.04524181 L54.098299,4.54290172 L54.14839,4.54290172 C54.3487541,4.04368175 54.5992092,3.64430577 54.9999373,3.34477379 C55.4006655,3.04524181 55.8013936,2.94539782 56.2522128,2.94539782 C56.4024858,2.94539782 56.5527589,2.94539782 56.7030319,2.99531981 L56.7030319,4.54290172 L56.7030319,4.54290172 Z" id="Path"></path>
                                    <path d="M64.3669576,6.53978159 C64.3669576,6.83931357 64.3669576,7.08892356 64.3168666,7.33853354 L59.1574918,7.33853354 C59.1574918,8.08736349 59.4079469,8.68642746 59.9088571,9.08580343 C60.3596762,9.43525741 60.9106774,9.6349454 61.6119516,9.6349454 C62.3633169,9.6349454 63.0645912,9.5351014 63.7157744,9.28549142 L63.9662295,10.4836193 C63.2148642,10.7831513 62.3633169,10.9828393 61.3614966,10.9828393 C60.1593121,10.9828393 59.2075828,10.6333853 58.5563996,9.93447738 C57.8551253,9.23556942 57.5044882,8.28705148 57.5044882,7.08892356 C57.5044882,5.94071763 57.8050343,4.94227769 58.4562175,4.19344774 C59.1074008,3.34477379 60.0090391,2.94539782 61.1611325,2.94539782 C62.2631349,2.94539782 63.1146822,3.34477379 63.7157744,4.19344774 C64.1665935,4.7925117 64.3669576,5.59126365 64.3669576,6.53978159 M62.7640451,6.09048362 C62.7640451,5.59126365 62.663863,5.14196568 62.4134079,4.7925117 C62.1128618,4.29329173 61.6620427,4.09360374 61.0609505,4.09360374 C60.5099493,4.09360374 60.0591301,4.34321373 59.708493,4.7925117 C59.4079469,5.14196568 59.2576738,5.59126365 59.2075828,6.14040562 L62.7640451,6.14040562 L62.7640451,6.09048362 Z" id="Shape"></path>
                                </g>
                            </g>
                        </g>
                    </g>
                </g>
            </g>
        </g>
    </g>
</svg>