<?xml version="1.0" encoding="UTF-8"?>
<svg width="109px" height="32px" viewBox="0 0 109 32" version="1.1" xmlns="http://www.w3.org/2000/svg" xmlns:xlink="http://www.w3.org/1999/xlink">
    <title>61B432E8-5303-4F14-AF9E-E79A55959B1E@2x</title>
    <defs>
        <linearGradient x1="80.9187692%" y1="48.9153285%" x2="-158.377231%" y2="48.9153285%" id="linearGradient-1">
            <stop stop-color="#FEE000" offset="0%"></stop>
            <stop stop-color="#FCCF0B" offset="19.41%"></stop>
            <stop stop-color="#FAB318" offset="54.69%"></stop>
            <stop stop-color="#F9A21B" offset="82.79%"></stop>
            <stop stop-color="#F99B1C" offset="100%"></stop>
        </linearGradient>
        <linearGradient x1="86.4104478%" y1="31.0442863%" x2="-50.058209%" y2="135.499838%" id="linearGradient-2">
            <stop stop-color="#EF4547" offset="0%"></stop>
            <stop stop-color="#C6186D" offset="100%"></stop>
        </linearGradient>
        <linearGradient x1="-50.6664179%" y1="-35.9610884%" x2="60.7567164%" y2="49.3241727%" id="linearGradient-3">
            <stop stop-color="#279E6F" offset="0%"></stop>
            <stop stop-color="#4DAB6D" offset="31.68%"></stop>
            <stop stop-color="#6ABA6A" offset="73.98%"></stop>
            <stop stop-color="#74C169" offset="100%"></stop>
        </linearGradient>
    </defs>
    <g id="Final---Revamp-Bureaus---Mobile-&amp;-Desktop--Copy-3" stroke="none" stroke-width="1" fill="none" fill-rule="evenodd">
        <g id="Mobile---Hamburger-drawer-with-men-icon" transform="translate(-24.000000, -787.000000)" fill-rule="nonzero">
            <g id="Group-59" transform="translate(0.000000, 707.000000)">
                <g id="Download-app" transform="translate(24.000000, 16.000000)">
                    <g id="Group" transform="translate(0.000000, 64.000000)">
                        <g>
                            <path d="M104.940682,31.600624 L4.10746344,31.600624 C2.05373172,31.600624 0.400728141,29.9531981 0.400728141,27.9063963 L0.400728141,4.09360374 C0.400728141,2.04680187 2.05373172,0.399375975 4.10746344,0.399375975 L104.890591,0.399375975 C106.944323,0.399375975 108.597326,2.04680187 108.597326,4.09360374 L108.597326,27.9063963 C108.647417,29.9531981 106.994414,31.600624 104.940682,31.600624 Z" id="Path" fill="#000000"></path>
                            <path d="M104.940682,32 L4.10746344,32 C1.85336765,32 0,30.1528861 0,27.9063963 L0,4.09360374 C0,1.84711388 1.85336765,0 4.10746344,0 L104.890591,0 C107.144687,0 108.999046,1.84711388 108.999046,4.09360374 L108.999046,27.9063963 C109.048145,30.2028081 107.194778,32 104.940682,32 Z M4.10746344,0.848673947 C2.30418681,0.848673947 0.801456282,2.29641186 0.801456282,4.14352574 L0.801456282,27.9563183 C0.801456282,29.7535101 2.25409579,31.25117 4.10746344,31.25117 L104.890591,31.25117 C106.693867,31.25117 108.196598,29.8034321 108.196598,27.9563183 L108.196598,4.14352574 C108.196598,2.34633385 106.743959,0.848673947 104.890591,0.848673947 L4.10746344,0.848673947 Z" id="Shape" fill="#A7A9AC"></path>
                        </g>
                        <g transform="translate(8.164836, 5.814746)">
                            <path d="M46.8351015,11.7078753 C44.9316428,11.7078753 43.3788212,13.1556132 43.3788212,15.1025711 C43.3788212,17.049529 44.9316428,18.4972669 46.8351015,18.4972669 C48.7385601,18.4972669 50.2913817,17.049529 50.2913817,15.1025711 C50.2913817,13.1556132 48.7385601,11.7078753 46.8351015,11.7078753 Z M46.8351015,17.1992949 C45.7831901,17.1992949 44.8815518,16.350621 44.8815518,15.1524931 C44.8815518,13.9044431 45.7831901,13.1056912 46.8351015,13.1056912 C47.8870128,13.1056912 48.7886511,13.9543651 48.7886511,15.1524931 C48.7886511,16.350621 47.8870128,17.1992949 46.8351015,17.1992949 Z M39.3715398,11.7078753 C37.4680812,11.7078753 35.9152596,13.1556132 35.9152596,15.1025711 C35.9152596,17.049529 37.4680812,18.4972669 39.3715398,18.4972669 C41.2749985,18.4972669 42.82782,17.049529 42.82782,15.1025711 C42.777729,13.1556132 41.2249075,11.7078753 39.3715398,11.7078753 Z M39.3715398,17.1992949 C38.3196285,17.1992949 37.4179901,16.350621 37.4179901,15.1524931 C37.4179901,13.9044431 38.3196285,13.1056912 39.3715398,13.1056912 C40.4234512,13.1056912 41.3250895,13.9543651 41.3250895,15.1524931 C41.2749985,16.350621 40.3733602,17.1992949 39.3715398,17.1992949 Z M30.4052477,12.7562372 L30.4052477,14.2039751 L33.8615279,14.2039751 C33.7613459,15.0027271 33.4607998,15.601791 33.0600716,16.051089 C32.5591614,16.550309 31.7577052,17.0994509 30.3551567,17.0994509 C28.2012429,17.0994509 26.5482393,15.4021031 26.5482393,13.2554572 C26.5482393,11.1088113 28.2012429,9.41146343 30.3551567,9.41146343 C31.5072501,9.41146343 32.3587974,9.8607614 32.9598896,10.4598254 L33.9617099,9.46138543 C33.1101626,8.61271148 31.9580692,8.01364752 30.3050656,8.01364752 C27.3496956,8.01364752 24.8952357,10.4099034 24.8952357,13.3053792 C24.8952357,16.250777 27.3496956,18.5971109 30.3050656,18.5971109 C31.9079782,18.5971109 33.0600716,18.0978909 34.011801,17.0994509 C34.9635303,16.150933 35.2640764,14.8030391 35.2640764,13.7047552 C35.2640764,13.3553012 35.2139854,13.0557692 35.1638944,12.8061592 L30.4052477,12.8061592 L30.4052477,12.7562372 Z M66.9215995,13.9044431 C66.6210534,13.1556132 65.7695061,11.7078753 63.9662295,11.7078753 C62.2130439,11.7078753 60.7103133,13.1056912 60.7103133,15.1025711 C60.7103133,16.999607 62.1629528,18.4972669 64.1165025,18.4972669 C65.6693241,18.4972669 66.5709624,17.5487489 66.9716905,16.999607 L65.8195971,16.200855 C65.418869,16.749997 64.9179588,17.1493729 64.1165025,17.1493729 C63.3651373,17.1493729 62.8141361,16.799919 62.4634989,16.101011 L67.0217815,14.2039751 L66.9215995,13.9044431 Z M62.2631349,15.0526491 C62.2130439,13.7546772 63.2649552,13.0557692 64.0664115,13.0557692 C64.6675037,13.0557692 65.1684139,13.3553012 65.318687,13.8045992 L62.2631349,15.0526491 Z M58.5063086,18.3475009 L60.0090391,18.3475009 L60.0090391,8.3131795 L58.5063086,8.3131795 L58.5063086,18.3475009 Z M56.0518487,12.4567052 L56.0017577,12.4567052 C55.6511206,12.0573293 54.9999373,11.7078753 54.198481,11.7078753 C52.4953864,11.7078753 50.8924739,13.2055352 50.8924739,15.1524931 C50.8924739,17.049529 52.4452954,18.5471889 54.198481,18.5471889 C54.9999373,18.5471889 55.6511206,18.1977349 56.0017577,17.7484369 L56.0518487,17.7484369 L56.0518487,18.2476569 C56.0518487,19.5456288 55.3505744,20.2445368 54.198481,20.2445368 C53.2968427,20.2445368 52.6957505,19.5955508 52.4953864,19.0464088 L51.19302,19.5955508 C51.5937481,20.4941467 52.5454775,21.5924307 54.2485721,21.5924307 C56.0017577,21.5924307 57.5044882,20.5440687 57.5044882,18.0479689 L57.5044882,11.9075633 L56.0518487,11.9075633 L56.0518487,12.4567052 Z M54.3487541,17.1992949 C53.2968427,17.1992949 52.4452954,16.350621 52.4452954,15.1524931 C52.4452954,13.9543651 53.2968427,13.0557692 54.3487541,13.0557692 C55.3505744,13.0557692 56.2021217,13.9543651 56.2021217,15.1524931 C56.1520307,16.350621 55.3505744,17.1992949 54.3487541,17.1992949 Z M73.984433,8.3131795 L70.3778797,8.3131795 L70.3778797,18.3475009 L71.8806103,18.3475009 L71.8806103,14.5534291 L73.984433,14.5534291 C75.6374366,14.5534291 77.2904402,13.3553012 77.2904402,11.4582653 C77.2904402,9.56122942 75.6374366,8.3131795 73.984433,8.3131795 Z M74.034524,13.1556132 L71.8806103,13.1556132 L71.8806103,9.71099541 L74.034524,9.71099541 C75.1365264,9.71099541 75.7877096,10.6595134 75.7877096,11.4083433 C75.7877096,12.2070953 75.1365264,13.1556132 74.034524,13.1556132 Z M83.3013623,11.7078753 C82.1993599,11.7078753 81.0973575,12.2070953 80.5964473,13.2554572 L81.9489048,13.8045992 C82.2494509,13.2554572 82.7503611,13.0557692 83.3013623,13.0557692 C84.1028186,13.0557692 84.8541838,13.5050672 84.9042748,14.3537411 L84.9042748,14.4535851 C84.6538197,14.3038191 84.0527275,14.0542091 83.3514533,14.0542091 C81.8988138,14.0542091 80.4461743,14.8529611 80.4461743,16.300699 C80.4461743,17.6485929 81.6483587,18.4972669 82.9507251,18.4972669 C83.9525455,18.4972669 84.5035467,18.0479689 84.8541838,17.4988269 L84.9042748,17.4988269 L84.9042748,18.2975789 L86.3569143,18.2975789 L86.3569143,14.4535851 C86.3569143,12.7063152 85.0545479,11.7078753 83.3013623,11.7078753 Z M83.1510892,17.1992949 C82.650179,17.1992949 81.9489048,16.949685 81.9489048,16.350621 C81.9489048,15.551869 82.8004521,15.3022591 83.5518174,15.3022591 C84.2030006,15.3022591 84.5035467,15.4520251 84.9042748,15.651713 C84.8040928,16.550309 84.0026365,17.1992949 83.1510892,17.1992949 Z M91.6665622,11.9075633 L89.9634676,16.250777 L89.9133766,16.250777 L88.1101,11.9075633 L86.5071874,11.9075633 L89.2121023,17.9980469 L87.6592808,21.3927427 L89.2121023,21.3927427 L93.3696568,11.9075633 L91.6665622,11.9075633 Z M78.0918964,18.3475009 L79.594627,18.3475009 L79.594627,8.3131795 L78.0918964,8.3131795 L78.0918964,18.3475009 Z" id="Shape" fill="#FFFFFF"></path>
                            <g id="Path">
                                <path d="M0.350637123,0.325659997 C0.100182035,0.575269982 0,0.974645957 0,1.47386593 L0,19.1961748 C0,19.6953948 0.150273053,20.0947708 0.350637123,20.3443807 L0.400728141,20.3943027 L10.4189317,10.4099034 L10.4189317,10.3100594 L10.4189317,10.2102154 L0.450819158,0.275738 L0.350637123,0.325659997 Z" fill="#5BC9F4"></path>
                                <path d="M13.7249388,13.7546772 L10.4189317,10.4598254 L10.4189317,10.3599814 L10.4189317,10.2601374 L13.7249388,6.96528558 L13.7750298,7.01520758 L17.7322202,9.26169744 C18.8342226,9.9106834 18.8342226,10.9590453 17.7322202,11.5581093 L13.7750298,13.8045992 L13.7249388,13.7546772 Z" fill="url(#linearGradient-1)"></path>
                                <path d="M13.7750298,13.7047552 L10.3688406,10.3100594 L0.350637123,20.2944587 C0.701274246,20.6938347 1.35245748,20.7437567 2.0036407,20.3443807 L13.7750298,13.7047552" fill="url(#linearGradient-2)"></path>
                                <path d="M13.7750298,6.91536359 L2.0036407,0.275738 C1.30236646,-0.123637975 0.701274246,-0.0737159778 0.350637123,0.325659997 L10.3688406,10.3100594 L13.7750298,6.91536359 Z" fill="url(#linearGradient-3)"></path>
                            </g>
                        </g>
                        <g transform="translate(33.460800, 5.591264)" fill="#FFFFFF">
                            <path d="M3.60655327,1.09828393 C3.30600716,0.848673947 2.90527902,0.648985959 2.45445986,0.648985959 C1.45263951,0.648985959 0.701274246,1.44773791 0.701274246,2.44617785 C0.701274246,3.44461778 1.45263951,4.24336973 2.45445986,4.24336973 C3.30600716,4.24336973 3.90709937,3.74414977 3.95719039,2.94539782 L2.60473292,2.94539782 L2.60473292,2.39625585 L4.65846464,2.39625585 C4.65846464,4.04368175 3.75682632,4.8424337 2.40436884,4.8424337 C1.05191137,4.8424337 0,3.74414977 0,2.44617785 C0,1.09828393 1.05191137,0 2.40436884,0 C3.00546106,0 3.60655327,0.249609984 4.00728141,0.599063963 L3.60655327,1.09828393 Z" id="Path"></path>
                            <polygon id="Path" points="8.36519994 0.0998439938 8.36519994 0.698907956 6.21128618 0.698907956 6.21128618 2.19656786 8.11474485 2.19656786 8.11474485 2.79563183 6.21128618 2.79563183 6.21128618 4.24336973 8.46538197 4.24336973 8.46538197 4.8424337 5.61019397 4.8424337 5.61019397 0.0998439938 8.36519994 0.0998439938"></polygon>
                            <polygon id="Path" points="12.5227544 0.0998439938 12.5227544 0.698907956 11.0701149 0.698907956 11.0701149 4.8424337 10.4189317 4.8424337 10.4189317 0.698907956 8.96629215 0.698907956 8.96629215 0.0998439938"></polygon>
                            <polygon id="Path" points="15.5783065 0.0998439938 15.5783065 4.8424337 14.9271232 4.8424337 14.9271232 0.0998439938"></polygon>
                            <polygon id="Path" points="19.936225 0.0998439938 19.936225 0.698907956 18.4835855 0.698907956 18.4835855 4.8424337 17.8324023 4.8424337 17.8324023 0.698907956 16.4298538 0.698907956 16.4298538 0.0998439938"></polygon>
                            <path d="M24.4945076,0.0499219969 C25.8469651,0.0499219969 26.8988765,1.14820593 26.8988765,2.49609984 C26.8988765,3.84399376 25.8469651,4.89235569 24.4945076,4.89235569 C23.1420501,4.89235569 22.0901388,3.79407176 22.0901388,2.49609984 C22.0901388,1.14820593 23.1420501,0.0499219969 24.4945076,0.0499219969 Z M24.4945076,4.29329173 C25.496328,4.29329173 26.2476932,3.49453978 26.2476932,2.49609984 C26.2476932,1.49765991 25.496328,0.698907956 24.4945076,0.698907956 C23.4926873,0.698907956 22.741322,1.49765991 22.741322,2.49609984 C22.741322,3.49453978 23.4926873,4.29329173 24.4945076,4.29329173 Z" id="Shape"></path>
                            <polygon id="Path" points="30.6557028 4.8424337 28.501789 1.29797192 28.501789 4.8424337 27.8506058 4.8424337 27.8506058 0.0998439938 28.501789 0.0998439938 30.6557028 3.64430577 30.6557028 0.0998439938 31.306886 0.0998439938 31.306886 4.8424337"></polygon>
                        </g>
                    </g>
                </g>
            </g>
        </g>
    </g>
</svg>